<svg xmlns="http://www.w3.org/2000/svg" width="32" height="36.321" viewBox="0 0 32 36.321">
  <g id="_003-save-money" data-name="003-save-money" transform="translate(-0.36)">
    <path id="Path_125" data-name="Path 125" d="M188.62,155.837a.564.564,0,0,0-.2-.007,1.349,1.349,0,0,1-1.193-1.337.593.593,0,1,0-1.186,0,2.538,2.538,0,0,0,1.866,2.443v.593a.593.593,0,1,0,1.186,0v-.557a2.533,2.533,0,0,0-.519-5.012,1.347,1.347,0,1,1,1.347-1.347.593.593,0,1,0,1.186,0,2.538,2.538,0,0,0-2.014-2.48v-.54a.593.593,0,1,0-1.186,0v.576a2.533,2.533,0,0,0,.667,4.976,1.346,1.346,0,0,1,.049,2.691Zm0,0" transform="translate(-171.839 -136.031)" fill="#fff"/>
    <path id="Path_126" data-name="Path 126" d="M104.195,115.093a8.672,8.672,0,1,0,8.672-8.6A8.637,8.637,0,0,0,104.195,115.093Zm8.672-7.415a7.415,7.415,0,1,1-7.476,7.415A7.445,7.445,0,0,1,112.867,107.678Zm0,0" transform="translate(-96.136 -98.53)" fill="#fff"/>
    <path id="Path_127" data-name="Path 127" d="M28.308,328.719l-4.667,2.2a3.8,3.8,0,0,0-3.241-1.991l-4.308-.118a4.566,4.566,0,0,1-1.958-.5l-.438-.226a7.763,7.763,0,0,0-7.162.008l.027-.989a.594.594,0,0,0-.579-.609l-4.724-.129a.594.594,0,0,0-.612.577L.36,337.255a.594.594,0,0,0,.579.609l4.724.129H5.68a.6.6,0,0,0,.6-.577l.014-.494,1.227-.654a2.114,2.114,0,0,1,1.571-.171l7.329,2.048.039.01a7.88,7.88,0,0,0,1.611.165,7.979,7.979,0,0,0,3.321-.721.555.555,0,0,0,.074-.041l10.627-6.843a.592.592,0,0,0,.2-.79,3.016,3.016,0,0,0-3.974-1.205ZM1.568,336.695l.253-9.136,3.533.1L5.1,336.792Zm19.283-.155a6.782,6.782,0,0,1-4.131.459L9.41,334.956a3.307,3.307,0,0,0-2.456.267l-.627.335.168-6.074a6.574,6.574,0,0,1,6.653-.353l.438.226a5.774,5.774,0,0,0,2.473.636l4.309.118a2.61,2.61,0,0,1,2.483,2.073l-6.418-.176a.593.593,0,1,0-.033,1.186l7.082.194H23.5a.6.6,0,0,0,.6-.577,3.748,3.748,0,0,0-.058-.77l4.787-2.252.014-.007a1.826,1.826,0,0,1,2.058.287Zm0,0" transform="translate(0 -301.999)" fill="#fff"/>
    <path id="Path_128" data-name="Path 128" d="M213.389,6.228V.593a.593.593,0,1,0-1.186,0V6.228a.593.593,0,1,0,1.186,0Zm0,0" transform="translate(-196.064)" fill="#fff"/>
    <path id="Path_129" data-name="Path 129" d="M273.389,43.262V40.593a.593.593,0,0,0-1.186,0v2.669a.593.593,0,0,0,1.186,0Zm0,0" transform="translate(-251.595 -37.034)" fill="#fff"/>
    <path id="Path_130" data-name="Path 130" d="M153.389,43.262V40.593a.593.593,0,1,0-1.186,0v2.669a.593.593,0,1,0,1.186,0Zm0,0" transform="translate(-140.533 -37.034)" fill="#fff"/>
  </g>
</svg>
