<svg xmlns="http://www.w3.org/2000/svg" xmlns:xlink="http://www.w3.org/1999/xlink" width="406.454" height="264.447" viewBox="0 0 406.454 264.447">
  <defs>
    <linearGradient id="linear-gradient" y1="0.5" x2="1" y2="0.5" gradientUnits="objectBoundingBox">
      <stop offset="0" stop-color="#ffc06c"/>
      <stop offset="1" stop-color="#f2a040"/>
    </linearGradient>
    <linearGradient id="linear-gradient-4" x1="0.128" y1="0.5" x2="0.875" y2="0.5" xlink:href="#linear-gradient"/>
    <linearGradient id="linear-gradient-5" x1="0.062" y1="0.433" x2="0.722" y2="0.534" xlink:href="#linear-gradient"/>
  </defs>
  <g id="Group_185486" data-name="Group 185486" transform="translate(-755.808 -945.553)">
    <g id="Group_185411" data-name="Group 185411" transform="translate(725.386 980.082)">
      <g id="Group_185392" data-name="Group 185392" transform="translate(30.422)">
        <path id="Path_441966" data-name="Path 441966" d="M2202.174,1975.481s-31.316-.918-43.969-25.489c-9.953-19.326-4.389-47.714,37.373-55.246,25.971-4.684-19.754-56.241,36.33-68.688s55.55-68,110.833-78.947,55.379,66.876,104.872,75.1,84.438,29.9,72.307,70.34,15.733,42.01,19.887,60.082-7.6,22.848-7.6,22.848Z" transform="translate(-2153.944 -1746.057)" fill="#eff1fe"/>
      </g>
      <g id="Group_185396" data-name="Group 185396" transform="translate(0 229.092)">
        <g id="Group_185395" data-name="Group 185395">
          <path id="Path_441971" data-name="Path 441971" d="M2371.943,3113.781H1972.776a.385.385,0,0,1-.348-.413h0a.385.385,0,0,1,.348-.413h399.167a.385.385,0,0,1,.348.413h0A.385.385,0,0,1,2371.943,3113.781Z" transform="translate(-1935.415 -3112.955)" fill="#44465f"/>
        </g>
      </g>
    </g>
    <g id="Group_185416" data-name="Group 185416" transform="translate(814.44 978.512)">
      <g id="Group_185412" data-name="Group 185412" transform="translate(28.724 14.706)">
        <path id="Path_441991" data-name="Path 441991" d="M2930.717,1833.9s1.121-5.208,2.251-4.581.331,3.655.331,3.655,7.01-8.9,8.269-8.531,3.979,3.535,3.4,5.266-8.29,10.272-8.29,10.272Z" transform="translate(-2887.886 -1824.432)" fill="#ff9dca"/>
        <path id="Path_441992" data-name="Path 441992" d="M2675.162,1901.912,2701.17,1910a5.284,5.284,0,0,0,6.079-2.29l18.505-30.282-8.039-6.875-19.32,26.418-17.976-8.678" transform="translate(-2675.162 -1862.827)" fill="#3855e5"/>
      </g>
      <path id="Path_441993" data-name="Path 441993" d="M2720.351,3036.528l-.77,11.825a.925.925,0,0,0,.922.985h20.64a.7.7,0,0,0,.518-1.182c-.969-1.045-3.259-2.5-8.649-3.142l-.061-6.413Z" transform="translate(-2683.411 -2818.674)" fill="#4a63fe"/>
      <path id="Path_441994" data-name="Path 441994" d="M2646.253,2333.885c1.857,19.073,8.7,121.2,9.661,120.933s19.964-.709,19.964-.709.055-125.258.01-125.254C2672.086,2329.242,2645.972,2331,2646.253,2333.885Z" transform="translate(-2622.372 -2229.607)" fill="#333649"/>
      <g id="Group_185413" data-name="Group 185413" transform="translate(28.149)">
        <path id="Path_441995" data-name="Path 441995" d="M2683,1883.432l-.763,13.8,12.668-.256.78-6.512Z" transform="translate(-2680.476 -1858.838)" fill="#ff9dca"/>
        <path id="Path_441996" data-name="Path 441996" d="M2686.789,1883.432l2.153,5.967,10.238,3.516.294-2.452Z" transform="translate(-2684.266 -1858.838)" fill="#ef8fc5"/>
        <path id="Path_441997" data-name="Path 441997" d="M2686.127,1783.713l-1.224,22.139,13,1.313s4.039,1.093,5.355-2.637c.841-2.383,1.957-21.165,1.957-21.165Z" transform="translate(-2682.696 -1775.54)" fill="#ff9dca"/>
        <path id="Path_441998" data-name="Path 441998" d="M2679.827,1758.584s-1.285,4.275-8.091,7.263c0,0,1.642-9.522.817-11.942s-2-11.407,2.978-11.976c0,0,3.806-7.556,10.861-4.529s8.36,5.662,13.844,5.128c0,0-2.117,6.942-7.231,6.777s-6.19,1.212-6.19,1.212l-2.938,4.344s-1.125-2.8-3.678-1.706S2679.827,1758.584,2679.827,1758.584Z" transform="translate(-2671.735 -1736.685)" fill="#44465f"/>
      </g>
      <path id="Path_441999" data-name="Path 441999" d="M2511.06,2952.648l-7.029,12.219a.924.924,0,0,0,.084,1.346l15.917,13.139a.7.7,0,0,0,1.152-.582c-.082-1.422-.922-4-4.67-7.929l5.585-7.848Z" transform="translate(-2503.78 -2748.853)" fill="#4a63fe"/>
      <path id="Path_442000" data-name="Path 442000" d="M2563.745,2308.876l-25.9,3.349c-6.73,7.73-2.467,29.3-1.837,30.652l12.827,28.954s-37.618,47.543-37.323,47.879c.656.749,15.314,12.536,15.314,12.536l45.421-48.089a14.527,14.527,0,0,0,3.7-12.755Z" transform="translate(-2510.212 -2212.977)" fill="#44465f"/>
      <path id="Path_442001" data-name="Path 442001" d="M2639.359,2352.869s-2.062,4.916-2.051,14.075a26.7,26.7,0,0,0,3.414,12.552l7.1-9.89Z" transform="translate(-2614.929 -2249.596)" fill="#44465f"/>
      <path id="Path_442002" data-name="Path 442002" d="M2633.006,1948.905c6.383,9.247,11.09,36.516,11.872,66.676l-38.52.421s2.867-19.035,1.046-28.833-6.813-23.372,1.214-33.444c6.538-8.2,9.566-7.729,9.566-7.729l11.584.356C2631.284,1946.428,2632.145,1947.658,2633.006,1948.905Z" transform="translate(-2587.365 -1910.912)" fill="#4a63fe"/>
      <g id="Group_185414" data-name="Group 185414" transform="translate(60.604 11.233)">
        <rect id="Rectangle_21342" data-name="Rectangle 21342" width="14.186" height="7.622" transform="translate(14.186 14.093) rotate(180)" fill="#44465f"/>
        <rect id="Rectangle_21343" data-name="Rectangle 21343" width="23.762" height="11.047" transform="translate(35.111 15.805) rotate(180)" fill="#d3d3d3"/>
        <rect id="Rectangle_21344" data-name="Rectangle 21344" width="22.555" height="16.01" transform="translate(51.636 18.286) rotate(180)" fill="#44465f"/>
        <rect id="Rectangle_21345" data-name="Rectangle 21345" width="6.03" height="20.563" transform="translate(55.159 20.563) rotate(180)" fill="#d3d3d3"/>
      </g>
      <g id="Group_185415" data-name="Group 185415" transform="translate(28.535 16.526)">
        <path id="Path_442003" data-name="Path 442003" d="M2950.193,1844.242s1.365-5.15,2.464-4.47.159,3.666.159,3.666,7.42-8.565,8.661-8.133,3.808,3.718,3.15,5.42-8.763,9.871-8.763,9.871Z" transform="translate(-2903.909 -1835.289)" fill="#ff9dca"/>
        <path id="Path_442004" data-name="Path 442004" d="M2674.035,1923.005l27.538,3.86a5.668,5.668,0,0,0,5.492-2.453l21.369-31.809-8.669-6-20.423,27.9-22.32-5.781" transform="translate(-2674.035 -1878.004)" fill="#4a63fe"/>
        <path id="Path_442005" data-name="Path 442005" d="M2755.156,1971.613c.99.2,1.974.42,2.96.634s1.968.442,2.951.668l2.943.7,2.937.724-.337.12c.959-1.318,1.908-2.644,2.88-3.953s1.938-2.622,2.92-3.924,1.969-2.6,2.971-3.887c.5-.647,1.007-1.284,1.513-1.924s1.012-1.279,1.531-1.91c-.445.685-.9,1.361-1.359,2.036s-.91,1.354-1.376,2.023q-1.386,2.016-2.808,4.006t-2.858,3.969c-.955,1.322-1.932,2.627-2.9,3.94l-.13.177-.208-.057-2.919-.793-2.912-.818c-.969-.281-1.939-.555-2.9-.849S2756.118,1971.921,2755.156,1971.613Z" transform="translate(-2741.56 -1938.149)" fill="#44465f"/>
        <path id="Path_442006" data-name="Path 442006" d="M2755.116,2032.857q4.974.524,9.929,1.175l2.478.326,1.238.167.619.084a5.6,5.6,0,0,0,.589.048,5,5,0,0,0,4.1-1.906c.234-.3.46-.66.692-1l.691-1.041,1.385-2.08c.933-1.38,1.855-2.767,2.8-4.14q2.807-4.135,5.723-8.2-2.589,4.279-5.286,8.487c-.891,1.408-1.8,2.8-2.706,4.2l-1.368,2.091-.685,1.045c-.231.347-.442.7-.72,1.056a5.641,5.641,0,0,1-4.647,2.123,6.243,6.243,0,0,1-.654-.065l-.617-.1-1.235-.19-2.468-.39Q2760.034,2033.766,2755.116,2032.857Z" transform="translate(-2741.527 -1985.951)" fill="#44465f"/>
        <path id="Path_442007" data-name="Path 442007" d="M2926.313,1898.078c.377-.646.767-1.283,1.157-1.921s.778-1.276,1.178-1.907q1.19-1.9,2.415-3.775l.077.41c-1.462-.976-2.908-1.973-4.355-2.97s-2.881-2.013-4.309-3.038l.4-.067c-.835,1.1-1.672,2.19-2.523,3.274-.421.546-.858,1.079-1.287,1.618s-.861,1.076-1.3,1.606c.371-.582.753-1.156,1.137-1.728s.761-1.15,1.154-1.716c.776-1.139,1.566-2.268,2.359-3.394l.158-.225.238.159q2.193,1.463,4.361,2.963c1.443,1,2.885,2.006,4.313,3.031l.241.173-.164.237q-1.273,1.843-2.582,3.663c-.433.609-.876,1.21-1.32,1.811S2926.769,1897.485,2926.313,1898.078Z" transform="translate(-2876.91 -1876.04)" fill="#44465f"/>
      </g>
    </g>
    <rect id="Rectangle_21346" data-name="Rectangle 21346" width="10.056" height="168.981" transform="translate(1073.178 1040.193)" fill="#333649"/>
    <circle id="Ellipse_3226" data-name="Ellipse 3226" cx="50.691" cy="50.691" r="50.691" transform="translate(1005.949 1017.24) rotate(-45)" fill="#4a63fe"/>
    <circle id="Ellipse_3227" data-name="Ellipse 3227" cx="43.728" cy="43.728" r="43.728" transform="translate(1033.909 973.512)" fill="#fff"/>
    <g id="Group_185426" data-name="Group 185426" transform="translate(1024.813 963.848)">
      <g id="Group_185425" data-name="Group 185425">
        <g id="Group_185418" data-name="Group 185418">
          <g id="Group_185417" data-name="Group 185417">
            <circle id="Ellipse_3228" data-name="Ellipse 3228" cx="37.754" cy="37.754" r="37.754" transform="translate(0 53.392) rotate(-45)" fill="#e0c700"/>
          </g>
        </g>
        <g id="Group_185419" data-name="Group 185419" transform="translate(19.223 19.223)">
          <circle id="Ellipse_3229" data-name="Ellipse 3229" cx="28.593" cy="28.593" r="28.593" transform="matrix(0.976, -0.219, 0.219, 0.976, 0, 12.546)" fill="#e0c700"/>
        </g>
        <g id="Group_185422" data-name="Group 185422" transform="translate(21.524 21.524)">
          <g id="Group_185421" data-name="Group 185421">
            <g id="Group_185420" data-name="Group 185420">
              <path id="Path_442008" data-name="Path 442008" d="M3919.279,1841.358a31.869,31.869,0,1,1,31.869-31.869A31.905,31.905,0,0,1,3919.279,1841.358Zm0-60.462a28.593,28.593,0,1,0,28.593,28.593A28.625,28.625,0,0,0,3919.279,1780.9Z" transform="translate(-3887.41 -1777.62)" fill="#fff"/>
            </g>
          </g>
        </g>
      </g>
    </g>
    <g id="Group_185478" data-name="Group 185478" transform="translate(997.645 965.902)">
      <path id="Path_442019" data-name="Path 442019" d="M78.661,73.684a22.293,22.293,0,1,1,22.28-22.31A22.319,22.319,0,0,1,78.661,73.684Z" transform="translate(0 0)" fill="#efd716"/>
      <g id="Group_185476" data-name="Group 185476" transform="translate(64.134 29.181)">
        <path id="Path_442020" data-name="Path 442020" d="M88.072,65.458,68.9,29.12A22.107,22.107,0,0,0,59.274,32.3L80.018,71.616A22.483,22.483,0,0,0,88.072,65.458Z" transform="translate(-56.347 -29.12)" fill="#fae66c"/>
        <path id="Path_442021" data-name="Path 442021" d="M58.476,31.668l20.263,38.4a22.2,22.2,0,0,0,2.347-.767L60.431,30.153A21.723,21.723,0,0,0,58.476,31.668Z" transform="translate(-58.476 -26.364)" fill="#fae66c"/>
      </g>
      <path id="Path_442022" data-name="Path 442022" d="M74.889,64.726a17.107,17.107,0,1,1,17.095-17.12A17.132,17.132,0,0,1,74.889,64.726Z" transform="translate(3.772 3.772)" fill="#ffaa31"/>
      <path id="Path_442023" data-name="Path 442023" d="M86.764,32.463A17.086,17.086,0,0,1,58.52,51.685,17.088,17.088,0,1,0,86.764,32.463Z" transform="translate(5.775 8.979)" fill="#d28000"/>
      <path id="Path_442024" data-name="Path 442024" d="M59.064,49.146a17.083,17.083,0,0,1,29.4-11.872,17.084,17.084,0,1,0-25.889,22.2A17,17,0,0,1,59.064,49.146Z" transform="translate(3.772 3.772)" fill="#d28000"/>
      <path id="Path_442025" data-name="Path 442025" d="M76.921,44.821a4.931,4.931,0,0,0-2.63-1.694,4.422,4.422,0,0,0,2.626-4.06,4.2,4.2,0,0,0-.576-2.186,4.756,4.756,0,0,0-1.434-1.562,4.819,4.819,0,0,0-1.955-.77,13.344,13.344,0,0,0-1.515-.143V31.786l-2.718,0v2.575h-1.6V31.79l-2.718,0v2.575H62.166l-1.98,0,0,3.11h1.977l.011,12.481H60.2v3.114h1.98l2.241,0V55.6l2.718,0v-2.52h1.408l.191,0v2.523l2.718,0V53.025c.778-.022,1.328-.051,1.65-.084a5.354,5.354,0,0,0,2.531-.888,5.03,5.03,0,0,0,1.617-1.929,5.5,5.5,0,0,0,.59-2.483A4.489,4.489,0,0,0,76.921,44.821Zm-5.578-7.28a2.167,2.167,0,0,1,1.423.656,2.043,2.043,0,0,1,.48,1.408,1.98,1.98,0,0,1-.557,1.463,2.494,2.494,0,0,1-1.522.671q-.539.061-2.743.066H65.948l0-4.328h2.171C69.89,37.478,70.969,37.5,71.343,37.54Zm2.069,11.516a2.368,2.368,0,0,1-1.372.745,16.888,16.888,0,0,1-2.589.117l-3.5,0,0-5,3.051,0a12.779,12.779,0,0,1,3.348.268,2.3,2.3,0,0,1,1.185.855,2.433,2.433,0,0,1,.407,1.427A2.316,2.316,0,0,1,73.411,49.057Z" transform="translate(10.219 7.173)" fill="#d28000"/>
      <path id="Path_442026" data-name="Path 442026" d="M76.761,44.96a4.915,4.915,0,0,0-2.63-1.7,4.438,4.438,0,0,0,2.626-4.056,4.208,4.208,0,0,0-.576-2.19,4.72,4.72,0,0,0-3.389-2.333,13.348,13.348,0,0,0-1.515-.143l0-2.619-2.718,0,0,2.575h-1.6V31.926l-2.721,0,0,2.575H62l-1.977,0v3.114l1.98,0L62.014,50.1H60.037v3.114h1.98l2.237,0,0,2.523,2.718,0v-2.52h1.408l.187,0,0,2.523h2.718l0-2.567c.781-.022,1.331-.048,1.65-.084a5.325,5.325,0,0,0,2.531-.888,4.981,4.981,0,0,0,1.621-1.929,5.551,5.551,0,0,0,.59-2.483A4.471,4.471,0,0,0,76.761,44.96Zm-5.578-7.284a2.167,2.167,0,0,1,1.423.656,2.054,2.054,0,0,1,.477,1.408,1.977,1.977,0,0,1-.554,1.463,2.5,2.5,0,0,1-1.522.671c-.359.044-1.273.066-2.747.066H65.788l0-4.324,2.168,0C69.73,37.614,70.8,37.636,71.183,37.676Zm2.068,11.516a2.359,2.359,0,0,1-1.372.745,16.948,16.948,0,0,1-2.593.117l-3.5,0,0-5,3.051,0a12.778,12.778,0,0,1,3.348.268,2.29,2.29,0,0,1,1.181.855,2.435,2.435,0,0,1,.411,1.427A2.328,2.328,0,0,1,73.251,49.193Z" transform="translate(9.793 7.536)" fill="#fcd73b"/>
      <g id="Group_185477" data-name="Group 185477" transform="translate(69.817 39.458)">
        <path id="Path_442027" data-name="Path 442027" d="M73.763,52.189a4.981,4.981,0,0,0,1.621-1.929,5.551,5.551,0,0,0,.59-2.483,4.471,4.471,0,0,0-.921-2.817,4.936,4.936,0,0,0-2.63-1.7,4.256,4.256,0,0,0,2.5-3.158l-2.674-5.065a5.07,5.07,0,0,0-1.166-.356,13.348,13.348,0,0,0-1.515-.143l0-2.619-2.718,0,0,2.575h-1.6V31.926l-2.721,0,0,2.575h-1.87l3.411,6.466V37.618l2.168,0q2.668,0,3.227.062a2.185,2.185,0,0,1,1.427.656,2.054,2.054,0,0,1,.477,1.408,1.977,1.977,0,0,1-.554,1.463,2.5,2.5,0,0,1-1.522.671c-.359.044-1.273.066-2.747.066H64.59l1.643,3.114.9,0a12.778,12.778,0,0,1,3.348.268,2.29,2.29,0,0,1,1.181.855,2.435,2.435,0,0,1,.411,1.427,2.328,2.328,0,0,1-.528,1.592,2.359,2.359,0,0,1-1.372.745,8.708,8.708,0,0,1-1.309.1l1.628,3.092c.312-.015.568-.033.741-.051A5.325,5.325,0,0,0,73.763,52.189Z" transform="translate(-58.318 -31.922)" fill="#ffe146"/>
        <path id="Path_442028" data-name="Path 442028" d="M65.789,43.176h.86L61.083,32.627H60.026l0,3.113h1.979l0,3.864,3.782,7.168Z" transform="translate(-60.026 -30.043)" fill="#ffe146"/>
        <path id="Path_442029" data-name="Path 442029" d="M61.8,36.87l1.665,3.15h.187l.187,0v.719l.954,1.8h1.768l0-1.874-2-3.8Z" transform="translate(-55.293 -18.734)" fill="#ffe146"/>
      </g>
    </g>
    <rect id="Rectangle_21347" data-name="Rectangle 21347" width="95.918" height="6.704" transform="translate(1041.664 1048.473) rotate(-45)" fill="#4a63fe"/>
    <path id="Path_442010" data-name="Path 442010" d="M3016.846,2601.506l65.417,47.862,65.417-47.862Z" transform="translate(-2116.416 -1478.051)" fill="#4a63fe"/>
    <path id="Path_442011" data-name="Path 442011" d="M3082.264,2269.209l65.417,55.693H3016.846Z" transform="translate(-2116.416 -1201.447)" fill="#4a63fe"/>
    <g id="Group_185432" data-name="Group 185432" transform="translate(914.584 1066.57)">
      <rect id="Rectangle_21348" data-name="Rectangle 21348" width="96.471" height="47.644" transform="translate(7.862 1.58) rotate(7.578)" fill="#c5caef"/>
      <rect id="Rectangle_21349" data-name="Rectangle 21349" width="40.903" height="89.729" transform="translate(99.705 17.198) rotate(97.578)" fill="#dcdffe"/>
      <circle id="Ellipse_3230" data-name="Ellipse 3230" cx="15.206" cy="15.206" r="15.206" transform="translate(31.031 31.555) rotate(-45)" fill="#fff"/>
      <circle id="Ellipse_3231" data-name="Ellipse 3231" cx="5.667" cy="5.667" r="5.667" transform="translate(4.788 6.888) rotate(-37.422)" fill="#c5caef"/>
      <circle id="Ellipse_3232" data-name="Ellipse 3232" cx="5.667" cy="5.667" r="5.667" transform="translate(0 42.881) rotate(-37.422)" fill="#c5caef"/>
      <circle id="Ellipse_3233" data-name="Ellipse 3233" cx="5.667" cy="5.667" r="5.667" transform="translate(88.988 18.089) rotate(-37.422)" fill="#c5caef"/>
      <circle id="Ellipse_3234" data-name="Ellipse 3234" cx="5.667" cy="5.667" r="5.667" transform="translate(84.13 55.139) rotate(-45)" fill="#c5caef"/>
    </g>
    <g id="Group_185436" data-name="Group 185436" transform="translate(912.576 1109.383)">
      <rect id="Rectangle_21350" data-name="Rectangle 21350" width="96.471" height="47.644" transform="translate(2.348 1.151)" fill="#c5caef"/>
      <rect id="Rectangle_21351" data-name="Rectangle 21351" width="40.903" height="89.729" transform="translate(95.447 4.521) rotate(90)" fill="#dcdffe"/>
      <circle id="Ellipse_3235" data-name="Ellipse 3235" cx="15.206" cy="15.206" r="15.206" transform="translate(29.079 24.973) rotate(-45)" fill="#fff"/>
      <circle id="Ellipse_3236" data-name="Ellipse 3236" cx="5.667" cy="5.667" r="5.667" transform="translate(1.197 11.032) rotate(-76.717)" fill="#c5caef"/>
      <circle id="Ellipse_3237" data-name="Ellipse 3237" cx="5.667" cy="5.667" r="5.667" transform="translate(0 43.127) rotate(-45)" fill="#c5caef"/>
      <circle id="Ellipse_3238" data-name="Ellipse 3238" cx="5.667" cy="5.667" r="5.667" transform="translate(86.138 11.032) rotate(-76.717)" fill="#c5caef"/>
      <circle id="Ellipse_3239" data-name="Ellipse 3239" cx="5.667" cy="5.667" r="5.667" transform="translate(84.941 43.127) rotate(-45)" fill="#c5caef"/>
    </g>
    <g id="Group_185482" data-name="Group 185482" transform="translate(899.056 1094.715)">
      <path id="Path_442030" data-name="Path 442030" d="M64.01,44.4a7.651,7.651,0,1,1,7.646-7.656A7.66,7.66,0,0,1,64.01,44.4Z" transform="translate(0)" fill="#f0da28"/>
      <g id="Group_185479" data-name="Group 185479" transform="translate(59.025 29.126)">
        <path id="Path_442031" data-name="Path 442031" d="M69.157,41.591,62.577,29.12a7.587,7.587,0,0,0-3.3,1.093L66.393,43.7A7.716,7.716,0,0,0,69.157,41.591Z" transform="translate(-58.27 -29.12)" fill="#fae66c"/>
        <path id="Path_442032" data-name="Path 442032" d="M58.476,30.673,65.43,43.852a7.622,7.622,0,0,0,.806-.263L59.147,30.153A7.455,7.455,0,0,0,58.476,30.673Z" transform="translate(-58.476 -28.853)" fill="#fae66c"/>
      </g>
      <path id="Path_442033" data-name="Path 442033" d="M63.644,42.253a5.871,5.871,0,1,1,5.867-5.875A5.88,5.88,0,0,1,63.644,42.253Z" transform="translate(0.366 0.366)" fill="#ffaa31"/>
      <path id="Path_442034" data-name="Path 442034" d="M68.213,32.463a5.864,5.864,0,0,1-9.693,6.6,5.864,5.864,0,1,0,9.693-6.6Z" transform="translate(0.56 0.871)" fill="#d28000"/>
      <path id="Path_442035" data-name="Path 442035" d="M58.213,36.906A5.863,5.863,0,0,1,68.3,32.832a5.863,5.863,0,1,0-8.885,7.62A5.834,5.834,0,0,1,58.213,36.906Z" transform="translate(0.366 0.366)" fill="#d28000"/>
      <path id="Path_442036" data-name="Path 442036" d="M65.929,36.259a1.692,1.692,0,0,0-.9-.581,1.518,1.518,0,0,0,.9-1.393,1.443,1.443,0,0,0-.2-.75A1.632,1.632,0,0,0,65.238,33a1.654,1.654,0,0,0-.671-.264,4.582,4.582,0,0,0-.52-.049v-.9h-.933v.884h-.549v-.884h-.933v.884H60.186v1.067h.678l0,4.283h-.68v1.069h1.449v.866h.933v-.865h.549v.866h.933v-.88c.267-.008.456-.018.566-.029a1.838,1.838,0,0,0,.868-.3,1.726,1.726,0,0,0,.555-.662,1.888,1.888,0,0,0,.2-.852A1.541,1.541,0,0,0,65.929,36.259Zm-1.914-2.5a.744.744,0,0,1,.488.225.7.7,0,0,1,.165.483.679.679,0,0,1-.191.5.856.856,0,0,1-.522.23q-.185.021-.941.023h-.85V33.739h.745C63.516,33.739,63.886,33.746,64.015,33.761Zm.71,3.952a.813.813,0,0,1-.471.256,5.794,5.794,0,0,1-.889.04h-1.2V36.293h1.047a4.385,4.385,0,0,1,1.149.092.789.789,0,0,1,.407.293.835.835,0,0,1,.14.49A.8.8,0,0,1,64.725,37.713Z" transform="translate(0.991 0.695)" fill="#d28000"/>
      <path id="Path_442037" data-name="Path 442037" d="M65.769,36.4a1.687,1.687,0,0,0-.9-.583,1.523,1.523,0,0,0,.9-1.392,1.444,1.444,0,0,0-.2-.751,1.62,1.62,0,0,0-1.163-.8,4.582,4.582,0,0,0-.52-.049v-.9h-.933v.884h-.549v-.884h-.934v.884H60.026v1.069h.68l0,4.283H60.03v1.069h1.447v.866h.933v-.865h.548v.866h.933v-.881c.268-.008.457-.016.566-.029a1.828,1.828,0,0,0,.868-.3,1.709,1.709,0,0,0,.556-.662,1.905,1.905,0,0,0,.2-.852A1.534,1.534,0,0,0,65.769,36.4Zm-1.914-2.5a.744.744,0,0,1,.488.225.7.7,0,0,1,.164.483.679.679,0,0,1-.19.5.859.859,0,0,1-.522.23c-.123.015-.437.023-.943.023H62V33.877h.744C63.356,33.875,63.725,33.883,63.855,33.9Zm.71,3.952a.809.809,0,0,1-.471.256,5.816,5.816,0,0,1-.89.04H62V36.429h1.047a4.386,4.386,0,0,1,1.149.092.786.786,0,0,1,.405.293.836.836,0,0,1,.141.49A.8.8,0,0,1,64.565,37.849Z" transform="translate(0.949 0.731)" fill="#fcd73b"/>
      <g id="Group_185480" data-name="Group 185480" transform="translate(60.975 32.653)">
        <path id="Path_442038" data-name="Path 442038" d="M65.161,38.877a1.709,1.709,0,0,0,.556-.662,1.905,1.905,0,0,0,.2-.852A1.534,1.534,0,0,0,65.6,36.4a1.694,1.694,0,0,0-.9-.583,1.46,1.46,0,0,0,.858-1.084l-.918-1.738a1.74,1.74,0,0,0-.4-.122,4.582,4.582,0,0,0-.52-.049v-.9h-.933v.884h-.549v-.884h-.934v.884h-.642l1.171,2.219v-1.15h.744q.916,0,1.108.021a.75.75,0,0,1,.49.225.7.7,0,0,1,.164.483.679.679,0,0,1-.19.5.859.859,0,0,1-.522.23c-.123.015-.437.023-.943.023h-.673l.564,1.069h.308a4.386,4.386,0,0,1,1.149.092.786.786,0,0,1,.405.293.836.836,0,0,1,.141.49.8.8,0,0,1-.181.546.809.809,0,0,1-.471.256,2.988,2.988,0,0,1-.449.034l.559,1.061c.107-.005.2-.011.254-.018A1.828,1.828,0,0,0,65.161,38.877Z" transform="translate(-59.86 -31.922)" fill="#ffe146"/>
        <path id="Path_442039" data-name="Path 442039" d="M62,36.247h.3l-1.91-3.62h-.363V33.7h.679v1.326l1.3,2.46Z" transform="translate(-60.026 -31.74)" fill="#ffe146"/>
        <path id="Path_442040" data-name="Path 442040" d="M61.8,36.867l.571,1.081H62.5v.247l.327.619h.607V38.17l-.687-1.3Z" transform="translate(-59.567 -30.643)" fill="#ffe146"/>
      </g>
    </g>
    <g id="Group_185440" data-name="Group 185440" transform="translate(918.243 1126.34)">
      <rect id="Rectangle_21352" data-name="Rectangle 21352" width="96.47" height="47.644" transform="translate(2.348 2.347)" fill="#c5caef"/>
      <rect id="Rectangle_21353" data-name="Rectangle 21353" width="40.903" height="89.729" transform="translate(95.447 5.718) rotate(90)" fill="#dcdffe"/>
      <circle id="Ellipse_3240" data-name="Ellipse 3240" cx="15.206" cy="15.206" r="15.206" transform="translate(28.757 26.164) rotate(-45)" fill="#fff"/>
      <circle id="Ellipse_3241" data-name="Ellipse 3241" cx="5.667" cy="5.667" r="5.667" transform="translate(0 8.015) rotate(-45)" fill="#c5caef"/>
      <circle id="Ellipse_3242" data-name="Ellipse 3242" cx="5.667" cy="5.667" r="5.667" transform="translate(0 44.325) rotate(-45)" fill="#c5caef"/>
      <circle id="Ellipse_3243" data-name="Ellipse 3243" cx="5.667" cy="5.667" r="5.667" transform="translate(84.941 8.015) rotate(-45)" fill="#c5caef"/>
      <circle id="Ellipse_3244" data-name="Ellipse 3244" cx="5.667" cy="5.667" r="5.667" transform="translate(84.941 44.325) rotate(-45)" fill="#c5caef"/>
    </g>
    <path id="Path_442015" data-name="Path 442015" d="M3529.788,2687.225v-85.719l-53.9,39.435Z" transform="translate(-2498.523 -1478.051)" fill="#7c87ed"/>
    <path id="Path_442016" data-name="Path 442016" d="M3016.846,2687.225v-85.719l53.9,39.435Z" transform="translate(-2116.416 -1478.051)" fill="#7c87ed"/>
    <path id="Path_442017" data-name="Path 442017" d="M3093.782,2836.8l-11.519,8.427-11.518-8.427h0l-53.9,46.284h130.834l-53.9-46.284Z" transform="translate(-2116.416 -1673.907)" fill="#4a63fe"/>
    <g id="Group_185445" data-name="Group 185445" transform="translate(975.345 1147.93)">
      <g id="Group_185442" data-name="Group 185442" transform="translate(0 20.415)">
        <rect id="Rectangle_21354" data-name="Rectangle 21354" width="143.904" height="20.415" fill="#dcdffe"/>
        <rect id="Rectangle_21355" data-name="Rectangle 21355" width="143.904" height="4.781" transform="translate(0 15.633)" fill="#c5caef"/>
        <rect id="Rectangle_21356" data-name="Rectangle 21356" width="58.325" height="20.415" transform="translate(42.789)" fill="#fff"/>
        <rect id="Rectangle_21357" data-name="Rectangle 21357" width="58.325" height="4.781" transform="translate(42.789 15.633)" fill="#eff1fe"/>
        <rect id="Rectangle_21358" data-name="Rectangle 21358" width="3.234" height="20.415" transform="translate(42.789)" fill="#8f9ef9"/>
        <rect id="Rectangle_21359" data-name="Rectangle 21359" width="3.234" height="20.415" transform="translate(97.88)" fill="#8f9ef9"/>
      </g>
      <g id="Group_185443" data-name="Group 185443" transform="translate(12.291)">
        <rect id="Rectangle_21360" data-name="Rectangle 21360" width="143.904" height="20.415" fill="#dcdffe"/>
        <rect id="Rectangle_21361" data-name="Rectangle 21361" width="143.904" height="4.781" transform="translate(0 15.633)" fill="#c5caef"/>
        <rect id="Rectangle_21362" data-name="Rectangle 21362" width="58.325" height="20.415" transform="translate(42.789)" fill="#fff"/>
        <rect id="Rectangle_21363" data-name="Rectangle 21363" width="58.325" height="4.781" transform="translate(42.789 15.633)" fill="#eff1fe"/>
        <rect id="Rectangle_21364" data-name="Rectangle 21364" width="3.234" height="20.415" transform="translate(42.789)" fill="#8f9ef9"/>
        <rect id="Rectangle_21365" data-name="Rectangle 21365" width="3.234" height="20.415" transform="translate(97.88)" fill="#8f9ef9"/>
      </g>
      <g id="Group_185444" data-name="Group 185444" transform="translate(5.269 40.829)">
        <rect id="Rectangle_21366" data-name="Rectangle 21366" width="143.904" height="20.415" fill="#dcdffe"/>
        <rect id="Rectangle_21367" data-name="Rectangle 21367" width="143.904" height="4.781" transform="translate(0 15.633)" fill="#c5caef"/>
        <rect id="Rectangle_21368" data-name="Rectangle 21368" width="58.325" height="20.415" transform="translate(42.789)" fill="#fff"/>
        <rect id="Rectangle_21369" data-name="Rectangle 21369" width="58.325" height="4.861" transform="translate(42.789 15.554)" fill="#eff1fe"/>
        <rect id="Rectangle_21370" data-name="Rectangle 21370" width="3.234" height="20.415" transform="translate(42.789)" fill="#8f9ef9"/>
        <rect id="Rectangle_21371" data-name="Rectangle 21371" width="3.234" height="20.415" transform="translate(97.88)" fill="#8f9ef9"/>
      </g>
    </g>
    <g id="Group_185470" data-name="Group 185470" transform="translate(881.854 1105.799)">
      <g id="Group_185447" data-name="Group 185447" transform="translate(14.963 95.883)">
        <g id="Group_185446" data-name="Group 185446" transform="translate(0 0)">
          <rect id="Rectangle_21372" data-name="Rectangle 21372" width="51.103" height="7.492" rx="3.746" transform="translate(51.103 7.492) rotate(180)" fill="url(#linear-gradient)"/>
        </g>
      </g>
      <g id="Group_185449" data-name="Group 185449" transform="translate(12.476 88.49)">
        <g id="Group_185448" data-name="Group 185448" transform="translate(0 0)">
          <rect id="Rectangle_21373" data-name="Rectangle 21373" width="51.103" height="7.492" rx="3.746" transform="translate(51.103 7.492) rotate(180)" fill="url(#linear-gradient)"/>
        </g>
      </g>
      <g id="Group_185451" data-name="Group 185451" transform="translate(6.375 80.998)">
        <g id="Group_185450" data-name="Group 185450" transform="translate(0 0)">
          <rect id="Rectangle_21374" data-name="Rectangle 21374" width="51.103" height="7.492" rx="3.746" transform="translate(51.103 7.492) rotate(180)" fill="url(#linear-gradient)"/>
        </g>
      </g>
      <g id="Group_185453" data-name="Group 185453" transform="translate(16.877 73.506)">
        <g id="Group_185452" data-name="Group 185452" transform="translate(0 0)">
          <rect id="Rectangle_21375" data-name="Rectangle 21375" width="51.103" height="7.492" rx="3.746" transform="translate(51.103 7.492) rotate(180)" fill="url(#linear-gradient-4)"/>
        </g>
      </g>
      <g id="Group_185455" data-name="Group 185455" transform="translate(8.652 66.032)">
        <g id="Group_185454" data-name="Group 185454">
          <rect id="Rectangle_21376" data-name="Rectangle 21376" width="51.103" height="7.492" rx="3.746" fill="url(#linear-gradient-5)"/>
        </g>
      </g>
      <g id="Group_185457" data-name="Group 185457" transform="translate(0 58.54)">
        <g id="Group_185456" data-name="Group 185456" transform="translate(0 0)">
          <rect id="Rectangle_21377" data-name="Rectangle 21377" width="51.103" height="7.492" rx="3.746" transform="translate(51.103 7.492) rotate(180)" fill="url(#linear-gradient)"/>
        </g>
      </g>
      <g id="Group_185459" data-name="Group 185459" transform="translate(13.963 51.047)">
        <g id="Group_185458" data-name="Group 185458" transform="translate(0 0)">
          <rect id="Rectangle_21378" data-name="Rectangle 21378" width="51.103" height="7.492" rx="3.746" transform="translate(51.103 7.492) rotate(180)" fill="url(#linear-gradient)"/>
        </g>
      </g>
      <g id="Group_185469" data-name="Group 185469" transform="translate(11.54)">
        <g id="Group_185468" data-name="Group 185468">
          <g id="Group_185461" data-name="Group 185461">
            <g id="Group_185460" data-name="Group 185460">
              <circle id="Ellipse_3245" data-name="Ellipse 3245" cx="25.613" cy="25.613" r="25.613" fill="#fbb760"/>
            </g>
          </g>
          <g id="Group_185462" data-name="Group 185462" transform="translate(2.277 2.277)">
            <circle id="Ellipse_3246" data-name="Ellipse 3246" cx="19.398" cy="19.398" r="19.398" transform="translate(0.328 8.837) rotate(-13.282)" fill="#fbb760"/>
          </g>
          <g id="Group_185465" data-name="Group 185465" transform="translate(3.993 3.993)">
            <g id="Group_185464" data-name="Group 185464">
              <g id="Group_185463" data-name="Group 185463">
                <path id="Path_442018" data-name="Path 442018" d="M3020.314,2563.222a21.621,21.621,0,1,1,21.621-21.62A21.645,21.645,0,0,1,3020.314,2563.222Zm0-41.019a19.4,19.4,0,1,0,19.4,19.4A19.42,19.42,0,0,0,3020.314,2522.2Z" transform="translate(-2998.693 -2519.981)" fill="#fff"/>
              </g>
            </g>
          </g>
        </g>
      </g>
    </g>
    <g id="Group_185481" data-name="Group 185481" transform="translate(914.749 1043.598) rotate(16)">
      <path id="Path_442030-2" data-name="Path 442030" d="M65.29,46.957a8.93,8.93,0,1,1,8.925-8.936A8.94,8.94,0,0,1,65.29,46.957Z" transform="translate(0)" fill="#f0da28"/>
      <g id="Group_185479-2" data-name="Group 185479" transform="translate(59.471 29.131)">
        <path id="Path_442031-2" data-name="Path 442031" d="M70.809,43.676,63.129,29.12A8.855,8.855,0,0,0,59.274,30.4l8.309,15.747A9.006,9.006,0,0,0,70.809,43.676Z" transform="translate(-58.102 -29.12)" fill="#fae66c"/>
        <path id="Path_442032-2" data-name="Path 442032" d="M58.476,30.76l8.117,15.383a8.9,8.9,0,0,0,.94-.307L59.259,30.153A8.7,8.7,0,0,0,58.476,30.76Z" transform="translate(-58.476 -28.635)" fill="#fae66c"/>
      </g>
      <path id="Path_442033-2" data-name="Path 442033" d="M64.627,44.216a6.853,6.853,0,1,1,6.847-6.858A6.863,6.863,0,0,1,64.627,44.216Z" transform="translate(0.663 0.663)" fill="#ffaa31"/>
      <path id="Path_442034-2" data-name="Path 442034" d="M69.833,32.463a6.844,6.844,0,0,1-11.313,7.7,6.845,6.845,0,1,0,11.313-7.7Z" transform="translate(1.016 1.579)" fill="#d28000"/>
      <path id="Path_442035-2" data-name="Path 442035" d="M58.288,37.975A6.843,6.843,0,0,1,70.065,33.22a6.843,6.843,0,1,0-10.37,8.894A6.81,6.81,0,0,1,58.288,37.975Z" transform="translate(0.663 0.663)" fill="#d28000"/>
      <path id="Path_442036-2" data-name="Path 442036" d="M66.889,37.007a1.975,1.975,0,0,0-1.053-.679A1.771,1.771,0,0,0,66.888,34.7a1.684,1.684,0,0,0-.231-.876,1.905,1.905,0,0,0-.574-.626,1.93,1.93,0,0,0-.783-.309,5.348,5.348,0,0,0-.607-.057V31.786H63.6v1.031h-.641V31.787H61.875V32.82H60.186v1.246h.792l0,5H60.19v1.247h1.691v1.011H62.97V40.313h.641v1.011H64.7V40.293c.311-.009.532-.021.661-.034a2.145,2.145,0,0,0,1.014-.356,2.015,2.015,0,0,0,.648-.773,2.2,2.2,0,0,0,.237-.995A1.8,1.8,0,0,0,66.889,37.007Zm-2.234-2.916a.868.868,0,0,1,.57.263.819.819,0,0,1,.192.564.793.793,0,0,1-.223.586,1,1,0,0,1-.61.269q-.216.024-1.1.026h-.992V34.066h.87C64.073,34.066,64.505,34.073,64.655,34.091Zm.829,4.613a.948.948,0,0,1-.549.3,6.763,6.763,0,0,1-1.037.047H62.5v-2h1.222a5.119,5.119,0,0,1,1.341.107.921.921,0,0,1,.475.342.975.975,0,0,1,.163.571A.928.928,0,0,1,65.484,38.7Z" transform="translate(1.797 1.261)" fill="#d28000"/>
      <path id="Path_442037-2" data-name="Path 442037" d="M66.729,37.145a1.969,1.969,0,0,0-1.053-.68,1.778,1.778,0,0,0,1.052-1.625,1.686,1.686,0,0,0-.231-.877,1.89,1.89,0,0,0-1.357-.934,5.349,5.349,0,0,0-.607-.057V31.922H63.443v1.031H62.8V31.923h-1.09v1.031H60.026V34.2h.793l0,5H60.03V40.45H61.72v1.011H62.81V40.449h.639v1.011h1.089V40.429c.313-.009.533-.019.661-.034a2.133,2.133,0,0,0,1.014-.356,2,2,0,0,0,.649-.773,2.224,2.224,0,0,0,.237-.995A1.791,1.791,0,0,0,66.729,37.145Zm-2.234-2.918a.868.868,0,0,1,.57.263.823.823,0,0,1,.191.564.792.792,0,0,1-.222.586,1,1,0,0,1-.61.269c-.144.018-.51.026-1.1.026h-.99V34.2H63.2C63.913,34.2,64.344,34.211,64.495,34.227Zm.829,4.613a.945.945,0,0,1-.549.3,6.788,6.788,0,0,1-1.039.047h-1.4v-2h1.222a5.119,5.119,0,0,1,1.341.107.917.917,0,0,1,.473.342.975.975,0,0,1,.165.571A.933.933,0,0,1,65.324,38.84Z" transform="translate(1.722 1.325)" fill="#fcd73b"/>
      <g id="Group_185480-2" data-name="Group 185480" transform="translate(61.748 33.247)">
        <path id="Path_442038-2" data-name="Path 442038" d="M65.912,40.04a2,2,0,0,0,.649-.773,2.224,2.224,0,0,0,.237-.995,1.791,1.791,0,0,0-.369-1.128,1.977,1.977,0,0,0-1.053-.68,1.7,1.7,0,0,0,1-1.265l-1.071-2.029a2.031,2.031,0,0,0-.467-.143,5.348,5.348,0,0,0-.607-.057V31.922H63.143v1.031H62.5V31.923h-1.09v1.031h-.749l1.366,2.59V34.2H62.9q1.069,0,1.293.025a.875.875,0,0,1,.571.263.823.823,0,0,1,.191.564.792.792,0,0,1-.222.586,1,1,0,0,1-.61.269c-.144.018-.51.026-1.1.026h-.786l.658,1.247h.36a5.119,5.119,0,0,1,1.341.107.917.917,0,0,1,.473.342.975.975,0,0,1,.165.571.932.932,0,0,1-.212.638.945.945,0,0,1-.549.3,3.487,3.487,0,0,1-.524.04l.652,1.238c.125-.006.228-.013.3-.021A2.133,2.133,0,0,0,65.912,40.04Z" transform="translate(-59.725 -31.922)" fill="#ffe146"/>
        <path id="Path_442039-2" data-name="Path 442039" d="M62.334,36.852h.344l-2.23-4.225h-.424v1.247h.793v1.548l1.515,2.871Z" transform="translate(-60.026 -31.592)" fill="#ffe146"/>
        <path id="Path_442040-2" data-name="Path 442040" d="M61.8,36.867l.667,1.262h.15v.288l.382.723h.708v-.751l-.8-1.522Z" transform="translate(-59.193 -29.603)" fill="#ffe146"/>
      </g>
    </g>
    <g id="Group_185483" data-name="Group 185483" transform="translate(903.588 1114.846)">
      <path id="Path_442030-3" data-name="Path 442030" d="M65.067,46.512a8.707,8.707,0,1,1,8.7-8.714A8.718,8.718,0,0,1,65.067,46.512Z" transform="translate(0 0)" fill="#f0da28"/>
      <g id="Group_185479-3" data-name="Group 185479" transform="translate(59.393 29.13)">
        <path id="Path_442031-3" data-name="Path 442031" d="M70.522,43.313,63.033,29.12a8.634,8.634,0,0,0-3.759,1.243l8.1,15.355A8.782,8.782,0,0,0,70.522,43.313Z" transform="translate(-58.131 -29.12)" fill="#fae66c"/>
        <path id="Path_442032-3" data-name="Path 442032" d="M58.476,30.745l7.915,15a8.673,8.673,0,0,0,.917-.3L59.24,30.153A8.484,8.484,0,0,0,58.476,30.745Z" transform="translate(-58.476 -28.673)" fill="#fae66c"/>
      </g>
      <path id="Path_442033-3" data-name="Path 442033" d="M64.456,43.875a6.682,6.682,0,1,1,6.677-6.687A6.692,6.692,0,0,1,64.456,43.875Z" transform="translate(0.612 0.612)" fill="#ffaa31"/>
      <path id="Path_442034-3" data-name="Path 442034" d="M69.552,32.463A6.674,6.674,0,0,1,58.52,39.971a6.674,6.674,0,1,0,11.032-7.508Z" transform="translate(0.936 1.456)" fill="#d28000"/>
      <path id="Path_442035-3" data-name="Path 442035" d="M58.275,37.789a6.672,6.672,0,0,1,11.484-4.637,6.673,6.673,0,1,0-10.112,8.672A6.64,6.64,0,0,1,58.275,37.789Z" transform="translate(0.612 0.612)" fill="#d28000"/>
      <path id="Path_442036-3" data-name="Path 442036" d="M66.722,36.877a1.926,1.926,0,0,0-1.027-.662,1.727,1.727,0,0,0,1.026-1.586,1.642,1.642,0,0,0-.225-.854,1.858,1.858,0,0,0-.56-.61,1.882,1.882,0,0,0-.764-.3,5.214,5.214,0,0,0-.592-.056V31.786H63.519v1.006h-.625V31.787H61.833v1.006H60.186v1.215h.772l0,4.875H60.19V40.1h1.649v.986H62.9V40.1h.625v.986h1.061v-1c.3-.009.519-.02.645-.033a2.091,2.091,0,0,0,.988-.347,1.965,1.965,0,0,0,.632-.753,2.149,2.149,0,0,0,.231-.97A1.753,1.753,0,0,0,66.722,36.877Zm-2.179-2.844a.846.846,0,0,1,.556.256.8.8,0,0,1,.188.55.773.773,0,0,1-.218.572.974.974,0,0,1-.594.262q-.211.024-1.072.026h-.967v-1.69h.848C63.976,34.009,64.4,34.016,64.544,34.034Zm.808,4.5a.925.925,0,0,1-.536.291,6.6,6.6,0,0,1-1.011.046H62.438V36.916h1.192a4.991,4.991,0,0,1,1.308.1.9.9,0,0,1,.463.334.95.95,0,0,1,.159.557A.9.9,0,0,1,65.352,38.532Z" transform="translate(1.657 1.163)" fill="#d28000"/>
      <path id="Path_442037-3" data-name="Path 442037" d="M66.562,37.015a1.92,1.92,0,0,0-1.027-.663,1.733,1.733,0,0,0,1.026-1.584,1.644,1.644,0,0,0-.225-.855A1.843,1.843,0,0,0,65.012,33a5.215,5.215,0,0,0-.592-.056V31.922H63.358v1.006h-.625V31.923H61.672V32.93H60.026v1.216H60.8l0,4.875H60.03v1.216h1.647v.986h1.061v-.984h.623v.986h1.061v-1c.305-.009.52-.019.645-.033a2.08,2.08,0,0,0,.988-.347,1.946,1.946,0,0,0,.633-.753,2.168,2.168,0,0,0,.231-.97A1.746,1.746,0,0,0,66.562,37.015ZM64.384,34.17a.846.846,0,0,1,.556.256.8.8,0,0,1,.186.55.772.772,0,0,1-.216.572.978.978,0,0,1-.594.262c-.14.017-.5.026-1.073.026h-.966V34.147h.847C63.816,34.145,64.236,34.154,64.384,34.17Zm.808,4.5a.921.921,0,0,1-.536.291A6.619,6.619,0,0,1,63.643,39H62.278V37.052h1.192a4.991,4.991,0,0,1,1.308.1.894.894,0,0,1,.461.334.951.951,0,0,1,.16.557A.909.909,0,0,1,65.192,38.668Z" transform="translate(1.588 1.222)" fill="#fcd73b"/>
      <g id="Group_185480-3" data-name="Group 185480" transform="translate(61.613 33.144)">
        <path id="Path_442038-3" data-name="Path 442038" d="M65.781,39.838a1.945,1.945,0,0,0,.633-.753,2.168,2.168,0,0,0,.231-.97,1.746,1.746,0,0,0-.36-1.1,1.928,1.928,0,0,0-1.027-.663,1.662,1.662,0,0,0,.977-1.233L65.191,33.14A1.98,1.98,0,0,0,64.736,33a5.215,5.215,0,0,0-.592-.056V31.922H63.081v1.006h-.625V31.923H61.4V32.93h-.731L62,35.456V34.147h.847q1.042,0,1.261.024a.854.854,0,0,1,.557.256.8.8,0,0,1,.186.55.772.772,0,0,1-.216.572.978.978,0,0,1-.594.262c-.14.017-.5.026-1.073.026H62.2l.642,1.216h.351a4.991,4.991,0,0,1,1.308.1.894.894,0,0,1,.461.334.951.951,0,0,1,.16.557.909.909,0,0,1-.206.622.921.921,0,0,1-.536.291,3.4,3.4,0,0,1-.511.039L64.5,40.2c.122-.006.222-.013.289-.02A2.08,2.08,0,0,0,65.781,39.838Z" transform="translate(-59.749 -31.922)" fill="#ffe146"/>
        <path id="Path_442039-3" data-name="Path 442039" d="M62.277,36.747h.336l-2.174-4.12h-.413v1.216H60.8v1.509l1.477,2.8Z" transform="translate(-60.026 -31.617)" fill="#ffe146"/>
        <path id="Path_442040-3" data-name="Path 442040" d="M61.8,36.867l.65,1.231H62.6v.281l.372.7h.69V38.35l-.782-1.484Z" transform="translate(-59.258 -29.784)" fill="#ffe146"/>
      </g>
    </g>
    <g id="Group_185484" data-name="Group 185484" transform="translate(850.645 1089.902)">
      <path id="Path_442030-4" data-name="Path 442030" d="M68.8,53.977A12.44,12.44,0,1,1,81.235,41.528,12.455,12.455,0,0,1,68.8,53.977Z" transform="translate(0 0)" fill="#f0da28"/>
      <g id="Group_185479-4" data-name="Group 185479" transform="translate(60.696 29.144)">
        <path id="Path_442031-4" data-name="Path 442031" d="M75.344,49.4,64.644,29.12a12.336,12.336,0,0,0-5.37,1.776L70.849,52.833A12.546,12.546,0,0,0,75.344,49.4Z" transform="translate(-57.641 -29.12)" fill="#fae66c"/>
        <path id="Path_442032-4" data-name="Path 442032" d="M58.476,31l11.307,21.43A12.392,12.392,0,0,0,71.093,52L59.567,30.153A12.122,12.122,0,0,0,58.476,31Z" transform="translate(-58.476 -28.039)" fill="#fae66c"/>
      </g>
      <path id="Path_442033-4" data-name="Path 442033" d="M67.322,49.6a9.546,9.546,0,1,1,9.539-9.553A9.56,9.56,0,0,1,67.322,49.6Z" transform="translate(1.48 1.48)" fill="#ffaa31"/>
      <path id="Path_442034-4" data-name="Path 442034" d="M74.281,32.463A9.534,9.534,0,0,1,58.52,43.189,9.535,9.535,0,1,0,74.281,32.463Z" transform="translate(2.266 3.523)" fill="#d28000"/>
      <path id="Path_442035-4" data-name="Path 442035" d="M58.491,40.91A9.533,9.533,0,0,1,74.9,34.285a9.533,9.533,0,1,0-14.447,12.39A9.487,9.487,0,0,1,58.491,40.91Z" transform="translate(1.48 1.48)" fill="#d28000"/>
      <path id="Path_442036-4" data-name="Path 442036" d="M69.524,39.059a2.752,2.752,0,0,0-1.467-.946,2.468,2.468,0,0,0,1.465-2.266,2.346,2.346,0,0,0-.321-1.22,2.654,2.654,0,0,0-.8-.872,2.689,2.689,0,0,0-1.091-.43,7.449,7.449,0,0,0-.845-.08V31.786l-1.516,0v1.437h-.892V31.788l-1.517,0v1.437H61.291l-1.105,0,0,1.735h1.1l.006,6.964H60.192v1.738H61.3l1.25,0v1.408l1.516,0V43.664h.786l.106,0V45.07l1.516,0V43.638c.434-.012.741-.029.921-.047a2.988,2.988,0,0,0,1.412-.5,2.807,2.807,0,0,0,.9-1.076,3.071,3.071,0,0,0,.329-1.386A2.505,2.505,0,0,0,69.524,39.059ZM66.412,35a1.209,1.209,0,0,1,.794.366,1.14,1.14,0,0,1,.268.786,1.1,1.1,0,0,1-.311.817,1.392,1.392,0,0,1-.849.375q-.3.034-1.531.037H63.4l0-2.415h1.212C65.6,34.962,66.2,34.972,66.412,35Zm1.154,6.426a1.321,1.321,0,0,1-.765.415,9.422,9.422,0,0,1-1.445.065l-1.952,0,0-2.792,1.7,0a7.131,7.131,0,0,1,1.868.149,1.283,1.283,0,0,1,.661.477,1.358,1.358,0,0,1,.227.8A1.293,1.293,0,0,1,67.566,41.423Z" transform="translate(4.009 2.814)" fill="#d28000"/>
      <path id="Path_442037-4" data-name="Path 442037" d="M69.364,39.2A2.743,2.743,0,0,0,67.9,38.25a2.477,2.477,0,0,0,1.465-2.263,2.348,2.348,0,0,0-.321-1.222,2.634,2.634,0,0,0-1.891-1.3,7.451,7.451,0,0,0-.845-.08l0-1.461-1.516,0,0,1.437H63.9V31.924l-1.519,0,0,1.437h-1.25l-1.1,0V35.1l1.105,0,0,6.964h-1.1V43.8h1.105l1.248,0,0,1.408,1.516,0V43.8h.786l.1,0,0,1.408h1.516l0-1.433c.436-.012.743-.027.921-.047a2.972,2.972,0,0,0,1.412-.5,2.78,2.78,0,0,0,.9-1.076,3.1,3.1,0,0,0,.329-1.386A2.5,2.5,0,0,0,69.364,39.2Zm-3.113-4.064a1.209,1.209,0,0,1,.794.366,1.146,1.146,0,0,1,.266.786A1.1,1.1,0,0,1,67,37.1a1.4,1.4,0,0,1-.849.375c-.2.025-.71.037-1.533.037H63.241l0-2.413,1.21,0C65.441,35.1,66.041,35.111,66.252,35.133Zm1.154,6.426a1.316,1.316,0,0,1-.765.415,9.456,9.456,0,0,1-1.447.065l-1.95,0,0-2.792,1.7,0a7.131,7.131,0,0,1,1.868.149,1.278,1.278,0,0,1,.659.477,1.359,1.359,0,0,1,.229.8A1.3,1.3,0,0,1,67.406,41.559Z" transform="translate(3.842 2.957)" fill="#fcd73b"/>
      <g id="Group_185480-4" data-name="Group 185480" transform="translate(63.867 34.879)">
        <path id="Path_442038-4" data-name="Path 442038" d="M67.974,43.231a2.779,2.779,0,0,0,.9-1.076,3.1,3.1,0,0,0,.329-1.386,2.5,2.5,0,0,0-.514-1.572,2.755,2.755,0,0,0-1.467-.948,2.375,2.375,0,0,0,1.4-1.762l-1.492-2.826a2.829,2.829,0,0,0-.651-.2,7.452,7.452,0,0,0-.845-.08l0-1.461-1.516,0,0,1.437h-.892V31.924l-1.519,0,0,1.437H60.666l1.9,3.608V35.1l1.21,0q1.489,0,1.8.035a1.22,1.22,0,0,1,.8.366,1.146,1.146,0,0,1,.266.786,1.1,1.1,0,0,1-.309.817,1.4,1.4,0,0,1-.849.375c-.2.025-.71.037-1.533.037H62.856l.917,1.738.5,0a7.131,7.131,0,0,1,1.868.149,1.278,1.278,0,0,1,.659.477,1.359,1.359,0,0,1,.229.8,1.3,1.3,0,0,1-.295.888,1.316,1.316,0,0,1-.765.415,4.859,4.859,0,0,1-.731.055l.909,1.725c.174-.008.317-.018.413-.029A2.972,2.972,0,0,0,67.974,43.231Z" transform="translate(-59.356 -31.922)" fill="#ffe146"/>
        <path id="Path_442039-4" data-name="Path 442039" d="M63.242,38.513h.48l-3.106-5.886h-.59v1.737h1.1V36.52l2.11,4Z" transform="translate(-60.026 -31.185)" fill="#ffe146"/>
        <path id="Path_442040-4" data-name="Path 442040" d="M61.8,36.868l.929,1.758h.1l.1,0v.4l.532,1.007h.986l0-1.046-1.117-2.12Z" transform="translate(-58.169 -26.748)" fill="#ffe146"/>
      </g>
    </g>
  </g>
</svg>
