<svg id="noun_buy_2955138" xmlns="http://www.w3.org/2000/svg" width="39.689" height="47.028" viewBox="0 0 39.689 47.028">
  <path id="Path_441004" data-name="Path 441004" d="M69.3,75.262l-3.6-3.6a2.131,2.131,0,0,0-3.086,0,2.151,2.151,0,0,0,0,3.049h.037l4.629,4.629h-.184A2.113,2.113,0,0,0,65.4,80a2.374,2.374,0,0,0-.661,1.4c-.184,1.874,1.984,2.5,3.417,2.9.331.073.661.22.992.331a15.87,15.87,0,0,0,1.653.7h0a14.2,14.2,0,0,0,3.27,1.065,4.121,4.121,0,0,1,2.5,1.212,1.026,1.026,0,0,0,.735.294h0a1.026,1.026,0,0,0,.735-.294l4.225-4.262a1.042,1.042,0,0,0,0-1.47,4.078,4.078,0,0,1-.588-1.433A7.8,7.8,0,0,0,79.914,77.1l-1.506-1.543-.073-.073-1.911-1.911a2.023,2.023,0,0,0-1.47-.588,2.287,2.287,0,0,0-1.58.661,1.6,1.6,0,0,0-.22.257,2.178,2.178,0,0,0-1.8.661l-.147.147c-.147,0-.257-.037-.4-.037A2.108,2.108,0,0,0,69.3,75.262Zm2.425,1.065a.8.8,0,0,0,.478-.441.8.8,0,0,1,.184-.294.683.683,0,0,1,.772-.184.128.128,0,0,1,.073.037.746.746,0,0,0,.955-.4V75a.8.8,0,0,1,.184-.294.748.748,0,0,1,.551-.22.678.678,0,0,1,.441.184l1.874,1.911.073.073L78.848,78.2a6.149,6.149,0,0,1,1.4,2.756,5.464,5.464,0,0,0,.7,1.653l-3.674,3.674A5.756,5.756,0,0,0,74.329,85a11.478,11.478,0,0,1-2.939-.955.036.036,0,0,1-.037-.037l-.551-.22c-.331-.147-.7-.294-1.029-.478a11.721,11.721,0,0,0-1.212-.4c-.992-.294-2.462-.735-2.388-1.4a.763.763,0,0,1,.772-.7h.037a11.466,11.466,0,0,1,2.241.4.764.764,0,0,0,.919-.514.7.7,0,0,0-.184-.7l-6.283-6.319a.656.656,0,0,1-.037-.955l.037-.037a.668.668,0,0,1,.992,0h0l4.188,4.188a.741.741,0,0,0,.661.22.732.732,0,0,0,.551-.441.659.659,0,0,1,.184-.257.867.867,0,0,1,.588-.257.417.417,0,0,1,.294.11A.645.645,0,0,0,71.721,76.327Z" transform="translate(-42.879 -44.914)"/>
  <path id="Path_441005" data-name="Path 441005" d="M12.939,47.028H34.984a2.948,2.948,0,0,0,2.939-2.939V42.032c-.184-.073-.367-.147-.588-.257-.551-.22-1.139-.478-1.69-.735a5.308,5.308,0,0,0-.808-.257c-1.249-.367-3.6-1.065-4.3-2.939H14.923a1.474,1.474,0,0,1-1.47-1.47v-.147l1.58-16.166a1.476,1.476,0,0,1,1.47-1.323h14.88a1.476,1.476,0,0,1,1.47,1.323l.514,5.217h0a2.53,2.53,0,0,1,.478.4l2.792,2.829a5.858,5.858,0,0,1,1.1-.22c.037-.037.11-.073.147-.11V2.939A2.948,2.948,0,0,0,34.947,0H12.939A2.948,2.948,0,0,0,10,2.939v41.15A2.948,2.948,0,0,0,12.939,47.028ZM27.636,1.47l-.992,1.47H21.28l-.992-1.47ZM11.47,43.942a2.156,2.156,0,0,0,.845.147H35.609a2.156,2.156,0,0,0,.845-.147v.147a1.474,1.474,0,0,1-1.47,1.47H12.939a1.474,1.474,0,0,1-1.47-1.47h0Z" transform="translate(-10)"/>
  <path id="Path_441006" data-name="Path 441006" d="M39.75,59.409a2.781,2.781,0,0,1,.551.037L39.9,55H24.98L23.4,71.166H38.831v-.037A3.668,3.668,0,0,1,39.9,68.851l.22-.22-2.976-2.976a3.674,3.674,0,0,1,2.609-6.246Zm-3.637-1.47v3.674a2.211,2.211,0,0,1-2.2,2.2H30.969a2.211,2.211,0,0,1-2.2-2.2V57.939a.735.735,0,1,1,0-1.47h1.47a.735.735,0,1,1,0,1.47v3.674a.737.737,0,0,0,.735.735h2.939a.737.737,0,0,0,.735-.735V57.939a.735.735,0,1,1,0-1.47h1.47a.735.735,0,1,1,0,1.47Z" transform="translate(-18.477 -34.792)"/>
</svg>
