<svg xmlns="http://www.w3.org/2000/svg" width="566.908" height="313.396" viewBox="0 0 566.908 313.396">
  <g id="Group_186364" data-name="Group 186364" transform="translate(-720 -1877.348)">
    <path id="Path_442375" data-name="Path 442375" d="M365.87,407.612a164.8,164.8,0,0,0,26.5,89.88h391.64a165.64,165.64,0,0,0-21.335-293.085c-.353-.153-.709-.3-1.065-.456a165.752,165.752,0,0,0-188.871,43.266,165.728,165.728,0,0,0-206.867,160.4Z" transform="translate(395.984 1686.422)" fill="#dee4f6"/>
    <path id="Path_442376" data-name="Path 442376" d="M796.13,869.313v-58.06H784.743v-29.03h9.677v-29.03H704.732a11.249,11.249,0,0,0-22.068-4.048l-5.479,4.048H645.6V769.55l-12.868,1.373a3.178,3.178,0,0,0-.929-1.89l-3.332-3.275-.008-.937a16.468,16.468,0,0,0,8.792-20.751l.264,0a7.149,7.149,0,0,0,7.087-7.21l0-.3a7.148,7.148,0,0,0-6.61-7.065,10.652,10.652,0,0,0-20.434-5.368,5.72,5.72,0,0,0-7.4,5.515c0,.022,0,.044,0,.066h0a9.222,9.222,0,0,0-7.409,14.607,6.71,6.71,0,0,0,3.542,10.945,16.476,16.476,0,0,0,4.969,7.141,3.174,3.174,0,0,0-1.826.92c-.009.009-.017.02-.026.029a22.483,22.483,0,0,0-6.945,3.121,8.752,8.752,0,0,0-7.414,8.32,22.432,22.432,0,0,0-2.03,5.757L587.2,808.826a22.363,22.363,0,0,0-.15,8.283l-27.215,90.867a12.717,12.717,0,0,0-3.934,9.209h25.516a12.752,12.752,0,0,0-.487-3.487l21.922-71.214a23.281,23.281,0,0,0,3.792.391H606.6l12.948,17.777,8.054,11.094-7.976,36.374h-.4v9.067h34.912v0H802.955V898.343h9.677v-29.03ZM635.925,794.561v5.107l-1.007-.22Zm-9.306,37.617a23.111,23.111,0,0,0,3.16-7.794l.711-3.453-.212-.044a22.606,22.606,0,0,0,.842-3.009l.264-1.283,10.339,2.258a11.2,11.2,0,0,0,5.59,3.743v38.088Zm16.523,72.876c-.072,0-.143,0-.215.005l7.6-34.185a11.2,11.2,0,0,0,.154-1.562h13.132v29.03h-9.677v13.715A12.131,12.131,0,0,0,643.142,905.054Z" transform="translate(246.437 1272.043)" fill="#bec9ed" opacity="0.6" style="mix-blend-mode: multiply;isolation: isolate"/>
    <g id="Group_186274" data-name="Group 186274" transform="translate(882.412 1998.953)">
      <path id="Path_442377" data-name="Path 442377" d="M940.541,807.482a8.778,8.778,0,0,0,.939-.05L973,804.071a8.749,8.749,0,0,0,4.273-1.663l33.621-24.839a8.753,8.753,0,0,0-10.4-14.08l-31.71,23.427-29.156,3.11a8.753,8.753,0,0,0,.917,17.457Z" transform="translate(-931.798 -761.774)" fill="#0885f1"/>
    </g>
    <circle id="Ellipse_3261" data-name="Ellipse 3261" cx="11.249" cy="11.249" r="11.249" transform="translate(940.396 2007.707) rotate(-45)" fill="#ffacad"/>
    <path id="Path_442378" data-name="Path 442378" d="M2452.034,1114.115a9.745,9.745,0,0,0-2.438-1.844h0s-4.765-4.326-10.8-2.758c-4.605,1.2-5.8,6.12-6.107,8.389-2.333,1.184-8.057,4.76-13.186,13.27-.123.2-.241.413-.362.62-.29.167-.582.338-.877.52a10.369,10.369,0,0,0-.051,1.14,65.611,65.611,0,0,0-6.381,19.234l-.09-.064q-.088-3.506-.162-7.279c-.4-20.726,1.115-29.209,2.322-32.663a16.468,16.468,0,0,0,1.746.9c9.293,4.088,10.433,6.94,10.433,6.94s4.8-4.183,3.185-14.878-13.261-7.415-14.925-3.708c-8.075-2.5-8.073,5.736-1.088,10.345-1.338,3.671-2.814,12.387-2.414,33.082q.068,3.53.151,6.822c-.077-.038-.157-.075-.238-.11-.566-4.657-1.156-8.617-1.736-11.972a7.177,7.177,0,0,0-1.092-5.7q-.282-1.33-.553-2.477a52.962,52.962,0,0,0-3.366-10.5c.161-.829,2.276-12.882-10.482-14.213-8.232-.859-13.9,5.125-17,9.76a14.9,14.9,0,0,0-4.023,7.415c12.455-9.26,26.621-4.824,30.48-3.337.793,1.472,2.2,4.735,3.731,11.3.076.324.152.66.229,1.006-2.017-1.631-5.22-1.705-8.918,1.623-.443-1.27-1.887-4.524-5.305-5.474-4.155-1.154-11.806,2.266-8.236,16.966a17.231,17.231,0,0,0-4.641.646c-.665-1.531-2.683-4.683-7.784-3.621-6.654,1.385-8.619,17.143-8.619,17.143a22.364,22.364,0,0,1,16.684-12.739s-.024-.1-.078-.26a17.147,17.147,0,0,1,4.578-.609q.1.382.206.774a31.256,31.256,0,0,0,6.084,10.647,38.308,38.308,0,0,1,5.731-6.87,28.843,28.843,0,0,1,6.255,7.627,28.506,28.506,0,0,0,.152,3.883,10.19,10.19,0,0,0-1.854-.748c-4.593-1.343-8.838,1.116-10.563,2.331-.142-.915-.778-2.337-3.365-2.281-3.8.082-7.858,8-7.858,16.845a109.64,109.64,0,0,1,13.341-6.021,4.273,4.273,0,0,0-1.329-8.406c1.867-1.218,5.617-3.106,9.623-1.933a9.772,9.772,0,0,1,2.084.891,29.4,29.4,0,0,0,3.09,10.4s1.394-1.051,3.365-2.743q.367.741.716,1.545a159.619,159.619,0,0,0,1.159,17.074h-7.205c0,19.013,3.993,21.231,5.83,21.231h7.605c1.838,0,5.831-2.218,5.831-21.231h-8.471c.4-12.452,3.8-21.17,10.1-25.933,3.335,3.195,9.53,5.177,9.53,5.177s2.25-5.2,1.945-9.167a27.9,27.9,0,0,1,6.347.384,1.274,1.274,0,0,0,.57,1.028c2.392,1.591,6.631,5.427,7.77,13.11,0,0,2.711-21.745-7.748-15.253a1.24,1.24,0,0,0-.49.57,28.529,28.529,0,0,0-6.51-.39,4.188,4.188,0,0,0-2.17-3.4c-3.683-1.83-5.691.528-6.466,1.822-1.967-1.42-3.7-1.295-4.467.428-.882,1.969-.145,3.76,1.293,5.294-6.406,4.881-9.854,13.731-10.257,26.331h-.857q-.209-5.02-.466-9.568c.488-5.169.992-9.746,1.5-13.795a50.318,50.318,0,0,0,4.066-4.649c3.347-4.4,1.23-7.385-2.191-8.081,1.713-9.839,3.263-14.342,4.081-16.218,1.379,1.149,3.4,2.566,6.219,5.006,6.8,5.9,20.061,10.424,20.061,10.424s-4.141-33.569-26.473-22.069c4.616-7.455,9.743-10.947,12.168-12.285-.01.161-.013.254-.013.254s17.867-5.514,25.979,14.957C2458.561,1134.015,2459.512,1121.783,2452.034,1114.115Zm-39.375,75.925h-.322q.087-1.1.175-2.179C2412.563,1188.632,2412.612,1189.36,2412.659,1190.04Zm-1.614-19.907q.255-.229.516-.467.122,2.962.249,5.612-.369-1.019-.762-1.962Q2411.025,1171.692,2411.045,1170.133Zm-1.075-18.342a5.615,5.615,0,0,0-1.7-.188,39.347,39.347,0,0,0-3.058-6.371,8.2,8.2,0,0,0,3.309-3.635C2409,1144.538,2409.494,1147.919,2409.969,1151.791Zm-12.925-.6a39.579,39.579,0,0,1,7.512-5.58,38.335,38.335,0,0,1,2.938,6.073,7.554,7.554,0,0,0-1.535.426c-1.856.726-2.763,3.105-3.009,6.107A28.874,28.874,0,0,0,2397.044,1151.189Zm13.243,19.616c0,.268,0,.534,0,.8-.09-.19-.182-.377-.274-.562Zm1.621,6.477q.186,3.726.368,6.773-.163,1.855-.322,3.806c-.5-4.618-.777-8.933-.876-12.963Q2411.508,1176.038,2411.907,1177.282Zm.487-8.388c.53-.5,1.07-1.017,1.614-1.557-.356,2.907-.71,6.078-1.058,9.539Q2412.689,1172.681,2412.395,1168.894Zm3.568-15.042a8.73,8.73,0,0,0-2.774.114,7.175,7.175,0,0,0-.669-.718,66.4,66.4,0,0,1,5.856-18.491,5.163,5.163,0,0,0,1.789,2.58C2419.318,1139.174,2417.722,1143.667,2415.962,1153.852Z" transform="translate(-1176.046 972.277)" fill="#452b99"/>
    <path id="Path_442379" data-name="Path 442379" d="M332.572,1036.024s-.82-9.46-7.376-15.06c-6.236-5.327-15.994-.891-17.814,3.169a30.322,30.322,0,0,0-2.833,2.047,8.087,8.087,0,0,0-3.648-.577v-7.414a25.819,25.819,0,0,1,8.357-8.465h0c2.015-1.078,9.349-4.466,17.05-1.4,0,0-5.756-6.516-12.6-5.154-5.47,1.089-5.388,4.823-5.136,6.274a26.874,26.874,0,0,0-7.677,7.608V1005.26c2.288-4.2,7.055-7.482,7.975-8.089,3.382-1.429,11.369-4.606,16.821-5.2,0,0-10.532-3.02-13.533-.735a18.568,18.568,0,0,0-4.685,6.178,26.714,26.714,0,0,0-6.578,6.676V989.679c5.784,1.672,8.628-3.331,9.118-6.088.545-3.066,3.667-11.738,3.667-11.738a23.977,23.977,0,0,0-13.511,2.608c-6.482,3.593-5.023,12.515-1.327,14.394a12.661,12.661,0,0,0,1.263.56v7.657a26.444,26.444,0,0,0-4.341-6.024,13.177,13.177,0,0,0-2.885-4.4c-2.078-1.886-10.076-.322-10.076-.322,4.245.834,10.415,4.006,12.533,5.14a24.409,24.409,0,0,1,4.769,7.072v9.722a43.116,43.116,0,0,0-11.48-9.207c.657-1.523,1.751-5.848-6.668-6.437-10.245-.717-15.778,8.452-15.778,8.452,6.411-4.579,21.965-1.528,22.176-1.487,2.114,1.181,7.895,4.686,11.75,9.626v6.758a23.555,23.555,0,0,0-4.576-2.924c-1.814-3.232-5.027-5.717-11.635-4.628-6.9,1.137-8.806,10.7-8.806,10.7,7.314-5.618,17.058-5.766,19.877-5.679a22.917,22.917,0,0,1,5.141,3.32v8.872c-1.641.059-3.4.249-4.84.366,0,0-8.913-2.9-12.909.034s9.528,10.894,9.528,10.894a79.542,79.542,0,0,0,8.22-4.179V1050.6a7.838,7.838,0,0,0-2.655-2.714c-2.348-1.9-11.7-8.669-22.382-5.6-12.362,3.552-13.865,16.529-13.865,16.529,8.631-9.3,31.053-10.323,35.886-10.436.3.106,1.3.647,3.015,3.284v9.4a3.639,3.639,0,0,0-2.62-.565,5.233,5.233,0,0,0-2.754,1.635c-13.463-6.836-14.106,14.948-14.106,14.948,5.328.564,16.136-2.92,16.956-7.325a8.376,8.376,0,0,0-2.1-7.223c-.068-.038-.134-.072-.2-.109a4.531,4.531,0,0,1,2.309-1.343,3.209,3.209,0,0,1,2.516.7v19.5h-13.9s1.595,30.735,8.459,30.735h11.679c6.864,0,8.459-30.735,8.459-30.735H300.9v-9.923c1.452-2.376,5-3.179,7-3.446a4.189,4.189,0,0,0,.5,3.295c1.571,2.664,10.757,5.225,10.757,5.225s1.093-7.137-.82-8.913-8.332-3.449-9.7-1.127a3.963,3.963,0,0,0-.519.888c-1.839.208-5.343.887-7.221,3.072v-11.134a30.251,30.251,0,0,1,9.094-6.939,8.147,8.147,0,0,0,2.11,3.813,7.379,7.379,0,0,0,6.762,1.024c3.791-1.366,5.874-6.864,5.874-6.864s-14.125-3.076-14.749,1.37a31.14,31.14,0,0,0-9.091,6.7v-11.615a31.417,31.417,0,0,1,8.117-5.484c1.365-.608,9.728-4.079,17.773-1.668,0,0-4.368-6.954-10.14-5.781-5.353,1.087-7.2,3.859-7.725,6.836a33.236,33.236,0,0,0-8.024,5.268v-13.635c2.2-1.39,4.03-2.871,4.392-4.11a1.552,1.552,0,0,0-.255-1.577,30.646,30.646,0,0,1,2.5-1.811C309.959,1024.745,323.809,1025.211,332.572,1036.024Z" transform="translate(478.351 1071.949)" fill="#452b99"/>
    <g id="Group_186275" data-name="Group 186275" transform="translate(898.683 2008.914)">
      <rect id="Rectangle_21472" data-name="Rectangle 21472" width="148.818" height="29.03" transform="translate(18.212 145.151)" fill="#fbaa00"/>
      <rect id="Rectangle_21473" data-name="Rectangle 21473" width="43.087" height="25.592" transform="translate(31.047 145.151)" fill="#ffd64a"/>
      <rect id="Rectangle_21474" data-name="Rectangle 21474" width="148.818" height="29.03" transform="translate(27.889 116.12)" fill="#fbaa00"/>
      <rect id="Rectangle_21475" data-name="Rectangle 21475" width="43.087" height="25.592" transform="translate(40.723 116.12)" fill="#ffd64a"/>
      <rect id="Rectangle_21476" data-name="Rectangle 21476" width="148.818" height="29.03" transform="translate(11.388 87.09)" fill="#fbaa00"/>
      <rect id="Rectangle_21477" data-name="Rectangle 21477" width="43.087" height="25.592" transform="translate(24.222 87.09)" fill="#ffd64a"/>
      <rect id="Rectangle_21478" data-name="Rectangle 21478" width="148.818" height="29.03" transform="translate(11.388 58.06)" fill="#fbaa00"/>
      <rect id="Rectangle_21479" data-name="Rectangle 21479" width="43.087" height="25.592" transform="translate(24.222 58.06)" fill="#ffd64a"/>
      <rect id="Rectangle_21480" data-name="Rectangle 21480" width="148.818" height="3.438" transform="translate(18.212 170.743)" fill="#bec9ed" opacity="0.6" style="mix-blend-mode: multiply;isolation: isolate"/>
      <rect id="Rectangle_21481" data-name="Rectangle 21481" width="148.818" height="3.438" transform="translate(27.889 141.713)" fill="#bec9ed" opacity="0.6" style="mix-blend-mode: multiply;isolation: isolate"/>
      <rect id="Rectangle_21482" data-name="Rectangle 21482" width="148.818" height="29.03" transform="translate(0 29.03)" fill="#fbaa00"/>
      <rect id="Rectangle_21483" data-name="Rectangle 21483" width="43.087" height="25.592" transform="translate(12.834 29.03)" fill="#ffd64a"/>
      <rect id="Rectangle_21484" data-name="Rectangle 21484" width="148.818" height="29.03" transform="translate(9.677)" fill="#fbaa00"/>
      <rect id="Rectangle_21485" data-name="Rectangle 21485" width="43.087" height="25.592" transform="translate(22.511)" fill="#ffd64a"/>
      <rect id="Rectangle_21486" data-name="Rectangle 21486" width="148.818" height="3.438" transform="translate(0 54.622)" fill="#bec9ed" opacity="0.6" style="mix-blend-mode: multiply;isolation: isolate"/>
      <rect id="Rectangle_21487" data-name="Rectangle 21487" width="148.818" height="3.438" transform="translate(9.677 25.592)" fill="#bec9ed" opacity="0.6" style="mix-blend-mode: multiply;isolation: isolate"/>
      <rect id="Rectangle_21488" data-name="Rectangle 21488" width="148.818" height="3.438" transform="translate(11.388 112.683)" fill="#bec9ed" opacity="0.6" style="mix-blend-mode: multiply;isolation: isolate"/>
      <rect id="Rectangle_21489" data-name="Rectangle 21489" width="148.818" height="3.438" transform="translate(11.388 83.653)" fill="#bec9ed" opacity="0.6" style="mix-blend-mode: multiply;isolation: isolate"/>
    </g>
    <path id="Path_442380" data-name="Path 442380" d="M1586.254,1298.453c-.584.119-1.169.216-1.755.3-.166.025-.333.046-.5.069q-.688.092-1.378.155c-.144.013-.287.029-.431.041q-.876.069-1.752.094c-.119,0-.239,0-.358,0q-.719.012-1.437,0c-.172,0-.343-.009-.514-.016q-.77-.03-1.539-.092c-.079-.006-.158-.01-.238-.017-.585-.052-1.169-.121-1.753-.2-.158-.022-.315-.047-.473-.071q-.68-.1-1.357-.23c-.157-.03-.316-.058-.473-.089-.58-.116-1.158-.244-1.735-.388-.076-.019-.151-.042-.227-.061q-.76-.195-1.515-.421-.253-.076-.5-.154-.7-.218-1.39-.462c-.116-.041-.233-.079-.35-.121q-.847-.307-1.685-.652c-.137-.056-.274-.117-.411-.175q-.658-.278-1.31-.58c-.159-.073-.318-.146-.477-.222-.546-.26-1.089-.528-1.627-.812l-.024-.012c-.545-.288-1.085-.592-1.622-.9-.153-.089-.306-.18-.458-.272q-.626-.372-1.244-.767c-.13-.083-.262-.164-.392-.249q-.782-.51-1.55-1.052c-.1-.073-.2-.15-.307-.224q-.627-.451-1.243-.924-.221-.17-.441-.342-.651-.512-1.289-1.046c-.069-.058-.139-.113-.207-.171q-.729-.619-1.437-1.271c-.128-.117-.255-.237-.382-.356q-.547-.511-1.082-1.04c-.126-.124-.252-.247-.377-.373q-.684-.69-1.348-1.407c-.055-.059-.108-.121-.162-.181q-.585-.641-1.151-1.3c-.125-.145-.248-.292-.371-.439q-.514-.614-1.012-1.246c-.085-.108-.173-.214-.257-.323-.216-.278-.423-.566-.634-.849-.244-.327-.491-.652-.729-.986-.2-.285-.4-.577-.594-.866-.23-.337-.463-.672-.687-1.015q-.553-.849-1.08-1.721c-.055-.091-.107-.185-.161-.277q-.456-.769-.89-1.556c-.083-.151-.164-.3-.246-.454q-.409-.76-.8-1.536c-.053-.107-.109-.212-.161-.32-.092-.187-.176-.38-.266-.569-.293-.615-.578-1.234-.849-1.863-.126-.291-.246-.586-.367-.88q-.3-.731-.585-1.474-.184-.486-.361-.977-.235-.657-.454-1.323c-.167-.5-.336-1.006-.489-1.517-.168-.563-.323-1.125-.471-1.687-.193-.728-.373-1.454-.533-2.179,0-.007,0-.014,0-.021-.157-.715-.3-1.427-.422-2.138-.04-.224-.073-.447-.11-.671-.083-.506-.161-1.011-.228-1.515-.034-.252-.065-.5-.095-.756q-.09-.754-.155-1.5c-.02-.227-.043-.455-.06-.682-.056-.74-.1-1.477-.121-2.208,0-.048,0-.1,0-.144-.02-.717-.019-1.429-.007-2.138.006-.358.014-.715.028-1.07.005-.132.008-.264.015-.4q.039-.8.1-1.6c.012-.145.028-.287.042-.431q.056-.606.126-1.207c.023-.189.048-.378.073-.566q.067-.505.146-1.005.06-.385.126-.768.08-.46.17-.915c.049-.252.1-.5.153-.754s.113-.5.171-.749q.144-.618.306-1.227c.06-.225.12-.451.183-.674.121-.428.251-.851.385-1.272.06-.187.116-.376.178-.562.163-.488.337-.97.518-1.448.034-.09.064-.182.1-.271q.328-.848.693-1.672c.071-.161.148-.317.221-.477.177-.386.356-.771.545-1.149.1-.2.2-.394.306-.59.173-.333.349-.663.532-.988.115-.2.233-.407.351-.609q.274-.467.56-.924c.125-.2.25-.4.377-.591.2-.307.408-.607.617-.906.127-.181.252-.364.382-.542.228-.312.464-.617.7-.92.117-.149.23-.3.349-.449q.52-.643,1.069-1.258l.043-.05c.381-.425.775-.837,1.177-1.24.13-.13.265-.253.4-.381.277-.269.556-.536.843-.795.156-.14.316-.275.474-.413.286-.248.576-.493.871-.731.174-.14.35-.278.527-.414q.439-.339.891-.662c.2-.14.39-.281.589-.416s.371-.248.558-.37q.364-.237.734-.465.288-.177.581-.347c.364-.212.728-.423,1.1-.621l-6.346,3.363q-.382.2-.758.415c-.117.066-.229.139-.345.206q-.292.17-.579.346-.371.228-.735.465c-.187.122-.374.244-.558.37-.087.06-.178.115-.265.176-.111.077-.215.162-.324.24q-.451.324-.89.661c-.177.137-.354.275-.529.415-.295.238-.584.482-.87.731-.109.095-.225.183-.333.28-.048.043-.093.09-.141.133-.287.259-.566.526-.843.795-.132.128-.267.251-.4.381q-.6.6-1.177,1.24l-.043.051q-.549.614-1.069,1.256c-.12.149-.235.3-.353.454-.236.3-.471.605-.7.916-.04.055-.083.106-.123.161-.09.125-.172.256-.26.382-.209.3-.416.6-.616.905-.128.2-.253.393-.377.591q-.286.456-.56.923c-.067.115-.141.225-.207.341-.05.088-.095.181-.145.27-.182.325-.358.655-.531.987-.1.2-.207.392-.307.592-.188.377-.368.761-.544,1.148-.073.16-.15.316-.221.477q-.363.824-.692,1.671c-.035.09-.065.183-.1.274-.18.477-.354.958-.517,1.445-.016.047-.034.092-.049.139-.046.139-.084.284-.128.424-.134.421-.264.844-.385,1.272-.063.224-.123.448-.183.674q-.161.609-.306,1.226c-.032.135-.07.267-.1.4-.026.114-.046.232-.071.347-.053.25-.1.5-.153.753q-.089.456-.17.915-.066.383-.126.768c-.024.153-.053.3-.075.457-.026.181-.046.365-.07.548s-.05.377-.073.566c-.048.4-.089.8-.126,1.208-.013.144-.03.286-.042.431,0,.039-.008.077-.011.115-.039.492-.069.987-.093,1.484-.006.13-.009.262-.015.392-.01.262-.023.524-.029.787,0,.094,0,.19,0,.284-.012.708-.012,1.42.007,2.138,0,.041,0,.08,0,.12,0,.008,0,.016,0,.023.022.731.065,1.468.121,2.208.006.073.006.145.012.218.012.154.034.309.048.463q.066.749.155,1.5c.016.133.024.265.041.4.015.118.038.239.054.357.067.5.145,1.009.228,1.515.027.162.045.322.073.484.011.062.026.125.037.187.126.711.264,1.423.422,2.138,0,.006,0,.013,0,.019v0c.16.724.341,1.451.533,2.178.017.064.03.128.047.192q.2.747.424,1.5.138.46.283.917c.064.2.139.4.206.6q.22.666.454,1.323c.06.167.111.337.173.5s.128.315.188.474q.282.744.585,1.474c.078.189.147.384.227.572.045.1.1.2.141.308q.408.943.849,1.863c.068.145.129.294.2.438.021.044.044.088.066.132.053.107.108.213.161.319q.387.777.8,1.537c.081.151.162.3.245.453.06.109.116.219.177.327.232.415.472.823.713,1.23.054.091.106.185.16.276q.478.8.98,1.574c.032.05.067.1.1.148.223.343.456.677.686,1.014.2.29.392.583.595.868.238.334.484.658.729.986.18.242.354.49.538.727.032.041.065.08.1.121.084.109.172.215.257.323q.5.632,1.013,1.245.184.221.37.439.567.662,1.151,1.3c.054.06.107.121.162.181q.662.719,1.349,1.407c.124.125.25.248.376.372q.536.53,1.084,1.042c.126.118.252.238.38.354q.71.651,1.439,1.272c.067.057.136.112.2.168q.639.537,1.292,1.049.219.172.44.341.617.474,1.245.926c.1.073.2.149.3.222q.768.543,1.55,1.053c.13.085.261.166.392.249q.618.394,1.244.768c.152.091.3.182.457.271.537.312,1.078.616,1.623.9l.019.009c.54.285,1.086.554,1.633.815.157.075.316.148.474.221q.654.3,1.314.581c.136.057.271.117.408.173q.838.345,1.686.652c.116.042.233.08.349.121q.694.244,1.392.462.25.078.5.154.756.226,1.517.421c.076.019.151.042.227.061.576.144,1.155.271,1.735.388.157.032.315.06.473.089q.677.128,1.357.23c.158.024.315.049.473.071.584.08,1.168.149,1.754.2.079.007.158.01.238.017.513.042,1.026.072,1.539.092.172.007.343.011.514.016q.718.017,1.437,0c.119,0,.238,0,.358,0q.877-.024,1.752-.094c.144-.011.287-.027.431-.041q.69-.063,1.379-.155c.167-.022.333-.044.5-.069.586-.087,1.172-.184,1.755-.3a31.788,31.788,0,0,0,8.562-3.053l6.346-3.363A31.766,31.766,0,0,1,1586.254,1298.453Z" transform="translate(-517.636 881.5)" fill="#ffd64a"/>
    <path id="Path_442381" data-name="Path 442381" d="M1583.451,1196.893c20.866-4.253,43.65,11.948,50.892,36.187s-3.8,47.335-24.666,51.588-43.649-11.947-50.892-36.187S1562.586,1201.146,1583.451,1196.893Z" transform="translate(-541.061 895.285)" fill="#ffd64a"/>
    <path id="Path_442383" data-name="Path 442383" d="M1586.254,1298.453c-.584.119-1.169.216-1.755.3-.166.025-.333.046-.5.069q-.688.092-1.378.155c-.144.013-.287.029-.431.041q-.876.069-1.752.094c-.119,0-.239,0-.358,0q-.719.012-1.437,0c-.172,0-.343-.009-.514-.016q-.77-.03-1.539-.092c-.079-.006-.158-.01-.238-.017-.585-.052-1.169-.121-1.753-.2-.158-.022-.315-.047-.473-.071q-.68-.1-1.357-.23c-.157-.03-.316-.058-.473-.089-.58-.116-1.158-.244-1.735-.388-.076-.019-.151-.042-.227-.061q-.76-.195-1.515-.421-.253-.076-.5-.154-.7-.218-1.39-.462c-.116-.041-.233-.079-.35-.121q-.847-.307-1.685-.652c-.137-.056-.274-.117-.411-.175q-.658-.278-1.31-.58c-.159-.073-.318-.146-.477-.222-.546-.26-1.089-.528-1.627-.812l-.024-.012c-.545-.288-1.085-.592-1.622-.9-.153-.089-.306-.18-.458-.272q-.626-.372-1.244-.767c-.13-.083-.262-.164-.392-.249q-.782-.51-1.55-1.052c-.1-.073-.2-.15-.307-.224q-.627-.451-1.243-.924-.221-.17-.441-.342-.651-.512-1.289-1.046c-.069-.058-.139-.113-.207-.171q-.729-.619-1.437-1.271c-.128-.117-.255-.237-.382-.356q-.547-.511-1.082-1.04c-.126-.124-.252-.247-.377-.373q-.684-.69-1.348-1.407c-.055-.059-.108-.121-.162-.181q-.585-.641-1.151-1.3c-.125-.145-.248-.292-.371-.439q-.514-.614-1.012-1.246c-.085-.108-.173-.214-.257-.323-.216-.278-.423-.566-.634-.849-.244-.327-.491-.652-.729-.986-.2-.285-.4-.577-.594-.866-.23-.337-.463-.672-.687-1.015q-.553-.849-1.08-1.721c-.055-.091-.107-.185-.161-.277q-.456-.769-.89-1.556c-.083-.151-.164-.3-.246-.454q-.409-.76-.8-1.536c-.053-.107-.109-.212-.161-.32-.092-.187-.176-.38-.266-.569-.293-.615-.578-1.234-.849-1.863-.126-.291-.246-.586-.367-.88q-.3-.731-.585-1.474-.184-.486-.361-.977-.235-.657-.454-1.323c-.167-.5-.336-1.006-.489-1.517-.168-.563-.323-1.125-.471-1.687-.193-.728-.373-1.454-.533-2.179,0-.007,0-.014,0-.021-.157-.715-.3-1.427-.422-2.138-.04-.224-.073-.447-.11-.671-.083-.506-.161-1.011-.228-1.515-.034-.252-.065-.5-.095-.756q-.09-.754-.155-1.5c-.02-.227-.043-.455-.06-.682-.056-.74-.1-1.477-.121-2.208,0-.048,0-.1,0-.144-.02-.717-.019-1.429-.007-2.138.006-.358.014-.715.028-1.07.005-.132.008-.264.015-.4q.039-.8.1-1.6c.012-.145.028-.287.042-.431q.056-.606.126-1.207c.023-.189.048-.378.073-.566q.067-.505.146-1.005.06-.385.126-.768.08-.46.17-.915c.049-.252.1-.5.153-.754s.113-.5.171-.749q.144-.618.306-1.227c.06-.225.12-.451.183-.674.121-.428.251-.851.385-1.272.06-.187.116-.376.178-.562.163-.488.337-.97.518-1.448.034-.09.064-.182.1-.271q.328-.848.693-1.672c.071-.161.148-.317.221-.477.177-.386.356-.771.545-1.149.1-.2.2-.394.306-.59.173-.333.349-.663.532-.988.115-.2.233-.407.351-.609q.274-.467.56-.924c.125-.2.25-.4.377-.591.2-.307.408-.607.617-.906.127-.181.252-.364.382-.542.228-.312.464-.617.7-.92.117-.149.23-.3.349-.449q.52-.643,1.069-1.258l.043-.05c.381-.425.775-.837,1.177-1.24.13-.13.265-.253.4-.381.277-.269.556-.536.843-.795.156-.14.316-.275.474-.413.286-.248.576-.493.871-.731.174-.14.35-.278.527-.414q.439-.339.891-.662c.2-.14.39-.281.589-.416s.371-.248.558-.37q.364-.237.734-.465.288-.177.581-.347c.364-.212.728-.423,1.1-.621l-6.346,3.363q-.382.2-.758.415c-.117.066-.229.139-.345.206q-.292.17-.579.346-.371.228-.735.465c-.187.122-.374.244-.558.37-.087.06-.178.115-.265.176-.111.077-.215.162-.324.24q-.451.324-.89.661c-.177.137-.354.275-.529.415-.295.238-.584.482-.87.731-.109.095-.225.183-.333.28-.048.043-.093.09-.141.133-.287.259-.566.526-.843.795-.132.128-.267.251-.4.381q-.6.6-1.177,1.24l-.043.051q-.549.614-1.069,1.256c-.12.149-.235.3-.353.454-.236.3-.471.605-.7.916-.04.055-.083.106-.123.161-.09.125-.172.256-.26.382-.209.3-.416.6-.616.905-.128.2-.253.393-.377.591q-.286.456-.56.923c-.067.115-.141.225-.207.341-.05.088-.095.181-.145.27-.182.325-.358.655-.531.987-.1.2-.207.392-.307.592-.188.377-.368.761-.544,1.148-.073.16-.15.316-.221.477q-.363.824-.692,1.671c-.035.09-.065.183-.1.274-.18.477-.354.958-.517,1.445-.016.047-.034.092-.049.139-.046.139-.084.284-.128.424-.134.421-.264.844-.385,1.272-.063.224-.123.448-.183.674q-.161.609-.306,1.226c-.032.135-.07.267-.1.4-.026.114-.046.232-.071.347-.053.25-.1.5-.153.753q-.089.456-.17.915-.066.383-.126.768c-.024.153-.053.3-.075.457-.026.181-.046.365-.07.548s-.05.377-.073.566c-.048.4-.089.8-.126,1.208-.013.144-.03.286-.042.431,0,.039-.008.077-.011.115-.039.492-.069.987-.093,1.484-.006.13-.009.262-.015.392-.01.262-.023.524-.029.787,0,.094,0,.19,0,.284-.012.708-.012,1.42.007,2.138,0,.041,0,.08,0,.12,0,.008,0,.016,0,.023.022.731.065,1.468.121,2.208.006.073.006.145.012.218.012.154.034.309.048.463q.066.749.155,1.5c.016.133.024.265.041.4.015.118.038.239.054.357.067.5.145,1.009.228,1.515.027.162.045.322.073.484.011.062.026.125.037.187.126.711.264,1.423.422,2.138,0,.006,0,.013,0,.019v0c.16.724.341,1.451.533,2.178.017.064.03.128.047.192q.2.747.424,1.5.138.46.283.917c.064.2.139.4.206.6q.22.666.454,1.323c.06.167.111.337.173.5s.128.315.188.474q.282.744.585,1.474c.078.189.147.384.227.572.045.1.1.2.141.308q.408.943.849,1.863c.068.145.129.294.2.438.021.044.044.088.066.132.053.107.108.213.161.319q.387.777.8,1.537c.081.151.162.3.245.453.06.109.116.219.177.327.232.415.472.823.713,1.23.054.091.106.185.16.276q.478.8.98,1.574c.032.05.067.1.1.148.223.343.456.677.686,1.014.2.29.392.583.595.868.238.334.484.658.729.986.18.242.354.49.538.727.032.041.065.08.1.121.084.109.172.215.257.323q.5.632,1.013,1.245.184.221.37.439.567.662,1.151,1.3c.054.06.107.121.162.181q.662.719,1.349,1.407c.124.125.25.248.376.372q.536.53,1.084,1.042c.126.118.252.238.38.354q.71.651,1.439,1.272c.067.057.136.112.2.168q.639.537,1.292,1.049.219.172.44.341.617.474,1.245.926c.1.073.2.149.3.222q.768.543,1.55,1.053c.13.085.261.166.392.249q.618.394,1.244.768c.152.091.3.182.457.271.537.312,1.078.616,1.623.9l.019.009c.54.285,1.086.554,1.633.815.157.075.316.148.474.221q.654.3,1.314.581c.136.057.271.117.408.173q.838.345,1.686.652c.116.042.233.08.349.121q.694.244,1.392.462.25.078.5.154.756.226,1.517.421c.076.019.151.042.227.061.576.144,1.155.271,1.735.388.157.032.315.06.473.089q.677.128,1.357.23c.158.024.315.049.473.071.584.08,1.168.149,1.754.2.079.007.158.01.238.017.513.042,1.026.072,1.539.092.172.007.343.011.514.016q.718.017,1.437,0c.119,0,.238,0,.358,0q.877-.024,1.752-.094c.144-.011.287-.027.431-.041q.69-.063,1.379-.155c.167-.022.333-.044.5-.069.586-.087,1.172-.184,1.755-.3a31.788,31.788,0,0,0,8.562-3.053l6.346-3.363A31.766,31.766,0,0,1,1586.254,1298.453Z" transform="translate(-517.636 881.5)" fill="#fbaa00"/>
    <path id="Path_442384" data-name="Path 442384" d="M1586.254,1298.453c-.584.119-1.169.216-1.755.3-.166.025-.333.046-.5.069q-.688.092-1.378.155c-.144.013-.287.029-.431.041q-.876.069-1.752.094c-.119,0-.239,0-.358,0q-.719.012-1.437,0c-.172,0-.343-.009-.514-.016q-.77-.03-1.539-.092c-.079-.006-.158-.01-.238-.017-.585-.052-1.169-.121-1.753-.2-.158-.022-.315-.047-.473-.071q-.68-.1-1.357-.23c-.157-.03-.316-.058-.473-.089-.58-.116-1.158-.244-1.735-.388-.076-.019-.151-.042-.227-.061q-.76-.195-1.515-.421-.253-.076-.5-.154-.7-.218-1.39-.462c-.116-.041-.233-.079-.35-.121q-.847-.307-1.685-.652c-.137-.056-.274-.117-.411-.175q-.658-.278-1.31-.58c-.159-.073-.318-.146-.477-.222-.546-.26-1.089-.528-1.627-.812l-.024-.012c-.545-.288-1.085-.592-1.622-.9-.153-.089-.306-.18-.458-.272q-.626-.372-1.244-.767c-.13-.083-.262-.164-.392-.249q-.782-.51-1.55-1.052c-.1-.073-.2-.15-.307-.224q-.627-.451-1.243-.924-.221-.17-.441-.342-.651-.512-1.289-1.046c-.069-.058-.139-.113-.207-.171q-.729-.619-1.437-1.271c-.128-.117-.255-.237-.382-.356q-.547-.511-1.082-1.04c-.126-.124-.252-.247-.377-.373q-.684-.69-1.348-1.407c-.055-.059-.108-.121-.162-.181q-.585-.641-1.151-1.3c-.125-.145-.248-.292-.371-.439q-.514-.614-1.012-1.246c-.085-.108-.173-.214-.257-.323-.216-.278-.423-.566-.634-.849-.244-.327-.491-.652-.729-.986-.2-.285-.4-.577-.594-.866-.23-.337-.463-.672-.687-1.015q-.553-.849-1.08-1.721c-.055-.091-.107-.185-.161-.277q-.456-.769-.89-1.556c-.083-.151-.164-.3-.246-.454q-.409-.76-.8-1.536c-.053-.107-.109-.212-.161-.32-.092-.187-.176-.38-.266-.569-.293-.615-.578-1.234-.849-1.863-.126-.291-.246-.586-.367-.88q-.3-.731-.585-1.474-.184-.486-.361-.977-.235-.657-.454-1.323c-.167-.5-.336-1.006-.489-1.517-.168-.563-.323-1.125-.471-1.687-.193-.728-.373-1.454-.533-2.179,0-.007,0-.014,0-.021-.157-.715-.3-1.427-.422-2.138-.04-.224-.073-.447-.11-.671-.083-.506-.161-1.011-.228-1.515-.034-.252-.065-.5-.095-.756q-.09-.754-.155-1.5c-.02-.227-.043-.455-.06-.682-.056-.74-.1-1.477-.121-2.208,0-.048,0-.1,0-.144-.02-.717-.019-1.429-.007-2.138.006-.358.014-.715.028-1.07.005-.132.008-.264.015-.4q.039-.8.1-1.6c.012-.145.028-.287.042-.431q.056-.606.126-1.207c.023-.189.048-.378.073-.566q.067-.505.146-1.005.06-.385.126-.768.08-.46.17-.915c.049-.252.1-.5.153-.754s.113-.5.171-.749q.144-.618.306-1.227c.06-.225.12-.451.183-.674.121-.428.251-.851.385-1.272.06-.187.116-.376.178-.562.163-.488.337-.97.518-1.448.034-.09.064-.182.1-.271q.328-.848.693-1.672c.071-.161.148-.317.221-.477.177-.386.356-.771.545-1.149.1-.2.2-.394.306-.59.173-.333.349-.663.532-.988.115-.2.233-.407.351-.609q.274-.467.56-.924c.125-.2.25-.4.377-.591.2-.307.408-.607.617-.906.127-.181.252-.364.382-.542.228-.312.464-.617.7-.92.117-.149.23-.3.349-.449q.52-.643,1.069-1.258l.043-.05c.381-.425.775-.837,1.177-1.24.13-.13.265-.253.4-.381.277-.269.556-.536.843-.795.156-.14.316-.275.474-.413.286-.248.576-.493.871-.731.174-.14.35-.278.527-.414q.439-.339.891-.662c.2-.14.39-.281.589-.416s.371-.248.558-.37q.364-.237.734-.465.288-.177.581-.347c.364-.212.728-.423,1.1-.621l-6.346,3.363q-.382.2-.758.415c-.117.066-.229.139-.345.206q-.292.17-.579.346-.371.228-.735.465c-.187.122-.374.244-.558.37-.087.06-.178.115-.265.176-.111.077-.215.162-.324.24q-.451.324-.89.661c-.177.137-.354.275-.529.415-.295.238-.584.482-.87.731-.109.095-.225.183-.333.28-.048.043-.093.09-.141.133-.287.259-.566.526-.843.795-.132.128-.267.251-.4.381q-.6.6-1.177,1.24l-.043.051q-.549.614-1.069,1.256c-.12.149-.235.3-.353.454-.236.3-.471.605-.7.916-.04.055-.083.106-.123.161-.09.125-.172.256-.26.382-.209.3-.416.6-.616.905-.128.2-.253.393-.377.591q-.286.456-.56.923c-.067.115-.141.225-.207.341-.05.088-.095.181-.145.27-.182.325-.358.655-.531.987-.1.2-.207.392-.307.592-.188.377-.368.761-.544,1.148-.073.16-.15.316-.221.477q-.363.824-.692,1.671c-.035.09-.065.183-.1.274-.18.477-.354.958-.517,1.445-.016.047-.034.092-.049.139-.046.139-.084.284-.128.424-.134.421-.264.844-.385,1.272-.063.224-.123.448-.183.674q-.161.609-.306,1.226c-.032.135-.07.267-.1.4-.026.114-.046.232-.071.347-.053.25-.1.5-.153.753q-.089.456-.17.915-.066.383-.126.768c-.024.153-.053.3-.075.457-.026.181-.046.365-.07.548s-.05.377-.073.566c-.048.4-.089.8-.126,1.208-.013.144-.03.286-.042.431,0,.039-.008.077-.011.115-.039.492-.069.987-.093,1.484-.006.13-.009.262-.015.392-.01.262-.023.524-.029.787,0,.094,0,.19,0,.284-.012.708-.012,1.42.007,2.138,0,.041,0,.08,0,.12,0,.008,0,.016,0,.023.022.731.065,1.468.121,2.208.006.073.006.145.012.218.012.154.034.309.048.463q.066.749.155,1.5c.016.133.024.265.041.4.015.118.038.239.054.357.067.5.145,1.009.228,1.515.027.162.045.322.073.484.011.062.026.125.037.187.126.711.264,1.423.422,2.138,0,.006,0,.013,0,.019v0c.16.724.341,1.451.533,2.178.017.064.03.128.047.192q.2.747.424,1.5.138.46.283.917c.064.2.139.4.206.6q.22.666.454,1.323c.06.167.111.337.173.5s.128.315.188.474q.282.744.585,1.474c.078.189.147.384.227.572.045.1.1.2.141.308q.408.943.849,1.863c.068.145.129.294.2.438.021.044.044.088.066.132.053.107.108.213.161.319q.387.777.8,1.537c.081.151.162.3.245.453.06.109.116.219.177.327.232.415.472.823.713,1.23.054.091.106.185.16.276q.478.8.98,1.574c.032.05.067.1.1.148.223.343.456.677.686,1.014.2.29.392.583.595.868.238.334.484.658.729.986.18.242.354.49.538.727.032.041.065.08.1.121.084.109.172.215.257.323q.5.632,1.013,1.245.184.221.37.439.567.662,1.151,1.3c.054.06.107.121.162.181q.662.719,1.349,1.407c.124.125.25.248.376.372q.536.53,1.084,1.042c.126.118.252.238.38.354q.71.651,1.439,1.272c.067.057.136.112.2.168q.639.537,1.292,1.049.219.172.44.341.617.474,1.245.926c.1.073.2.149.3.222q.768.543,1.55,1.053c.13.085.261.166.392.249q.618.394,1.244.768c.152.091.3.182.457.271.537.312,1.078.616,1.623.9l.019.009c.54.285,1.086.554,1.633.815.157.075.316.148.474.221q.654.3,1.314.581c.136.057.271.117.408.173q.838.345,1.686.652c.116.042.233.08.349.121q.694.244,1.392.462.25.078.5.154.756.226,1.517.421c.076.019.151.042.227.061.576.144,1.155.271,1.735.388.157.032.315.06.473.089q.677.128,1.357.23c.158.024.315.049.473.071.584.08,1.168.149,1.754.2.079.007.158.01.238.017.513.042,1.026.072,1.539.092.172.007.343.011.514.016q.718.017,1.437,0c.119,0,.238,0,.358,0q.877-.024,1.752-.094c.144-.011.287-.027.431-.041q.69-.063,1.379-.155c.167-.022.333-.044.5-.069.586-.087,1.172-.184,1.755-.3a31.788,31.788,0,0,0,8.562-3.053l6.346-3.363A31.766,31.766,0,0,1,1586.254,1298.453Z" transform="translate(-517.636 881.5)" fill="#bec9ed" opacity="0.6" style="mix-blend-mode: multiply;isolation: isolate"/>
    <g id="Group_186287" data-name="Group 186287" transform="translate(818.656 1968.896)">
      <g id="Group_186278" data-name="Group 186278" transform="translate(48.466 113.375)">
        <path id="Path_442385" data-name="Path 442385" d="M897.144,1250.011l9.045-52.8a11.23,11.23,0,0,0-1.98-8.49L878.2,1152.888l-18.168,13.189,23.236,32.007-8.246,48.136Z" transform="translate(-860.027 -1152.888)" fill="#452b99"/>
      </g>
      <g id="Group_186279" data-name="Group 186279" transform="translate(0 97.413)">
        <path id="Path_442386" data-name="Path 442386" d="M639.336,1194.74h22.637l31.452-116.784H670.788Z" transform="translate(-637.882 -1077.956)" fill="#452b99"/>
        <path id="Path_442387" data-name="Path 442387" d="M645.271,1566.279a12.758,12.758,0,0,1,12.758,12.758H632.513A12.758,12.758,0,0,1,645.271,1566.279Z" transform="translate(-632.513 -1462.254)" fill="#2a1e68"/>
      </g>
      <path id="Rectangle_21490" data-name="Rectangle 21490" d="M26.694,0h0a0,0,0,0,1,0,0V26.694a0,0,0,0,1,0,0H0a0,0,0,0,1,0,0v0A26.694,26.694,0,0,1,26.694,0Z" transform="translate(69.204 133.901) rotate(-168.356)" fill="#452b99"/>
      <g id="Group_186280" data-name="Group 186280" transform="translate(30.833 49.466)">
        <path id="Path_442388" data-name="Path 442388" d="M795.151,925.557a22.423,22.423,0,0,0,26.487-17.436l5.828-28.283a22.423,22.423,0,0,0-43.923-9.051l-5.828,28.284A22.423,22.423,0,0,0,795.151,925.557Z" transform="translate(-777.249 -852.885)" fill="#0885f1"/>
      </g>
      <g id="Group_186285" data-name="Group 186285" transform="translate(41.903 0)">
        <g id="Group_186281" data-name="Group 186281" transform="translate(22.608 49.084)">
          <path id="Path_442389" data-name="Path 442389" d="M944.5,863.334a3.193,3.193,0,0,0,2.238-5.471L940.777,852a3.193,3.193,0,0,0-4.476,4.556l5.962,5.86A3.185,3.185,0,0,0,944.5,863.334Z" transform="translate(-935.346 -851.088)" fill="#fff"/>
        </g>
        <g id="Group_186283" data-name="Group 186283" transform="translate(17.6 42.984)">
          <g id="Group_186282" data-name="Group 186282">
            <path id="Path_442390" data-name="Path 442390" d="M911.836,829.029l.042,4.9a6.5,6.5,0,0,0,6.036,6.438q.269.024.537.022a6.515,6.515,0,0,0,6.47-6.573l-.042-4.9a6.522,6.522,0,0,0-13.043.113Z" transform="translate(-911.836 -822.456)" fill="#ffacad"/>
          </g>
        </g>
        <path id="Path_442391" data-name="Path 442391" d="M911.875,857.612l.034,3.942a6.5,6.5,0,0,0,6.036,6.438l-.09-10.432Z" transform="translate(-894.266 -807.098)" fill="#ff9099"/>
        <circle id="Ellipse_3262" data-name="Ellipse 3262" cx="16.458" cy="16.458" r="16.458" transform="translate(7.552 20.133)" fill="#ffacad"/>
        <path id="Path_442392" data-name="Path 442392" d="M880.983,715.186a16.493,16.493,0,0,1,2.494.187,16.436,16.436,0,0,0,.281,32.5,16.45,16.45,0,1,1-2.774-32.685Z" transform="translate(-857.115 -695.053)" fill="#ff9099"/>
        <g id="Group_186284" data-name="Group 186284" transform="translate(10.723 49.186)">
          <path id="Path_442393" data-name="Path 442393" d="M888.707,863.815a3.193,3.193,0,0,0,2.238-5.471l-5.962-5.86a3.193,3.193,0,1,0-4.476,4.556l5.962,5.86A3.184,3.184,0,0,0,888.707,863.815Z" transform="translate(-879.551 -851.569)" fill="#fff"/>
        </g>
        <circle id="Ellipse_3263" data-name="Ellipse 3263" cx="9.225" cy="9.225" r="9.225" transform="translate(0 21.828) rotate(-27.495)" fill="#1f143f"/>
        <path id="Path_442394" data-name="Path 442394" d="M907.086,711.957l23.031-.2a7.149,7.149,0,0,0,7.086-7.21l0-.305a7.148,7.148,0,0,0-7.21-7.086l-23.031.2Z" transform="translate(-890.399 -680.865)" fill="#1f143f"/>
        <circle id="Ellipse_3264" data-name="Ellipse 3264" cx="10.652" cy="10.652" r="10.652" transform="matrix(0.788, -0.616, 0.616, 0.788, 14.678, 13.115)" fill="#1f143f"/>
        <circle id="Ellipse_3265" data-name="Ellipse 3265" cx="5.717" cy="5.717" r="5.717" transform="translate(12.361 10.695)" fill="#1f143f"/>
        <circle id="Ellipse_3266" data-name="Ellipse 3266" cx="6.712" cy="6.712" r="6.712" transform="translate(2.645 41.527) rotate(-84.08)" fill="#1f143f"/>
        <circle id="Ellipse_3267" data-name="Ellipse 3267" cx="5.066" cy="5.066" r="5.066" transform="translate(6.097 36.188) rotate(-45)" fill="#ffacad"/>
        <path id="Rectangle_21491" data-name="Rectangle 21491" d="M1.27,0h0A1.27,1.27,0,0,1,2.54,1.27V7.131a0,0,0,0,1,0,0H0a0,0,0,0,1,0,0V1.27A1.27,1.27,0,0,1,1.27,0Z" transform="translate(20.043 38.194) rotate(179.494)" fill="#1f143f"/>
        <circle id="Ellipse_3268" data-name="Ellipse 3268" cx="3.468" cy="3.468" r="3.468" transform="matrix(0.969, -0.246, 0.246, 0.969, 16.708, 30.217)" fill="#1f143f"/>
      </g>
      <g id="Group_186286" data-name="Group 186286" transform="translate(39.148 53.186)">
        <path id="Path_442395" data-name="Path 442395" d="M871.739,924.549a8.754,8.754,0,0,0,1.86-17.306l-36.763-8.028L833.7,877.832a8.753,8.753,0,1,0-17.32,2.54l4.014,27.372a8.753,8.753,0,0,0,6.793,7.281l42.678,9.32A8.8,8.8,0,0,0,871.739,924.549Z" transform="translate(-816.284 -870.346)" fill="#80c4ff"/>
      </g>
      <path id="Path_442396" data-name="Path 442396" d="M997.237,1569.219a12.132,12.132,0,0,1,12.132,12.132H985.1A12.132,12.132,0,0,1,997.237,1569.219Z" transform="translate(-909.994 -1367.155)" fill="#2a1e68"/>
      <rect id="Rectangle_21492" data-name="Rectangle 21492" width="19.453" height="9.066" transform="translate(82.78 214.196) rotate(180)" fill="#2a1e68"/>
      <circle id="Ellipse_3269" data-name="Ellipse 3269" cx="11.249" cy="11.249" r="11.249" transform="translate(78.686 98.634) rotate(-45)" fill="#ffacad"/>
      <path id="Path_442397" data-name="Path 442397" d="M870.516,1218.672s6.792.2,11.782-2.937l2.025,21.894Z" transform="translate(-819.815 -1088.972)" fill="#2a1e68"/>
    </g>
    <path id="Path_442398" data-name="Path 442398" d="M1973.41,715.285a10.408,10.408,0,0,0,4.881-13.713,16.786,16.786,0,0,0-12.7-27.763h-.046a16.783,16.783,0,0,0-28.211-11.083,10.271,10.271,0,1,0-6.787,19.387,16.165,16.165,0,0,0,9.624,17.063v.459a22.248,22.248,0,0,0-7.165,5.3c-.216.131-.43.271-.638.423l-14.878,10.885-15.053-21.128a8.658,8.658,0,0,0-14.1,10.048l20.14,28.269a8.658,8.658,0,0,0,12.164,1.964l6.69-4.895v1.223a11.129,11.129,0,0,0,0,21.523V863.659a12.561,12.561,0,0,0-1.424,5.822h25.24a12.561,12.561,0,0,0-1.424-5.822v-66.62l.084-2.77,6.192,70.263a12.579,12.579,0,0,0-1.008,4.949h25.239a12.557,12.557,0,0,0-1.99-6.8l-8.957-104.3a22.086,22.086,0,0,0,2.408-10.061v-3.415l2.433-.385a8.875,8.875,0,0,0,6.736-12.343Z" transform="translate(-800.887 1318.691)" fill="#bec9ed" opacity="0.6" style="mix-blend-mode: multiply;isolation: isolate"/>
    <g id="Group_186293" data-name="Group 186293" transform="translate(1096.811 1965.586)">
      <g id="Group_186292" data-name="Group 186292">
        <rect id="Rectangle_21493" data-name="Rectangle 21493" width="22.392" height="129.544" transform="translate(40.602 88.032)" fill="#452b99"/>
        <path id="Path_442399" data-name="Path 442399" d="M2171.441,1153.63l-.028-21.359-17-3.492,16.731,34.613Z" transform="translate(-2108.364 -1017.231)" fill="#2a1e68"/>
        <path id="Rectangle_21494" data-name="Rectangle 21494" d="M0,0H26.405a0,0,0,0,1,0,0V26.405a0,0,0,0,1,0,0h0A26.405,26.405,0,0,1,0,0V0A0,0,0,0,1,0,0Z" transform="translate(40.602 93.537)" fill="#452b99"/>
        <g id="Group_186288" data-name="Group 186288" transform="translate(0 33.613)">
          <path id="Path_442400" data-name="Path 442400" d="M1967.042,808.516a8.655,8.655,0,0,0,5.112-1.671l21.955-16.062a8.658,8.658,0,1,0-10.224-13.976l-14.879,10.885-15.053-21.128a8.659,8.659,0,0,0-14.1,10.048l20.14,28.269a8.663,8.663,0,0,0,7.052,3.634Z" transform="translate(-1938.243 -762.929)" fill="#0885f1"/>
        </g>
        <path id="Path_442401" data-name="Path 442401" d="M2248.814,1147.933h-22.392L2215.9,1018.388h22.392Z" transform="translate(-2156.75 -930.356)" fill="#452b99"/>
        <g id="Group_186289" data-name="Group 186289" transform="translate(40.602 39.708)">
          <path id="Path_442402" data-name="Path 442402" d="M2151.017,864.468a22.181,22.181,0,0,1-22.18-22.18V813.722a22.18,22.18,0,0,1,44.36,0v28.565A22.181,22.181,0,0,1,2151.017,864.468Z" transform="translate(-2128.837 -791.542)" fill="#0885f1"/>
        </g>
        <path id="Path_442403" data-name="Path 442403" d="M2134.773,1567.262a12.619,12.619,0,0,0-12.62,12.62h25.239A12.62,12.62,0,0,0,2134.773,1567.262Z" transform="translate(-2082.976 -1362.305)" fill="#2a1e68"/>
        <path id="Path_442404" data-name="Path 442404" d="M2271.3,1567.262a12.62,12.62,0,0,0-12.62,12.62h25.24A12.62,12.62,0,0,0,2271.3,1567.262Z" transform="translate(-2190.417 -1362.305)" fill="#2a1e68"/>
        <circle id="Ellipse_3270" data-name="Ellipse 3270" cx="16.791" cy="16.791" r="16.791" transform="translate(62.074 15.939)" fill="#1f143f"/>
        <circle id="Ellipse_3271" data-name="Ellipse 3271" cx="10.407" cy="10.407" r="10.407" transform="translate(67.404 48.064) rotate(-45)" fill="#1f143f"/>
        <circle id="Ellipse_3272" data-name="Ellipse 3272" cx="16.791" cy="16.791" r="16.791" transform="translate(45.283 0.327)" fill="#1f143f"/>
        <ellipse id="Ellipse_3273" data-name="Ellipse 3273" cx="8.419" cy="7.004" rx="8.419" ry="7.004" transform="translate(51.442 39.538)" fill="#fff"/>
        <g id="Group_186291" data-name="Group 186291" transform="translate(53.445 32.73)">
          <g id="Group_186290" data-name="Group 186290">
            <path id="Path_442405" data-name="Path 442405" d="M2201.959,765.194v4.82a6.4,6.4,0,0,1-5.884,6.383,4.987,4.987,0,0,1-.527.028,6.409,6.409,0,0,1-6.42-6.411v-4.82a6.417,6.417,0,0,1,12.659-1.484A6.483,6.483,0,0,1,2201.959,765.194Z" transform="translate(-2189.128 -758.783)" fill="#ffacad"/>
          </g>
        </g>
        <path id="Path_442406" data-name="Path 442406" d="M2225.66,781.913v6.3a6.384,6.384,0,0,1-3.43,5.671,3.2,3.2,0,0,1-2.986-3.2v-8.777Z" transform="translate(-2159.383 -744.256)" fill="#ff9099"/>
        <circle id="Ellipse_3274" data-name="Ellipse 3274" cx="16.191" cy="16.191" r="16.191" transform="translate(43.669 10.247)" fill="#ffacad"/>
        <path id="Path_442407" data-name="Path 442407" d="M2210.186,653.245a16.191,16.191,0,0,0-2.451.205,16.17,16.17,0,0,1,0,31.972,16.183,16.183,0,1,0,2.451-32.177Z" transform="translate(-2150.326 -642.998)" fill="#ff9099"/>
        <circle id="Ellipse_3275" data-name="Ellipse 3275" cx="9.399" cy="9.399" r="9.399" transform="translate(68.892 26.971)" fill="#1f143f"/>
        <circle id="Ellipse_3276" data-name="Ellipse 3276" cx="9.399" cy="9.399" r="9.399" transform="translate(70.926 18.544)" fill="#1f143f"/>
        <circle id="Ellipse_3277" data-name="Ellipse 3277" cx="4.984" cy="4.984" r="4.984" transform="translate(63.92 23.254) rotate(-22.5)" fill="#ffacad"/>
        <circle id="Ellipse_3278" data-name="Ellipse 3278" cx="11.427" cy="11.427" r="11.427" transform="translate(52.984 23.02) rotate(-76.717)" fill="#1f143f"/>
        <circle id="Ellipse_3279" data-name="Ellipse 3279" cx="10.27" cy="10.27" r="10.27" transform="translate(32.614 14.524) rotate(-45)" fill="#1f143f"/>
      </g>
    </g>
    <path id="Path_442408" data-name="Path 442408" d="M1851.459,787.307c0-20.958-18.182-37.948-40.61-37.948s-40.61,16.99-40.61,37.948q0,1.544.131,3.057-.129,1.513-.131,3.057c0,20.958,18.182,37.948,40.61,37.948s40.61-16.99,40.61-37.948q0-1.544-.131-3.057Q1851.457,788.851,1851.459,787.307Z" transform="translate(-709.218 1246.949)" fill="#bec9ed" opacity="0.6" style="mix-blend-mode: multiply;isolation: isolate"/>
    <g id="Group_186296" data-name="Group 186296" transform="translate(1068.697 1991.744)">
      <g id="Group_186294" data-name="Group 186294">
        <ellipse id="Ellipse_3280" data-name="Ellipse 3280" cx="40.61" cy="37.948" rx="40.61" ry="37.948" transform="translate(0 6.113)" fill="#fbaa00"/>
        <ellipse id="Ellipse_3281" data-name="Ellipse 3281" cx="40.61" cy="37.948" rx="40.61" ry="37.948" fill="#ffd64a"/>
      </g>
    </g>
    <g id="Group_186298" data-name="Group 186298" transform="translate(1129.119 2010.98)">
      <g id="Group_186297" data-name="Group 186297" transform="translate(2.251)">
        <path id="Path_442410" data-name="Path 442410" d="M2109.343,866.335a8.875,8.875,0,0,1-1.375-17.641l31.192-4.931-5.759-13.074a8.875,8.875,0,0,1,16.243-7.155l10.4,23.618a8.875,8.875,0,0,1-6.736,12.343l-42.573,6.731A8.983,8.983,0,0,1,2109.343,866.335Z" transform="translate(-2100.478 -818.234)" fill="#80c4ff"/>
      </g>
      <circle id="Ellipse_3282" data-name="Ellipse 3282" cx="11.127" cy="11.127" r="11.127" transform="translate(0 28.098)" fill="#ffacad"/>
    </g>
    <circle id="Ellipse_3283" data-name="Ellipse 3283" cx="11.127" cy="11.127" r="11.127" transform="translate(1067.252 1997.857)" fill="#ffacad"/>
    <g id="Group_186301" data-name="Group 186301" transform="translate(1067.992 1933.344)" opacity="0.6" style="mix-blend-mode: multiply;isolation: isolate">
      <g id="Group_186300" data-name="Group 186300">
        <path id="Path_442411" data-name="Path 442411" d="M1895.222,461.247H1806.69a3.728,3.728,0,1,1,0-7.456h88.532a3.728,3.728,0,1,1,0,7.456Z" transform="translate(-1802.962 -453.791)" fill="#bec9ed"/>
      </g>
    </g>
    <g id="Group_186303" data-name="Group 186303" transform="translate(1073.806 1946.697)" opacity="0.6" style="mix-blend-mode: multiply;isolation: isolate">
      <g id="Group_186302" data-name="Group 186302">
        <path id="Path_442412" data-name="Path 442412" d="M1878.134,523.923h-44.157a3.728,3.728,0,0,1,0-7.456h44.157a3.728,3.728,0,1,1,0,7.456Z" transform="translate(-1830.249 -516.467)" fill="#bec9ed"/>
      </g>
    </g>
    <g id="Group_186304" data-name="Group 186304" transform="translate(1070.827 1930.51)">
      <path id="Path_442413" data-name="Path 442413" d="M1908.53,447.939H1820a3.728,3.728,0,1,1,0-7.456h88.532a3.728,3.728,0,1,1,0,7.456Z" transform="translate(-1816.27 -440.483)" fill="#ff5b97"/>
    </g>
    <g id="Group_186306" data-name="Group 186306" transform="translate(919.115 1969.84)" opacity="0.6" style="mix-blend-mode: multiply;isolation: isolate">
      <g id="Group_186305" data-name="Group 186305">
        <path id="Path_442414" data-name="Path 442414" d="M1164.019,632.566h-56.2a3.728,3.728,0,1,1,0-7.456h56.2a3.728,3.728,0,0,1,0,7.456Z" transform="translate(-1104.094 -625.11)" fill="#bec9ed"/>
      </g>
    </g>
    <g id="Group_186307" data-name="Group 186307" transform="translate(922.844 1966.111)">
      <path id="Path_442415" data-name="Path 442415" d="M1181.519,615.066h-56.2a3.728,3.728,0,1,1,0-7.456h56.2a3.728,3.728,0,1,1,0,7.456Z" transform="translate(-1121.594 -607.61)" fill="#ff5b97"/>
    </g>
    <g id="Group_186308" data-name="Group 186308" transform="translate(1076.641 1943.861)">
      <path id="Path_442416" data-name="Path 442416" d="M1891.442,510.615h-44.157a3.728,3.728,0,0,1,0-7.456h44.157a3.728,3.728,0,1,1,0,7.456Z" transform="translate(-1843.557 -503.159)" fill="#ff5b97"/>
    </g>
    <ellipse id="Ellipse_3284" data-name="Ellipse 3284" cx="8.623" cy="4.978" rx="8.623" ry="4.978" transform="translate(1010.366 1930.121) rotate(-45)" fill="#fff"/>
    <path id="Path_442417" data-name="Path 442417" d="M2536.842,868.7q0-5.121-5.121-5.121,5.121,0,5.121-5.121,0,5.121,5.121,5.121Q2536.842,863.583,2536.842,868.7Z" transform="translate(-1308.484 1161.088)" fill="#fff"/>
    <path id="Path_442418" data-name="Path 442418" d="M736.3,1630.129a3.915,3.915,0,0,1-1.053,2.693,3.49,3.49,0,0,1-2.546,1.116H172.991a3.708,3.708,0,0,1-3.6-3.809,3.926,3.926,0,0,1,1.053-2.7,3.49,3.49,0,0,1,2.546-1.116H732.7A3.71,3.71,0,0,1,736.3,1630.129Z" transform="translate(550.607 556.807)" fill="#2a1e68"/>
    <path id="Path_442454" data-name="Path 442454" d="M23.061,16.483a5.449,5.449,0,0,0-.682-.7,6.015,6.015,0,0,0-.821-.587,7.155,7.155,0,0,0-.959-.478,8.959,8.959,0,0,0-1.1-.366,6.876,6.876,0,0,0,.8-.388,6.122,6.122,0,0,0,.711-.473,5.79,5.79,0,0,0,.625-.56,5.853,5.853,0,0,0,.54-.648,5.681,5.681,0,0,0,.441-.706,5.225,5.225,0,0,0,.32-.742,5.13,5.13,0,0,0,.2-.777,5.385,5.385,0,0,0,.078-.81,5.557,5.557,0,0,0-.033-.748,4.973,4.973,0,0,0-.133-.711,4.729,4.729,0,0,0-.233-.673,4.813,4.813,0,0,0-.334-.635,6.562,6.562,0,0,0-.407-.586,6.169,6.169,0,0,0-.459-.525,6,6,0,0,0-.511-.465,6.064,6.064,0,0,0-.563-.4,6.311,6.311,0,0,0-.605-.341,6.534,6.534,0,0,0-.647-.277,7.013,7.013,0,0,0-.689-.212q-.355-.09-.732-.148-.2-.032-.435-.059t-.494-.05q-.262-.023-.551-.041t-.607-.033L15.83.011l-3.759,0-.045,3.277H9.818L9.864.012,6.1.014,6.063,3.292l-3.1,0-2.732,0L.2,7.244l2.732,0L2.78,22.9H.077L.043,26.764h2.7L5.8,26.756l-.033,3.119,3.7-.007.044-3.114h1.92l.255,0-.043,3.118,3.7,0,.05-3.172.74-.022q.34-.011.622-.024t.5-.028q.222-.015.386-.032.514-.051.988-.146a8.488,8.488,0,0,0,.908-.232,7.211,7.211,0,0,0,.827-.318,6.359,6.359,0,0,0,.747-.4A6.64,6.64,0,0,0,21.781,25a6.444,6.444,0,0,0,.6-.56,6.583,6.583,0,0,0,.529-.636,7.065,7.065,0,0,0,.457-.713,7.281,7.281,0,0,0,.37-.755,6.633,6.633,0,0,0,.269-.767A6.266,6.266,0,0,0,24.243,20a5.939,5.939,0,0,0-.056-.977,5.192,5.192,0,0,0-.215-.913,4.963,4.963,0,0,0-.375-.848A5.244,5.244,0,0,0,23.061,16.483ZM15.577,7.318a4.8,4.8,0,0,1,.607.106,3.461,3.461,0,0,1,.527.173,2.613,2.613,0,0,1,.446.241,2.166,2.166,0,0,1,.364.31A2.2,2.2,0,0,1,18,8.938a2.528,2.528,0,0,1,.114.47,3.178,3.178,0,0,1,.031.52,3.031,3.031,0,0,1-.058.544,2.466,2.466,0,0,1-.151.489,2.267,2.267,0,0,1-.246.433,2.4,2.4,0,0,1-.341.377,2.864,2.864,0,0,1-.423.315,3.271,3.271,0,0,1-.493.246,4.006,4.006,0,0,1-.561.176,5.12,5.12,0,0,1-.629.107q-.185.021-.514.036t-.8.026q-.472.01-1.087.015t-1.375.005h-3.4l.067-5.455,2.987,0q.919,0,1.656.006t1.293.016q.556.01.931.025T15.577,7.318Zm2.576,14.448a3.134,3.134,0,0,1-.4.335,3.19,3.19,0,0,1-.448.265,3.517,3.517,0,0,1-.5.2,4.134,4.134,0,0,1-.548.129q-.188.036-.5.063T15,22.8q-.443.019-1.013.028t-1.267.01l-4.775.006L8.021,16.6l4.184,0q.882,0,1.61.021t1.3.062q.573.042.991.1a4.456,4.456,0,0,1,.68.147,3.931,3.931,0,0,1,.5.191,3.215,3.215,0,0,1,.43.242,2.818,2.818,0,0,1,.367.293,2.7,2.7,0,0,1,.305.343,2.55,2.55,0,0,1,.237.385,2.62,2.62,0,0,1,.168.425,2.921,2.921,0,0,1,.1.466,3.475,3.475,0,0,1,.026.505,3.669,3.669,0,0,1-.057.59,2.936,2.936,0,0,1-.147.527,2.556,2.556,0,0,1-.235.465A2.487,2.487,0,0,1,18.153,21.766Z" transform="translate(1097.312 2015.518)" fill="#fbaa00"/>
    <path id="Path_442455" data-name="Path 442455" d="M22.968,17.511a6.327,6.327,0,0,0-.71-.744,6.528,6.528,0,0,0-.83-.627,7.238,7.238,0,0,0-.951-.51,8.509,8.509,0,0,0-1.072-.391,5.581,5.581,0,0,0,.719-.413,5.108,5.108,0,0,0,.629-.5,5.05,5.05,0,0,0,.539-.6,5.406,5.406,0,0,0,.45-.688,5.569,5.569,0,0,0,.35-.749,5.471,5.471,0,0,0,.233-.786,5.712,5.712,0,0,0,.115-.822,6.308,6.308,0,0,0,0-.856,6.736,6.736,0,0,0-.1-.79,6.149,6.149,0,0,0-.19-.75,5.881,5.881,0,0,0-.653-1.379q-.207-.325-.436-.618a7.218,7.218,0,0,0-.479-.554,6.773,6.773,0,0,0-.522-.49A6.724,6.724,0,0,0,18.9,4.458a6.439,6.439,0,0,0-.632-.293A6.6,6.6,0,0,0,17.6,3.94a7.018,7.018,0,0,0-.7-.158q-.193-.034-.414-.063t-.469-.055q-.248-.025-.522-.046t-.573-.037L14.683.094,11.152.076l.23,3.433L9.3,3.5,9.074.063,5.522.045l.226,3.441L2.812,3.471.217,3.463.479,7.641l2.6,0,1.076,16.82-2.608.009L1.815,28.7l2.615-.013,2.947-.02L7.6,32.085l3.573-.028-.222-3.411,1.846-.009.245-.006.229,3.413,3.557-.023-.235-3.468q.382-.013.707-.027t.593-.029q.268-.015.48-.032t.366-.036a8.357,8.357,0,0,0,.932-.163,6.857,6.857,0,0,0,.846-.257,5.846,5.846,0,0,0,.76-.35,5.262,5.262,0,0,0,.675-.442,5.689,5.689,0,0,0,.6-.528,5.781,5.781,0,0,0,.52-.609,6.234,6.234,0,0,0,.443-.691,7.075,7.075,0,0,0,.368-.773,7.672,7.672,0,0,0,.28-.816,7.318,7.318,0,0,0,.268-1.667,7.574,7.574,0,0,0-.011-.85,7.4,7.4,0,0,0-.146-1.049,6.589,6.589,0,0,0-.29-.979,6.263,6.263,0,0,0-.434-.907A6.409,6.409,0,0,0,22.968,17.511ZM15.073,7.764a4.294,4.294,0,0,1,.582.114,3.285,3.285,0,0,1,.512.185,2.679,2.679,0,0,1,.442.256,2.413,2.413,0,0,1,.371.328,2.642,2.642,0,0,1,.3.391,2.743,2.743,0,0,1,.223.444,3.137,3.137,0,0,1,.149.5,3.864,3.864,0,0,1,.075.55,3.543,3.543,0,0,1-.006.577,2.7,2.7,0,0,1-.1.518,2.27,2.27,0,0,1-.194.459,2.194,2.194,0,0,1-.289.4,2.435,2.435,0,0,1-.373.334,2.67,2.67,0,0,1-.445.261,3.23,3.23,0,0,1-.516.187,4.169,4.169,0,0,1-.587.114q-.174.022-.484.038t-.756.027q-.446.011-1.03.016t-1.305,0l-3.232,0-.38-5.8,2.83,0q.87,0,1.567.011t1.223.02q.526.012.881.029T15.073,7.764ZM18.795,23.2a2.762,2.762,0,0,1-.348.363,2.67,2.67,0,0,1-.4.288,2.862,2.862,0,0,1-.457.215,3.35,3.35,0,0,1-.511.142,4.272,4.272,0,0,1-.476.07q-.3.031-.721.052t-.966.033q-.545.012-1.212.014l-4.578.021-.441-6.745,3.992-.008q.84,0,1.535.021t1.243.066q.549.044.952.112a4.047,4.047,0,0,1,.659.157,3.813,3.813,0,0,1,.487.2,3.325,3.325,0,0,1,.43.259,3.121,3.121,0,0,1,.375.314,3.14,3.14,0,0,1,.581.781,3.312,3.312,0,0,1,.2.457,3.7,3.7,0,0,1,.135.5,4.322,4.322,0,0,1,.07.544,4.415,4.415,0,0,1,0,.635,3.336,3.336,0,0,1-.092.569,2.678,2.678,0,0,1-.181.5A2.377,2.377,0,0,1,18.795,23.2Z" transform="translate(1046.39 2121.584)" fill="#fbaa00"/>
  </g>
</svg>
