<svg id="noun_encryption_3753857_1_" data-name="noun_encryption_3753857 (1)" xmlns="http://www.w3.org/2000/svg" width="56.357" height="47.028" viewBox="0 0 56.357 47.028">
  <g id="Group_185052" data-name="Group 185052" transform="translate(0 0)">
    <path id="Path_440974" data-name="Path 440974" d="M767.642,150.254h0a3.836,3.836,0,0,0-2.541-3.5,3.771,3.771,0,0,0-4.119,1.142,3.813,3.813,0,0,0-.34,4.37,3.744,3.744,0,0,0,1.944,1.578v6.635h-2.919a1.3,1.3,0,0,0-1.283,1.283,1.308,1.308,0,0,0,1.283,1.283h4.209a1.3,1.3,0,0,0,1.283-1.283v-7.892a3.842,3.842,0,0,0,2.483-3.484v-.071A.089.089,0,0,0,767.642,150.254Z" transform="translate(-714.583 -146.542)"/>
    <path id="Path_440975" data-name="Path 440975" d="M770.94,472.154h0a3.836,3.836,0,0,0-2.541-3.5,3.77,3.77,0,0,0-4.119,1.142,3.917,3.917,0,0,0-.642,1.136h-3.972a1.283,1.283,0,1,0,0,2.567h3.953a3.357,3.357,0,0,0,.321.667,3.773,3.773,0,0,0,7-1.88v-.128Z" transform="translate(-714.583 -447.788)"/>
    <path id="Path_440976" data-name="Path 440976" d="M767.642,670.173h0a3.833,3.833,0,0,0-2.49-3.484v-5.505a1.3,1.3,0,0,0-1.283-1.283h-4.2a1.283,1.283,0,1,0,0,2.567h2.926v4.222a3.622,3.622,0,0,0-1.6,1.123,3.77,3.77,0,1,0,6.66,2.49v-.071A.178.178,0,0,0,767.642,670.173Z" transform="translate(-714.583 -626.961)"/>
    <path id="Path_440977" data-name="Path 440977" d="M349.376,197.579a3.78,3.78,0,0,0-2.2-3.356,4.3,4.3,0,0,0-1.745-.34h-.058v-3.157a8.183,8.183,0,0,0-16.362-.353c-.045,1.168-.026,2.336-.013,3.51h-.2a3.851,3.851,0,0,0-2.6,1,3.807,3.807,0,0,0-1.2,2.81v12.942a3.761,3.761,0,0,0,3.76,3.888c.667.006,1.335,0,2,0h13.4a12.264,12.264,0,0,0,2.278-.083,3.783,3.783,0,0,0,2.823-2.682,5.268,5.268,0,0,0,.128-1.38V197.637A.177.177,0,0,1,349.376,197.579Zm-10.908,9.8a1.283,1.283,0,0,1-2.567,0v-2.413a1.283,1.283,0,1,1,2.567,0ZM342.8,193.89H331.57v-3.041c0-.308.013-.61.039-.918v-.006c-.051.3.019-.276,0-.013.013-.071.019-.135.032-.205.032-.154.064-.314.1-.468s.077-.276.122-.417c.019-.051.039-.109.058-.16s.039-.109.058-.16.026-.064.032-.077c-.006.019-.026.064-.064.148a1.5,1.5,0,0,1,.18-.385,4.2,4.2,0,0,1,.205-.372c.071-.122.148-.244.225-.359a2.38,2.38,0,0,1,.148-.205c.006-.006.006-.013.013-.019.18-.212.359-.417.552-.61.109-.109.225-.212.34-.314.051-.045.109-.09.16-.135a.006.006,0,0,0,.006-.006.134.134,0,0,0,.038-.026c.244-.167.494-.327.751-.468.122-.064.25-.128.379-.192.045-.019.276-.077.083-.039s.122-.045.167-.058a6.105,6.105,0,0,1,.828-.237c.141-.032.276-.051.417-.077h.026c.09-.006.18-.019.263-.026a6.316,6.316,0,0,1,.853,0l.225.019c.032,0,.058.006.09.006.141.019.115.013-.077-.013a1.377,1.377,0,0,1,.52.1,7.2,7.2,0,0,1,.828.237c.064.026.128.051.193.071.148.071.3.135.436.212a7.44,7.44,0,0,1,.719.443l.071.051a.681.681,0,0,1,.071.051h0a.171.171,0,0,0,.038.032,4.676,4.676,0,0,1,.372.34,8.306,8.306,0,0,1,.6.654.421.421,0,0,0,.045.051c0-.006-.006-.006-.006-.013.026.026.032.045.006.013.026.038.051.083.058.09.1.141.186.282.27.43.071.122.141.244.205.372a1.313,1.313,0,0,1,.18.385c-.019-.051-.045-.1-.064-.148.019.051.039.1.064.16s.039.109.058.16c.058.16.1.327.148.494q.058.212.1.423c.013.077.026.148.038.225-.013-.192.058.327.006.032,0-.013-.006-.019-.006-.032.019.257.039.513.045.77C342.806,191.74,342.806,192.812,342.8,193.89Z" transform="translate(-309.009 -180.174)"/>
    <path id="Path_440978" data-name="Path 440978" d="M136.422,661.183a1.308,1.308,0,0,0-1.283-1.283h-4.2a1.3,1.3,0,0,0-1.283,1.283v5.505a3.622,3.622,0,0,0-1.6,1.123,3.77,3.77,0,1,0,6.66,2.49v-.135a3.818,3.818,0,0,0-2.49-3.478v-4.222h2.919A1.3,1.3,0,0,0,136.422,661.183Z" transform="translate(-123.876 -626.961)"/>
    <path id="Path_440979" data-name="Path 440979" d="M88.32,472.212a1.308,1.308,0,0,0-1.283-1.283H83.071a3.766,3.766,0,1,0-2.753,4.973,3.709,3.709,0,0,0,2.746-2.406h3.972A1.3,1.3,0,0,0,88.32,472.212Z" transform="translate(-75.774 -447.788)"/>
    <path id="Path_440980" data-name="Path 440980" d="M136.422,161.766a1.308,1.308,0,0,0-1.283-1.283h-2.919v-6.615a3.858,3.858,0,0,0,2.49-3.484v-.135a3.821,3.821,0,0,0-2.541-3.5,3.77,3.77,0,0,0-4.119,1.142,3.813,3.813,0,0,0-.34,4.37,3.743,3.743,0,0,0,1.944,1.578v7.918a1.3,1.3,0,0,0,1.283,1.283h4.2A1.286,1.286,0,0,0,136.422,161.766Z" transform="translate(-123.876 -146.542)"/>
  </g>
</svg>
