<svg xmlns="http://www.w3.org/2000/svg" width="404.487" height="301.43" viewBox="0 0 404.487 301.43">
  <g id="Group_185329" data-name="Group 185329" transform="translate(0 -54.953)">
    <g id="Background_Complete" data-name="Background Complete" transform="translate(0 54.953)">
      <g id="Group_185066" data-name="Group 185066">
        <rect id="Rectangle_21129" data-name="Rectangle 21129" width="404.487" height="0.202" transform="translate(0 264.895)" fill="#ebebeb"/>
        <rect id="Rectangle_21130" data-name="Rectangle 21130" width="26.795" height="0.202" transform="translate(337.164 277.916)" fill="#ebebeb"/>
        <rect id="Rectangle_21131" data-name="Rectangle 21131" width="7.033" height="0.202" transform="translate(260.916 280.111)" fill="#ebebeb"/>
        <rect id="Rectangle_21132" data-name="Rectangle 21132" width="15.526" height="0.202" transform="translate(320.828 270.404)" fill="#ebebeb"/>
        <rect id="Rectangle_21133" data-name="Rectangle 21133" width="34.942" height="0.202" transform="translate(42.438 271.763)" fill="#ebebeb"/>
        <rect id="Rectangle_21134" data-name="Rectangle 21134" width="5.123" height="0.202" transform="translate(84.583 271.763)" fill="#ebebeb"/>
        <rect id="Rectangle_21135" data-name="Rectangle 21135" width="75.781" height="0.202" transform="translate(106.357 275.179)" fill="#ebebeb"/>
        <path id="Path_441039" data-name="Path 441039" d="M199.037,283.769H42.825a4.623,4.623,0,0,1-4.618-4.618V59.57a4.623,4.623,0,0,1,4.618-4.617H199.037a4.622,4.622,0,0,1,4.617,4.617V279.151A4.623,4.623,0,0,1,199.037,283.769ZM42.825,55.155a4.42,4.42,0,0,0-4.415,4.415V279.151a4.42,4.42,0,0,0,4.415,4.415H199.037a4.42,4.42,0,0,0,4.415-4.415V59.57a4.42,4.42,0,0,0-4.415-4.415Z" transform="translate(-7.299 -54.953)" fill="#ebebeb"/>
        <path id="Path_441040" data-name="Path 441040" d="M415.333,283.769H259.122a4.623,4.623,0,0,1-4.617-4.618V59.57a4.622,4.622,0,0,1,4.617-4.617H415.333a4.623,4.623,0,0,1,4.618,4.617V279.151A4.623,4.623,0,0,1,415.333,283.769ZM259.122,55.155a4.42,4.42,0,0,0-4.415,4.415V279.151a4.42,4.42,0,0,0,4.415,4.415H415.333a4.421,4.421,0,0,0,4.416-4.415V59.57a4.42,4.42,0,0,0-4.416-4.415Z" transform="translate(-48.617 -54.953)" fill="#ebebeb"/>
      </g>
      <g id="Group_185081" data-name="Group 185081" transform="translate(57.951 28.401)">
        <g id="Group_185067" data-name="Group 185067" transform="translate(1.219)">
          <rect id="Rectangle_21136" data-name="Rectangle 21136" width="115.79" height="119.644" fill="#ebebeb"/>
          <rect id="Rectangle_21137" data-name="Rectangle 21137" width="115.79" height="119.644" transform="translate(4.045)" fill="#f0f0f0"/>
          <rect id="Rectangle_21138" data-name="Rectangle 21138" width="109.801" height="114.027" transform="translate(6.965 2.836)" fill="#e0e0e0"/>
          <rect id="Rectangle_21139" data-name="Rectangle 21139" width="107.059" height="114.025" transform="translate(6.963 2.835)" fill="#f5f5f5"/>
          <rect id="Rectangle_21140" data-name="Rectangle 21140" width="2.174" height="114.027" transform="translate(59.427 2.836)" fill="#ebebeb"/>
          <path id="Path_441041" data-name="Path 441041" d="M123.232,93.564,92.718,207.589H89.789L120.3,93.564Z" transform="translate(-76.322 -90.729)" fill="#fff"/>
          <rect id="Rectangle_21141" data-name="Rectangle 21141" width="1.864" height="117.971" transform="translate(60.669 1.077)" fill="#f0f0f0"/>
          <path id="Path_441042" data-name="Path 441042" d="M110.622,93.564,81.749,201.473V142.159l13-48.6Z" transform="translate(-74.786 -90.729)" fill="#fff"/>
          <path id="Path_441043" data-name="Path 441043" d="M207.537,106.354V117.3l-24.819,92.733h-2.929Z" transform="translate(-93.514 -93.173)" fill="#fff"/>
          <path id="Path_441044" data-name="Path 441044" d="M208.935,133.674v59.314l-5.954,22.263H187.109Z" transform="translate(-94.913 -98.391)" fill="#fff"/>
        </g>
        <g id="Group_185072" data-name="Group 185072" transform="translate(203.936 131.765)">
          <g id="Group_185068" data-name="Group 185068" transform="translate(0 24.407)">
            <path id="Path_441045" data-name="Path 441045" d="M323.727,283.109h97.192a6.668,6.668,0,0,1-6.374,6.659c-10.445.471-26.512,2.124-31.607,7.9-9.5,10.772-8.578,48.614,2.8,57.38,3.568,2.748,13.967,8.2,13.967,8.2h-54.76s9.718-5.567,13.095-8.2c11.312-8.836,11.642-46.657,2.1-57.38-4.9-5.5-19.957-7.279-30.061-7.84A6.726,6.726,0,0,1,323.727,283.109Z" transform="translate(-323.727 -283.109)" fill="#f5f5f5"/>
            <path id="Path_441046" data-name="Path 441046" d="M411.368,291.775c-9.872.792-21.7,2.742-25.941,7.551a19.119,19.119,0,0,0-3.213,5.566H365.889a19.431,19.431,0,0,0-3.263-5.566c-4.255-4.781-16.184-6.749-25.869-7.551Z" transform="translate(-326.216 -284.764)" fill="#e6e6e6"/>
          </g>
          <g id="Group_185069" data-name="Group 185069" transform="translate(22.243 9.347)">
            <path id="Path_441047" data-name="Path 441047" d="M370.38,279.6l1.322-15.107H352.544L351.222,279.6Z" transform="translate(-351.222 -264.493)" fill="#ebebeb"/>
            <path id="Path_441048" data-name="Path 441048" d="M374.9,279.6l1.322-15.107h1.032L375.936,279.6Z" transform="translate(-355.746 -264.493)" fill="#e0e0e0"/>
            <path id="Path_441049" data-name="Path 441049" d="M369.055,278.424l1.052-12.026H354.855L353.8,278.424Z" transform="translate(-351.715 -264.857)" fill="#f0f0f0"/>
            <path id="Path_441050" data-name="Path 441050" d="M368.2,277.667l.879-10.046H356.341l-.879,10.046Z" transform="translate(-352.032 -265.091)" fill="#fafafa"/>
          </g>
          <g id="Group_185071" data-name="Group 185071" transform="translate(44.561)">
            <g id="Group_185070" data-name="Group 185070">
              <path id="Path_441051" data-name="Path 441051" d="M382.082,277.346h19.245l-2.135-24.407H379.946Z" transform="translate(-379.027 -252.939)" fill="#e6e6e6"/>
              <path id="Path_441052" data-name="Path 441052" d="M381.865,277.346h-.919l-2.135-24.407h.919Z" transform="translate(-378.81 -252.939)" fill="#e0e0e0"/>
              <path id="Path_441053" data-name="Path 441053" d="M384.341,275.445h15.321l-1.7-19.43H382.641Z" transform="translate(-379.542 -253.527)" fill="#f0f0f0"/>
              <path id="Path_441054" data-name="Path 441054" d="M385.793,274.223h12.8l-1.42-16.231h-12.8Z" transform="translate(-379.873 -253.904)" fill="#fafafa"/>
            </g>
            <path id="Path_441055" data-name="Path 441055" d="M393.222,266.122h0a2.226,2.226,0,0,1-3.149,0h0a2.226,2.226,0,0,1,0-3.149h0a2.226,2.226,0,0,1,3.149,0h0A2.226,2.226,0,0,1,393.222,266.122Z" transform="translate(-380.837 -254.731)" fill="#ebebeb"/>
            <path id="Path_441056" data-name="Path 441056" d="M392.841,270.277h0a1.63,1.63,0,0,1,2.306,0h0a1.63,1.63,0,0,1-1.153,2.783h0A1.63,1.63,0,0,1,392.841,270.277Z" transform="translate(-381.399 -256.16)" fill="#f0f0f0"/>
          </g>
        </g>
        <g id="Group_185074" data-name="Group 185074" transform="translate(0 144.919)">
          <path id="Path_441057" data-name="Path 441057" d="M172.49,355.606h18.745l-9.854-80.255a7.158,7.158,0,0,0-6.907-6.151H92.686l11.99,86.407Z" transform="translate(-75.656 -269.199)" fill="#f5f5f5"/>
          <path id="Path_441058" data-name="Path 441058" d="M111.085,355.606H92.34L82.486,275.35a5.327,5.327,0,0,1,5.4-6.151h6.442a7.157,7.157,0,0,1,6.906,6.151Z" transform="translate(-73.699 -269.199)" fill="#f0f0f0"/>
          <g id="Group_185073" data-name="Group 185073" transform="translate(0 27.004)">
            <path id="Path_441059" data-name="Path 441059" d="M115.926,361.887l-3.4-38.818a3.7,3.7,0,0,0-3.217-3.348l-1.4-.179a4.962,4.962,0,0,1-4.316-4.491l-.62-7.078a4.963,4.963,0,0,1,4.944-5.4H76.6a4.963,4.963,0,0,0-4.944,5.4l.62,7.078a4.963,4.963,0,0,0,4.316,4.491l1.4.179A3.7,3.7,0,0,1,81.2,323.07l3.4,38.818a5.479,5.479,0,0,0,5.458,5h31.326A5.479,5.479,0,0,1,115.926,361.887Z" transform="translate(-71.635 -302.579)" fill="#e6e6e6"/>
          </g>
          <path id="Path_441060" data-name="Path 441060" d="M225.872,313.352a11.8,11.8,0,0,1,11.756-10.773H210.357A11.8,11.8,0,0,0,198.6,313.352l-2.692,30.77H223.18Z" transform="translate(-95.374 -275.575)" fill="#e6e6e6"/>
          <path id="Path_441061" data-name="Path 441061" d="M233.4,302.579H221.286a11.8,11.8,0,0,0-11.756,10.773l-2.692,30.77H141.885l-2.692-30.77a11.8,11.8,0,0,0-11.757-10.773H115.322a4.963,4.963,0,0,0-4.944,5.4l.62,7.078a4.962,4.962,0,0,0,4.316,4.491l1.4.179a3.7,3.7,0,0,1,3.217,3.348l3.4,38.818a5.479,5.479,0,0,0,5.458,5h91.16a5.48,5.48,0,0,0,5.458-5l3.4-38.818a3.7,3.7,0,0,1,3.217-3.348l1.4-.179a4.964,4.964,0,0,0,4.316-4.491l.62-7.078A4.964,4.964,0,0,0,233.4,302.579Z" transform="translate(-79.032 -275.575)" fill="#f0f0f0"/>
        </g>
        <g id="Group_185080" data-name="Group 185080" transform="translate(180.527 11.706)">
          <g id="Group_185075" data-name="Group 185075" transform="translate(64.774 6.875)">
            <rect id="Rectangle_21142" data-name="Rectangle 21142" width="25.082" height="35.492" transform="translate(35.492) rotate(90)" fill="#e0e0e0"/>
            <rect id="Rectangle_21143" data-name="Rectangle 21143" width="21.812" height="32.154" transform="translate(33.823 1.635) rotate(90)" fill="#ebebeb"/>
          </g>
          <g id="Group_185076" data-name="Group 185076" transform="translate(52.466 38.385)">
            <rect id="Rectangle_21144" data-name="Rectangle 21144" width="25.082" height="35.492" transform="translate(35.492 0) rotate(90)" fill="#e0e0e0"/>
            <rect id="Rectangle_21145" data-name="Rectangle 21145" width="21.812" height="32.154" transform="translate(33.823 1.635) rotate(90)" fill="#ebebeb"/>
          </g>
          <g id="Group_185077" data-name="Group 185077" transform="translate(35.458)">
            <rect id="Rectangle_21146" data-name="Rectangle 21146" width="22.584" height="31.957" transform="translate(22.584 31.957) rotate(180)" fill="#e0e0e0"/>
            <rect id="Rectangle_21147" data-name="Rectangle 21147" width="19.639" height="28.951" transform="translate(21.111 30.454) rotate(180)" fill="#ebebeb"/>
          </g>
          <g id="Group_185078" data-name="Group 185078" transform="translate(22.61 38.385)">
            <rect id="Rectangle_21148" data-name="Rectangle 21148" width="25.082" height="35.492" transform="translate(25.082 35.492) rotate(180)" fill="#e0e0e0"/>
            <rect id="Rectangle_21149" data-name="Rectangle 21149" width="21.812" height="32.154" transform="translate(23.447 33.823) rotate(180)" fill="#ebebeb"/>
          </g>
          <g id="Group_185079" data-name="Group 185079" transform="translate(0 12.318)">
            <rect id="Rectangle_21150" data-name="Rectangle 21150" width="19.639" height="27.79" transform="translate(0 19.639) rotate(-90)" fill="#e0e0e0"/>
            <rect id="Rectangle_21151" data-name="Rectangle 21151" width="17.078" height="25.176" transform="translate(1.307 18.359) rotate(-90)" fill="#ebebeb"/>
          </g>
        </g>
      </g>
    </g>
    <g id="Shadow" transform="translate(45.392 338.063)">
      <ellipse id="_Path_" data-name="&lt;Path&gt;" cx="156.851" cy="9.16" rx="156.851" ry="9.16" fill="#f5f5f5"/>
    </g>
    <g id="Device" transform="translate(152.261 118.462)">
      <g id="Group_185092" data-name="Group 185092" transform="translate(0 0)">
        <path id="Rectangle_21152" data-name="Rectangle 21152" d="M10.4,0H122.653a10.4,10.4,0,0,1,10.4,10.4V212.736a10.4,10.4,0,0,1-10.4,10.4H10.4A10.4,10.4,0,0,1,0,212.736V10.4A10.4,10.4,0,0,1,10.4,0Z" fill="#263238"/>
        <path id="Path_441062" data-name="Path 441062" d="M317.841,142.66V349.336a3.256,3.256,0,0,1-3.306,3.257H196.72a2.917,2.917,0,0,1-2.954-2.989V142.392a2.63,2.63,0,0,1,2.53-2.735H225.75a2.074,2.074,0,0,1,1.9,1.325l1.22,3a2.07,2.07,0,0,0,1.9,1.311h50.144a2.051,2.051,0,0,0,1.9-1.29l1.22-3.017a2.079,2.079,0,0,1,1.9-1.332H314.95A2.974,2.974,0,0,1,317.841,142.66Z" transform="translate(-189.275 -134.643)" fill="#407bff"/>
        <path id="Path_441063" data-name="Path 441063" d="M317.841,142.66V349.336a3.256,3.256,0,0,1-3.306,3.257H196.72a2.917,2.917,0,0,1-2.954-2.989V142.392a2.63,2.63,0,0,1,2.53-2.735H225.75a2.074,2.074,0,0,1,1.9,1.325l1.22,3a2.07,2.07,0,0,0,1.9,1.311h50.144a2.051,2.051,0,0,0,1.9-1.29l1.22-3.017a2.079,2.079,0,0,1,1.9-1.332H314.95A2.974,2.974,0,0,1,317.841,142.66Z" transform="translate(-189.275 -134.643)" opacity="0.3" style="isolation: isolate"/>
        <rect id="Rectangle_21153" data-name="Rectangle 21153" width="124.075" height="183.806" transform="translate(4.49 18.937)" fill="#fff" opacity="0.7" style="isolation: isolate"/>
        <g id="Group_185084" data-name="Group 185084" transform="translate(10.671 9.907)">
          <g id="Group_185082" data-name="Group 185082">
            <rect id="Rectangle_21154" data-name="Rectangle 21154" width="1.533" height="2.043" transform="translate(9.025 4.088) rotate(180)" fill="#fff" opacity="0.6" style="isolation: isolate"/>
            <rect id="Rectangle_21155" data-name="Rectangle 21155" width="1.533" height="2.725" transform="translate(6.528 4.088) rotate(180)" fill="#fff" opacity="0.6" style="isolation: isolate"/>
            <rect id="Rectangle_21156" data-name="Rectangle 21156" width="1.533" height="3.406" transform="translate(4.03 4.088) rotate(180)" fill="#fff" opacity="0.6" style="isolation: isolate"/>
            <rect id="Rectangle_21157" data-name="Rectangle 21157" width="1.533" height="4.088" transform="translate(1.533 4.088) rotate(180)" fill="#fff" opacity="0.6" style="isolation: isolate"/>
          </g>
          <g id="Group_185083" data-name="Group 185083" transform="translate(102.944 0.553)">
            <rect id="Rectangle_21158" data-name="Rectangle 21158" width="0.908" height="2.043" transform="translate(0 0.746)" fill="#fff" opacity="0.6" style="isolation: isolate"/>
            <rect id="Rectangle_21159" data-name="Rectangle 21159" width="7.237" height="3.534" transform="translate(8.77 3.534) rotate(180)" fill="#fff" opacity="0.6" style="isolation: isolate"/>
          </g>
        </g>
        <g id="Group_185085" data-name="Group 185085" transform="translate(39.046 175.772)">
          <path id="Path_441064" data-name="Path 441064" d="M240.092,355.755v.467h-3.611v-5.107h3.5v.467h-2.962V353.4h2.641v.46h-2.641v1.9Z" transform="translate(-236.481 -350.808)" fill="#407bff"/>
          <path id="Path_441065" data-name="Path 441065" d="M245.915,354.29v2.225H245.4V354.34a1.071,1.071,0,0,0-1.153-1.225A1.257,1.257,0,0,0,242.9,354.5v2.014h-.519v-3.837h.5v.707a1.609,1.609,0,0,1,1.459-.737A1.469,1.469,0,0,1,245.915,354.29Z" transform="translate(-237.609 -351.101)" fill="#407bff"/>
          <path id="Path_441066" data-name="Path 441066" d="M248.035,354.6a1.889,1.889,0,0,1,1.977-1.948,1.676,1.676,0,0,1,1.5.759l-.387.263a1.305,1.305,0,0,0-1.116-.57,1.5,1.5,0,0,0,0,2.991,1.3,1.3,0,0,0,1.116-.561l.387.263a1.692,1.692,0,0,1-1.5.759A1.9,1.9,0,0,1,248.035,354.6Z" transform="translate(-238.688 -351.101)" fill="#407bff"/>
          <path id="Path_441067" data-name="Path 441067" d="M255.526,352.648v.5c-.044,0-.087-.007-.124-.007a1.241,1.241,0,0,0-1.291,1.415v1.955h-.519v-3.837h.5v.751A1.445,1.445,0,0,1,255.526,352.648Z" transform="translate(-239.75 -351.101)" fill="#407bff"/>
          <path id="Path_441068" data-name="Path 441068" d="M260.359,352.685l-1.919,4.3c-.321.752-.73.993-1.277.993a1.314,1.314,0,0,1-.934-.351l.241-.387a.958.958,0,0,0,.7.292c.343,0,.576-.16.8-.642l.168-.372-1.715-3.83h.54l1.445,3.26,1.445-3.26Z" transform="translate(-240.253 -351.108)" fill="#407bff"/>
          <path id="Path_441069" data-name="Path 441069" d="M266.128,354.6a1.858,1.858,0,0,1-1.912,1.955,1.675,1.675,0,0,1-1.459-.759v2.137h-.519v-5.252h.5v.758a1.673,1.673,0,0,1,1.481-.788A1.856,1.856,0,0,1,266.128,354.6Zm-.518,0a1.431,1.431,0,1,0-1.43,1.495A1.414,1.414,0,0,0,265.61,354.6Z" transform="translate(-241.401 -351.101)" fill="#407bff"/>
          <path id="Path_441070" data-name="Path 441070" d="M270.238,356.09a1.235,1.235,0,0,1-.81.27,1.016,1.016,0,0,1-1.123-1.116v-2.319h-.686v-.438h.686v-.84h.518v.84h1.167v.438h-1.167v2.29a.615.615,0,0,0,.664.7.856.856,0,0,0,.569-.2Z" transform="translate(-242.429 -350.91)" fill="#407bff"/>
          <path id="Path_441071" data-name="Path 441071" d="M271.878,351.1a.374.374,0,0,1,.379-.366.369.369,0,1,1,0,.737A.375.375,0,0,1,271.878,351.1Zm.117,1.211h.518v3.837H272Z" transform="translate(-243.243 -350.736)" fill="#407bff"/>
          <path id="Path_441072" data-name="Path 441072" d="M277.981,354.29v2.225h-.518V354.34a1.071,1.071,0,0,0-1.152-1.225,1.258,1.258,0,0,0-1.343,1.386v2.014h-.518v-3.837h.5v.707a1.612,1.612,0,0,1,1.459-.737A1.469,1.469,0,0,1,277.981,354.29Z" transform="translate(-243.734 -351.101)" fill="#407bff"/>
          <path id="Path_441073" data-name="Path 441073" d="M284.041,352.678v3.37a1.684,1.684,0,0,1-1.919,1.919,2.673,2.673,0,0,1-1.787-.591l.262-.394a2.283,2.283,0,0,0,1.51.525c.97,0,1.415-.445,1.415-1.393v-.489a1.725,1.725,0,0,1-1.5.744,1.861,1.861,0,1,1,0-3.72,1.732,1.732,0,0,1,1.518.766v-.736Zm-.5,1.823a1.456,1.456,0,1,0-1.459,1.408A1.372,1.372,0,0,0,283.537,354.5Z" transform="translate(-244.814 -351.101)" fill="#407bff"/>
          <path id="Path_441074" data-name="Path 441074" d="M292.28,351.115v.372l-2.138,4.735h-.569l2.1-4.64h-2.627v.956h-.518v-1.423Z" transform="translate(-246.424 -350.808)" fill="#407bff"/>
          <path id="Path_441075" data-name="Path 441075" d="M297.269,354.719c0,.869-.606,1.546-1.853,1.546a2.64,2.64,0,0,1-1.832-.656l.256-.416a2.213,2.213,0,0,0,1.569.591c.868,0,1.328-.424,1.328-1.044,0-.657-.408-1.065-1.707-1.065h-1.087l.263-2.56H297v.467h-2.335l-.175,1.627h.657C296.685,353.209,297.269,353.815,297.269,354.719Z" transform="translate(-247.389 -350.808)" fill="#407bff"/>
          <path id="Path_441076" data-name="Path 441076" d="M298.783,352.456c0-.831.467-1.386,1.153-1.386s1.153.547,1.153,1.386-.475,1.387-1.153,1.387S298.783,353.287,298.783,352.456Zm1.941,0c0-.663-.314-1.057-.788-1.057s-.788.4-.788,1.057.307,1.058.788,1.058S300.724,353.12,300.724,352.456Zm2.306-1.349h.43l-3.487,5.107h-.43Zm-1.116,3.758c0-.832.474-1.387,1.153-1.387s1.153.554,1.153,1.387-.468,1.386-1.153,1.386S301.913,355.695,301.913,354.864Zm1.94,0c0-.657-.306-1.058-.787-1.058s-.789.394-.789,1.058.314,1.057.789,1.057S303.853,355.52,303.853,354.864Z" transform="translate(-248.382 -350.8)" fill="#407bff"/>
        </g>
        <g id="Group_185086" data-name="Group 185086" transform="translate(63.102 3.604)">
          <path id="Path_441077" data-name="Path 441077" d="M269.623,139.617a1.7,1.7,0,1,1-1.7-1.7A1.7,1.7,0,0,1,269.623,139.617Z" transform="translate(-266.217 -137.914)" fill="#fff" opacity="0.6" style="isolation: isolate"/>
          <path id="Path_441078" data-name="Path 441078" d="M274.173,139.762a1.091,1.091,0,1,1-1.091-1.09A1.091,1.091,0,0,1,274.173,139.762Z" transform="translate(-267.32 -138.059)" fill="#fff" opacity="0.6" style="isolation: isolate"/>
        </g>
        <rect id="Rectangle_21160" data-name="Rectangle 21160" width="124.075" height="21.22" transform="translate(4.49 18.937)" fill="#407bff"/>
        <g id="Group_185087" data-name="Group 185087" transform="translate(19.983 55.107)" opacity="0.2">
          <path id="Path_441079" data-name="Path 441079" d="M262.513,202.011c-.325.04-.651.078-.975.124a1.8,1.8,0,0,1-1.328.56,1.871,1.871,0,0,1-.852-.194c-.3.058-.609.116-.912.18a2.546,2.546,0,0,0,1.764.687A2.592,2.592,0,0,0,262.513,202.011Z" transform="translate(-221.614 -201.661)"/>
          <path id="Path_441080" data-name="Path 441080" d="M268.388,203.284a2.638,2.638,0,0,0,2.468-1.687c-.265-.006-.528-.018-.794-.019a1.869,1.869,0,0,1-3.3.089c-.264.016-.525.04-.786.06A2.606,2.606,0,0,0,268.388,203.284Z" transform="translate(-223.053 -201.578)"/>
          <path id="Path_441081" data-name="Path 441081" d="M276.018,203.26v-1.431c-.243-.023-.489-.036-.733-.056v1.487Z" transform="translate(-224.831 -201.615)"/>
          <path id="Path_441082" data-name="Path 441082" d="M280.56,203.362v-.922c-.244-.043-.487-.091-.733-.131v1.053Z" transform="translate(-225.699 -201.718)"/>
          <path id="Path_441083" data-name="Path 441083" d="M284.882,203.348a2.593,2.593,0,0,0,.89.243C285.475,203.51,285.181,203.423,284.882,203.348Z" transform="translate(-226.664 -201.916)"/>
          <path id="Path_441084" data-name="Path 441084" d="M225.3,226.372c1.65,0,2.852-1.355,2.852-3.625a3.985,3.985,0,0,0-.963-2.819c-.161.171-.327.335-.485.508a3.465,3.465,0,0,1,.694,2.311c0,1.9-.856,2.953-2.1,2.953a1.907,1.907,0,0,1-1.811-1.319c-.159.218-.314.439-.469.66A2.577,2.577,0,0,0,225.3,226.372Z" transform="translate(-214.846 -205.083)"/>
          <path id="Path_441085" data-name="Path 441085" d="M231.768,226.135h.733v-7.128h-2.413v.652h1.68Z" transform="translate(-216.197 -204.907)"/>
          <path id="Path_441086" data-name="Path 441086" d="M236.31,226.135h.733v-7.128H234.63v.652h1.68Z" transform="translate(-217.065 -204.907)"/>
          <path id="Path_441087" data-name="Path 441087" d="M240.852,226.135h.733v-7.128h-2.413v.652h1.68Z" transform="translate(-217.932 -204.907)"/>
          <path id="Path_441088" data-name="Path 441088" d="M245.395,226.135h.733v-7.128h-2.413v.652h1.68Z" transform="translate(-218.8 -204.907)"/>
          <path id="Path_441089" data-name="Path 441089" d="M248.8,222.557c0,2.27,1.191,3.625,2.841,3.625s2.851-1.355,2.851-3.625-1.2-3.627-2.851-3.627S248.8,220.285,248.8,222.557Zm2.841-2.954c1.242,0,2.1,1.049,2.1,2.954s-.856,2.953-2.1,2.953-2.1-1.049-2.1-2.953S250.4,219.6,251.639,219.6Z" transform="translate(-219.771 -204.893)"/>
          <path id="Path_441090" data-name="Path 441090" d="M259.969,218.93c-1.65,0-2.842,1.355-2.842,3.627s1.192,3.625,2.842,3.625,2.851-1.355,2.851-3.625S261.618,218.93,259.969,218.93Zm0,6.579c-1.243,0-2.1-1.049-2.1-2.953s.855-2.954,2.1-2.954,2.1,1.049,2.1,2.954S261.211,225.509,259.969,225.509Z" transform="translate(-221.362 -204.893)"/>
          <path id="Path_441091" data-name="Path 441091" d="M268.3,218.93c-1.649,0-2.841,1.355-2.841,3.627s1.192,3.625,2.841,3.625,2.852-1.355,2.852-3.625S269.948,218.93,268.3,218.93Zm0,6.579c-1.243,0-2.1-1.049-2.1-2.953s.855-2.954,2.1-2.954,2.1,1.049,2.1,2.954S269.541,225.509,268.3,225.509Z" transform="translate(-222.954 -204.893)"/>
          <path id="Path_441092" data-name="Path 441092" d="M274.9,226.135h.733v-7.128H273.22v.652h1.68Z" transform="translate(-224.436 -204.907)"/>
          <path id="Path_441093" data-name="Path 441093" d="M280.176,226.135v-7.128h-2.413v.652h1.68v6.477Z" transform="translate(-225.304 -204.907)"/>
          <path id="Path_441094" data-name="Path 441094" d="M285.687,226.182c1.65,0,2.852-1.355,2.852-3.625s-1.2-3.627-2.852-3.627-2.841,1.355-2.841,3.627S284.038,226.182,285.687,226.182Zm0-6.579c1.243,0,2.1,1.049,2.1,2.954s-.856,2.953-2.1,2.953-2.1-1.049-2.1-2.953S284.445,219.6,285.687,219.6Z" transform="translate(-226.275 -204.893)"/>
          <path id="Path_441095" data-name="Path 441095" d="M290.609,219.658h1.68v6.477h.733v-7.128h-2.414Z" transform="translate(-227.758 -204.907)"/>
          <path id="Path_441096" data-name="Path 441096" d="M298.534,226.182c1.649,0,2.851-1.355,2.851-3.625s-1.2-3.627-2.851-3.627-2.841,1.355-2.841,3.627S296.884,226.182,298.534,226.182Zm0-6.579c1.242,0,2.1,1.049,2.1,2.954s-.856,2.953-2.1,2.953-2.1-1.049-2.1-2.953S297.292,219.6,298.534,219.6Z" transform="translate(-228.729 -204.893)"/>
          <path id="Path_441097" data-name="Path 441097" d="M305.136,226.135h.733v-7.128h-2.413v.652h1.68Z" transform="translate(-230.212 -204.907)"/>
          <path id="Path_441098" data-name="Path 441098" d="M308.54,222.558c0,2.27,1.191,3.625,2.841,3.625s2.852-1.355,2.852-3.625c0-.158-.019-.3-.031-.448-.325-.4-.665-.781-1-1.167a4.338,4.338,0,0,1,.279,1.616c0,1.9-.855,2.953-2.1,2.953s-2.1-1.049-2.1-2.953.855-2.954,2.1-2.954a1.893,1.893,0,0,1,.747.156c-.26-.277-.519-.553-.786-.824C309.713,218.957,308.54,220.3,308.54,222.558Z" transform="translate(-231.183 -204.894)"/>
          <path id="Path_441099" data-name="Path 441099" d="M319.025,227.592q-.317-.482-.645-.956v.956Z" transform="translate(-233.063 -206.365)"/>
          <path id="Path_441100" data-name="Path 441100" d="M232.984,215.266c-.142.119-.28.242-.419.362h.419Z" transform="translate(-216.67 -204.193)"/>
          <path id="Path_441101" data-name="Path 441101" d="M238.085,214.523c1.65,0,2.851-1.354,2.851-3.625a4.874,4.874,0,0,0-.3-1.742c-.214.122-.43.244-.642.37a4.641,4.641,0,0,1,.192,1.372c0,1.9-.856,2.953-2.1,2.953a2.028,2.028,0,0,1-1.963-1.779c-.209.152-.417.3-.623.459A2.683,2.683,0,0,0,238.085,214.523Z" transform="translate(-217.231 -203.026)"/>
          <path id="Path_441102" data-name="Path 441102" d="M244.934,214.056h.733v-7.019c-.375.176-.746.358-1.115.543h.382Z" transform="translate(-218.96 -202.621)"/>
          <path id="Path_441103" data-name="Path 441103" d="M249.169,214.031h.733V206.9h-2.413v.652h1.68Z" transform="translate(-219.521 -202.595)"/>
          <path id="Path_441104" data-name="Path 441104" d="M255.414,214.078c1.65,0,2.851-1.354,2.851-3.625s-1.2-3.626-2.851-3.626-2.841,1.354-2.841,3.626S253.764,214.078,255.414,214.078Zm0-6.579c1.242,0,2.1,1.048,2.1,2.954s-.856,2.953-2.1,2.953-2.1-1.048-2.1-2.953S254.172,207.5,255.414,207.5Z" transform="translate(-220.492 -202.581)"/>
          <path id="Path_441105" data-name="Path 441105" d="M262.016,214.031h.733V206.9h-2.413v.652h1.68Z" transform="translate(-221.975 -202.595)"/>
          <path id="Path_441106" data-name="Path 441106" d="M268.261,214.078c1.649,0,2.851-1.354,2.851-3.625s-1.2-3.626-2.851-3.626-2.842,1.354-2.842,3.626S266.611,214.078,268.261,214.078Zm0-6.579c1.242,0,2.1,1.048,2.1,2.954s-.856,2.953-2.1,2.953-2.1-1.048-2.1-2.953S267.018,207.5,268.261,207.5Z" transform="translate(-222.946 -202.581)"/>
          <path id="Path_441107" data-name="Path 441107" d="M276.59,214.078c1.65,0,2.851-1.354,2.851-3.625s-1.2-3.626-2.851-3.626-2.841,1.354-2.841,3.626S274.94,214.078,276.59,214.078Zm0-6.579c1.243,0,2.1,1.048,2.1,2.954s-.855,2.953-2.1,2.953-2.1-1.048-2.1-2.953S275.348,207.5,276.59,207.5Z" transform="translate(-224.537 -202.581)"/>
          <path id="Path_441108" data-name="Path 441108" d="M284.92,214.078c1.65,0,2.851-1.354,2.851-3.625s-1.2-3.626-2.851-3.626-2.842,1.354-2.842,3.626S283.27,214.078,284.92,214.078Zm0-6.579c1.242,0,2.1,1.048,2.1,2.954s-.856,2.953-2.1,2.953-2.1-1.048-2.1-2.953S283.677,207.5,284.92,207.5Z" transform="translate(-226.129 -202.581)"/>
          <path id="Path_441109" data-name="Path 441109" d="M291.522,214.031h.733V206.9h-2.413v.652h1.68Z" transform="translate(-227.612 -202.595)"/>
          <path id="Path_441110" data-name="Path 441110" d="M294.384,207.554h1.68v6.477h.733v-6.146q-.988-.515-2-.983h-.412Z" transform="translate(-228.479 -202.595)"/>
          <path id="Path_441111" data-name="Path 441111" d="M302.309,214.573a2.644,2.644,0,0,0,2.482-1.721c-.2-.155-.4-.316-.6-.468a1.956,1.956,0,0,1-1.882,1.517c-1.243,0-2.1-1.048-2.1-2.953a4.9,4.9,0,0,1,.13-1.15c-.218-.131-.441-.252-.661-.379a5.179,5.179,0,0,0-.213,1.529C299.468,213.219,300.659,214.573,302.309,214.573Z" transform="translate(-229.45 -203.076)"/>
          <path id="Path_441112" data-name="Path 441112" d="M220.038,238.239V231.11h-.223c-.171.3-.345.6-.51.907v6.222Z" transform="translate(-214.137 -207.219)"/>
          <path id="Path_441113" data-name="Path 441113" d="M225.153,238.285c1.649,0,2.851-1.354,2.851-3.625s-1.2-3.626-2.851-3.626-2.841,1.354-2.841,3.626S223.5,238.285,225.153,238.285Zm0-6.579c1.243,0,2.1,1.048,2.1,2.954s-.855,2.953-2.1,2.953-2.1-1.048-2.1-2.953S223.911,231.706,225.153,231.706Z" transform="translate(-214.712 -207.205)"/>
          <path id="Path_441114" data-name="Path 441114" d="M231.755,238.238h.733v-7.129h-2.414v.652h1.68Z" transform="translate(-216.195 -207.219)"/>
          <path id="Path_441115" data-name="Path 441115" d="M236.3,238.238h.733v-7.129h-2.413v.652h1.68Z" transform="translate(-217.062 -207.219)"/>
          <path id="Path_441116" data-name="Path 441116" d="M240.84,238.238h.733v-7.129h-2.414v.652h1.68Z" transform="translate(-217.93 -207.219)"/>
          <path id="Path_441117" data-name="Path 441117" d="M245.382,238.238h.733v-7.129H243.7v.652h1.68Z" transform="translate(-218.798 -207.219)"/>
          <path id="Path_441118" data-name="Path 441118" d="M251.627,231.034c-1.65,0-2.842,1.354-2.842,3.626s1.192,3.625,2.842,3.625,2.851-1.354,2.851-3.625S253.276,231.034,251.627,231.034Zm0,6.579c-1.243,0-2.1-1.048-2.1-2.953s.856-2.954,2.1-2.954,2.1,1.048,2.1,2.954S252.869,237.613,251.627,237.613Z" transform="translate(-219.769 -207.205)"/>
          <path id="Path_441119" data-name="Path 441119" d="M259.956,231.034c-1.65,0-2.841,1.354-2.841,3.626s1.192,3.625,2.841,3.625,2.852-1.354,2.852-3.625S261.606,231.034,259.956,231.034Zm0,6.579c-1.243,0-2.1-1.048-2.1-2.953s.855-2.954,2.1-2.954,2.1,1.048,2.1,2.954S261.2,237.613,259.956,237.613Z" transform="translate(-221.36 -207.205)"/>
          <path id="Path_441120" data-name="Path 441120" d="M268.286,231.034c-1.65,0-2.841,1.354-2.841,3.626s1.191,3.625,2.841,3.625,2.851-1.354,2.851-3.625S269.936,231.034,268.286,231.034Zm0,6.579c-1.243,0-2.1-1.048-2.1-2.953s.855-2.954,2.1-2.954,2.1,1.048,2.1,2.954S269.529,237.613,268.286,237.613Z" transform="translate(-222.951 -207.205)"/>
          <path id="Path_441121" data-name="Path 441121" d="M274.888,238.238h.733v-7.129h-2.413v.652h1.68Z" transform="translate(-224.434 -207.219)"/>
          <path id="Path_441122" data-name="Path 441122" d="M277.75,231.761h1.68v6.477h.733v-7.129H277.75Z" transform="translate(-225.302 -207.219)"/>
          <path id="Path_441123" data-name="Path 441123" d="M285.675,238.285c1.65,0,2.851-1.354,2.851-3.625s-1.2-3.626-2.851-3.626-2.841,1.354-2.841,3.626S284.026,238.285,285.675,238.285Zm0-6.579c1.243,0,2.1,1.048,2.1,2.954s-.855,2.953-2.1,2.953-2.1-1.048-2.1-2.953S284.433,231.706,285.675,231.706Z" transform="translate(-226.273 -207.205)"/>
          <path id="Path_441124" data-name="Path 441124" d="M293.01,238.238v-7.129H290.6v.652h1.68v6.477Z" transform="translate(-227.756 -207.219)"/>
          <path id="Path_441125" data-name="Path 441125" d="M298.522,238.285c1.649,0,2.851-1.354,2.851-3.625s-1.2-3.626-2.851-3.626-2.841,1.354-2.841,3.626S296.872,238.285,298.522,238.285Zm0-6.579c1.242,0,2.1,1.048,2.1,2.954s-.856,2.953-2.1,2.953-2.1-1.048-2.1-2.953S297.28,231.706,298.522,231.706Z" transform="translate(-228.727 -207.205)"/>
          <path id="Path_441126" data-name="Path 441126" d="M305.124,238.238h.733v-7.129h-2.413v.652h1.68Z" transform="translate(-230.21 -207.219)"/>
          <path id="Path_441127" data-name="Path 441127" d="M311.368,238.285c1.649,0,2.852-1.354,2.852-3.625s-1.2-3.626-2.852-3.626-2.841,1.354-2.841,3.626S309.719,238.285,311.368,238.285Zm0-6.579c1.243,0,2.1,1.048,2.1,2.954s-.856,2.953-2.1,2.953-2.1-1.048-2.1-2.953S310.126,231.706,311.368,231.706Z" transform="translate(-231.181 -207.205)"/>
          <path id="Path_441128" data-name="Path 441128" d="M317.971,238.238h.733v-7.129H316.29v.652h1.68Z" transform="translate(-232.664 -207.219)"/>
          <path id="Path_441129" data-name="Path 441129" d="M324.215,238.6a2.708,2.708,0,0,0,.307-.032c-.078-.217-.163-.431-.244-.646-.022,0-.041.006-.063.006-1.243,0-2.1-1.048-2.1-2.953a4.489,4.489,0,0,1,.225-1.464q-.205-.41-.417-.815a4.478,4.478,0,0,0-.551,2.28C321.374,237.248,322.565,238.6,324.215,238.6Z" transform="translate(-233.635 -207.523)"/>
          <path id="Path_441130" data-name="Path 441130" d="M216.836,255.242c-1.65,0-2.842,1.354-2.842,3.626s1.192,3.626,2.842,3.626,2.851-1.355,2.851-3.626S218.485,255.242,216.836,255.242Zm0,6.579c-1.243,0-2.1-1.049-2.1-2.954s.855-2.954,2.1-2.954,2.1,1.049,2.1,2.954S218.078,261.821,216.836,261.821Z" transform="translate(-213.123 -211.829)"/>
          <path id="Path_441131" data-name="Path 441131" d="M225.165,255.242c-1.649,0-2.841,1.354-2.841,3.626s1.192,3.626,2.841,3.626,2.851-1.355,2.851-3.626S226.815,255.242,225.165,255.242Zm0,6.579c-1.243,0-2.1-1.049-2.1-2.954s.855-2.954,2.1-2.954,2.1,1.049,2.1,2.954S226.408,261.821,225.165,261.821Z" transform="translate(-214.714 -211.829)"/>
          <path id="Path_441132" data-name="Path 441132" d="M232.5,262.446v-7.129h-2.413v.652h1.68v6.477Z" transform="translate(-216.197 -211.844)"/>
          <path id="Path_441133" data-name="Path 441133" d="M237.043,262.446v-7.129H234.63v.652h1.68v6.477Z" transform="translate(-217.065 -211.844)"/>
          <path id="Path_441134" data-name="Path 441134" d="M241.585,262.446v-7.129h-2.413v.652h1.68v6.477Z" transform="translate(-217.932 -211.844)"/>
          <path id="Path_441135" data-name="Path 441135" d="M246.127,262.446v-7.129h-2.413v.652h1.68v6.477Z" transform="translate(-218.8 -211.844)"/>
          <path id="Path_441136" data-name="Path 441136" d="M248.8,258.868c0,2.271,1.191,3.626,2.84,3.626s2.852-1.355,2.852-3.626-1.2-3.626-2.852-3.626S248.8,256.6,248.8,258.868Zm2.84-2.954c1.243,0,2.1,1.049,2.1,2.954s-.856,2.954-2.1,2.954-2.1-1.049-2.1-2.954S250.4,255.914,251.638,255.914Z" transform="translate(-219.771 -211.829)"/>
          <path id="Path_441137" data-name="Path 441137" d="M259.969,255.242c-1.651,0-2.842,1.354-2.842,3.626s1.191,3.626,2.842,3.626,2.851-1.355,2.851-3.626S261.618,255.242,259.969,255.242Zm0,6.579c-1.243,0-2.1-1.049-2.1-2.954s.855-2.954,2.1-2.954,2.1,1.049,2.1,2.954S261.211,261.821,259.969,261.821Z" transform="translate(-221.362 -211.829)"/>
          <path id="Path_441138" data-name="Path 441138" d="M268.3,262.494c1.65,0,2.851-1.355,2.851-3.626s-1.2-3.626-2.851-3.626-2.841,1.354-2.841,3.626S266.649,262.494,268.3,262.494Zm0-6.579c1.243,0,2.1,1.049,2.1,2.954s-.855,2.954-2.1,2.954-2.1-1.049-2.1-2.954S267.055,255.914,268.3,255.914Z" transform="translate(-222.954 -211.829)"/>
          <path id="Path_441139" data-name="Path 441139" d="M275.633,262.446v-7.129H273.22v.652h1.68v6.477Z" transform="translate(-224.436 -211.844)"/>
          <path id="Path_441140" data-name="Path 441140" d="M280.176,255.318h-2.413v.652h1.68v6.477h.733Z" transform="translate(-225.304 -211.844)"/>
          <path id="Path_441141" data-name="Path 441141" d="M285.687,255.242c-1.65,0-2.842,1.354-2.842,3.626s1.192,3.626,2.842,3.626,2.852-1.355,2.852-3.626S287.336,255.242,285.687,255.242Zm0,6.579c-1.243,0-2.1-1.049-2.1-2.954s.855-2.954,2.1-2.954,2.1,1.049,2.1,2.954S286.929,261.821,285.687,261.821Z" transform="translate(-226.275 -211.829)"/>
          <path id="Path_441142" data-name="Path 441142" d="M290.609,255.969h1.68v6.477h.733v-7.129h-2.414Z" transform="translate(-227.758 -211.844)"/>
          <path id="Path_441143" data-name="Path 441143" d="M298.534,262.494c1.649,0,2.851-1.355,2.851-3.626s-1.2-3.626-2.851-3.626-2.842,1.354-2.842,3.626S296.884,262.494,298.534,262.494Zm0-6.579c1.242,0,2.1,1.049,2.1,2.954s-.856,2.954-2.1,2.954-2.1-1.049-2.1-2.954S297.291,255.914,298.534,255.914Z" transform="translate(-228.729 -211.829)"/>
          <path id="Path_441144" data-name="Path 441144" d="M305.869,262.446v-7.129h-2.413v.652h1.68v6.477Z" transform="translate(-230.212 -211.844)"/>
          <path id="Path_441145" data-name="Path 441145" d="M311.381,262.494c1.649,0,2.851-1.355,2.851-3.626s-1.2-3.626-2.851-3.626-2.841,1.354-2.841,3.626S309.731,262.494,311.381,262.494Zm0-6.579c1.243,0,2.1,1.049,2.1,2.954s-.855,2.954-2.1,2.954-2.1-1.049-2.1-2.954S310.138,255.914,311.381,255.914Z" transform="translate(-231.183 -211.829)"/>
          <path id="Path_441146" data-name="Path 441146" d="M318.716,262.446v-7.129H316.3v.652h1.68v6.477Z" transform="translate(-232.666 -211.844)"/>
          <path id="Path_441147" data-name="Path 441147" d="M321.387,258.868c0,2.271,1.191,3.626,2.84,3.626s2.852-1.355,2.852-3.626-1.2-3.626-2.852-3.626S321.387,256.6,321.387,258.868Zm2.84-2.954c1.243,0,2.1,1.049,2.1,2.954s-.856,2.954-2.1,2.954-2.1-1.049-2.1-2.954S322.985,255.914,324.227,255.914Z" transform="translate(-233.638 -211.829)"/>
          <path id="Path_441148" data-name="Path 441148" d="M215.837,246.854a3.586,3.586,0,0,0-1.492-3.243c-.066.23-.133.46-.2.691a3.156,3.156,0,0,1,.935,2.552c0,1.9-.848,2.941-2.081,2.951-.032.222-.056.445-.085.667.023,0,.044.007.069.007C214.635,250.48,215.837,249.125,215.837,246.854Z" transform="translate(-212.917 -209.607)"/>
          <path id="Path_441149" data-name="Path 441149" d="M218.933,250.343h.733v-7.129h-2.413v.652h1.68Z" transform="translate(-213.745 -209.532)"/>
          <path id="Path_441150" data-name="Path 441150" d="M225.177,243.138c-1.65,0-2.84,1.355-2.84,3.626s1.191,3.626,2.84,3.626,2.852-1.355,2.852-3.626S226.827,243.138,225.177,243.138Zm0,6.579c-1.243,0-2.1-1.049-2.1-2.954s.854-2.954,2.1-2.954,2.1,1.049,2.1,2.954S226.421,249.717,225.177,249.717Z" transform="translate(-214.716 -209.517)"/>
          <path id="Path_441151" data-name="Path 441151" d="M230.1,243.866h1.68v6.477h.733v-7.129H230.1Z" transform="translate(-216.199 -209.532)"/>
          <path id="Path_441152" data-name="Path 441152" d="M235.183,246.764c0,2.271,1.192,3.626,2.841,3.626s2.852-1.355,2.852-3.626-1.2-3.626-2.852-3.626S235.183,244.493,235.183,246.764Zm2.841-2.954c1.243,0,2.1,1.049,2.1,2.954s-.856,2.954-2.1,2.954-2.1-1.049-2.1-2.954S236.782,243.81,238.024,243.81Z" transform="translate(-217.17 -209.517)"/>
          <path id="Path_441153" data-name="Path 441153" d="M244.626,250.343h.733v-7.129h-2.413v.652h1.68Z" transform="translate(-218.653 -209.532)"/>
          <path id="Path_441154" data-name="Path 441154" d="M249.168,250.343h.733v-7.129h-2.413v.652h1.68Z" transform="translate(-219.521 -209.532)"/>
          <path id="Path_441155" data-name="Path 441155" d="M252.572,246.764c0,2.271,1.192,3.626,2.842,3.626s2.851-1.355,2.851-3.626-1.2-3.626-2.851-3.626S252.572,244.493,252.572,246.764Zm4.94,0c0,1.9-.856,2.954-2.1,2.954s-2.1-1.049-2.1-2.954.856-2.954,2.1-2.954S257.512,244.86,257.512,246.764Z" transform="translate(-220.492 -209.517)"/>
          <path id="Path_441156" data-name="Path 441156" d="M262.748,250.343v-7.129h-2.413v.652h1.68v6.477Z" transform="translate(-221.975 -209.532)"/>
          <path id="Path_441157" data-name="Path 441157" d="M268.261,250.39c1.649,0,2.851-1.355,2.851-3.626s-1.2-3.626-2.851-3.626-2.842,1.355-2.842,3.626S266.61,250.39,268.261,250.39Zm0-6.579c1.242,0,2.1,1.049,2.1,2.954s-.855,2.954-2.1,2.954-2.1-1.049-2.1-2.954S267.018,243.81,268.261,243.81Z" transform="translate(-222.946 -209.517)"/>
          <path id="Path_441158" data-name="Path 441158" d="M273.749,246.764c0,2.271,1.191,3.626,2.841,3.626s2.851-1.355,2.851-3.626-1.2-3.626-2.851-3.626S273.749,244.493,273.749,246.764Zm4.939,0c0,1.9-.855,2.954-2.1,2.954s-2.1-1.049-2.1-2.954.854-2.954,2.1-2.954S278.688,244.86,278.688,246.764Z" transform="translate(-224.537 -209.517)"/>
          <path id="Path_441159" data-name="Path 441159" d="M284.92,250.39c1.65,0,2.851-1.355,2.851-3.626s-1.2-3.626-2.851-3.626-2.842,1.355-2.842,3.626S283.27,250.39,284.92,250.39Zm0-6.579c1.242,0,2.1,1.049,2.1,2.954s-.855,2.954-2.1,2.954-2.1-1.049-2.1-2.954S283.677,243.81,284.92,243.81Z" transform="translate(-226.129 -209.517)"/>
          <path id="Path_441160" data-name="Path 441160" d="M291.522,250.343h.733v-7.129h-2.413v.652h1.68Z" transform="translate(-227.612 -209.532)"/>
          <path id="Path_441161" data-name="Path 441161" d="M296.064,250.343h.733v-7.129h-2.413v.652h1.68Z" transform="translate(-228.479 -209.532)"/>
          <path id="Path_441162" data-name="Path 441162" d="M299.468,246.764c0,2.271,1.191,3.626,2.84,3.626s2.852-1.355,2.852-3.626-1.2-3.626-2.852-3.626S299.468,244.493,299.468,246.764Zm2.84-2.954c1.243,0,2.1,1.049,2.1,2.954s-.856,2.954-2.1,2.954-2.1-1.049-2.1-2.954S301.066,243.81,302.308,243.81Z" transform="translate(-229.45 -209.517)"/>
          <path id="Path_441163" data-name="Path 441163" d="M308.911,250.343h.733v-7.129H307.23v.652h1.68Z" transform="translate(-230.933 -209.532)"/>
          <path id="Path_441164" data-name="Path 441164" d="M312.314,246.764c0,2.271,1.192,3.626,2.841,3.626s2.851-1.355,2.851-3.626-1.2-3.626-2.851-3.626S312.314,244.493,312.314,246.764Zm2.841-2.954c1.243,0,2.1,1.049,2.1,2.954s-.856,2.954-2.1,2.954-2.1-1.049-2.1-2.954S313.913,243.81,315.155,243.81Z" transform="translate(-231.904 -209.517)"/>
          <path id="Path_441165" data-name="Path 441165" d="M321.757,250.343h.733v-7.129h-2.413v.652h1.68Z" transform="translate(-233.387 -209.532)"/>
          <path id="Path_441166" data-name="Path 441166" d="M325.161,246.918c0,2.088,1.013,3.387,2.457,3.585-.03-.23-.054-.461-.087-.69-.982-.238-1.626-1.243-1.626-2.9a3.656,3.656,0,0,1,.587-2.2c-.069-.26-.147-.517-.22-.775A3.859,3.859,0,0,0,325.161,246.918Z" transform="translate(-234.359 -209.672)"/>
          <path id="Path_441167" data-name="Path 441167" d="M215.817,270.971c0-2.272-1.2-3.626-2.852-3.626-.017,0-.032,0-.049.006.029.223.053.448.085.671,1.222.022,2.062,1.064,2.062,2.95a3.179,3.179,0,0,1-.919,2.541c.063.231.13.461.2.692A3.6,3.6,0,0,0,215.817,270.971Z" transform="translate(-212.917 -214.141)"/>
          <path id="Path_441168" data-name="Path 441168" d="M217.228,268.072h1.68v6.477h.733v-7.129h-2.413Z" transform="translate(-213.74 -214.156)"/>
          <path id="Path_441169" data-name="Path 441169" d="M225.153,274.6c1.649,0,2.851-1.354,2.851-3.625s-1.2-3.626-2.851-3.626-2.841,1.354-2.841,3.626S223.5,274.6,225.153,274.6Zm0-6.579c1.243,0,2.1,1.048,2.1,2.954s-.855,2.953-2.1,2.953-2.1-1.048-2.1-2.953S223.911,268.017,225.153,268.017Z" transform="translate(-214.712 -214.141)"/>
          <path id="Path_441170" data-name="Path 441170" d="M231.755,274.55h.733v-7.129h-2.414v.652h1.68Z" transform="translate(-216.195 -214.156)"/>
          <path id="Path_441171" data-name="Path 441171" d="M236.3,274.55h.733v-7.129h-2.413v.652h1.68Z" transform="translate(-217.062 -214.156)"/>
          <path id="Path_441172" data-name="Path 441172" d="M239.159,268.072h1.68v6.477h.733v-7.129h-2.414Z" transform="translate(-217.93 -214.156)"/>
          <path id="Path_441173" data-name="Path 441173" d="M243.7,268.072h1.68v6.477h.733v-7.129H243.7Z" transform="translate(-218.798 -214.156)"/>
          <path id="Path_441174" data-name="Path 441174" d="M251.627,274.6c1.649,0,2.851-1.354,2.851-3.625s-1.2-3.626-2.851-3.626-2.842,1.354-2.842,3.626S249.977,274.6,251.627,274.6Zm0-6.579c1.242,0,2.1,1.048,2.1,2.954s-.856,2.953-2.1,2.953-2.1-1.048-2.1-2.953S250.384,268.017,251.627,268.017Z" transform="translate(-219.769 -214.141)"/>
          <path id="Path_441175" data-name="Path 441175" d="M259.956,267.345c-1.65,0-2.841,1.354-2.841,3.626s1.192,3.625,2.841,3.625,2.852-1.354,2.852-3.625S261.606,267.345,259.956,267.345Zm0,6.579c-1.243,0-2.1-1.048-2.1-2.953s.855-2.954,2.1-2.954,2.1,1.048,2.1,2.954S261.2,273.924,259.956,273.924Z" transform="translate(-221.36 -214.141)"/>
          <path id="Path_441176" data-name="Path 441176" d="M268.286,274.6c1.65,0,2.851-1.354,2.851-3.625s-1.2-3.626-2.851-3.626-2.841,1.354-2.841,3.626S266.636,274.6,268.286,274.6Zm0-6.579c1.243,0,2.1,1.048,2.1,2.954s-.855,2.953-2.1,2.953-2.1-1.048-2.1-2.953S267.044,268.017,268.286,268.017Z" transform="translate(-222.951 -214.141)"/>
          <path id="Path_441177" data-name="Path 441177" d="M274.888,274.55h.733v-7.129h-2.413v.652h1.68Z" transform="translate(-224.434 -214.156)"/>
          <path id="Path_441178" data-name="Path 441178" d="M280.163,274.55v-7.129H277.75v.652h1.68v6.477Z" transform="translate(-225.302 -214.156)"/>
          <path id="Path_441179" data-name="Path 441179" d="M285.675,274.6c1.65,0,2.851-1.354,2.851-3.625s-1.2-3.626-2.851-3.626-2.841,1.354-2.841,3.626S284.026,274.6,285.675,274.6Zm0-6.579c1.243,0,2.1,1.048,2.1,2.954s-.855,2.953-2.1,2.953-2.1-1.048-2.1-2.953S284.433,268.017,285.675,268.017Z" transform="translate(-226.273 -214.141)"/>
          <path id="Path_441180" data-name="Path 441180" d="M293.01,267.421H290.6v.652h1.68v6.477h.733Z" transform="translate(-227.756 -214.156)"/>
          <path id="Path_441181" data-name="Path 441181" d="M298.522,274.6c1.649,0,2.851-1.354,2.851-3.625s-1.2-3.626-2.851-3.626-2.841,1.354-2.841,3.626S296.872,274.6,298.522,274.6Zm0-6.579c1.242,0,2.1,1.048,2.1,2.954s-.856,2.953-2.1,2.953-2.1-1.048-2.1-2.953S297.28,268.017,298.522,268.017Z" transform="translate(-228.727 -214.141)"/>
          <path id="Path_441182" data-name="Path 441182" d="M303.443,268.072h1.68v6.477h.733v-7.129h-2.413Z" transform="translate(-230.21 -214.156)"/>
          <path id="Path_441183" data-name="Path 441183" d="M314.22,270.971c0-2.272-1.2-3.626-2.852-3.626s-2.841,1.354-2.841,3.626,1.192,3.625,2.841,3.625S314.22,273.242,314.22,270.971Zm-2.852,2.953c-1.243,0-2.1-1.048-2.1-2.953s.855-2.954,2.1-2.954,2.1,1.048,2.1,2.954S312.611,273.924,311.368,273.924Z" transform="translate(-231.181 -214.141)"/>
          <path id="Path_441184" data-name="Path 441184" d="M316.29,268.072h1.68v6.477h.733v-7.129H316.29Z" transform="translate(-232.664 -214.156)"/>
          <path id="Path_441185" data-name="Path 441185" d="M324.215,267.345c-1.65,0-2.841,1.354-2.841,3.626s1.191,3.625,2.841,3.625a2.623,2.623,0,0,0,1.234-.3c.122-.42.248-.837.358-1.262a1.827,1.827,0,0,1-1.592.894c-1.243,0-2.1-1.048-2.1-2.953s.855-2.954,2.1-2.954c1.222,0,2.065,1.019,2.093,2.865.132-.631.245-1.268.352-1.908A2.63,2.63,0,0,0,324.215,267.345Z" transform="translate(-233.635 -214.141)"/>
          <path id="Path_441186" data-name="Path 441186" d="M228.149,295.178c0-2.272-1.2-3.626-2.852-3.626a2.577,2.577,0,0,0-2.28,1.332c.155.221.31.443.469.66a1.909,1.909,0,0,1,1.811-1.319c1.243,0,2.1,1.048,2.1,2.954a3.463,3.463,0,0,1-.694,2.31c.157.173.324.337.484.508A3.98,3.98,0,0,0,228.149,295.178Z" transform="translate(-214.846 -218.765)"/>
          <path id="Path_441187" data-name="Path 441187" d="M231.768,298.757h.733v-7.129h-2.413v.652h1.68Z" transform="translate(-216.197 -218.78)"/>
          <path id="Path_441188" data-name="Path 441188" d="M234.63,292.279h1.68v6.477h.733v-7.129H234.63Z" transform="translate(-217.065 -218.78)"/>
          <path id="Path_441189" data-name="Path 441189" d="M239.172,292.279h1.68v6.477h.733v-7.129h-2.413Z" transform="translate(-217.932 -218.78)"/>
          <path id="Path_441190" data-name="Path 441190" d="M243.714,292.279h1.68v6.477h.733v-7.129h-2.413Z" transform="translate(-218.8 -218.78)"/>
          <path id="Path_441191" data-name="Path 441191" d="M251.639,291.552c-1.65,0-2.841,1.354-2.841,3.626s1.191,3.625,2.841,3.625,2.851-1.354,2.851-3.625S253.289,291.552,251.639,291.552Zm0,6.579c-1.243,0-2.1-1.048-2.1-2.953s.855-2.954,2.1-2.954,2.1,1.048,2.1,2.954S252.881,298.131,251.639,298.131Z" transform="translate(-219.771 -218.765)"/>
          <path id="Path_441192" data-name="Path 441192" d="M259.969,291.552c-1.65,0-2.842,1.354-2.842,3.626s1.192,3.625,2.842,3.625,2.851-1.354,2.851-3.625S261.618,291.552,259.969,291.552Zm0,6.579c-1.243,0-2.1-1.048-2.1-2.953s.855-2.954,2.1-2.954,2.1,1.048,2.1,2.954S261.211,298.131,259.969,298.131Z" transform="translate(-221.362 -218.765)"/>
          <path id="Path_441193" data-name="Path 441193" d="M268.3,291.552c-1.649,0-2.841,1.354-2.841,3.626s1.192,3.625,2.841,3.625,2.852-1.354,2.852-3.625S269.948,291.552,268.3,291.552Zm0,6.579c-1.243,0-2.1-1.048-2.1-2.953s.855-2.954,2.1-2.954,2.1,1.048,2.1,2.954S269.541,298.131,268.3,298.131Z" transform="translate(-222.954 -218.765)"/>
          <path id="Path_441194" data-name="Path 441194" d="M273.22,292.279h1.68v6.477h.733v-7.129H273.22Z" transform="translate(-224.436 -218.78)"/>
          <path id="Path_441195" data-name="Path 441195" d="M277.763,292.279h1.68v6.477h.733v-7.129h-2.413Z" transform="translate(-225.304 -218.78)"/>
          <path id="Path_441196" data-name="Path 441196" d="M285.687,291.552c-1.65,0-2.841,1.354-2.841,3.626s1.192,3.625,2.841,3.625,2.852-1.354,2.852-3.625S287.337,291.552,285.687,291.552Zm0,6.579c-1.243,0-2.1-1.048-2.1-2.953s.855-2.954,2.1-2.954,2.1,1.048,2.1,2.954S286.93,298.131,285.687,298.131Z" transform="translate(-226.275 -218.765)"/>
          <path id="Path_441197" data-name="Path 441197" d="M290.609,292.279h1.68v6.477h.733v-7.129h-2.414Z" transform="translate(-227.758 -218.78)"/>
          <path id="Path_441198" data-name="Path 441198" d="M298.534,291.552c-1.65,0-2.841,1.354-2.841,3.626s1.191,3.625,2.841,3.625,2.851-1.354,2.851-3.625S300.184,291.552,298.534,291.552Zm0,6.579c-1.243,0-2.1-1.048-2.1-2.953s.855-2.954,2.1-2.954,2.1,1.048,2.1,2.954S299.776,298.131,298.534,298.131Z" transform="translate(-228.729 -218.765)"/>
          <path id="Path_441199" data-name="Path 441199" d="M303.456,292.279h1.68v6.477h.733v-7.129h-2.413Z" transform="translate(-230.212 -218.78)"/>
          <path id="Path_441200" data-name="Path 441200" d="M311.381,291.552c-1.65,0-2.841,1.354-2.841,3.626,0,2.253,1.173,3.6,2.8,3.621.266-.27.526-.548.786-.824a1.881,1.881,0,0,1-.747.156c-1.243,0-2.1-1.048-2.1-2.953s.855-2.954,2.1-2.954,2.1,1.048,2.1,2.954a4.331,4.331,0,0,1-.279,1.615c.337-.386.677-.77,1-1.167.011-.149.031-.291.031-.448C314.233,292.906,313.031,291.552,311.381,291.552Z" transform="translate(-231.183 -218.765)"/>
          <path id="Path_441201" data-name="Path 441201" d="M316.3,292.279h1.68v.3q.328-.474.646-.956H316.3Z" transform="translate(-232.666 -218.78)"/>
          <path id="Path_441202" data-name="Path 441202" d="M219.666,279.524h-2.413v.652h1.68v5.609c.158.293.326.578.489.867h.243Z" transform="translate(-213.745 -216.468)"/>
          <path id="Path_441203" data-name="Path 441203" d="M225.178,279.449c-1.65,0-2.841,1.354-2.841,3.625s1.191,3.626,2.841,3.626,2.851-1.354,2.851-3.626S226.828,279.449,225.178,279.449Zm0,6.579c-1.243,0-2.1-1.048-2.1-2.954s.855-2.953,2.1-2.953,2.1,1.048,2.1,2.953S226.421,286.028,225.178,286.028Z" transform="translate(-214.716 -216.453)"/>
          <path id="Path_441204" data-name="Path 441204" d="M230.1,280.176h1.68v6.477h.733v-7.129H230.1Z" transform="translate(-216.199 -216.468)"/>
          <path id="Path_441205" data-name="Path 441205" d="M238.025,279.449c-1.65,0-2.842,1.354-2.842,3.625s1.192,3.626,2.842,3.626,2.851-1.354,2.851-3.626S239.674,279.449,238.025,279.449Zm0,6.579c-1.243,0-2.1-1.048-2.1-2.954s.855-2.953,2.1-2.953,2.1,1.048,2.1,2.953S239.267,286.028,238.025,286.028Z" transform="translate(-217.17 -216.453)"/>
          <path id="Path_441206" data-name="Path 441206" d="M244.627,286.653h.733v-7.129h-2.413v.652h1.68Z" transform="translate(-218.653 -216.468)"/>
          <path id="Path_441207" data-name="Path 441207" d="M247.489,280.176h1.68v6.477h.733v-7.129h-2.413Z" transform="translate(-219.521 -216.468)"/>
          <path id="Path_441208" data-name="Path 441208" d="M258.265,283.074c0-2.271-1.2-3.625-2.851-3.625s-2.841,1.354-2.841,3.625,1.191,3.626,2.841,3.626S258.265,285.346,258.265,283.074Zm-2.851,2.954c-1.243,0-2.1-1.048-2.1-2.954s.855-2.953,2.1-2.953,2.1,1.048,2.1,2.953S256.656,286.028,255.414,286.028Z" transform="translate(-220.492 -216.453)"/>
          <path id="Path_441209" data-name="Path 441209" d="M262.749,286.653v-7.129h-2.413v.652h1.68v6.477Z" transform="translate(-221.975 -216.468)"/>
          <path id="Path_441210" data-name="Path 441210" d="M268.261,286.7c1.649,0,2.851-1.354,2.851-3.626s-1.2-3.625-2.851-3.625-2.842,1.354-2.842,3.625S266.611,286.7,268.261,286.7Zm0-6.579c1.242,0,2.1,1.048,2.1,2.953s-.856,2.954-2.1,2.954-2.1-1.048-2.1-2.954S267.018,280.121,268.261,280.121Z" transform="translate(-222.946 -216.453)"/>
          <path id="Path_441211" data-name="Path 441211" d="M276.59,279.449c-1.65,0-2.841,1.354-2.841,3.625s1.191,3.626,2.841,3.626,2.851-1.354,2.851-3.626S278.24,279.449,276.59,279.449Zm0,6.579c-1.243,0-2.1-1.048-2.1-2.954s.855-2.953,2.1-2.953,2.1,1.048,2.1,2.953S277.833,286.028,276.59,286.028Z" transform="translate(-224.537 -216.453)"/>
          <path id="Path_441212" data-name="Path 441212" d="M284.92,286.7c1.65,0,2.851-1.354,2.851-3.626s-1.2-3.625-2.851-3.625-2.842,1.354-2.842,3.625S283.27,286.7,284.92,286.7Zm0-6.579c1.242,0,2.1,1.048,2.1,2.953s-.856,2.954-2.1,2.954-2.1-1.048-2.1-2.954S283.677,280.121,284.92,280.121Z" transform="translate(-226.129 -216.453)"/>
          <path id="Path_441213" data-name="Path 441213" d="M292.255,286.653v-7.129h-2.413v.652h1.68v6.477Z" transform="translate(-227.612 -216.468)"/>
          <path id="Path_441214" data-name="Path 441214" d="M296.064,286.653h.733v-7.129h-2.413v.652h1.68Z" transform="translate(-228.479 -216.468)"/>
          <path id="Path_441215" data-name="Path 441215" d="M302.309,279.449c-1.65,0-2.841,1.354-2.841,3.625s1.191,3.626,2.841,3.626,2.851-1.354,2.851-3.626S303.959,279.449,302.309,279.449Zm0,6.579c-1.243,0-2.1-1.048-2.1-2.954s.855-2.953,2.1-2.953,2.1,1.048,2.1,2.953S303.551,286.028,302.309,286.028Z" transform="translate(-229.45 -216.453)"/>
          <path id="Path_441216" data-name="Path 441216" d="M308.911,286.653h.733v-7.129H307.23v.652h1.68Z" transform="translate(-230.933 -216.468)"/>
          <path id="Path_441217" data-name="Path 441217" d="M315.156,279.449c-1.65,0-2.842,1.354-2.842,3.625s1.192,3.626,2.842,3.626,2.851-1.354,2.851-3.626S316.8,279.449,315.156,279.449Zm0,6.579c-1.243,0-2.1-1.048-2.1-2.954s.855-2.953,2.1-2.953,2.1,1.048,2.1,2.953S316.4,286.028,315.156,286.028Z" transform="translate(-231.904 -216.453)"/>
          <path id="Path_441218" data-name="Path 441218" d="M320.077,279.524v.652h1.681v5.035c.249-.48.5-.959.733-1.448v-4.239Z" transform="translate(-233.387 -216.468)"/>
          <path id="Path_441219" data-name="Path 441219" d="M232.565,303.732c.133.115.265.232.4.345v-.345Z" transform="translate(-216.67 -221.092)"/>
          <path id="Path_441220" data-name="Path 441220" d="M234.617,303.732v.652h1.68v1.982c.243.175.486.351.733.522v-3.156Z" transform="translate(-217.062 -221.092)"/>
          <path id="Path_441221" data-name="Path 441221" d="M239.159,303.732v.652h1.681v4.37q.364.214.733.421v-5.444Z" transform="translate(-217.93 -221.092)"/>
          <path id="Path_441222" data-name="Path 441222" d="M246.115,303.732H243.7v.652h1.68V310.7c.121.057.243.109.364.165h.369Z" transform="translate(-218.798 -221.092)"/>
          <path id="Path_441223" data-name="Path 441223" d="M251.627,303.657c-1.65,0-2.842,1.354-2.842,3.625s1.192,3.626,2.842,3.626,2.851-1.354,2.851-3.626S253.276,303.657,251.627,303.657Zm0,6.579c-1.243,0-2.1-1.048-2.1-2.954s.856-2.953,2.1-2.953,2.1,1.048,2.1,2.953S252.869,310.236,251.627,310.236Z" transform="translate(-219.769 -221.078)"/>
          <path id="Path_441224" data-name="Path 441224" d="M259.956,303.657c-1.65,0-2.841,1.354-2.841,3.625s1.192,3.626,2.841,3.626,2.852-1.354,2.852-3.626S261.606,303.657,259.956,303.657Zm0,6.579c-1.243,0-2.1-1.048-2.1-2.954s.855-2.953,2.1-2.953,2.1,1.048,2.1,2.953S261.2,310.236,259.956,310.236Z" transform="translate(-221.36 -221.078)"/>
          <path id="Path_441225" data-name="Path 441225" d="M268.286,303.657c-1.65,0-2.841,1.354-2.841,3.625s1.191,3.626,2.841,3.626,2.851-1.354,2.851-3.626S269.936,303.657,268.286,303.657Zm0,6.579c-1.243,0-2.1-1.048-2.1-2.954s.855-2.953,2.1-2.953,2.1,1.048,2.1,2.953S269.529,310.236,268.286,310.236Z" transform="translate(-222.951 -221.078)"/>
          <path id="Path_441226" data-name="Path 441226" d="M274.888,310.861h.733v-7.129h-2.413v.652h1.68Z" transform="translate(-224.434 -221.092)"/>
          <path id="Path_441227" data-name="Path 441227" d="M277.75,304.384h1.68v6.477h.733v-7.129H277.75Z" transform="translate(-225.302 -221.092)"/>
          <path id="Path_441228" data-name="Path 441228" d="M285.675,303.657c-1.649,0-2.841,1.354-2.841,3.625s1.192,3.626,2.841,3.626,2.851-1.354,2.851-3.626S287.325,303.657,285.675,303.657Zm0,6.579c-1.243,0-2.1-1.048-2.1-2.954s.855-2.953,2.1-2.953,2.1,1.048,2.1,2.953S286.918,310.236,285.675,310.236Z" transform="translate(-226.273 -221.078)"/>
          <path id="Path_441229" data-name="Path 441229" d="M290.6,304.384h1.68v6.477h.733v-7.129H290.6Z" transform="translate(-227.756 -221.092)"/>
          <path id="Path_441230" data-name="Path 441230" d="M298.522,303.657c-1.65,0-2.841,1.354-2.841,3.625a4.009,4.009,0,0,0,.938,2.8c.216-.109.432-.218.646-.33a3.269,3.269,0,0,1-.841-2.47c0-1.9.856-2.953,2.1-2.953s2.1,1.048,2.1,2.953a5.334,5.334,0,0,1-.032.536c.261-.166.525-.33.782-.5,0-.012,0-.023,0-.035C301.373,305.011,300.172,303.657,298.522,303.657Z" transform="translate(-228.727 -221.078)"/>
          <path id="Path_441231" data-name="Path 441231" d="M303.443,303.732v.652h1.68v1.343c.248-.187.489-.384.734-.576v-1.419Z" transform="translate(-230.21 -221.092)"/>
          <path id="Path_441232" data-name="Path 441232" d="M255.316,315.831q1.161.314,2.344.572a2.558,2.558,0,0,0-1.722-.644A2.735,2.735,0,0,0,255.316,315.831Z" transform="translate(-221.016 -223.39)"/>
          <path id="Path_441233" data-name="Path 441233" d="M260.335,315.835v.652h1.68v.533c.243.035.489.063.734.094v-1.279Z" transform="translate(-221.975 -223.404)"/>
          <path id="Path_441234" data-name="Path 441234" d="M268.363,315.759a2.608,2.608,0,0,0-2.408,1.556c.262.021.523.044.787.06a1.869,1.869,0,0,1,3.3.091c.265,0,.528-.014.794-.019A2.641,2.641,0,0,0,268.363,315.759Z" transform="translate(-223.049 -223.39)"/>
          <path id="Path_441235" data-name="Path 441235" d="M276.687,315.759a2.615,2.615,0,0,0-2.43,1.611c.284-.018.566-.041.849-.064a1.826,1.826,0,0,1,1.581-.875,1.8,1.8,0,0,1,1.323.556c.273-.04.544-.08.815-.124A2.566,2.566,0,0,0,276.687,315.759Z" transform="translate(-224.635 -223.39)"/>
          <path id="Path_441236" data-name="Path 441236" d="M283.682,316.258c.623-.144,1.242-.3,1.854-.466a2.771,2.771,0,0,0-.31-.033A2.566,2.566,0,0,0,283.682,316.258Z" transform="translate(-226.435 -223.39)"/>
        </g>
        <g id="Group_185088" data-name="Group 185088" transform="translate(39.062 27.976)">
          <path id="Path_441237" data-name="Path 441237" d="M240.764,173.269V174H236.5v-5.876h4.147v.731H237.34v1.8h2.946v.714H237.34v1.9Z" transform="translate(-236.501 -168.057)" fill="#fff"/>
          <path id="Path_441238" data-name="Path 441238" d="M248.506,168.124V174h-.688l-3.526-4.381V174h-.839v-5.876h.688l3.526,4.381v-4.381Z" transform="translate(-237.829 -168.057)" fill="#fff"/>
          <path id="Path_441239" data-name="Path 441239" d="M251.287,171.046a2.972,2.972,0,0,1,3.115-3.005,2.9,2.9,0,0,1,2.232.915l-.545.529a2.175,2.175,0,0,0-1.654-.7,2.259,2.259,0,1,0,0,4.516,2.183,2.183,0,0,0,1.654-.705l.545.529a2.914,2.914,0,0,1-2.24.923A2.97,2.97,0,0,1,251.287,171.046Z" transform="translate(-239.326 -168.041)" fill="#fff"/>
          <path id="Path_441240" data-name="Path 441240" d="M263.308,174l-1.268-1.8c-.117.009-.243.017-.369.017H260.22V174h-.84v-5.876h2.292c1.528,0,2.451.773,2.451,2.048a1.854,1.854,0,0,1-1.293,1.855L264.224,174Zm-.024-3.827c0-.84-.563-1.318-1.637-1.318H260.22V171.5h1.427C262.721,171.5,263.284,171.011,263.284,170.172Z" transform="translate(-240.871 -168.057)" fill="#fff"/>
          <path id="Path_441241" data-name="Path 441241" d="M268.854,171.968V174h-.831v-2.048l-2.334-3.827h.9l1.88,3.1,1.889-3.1h.831Z" transform="translate(-242.077 -168.057)" fill="#fff"/>
          <path id="Path_441242" data-name="Path 441242" d="M278.152,170.172c0,1.276-.924,2.048-2.451,2.048h-1.452V174h-.84v-5.876H275.7C277.228,168.124,278.152,168.9,278.152,170.172Zm-.84,0c0-.84-.562-1.318-1.637-1.318h-1.427v2.636h1.427C276.75,171.49,277.312,171.011,277.312,170.172Z" transform="translate(-243.551 -168.057)" fill="#fff"/>
          <path id="Path_441243" data-name="Path 441243" d="M281.535,168.855h-2.014v-.731h4.86v.731h-2.014V174h-.831Z" transform="translate(-244.719 -168.057)" fill="#fff"/>
          <path id="Path_441244" data-name="Path 441244" d="M286.659,168.124h.84V174h-.84Z" transform="translate(-246.082 -168.057)" fill="#fff"/>
          <path id="Path_441245" data-name="Path 441245" d="M289.285,171.046a3.125,3.125,0,1,1,3.131,3A2.986,2.986,0,0,1,289.285,171.046Zm5.406,0a2.283,2.283,0,1,0-2.275,2.258A2.207,2.207,0,0,0,294.691,171.046Z" transform="translate(-246.584 -168.041)" fill="#fff"/>
          <path id="Path_441246" data-name="Path 441246" d="M303.646,168.124V174h-.688l-3.526-4.381V174h-.84v-5.876h.688l3.526,4.381v-4.381Z" transform="translate(-248.362 -168.057)" fill="#fff"/>
        </g>
        <g id="Group_185089" data-name="Group 185089" transform="translate(46.675 74.055)">
          <path id="Path_441247" data-name="Path 441247" d="M255.39,246.682v-9.321A12.361,12.361,0,0,1,267.751,225h0a12.361,12.361,0,0,1,12.361,12.361v9.321" transform="translate(-247.723 -225)" fill="none" stroke="#fff" stroke-miterlimit="10" stroke-width="4"/>
          <path id="Path_441248" data-name="Path 441248" d="M285.968,249.286l-20.028-5.908-20.029,5.908v11.72a23.359,23.359,0,0,0,15.2,21.888l4.825,1.8,4.825-1.8a23.358,23.358,0,0,0,15.2-21.888Z" transform="translate(-245.912 -228.511)" fill="#407bff"/>
          <path id="Path_441249" data-name="Path 441249" d="M262.536,281.216A21.021,21.021,0,0,1,248.912,261.6V251.7l17.6-5.192,17.6,5.192V261.6a21.02,21.02,0,0,1-13.624,19.614l-3.977,1.483Z" transform="translate(-246.485 -229.108)" opacity="0.2" style="isolation: isolate"/>
          <path id="Path_441250" data-name="Path 441250" d="M272.992,262.952a3.04,3.04,0,1,0-4.383,2.715l-.587,5.686h3.858l-.586-5.686A3.03,3.03,0,0,0,272.992,262.952Z" transform="translate(-249.924 -231.669)" fill="#263238"/>
        </g>
        <g id="Group_185090" data-name="Group 185090" transform="translate(10.276 25.418)">
          <path id="Path_441251" data-name="Path 441251" d="M338.88,170.741v-1.633h-1.438a3.667,3.667,0,0,0-.482-1.155l1.019-1.019-1.154-1.154-1.018,1.019a3.671,3.671,0,0,0-1.156-.482v-1.438h-1.633v1.438a3.652,3.652,0,0,0-1.156.482l-1.018-1.019-1.154,1.154,1.019,1.018a3.66,3.66,0,0,0-.482,1.156h-1.438v1.633h1.438a3.645,3.645,0,0,0,.482,1.156l-1.019,1.018,1.154,1.154,1.018-1.018a3.689,3.689,0,0,0,1.156.482v1.438h1.633v-1.438a3.669,3.669,0,0,0,1.156-.481l1.018,1.018,1.154-1.154L336.96,171.9a3.671,3.671,0,0,0,.482-1.156Zm-5.046.692a1.509,1.509,0,1,1,1.509-1.509A1.509,1.509,0,0,1,333.835,171.433Z" transform="translate(-225.345 -164.879)" fill="#fff"/>
          <path id="Path_441252" data-name="Path 441252" d="M206.374,165.614l-5.456,5.184H202.6v3.719h7.542V170.8h1.685Z" transform="translate(-200.918 -165.019)" fill="#fff"/>
        </g>
        <g id="Group_185091" data-name="Group 185091" transform="translate(20.452 162.257)">
          <path id="Path_441253" data-name="Path 441253" d="M301.57,334.03H217.927a4.43,4.43,0,1,0,0,8.859H301.57a4.43,4.43,0,1,0,0-8.859Z" transform="translate(-213.497 -334.03)" fill="#407bff" opacity="0.3"/>
          <path id="Path_441254" data-name="Path 441254" d="M276.555,335H218.212a3.646,3.646,0,1,0,0,7.293h58.343a3.646,3.646,0,1,0,0-7.293Z" transform="translate(-213.701 -334.215)" fill="#407bff"/>
        </g>
      </g>
    </g>
    <g id="Plant" transform="translate(290.189 241.601)">
      <g id="Group_185093" data-name="Group 185093">
        <path id="Path_441255" data-name="Path 441255" d="M386.83,376.936s4.26-20.131-3.5-31.036,7.012-.125,8.711,10.082c0,0,2.546-18.252-4.98-31.094s6.555-2.3,7.751,10.934c0,0,2.306-16.284-1.152-25.434s2.558-3.267,4.87,2.47-.722,19.94-.722,19.94,6.035-26.264,11.748-24.174-8.541,19.3-10.518,28.249c0,0,6.736-12.046,11.847-9.539s-7.915,3.755-13.879,21.718l-2.1,8.422s6.2-11.889,10.251-8.138-12.016,10.224-15.751,28.243Z" transform="translate(-362.988 -289.488)" fill="#263238"/>
        <path id="Path_441256" data-name="Path 441256" d="M385.484,374.282s.9-25.382,13.437-36.131-8.361-2.24-13.437,9.48c0,0,2.389-22.619,15.229-35.758s-7.167-4.7-12.542,10.787c0,0,2.09-20.19,8.959-30.121s-2.09-4.674-6.57,1.507-5.076,24.1-5.076,24.1.6-33.255-6.868-32.454,4.479,25.659,4.181,36.97c0,0-4.479-16.436-11.347-14.955s8.362,6.855,10.153,30.147v10.712s-3.881-16.086-9.854-12.8,11.347,15.826,10.452,38.52Z" transform="translate(-360.807 -285.675)" fill="#263238"/>
        <path id="Path_441257" data-name="Path 441257" d="M385.484,374.282s.9-25.382,13.437-36.131-8.361-2.24-13.437,9.48c0,0,2.389-22.619,15.229-35.758s-7.167-4.7-12.542,10.787c0,0,2.09-20.19,8.959-30.121s-2.09-4.674-6.57,1.507-5.076,24.1-5.076,24.1.6-33.255-6.868-32.454,4.479,25.659,4.181,36.97c0,0-4.479-16.436-11.347-14.955s8.362,6.855,10.153,30.147v10.712s-3.881-16.086-9.854-12.8,11.347,15.826,10.452,38.52Z" transform="translate(-360.807 -285.675)" fill="#fff" opacity="0.2" style="isolation: isolate"/>
        <path id="Rectangle_21161" data-name="Rectangle 21161" d="M10.994,0H25.879A10.994,10.994,0,0,1,36.874,10.994v1.882a0,0,0,0,1,0,0H0a0,0,0,0,1,0,0V10.994A10.994,10.994,0,0,1,10.994,0Z" transform="translate(41.702 106.471) rotate(180)" fill="#407bff"/>
        <rect id="Rectangle_21162" data-name="Rectangle 21162" width="46.531" height="11.53" rx="4.211" transform="translate(46.531 97.691) rotate(180)" fill="#407bff"/>
        <rect id="Rectangle_21163" data-name="Rectangle 21163" width="46.531" height="11.53" rx="4.211" transform="translate(46.531 97.691) rotate(180)" fill="#fff" opacity="0.2" style="isolation: isolate"/>
      </g>
    </g>
    <g id="Bubble_speech" data-name="Bubble speech" transform="translate(64.457 100.018)">
      <g id="Group_185095" data-name="Group 185095" transform="translate(0 0)">
        <path id="Path_441258" data-name="Path 441258" d="M111.793,110.659H82.31a2.632,2.632,0,0,0-2.632,2.632V142.1a2.633,2.633,0,0,0,2.632,2.632H98.393l9.309,6.791-4.232-6.791h8.323a2.633,2.633,0,0,0,2.632-2.632V113.291A2.632,2.632,0,0,0,111.793,110.659Z" transform="translate(-79.678 -110.659)" fill="#407bff"/>
        <g id="Group_185094" data-name="Group 185094" transform="translate(8.569 5.733)">
          <path id="Path_441259" data-name="Path 441259" d="M93.281,139.887c.67-5.55,4.423-9.573,6.371-8.429,2.057,1.208-3.295,4.683-3.813,10.3" transform="translate(-90.845 -120.328)" fill="none" stroke="#fff" stroke-linecap="round" stroke-linejoin="round" stroke-width="0.5"/>
          <path id="Path_441260" data-name="Path 441260" d="M92.241,138.54c.774-5.327,4.721-10.658,8.155-8.466,3.61,2.3-3.291,5.841-3.716,11.774" transform="translate(-90.647 -120.004)" fill="none" stroke="#fff" stroke-linecap="round" stroke-linejoin="round" stroke-width="0.5"/>
          <path id="Path_441261" data-name="Path 441261" d="M94.306,141.086c.463-3.67,2.848-7.56,3.979-7.549,1.182.011-2.7,3.577-3.07,8.2" transform="translate(-91.041 -120.763)" fill="none" stroke="#fff" stroke-linecap="round" stroke-linejoin="round" stroke-width="0.5"/>
          <path id="Path_441262" data-name="Path 441262" d="M91.211,136.709c1.166-6.189,6.682-10.877,10.032-8.332,4.368,3.32-3.06,8-3.354,13.448" transform="translate(-90.45 -119.642)" fill="none" stroke="#fff" stroke-linecap="round" stroke-linejoin="round" stroke-width="0.5"/>
          <path id="Path_441263" data-name="Path 441263" d="M102.045,142.844c-.825-2.18.745-5.416,2.681-8.256a4.819,4.819,0,0,1,5.36-1.742" transform="translate(-92.476 -120.593)" fill="none" stroke="#fff" stroke-linecap="round" stroke-linejoin="round" stroke-width="0.5"/>
          <path id="Path_441264" data-name="Path 441264" d="M104.307,142.755c-1.527-2.184.051-5.808,2.471-7.76a3.21,3.21,0,0,1,3.665-.488" transform="translate(-92.836 -120.878)" fill="none" stroke="#fff" stroke-linecap="round" stroke-linejoin="round" stroke-width="0.5"/>
          <path id="Path_441265" data-name="Path 441265" d="M105.843,142.648c-1.259-2.285.93-5.706,2.478-6.363a2.529,2.529,0,0,1,2.289.189" transform="translate(-93.173 -121.25)" fill="none" stroke="#fff" stroke-linecap="round" stroke-linejoin="round" stroke-width="0.5"/>
          <path id="Path_441266" data-name="Path 441266" d="M107.7,142.043c-.669-.74-.581-2.112.6-3.433a1.665,1.665,0,0,1,2.281-.459" transform="translate(-93.52 -121.592)" fill="none" stroke="#fff" stroke-linecap="round" stroke-linejoin="round" stroke-width="0.5"/>
          <path id="Path_441267" data-name="Path 441267" d="M109.1,141.439a1.08,1.08,0,0,1,1.153-1.552" transform="translate(-93.84 -121.97)" fill="none" stroke="#fff" stroke-linecap="round" stroke-linejoin="round" stroke-width="0.5"/>
          <path id="Path_441268" data-name="Path 441268" d="M90.374,132.511v0a10.834,10.834,0,0,1,4.043-6.051c3.224-2.42,5.214-2.5,6.666-4.12a3.785,3.785,0,0,0,.589-4.153" transform="translate(-90.29 -117.829)" fill="none" stroke="#fff" stroke-linecap="round" stroke-linejoin="round" stroke-width="0.5"/>
          <path id="Path_441269" data-name="Path 441269" d="M99.775,117.746a2.492,2.492,0,0,1,.648,2.34c-.69,3.358-7.848,4.165-10.153,8.756" transform="translate(-90.27 -117.746)" fill="none" stroke="#fff" stroke-linecap="round" stroke-linejoin="round" stroke-width="0.5"/>
          <path id="Path_441270" data-name="Path 441270" d="M97.705,117.839a1.53,1.53,0,0,1,.93,1.641c-.459,2.819-6.287,4.069-8.365,7.385" transform="translate(-90.27 -117.764)" fill="none" stroke="#fff" stroke-linecap="round" stroke-linejoin="round" stroke-width="0.5"/>
          <path id="Path_441271" data-name="Path 441271" d="M95.949,118.432a1.1,1.1,0,0,1,.631,1.162c-.189,1.91-4.182,3.114-6.139,5.5" transform="translate(-90.303 -117.877)" fill="none" stroke="#fff" stroke-linecap="round" stroke-linejoin="round" stroke-width="0.5"/>
          <path id="Path_441272" data-name="Path 441272" d="M94.368,119.608a1.041,1.041,0,0,1,.282.875c-.088.681-1.713,1.027-3.017,2.124" transform="translate(-90.53 -118.102)" fill="none" stroke="#fff" stroke-linecap="round" stroke-linejoin="round" stroke-width="0.5"/>
          <path id="Path_441273" data-name="Path 441273" d="M106.526,119.353v0a4.036,4.036,0,0,1-.476,2.659c-.866,1.49-1.548,2.664-.816,4.288.678,1.493,2.5,2.777,5.445,2.727" transform="translate(-93.069 -118.053)" fill="none" stroke="#fff" stroke-linecap="round" stroke-linejoin="round" stroke-width="0.5"/>
          <path id="Path_441274" data-name="Path 441274" d="M108.808,121.236a5.067,5.067,0,0,1-1.057,2.537c-1.153,1.494-.2,4.381,3.379,4.061" transform="translate(-93.521 -118.413)" fill="none" stroke="#fff" stroke-linecap="round" stroke-linejoin="round" stroke-width="0.5"/>
          <path id="Path_441275" data-name="Path 441275" d="M110.323,123.207c-.5.594-1.153,1.258-1.216,1.877-.109,1.086.555,2.175,2.34,1.814" transform="translate(-93.866 -118.789)" fill="none" stroke="#fff" stroke-linecap="round" stroke-linejoin="round" stroke-width="0.5"/>
          <path id="Path_441276" data-name="Path 441276" d="M111.7,126.029c-.383-.135-.371-.463-.218-.8" transform="translate(-94.304 -119.175)" fill="none" stroke="#fff" stroke-linecap="round" stroke-linejoin="round" stroke-width="0.5"/>
          <path id="Path_441277" data-name="Path 441277" d="M101.98,126.113a5.284,5.284,0,0,0,1.319-.792,3.778,3.778,0,0,0,.075,1.387A2.462,2.462,0,0,0,101.98,126.113Z" transform="translate(-92.507 -119.193)" fill="#fff"/>
          <path id="Path_441278" data-name="Path 441278" d="M106.344,131.014a1.863,1.863,0,0,1-.111,1.11,5.658,5.658,0,0,1,1.248-.555A3.533,3.533,0,0,1,106.344,131.014Z" transform="translate(-93.319 -120.281)" fill="#fff"/>
        </g>
      </g>
    </g>
    <g id="Character" transform="translate(82.784 137.269)">
      <g id="Group_185102" data-name="Group 185102" transform="translate(0 0)">
        <path id="Path_441279" data-name="Path 441279" d="M119.236,204.717c-.888,3.163,3.379,14.972,10.74,14.866S120.444,200.412,119.236,204.717Z" transform="translate(-105.539 -165.757)" fill="#ebb376"/>
        <path id="Path_441280" data-name="Path 441280" d="M119.236,204.717c-.888,3.163,3.379,14.972,10.74,14.866S120.444,200.412,119.236,204.717Z" transform="translate(-105.539 -165.757)" opacity="0.2" style="isolation: isolate"/>
        <path id="Path_441281" data-name="Path 441281" d="M150.422,193.773a19.362,19.362,0,0,0,2.612-2.469c.474-.745,5.166-1.045,5.85-.943s-.253,3.949-.416,4.472-4.637,1.483-5.235,1.308A17.706,17.706,0,0,1,150.422,193.773Z" transform="translate(-111.518 -163.132)" fill="#ebb376"/>
        <path id="Path_441282" data-name="Path 441282" d="M150.422,193.773a19.362,19.362,0,0,0,2.612-2.469c.474-.745,5.166-1.045,5.85-.943s-.253,3.949-.416,4.472-4.637,1.483-5.235,1.308A17.706,17.706,0,0,1,150.422,193.773Z" transform="translate(-111.518 -163.132)" opacity="0.2" style="isolation: isolate"/>
        <path id="Path_441283" data-name="Path 441283" d="M170.582,197.606a6.706,6.706,0,0,0,.991-1.161c.125-.32-.036-6.6-.5-6.841s-4.74.52-5.1,1.12.44,6.321.48,6.641,2.292.88,2.292.88Z" transform="translate(-114.472 -162.982)" fill="#ebb376"/>
        <g id="Group_185096" data-name="Group 185096" transform="translate(48.915 21.57)">
          <path id="Path_441284" data-name="Path 441284" d="M170.338,183.792l-.522-.045-3.729-.328-.522-.046a.892.892,0,0,0-.93.711l-1.825,9.522a.7.7,0,0,0,.631.848l.522.046,3.729.328.522.046a.891.891,0,0,0,.93-.71l1.825-9.522A.7.7,0,0,0,170.338,183.792Z" transform="translate(-162.797 -183.369)" fill="#263238"/>
          <path id="Path_441285" data-name="Path 441285" d="M169.817,183.747l-4.25-.375a.892.892,0,0,0-.93.711l-1.825,9.522a.7.7,0,0,0,.631.848l4.25.374a.891.891,0,0,0,.93-.71l1.825-9.522A.7.7,0,0,0,169.817,183.747Z" transform="translate(-162.797 -183.369)" fill="#fff" opacity="0.2" style="isolation: isolate"/>
          <path id="Path_441286" data-name="Path 441286" d="M168.266,194.138l-5.051-.444,1.805-9.42,5.051.444Z" transform="translate(-162.877 -183.542)" fill="#407bff"/>
          <path id="Path_441287" data-name="Path 441287" d="M168.266,194.138l-5.051-.444,1.805-9.42,5.051.444Z" transform="translate(-162.877 -183.542)" fill="#fff" opacity="0.6" style="isolation: isolate"/>
        </g>
        <path id="Path_441288" data-name="Path 441288" d="M145.8,377.838l4.093.065c4.158-19.533,7.1-43.7,8.929-61.939.286-2.859.548-5.562.777-8.087.106-1.2.212-2.352.31-3.463.49-5.482.826-9.827,1.03-12.516.147-1.96.221-3.038.221-3.038H146.374l.138,3.766.458,12.433.049,1.421.31,8.21.515,13.977C142.771,348.347,145.8,377.838,145.8,377.838Z" transform="translate(-110.464 -181.951)" fill="#ebb376"/>
        <path id="Path_441289" data-name="Path 441289" d="M105.015,376.873l4.027.76c8.064-20.153,15.637-45.959,20.563-63.989.76-2.794,1.462-5.408,2.091-7.777.032-.122.057-.237.09-.351,1.242-4.706,2.2-8.455,2.793-10.832.458-1.863.711-2.884.711-2.884l-14.574-2.516-.825,6.126-1.217,9-.237,1.764-.825,6.135L115.4,328.764C107.05,347.292,105.015,376.873,105.015,376.873Z" transform="translate(-102.844 -182.032)" fill="#ebb376"/>
        <path id="Path_441290" data-name="Path 441290" d="M121.9,305.688l13.022,1.454c.032-.122.057-.237.09-.351,1.242-4.706,2.2-8.455,2.793-10.832l-14.688.726Z" transform="translate(-106.069 -183.307)" opacity="0.2" style="isolation: isolate"/>
        <path id="Path_441291" data-name="Path 441291" d="M146.892,293.342l.458,12.433.049,1.421,12.58,1.4c.106-1.2.212-2.352.31-3.463.49-5.482.826-9.827,1.03-12.516Z" transform="translate(-110.844 -182.668)" opacity="0.2" style="isolation: isolate"/>
        <path id="Path_441292" data-name="Path 441292" d="M157.538,412.44a8.035,8.035,0,0,0-2.561-1.392h0s-2.785-2.763-4.126-11.083l-3.647-.951a3.108,3.108,0,0,0-3.318,1.3,1.75,1.75,0,0,0-.232.479,21.17,21.17,0,0,0-.389,2.7,75.082,75.082,0,0,0-.053,9.136h.658l.262-5.736c.1-1.947,1.588.337,2.014,2.434s1.333,4.328,5.6,4.433C156.729,413.856,158.8,413.661,157.538,412.44Z" transform="translate(-110.117 -202.977)" fill="#263238"/>
        <path id="Path_441293" data-name="Path 441293" d="M143.844,399.46c-.24-1.947-.315-5.332-.315-5.332l8.1.9a15.626,15.626,0,0,0-.171,6.74C147.378,400.7,143.844,399.46,143.844,399.46Z" transform="translate(-110.201 -202.06)" fill="#263238"/>
        <path id="Path_441294" data-name="Path 441294" d="M116.783,412.44a8.043,8.043,0,0,0-2.561-1.392h0s-2.785-2.763-4.127-11.083l-3.646-.951a3.108,3.108,0,0,0-3.318,1.3,1.75,1.75,0,0,0-.232.479,21.313,21.313,0,0,0-.39,2.7,75.2,75.2,0,0,0-.052,9.136h.659l.262-5.736c.1-1.947,1.588.337,2.014,2.434s1.333,4.328,5.6,4.433C115.974,413.856,118.041,413.661,116.783,412.44Z" transform="translate(-102.332 -202.977)" fill="#263238"/>
        <path id="Path_441295" data-name="Path 441295" d="M103.089,399.46c-.24-1.947-.315-5.332-.315-5.332l8.1.9a15.626,15.626,0,0,0-.172,6.74C106.623,400.7,103.089,399.46,103.089,399.46Z" transform="translate(-102.416 -202.06)" fill="#263238"/>
        <g id="Group_185098" data-name="Group 185098" transform="translate(8.792)">
          <g id="Group_185097" data-name="Group 185097" transform="translate(33.307 18.281)">
            <path id="Path_441296" data-name="Path 441296" d="M155.3,180.518c-.116.471-.409.8-.653.742s-.347-.491-.231-.961.409-.8.653-.742S155.42,180.048,155.3,180.518Z" transform="translate(-154.372 -179.351)" fill="#263238"/>
            <path id="Path_441297" data-name="Path 441297" d="M155.106,179.508l.895-.2S155.392,180.066,155.106,179.508Z" transform="translate(-154.512 -179.304)" fill="#263238"/>
          </g>
          <path id="Path_441298" data-name="Path 441298" d="M153.55,181.9a12.449,12.449,0,0,0,.724,2.9,1.624,1.624,0,0,1-1.692.065Z" transform="translate(-120.723 -161.518)" fill="#d58745"/>
          <path id="Path_441299" data-name="Path 441299" d="M136.138,182a1.12,1.12,0,0,0,.138.2,8.921,8.921,0,0,0,2.47,2.458c2.887,1.79,5.174,2.09,7.053,1.147l.007,0c2.681-1.461,4.453-5.062,5.723-9.7a18.005,18.005,0,0,0,.814-5.647c0-.016.016-.069.014-.085-.009-.066,0-.153-.012-.219a6.554,6.554,0,0,0-3.27-5.338,13.289,13.289,0,0,0-2.584-1.217C137.661,160.492,131.07,174.626,136.138,182Z" transform="translate(-117.245 -157.939)" fill="#ebb376"/>
          <path id="Path_441300" data-name="Path 441300" d="M136.726,186.673a8.7,8.7,0,0,0,2.512,2.335c2.887,1.789,5.209,1.987,7.1,1.023a9.325,9.325,0,0,1-5.465-2.374A4.867,4.867,0,0,0,136.726,186.673Z" transform="translate(-117.694 -162.416)" opacity="0.2" style="isolation: isolate"/>
          <path id="Path_441301" data-name="Path 441301" d="M132.155,194.021c-1.4,2.338,1.514,4.478,1.514,4.478,6.122-.464,8.082-2.968,8.082-2.968-3.668-3.843-.138-9.983-.138-9.983l-1.06.138-6.791-.921s.612,3.991.584,4.844c0,.007,0,.017,0,.023C134.167,194.081,132.155,194.021,132.155,194.021Z" transform="translate(-116.748 -162.066)" fill="#ebb376"/>
          <path id="Path_441302" data-name="Path 441302" d="M151.4,169.653a9.843,9.843,0,0,1-8.425,7.045s-4.726,5.595-8.48,4.419c-5.118-1.6-7.132-10.348-2.87-17.1C137.152,155.25,151.866,159.394,151.4,169.653Z" transform="translate(-116.278 -157.191)" fill="#263238"/>
          <path id="Path_441303" data-name="Path 441303" d="M149.776,179.12c.328-.97.1-2.863-1.479-3.155-1.637-.3-3.81,3.248-.27,5.411C148.535,181.687,149.092,181.144,149.776,179.12Z" transform="translate(-119.489 -160.382)" fill="#ebb376"/>
          <path id="Path_441304" data-name="Path 441304" d="M143.083,159.182s6.439.519,8.9,4.018c2.88,4.086,3.351,7.46-2.7,10.387,0,0-8.856-6.615-12.4-7.057a37.755,37.755,0,0,0-6.236-.284C132.192,159.435,140.229,156.712,143.083,159.182Z" transform="translate(-116.534 -157.008)" fill="#263238"/>
          <path id="Path_441305" data-name="Path 441305" d="M132.988,162.467s-3.725-6.934-9.367-5.587-6.381,6.167-6.074,10.892-.625,13.423-4.347,15.086c0,0,3.5,2.318,7.233-1.708S124.8,163.717,131,165.992Z" transform="translate(-113.2 -156.706)" fill="#263238"/>
          <path id="Path_441306" data-name="Path 441306" d="M153.258,176.187a2.753,2.753,0,0,1,2.289.726" transform="translate(-120.852 -160.421)" fill="none" stroke="#263238" stroke-linecap="round" stroke-linejoin="round" stroke-width="0.725"/>
        </g>
        <path id="Path_441307" data-name="Path 441307" d="M153.076,233.041l-24.188,2.346c-1.124-17.28-9.635-32.529-9.635-32.529s-1.141-3.924,10.128-7,18.744-.55,18.744-.55c2.386,3.244,3.762,8.154,4.522,13.372.3,2.014.51,4.069.647,6.092A126.929,126.929,0,0,1,153.076,233.041Z" transform="translate(-105.558 -163.895)" fill="#407bff"/>
        <g id="Group_185101" data-name="Group 185101" transform="translate(14.425 65.945)">
          <path id="Path_441308" data-name="Path 441308" d="M154.189,242.987h0l-.485-4.764L128.1,240.8l.535,3.733h.008c-9.645,17.074-7.308,36.545-7.308,36.545l-1.171,9.573s2.42,1.5,18.642,2.559c14.265.93,17.89-.548,17.89-.548C161.744,263.028,157.41,248.924,154.189,242.987Z" transform="translate(-120.163 -238.223)" fill="#263238"/>
          <g id="Group_185100" data-name="Group 185100" transform="translate(7.635 0.692)">
            <path id="Path_441309" data-name="Path 441309" d="M148.472,243.479l11.521-.912-.153-3.489L148.215,240.3Z" transform="translate(-133.157 -239.078)" fill="#263238"/>
            <path id="Path_441310" data-name="Path 441310" d="M134.22,244.7l10.7-.847-.255-3.162-10.68,1.119Z" transform="translate(-130.439 -239.387)" fill="#263238"/>
            <path id="Path_441311" data-name="Path 441311" d="M132.32,242.182l-2.718.285.347,2.79,2.6-.206Z" transform="translate(-129.601 -239.671)" fill="#263238"/>
            <g id="Group_185099" data-name="Group 185099" opacity="0.3" style="isolation: isolate">
              <path id="Path_441312" data-name="Path 441312" d="M148.472,243.479l11.521-.912-.153-3.489L148.215,240.3Z" transform="translate(-133.157 -239.078)" fill="#fff"/>
              <path id="Path_441313" data-name="Path 441313" d="M134.22,244.7l10.7-.847-.255-3.162-10.68,1.119Z" transform="translate(-130.439 -239.387)" fill="#fff"/>
              <path id="Path_441314" data-name="Path 441314" d="M132.32,242.182l-2.718.285.347,2.79,2.6-.206Z" transform="translate(-129.601 -239.671)" fill="#fff"/>
            </g>
          </g>
        </g>
        <path id="Path_441315" data-name="Path 441315" d="M153.989,195.537s-4.425-.422-4.05,5.019c.208,3.015,2.68,8.964,5.407,9.5,1.617.316,2.371-2.264,2.371-2.264s7.543,8.391,11.318,7.3S167.648,198,167.648,198l-2.959.32s2.106,8.321,1.466,8.961S156.039,196.022,153.989,195.537Z" transform="translate(-111.422 -164.123)" fill="#ebb376"/>
        <path id="Path_441316" data-name="Path 441316" d="M160.066,217.172c-2.969-2.144-5.4-10.282-5.4-10.282l3.956,3.074s.332.445.793,1.116C159.718,213.095,159.928,215.15,160.066,217.172Z" transform="translate(-112.33 -166.293)" opacity="0.2" style="isolation: isolate"/>
      </g>
    </g>
  </g>
</svg>
