<svg xmlns="http://www.w3.org/2000/svg" width="392.634" height="301.432" viewBox="0 0 392.634 301.432">
  <g id="Group_186362" data-name="Group 186362" transform="translate(0 -58.73)">
    <g id="Background_Complete" data-name="Background Complete" transform="translate(0 58.73)">
      <g id="Group_185187" data-name="Group 185187">
        <g id="Shadow--inject-214" transform="translate(44.061 283.652)">
          <ellipse id="path--inject-214" cx="152.256" cy="8.889" rx="152.256" ry="8.889" fill="#f5f5f5"/>
        </g>
        <g id="Group_185185" data-name="Group 185185" transform="translate(31.101)">
          <path id="Path_441533" data-name="Path 441533" d="M195.708,280.8H44.081A4.483,4.483,0,0,1,39.6,276.32V63.175a4.484,4.484,0,0,1,4.476-4.445H195.708a4.484,4.484,0,0,1,4.484,4.484h0V276.32A4.484,4.484,0,0,1,195.708,280.8ZM44.081,58.887a4.288,4.288,0,0,0-4.28,4.288V276.32a4.287,4.287,0,0,0,4.28,4.288H195.708A4.3,4.3,0,0,0,200,276.32V63.175a4.3,4.3,0,0,0-4.288-4.288Z" transform="translate(-39.605 -58.73)" fill="#e6e6e6"/>
          <path id="Path_441534" data-name="Path 441534" d="M412.014,280.8H260.379a4.491,4.491,0,0,1-4.484-4.484V63.175a4.492,4.492,0,0,1,4.484-4.445H412.014a4.484,4.484,0,0,1,4.468,4.445V276.32A4.484,4.484,0,0,1,412.014,280.8ZM260.379,58.887a4.3,4.3,0,0,0-4.288,4.288V276.32a4.3,4.3,0,0,0,4.288,4.288H412.014a4.3,4.3,0,0,0,4.288-4.288V63.175a4.3,4.3,0,0,0-4.288-4.288Z" transform="translate(-86.049 -58.73)" fill="#e6e6e6"/>
        </g>
        <g id="Group_185186" data-name="Group 185186" transform="translate(35.125 260.301)">
          <rect id="Rectangle_21174" data-name="Rectangle 21174" width="32.361" height="0.196" transform="translate(0 1.571)" fill="#e0e0e0"/>
          <rect id="Rectangle_21175" data-name="Rectangle 21175" width="32.455" height="0.196" transform="translate(65.868)" fill="#e0e0e0"/>
          <rect id="Rectangle_21176" data-name="Rectangle 21176" width="7.853" height="0.196" transform="translate(132.702)" fill="#e0e0e0"/>
          <rect id="Rectangle_21177" data-name="Rectangle 21177" width="36.319" height="0.196" transform="translate(25.749 6.706)" fill="#e0e0e0"/>
          <rect id="Rectangle_21178" data-name="Rectangle 21178" width="16.962" height="0.196" transform="translate(170.725 1.468)" fill="#e0e0e0"/>
          <rect id="Rectangle_21179" data-name="Rectangle 21179" width="21.933" height="0.196" transform="translate(194.676 1.468)" fill="#e0e0e0"/>
          <rect id="Rectangle_21180" data-name="Rectangle 21180" width="49.032" height="0.196" transform="translate(273.352 4.79)" fill="#e0e0e0"/>
        </g>
        <rect id="Rectangle_21181" data-name="Rectangle 21181" width="392.634" height="0.196" transform="translate(0 254.166)" fill="#ebebeb"/>
      </g>
      <g id="Group_185209" data-name="Group 185209" transform="translate(62.263 12.625)">
        <g id="Group_185207" data-name="Group 185207">
          <g id="Group_185190" data-name="Group 185190" transform="translate(169.778)">
            <g id="Group_185188" data-name="Group 185188">
              <path id="Path_441535" data-name="Path 441535" d="M326.387,78.477l-1.958,26.915a3.853,3.853,0,0,1-1.094,2.426,3.9,3.9,0,0,1-2.832,1.244H298.914a3.392,3.392,0,0,1-3.413-3.67l1.957-26.915a4,4,0,0,1,3.926-3.67h21.589A3.377,3.377,0,0,1,326.387,78.477Z" transform="translate(-295.492 -74.807)" fill="#e0e0e0" opacity="0.8"/>
            </g>
            <g id="Group_185189" data-name="Group 185189" transform="translate(2.344 7.566)">
              <ellipse id="Ellipse_3220" data-name="Ellipse 3220" cx="7.241" cy="5.866" rx="7.241" ry="5.866" transform="translate(6.054 14.175) rotate(-78.181)" fill="#fff"/>
              <path id="Path_441536" data-name="Path 441536" d="M320.386,114.006H300.63c-1.253,0-2.12-.6-2.152-1.444-.046-1.221,6.361-6.521,12.439-6.061.022,0,.044,0,.067,0h.072a16.714,16.714,0,0,1,10.176,3.919C324.164,112.737,321.39,114.006,320.386,114.006Z" transform="translate(-298.478 -89.173)" fill="#fff"/>
            </g>
          </g>
          <g id="Group_185198" data-name="Group 185198" transform="translate(81.034 0.798)">
            <g id="Group_185191" data-name="Group 185191" transform="translate(0 17.218)">
              <path id="Path_441537" data-name="Path 441537" d="M190.758,113.008a8.319,8.319,0,0,1-8.25-7.533A7.03,7.03,0,0,1,189.5,97.75a8.321,8.321,0,0,1,8.252,7.534A7.03,7.03,0,0,1,190.758,113.008Zm-.923-11.2a3.294,3.294,0,0,0-3.277,3.619,3.9,3.9,0,0,0,3.866,3.53,3.294,3.294,0,0,0,3.278-3.619A3.9,3.9,0,0,0,189.835,101.8Z" transform="translate(-182.482 -97.749)" fill="#e0e0e0"/>
            </g>
            <g id="Group_185197" data-name="Group 185197" transform="translate(4.19)">
              <g id="Group_185192" data-name="Group 185192" transform="translate(0.036 2.06)">
                <path id="Path_441538" data-name="Path 441538" d="M192.291,97.071l-2.893.036-1.535-18.624,2.893-.036Z" transform="translate(-187.864 -78.447)" fill="#e0e0e0"/>
              </g>
              <g id="Group_185196" data-name="Group 185196">
                <g id="Group_185193" data-name="Group 185193">
                  <path id="Path_441539" data-name="Path 441539" d="M193.488,78.719l-5.432.068-.239-2.9,5.432-.068Z" transform="translate(-187.818 -75.824)" fill="#e0e0e0"/>
                </g>
                <g id="Group_185194" data-name="Group 185194" transform="translate(0.636 3.721)">
                  <path id="Path_441540" data-name="Path 441540" d="M193.973,83.458l-5.107.064-.239-2.9,5.107-.064Z" transform="translate(-188.627 -80.562)" fill="#e0e0e0"/>
                </g>
                <g id="Group_185195" data-name="Group 185195" transform="translate(1.726 8.97)">
                  <path id="Path_441541" data-name="Path 441541" d="M194.712,90.142l-4.458.056-.239-2.9,4.458-.056Z" transform="translate(-190.015 -87.246)" fill="#e0e0e0"/>
                </g>
              </g>
            </g>
          </g>
          <g id="Group_185206" data-name="Group 185206" transform="translate(0 181.995)">
            <g id="Group_185199" data-name="Group 185199" transform="translate(0 3.078)">
              <path id="Path_441542" data-name="Path 441542" d="M79.3,316.991a7.1,7.1,0,0,0,6.965,6.509h66.347a5.972,5.972,0,0,0,6.065-5.811,6.7,6.7,0,0,0-.009-.7,7.1,7.1,0,0,0-6.965-6.5H85.36A5.988,5.988,0,0,0,79.3,316.991Z" transform="translate(-79.288 -310.488)" fill="#f0f0f0"/>
            </g>
            <g id="Group_185200" data-name="Group 185200" transform="translate(1.832 3.077)">
              <path id="Path_441543" data-name="Path 441543" d="M159.18,317.688a4.256,4.256,0,0,1-.058.628,7.106,7.106,0,0,0-6.942-6.259l-70.559.11a6.045,6.045,0,0,1,4.239-1.68h66.347a6.891,6.891,0,0,1,6.972,7.2Z" transform="translate(-81.621 -310.487)" fill="#e0e0e0"/>
            </g>
            <g id="Group_185202" data-name="Group 185202" transform="translate(8.572 6.216)">
              <g id="Group_185201" data-name="Group 185201">
                <path id="Path_441544" data-name="Path 441544" d="M164.555,314.484l.222,3.174,2.974-1.1.675,1.567-3.038,1,2.122,2.663-1.371,1-2.065-2.768-1.65,2.768-1.468-1,1.721-2.663-3.15-1,.454-1.557,3.156,1.062-.22-3.143Z" transform="translate(-105.09 -314.484)" fill="#fff"/>
                <path id="Path_441545" data-name="Path 441545" d="M141.448,314.484l.222,3.174,2.974-1.1.675,1.567-3.037,1,2.122,2.663-1.371,1-2.065-2.768-1.65,2.768-1.469-1,1.721-2.663-3.15-1,.454-1.557,3.156,1.062-.22-3.143Z" transform="translate(-100.129 -314.484)" fill="#fff"/>
                <path id="Path_441546" data-name="Path 441546" d="M118.341,314.484l.222,3.174,2.974-1.1.675,1.567-3.037,1,2.121,2.663-1.37,1-2.065-2.768-1.65,2.768-1.469-1,1.721-2.663-3.15-1,.454-1.557,3.156,1.062-.22-3.143Z" transform="translate(-95.167 -314.484)" fill="#fff"/>
                <path id="Path_441547" data-name="Path 441547" d="M95.234,314.484l.221,3.174,2.975-1.1.675,1.567-3.037,1,2.121,2.663-1.37,1-2.065-2.768-1.65,2.768-1.469-1,1.721-2.663-3.15-1,.454-1.557,3.156,1.062-.22-3.143Z" transform="translate(-90.205 -314.484)" fill="#fff"/>
              </g>
            </g>
            <g id="Group_185205" data-name="Group 185205" transform="translate(54.583)">
              <g id="Group_185203" data-name="Group 185203">
                <path id="Path_441548" data-name="Path 441548" d="M151.889,307.354H148.8l.014-.785H151.9Z" transform="translate(-148.797 -306.569)" fill="#e0e0e0"/>
              </g>
              <g id="Group_185204" data-name="Group 185204" transform="translate(6.3)">
                <path id="Path_441549" data-name="Path 441549" d="M166.913,307.354H156.82l.014-.785h10.093Z" transform="translate(-156.82 -306.569)" fill="#e0e0e0"/>
              </g>
            </g>
          </g>
        </g>
        <g id="Group_185208" data-name="Group 185208" transform="translate(149.277 156.109)" opacity="0.8">
          <path id="Path_441550" data-name="Path 441550" d="M269.385,296.316,281.9,315.58l41.273-41.272a.409.409,0,0,0-.542-.611L283.3,304.526l-7.427-11.976Z" transform="translate(-269.385 -273.604)" fill="#e0e0e0"/>
        </g>
      </g>
    </g>
    <g id="Device_2" data-name="Device 2" transform="translate(158.151 113.09)">
      <g id="Group_185210" data-name="Group 185210" transform="translate(16.27)">
        <path id="Path_441551" data-name="Path 441551" d="M251.753,127.955,222.117,238.8h9.969l29.308-110.841Z" transform="translate(-222.117 -127.955)" fill="#fff" opacity="0.1" style="isolation: isolate"/>
        <path id="Path_441552" data-name="Path 441552" d="M271.345,127.955,241.709,238.8h19.775l29.308-110.841Z" transform="translate(-226.324 -127.955)" fill="#fff" opacity="0.1" style="isolation: isolate"/>
      </g>
      <g id="Group_185227" data-name="Group 185227" transform="translate(0 3.209)">
        <g id="Group_185224" data-name="Group 185224" transform="translate(0 0.57)">
          <g id="Group_185214" data-name="Group 185214" transform="translate(1.993 1.94)">
            <g id="Group_185213" data-name="Group 185213">
              <g id="Group_185212" data-name="Group 185212">
                <g id="Group_185211" data-name="Group 185211">
                  <path id="Path_441553" data-name="Path 441553" d="M369.921,229.531l6.252-88.974a4.9,4.9,0,0,0-4.975-5.318l-155.275.134A5.821,5.821,0,0,0,210.2,140.7l-6.252,88.974a4.9,4.9,0,0,0,4.975,5.318l155.275-.134A5.821,5.821,0,0,0,369.921,229.531Z" transform="translate(-203.936 -135.239)" fill="#263238"/>
                </g>
              </g>
            </g>
          </g>
          <g id="Group_185223" data-name="Group 185223">
            <g id="Group_185222" data-name="Group 185222">
              <path id="Path_441554" data-name="Path 441554" d="M367.384,227.06l6.252-88.974a4.9,4.9,0,0,0-4.975-5.318l-155.274.135a5.82,5.82,0,0,0-5.723,5.327L201.411,227.2a4.9,4.9,0,0,0,4.975,5.319l155.274-.135A5.821,5.821,0,0,0,367.384,227.06Z" transform="translate(-201.398 -132.768)" fill="#407bff"/>
              <path id="Path_441555" data-name="Path 441555" d="M364.251,229.346a1.691,1.691,0,0,1-1.172.455l-155.275.135a1.84,1.84,0,0,1-1.823-1.945l6.251-88.974a1.675,1.675,0,0,1,.532-1.127,1.7,1.7,0,0,1,1.172-.455L369.21,137.3a1.839,1.839,0,0,1,1.823,1.945l-6.252,88.973A1.67,1.67,0,0,1,364.251,229.346Z" transform="translate(-202.381 -133.741)" fill="#fff" opacity="0.6"/>
              <g id="Group_185216" data-name="Group 185216" transform="translate(50.907 30.097)">
                <path id="Path_441556" data-name="Path 441556" d="M326.093,192.229h-54.5a2,2,0,0,0-1.945,1.754l-.835,7.97a1.554,1.554,0,0,0,1.579,1.754h54.5a2,2,0,0,0,1.946-1.754l.834-7.97A1.554,1.554,0,0,0,326.093,192.229Z" transform="translate(-266.779 -175.633)" fill="#fff"/>
                <g id="Group_185215" data-name="Group 185215" transform="translate(0 49.15)">
                  <path id="Path_441557" data-name="Path 441557" d="M277.52,233.685h-8.505a2,2,0,0,0-1.945,1.754l-.834,7.97a1.554,1.554,0,0,0,1.578,1.754h8.505a2,2,0,0,0,1.946-1.754l.834-7.97A1.554,1.554,0,0,0,277.52,233.685Z" transform="translate(-266.226 -233.685)" fill="#fff"/>
                  <path id="Path_441558" data-name="Path 441558" d="M296.221,233.685h-8.505a2,2,0,0,0-1.945,1.754l-.834,7.97a1.554,1.554,0,0,0,1.578,1.754h8.505a2,2,0,0,0,1.946-1.754l.834-7.97A1.554,1.554,0,0,0,296.221,233.685Z" transform="translate(-270.241 -233.685)" fill="#fff"/>
                  <path id="Path_441559" data-name="Path 441559" d="M314.921,233.685h-8.505a2,2,0,0,0-1.945,1.754l-.835,7.97a1.554,1.554,0,0,0,1.579,1.754h8.505a2,2,0,0,0,1.946-1.754l.834-7.97A1.554,1.554,0,0,0,314.921,233.685Z" transform="translate(-274.257 -233.685)" fill="#fff"/>
                  <path id="Path_441560" data-name="Path 441560" d="M333.622,233.685h-8.505a2,2,0,0,0-1.945,1.754l-.835,7.97a1.554,1.554,0,0,0,1.579,1.754h8.505a2,2,0,0,0,1.946-1.754l.834-7.97A1.554,1.554,0,0,0,333.622,233.685Z" transform="translate(-278.273 -233.685)" fill="#fff"/>
                </g>
                <path id="Path_441561" data-name="Path 441561" d="M280.319,224.068h34.093a3.4,3.4,0,0,0,3.313-2.986l.41-3.913a2.647,2.647,0,0,0-2.689-2.987H281.353a3.405,3.405,0,0,0-3.314,2.987l-.409,3.913A2.647,2.647,0,0,0,280.319,224.068Z" transform="translate(-268.671 -180.347)" fill="none" stroke="#407bff" stroke-linecap="round" stroke-linejoin="round" stroke-width="1"/>
                <path id="Path_441562" data-name="Path 441562" d="M328.594,171.1h-54.5a2,2,0,0,0-1.945,1.754l-.834,7.97a1.554,1.554,0,0,0,1.578,1.754h54.5a2,2,0,0,0,1.945-1.754l.835-7.97A1.555,1.555,0,0,0,328.594,171.1Z" transform="translate(-267.316 -171.095)" fill="#fff"/>
                <path id="Path_441563" data-name="Path 441563" d="M279.723,199.006a1.721,1.721,0,0,0-1.748-1.941,2.214,2.214,0,0,0-2.154,1.941,1.721,1.721,0,0,0,1.748,1.941A2.213,2.213,0,0,0,279.723,199.006Z" transform="translate(-268.284 -176.672)" fill="#263238"/>
                <path id="Path_441564" data-name="Path 441564" d="M287.357,199.006a1.721,1.721,0,0,0-1.748-1.941,2.214,2.214,0,0,0-2.154,1.941,1.72,1.72,0,0,0,1.748,1.941A2.213,2.213,0,0,0,287.357,199.006Z" transform="translate(-269.923 -176.672)" fill="#263238"/>
                <path id="Path_441565" data-name="Path 441565" d="M294.99,199.006a1.72,1.72,0,0,0-1.747-1.941,2.212,2.212,0,0,0-2.154,1.941,1.72,1.72,0,0,0,1.747,1.941A2.213,2.213,0,0,0,294.99,199.006Z" transform="translate(-271.562 -176.672)" fill="#263238"/>
                <path id="Path_441566" data-name="Path 441566" d="M302.624,199.006a1.721,1.721,0,0,0-1.748-1.941,2.213,2.213,0,0,0-2.154,1.941,1.72,1.72,0,0,0,1.748,1.941A2.213,2.213,0,0,0,302.624,199.006Z" transform="translate(-273.201 -176.672)" fill="#263238"/>
                <path id="Path_441567" data-name="Path 441567" d="M310.407,199.006a1.721,1.721,0,0,0-1.748-1.941,2.214,2.214,0,0,0-2.154,1.941,1.72,1.72,0,0,0,1.748,1.941A2.213,2.213,0,0,0,310.407,199.006Z" transform="translate(-274.873 -176.672)" fill="#263238"/>
                <path id="Path_441568" data-name="Path 441568" d="M282.224,177.871a1.72,1.72,0,0,0-1.747-1.941,2.214,2.214,0,0,0-2.154,1.941,1.72,1.72,0,0,0,1.747,1.942A2.214,2.214,0,0,0,282.224,177.871Z" transform="translate(-268.821 -172.133)" fill="#263238"/>
                <path id="Path_441569" data-name="Path 441569" d="M289.858,177.871a1.721,1.721,0,0,0-1.748-1.941,2.214,2.214,0,0,0-2.154,1.941,1.721,1.721,0,0,0,1.748,1.942A2.214,2.214,0,0,0,289.858,177.871Z" transform="translate(-270.46 -172.133)" fill="#263238"/>
                <path id="Path_441570" data-name="Path 441570" d="M297.491,177.871a1.72,1.72,0,0,0-1.747-1.941,2.214,2.214,0,0,0-2.154,1.941,1.72,1.72,0,0,0,1.747,1.942A2.214,2.214,0,0,0,297.491,177.871Z" transform="translate(-272.099 -172.133)" fill="#263238"/>
                <path id="Path_441571" data-name="Path 441571" d="M305.125,177.871a1.721,1.721,0,0,0-1.748-1.941,2.214,2.214,0,0,0-2.154,1.941,1.721,1.721,0,0,0,1.748,1.942A2.214,2.214,0,0,0,305.125,177.871Z" transform="translate(-273.738 -172.133)" fill="#263238"/>
                <path id="Path_441572" data-name="Path 441572" d="M312.758,177.871a1.72,1.72,0,0,0-1.747-1.941,2.214,2.214,0,0,0-2.154,1.941,1.72,1.72,0,0,0,1.747,1.942A2.214,2.214,0,0,0,312.758,177.871Z" transform="translate(-275.378 -172.133)" fill="#263238"/>
                <path id="Path_441573" data-name="Path 441573" d="M320.392,177.871a1.721,1.721,0,0,0-1.748-1.941,2.214,2.214,0,0,0-2.154,1.941,1.721,1.721,0,0,0,1.748,1.942A2.214,2.214,0,0,0,320.392,177.871Z" transform="translate(-277.017 -172.133)" fill="#263238"/>
              </g>
              <g id="Group_185221" data-name="Group 185221" transform="translate(78.701 8.848)">
                <g id="Group_185220" data-name="Group 185220">
                  <g id="Group_185217" data-name="Group 185217" transform="translate(1.297)">
                    <path id="Path_441574" data-name="Path 441574" d="M312.464,147.708l-.425,4.025a.751.751,0,0,1-.73.657.582.582,0,0,1-.59-.657l.425-4.025a2.09,2.09,0,0,0-2.12-2.358h-1.447a2.694,2.694,0,0,0-2.617,2.358l-.368,3.739h-1.32l.368-3.739a4.2,4.2,0,0,1,4.076-3.672h1.446A3.254,3.254,0,0,1,312.464,147.708Z" transform="translate(-303.271 -144.036)" fill="#407bff"/>
                  </g>
                  <g id="Group_185219" data-name="Group 185219" transform="translate(0 6.652)">
                    <g id="Group_185218" data-name="Group 185218">
                      <path id="Path_441575" data-name="Path 441575" d="M312.136,153.4l-.828,7.842a1.024,1.024,0,0,1-1,.9h-7.88a.8.8,0,0,1-.807-.9l.828-7.842a1.02,1.02,0,0,1,.5-.761.978.978,0,0,1,.493-.137h7.88a.836.836,0,0,1,.452.128A.8.8,0,0,1,312.136,153.4Z" transform="translate(-301.62 -152.507)" fill="#407bff"/>
                    </g>
                  </g>
                </g>
              </g>
            </g>
          </g>
        </g>
        <g id="Group_185225" data-name="Group 185225" transform="translate(131.512)">
          <line id="Line_6444" data-name="Line 6444" x1="19.189" y2="0.114" transform="translate(0 0.052)" fill="none" stroke="#263238" stroke-linecap="round" stroke-linejoin="round" stroke-width="1"/>
          <line id="Line_6445" data-name="Line 6445" x1="6.782" y2="0.03" transform="translate(22.867)" fill="none" stroke="#263238" stroke-linecap="round" stroke-linejoin="round" stroke-width="1"/>
        </g>
        <g id="Group_185226" data-name="Group 185226" transform="translate(5.053 4.241)" opacity="0.3">
          <path id="Path_441576" data-name="Path 441576" d="M229.244,137.442h21.969L228.88,229.966H211.151a3.39,3.39,0,0,1-3.219-4.23Z" transform="translate(-207.833 -137.442)" fill="#fff"/>
          <path id="Path_441577" data-name="Path 441577" d="M269.389,137.442h9.326l-22.333,92.524h-9.327Z" transform="translate(-216.255 -137.442)" fill="#fff"/>
        </g>
      </g>
    </g>
    <g id="Device_1" data-name="Device 1" transform="translate(59.611 72.195)">
      <g id="Group_185240" data-name="Group 185240" transform="translate(0 0)">
        <g id="Group_185238" data-name="Group 185238" transform="translate(0 19.464)">
          <g id="Group_185236" data-name="Group 185236" transform="translate(0.235)">
            <g id="Group_185235" data-name="Group 185235">
              <g id="Group_185228" data-name="Group 185228">
                <path id="Path_441578" data-name="Path 441578" d="M84.582,100.663H89.04a7.475,7.475,0,0,0-7.555,8.123l9.461,135.3a8.848,8.848,0,0,0,8.691,8.123H95.18a8.848,8.848,0,0,1-8.691-8.123l-9.462-135.3A7.476,7.476,0,0,1,84.582,100.663Z" transform="translate(-76.381 -100.663)" fill="#407bff"/>
                <path id="Path_441579" data-name="Path 441579" d="M84.411,100.663h4.457a7.475,7.475,0,0,0-7.555,8.123l9.461,135.3a8.848,8.848,0,0,0,8.691,8.123H95.009c-4.487,0-9.006-3.637-9.32-8.123l-9.462-135.3C75.914,104.3,79.924,100.663,84.411,100.663Z" transform="translate(-76.21 -100.663)" fill="#263238"/>
              </g>
              <path id="Path_441580" data-name="Path 441580" d="M96.872,252.209h54.575A7.475,7.475,0,0,0,159,244.086l-9.461-135.3a8.849,8.849,0,0,0-8.691-8.123H86.275a7.476,7.476,0,0,0-7.555,8.123l9.461,135.3A8.849,8.849,0,0,0,96.872,252.209Z" transform="translate(-76.745 -100.663)" fill="#407bff"/>
              <g id="Group_185229" data-name="Group 185229" transform="translate(4.369 2.606)" opacity="0.6">
                <path id="Path_441581" data-name="Path 441581" d="M141.362,103.982a6.164,6.164,0,0,1,6.045,5.653l9.461,135.3a4.923,4.923,0,0,1-5,5.381H97.293a6.163,6.163,0,0,1-6.045-5.653l-9.461-135.3a4.923,4.923,0,0,1,5-5.381Z" transform="translate(-81.774 -103.982)" fill="#fff"/>
              </g>
              <g id="Group_185230" data-name="Group 185230" transform="translate(17.978 2.606)" opacity="0.3">
                <path id="Path_441582" data-name="Path 441582" d="M132.081,250.315H110.315l17.95-146.333h17.518a5.528,5.528,0,0,1,4.035,1.738Z" transform="translate(-101.512 -103.982)" fill="#fff"/>
                <path id="Path_441583" data-name="Path 441583" d="M104,250.315H99.1l17.95-146.333h4.9Z" transform="translate(-99.104 -103.982)" fill="#fff"/>
              </g>
              <g id="Group_185231" data-name="Group 185231" transform="translate(21.176 66.544)">
                <line id="Line_6446" data-name="Line 6446" x2="39.531" fill="none" stroke="#fff" stroke-linecap="round" stroke-linejoin="round" stroke-width="1"/>
                <line id="Line_6447" data-name="Line 6447" x2="30.964" transform="translate(5.099 5.846)" fill="none" stroke="#fff" stroke-linecap="round" stroke-linejoin="round" stroke-width="1"/>
              </g>
              <g id="Group_185234" data-name="Group 185234" transform="translate(19.548 36.683)">
                <g id="Group_185232" data-name="Group 185232">
                  <path id="Path_441584" data-name="Path 441584" d="M103.91,150.3l.054,1.553h-1.013l-.054-1.566-1.794-2.818h1.077l1.238,1.948,1.1-1.948h.995Z" transform="translate(-101.103 -147.398)" fill="#407bff"/>
                  <path id="Path_441585" data-name="Path 441585" d="M106.772,149.645a2.176,2.176,0,0,1,2.317-2.268,2.365,2.365,0,0,1,2.475,2.268,2.175,2.175,0,0,1-2.316,2.267A2.365,2.365,0,0,1,106.772,149.645Zm3.765,0a1.393,1.393,0,0,0-1.418-1.4,1.282,1.282,0,0,0-1.321,1.4,1.393,1.393,0,0,0,1.419,1.4A1.283,1.283,0,0,0,110.537,149.645Z" transform="translate(-102.32 -147.377)" fill="#407bff"/>
                  <path id="Path_441586" data-name="Path 441586" d="M113.791,149.929l-.086-2.456h1.013l.084,2.418c.03.833.4,1.177,1.018,1.177s.964-.344.934-1.177l-.085-2.418h1l.086,2.456a1.743,1.743,0,0,1-1.911,2A1.889,1.889,0,0,1,113.791,149.929Z" transform="translate(-103.809 -147.398)" fill="#407bff"/>
                  <path id="Path_441587" data-name="Path 441587" d="M122.977,151.857l-.887-1.221h-.932l.042,1.221h-1.013l-.153-4.384h1.895c1.17,0,1.922.608,1.957,1.591a1.365,1.365,0,0,1-.852,1.384l1.032,1.409ZM121.9,148.3h-.827l.054,1.528h.825c.62,0,.922-.288.905-.764S122.52,148.3,121.9,148.3Z" transform="translate(-105.168 -147.398)" fill="#407bff"/>
                  <path id="Path_441588" data-name="Path 441588" d="M127.895,149.645a2.161,2.161,0,0,1,2.3-2.268,2.342,2.342,0,0,1,1.829.777l-.629.6a1.459,1.459,0,0,0-1.118-.513,1.29,1.29,0,0,0-1.352,1.4,1.4,1.4,0,0,0,1.45,1.4,1.342,1.342,0,0,0,1.082-.52l.671.6a2.167,2.167,0,0,1-1.779.783A2.346,2.346,0,0,1,127.895,149.645Z" transform="translate(-106.856 -147.377)" fill="#407bff"/>
                  <path id="Path_441589" data-name="Path 441589" d="M133.619,149.645a2.175,2.175,0,0,1,2.316-2.268,2.365,2.365,0,0,1,2.476,2.268,2.176,2.176,0,0,1-2.317,2.267A2.365,2.365,0,0,1,133.619,149.645Zm3.765,0a1.393,1.393,0,0,0-1.419-1.4,1.282,1.282,0,0,0-1.32,1.4,1.393,1.393,0,0,0,1.418,1.4A1.283,1.283,0,0,0,137.384,149.645Z" transform="translate(-108.085 -147.377)" fill="#407bff"/>
                  <path id="Path_441590" data-name="Path 441590" d="M140.6,147.473h1.989a2.277,2.277,0,0,1,2.491,2.192,2.1,2.1,0,0,1-2.338,2.192h-1.989Zm2.063,3.551a1.256,1.256,0,0,0,1.391-1.359,1.362,1.362,0,0,0-1.487-1.359h-.925l.1,2.718Z" transform="translate(-109.584 -147.398)" fill="#407bff"/>
                  <path id="Path_441591" data-name="Path 441591" d="M150.7,151.043l.028.814h-3.39l-.153-4.384h3.308l.029.814h-2.3l.033.952h2.033l.028.789H148.28l.035,1.015Z" transform="translate(-110.998 -147.398)" fill="#407bff"/>
                </g>
                <g id="Group_185233" data-name="Group 185233" transform="translate(1.589 11.143)">
                  <path id="Path_441592" data-name="Path 441592" d="M111.962,171.178l.031,1.762h-8.267l-.025-1.394,4.379-4.228c1.072-1.041,1.253-1.7,1.242-2.323-.018-1.026-.733-1.618-2.112-1.618a3.107,3.107,0,0,0-2.606,1.169l-1.478-1.121a5.088,5.088,0,0,1,4.229-1.859c2.434,0,4.027,1.234,4.061,3.22.019,1.089-.268,2.083-1.8,3.54l-2.946,2.851Z" transform="translate(-103.127 -161.567)" fill="#263238"/>
                  <path id="Path_441593" data-name="Path 441593" d="M123.657,169.621c.033,1.889-1.365,3.523-4.377,3.523a7.147,7.147,0,0,1-4.235-1.3l.869-1.618a5.311,5.311,0,0,0,3.3,1.1c1.49,0,2.36-.657,2.342-1.7-.018-1.009-.766-1.666-2.464-1.666h-1.026l-.024-1.425,2.493-3.027h-5.094l-.03-1.746h7.641l.024,1.394-2.666,3.236C122.532,166.673,123.627,167.938,123.657,169.621Z" transform="translate(-105.686 -161.611)" fill="#263238"/>
                  <path id="Path_441594" data-name="Path 441594" d="M136.83,169.72c.037,2.083-1.752,3.38-4.539,3.38s-4.588-1.3-4.624-3.38a2.754,2.754,0,0,1,1.747-2.675,2.614,2.614,0,0,1-1.435-2.355c-.034-1.922,1.628-3.124,4.111-3.124,2.5,0,4.218,1.2,4.252,3.124a2.509,2.509,0,0,1-1.384,2.355A2.88,2.88,0,0,1,136.83,169.72Zm-2.1-.064c-.02-1.106-.993-1.8-2.531-1.8s-2.456.689-2.435,1.8c.02,1.136.96,1.809,2.5,1.809S134.75,170.793,134.73,169.657Zm-4.7-4.87c.017.961.828,1.571,2.141,1.571,1.33,0,2.137-.609,2.119-1.571-.017-1.009-.892-1.585-2.174-1.585S130.013,163.778,130.031,164.787Z" transform="translate(-108.396 -161.567)" fill="#263238"/>
                  <path id="Path_441595" data-name="Path 441595" d="M150.131,169.72c.037,2.083-1.752,3.38-4.54,3.38s-4.587-1.3-4.624-3.38a2.752,2.752,0,0,1,1.746-2.675,2.614,2.614,0,0,1-1.435-2.355c-.034-1.922,1.627-3.124,4.111-3.124s4.218,1.2,4.252,3.124a2.509,2.509,0,0,1-1.384,2.355A2.881,2.881,0,0,1,150.131,169.72Zm-2.1-.064c-.02-1.106-.993-1.8-2.531-1.8s-2.456.689-2.435,1.8c.02,1.136.96,1.809,2.5,1.809S148.051,170.793,148.031,169.657Zm-4.7-4.87c.017.961.828,1.571,2.142,1.571,1.329,0,2.137-.609,2.119-1.571-.017-1.009-.892-1.585-2.174-1.585S143.314,163.778,143.331,164.787Z" transform="translate(-111.253 -161.567)" fill="#263238"/>
                </g>
              </g>
            </g>
          </g>
          <g id="Group_185237" data-name="Group 185237" transform="translate(0 10.964)">
            <line id="Line_6448" data-name="Line 6448" x2="1.392" y2="18.981" transform="translate(0.634 8.646)" fill="none" stroke="#407bff" stroke-linecap="round" stroke-linejoin="round" stroke-width="1"/>
            <line id="Line_6449" data-name="Line 6449" x2="0.367" y2="5.009" fill="none" stroke="#407bff" stroke-linecap="round" stroke-linejoin="round" stroke-width="1"/>
          </g>
        </g>
        <g id="Group_185239" data-name="Group 185239" transform="translate(22.345)">
          <line id="Line_6450" data-name="Line 6450" y1="11.556" transform="translate(14.923)" fill="none" stroke="#407bff" stroke-linecap="round" stroke-linejoin="round" stroke-width="1"/>
          <line id="Line_6451" data-name="Line 6451" x1="5.776" y1="10.001" transform="translate(0 4)" fill="none" stroke="#407bff" stroke-linecap="round" stroke-linejoin="round" stroke-width="1"/>
          <line id="Line_6452" data-name="Line 6452" x1="5.776" y2="10.006" transform="translate(24.071 4)" fill="none" stroke="#407bff" stroke-linecap="round" stroke-linejoin="round" stroke-width="1"/>
        </g>
      </g>
    </g>
    <g id="Plant" transform="translate(224.837 285.44)">
      <g id="Group_185245" data-name="Group 185245">
        <g id="Group_185244" data-name="Group 185244">
          <path id="Path_441596" data-name="Path 441596" d="M312.533,351.759a167.337,167.337,0,0,0-4.765,48.757" transform="translate(-290.881 -348.363)" fill="none" stroke="#407bff" stroke-miterlimit="10" stroke-width="1"/>
          <g id="Group_185242" data-name="Group 185242" transform="translate(9.879)">
            <g id="Group_185241" data-name="Group 185241">
              <path id="Path_441597" data-name="Path 441597" d="M309.221,350.153c.035,1.467,1.35,6.65,2.816,6.615s2.529-5.277,2.493-6.743a2.655,2.655,0,0,0-5.309.128Z" transform="translate(-301.115 -347.434)" fill="#407bff"/>
              <path id="Path_441598" data-name="Path 441598" d="M315.042,370.079c-.035-1.466-1.35-6.65-2.816-6.614s-2.529,5.276-2.494,6.743a2.656,2.656,0,0,0,5.31-.129Z" transform="translate(-301.225 -350.876)" fill="#407bff"/>
              <path id="Path_441599" data-name="Path 441599" d="M301.618,363.577c1.466-.035,6.65-1.35,6.614-2.817s-5.276-2.529-6.743-2.493a2.656,2.656,0,0,0,.129,5.31Z" transform="translate(-298.899 -349.76)" fill="#407bff"/>
              <path id="Path_441600" data-name="Path 441600" d="M321.543,357.756c-1.466.035-6.65,1.35-6.614,2.816s5.277,2.529,6.743,2.494a2.656,2.656,0,0,0-.129-5.31Z" transform="translate(-302.341 -349.65)" fill="#407bff"/>
              <path id="Path_441601" data-name="Path 441601" d="M302.639,355.291c1.062,1.011,5.657,3.747,6.668,2.686s-1.943-5.52-3-6.531a2.656,2.656,0,0,0-3.664,3.845Z" transform="translate(-299.525 -348.138)" fill="#407bff"/>
              <path id="Path_441602" data-name="Path 441602" d="M320.97,365.442c-1.062-1.011-5.657-3.747-6.669-2.685s1.943,5.519,3,6.53a2.656,2.656,0,0,0,3.664-3.845Z" transform="translate(-302.162 -350.673)" fill="#407bff"/>
              <path id="Path_441603" data-name="Path 441603" d="M306.756,369.5c1.011-1.062,3.747-5.656,2.685-6.668s-5.519,1.942-6.53,3a2.656,2.656,0,1,0,3.845,3.663Z" transform="translate(-299.603 -350.697)" fill="#407bff"/>
              <path id="Path_441604" data-name="Path 441604" d="M316.907,351.175c-1.011,1.062-3.747,5.657-2.686,6.668s5.52-1.943,6.531-3a2.656,2.656,0,1,0-3.845-3.664Z" transform="translate(-302.137 -348.06)" fill="#407bff"/>
              <path id="Path_441605" data-name="Path 441605" d="M308.854,360.608a3.145,3.145,0,1,0,3.067-3.22A3.144,3.144,0,0,0,308.854,360.608Z" transform="translate(-301.036 -349.571)" fill="#fff"/>
            </g>
          </g>
          <path id="Path_441606" data-name="Path 441606" d="M308.28,387.9s.543-8.02,4.944-9.288,6.018-2.988,6.018-2.988S318.8,388.052,308.28,387.9Z" transform="translate(-291.035 -353.487)" fill="#407bff"/>
          <path id="Path_441607" data-name="Path 441607" d="M308.28,387.9s.543-8.02,4.944-9.288,6.018-2.988,6.018-2.988S318.8,388.052,308.28,387.9Z" transform="translate(-291.035 -353.487)" fill="#fff" opacity="0.5"/>
          <path id="Path_441608" data-name="Path 441608" d="M304.542,395.715s-.542-8.02-4.943-9.288-6.018-2.988-6.018-2.988S294.026,395.87,304.542,395.715Z" transform="translate(-287.878 -355.165)" fill="#407bff"/>
          <path id="Path_441609" data-name="Path 441609" d="M304.542,395.715s-.542-8.02-4.943-9.288-6.018-2.988-6.018-2.988S294.026,395.87,304.542,395.715Z" transform="translate(-287.878 -355.165)" fill="#fff" opacity="0.5"/>
          <g id="Group_185243" data-name="Group 185243" transform="translate(0 46.518)">
            <path id="Path_441610" data-name="Path 441610" d="M319.6,417.407c0,6.259-7.452,11.324-16.64,11.324s-16.64-5.065-16.64-11.324c0-3.165,1.908-6.031,4.994-8.08a18.927,18.927,0,0,1,6.376-2.654h10.538a18.977,18.977,0,0,1,6.526,2.756C317.753,411.478,319.6,414.289,319.6,417.407Z" transform="translate(-286.319 -406.672)" fill="#407bff"/>
            <path id="Path_441611" data-name="Path 441611" d="M308.228,406.672a18.977,18.977,0,0,1,6.526,2.756c3,2.05,4.845,4.861,4.845,7.978,0,6.259-7.452,11.324-16.64,11.324s-16.64-5.065-16.64-11.324c0-3.165,1.908-6.031,4.994-8.08a18.927,18.927,0,0,1,6.376-2.654Z" transform="translate(-286.319 -406.672)" fill="#fff" opacity="0.8"/>
            <path id="Path_441612" data-name="Path 441612" d="M307.57,407.97v5.6" transform="translate(-290.882 -406.951)" fill="none" stroke="#407bff" stroke-miterlimit="10" stroke-width="1"/>
          </g>
          <path id="Path_441613" data-name="Path 441613" d="M316.611,406.45l-.883,2.752-.014.028H292.446l-.049-.146-.84-2.633Z" transform="translate(-287.444 -360.107)" fill="#407bff"/>
        </g>
        <path id="Path_441614" data-name="Path 441614" d="M318.19,421.322a17.965,17.965,0,0,1-6.391,5.5c-4,2.12-20.81,2.668-22.729-6.872-.027-.133-.071-.261-.1-.395a3.907,3.907,0,0,1,4.288-4.463,19.355,19.355,0,0,0,4.767-.267,44.784,44.784,0,0,1,18.1.971A3.617,3.617,0,0,1,318.19,421.322Z" transform="translate(-286.876 -361.796)" fill="#263238"/>
      </g>
    </g>
    <g id="Character" transform="translate(121.22 114.746)">
      <g id="Group_185264" data-name="Group 185264">
        <g id="Group_185262" data-name="Group 185262">
          <g id="Group_185246" data-name="Group 185246" transform="translate(0 208.07)">
            <path id="Path_441615" data-name="Path 441615" d="M171.685,418.771a.922.922,0,0,0,.581-.691.542.542,0,0,0-.126-.54c-.6-.632-3.062-.184-3.34-.13a.163.163,0,0,0-.129.124.161.161,0,0,0,.065.165,8.419,8.419,0,0,0,1.594.908A2.008,2.008,0,0,0,171.685,418.771Zm.217-1.01a.226.226,0,0,1,.047.24.607.607,0,0,1-.376.467c-.445.16-1.3-.141-2.319-.81C170.241,417.507,171.584,417.425,171.9,417.761Z" transform="translate(-157.438 -399.792)" fill="#407bff"/>
            <path id="Path_441616" data-name="Path 441616" d="M168.852,417.191c.751-.093,2.48-.981,2.632-1.749a.558.558,0,0,0-.336-.621.862.862,0,0,0-.724-.06c-.948.325-1.713,2.132-1.745,2.209a.16.16,0,0,0,.022.159.166.166,0,0,0,.068.051A.175.175,0,0,0,168.852,417.191Zm2.136-2.09c.184.1.19.2.175.28-.093.467-1.244,1.194-2.05,1.426.287-.589.853-1.548,1.419-1.742a.537.537,0,0,1,.389,0A.638.638,0,0,1,170.988,415.1Z" transform="translate(-157.438 -399.256)" fill="#407bff"/>
            <path id="Path_441617" data-name="Path 441617" d="M159.409,409.8l6.393,2.584,5.579-14.771-6.393-2.584Z" transform="translate(-155.45 -395.03)" fill="#ffb573"/>
            <path id="Path_441618" data-name="Path 441618" d="M165.53,415.658l-7.182-2.9a.552.552,0,0,0-.689.223l-3.152,5.261a1.085,1.085,0,0,0,.558,1.533c2.521.97,3.788,1.313,6.946,2.59,1.944.785,4.7,2.131,7.382,3.216,2.624,1.061,3.916-1.468,2.9-2.157-4.567-3.085-4.749-4.867-5.854-6.944A1.79,1.79,0,0,0,165.53,415.658Z" transform="translate(-154.368 -398.827)" fill="#263238"/>
            <path id="Path_441619" data-name="Path 441619" d="M171.515,405.209l-11.1-4.488,1.017-4.069,11.913,4.358Z" transform="translate(-155.665 -395.378)" fill="#407bff"/>
          </g>
          <g id="Group_185255" data-name="Group 185255" transform="translate(4.399)">
            <path id="Path_441620" data-name="Path 441620" d="M182.931,185.441c-2.252,6.52-8.921,21.88-14.059,15.482a14.779,14.779,0,0,1-2.244-3.738c-2.181-5.382-2.718-14.1-2.994-16l-1.75-5.975a1.145,1.145,0,0,1-.047-.317l-.028-3.412c0-1.384,1.114-2.205,2.624-2.079,0,0,2.434-.285,2.434,1.169l.474,5.122h-.016c.245,1.786-.466,4.267-.048,5.9,1.565,6.149,3.729,6.424,5.089,12.771,1.889-4.576,5.279-12.5,5.279-12.5C179.928,182.146,183.674,183.292,182.931,185.441Z" transform="translate(-160.364 -138.505)" fill="#ffb573"/>
            <path id="Path_441621" data-name="Path 441621" d="M175.088,204.511a4.049,4.049,0,0,1-6.651.227,14.9,14.9,0,0,1-2.173-4.079c-2.039-6.694-3.3-10.843-3.477-17.837a5.511,5.511,0,0,1,5.674-1.344l3.343,11.333s6.812-16.923,9.562-17.53c3.249-.711,4.6,2.183,5.967,5.747C188.319,183.592,179.525,197.666,175.088,204.511Z" transform="translate(-160.574 -139.75)" fill="#407bff"/>
            <g id="Group_185254" data-name="Group 185254">
              <g id="Group_185253" data-name="Group 185253">
                <path id="Path_441622" data-name="Path 441622" d="M209.912,153.745c-.77,3.928-2.5,12.5.248,15.118,0,0-1.073,3.984-8.373,3.984-8.025,0-3.835-3.984-3.835-3.984,4.38-1.046,4.267-4.3,3.5-7.349Z" transform="translate(-167.89 -135.149)" fill="#ffb573"/>
                <path id="Path_441623" data-name="Path 441623" d="M197.207,141.348a.315.315,0,0,0,.28-.455,3.111,3.111,0,0,0-2.274-1.738.314.314,0,0,0-.072.623h0a2.484,2.484,0,0,1,1.786,1.4A.315.315,0,0,0,197.207,141.348Z" transform="translate(-167.462 -132.015)" fill="#263238"/>
                <path id="Path_441624" data-name="Path 441624" d="M194.17,146.319a14.256,14.256,0,0,1-2.308,3.148,2.3,2.3,0,0,0,1.845.589Z" transform="translate(-166.817 -133.554)" fill="#ed893e"/>
                <path id="Path_441625" data-name="Path 441625" d="M195.257,144.632c.113.522-.072,1.005-.413,1.079s-.709-.289-.822-.811.071-1,.412-1.078S195.143,144.11,195.257,144.632Z" transform="translate(-167.274 -133.016)" fill="#263238"/>
                <path id="Path_441626" data-name="Path 441626" d="M194.392,143.795l-1.332-.09S193.915,144.544,194.392,143.795Z" transform="translate(-167.075 -132.993)" fill="#263238"/>
                <path id="Path_441627" data-name="Path 441627" d="M159.977,169.052v.016c0-.008-.008-.008-.008-.016Z" transform="translate(-159.969 -138.436)" fill="#ffb573"/>
                <path id="Path_441628" data-name="Path 441628" d="M187.9,185.345c1.391-1.273,2.331-.893,2.971.119.632,2.94-3.114,9.1-4.624,11.427Z" transform="translate(-165.611 -141.761)" opacity="0.2"/>
                <path id="Path_441629" data-name="Path 441629" d="M219.87,186.679c-.181,3.235-.487,7.31-.982,12.439-.518,5.41-1.256,11.982-2.269,19.969-10.672,0-21.846-.165-27.037-.165.434-10.607.6-21.355-4.164-42.467a2,2,0,0,1,1.6-2.407,76.977,76.977,0,0,1,9.36-1.11,85.546,85.546,0,0,1,12.211,0c5.238.478,11.19,1.7,11.19,1.7S220.435,176.579,219.87,186.679Z" transform="translate(-165.423 -139.222)" fill="#407bff"/>
                <path id="Path_441630" data-name="Path 441630" d="M227.7,188.781c-.181,3.235-.487,7.31-.982,12.439-2.874-3.33-5.591-14.794-4.727-18.713a25.719,25.719,0,0,1,5.583,5.654A5.752,5.752,0,0,1,227.7,188.781Z" transform="translate(-173.252 -141.325)" opacity="0.2"/>
                <g id="Group_185249" data-name="Group 185249" transform="translate(49.18 38.883)">
                  <g id="Group_185247" data-name="Group 185247" transform="translate(32.381 19.353)">
                    <path id="Path_441631" data-name="Path 441631" d="M264.43,207.959l5.469-3.075,1.022,5.6s-4.635,1.775-7.089.532Z" transform="translate(-263.832 -204.366)" fill="#ffb573"/>
                    <path id="Path_441632" data-name="Path 441632" d="M275.22,205.378l.38,1.827a1.45,1.45,0,0,1-.6,1.494l-2.416,1.641-1.022-5.6,1.891-.474A1.448,1.448,0,0,1,275.22,205.378Z" transform="translate(-265.491 -204.224)" fill="#ffb573"/>
                  </g>
                  <g id="Group_185248" data-name="Group 185248">
                    <path id="Path_441633" data-name="Path 441633" d="M222.6,182.6c1.753,3.566,8.181,17.031,11.006,20.144l.553.58.276.289c.1.1.17.184.321.316a9.739,9.739,0,0,0,1.666,1.26,12.852,12.852,0,0,0,3.425,1.382,24.018,24.018,0,0,0,6.423.609,47.082,47.082,0,0,0,11.858-2.013l-.7-3.279c-1.809.154-3.712.265-5.552.3a44.152,44.152,0,0,1-5.458-.173,21.225,21.225,0,0,1-4.944-.962,7.413,7.413,0,0,1-1.826-.923,3.569,3.569,0,0,1-.584-.521,2.408,2.408,0,0,1-.177-.2l-.2-.246-.41-.488c-2.17-2.717-7.894-15.813-9.612-19.087Z" transform="translate(-222.597 -179.579)" fill="#ffb573"/>
                  </g>
                </g>
                <path id="Path_441634" data-name="Path 441634" d="M254.829,207.226a19.329,19.329,0,0,1-14.723,1.431,19.7,19.7,0,0,1-11.064-8.962c-2.837-4.173-10.384-15.967-9.435-19.017,1.122-3.644,3.509-5.9,7.5-4.924,2.806.68,8.156,14.292,10.74,19.737,1.019,1.518,2.964,3.92,5.136,4.663,3.842,1.328,6.671.751,10.693.181.735.443.68,1.123,1.051,1.889A5.7,5.7,0,0,1,254.829,207.226Z" transform="translate(-172.758 -139.826)" fill="#407bff"/>
                <path id="Path_441635" data-name="Path 441635" d="M213.223,142.795c-1.2,6.459-1.577,9.218-5.277,12.152-5.566,4.412-13.235,1.52-13.984-5.168-.674-6.021,1.41-15.571,8.1-17.372A8.96,8.96,0,0,1,213.223,142.795Z" transform="translate(-167.243 -130.496)" fill="#ffb573"/>
                <g id="Group_185250" data-name="Group 185250" transform="translate(27.929)">
                  <path id="Path_441636" data-name="Path 441636" d="M236.5,178.1c-1.233,1.406-1.622,2.219-3.333,2.981s-5.449.1-6.635-1.355c.385,1.131,2.634,3.164,3.812,3.321a6.669,6.669,0,0,1-8.214-1.445,4.251,4.251,0,0,0,2.8,3.07c-15.048.389-8.712-6.693-18.129-16.762-10.432-11.155-8.17-20.373-8.17-20.373a10.636,10.636,0,0,0-2.05-6.392c-1.508-1.932-1.068-4.539-.589-6,.7-2.144,2.827-2.9,4.869-3.023.36-2.116,4.682-1.726,5.235-1.373.475.3.6.277,1.07-.026,1.062-.681,3.732-1.392,6.59.92,1.745,1.411,3.608,3.942,3.671,9.329.065,5.6-2.608,12.248,6.652,20.759C229.529,166.75,226.921,177.516,236.5,178.1Z" transform="translate(-195.535 -130.064)" fill="#263238"/>
                </g>
                <path id="Path_441637" data-name="Path 441637" d="M197.643,146.068a4.92,4.92,0,0,0-.847,3.568c.263,1.658,1.879,1.768,3.049.705,1.053-.956,2.185-2.971,1.322-4.346A2.077,2.077,0,0,0,197.643,146.068Z" transform="translate(-167.865 -133.282)" fill="#ffb573"/>
                <g id="Group_185251" data-name="Group 185251" transform="translate(2.689 79.703)">
                  <path id="Path_441638" data-name="Path 441638" d="M205.055,231.72s-3.206,45.08-6.826,74.814a73.256,73.256,0,0,1-8.022,25.5l-17.737,33.419-9.078-3.571s6.254-31.767,18.519-49.088c0,0-9.155-51.773,2.828-81.234Z" transform="translate(-163.393 -231.561)" fill="#263238"/>
                </g>
                <path id="Path_441639" data-name="Path 441639" d="M200,245.665s2.7,20.449,4.183,32.567C198.613,270.928,194.349,260.739,200,245.665Z" transform="translate(-167.993 -154.887)" opacity="0.2"/>
                <g id="Group_185252" data-name="Group 185252" transform="translate(29.481 79.751)">
                  <path id="Path_441640" data-name="Path 441640" d="M244.75,424.226a.906.906,0,0,0,.185-.879.553.553,0,0,0-.369-.419c-.836-.28-2.792,1.249-3.012,1.424a.157.157,0,0,0-.055.168.162.162,0,0,0,.135.116,8.5,8.5,0,0,0,1.841.068A2,2,0,0,0,244.75,424.226Zm-.289-.993a.229.229,0,0,1,.156.19.6.6,0,0,1-.11.587,3.321,3.321,0,0,1-2.435.353C242.874,423.774,244.02,423.083,244.461,423.233Z" transform="translate(-206.956 -272.695)" fill="#407bff"/>
                  <path id="Path_441641" data-name="Path 441641" d="M241.743,424.215c.62-.429,1.725-2.009,1.494-2.758a.569.569,0,0,0-.593-.394.856.856,0,0,0-.668.281c-.683.723-.5,2.672-.49,2.755a.161.161,0,0,0,.094.13.167.167,0,0,0,.085.014A.16.16,0,0,0,241.743,424.215Zm.894-2.83c.21,0,.265.091.287.166.141.456-.53,1.629-1.133,2.205a3.632,3.632,0,0,1,.425-2.192.529.529,0,0,1,.347-.175C242.586,421.386,242.611,421.385,242.636,421.385Z" transform="translate(-206.948 -272.302)" fill="#407bff"/>
                  <path id="Path_441642" data-name="Path 441642" d="M230.942,421.438l6.878-.663-2.1-15.622-6.878.663Z" transform="translate(-204.24 -268.886)" fill="#ffb573"/>
                  <path id="Path_441643" data-name="Path 441643" d="M238.541,423.981l-7.727.744a.543.543,0,0,0-.5.515l-.281,6.1a1.1,1.1,0,0,0,1.222,1.1c2.69-.305,3.973-.586,7.371-.913,2.09-.2,5.166-.283,8.053-.561,2.824-.272,2.762-3.1,1.534-3.241-5.5-.621-6.512-2.112-8.477-3.438A1.822,1.822,0,0,0,238.541,423.981Z" transform="translate(-204.494 -272.927)" fill="#263238"/>
                  <path id="Path_441644" data-name="Path 441644" d="M219.185,231.722s8.8,53.8,10.494,85.669L230,374.476l-7.119,1.388s-10.315-36.419-11.5-57.469c-3.149-55.855-21.34-55.946-10.4-86.772Z" transform="translate(-197.512 -231.623)" fill="#263238"/>
                  <path id="Path_441645" data-name="Path 441645" d="M238.339,412.592l-11.789,1.615-1.195-4.528,12.6-1.639Z" transform="translate(-203.491 -269.506)" fill="#407bff"/>
                </g>
                <path id="Path_441646" data-name="Path 441646" d="M159.993,169.112h-.024l.008-.04C159.977,169.089,159.985,169.1,159.993,169.112Z" transform="translate(-159.969 -138.44)" fill="#ffb573"/>
              </g>
            </g>
          </g>
          <g id="Group_185261" data-name="Group 185261" transform="translate(4.398 22.136)">
            <g id="Group_185260" data-name="Group 185260">
              <g id="Group_185259" data-name="Group 185259">
                <g id="Group_185256" data-name="Group 185256">
                  <path id="Path_441647" data-name="Path 441647" d="M160.748,158.253h.451a.771.771,0,0,0-.778.821l.717,13.675a.875.875,0,0,0,.864.821h-.451a.875.875,0,0,1-.864-.821l-.717-13.675A.772.772,0,0,1,160.748,158.253Z" transform="translate(-159.969 -158.253)" fill="#407bff"/>
                  <path id="Path_441648" data-name="Path 441648" d="M160.748,158.253h.451a.771.771,0,0,0-.778.821l.717,13.675a.875.875,0,0,0,.864.821h-.451a.875.875,0,0,1-.864-.821l-.717-13.675A.772.772,0,0,1,160.748,158.253Z" transform="translate(-159.969 -158.253)" fill="#fff" opacity="0.1"/>
                </g>
                <path id="Path_441649" data-name="Path 441649" d="M161.721,173.57h5.516a.771.771,0,0,0,.778-.821l-.716-13.675a.876.876,0,0,0-.865-.821h-5.516a.772.772,0,0,0-.778.821l.717,13.675A.875.875,0,0,0,161.721,173.57Z" transform="translate(-160.005 -158.253)" fill="#407bff"/>
                <path id="Path_441650" data-name="Path 441650" d="M161.721,173.57h5.516a.771.771,0,0,0,.778-.821l-.716-13.675a.876.876,0,0,0-.865-.821h-5.516a.772.772,0,0,0-.778.821l.717,13.675A.875.875,0,0,0,161.721,173.57Z" transform="translate(-160.005 -158.253)" fill="#fff" opacity="0.4"/>
                <g id="Group_185257" data-name="Group 185257" transform="translate(0.534 0.39)">
                  <path id="Path_441651" data-name="Path 441651" d="M167.78,172.571a.508.508,0,0,1-.133.377.523.523,0,0,1-.369.149H161.93a.591.591,0,0,1-.581-.558l-.7-13.263a.479.479,0,0,1,.134-.369.5.5,0,0,1,.369-.157H166.5a.591.591,0,0,1,.581.558l.047.95Z" transform="translate(-160.649 -158.75)" fill="#263238"/>
                </g>
                <g id="Group_185258" data-name="Group 185258" transform="translate(1.862 0.39)" opacity="0.1">
                  <path id="Path_441652" data-name="Path 441652" d="M167.833,160.258,166.058,173.1H163.93l2.01-14.347H167.2a.591.591,0,0,1,.581.558Z" transform="translate(-162.681 -158.75)" fill="#fff"/>
                  <path id="Path_441653" data-name="Path 441653" d="M162.819,173.1h-.48l2.011-14.347h.48Z" transform="translate(-162.339 -158.75)" fill="#fff"/>
                </g>
              </g>
            </g>
          </g>
        </g>
        <path id="Path_441654" data-name="Path 441654" d="M186.8,233.594a58.071,58.071,0,0,0-6.307,25.4c13.368,10.357,25.781-1.772,41.061.276-.533-6.9-2.877-19.67-5.662-26.007C205.791,233.69,196.335,232.683,186.8,233.594Z" transform="translate(-159.977 -152.21)" fill="#407bff"/>
        <g id="Group_185263" data-name="Group 185263" transform="translate(27.385 78.381)">
          <path id="Path_441655" data-name="Path 441655" d="M190.066,230.078s-1.079,2.766-.77,2.766h28.015c.241,0,.441-.118.455-.269l.241-2.391c.017-.166-.192-.305-.455-.305H190.5A.484.484,0,0,0,190.066,230.078Z" transform="translate(-189.241 -229.878)" fill="#fff"/>
        </g>
        <path id="Path_441656" data-name="Path 441656" d="M195.053,233.015h-.724c-.144,0-.254-.075-.244-.165l.339-3.107c.01-.091.137-.165.28-.165h.725c.144,0,.254.074.244.165l-.34,3.107C195.324,232.941,195.2,233.015,195.053,233.015Z" transform="translate(-162.896 -151.433)" fill="#407bff"/>
        <path id="Path_441657" data-name="Path 441657" d="M217.417,233.015h-.725c-.144,0-.254-.075-.244-.165l.34-3.107c.01-.091.136-.165.28-.165h.725c.145,0,.254.074.244.165l-.34,3.107C217.688,232.941,217.561,233.015,217.417,233.015Z" transform="translate(-167.698 -151.433)" fill="#407bff"/>
      </g>
    </g>
  </g>
</svg>
