<svg xmlns="http://www.w3.org/2000/svg" width="34.218" height="34.218" viewBox="0 0 34.218 34.218">
  <path id="Icon_material-local-offer" data-name="Icon material-local-offer" d="M36.209,19.391l-15.4-15.4A3.4,3.4,0,0,0,18.4,3H6.422A3.432,3.432,0,0,0,3,6.422V18.4a3.414,3.414,0,0,0,1.009,2.429l15.4,15.4a3.4,3.4,0,0,0,2.412.992,3.345,3.345,0,0,0,2.412-1.009L36.209,24.232a3.345,3.345,0,0,0,1.009-2.412,3.456,3.456,0,0,0-1.009-2.429ZM8.988,11.555a2.566,2.566,0,1,1,2.566-2.566A2.563,2.563,0,0,1,8.988,11.555Z" transform="translate(-3 -3)" fill="#17c2ec"/>
</svg>
