<svg xmlns="http://www.w3.org/2000/svg" width="32.54" height="32.54" viewBox="0 0 32.54 32.54">
  <g id="Icons" transform="translate(-2 -2)">
    <path id="Path_101" data-name="Path 101" d="M9.438,16.876a7.438,7.438,0,1,1,7.438-7.438A7.438,7.438,0,0,1,9.438,16.876Zm0-13.946a6.508,6.508,0,1,0,6.508,6.508A6.508,6.508,0,0,0,9.438,2.93Z" fill="#fff"/>
    <path id="Path_102" data-name="Path 102" d="M15.324,17.367A2.327,2.327,0,0,1,13,15.043h.93a1.395,1.395,0,1,0,2.789,0,1.53,1.53,0,0,0-1.464-1.4A2.418,2.418,0,0,1,13,11.324a2.324,2.324,0,0,1,4.649,0h-.93a1.395,1.395,0,0,0-2.789,0,1.53,1.53,0,0,0,1.464,1.4,2.418,2.418,0,0,1,2.255,2.319A2.327,2.327,0,0,1,15.324,17.367Z" transform="translate(-5.887 -3.746)" fill="#fff"/>
    <path id="Path_103" data-name="Path 103" d="M17,7h.93V8.395H17Z" transform="translate(-8.027 -2.676)" fill="#fff"/>
    <path id="Path_104" data-name="Path 104" d="M17,26h.93v1.395H17Z" transform="translate(-8.027 -12.843)" fill="#fff"/>
    <path id="Path_105" data-name="Path 105" d="M47.438,49.524A7.446,7.446,0,0,1,40,42.086V33.254A3.258,3.258,0,0,1,43.254,30h8.367a3.258,3.258,0,0,1,3.254,3.254v8.832A7.446,7.446,0,0,1,47.438,49.524ZM43.254,30.93a2.327,2.327,0,0,0-2.324,2.324v8.832a6.508,6.508,0,0,0,13.016,0V33.254a2.327,2.327,0,0,0-2.324-2.324Z" transform="translate(-20.335 -14.984)" fill="#fff"/>
    <path id="Path_106" data-name="Path 106" d="M41,43H54.946v.93H41Z" transform="translate(-20.87 -21.941)" fill="#fff"/>
    <path id="Path_107" data-name="Path 107" d="M21.881,40.778A4.887,4.887,0,0,1,17,35.9V24.973h.93V35.9a3.951,3.951,0,1,0,7.9,0V22.881a4.881,4.881,0,0,1,9.762,0v7.205h-.93V22.881a3.951,3.951,0,1,0-7.9,0V35.9A4.887,4.887,0,0,1,21.881,40.778Z" transform="translate(-8.027 -8.562)" fill="#fff"/>
  </g>
</svg>
