<svg xmlns="http://www.w3.org/2000/svg" width="471.6" height="264.449" viewBox="0 0 471.6 264.449">
  <g id="Group_185487" data-name="Group 185487" transform="translate(-113 -239.736)">
    <g id="OBJECTS" transform="translate(113 239.737)">
      <g id="Group_185326" data-name="Group 185326">
        <g id="Group_185274" data-name="Group 185274" transform="translate(14.43)">
          <g id="Group_185267" data-name="Group 185267" transform="translate(0 113.884)">
            <path id="Path_441658" data-name="Path 441658" d="M277.3,1064.381H198.413V913.818H277.3Zm-78.078-.806h77.272V914.624H199.219Z" transform="translate(-198.413 -913.818)" fill="#dadada"/>
            <g id="Group_185266" data-name="Group 185266" transform="translate(10.881 16.123)">
              <path id="Path_441659" data-name="Path 441659" d="M274.908,1027.54H262.815v-18.29h12.093Zm-11.287-.806H274.1v-16.677h-10.48Z" transform="translate(-262.815 -1009.25)" fill="#dadada"/>
              <path id="Path_441660" data-name="Path 441660" d="M408.52,1027.54H396.427v-18.29H408.52Zm-11.287-.806h10.481v-16.677H397.233Z" transform="translate(-373.854 -1009.25)" fill="#dadada"/>
            </g>
          </g>
          <g id="Group_185269" data-name="Group 185269" transform="translate(287.327 78.153)">
            <path id="Path_441661" data-name="Path 441661" d="M2027.05,888.621H1899.1V702.327H2027.05Zm-127.141-.806h126.335V703.133H1899.908Z" transform="translate(-1899.102 -702.327)" fill="#dadada"/>
            <g id="Group_185268" data-name="Group 185268" transform="translate(65.831 19.495)">
              <path id="Path_441662" data-name="Path 441662" d="M2305.138,838.87h-16.384V817.719h16.384Zm-15.577-.806h14.771V818.525H2289.56Z" transform="translate(-2288.754 -817.719)" fill="#dadada"/>
              <path id="Path_441663" data-name="Path 441663" d="M2480.77,838.87h-16.384V817.719h16.384Zm-15.578-.806h14.771V818.525h-14.771Z" transform="translate(-2434.713 -817.719)" fill="#dadada"/>
            </g>
          </g>
          <g id="Group_185272" data-name="Group 185272" transform="translate(78.1)">
            <path id="Path_441664" data-name="Path 441664" d="M771.883,504.184H660.688V239.737H771.883Zm-110.389-.806H771.077V240.543H661.494Z" transform="translate(-660.688 -239.737)" fill="#dadada"/>
            <g id="Group_185270" data-name="Group 185270" transform="translate(17.303 13.943)">
              <path id="Path_441665" data-name="Path 441665" d="M775.2,354.031H763.105V322.263H775.2Zm-11.287-.806h10.481V323.069H763.911Z" transform="translate(-763.105 -322.263)" fill="#dadada"/>
              <path id="Path_441666" data-name="Path 441666" d="M902.447,354.031H890.354V322.263h12.093Zm-11.287-.806h10.48V323.069H891.16Z" transform="translate(-868.856 -322.263)" fill="#dadada"/>
              <path id="Path_441667" data-name="Path 441667" d="M1029.7,354.031h-12.093V322.263H1029.7Zm-11.287-.806h10.481V323.069h-10.481Z" transform="translate(-974.608 -322.263)" fill="#dadada"/>
              <path id="Path_441668" data-name="Path 441668" d="M1156.947,354.031h-12.093V322.263h12.093Zm-11.287-.806h10.48V323.069h-10.48Z" transform="translate(-1080.359 -322.263)" fill="#dadada"/>
            </g>
            <g id="Group_185271" data-name="Group 185271" transform="translate(24.559 117.183)">
              <rect id="Rectangle_21183" data-name="Rectangle 21183" width="40.84" height="0.806" fill="#dadada"/>
              <rect id="Rectangle_21184" data-name="Rectangle 21184" width="40.84" height="0.806" transform="translate(0 15.318)" fill="#dadada"/>
            </g>
          </g>
          <g id="Group_185273" data-name="Group 185273" transform="translate(188.414 29.88)">
            <path id="Path_441669" data-name="Path 441669" d="M1413.312,651.162h-99.674V416.594h99.674Zm-98.868-.806h98.062V417.4h-98.062Z" transform="translate(-1313.638 -416.594)" fill="#dadada"/>
            <rect id="Rectangle_21185" data-name="Rectangle 21185" width="62.077" height="0.806" transform="translate(18.774 19.046)" fill="#dadada"/>
            <rect id="Rectangle_21186" data-name="Rectangle 21186" width="62.077" height="0.806" transform="translate(18.774 34.364)" fill="#dadada"/>
            <rect id="Rectangle_21187" data-name="Rectangle 21187" width="36.547" height="0.806" transform="translate(44.304 82.537)" fill="#dadada"/>
          </g>
        </g>
        <g id="Group_185277" data-name="Group 185277" transform="translate(166.518 162.781)">
          <g id="Group_185275" data-name="Group 185275">
            <rect id="Rectangle_21188" data-name="Rectangle 21188" width="100.659" height="100.659" transform="translate(0.403 0.403)" fill="#e5ecff"/>
            <path id="Path_441670" data-name="Path 441670" d="M1200.083,1304.7H1098.618V1203.238h101.465Zm-100.659-.806h99.852v-99.852h-99.852Z" transform="translate(-1098.618 -1203.238)" fill="#86a7ff"/>
          </g>
          <g id="Group_185276" data-name="Group 185276" transform="translate(0.95 0.95)">
            <rect id="Rectangle_21189" data-name="Rectangle 21189" width="19.281" height="19.282" transform="translate(27.295 31.787)" fill="none"/>
            <rect id="Rectangle_21190" data-name="Rectangle 21190" width="19.281" height="19.282" transform="translate(27.295 51.875)" fill="none"/>
            <rect id="Rectangle_21191" data-name="Rectangle 21191" width="19.282" height="19.282" transform="translate(7.207 51.875)" fill="none"/>
            <rect id="Rectangle_21192" data-name="Rectangle 21192" width="19.282" height="19.282" transform="translate(7.207 31.787)" fill="none"/>
            <rect id="Rectangle_21193" data-name="Rectangle 21193" width="19.282" height="19.281" transform="translate(7.207 11.7)" fill="none"/>
            <rect id="Rectangle_21194" data-name="Rectangle 21194" width="19.281" height="19.281" transform="translate(27.295 11.7)" fill="none"/>
            <rect id="Rectangle_21195" data-name="Rectangle 21195" width="19.282" height="19.281" transform="translate(7.207 71.963)" fill="none"/>
            <rect id="Rectangle_21196" data-name="Rectangle 21196" width="19.282" height="19.281" transform="translate(67.47 71.963)" fill="none"/>
            <rect id="Rectangle_21197" data-name="Rectangle 21197" width="19.281" height="19.281" transform="translate(27.295 71.963)" fill="none"/>
            <rect id="Rectangle_21198" data-name="Rectangle 21198" width="19.282" height="19.282" transform="translate(67.47 51.875)" fill="none"/>
            <rect id="Rectangle_21199" data-name="Rectangle 21199" width="19.282" height="19.282" transform="translate(67.47 31.787)" fill="none"/>
            <rect id="Rectangle_21200" data-name="Rectangle 21200" width="19.281" height="19.281" transform="translate(47.383 71.963)" fill="none"/>
            <rect id="Rectangle_21201" data-name="Rectangle 21201" width="19.282" height="19.281" transform="translate(67.47 11.7)" fill="none"/>
            <rect id="Rectangle_21202" data-name="Rectangle 21202" width="19.281" height="19.282" transform="translate(47.383 51.875)" fill="none"/>
            <rect id="Rectangle_21203" data-name="Rectangle 21203" width="19.281" height="19.281" transform="translate(47.383 11.7)" fill="none"/>
            <rect id="Rectangle_21204" data-name="Rectangle 21204" width="19.281" height="19.282" transform="translate(47.383 31.787)" fill="none"/>
            <rect id="Rectangle_21205" data-name="Rectangle 21205" width="19.282" height="0.806" transform="translate(67.47 91.244)" fill="#fff"/>
            <rect id="Rectangle_21206" data-name="Rectangle 21206" width="19.282" height="0.806" transform="translate(7.207 91.244)" fill="#fff"/>
            <rect id="Rectangle_21207" data-name="Rectangle 21207" width="19.281" height="0.806" transform="translate(27.295 91.244)" fill="#fff"/>
            <rect id="Rectangle_21208" data-name="Rectangle 21208" width="19.281" height="0.806" transform="translate(47.383 91.244)" fill="#fff"/>
            <rect id="Rectangle_21209" data-name="Rectangle 21209" width="12.007" height="0.806" transform="translate(87.558 91.244)" fill="#fff"/>
            <rect id="Rectangle_21210" data-name="Rectangle 21210" width="6.401" height="0.806" transform="translate(0 91.244)" fill="#fff"/>
            <rect id="Rectangle_21211" data-name="Rectangle 21211" width="19.282" height="0.806" transform="translate(67.47 71.157)" fill="#fff"/>
            <rect id="Rectangle_21212" data-name="Rectangle 21212" width="19.281" height="0.806" transform="translate(27.295 71.157)" fill="#fff"/>
            <rect id="Rectangle_21213" data-name="Rectangle 21213" width="6.401" height="0.806" transform="translate(0 71.157)" fill="#fff"/>
            <rect id="Rectangle_21214" data-name="Rectangle 21214" width="12.007" height="0.806" transform="translate(87.558 71.157)" fill="#fff"/>
            <rect id="Rectangle_21215" data-name="Rectangle 21215" width="19.281" height="0.806" transform="translate(47.383 71.157)" fill="#fff"/>
            <rect id="Rectangle_21216" data-name="Rectangle 21216" width="19.282" height="0.806" transform="translate(7.207 71.157)" fill="#fff"/>
            <rect id="Rectangle_21217" data-name="Rectangle 21217" width="19.282" height="0.806" transform="translate(67.47 51.069)" fill="#fff"/>
            <rect id="Rectangle_21218" data-name="Rectangle 21218" width="19.281" height="0.806" transform="translate(47.383 51.069)" fill="#fff"/>
            <rect id="Rectangle_21219" data-name="Rectangle 21219" width="19.282" height="0.806" transform="translate(7.207 51.069)" fill="#fff"/>
            <rect id="Rectangle_21220" data-name="Rectangle 21220" width="19.281" height="0.806" transform="translate(27.295 51.069)" fill="#fff"/>
            <rect id="Rectangle_21221" data-name="Rectangle 21221" width="6.401" height="0.806" transform="translate(0 51.069)" fill="#fff"/>
            <rect id="Rectangle_21222" data-name="Rectangle 21222" width="12.007" height="0.806" transform="translate(87.558 51.069)" fill="#fff"/>
            <rect id="Rectangle_21223" data-name="Rectangle 21223" width="19.281" height="0.806" transform="translate(27.295 30.981)" fill="#fff"/>
            <rect id="Rectangle_21224" data-name="Rectangle 21224" width="12.007" height="0.806" transform="translate(87.558 30.981)" fill="#fff"/>
            <rect id="Rectangle_21225" data-name="Rectangle 21225" width="19.282" height="0.806" transform="translate(7.207 30.981)" fill="#fff"/>
            <rect id="Rectangle_21226" data-name="Rectangle 21226" width="19.281" height="0.806" transform="translate(47.383 30.981)" fill="#fff"/>
            <rect id="Rectangle_21227" data-name="Rectangle 21227" width="6.401" height="0.806" transform="translate(0 30.981)" fill="#fff"/>
            <rect id="Rectangle_21228" data-name="Rectangle 21228" width="19.282" height="0.806" transform="translate(67.47 30.981)" fill="#fff"/>
            <rect id="Rectangle_21229" data-name="Rectangle 21229" width="19.282" height="0.806" transform="translate(67.47 10.894)" fill="#fff"/>
            <rect id="Rectangle_21230" data-name="Rectangle 21230" width="6.401" height="0.806" transform="translate(0 10.894)" fill="#fff"/>
            <rect id="Rectangle_21231" data-name="Rectangle 21231" width="12.007" height="0.806" transform="translate(87.558 10.894)" fill="#fff"/>
            <rect id="Rectangle_21232" data-name="Rectangle 21232" width="19.281" height="0.806" transform="translate(47.383 10.894)" fill="#fff"/>
            <rect id="Rectangle_21233" data-name="Rectangle 21233" width="19.282" height="0.806" transform="translate(7.207 10.894)" fill="#fff"/>
            <rect id="Rectangle_21234" data-name="Rectangle 21234" width="19.281" height="0.806" transform="translate(27.295 10.894)" fill="#fff"/>
            <path id="Path_441671" data-name="Path 441671" d="M1617.726,1239.842v68.584h.806v-99.565h-.806v30.981Z" transform="translate(-1530.974 -1208.861)" fill="#fff"/>
            <path id="Path_441672" data-name="Path 441672" d="M1498.826,1239.842v68.584h.806v-99.565h-.806v30.981Z" transform="translate(-1432.161 -1208.861)" fill="#fff"/>
            <path id="Path_441673" data-name="Path 441673" d="M1379.928,1239.842v68.584h.806v-99.565h-.806v30.981Z" transform="translate(-1333.351 -1208.861)" fill="#fff"/>
            <path id="Path_441674" data-name="Path 441674" d="M1261.03,1239.842v68.584h.806v-99.565h-.806v30.981Z" transform="translate(-1234.54 -1208.861)" fill="#fff"/>
            <path id="Path_441675" data-name="Path 441675" d="M1142.129,1300.911v7.515h.806v-99.565h-.806v92.05Z" transform="translate(-1135.728 -1208.861)" fill="#fff"/>
          </g>
          <path id="Path_441676" data-name="Path 441676" d="M1253.759,1361.346v21.771h-14.22v-21.943l-23.791-39.5h15.1l16.414,27.3,16.415-27.3h13.959Z" transform="translate(-1195.959 -1301.661)" fill="#86a7ff"/>
        </g>
        <g id="Group_185280" data-name="Group 185280" transform="translate(285.028 162.781)">
          <g id="Group_185278" data-name="Group 185278">
            <rect id="Rectangle_21235" data-name="Rectangle 21235" width="100.659" height="100.659" transform="translate(0.403 0.403)" fill="#e5ecff"/>
            <path id="Path_441677" data-name="Path 441677" d="M1901.546,1304.7H1800.081V1203.238h101.465Zm-100.658-.806h99.852v-99.852h-99.852Z" transform="translate(-1800.081 -1203.238)" fill="#86a7ff"/>
          </g>
          <g id="Group_185279" data-name="Group 185279" transform="translate(0.95 0.95)">
            <rect id="Rectangle_21236" data-name="Rectangle 21236" width="19.281" height="19.282" transform="translate(27.295 31.787)" fill="none"/>
            <rect id="Rectangle_21237" data-name="Rectangle 21237" width="19.281" height="19.282" transform="translate(27.295 51.875)" fill="none"/>
            <rect id="Rectangle_21238" data-name="Rectangle 21238" width="19.282" height="19.282" transform="translate(7.207 51.875)" fill="none"/>
            <rect id="Rectangle_21239" data-name="Rectangle 21239" width="19.282" height="19.282" transform="translate(7.207 31.787)" fill="none"/>
            <rect id="Rectangle_21240" data-name="Rectangle 21240" width="19.282" height="19.281" transform="translate(7.207 11.7)" fill="none"/>
            <rect id="Rectangle_21241" data-name="Rectangle 21241" width="19.281" height="19.281" transform="translate(27.295 11.7)" fill="none"/>
            <rect id="Rectangle_21242" data-name="Rectangle 21242" width="19.282" height="19.281" transform="translate(7.207 71.963)" fill="none"/>
            <rect id="Rectangle_21243" data-name="Rectangle 21243" width="19.282" height="19.281" transform="translate(67.47 71.963)" fill="none"/>
            <rect id="Rectangle_21244" data-name="Rectangle 21244" width="19.281" height="19.281" transform="translate(27.295 71.963)" fill="none"/>
            <rect id="Rectangle_21245" data-name="Rectangle 21245" width="19.282" height="19.282" transform="translate(67.47 51.875)" fill="none"/>
            <rect id="Rectangle_21246" data-name="Rectangle 21246" width="19.282" height="19.282" transform="translate(67.47 31.787)" fill="none"/>
            <rect id="Rectangle_21247" data-name="Rectangle 21247" width="19.281" height="19.281" transform="translate(47.383 71.963)" fill="none"/>
            <rect id="Rectangle_21248" data-name="Rectangle 21248" width="19.282" height="19.281" transform="translate(67.47 11.7)" fill="none"/>
            <rect id="Rectangle_21249" data-name="Rectangle 21249" width="19.281" height="19.282" transform="translate(47.383 51.875)" fill="none"/>
            <rect id="Rectangle_21250" data-name="Rectangle 21250" width="19.281" height="19.281" transform="translate(47.383 11.7)" fill="none"/>
            <rect id="Rectangle_21251" data-name="Rectangle 21251" width="19.281" height="19.282" transform="translate(47.383 31.787)" fill="none"/>
            <rect id="Rectangle_21252" data-name="Rectangle 21252" width="19.282" height="0.806" transform="translate(67.47 91.244)" fill="#fff"/>
            <rect id="Rectangle_21253" data-name="Rectangle 21253" width="19.282" height="0.806" transform="translate(7.207 91.244)" fill="#fff"/>
            <rect id="Rectangle_21254" data-name="Rectangle 21254" width="19.281" height="0.806" transform="translate(27.295 91.244)" fill="#fff"/>
            <rect id="Rectangle_21255" data-name="Rectangle 21255" width="19.281" height="0.806" transform="translate(47.383 91.244)" fill="#fff"/>
            <rect id="Rectangle_21256" data-name="Rectangle 21256" width="12.007" height="0.806" transform="translate(87.558 91.244)" fill="#fff"/>
            <rect id="Rectangle_21257" data-name="Rectangle 21257" width="6.401" height="0.806" transform="translate(0 91.244)" fill="#fff"/>
            <rect id="Rectangle_21258" data-name="Rectangle 21258" width="19.282" height="0.806" transform="translate(67.47 71.157)" fill="#fff"/>
            <rect id="Rectangle_21259" data-name="Rectangle 21259" width="19.281" height="0.806" transform="translate(27.295 71.157)" fill="#fff"/>
            <rect id="Rectangle_21260" data-name="Rectangle 21260" width="6.401" height="0.806" transform="translate(0 71.157)" fill="#fff"/>
            <rect id="Rectangle_21261" data-name="Rectangle 21261" width="12.007" height="0.806" transform="translate(87.558 71.157)" fill="#fff"/>
            <rect id="Rectangle_21262" data-name="Rectangle 21262" width="19.281" height="0.806" transform="translate(47.383 71.157)" fill="#fff"/>
            <rect id="Rectangle_21263" data-name="Rectangle 21263" width="19.282" height="0.806" transform="translate(7.207 71.157)" fill="#fff"/>
            <rect id="Rectangle_21264" data-name="Rectangle 21264" width="19.282" height="0.806" transform="translate(67.47 51.069)" fill="#fff"/>
            <rect id="Rectangle_21265" data-name="Rectangle 21265" width="19.281" height="0.806" transform="translate(47.383 51.069)" fill="#fff"/>
            <rect id="Rectangle_21266" data-name="Rectangle 21266" width="19.282" height="0.806" transform="translate(7.207 51.069)" fill="#fff"/>
            <rect id="Rectangle_21267" data-name="Rectangle 21267" width="19.281" height="0.806" transform="translate(27.295 51.069)" fill="#fff"/>
            <rect id="Rectangle_21268" data-name="Rectangle 21268" width="6.401" height="0.806" transform="translate(0 51.069)" fill="#fff"/>
            <rect id="Rectangle_21269" data-name="Rectangle 21269" width="12.007" height="0.806" transform="translate(87.558 51.069)" fill="#fff"/>
            <rect id="Rectangle_21270" data-name="Rectangle 21270" width="19.281" height="0.806" transform="translate(27.295 30.981)" fill="#fff"/>
            <rect id="Rectangle_21271" data-name="Rectangle 21271" width="12.007" height="0.806" transform="translate(87.558 30.981)" fill="#fff"/>
            <rect id="Rectangle_21272" data-name="Rectangle 21272" width="19.282" height="0.806" transform="translate(7.207 30.981)" fill="#fff"/>
            <rect id="Rectangle_21273" data-name="Rectangle 21273" width="19.281" height="0.806" transform="translate(47.383 30.981)" fill="#fff"/>
            <rect id="Rectangle_21274" data-name="Rectangle 21274" width="6.401" height="0.806" transform="translate(0 30.981)" fill="#fff"/>
            <rect id="Rectangle_21275" data-name="Rectangle 21275" width="19.282" height="0.806" transform="translate(67.47 30.981)" fill="#fff"/>
            <rect id="Rectangle_21276" data-name="Rectangle 21276" width="19.282" height="0.806" transform="translate(67.47 10.894)" fill="#fff"/>
            <rect id="Rectangle_21277" data-name="Rectangle 21277" width="6.401" height="0.806" transform="translate(0 10.894)" fill="#fff"/>
            <rect id="Rectangle_21278" data-name="Rectangle 21278" width="12.007" height="0.806" transform="translate(87.558 10.894)" fill="#fff"/>
            <rect id="Rectangle_21279" data-name="Rectangle 21279" width="19.281" height="0.806" transform="translate(47.383 10.894)" fill="#fff"/>
            <rect id="Rectangle_21280" data-name="Rectangle 21280" width="19.282" height="0.806" transform="translate(7.207 10.894)" fill="#fff"/>
            <rect id="Rectangle_21281" data-name="Rectangle 21281" width="19.281" height="0.806" transform="translate(27.295 10.894)" fill="#fff"/>
            <path id="Path_441678" data-name="Path 441678" d="M2319.19,1239.842v68.584H2320v-99.565h-.806v30.981Z" transform="translate(-2232.438 -1208.861)" fill="#fff"/>
            <path id="Path_441679" data-name="Path 441679" d="M2200.289,1239.842v68.584h.806v-99.565h-.806v30.981Z" transform="translate(-2133.625 -1208.861)" fill="#fff"/>
            <path id="Path_441680" data-name="Path 441680" d="M2081.391,1239.842v68.584h.806v-99.565h-.806v30.981Z" transform="translate(-2034.814 -1208.861)" fill="#fff"/>
            <path id="Path_441681" data-name="Path 441681" d="M1962.493,1239.842v68.584h.806v-99.565h-.806v30.981Z" transform="translate(-1936.004 -1208.861)" fill="#fff"/>
            <path id="Path_441682" data-name="Path 441682" d="M1843.593,1300.911v7.515h.806v-99.565h-.806v92.05Z" transform="translate(-1837.191 -1208.861)" fill="#fff"/>
          </g>
          <path id="Path_441683" data-name="Path 441683" d="M1926.826,1347.229c0-18.526,14.22-31.778,33.358-31.778,10.621,0,19.488,3.86,25.281,10.885l-9.131,8.427a19.746,19.746,0,0,0-15.449-7.2c-11.5,0-19.663,8.07-19.663,19.663s8.162,19.663,19.663,19.663a19.57,19.57,0,0,0,15.449-7.291l9.131,8.427c-5.793,7.112-14.659,10.971-25.37,10.971C1941.046,1379,1926.826,1365.748,1926.826,1347.229Z" transform="translate(-1905.413 -1296.493)" fill="#86a7ff"/>
        </g>
        <g id="Group_185283" data-name="Group 185283" transform="translate(65.861 162.781)">
          <g id="Group_185281" data-name="Group 185281">
            <rect id="Rectangle_21282" data-name="Rectangle 21282" width="100.659" height="100.659" transform="translate(0.403 0.403)" fill="#e5ecff"/>
            <path id="Path_441684" data-name="Path 441684" d="M604.294,1304.7H502.829V1203.238H604.294Zm-100.659-.806h99.853v-99.852H503.635Z" transform="translate(-502.829 -1203.238)" fill="#86a7ff"/>
          </g>
          <g id="Group_185282" data-name="Group 185282" transform="translate(0.95 0.95)">
            <rect id="Rectangle_21283" data-name="Rectangle 21283" width="19.281" height="19.282" transform="translate(27.295 31.787)" fill="none"/>
            <rect id="Rectangle_21284" data-name="Rectangle 21284" width="19.281" height="19.282" transform="translate(27.295 51.875)" fill="none"/>
            <rect id="Rectangle_21285" data-name="Rectangle 21285" width="19.282" height="19.282" transform="translate(7.207 51.875)" fill="none"/>
            <rect id="Rectangle_21286" data-name="Rectangle 21286" width="19.282" height="19.282" transform="translate(7.207 31.787)" fill="none"/>
            <rect id="Rectangle_21287" data-name="Rectangle 21287" width="19.282" height="19.281" transform="translate(7.207 11.7)" fill="none"/>
            <rect id="Rectangle_21288" data-name="Rectangle 21288" width="19.281" height="19.281" transform="translate(27.295 11.7)" fill="none"/>
            <rect id="Rectangle_21289" data-name="Rectangle 21289" width="19.282" height="19.281" transform="translate(7.207 71.963)" fill="none"/>
            <rect id="Rectangle_21290" data-name="Rectangle 21290" width="19.282" height="19.281" transform="translate(67.47 71.963)" fill="none"/>
            <rect id="Rectangle_21291" data-name="Rectangle 21291" width="19.281" height="19.281" transform="translate(27.295 71.963)" fill="none"/>
            <rect id="Rectangle_21292" data-name="Rectangle 21292" width="19.282" height="19.282" transform="translate(67.47 51.875)" fill="none"/>
            <rect id="Rectangle_21293" data-name="Rectangle 21293" width="19.282" height="19.282" transform="translate(67.47 31.787)" fill="none"/>
            <rect id="Rectangle_21294" data-name="Rectangle 21294" width="19.281" height="19.281" transform="translate(47.383 71.963)" fill="none"/>
            <rect id="Rectangle_21295" data-name="Rectangle 21295" width="19.282" height="19.281" transform="translate(67.47 11.7)" fill="none"/>
            <rect id="Rectangle_21296" data-name="Rectangle 21296" width="19.281" height="19.282" transform="translate(47.383 51.875)" fill="none"/>
            <rect id="Rectangle_21297" data-name="Rectangle 21297" width="19.281" height="19.281" transform="translate(47.383 11.7)" fill="none"/>
            <rect id="Rectangle_21298" data-name="Rectangle 21298" width="19.281" height="19.282" transform="translate(47.383 31.787)" fill="none"/>
            <rect id="Rectangle_21299" data-name="Rectangle 21299" width="19.282" height="0.806" transform="translate(67.47 91.244)" fill="#fff"/>
            <rect id="Rectangle_21300" data-name="Rectangle 21300" width="19.282" height="0.806" transform="translate(7.207 91.244)" fill="#fff"/>
            <rect id="Rectangle_21301" data-name="Rectangle 21301" width="19.281" height="0.806" transform="translate(27.295 91.244)" fill="#fff"/>
            <rect id="Rectangle_21302" data-name="Rectangle 21302" width="19.281" height="0.806" transform="translate(47.383 91.244)" fill="#fff"/>
            <rect id="Rectangle_21303" data-name="Rectangle 21303" width="12.007" height="0.806" transform="translate(87.558 91.244)" fill="#fff"/>
            <rect id="Rectangle_21304" data-name="Rectangle 21304" width="6.401" height="0.806" transform="translate(0 91.244)" fill="#fff"/>
            <rect id="Rectangle_21305" data-name="Rectangle 21305" width="19.282" height="0.806" transform="translate(67.47 71.157)" fill="#fff"/>
            <rect id="Rectangle_21306" data-name="Rectangle 21306" width="19.281" height="0.806" transform="translate(27.295 71.157)" fill="#fff"/>
            <rect id="Rectangle_21307" data-name="Rectangle 21307" width="6.401" height="0.806" transform="translate(0 71.157)" fill="#fff"/>
            <rect id="Rectangle_21308" data-name="Rectangle 21308" width="12.007" height="0.806" transform="translate(87.558 71.157)" fill="#fff"/>
            <rect id="Rectangle_21309" data-name="Rectangle 21309" width="19.281" height="0.806" transform="translate(47.383 71.157)" fill="#fff"/>
            <rect id="Rectangle_21310" data-name="Rectangle 21310" width="19.282" height="0.806" transform="translate(7.207 71.157)" fill="#fff"/>
            <rect id="Rectangle_21311" data-name="Rectangle 21311" width="19.282" height="0.806" transform="translate(67.47 51.069)" fill="#fff"/>
            <rect id="Rectangle_21312" data-name="Rectangle 21312" width="19.281" height="0.806" transform="translate(47.383 51.069)" fill="#fff"/>
            <rect id="Rectangle_21313" data-name="Rectangle 21313" width="19.282" height="0.806" transform="translate(7.207 51.069)" fill="#fff"/>
            <rect id="Rectangle_21314" data-name="Rectangle 21314" width="19.281" height="0.806" transform="translate(27.295 51.069)" fill="#fff"/>
            <rect id="Rectangle_21315" data-name="Rectangle 21315" width="6.401" height="0.806" transform="translate(0 51.069)" fill="#fff"/>
            <rect id="Rectangle_21316" data-name="Rectangle 21316" width="12.007" height="0.806" transform="translate(87.558 51.069)" fill="#fff"/>
            <rect id="Rectangle_21317" data-name="Rectangle 21317" width="19.281" height="0.806" transform="translate(27.295 30.981)" fill="#fff"/>
            <rect id="Rectangle_21318" data-name="Rectangle 21318" width="12.007" height="0.806" transform="translate(87.558 30.981)" fill="#fff"/>
            <rect id="Rectangle_21319" data-name="Rectangle 21319" width="19.282" height="0.806" transform="translate(7.207 30.981)" fill="#fff"/>
            <rect id="Rectangle_21320" data-name="Rectangle 21320" width="19.281" height="0.806" transform="translate(47.383 30.981)" fill="#fff"/>
            <rect id="Rectangle_21321" data-name="Rectangle 21321" width="6.401" height="0.806" transform="translate(0 30.981)" fill="#fff"/>
            <rect id="Rectangle_21322" data-name="Rectangle 21322" width="19.282" height="0.806" transform="translate(67.47 30.981)" fill="#fff"/>
            <rect id="Rectangle_21323" data-name="Rectangle 21323" width="19.282" height="0.806" transform="translate(67.47 10.894)" fill="#fff"/>
            <rect id="Rectangle_21324" data-name="Rectangle 21324" width="6.401" height="0.806" transform="translate(0 10.894)" fill="#fff"/>
            <rect id="Rectangle_21325" data-name="Rectangle 21325" width="12.007" height="0.806" transform="translate(87.558 10.894)" fill="#fff"/>
            <rect id="Rectangle_21326" data-name="Rectangle 21326" width="19.281" height="0.806" transform="translate(47.383 10.894)" fill="#fff"/>
            <rect id="Rectangle_21327" data-name="Rectangle 21327" width="19.282" height="0.806" transform="translate(7.207 10.894)" fill="#fff"/>
            <rect id="Rectangle_21328" data-name="Rectangle 21328" width="19.281" height="0.806" transform="translate(27.295 10.894)" fill="#fff"/>
            <path id="Path_441685" data-name="Path 441685" d="M1021.939,1239.842v68.584h.806v-99.565h-.806v30.981Z" transform="translate(-935.187 -1208.861)" fill="#fff"/>
            <path id="Path_441686" data-name="Path 441686" d="M903.039,1239.842v68.584h.806v-99.565h-.806v30.981Z" transform="translate(-836.375 -1208.861)" fill="#fff"/>
            <path id="Path_441687" data-name="Path 441687" d="M784.141,1239.842v68.584h.806v-99.565h-.806v30.981Z" transform="translate(-737.564 -1208.861)" fill="#fff"/>
            <path id="Path_441688" data-name="Path 441688" d="M665.243,1239.842v68.584h.806v-99.565h-.806v30.981Z" transform="translate(-638.754 -1208.861)" fill="#fff"/>
            <path id="Path_441689" data-name="Path 441689" d="M546.342,1300.911v7.515h.806v-99.565h-.806v92.05Z" transform="translate(-539.941 -1208.861)" fill="#fff"/>
          </g>
          <path id="Path_441690" data-name="Path 441690" d="M651.969,1358.98l-8.252,8.6v15.539H629.586V1321.67h14.131v28.7l27.214-28.7h15.8l-25.456,27.389,26.946,34.058H671.631Z" transform="translate(-608.171 -1301.661)" fill="#86a7ff"/>
        </g>
        <g id="Group_185292" data-name="Group 185292" transform="translate(280.834 87.914)">
          <g id="Group_185289" data-name="Group 185289" transform="translate(46.461 38.449)">
            <path id="Path_441691" data-name="Path 441691" d="M2132.637,990.64c-.057-.137.212-.605.266-.721a3.95,3.95,0,0,1,1.034-1.376,3.579,3.579,0,0,1,3.657-.393,3.808,3.808,0,0,1,1.695,1.47,17.7,17.7,0,0,1,.826,1.945,4.912,4.912,0,0,0,1.669,1.75c1.361.907,3.119,1.591,4.243,2.841a4.569,4.569,0,0,1,1.107,3.636,5.418,5.418,0,0,1-2.271,3.431C2139.7,1007.378,2132.65,990.669,2132.637,990.64Z" transform="translate(-2118.713 -987.803)" fill="#102048"/>
            <path id="Path_441692" data-name="Path 441692" d="M2120.022,1063.8c.243-8.948-2.565-17.565-9.249-19.119-8.239,1.477-9.55,11.761-9.137,18.879A76.106,76.106,0,0,1,2120.022,1063.8Z" transform="translate(-2092.901 -1035.055)" fill="#fbc343"/>
            <path id="Path_441693" data-name="Path 441693" d="M2091.627,1044.685s-12.552,1.4-13.1,13.135l5.052,3.42Z" transform="translate(-2073.754 -1035.055)" fill="#fbc343"/>
            <g id="Group_185284" data-name="Group 185284" transform="translate(0 25.536)">
              <path id="Path_441694" data-name="Path 441694" d="M2146.095,1143.485c-.645,4.208-5.595,4.869-9.005,5.53-1.637.323-3.281.58-4.942.806-1.6.226-3.217.4-4.829.564l-.766.073-.121-5.216-.065-2.685.436-.137c.959-.3,3.386-1.04,6.127-1.774,4.071-1.088,8.828-2.161,10.416-1.709A3.987,3.987,0,0,1,2146.095,1143.485Z" transform="translate(-2113.509 -1138.833)" fill="#3a6bea"/>
              <path id="Path_441695" data-name="Path 441695" d="M2057.429,1169.789l-7.17,6.587s7.811-.233,8.569-1.749Z" transform="translate(-2050.259 -1164.559)" fill="#102048"/>
              <path id="Path_441696" data-name="Path 441696" d="M2132.465,1158.086c-1.6.226-3.217.4-4.829.564l-.766.073-.121-5.216.371-2.822c.959-.3,3.854-1.175,6.595-1.909C2133.408,1150.542,2132.255,1155.111,2132.465,1158.086Z" transform="translate(-2113.826 -1147.096)" fill="#102048" opacity="0.3"/>
            </g>
            <g id="Group_185286" data-name="Group 185286" transform="translate(5.647 25.485)">
              <path id="Path_441697" data-name="Path 441697" d="M2093.943,1299.539s5.79-.311,8.51-3.731l-5.907-1.554Z" transform="translate(-2092.209 -1267.945)" fill="#1f3c88"/>
              <g id="Group_185285" data-name="Group 185285" transform="translate(1.925 24.838)">
                <path id="Path_441698" data-name="Path 441698" d="M2101.256,1285.546l2.085,10.245-8.263,2.546,2.56-5.257-1-5.525Z" transform="translate(-2095.078 -1285.546)" fill="#102048"/>
                <rect id="Rectangle_21329" data-name="Rectangle 21329" width="0.403" height="2.272" transform="translate(2.524 7.732) rotate(-79.921)" fill="#fff"/>
              </g>
              <path id="Path_441699" data-name="Path 441699" d="M2087.863,1139.231h0a10.2,10.2,0,0,0-3.944,7.5c-.353,6.432-.609,17.805,1.5,23.39,0,0,4.08-4.547,8.51-3.731l.233-21.684,2.915-6.179Z" transform="translate(-2083.681 -1138.532)" fill="#3a6bea"/>
            </g>
            <path id="Path_441700" data-name="Path 441700" d="M2136.116,1122.778a15.711,15.711,0,0,0-4.255,1.37,3.768,3.768,0,0,0-1.69,2.332h6.055l1.931.029,1.4-1.661-2.215-2.186Z" transform="translate(-2116.669 -1099.857)" fill="#e28b6d"/>
            <path id="Path_441701" data-name="Path 441701" d="M2156.047,1044.685s15.113,3.42,13.873,12.591c-.389,2.876-4.974,4.119-10.259,4.43,0,0,0-2.74-2.04-3.731l5.363-3.614Z" transform="translate(-2138.175 -1035.055)" fill="#fbc343"/>
            <g id="Group_185287" data-name="Group 185287" transform="translate(13.767)">
              <path id="Path_441702" data-name="Path 441702" d="M2140.856,1023.851v4.684a1.867,1.867,0,0,0,3.734,0v-4.684Z" transform="translate(-2139.317 -1017.741)" fill="#e28b6d"/>
              <path id="Path_441703" data-name="Path 441703" d="M2140.856,1028.746v2.6a4.814,4.814,0,0,0,2.952-2.42Z" transform="translate(-2139.317 -1021.809)" fill="#102048"/>
              <path id="Path_441704" data-name="Path 441704" d="M2131.9,994.653s-.87,5.272,1.484,5.374a4.909,4.909,0,0,0,3.016-1.036,2.975,2.975,0,0,0,1.217-2.334l.066-2.311-2.508-1.689A3.6,3.6,0,0,0,2131.9,994.653Z" transform="translate(-2131.747 -991.816)" fill="#e28b6d"/>
              <path id="Path_441705" data-name="Path 441705" d="M2132.677,990.521s2.173-1.529,3.4.226c1.826,2.6,2.448,1.865,2.448,1.865l.878.519s1.092-4.611-2.661-5.348C2133.88,987.22,2133.035,989.19,2132.677,990.521Z" transform="translate(-2132.52 -987.684)" fill="#102048"/>
              <path id="Path_441706" data-name="Path 441706" d="M2159.391,1009.383a1.016,1.016,0,1,0,1.479-.58A1.138,1.138,0,0,0,2159.391,1009.383Z" transform="translate(-2154.554 -1005.145)" fill="#e28b6d"/>
            </g>
            <g id="Group_185288" data-name="Group 185288" transform="translate(0.567 18.243)">
              <rect id="Rectangle_21330" data-name="Rectangle 21330" width="8.501" height="1.21" transform="translate(10.488 8.347)" fill="#1f3c88"/>
              <path id="Path_441707" data-name="Path 441707" d="M2068.484,1105.219h-11.741l-3.129-9.557h11.741Z" transform="translate(-2053.613 -1095.662)" fill="#1f3c88"/>
            </g>
            <path id="Path_441708" data-name="Path 441708" d="M2164.938,1102.918l-.215-.34,6.354-4.018.216.34Z" transform="translate(-2145.385 -1079.827)" fill="#e49b31"/>
            <path id="Path_441709" data-name="Path 441709" d="M2139.86,1069.448h-.022a2.842,2.842,0,0,1-2.367-1.159l.331-.231a2.445,2.445,0,0,0,2.038.987,2.945,2.945,0,0,0,2.419-1.19l.327.234A3.343,3.343,0,0,1,2139.86,1069.448Z" transform="translate(-2122.737 -1054.31)" fill="#e49b31"/>
          </g>
          <g id="Group_185291" data-name="Group 185291">
            <path id="Path_441710" data-name="Path 441710" d="M1814.167,798.777l-3.838-10.114a18.935,18.935,0,1,0-4.855,5.4Z" transform="translate(-1775.259 -760.102)" fill="#eb5d60"/>
            <g id="Group_185290" data-name="Group 185290" transform="translate(13.87 7.373)">
              <path id="Path_441711" data-name="Path 441711" d="M1860.27,818.852l-.032-.841a7.127,7.127,0,0,1,1.908-5.081c1.035-1.229,1.876-2.265,1.876-3.365,0-1.133-.743-1.877-2.361-1.942a6.111,6.111,0,0,0-3.2.971l-1.1-3.527a11.113,11.113,0,0,1,5.4-1.327c4.273,0,6.213,2.362,6.213,5.047,0,2.459-1.52,4.077-2.748,5.437a5.561,5.561,0,0,0-1.652,4.044v.582Zm-.843,4.466a2.9,2.9,0,1,1,2.882,2.944A2.805,2.805,0,0,1,1859.427,823.318Z" transform="translate(-1857.356 -803.742)" fill="#fff"/>
            </g>
          </g>
        </g>
        <g id="Group_185302" data-name="Group 185302" transform="translate(134.4 69.484)">
          <g id="Group_185299" data-name="Group 185299" transform="translate(40.814 9.316)">
            <g id="Group_185295" data-name="Group 185295" transform="translate(2.508 25.181)">
              <g id="Group_185293" data-name="Group 185293" transform="translate(23.359 47.256)">
                <path id="Path_441712" data-name="Path 441712" d="M1303.2,1134.909l1.357,11.969,11.017-.039-5.111-4.9-.886-6.412Z" transform="translate(-1303.198 -1134.909)" fill="#102048"/>
                <path id="Path_441713" data-name="Path 441713" d="M1330.648,1177.029l-.171-.365,2.569-1.2.171.365Z" transform="translate(-1325.868 -1168.608)" fill="#fff"/>
              </g>
              <g id="Group_185294" data-name="Group 185294" transform="translate(0 47.256)">
                <path id="Path_441714" data-name="Path 441714" d="M1177.586,1134.909l-.466,11.93h-12.183l5.387-4.9.5-6.665Z" transform="translate(-1164.937 -1134.909)" fill="#102048"/>
                <path id="Path_441715" data-name="Path 441715" d="M1198.883,1177.029l-2.568-1.2.171-.365,2.568,1.2Z" transform="translate(-1191.014 -1168.608)" fill="#fff"/>
              </g>
              <path id="Path_441716" data-name="Path 441716" d="M1202.44,855.2l-.226,2.386-.032.371-.242,2.612-1.225,13.133-2.733,29.4a2.439,2.439,0,0,1-2.435,2.225h-5.264a2.451,2.451,0,0,1-2.451-2.523c.435-14.665.532-28.362,1.79-39.979.129-1.3.29-2.572.46-3.813l6.417-1.983Z" transform="translate(-1183.963 -855.199)" fill="#3a6bea"/>
              <path id="Path_441717" data-name="Path 441717" d="M1260.242,866.626c1.432,13.624,3.594,28.108,6.276,43.2a2.123,2.123,0,0,1-2.087,2.5h-6.486a2.122,2.122,0,0,1-2.1-1.8l-7.07-46.347Z" transform="translate(-1234.613 -862.661)" fill="#3a6bea"/>
              <path id="Path_441718" data-name="Path 441718" d="M1218.4,868.167l-7.651,1.4-3.136.572-9.183,1.685c.129-1.3.29-2.572.459-3.813l6.417-1.983,1.717.282,3.967.645Z" transform="translate(-1192.772 -864.201)" fill="#102048" opacity="0.3"/>
              <path id="Path_441719" data-name="Path 441719" d="M1248.05,941.7l-2.063-14.844-2.82-.641.089-.393,3.092.7,2.1,15.12Z" transform="translate(-1229.95 -913.89)" fill="#102048"/>
            </g>
            <g id="Group_185297" data-name="Group 185297" transform="translate(0 10.027)">
              <g id="Group_185296" data-name="Group 185296" transform="translate(18.988 0.252)">
                <path id="Path_441720" data-name="Path 441720" d="M1349.436,778.44s3-4.4,3.617-4.232c.817.217-.476,1.821-.476,1.821s2.492-2.68,2.9-2.347-.716,1.854-.716,1.854,1.459-1.634,1.9-1.2-1.252,2.4-1.252,2.4,1.266-1.712,1.666-1.412-1.065,2.191-1.065,2.191,1.037-.867,1.249-.465-3.173,4.884-3.173,4.884l-4.048.223Z" transform="translate(-1334.746 -772.528)" fill="#f9b384"/>
                <path id="Path_441721" data-name="Path 441721" d="M1297.916,794.252l-4.1,4.886a22.126,22.126,0,0,0-1.109-2.18,20.7,20.7,0,0,0-6.376,3.837c1.479,3.321,3.2,6.332,4.883,7.274,4.306,2.415,10.435-9.017,10.435-9.017Z" transform="translate(-1282.302 -789.647)" fill="#f9b384"/>
                <path id="Path_441722" data-name="Path 441722" d="M1262.486,766.992a99.368,99.368,0,0,0,4.029,11.148,20.7,20.7,0,0,1,6.376-3.837C1268.623,766.951,1262.486,766.992,1262.486,766.992Z" transform="translate(-1262.486 -766.992)" fill="#102048"/>
              </g>
              <path id="Path_441723" data-name="Path 441723" d="M1220.457,784.621s-2.565-17.565-9.249-19.12c-8.239,1.477-10.672,11.846-10.259,18.964C1207.763,783.868,1220.457,784.621,1220.457,784.621Z" transform="translate(-1192.321 -765.501)" fill="#1f3c88"/>
              <path id="Path_441724" data-name="Path 441724" d="M1184.643,834.162s5.255-2.871,5.956-2.264-1.607,1.859-1.607,1.859,3.887-1.015,4.088-.482-1.641,1.476-1.641,1.476,2.221-.859,2.4-.219-2.553,1.461-2.553,1.461,2.175-.832,2.383-.335-2.256,1.377-2.256,1.377,1.477-.2,1.45.284-6.165,1.861-6.165,1.861l-3.588-1.322Z" transform="translate(-1177.529 -820.61)" fill="#f9b384"/>
              <path id="Path_441725" data-name="Path 441725" d="M1150.951,820.281s-2.141,4.88.35,6.956c2.8,2.332,12.008-3.07,12.008-3.07l-4.469-2.992a17.072,17.072,0,0,1,1.042-4.879,20.767,20.767,0,0,0-5.7-1.151A30,30,0,0,0,1150.951,820.281Z" transform="translate(-1150.095 -806.758)" fill="#f9b384"/>
              <path id="Path_441726" data-name="Path 441726" d="M1189.075,765.5s-8.177-.049-14.8,8.387a20.762,20.762,0,0,1,5.7,1.151C1181.4,771.246,1184.307,768.017,1189.075,765.5Z" transform="translate(-1170.188 -765.501)" fill="#1f3c88"/>
              <path id="Path_441727" data-name="Path 441727" d="M1207.267,793.025l-.383-.124a18.577,18.577,0,0,1,3.127-5.833l.317.249A18.189,18.189,0,0,0,1207.267,793.025Z" transform="translate(-1197.29 -783.424)" fill="#3a6bea"/>
              <rect id="Rectangle_21331" data-name="Rectangle 21331" width="3.444" height="0.403" transform="matrix(0.995, -0.102, 0.102, 0.995, 20.384, 6.707)" fill="#3a6bea"/>
              <rect id="Rectangle_21332" data-name="Rectangle 21332" width="6.518" height="0.403" transform="translate(3.306 14.326) rotate(-19.392)" fill="#e28b6d"/>
              <rect id="Rectangle_21333" data-name="Rectangle 21333" width="4.064" height="0.403" transform="translate(28.622 11.459) rotate(-47.056)" fill="#e28b6d"/>
            </g>
            <g id="Group_185298" data-name="Group 185298" transform="translate(13.86)">
              <path id="Path_441728" data-name="Path 441728" d="M1251.1,742.317V747a1.867,1.867,0,1,1-3.734,0v-4.684Z" transform="translate(-1244.788 -736.207)" fill="#f9b384"/>
              <path id="Path_441729" data-name="Path 441729" d="M1254.942,747.212v2.6a4.814,4.814,0,0,1-2.952-2.42Z" transform="translate(-1248.635 -740.275)" fill="#102048"/>
              <path id="Path_441730" data-name="Path 441730" d="M1249.194,713.123s.87,5.271-1.484,5.374-4.2-2.1-4.2-2.1l-.1-3.583,2.508-1.689Z" transform="translate(-1241.506 -710.286)" fill="#f9b384"/>
              <path id="Path_441731" data-name="Path 441731" d="M1243.81,708.987s-1.919-1.407-3.224-.9-2.073,1.228-2.073,3.762l-1.433-.256s-1.092-4.611,2.661-5.348C1242.607,705.686,1243.452,707.656,1243.81,708.987Z" transform="translate(-1236.121 -706.15)" fill="#eb5d60"/>
              <ellipse id="Ellipse_3221" data-name="Ellipse 3221" cx="1.113" cy="1.395" rx="1.113" ry="1.395" transform="translate(0 5.213) rotate(-38.429)" fill="#f9b384"/>
            </g>
          </g>
          <g id="Group_185301" data-name="Group 185301">
            <path id="Path_441732" data-name="Path 441732" d="M936.881,651.011H911.589a3.075,3.075,0,0,0-3.074,3.075v12.931a3.075,3.075,0,0,0,3.074,3.075H925.7l8.347,6.45v-6.45h2.837a3.075,3.075,0,0,0,3.075-3.075V654.086A3.075,3.075,0,0,0,936.881,651.011Z" transform="translate(-908.514 -651.011)" fill="#3a6bea"/>
            <g id="Group_185300" data-name="Group 185300" transform="translate(6.297 7.194)">
              <circle id="Ellipse_3222" data-name="Ellipse 3222" cx="2.085" cy="2.085" r="2.085" fill="#fff"/>
              <circle id="Ellipse_3223" data-name="Ellipse 3223" cx="2.085" cy="2.085" r="2.085" transform="translate(7.339)" fill="#fff"/>
              <circle id="Ellipse_3224" data-name="Ellipse 3224" cx="2.085" cy="2.085" r="2.085" transform="translate(14.678)" fill="#fff"/>
            </g>
          </g>
        </g>
        <g id="Group_185313" data-name="Group 185313" transform="translate(386.411 159.103)">
          <g id="Group_185310" data-name="Group 185310" transform="translate(0 29.386)">
            <g id="Group_185307" data-name="Group 185307" transform="translate(20.459 21.88)">
              <g id="Group_185306" data-name="Group 185306" transform="translate(4.882 41.985)">
                <path id="Path_441737" data-name="Path 441737" d="M2559.141,1733.412l2.541,11.343-11.517-.041,4.528-3.868-1.219-5.545Z" transform="translate(-2550.165 -1733.412)" fill="#102048"/>
                <path id="Path_441738" data-name="Path 441738" d="M2578.558,1777.468l-2.071-1.1.283-.534,2.071,1.1Z" transform="translate(-2572.04 -1768.67)" fill="#fff"/>
              </g>
              <path id="Path_441739" data-name="Path 441739" d="M2723.9,1688.327l5.728,10.847-8.4,8.115.6-8.542-3.108-6.581Z" transform="translate(-2685.357 -1653.959)" fill="#102048"/>
              <path id="Path_441740" data-name="Path 441740" d="M2526.013,1494.029l.6,2.333s-6.023,11.164-5.289,16.306,7.215,17.877,7.215,17.877l8.531-.731-4.144-18.769,7.2-11.3-5.582-14.837Z" transform="translate(-2521.266 -1484.904)" fill="#fbc343"/>
              <path id="Path_441741" data-name="Path 441741" d="M2582.5,1497.666s8.707,19.658,19.8,32.821l-8.836,6.155c-8.243-9.466-15.89-22.9-24.07-37.05Z" transform="translate(-2561.26 -1495.51)" fill="#fbc343"/>
              <rect id="Rectangle_21334" data-name="Rectangle 21334" width="0.605" height="3.169" transform="translate(36.46 45.456) rotate(-88.904)" fill="#fff"/>
              <path id="Path_441742" data-name="Path 441742" d="M2593.2,1597.4l-4.162-18.849.045-.07,7.789-12.3.34.216-7.745,12.233,4.125,18.687Z" transform="translate(-2577.587 -1552.444)" fill="#e49b31"/>
              <path id="Path_441743" data-name="Path 441743" d="M2621.616,1572.723s.052,4.644-.083,7.13l-2.217-3.494Z" transform="translate(-2602.75 -1557.886)" fill="#e49b31"/>
              <path id="Path_441744" data-name="Path 441744" d="M2545.657,1562.762c-.051-.123-5.089-12.343-5.524-18.875-.263-3.939,4.417-15.058,4.83-16.03l-.528-3.707.4-.057.545,3.818-.023.052c-.051.119-5.084,11.959-4.822,15.9.431,6.467,5.444,18.625,5.495,18.747Z" transform="translate(-2536.937 -1517.473)" fill="#e49b31"/>
            </g>
            <g id="Group_185308" data-name="Group 185308" transform="translate(16.02)">
              <path id="Path_441745" data-name="Path 441745" d="M2531.682,1394.955l3.341-2.424-2.853-4.491-1.128-.272-2.272,2.079.055.1,1.4,2.458Z" transform="translate(-2523.063 -1382.299)" fill="#f9b384"/>
              <path id="Path_441746" data-name="Path 441746" d="M2530.5,1397.33a4.337,4.337,0,0,0,.678-3.635l-2.082,1.177Z" transform="translate(-2523.334 -1387.225)" fill="#102048"/>
              <path id="Path_441747" data-name="Path 441747" d="M2505.446,1368.691s1.765,6.187,4.052,5.374,2.764-3.683,2.764-3.683l-2.223-2.837-2.095-.494Z" transform="translate(-2503.68 -1365.083)" fill="#f9b384"/>
              <ellipse id="Ellipse_3225" data-name="Ellipse 3225" cx="0.726" cy="0.699" rx="0.726" ry="0.699" transform="matrix(0.836, -0.549, 0.549, 0.836, 1.982, 6.484)" fill="#f9b384"/>
              <path id="Path_441748" data-name="Path 441748" d="M2500.3,1360.323s-.76-2.19-1.815-1.366-2.443,1.473-3.2.55a1.864,1.864,0,0,1,.772-2.607,18.231,18.231,0,0,1,1.892-.584c.659-.247,1.3-.545,1.977-.739a2.533,2.533,0,0,1,2.849.588c1.531,2.033,2.365,5.268,1.788,5.888s-2.734-1.9-3.417-1.342Z" transform="translate(-2494.99 -1355.399)" fill="#102048"/>
              <path id="Path_441749" data-name="Path 441749" d="M2524.826,1379.2a.814.814,0,1,0,.514-1.172A.918.918,0,0,0,2524.826,1379.2Z" transform="translate(-2519.752 -1374.187)" fill="#f9b384"/>
            </g>
            <g id="Group_185309" data-name="Group 185309" transform="translate(0 8.795)">
              <path id="Path_441750" data-name="Path 441750" d="M2552.714,1422.7s-10.738,1.9-16.494,6.965a24.943,24.943,0,0,1-1.169-3.741,49.606,49.606,0,0,1-1.29-6.8c-.564-4.9-.161-9.989,3.378-11.359C2544.547,1404.9,2552.714,1422.7,2552.714,1422.7Z" transform="translate(-2511.016 -1407.454)" fill="#d3dfff"/>
              <path id="Path_441751" data-name="Path 441751" d="M2536.081,1467.807a49.639,49.639,0,0,1-1.29-6.8l4.673-3.158A21.077,21.077,0,0,1,2536.081,1467.807Z" transform="translate(-2512.047 -1449.338)" fill="#86a7ff"/>
              <path id="Path_441752" data-name="Path 441752" d="M2405.885,1428.243l-2.989-1.012s-1.479-6.544-2.089-5.285c-.758,1.567-.661,8.013-.6,10.4a1.4,1.4,0,0,0,.847,1.245l3.447,1.477,2.6-3.778Z" transform="translate(-2400.167 -1419.364)" fill="#f9b384"/>
              <path id="Path_441753" data-name="Path 441753" d="M2446.147,1413.841s-6.256,6.5-7.962,9.831l-10.969-2.031-1.381,6.825,10.153,2.952a7.659,7.659,0,0,0,2.657.287h0a7.659,7.659,0,0,0,5.546-2.963l5.856-7.589Z" transform="translate(-2421.499 -1412.762)" fill="#d3dfff"/>
            </g>
          </g>
          <g id="Group_185312" data-name="Group 185312" transform="translate(35.798)">
            <g id="Group_185311" data-name="Group 185311">
              <rect id="Rectangle_21335" data-name="Rectangle 21335" width="16.356" height="16.356" transform="translate(0.403 0.403)" fill="#fff"/>
              <path id="Path_441754" data-name="Path 441754" d="M2629.219,1198.628h-17.162v-17.162h17.162Zm-16.356-.806h15.55v-15.55h-15.55Z" transform="translate(-2612.057 -1181.466)" fill="#86a7ff"/>
            </g>
            <path id="Path_441755" data-name="Path 441755" d="M2642.606,1210.345l-3.554-5.8.688-.422,2.808,4.581,4.358-8.406.716.372Z" transform="translate(-2634.492 -1197.12)" fill="#86a7ff"/>
          </g>
        </g>
        <g id="Group_185325" data-name="Group 185325" transform="translate(6.215 157.034)">
          <g id="Group_185320" data-name="Group 185320" transform="translate(15.758 26.038)">
            <g id="Group_185314" data-name="Group 185314" transform="translate(0 10.906)">
              <path id="Path_441756" data-name="Path 441756" d="M248.953,1513.117s.4,5.459-.382,5.753-.948-2.1-.948-2.1-.639,3.551-1.165,3.478-.612-1.959-.612-1.959-.13,2.151-.737,2.012-.249-2.682-.249-2.682-.136,2.1-.634,2.051-.292-2.407-.292-2.407-.4,1.267-.8,1.033.82-5.906.82-5.906l2.475-2.122Z" transform="translate(-243.057 -1489.591)" fill="#f9b384"/>
              <path id="Path_441757" data-name="Path 441757" d="M257.59,1387.889s-6.839,2.574-9.266,22.8l4.891,1.305Z" transform="translate(-247.434 -1387.889)" fill="#e49b31"/>
            </g>
            <g id="Group_185317" data-name="Group 185317" transform="translate(2.88 25.32)">
              <g id="Group_185315" data-name="Group 185315" transform="translate(10.732 45.154)">
                <path id="Path_441758" data-name="Path 441758" d="M324.622,1740.585l-.993,10.59h11.583l-5.405-4.633.882-6.067Z" transform="translate(-323.629 -1740.474)" fill="#102048"/>
                <rect id="Rectangle_21336" data-name="Rectangle 21336" width="2.418" height="0.605" transform="matrix(0.882, -0.471, 0.471, 0.882, 3.902, 6.94)" fill="#fff"/>
              </g>
              <g id="Group_185316" data-name="Group 185316" transform="translate(0.914 45.154)">
                <path id="Path_441759" data-name="Path 441759" d="M266.511,1740.585l-.993,10.59H277.1l-5.405-4.633.882-6.067Z" transform="translate(-265.518 -1740.474)" fill="#102048"/>
                <rect id="Rectangle_21337" data-name="Rectangle 21337" width="2.623" height="0.604" transform="matrix(0.855, -0.519, 0.519, 0.855, 3.778, 7.17)" fill="#fff"/>
              </g>
              <path id="Path_441760" data-name="Path 441760" d="M306.483,1475.78s2.084,6.746,4.052,12.027a22.5,22.5,0,0,1,1.338,9.694c-.526,6.438-1.636,17.017-3.587,23.066l-9.855-.441,1.765-24.563-5.295-22.357Z" transform="translate(-289.022 -1473.206)" fill="#7d69ed"/>
              <path id="Path_441761" data-name="Path 441761" d="M262.179,1482.38s-2.372,32.1-2.041,43.132l9.377.221,3.64-28.9-5.516-16.878Z" transform="translate(-260.107 -1478.813)" fill="#7d69ed"/>
              <path id="Path_441762" data-name="Path 441762" d="M296.257,1584.717l-.4-.028,1.762-24.529-2.28-8.4-3.294-.453.055-.4,3.558.489,2.368,8.719,0,.034Z" transform="translate(-286.647 -1537.784)" fill="#102048"/>
              <path id="Path_441763" data-name="Path 441763" d="M346.008,1532.752l-.4-.077c.035-.181,3.518-18.2,3.121-25.547s-5.475-18.86-5.526-18.975l.368-.164c.052.117,5.159,11.709,5.56,19.117S346.043,1532.57,346.008,1532.752Z" transform="translate(-329.167 -1485.491)" fill="#102048"/>
            </g>
            <g id="Group_185318" data-name="Group 185318" transform="translate(8.985)">
              <path id="Path_441764" data-name="Path 441764" d="M309.66,1370.34l-3.98-.186-.076-5.136.766-.817,2.934.474.008.11.169,2.727Z" transform="translate(-304.021 -1357.297)" fill="#f9b384"/>
              <path id="Path_441765" data-name="Path 441765" d="M316.4,1370.386a4.186,4.186,0,0,1-2.473-2.575l2.3-.152Z" transform="translate(-310.937 -1360.171)" fill="#102048"/>
              <path id="Path_441766" data-name="Path 441766" d="M311.33,1335.835s1.853,5.928-.423,6.484-4.182-1.509-4.182-1.509l.291-3.467,1.429-1.509Z" transform="translate(-304.953 -1333.723)" fill="#f9b384"/>
              <path id="Path_441767" data-name="Path 441767" d="M335.072,1350.921a.7.7,0,1,1-.7-.675A.688.688,0,0,1,335.072,1350.921Z" transform="translate(-327.345 -1345.7)" fill="#f9b384"/>
              <path id="Path_441768" data-name="Path 441768" d="M300.453,1328.386s-.547-2.17.741-2.064,2.753-.106,2.876-1.253a1.832,1.832,0,0,0-3.229-1.059s-4.429-.123-4.587,2.329.882,5.5,1.676,5.7,1.2-2.982,2.047-2.894Z" transform="translate(-296.238 -1323.337)" fill="#102048"/>
              <path id="Path_441769" data-name="Path 441769" d="M315.143,1349.438a.786.786,0,1,1-1.036-.674A.886.886,0,0,1,315.143,1349.438Z" transform="translate(-310.693 -1344.442)" fill="#f9b384"/>
            </g>
            <path id="Path_441770" data-name="Path 441770" d="M287.64,1402.677a.141.141,0,0,1-.04-.008,41.8,41.8,0,0,0-4.781-.443c-3.168-.129-7.312.065-10.569,1.443-.161.073.161-18.2,7.006-18.422S287.64,1402.677,287.64,1402.677Z" transform="translate(-267.295 -1374.786)" fill="#fbc343"/>
            <path id="Path_441771" data-name="Path 441771" d="M333.234,1421.536a41.772,41.772,0,0,0-4.781-.443,23.958,23.958,0,0,1-.738-13.145Z" transform="translate(-312.929 -1393.653)" fill="#e49b31"/>
            <g id="Group_185319" data-name="Group 185319" transform="translate(12.951 10.538)">
              <path id="Path_441772" data-name="Path 441772" d="M377.72,1504.773s3.953,4.265,3.512,5.037-2.169-1.1-2.169-1.1,1.839,3.383,1.361,3.677-1.8-1.214-1.8-1.214,1.324,1.875.735,2.17-1.985-2.059-1.985-2.059,1.287,1.839.846,2.133-1.839-1.8-1.839-1.8.515,1.324.037,1.4-3.162-5.313-3.162-5.313l.515-3.585Z" transform="translate(-364.207 -1484.108)" fill="#f9b384"/>
              <path id="Path_441773" data-name="Path 441773" d="M319.712,1385.712s4.6.018,7.06,5.387c1.489,3.254,3.365,9.928,6.453,15.278l-4.468,2.923s-6.913-9.616-7.5-18.22Z" transform="translate(-319.712 -1385.712)" fill="#fbc343"/>
            </g>
          </g>
          <g id="Group_185324" data-name="Group 185324">
            <g id="Group_185322" data-name="Group 185322">
              <g id="Group_185321" data-name="Group 185321">
                <path id="Path_441774" data-name="Path 441774" d="M171.647,1190.964l-1.921-5.062a9.477,9.477,0,1,0-2.43,2.7Z" transform="translate(-151.77 -1171.203)" fill="#fff"/>
                <path id="Path_441775" data-name="Path 441775" d="M170.426,1189.853l-5.081-2.758a9.754,9.754,0,0,1-5.705,1.831,9.879,9.879,0,1,1,8.548-4.971Zm-10.786-19.827a9.047,9.047,0,1,0,0,18.095,8.963,8.963,0,0,0,5.43-1.823l.207-.156,3.624,1.968-1.6-4.229.1-.168a9.033,9.033,0,0,0-7.757-13.686Z" transform="translate(-149.786 -1169.219)" fill="#86a7ff"/>
              </g>
            </g>
            <g id="Group_185323" data-name="Group 185323" transform="translate(4.41 8.736)">
              <path id="Path_441776" data-name="Path 441776" d="M178.237,1222.1a1.174,1.174,0,1,1-1.174-1.174A1.174,1.174,0,0,1,178.237,1222.1Z" transform="translate(-175.889 -1220.925)" fill="#86a7ff"/>
              <path id="Path_441777" data-name="Path 441777" d="M202.691,1222.1a1.174,1.174,0,1,1-1.174-1.174A1.174,1.174,0,0,1,202.691,1222.1Z" transform="translate(-196.212 -1220.925)" fill="#86a7ff"/>
              <path id="Path_441778" data-name="Path 441778" d="M227.146,1222.1a1.174,1.174,0,1,1-1.174-1.174A1.174,1.174,0,0,1,227.146,1222.1Z" transform="translate(-216.535 -1220.925)" fill="#86a7ff"/>
            </g>
          </g>
        </g>
        <rect id="Rectangle_21338" data-name="Rectangle 21338" width="471.6" height="1.209" transform="translate(0 263.238)" fill="#102048"/>
      </g>
    </g>
  </g>
</svg>
