<svg id="Group_185060" data-name="Group 185060" xmlns="http://www.w3.org/2000/svg" width="47.035" height="47.028" viewBox="0 0 47.035 47.028">
  <path id="Path_440995" data-name="Path 440995" d="M599.016,279.171A19.292,19.292,0,1,1,618.247,298.5,19.318,19.318,0,0,1,599.016,279.171Zm18.357-2.734c-.354.1-.5.15-.64.18a7.981,7.981,0,0,0-6.522,6.725,37.5,37.5,0,0,0-.134,5.677c.009.772.647,1.2,1.564,1.206q6.659.012,13.318,0c1.111,0,1.6-.516,1.614-1.648.012-1.316.017-2.632,0-3.948a8.265,8.265,0,0,0-6.582-8c-.2-.042-.384-.116-.664-.2,3.277-1.17,4.94-3.611,4.424-6.37a5.516,5.516,0,0,0-10.9.076C612.388,272.91,614.087,275.354,617.373,276.438Z" transform="translate(-590.565 -259.921)"/>
  <path id="Path_440996" data-name="Path 440996" d="M562.527,432.508a23,23,0,0,0,5.786,5.789c-.141.172-.223.293-.325.394q-3.89,3.893-7.783,7.783a4.04,4.04,0,0,1-4.09,1.221,4.1,4.1,0,0,1-2.025-6.775c.245-.273.511-.526.77-.786q3.469-3.47,6.941-6.938C562.014,432.983,562.238,432.782,562.527,432.508Z" transform="translate(-552.997 -400.813)"/>
  <path id="Path_440998" data-name="Path 440998" d="M685.012,373.231h-11c.017-1.845-.313-3.7.681-5.431a5.512,5.512,0,0,1,10.312,2.518C685.034,371.261,685.012,372.2,685.012,373.231Z" transform="translate(-651.758 -345.695)"/>
  <path id="Path_440999" data-name="Path 440999" d="M691.851,304.944a2.754,2.754,0,1,1-2.789,2.7A2.766,2.766,0,0,1,691.851,304.944Z" transform="translate(-664.074 -296.676)"/>
</svg>
