<svg xmlns="http://www.w3.org/2000/svg" width="45.279" height="47.11" viewBox="0 0 45.279 47.11">
  <g id="Group_185065" data-name="Group 185065" transform="translate(-723.525 -281.524)">
    <path id="Path_441027" data-name="Path 441027" d="M924.726,366.235c-1.51-1.613-1.076-3.692-1.438-5.641q2.043-1.871,4.069-3.729c.384-.352.785-.69,1.143-1.066a3.837,3.837,0,0,0,.284-5.186,3.876,3.876,0,0,0-5.212-.747c-.128.083-.255.168-.4.261a3.082,3.082,0,0,1,2.361-1.984,3.854,3.854,0,0,1,4.711,3.358c.346,3.169.622,6.346.922,9.521a22.545,22.545,0,0,1,.174,2.474,5.221,5.221,0,0,1-.34,1.6c-.9,2.57-1.908,5.1-2.7,7.706a6.887,6.887,0,0,0,.161,2.63c.171,1.43.394,2.854.58,4.282a2.725,2.725,0,1,1-5.393.759c-.282-1.879-.44-3.779-.788-5.644a8.15,8.15,0,0,1,.523-4.664C923.895,368.887,924.278,367.562,924.726,366.235Z" transform="translate(-162.54 -54.283)"/>
    <path id="Path_441028" data-name="Path 441028" d="M724.459,385.568q1.4,2.939,2.791,5.878a3.8,3.8,0,0,0,1.88,2.054,19.856,19.856,0,0,0,2.041.62c.146.852-.013,1.321-1,2.775.479,1.41.927,2.872,1.474,4.294a7.16,7.16,0,0,1,.4,3.95c-.343,1.927-.528,3.882-.8,5.823a2.733,2.733,0,0,1-3.654,2.389,2.706,2.706,0,0,1-1.774-2.9c.231-1.853.479-3.7.759-5.551a4.4,4.4,0,0,0-.2-2.246c-.681-1.867-1.3-3.759-1.937-5.641a2.965,2.965,0,0,0-.253-.687,5.321,5.321,0,0,1-.582-3.723c.253-2.341.453-4.687.676-7.031Z" transform="translate(0 -84.896)"/>
    <path id="Path_441029" data-name="Path 441029" d="M738.637,363.184c1.073-.1,2.135-.2,3.2-.292.549-.049,1.1-.113,1.65-.123a2.246,2.246,0,0,1,2.409,2.131,2.288,2.288,0,0,1-2.065,2.488c-1.278.154-2.561.257-3.843.376-.854.079-1.709.159-2.565.216a2.288,2.288,0,0,1-2.369-1.4c-1.2-2.482-2.389-4.966-3.549-7.465a2.331,2.331,0,1,1,4.2-2.018c.921,1.867,1.8,3.756,2.693,5.635C738.459,362.864,738.535,362.993,738.637,363.184Z" transform="translate(-6.292 -60.49)"/>
    <path id="Path_441030" data-name="Path 441030" d="M862.63,372.33c-1.073,0-2.147.021-3.219-.01a4,4,0,0,1-1.342-.228,2.266,2.266,0,0,1-1.348-2.468,2.314,2.314,0,0,1,2.24-1.953,33.787,33.787,0,0,1,4.136.007,4.281,4.281,0,0,0,3.885-1.488c.954-1.07,2.11-1.958,3.171-2.933a2.389,2.389,0,0,1,2.182-.709,2.327,2.327,0,0,1,1.237,3.881c-.452.5-.981.924-1.478,1.38-1.311,1.2-2.645,2.378-3.929,3.608a3.166,3.166,0,0,1-2.407.921C864.716,372.308,863.673,372.33,862.63,372.33Z" transform="translate(-108.654 -66.071)"/>
    <path id="Path_441031" data-name="Path 441031" d="M747.133,296.145a4.8,4.8,0,1,1-4.818-4.759A4.78,4.78,0,0,1,747.133,296.145Z" transform="translate(-11.421 -8.046)"/>
    <path id="Path_441032" data-name="Path 441032" d="M908.165,300.989a4.8,4.8,0,1,1,4.842-4.745A4.779,4.779,0,0,1,908.165,300.989Z" transform="translate(-146.769 -8.046)"/>
    <path id="Path_441033" data-name="Path 441033" d="M830.4,293.269c-.289-.049-.588-.088-.88-.154a5.616,5.616,0,0,1-1.058-.288.962.962,0,0,1-.5-1.24.836.836,0,0,1,1.028-.555,5.872,5.872,0,0,0,.715.16,9.618,9.618,0,0,0,1.91.011,1.247,1.247,0,0,0,.746-.686.8.8,0,0,0-.426-1.008,10.172,10.172,0,0,0-.985-.484c-.584-.266-1.195-.482-1.753-.793a2.5,2.5,0,0,1-1.4-2.406,2.716,2.716,0,0,1,1.62-2.387c.323-.164.676-.27,1.046-.414.14-.568-.083-1.382.837-1.494.51-.063.759.324.928,1.367.4.077.827.132,1.235.242.651.176.922.579.8,1.123s-.555.789-1.2.705a15.721,15.721,0,0,0-1.637-.161c-.475-.012-.943.11-1.087.653-.15.564.23.846.667,1.056.413.2.838.372,1.256.56.39.176.793.331,1.165.54a2.66,2.66,0,0,1,1.5,2.54,2.834,2.834,0,0,1-1.665,2.555,11.76,11.76,0,0,1-1.165.463c-.144,1.288-.324,1.626-.88,1.574C830.327,294.665,830.54,293.891,830.4,293.269Z" transform="translate(-85.078)"/>
    <path id="Path_441034" data-name="Path 441034" d="M802.961,368.434c.745-1.207,1.4-2.311,2.1-3.39.441-.683.84-.761,1.549-.348.689.4,1.37.816,2.036,1.253.646.425.785.847.411,1.476-.937,1.575-1.917,3.125-2.982,4.853A4.2,4.2,0,0,0,802.961,368.434Z" transform="translate(-64.816 -67.659)"/>
    <path id="Path_441035" data-name="Path 441035" d="M752.583,348.772a3.516,3.516,0,0,1,2.778,1.516c1.272,1.524,2.556,3.038,3.861,4.586l1.393-.259-.574,1.016-3.06.293c-.3-.62-.6-1.215-.884-1.815-.422-.881-.868-1.752-1.25-2.65A5.125,5.125,0,0,0,752.583,348.772Z" transform="translate(-23.709 -54.871)"/>
  </g>
</svg>
