<svg xmlns="http://www.w3.org/2000/svg" width="500.774" height="256.867" viewBox="0 0 500.774 256.867">
  <g id="Group_186375" data-name="Group 186375" transform="translate(-135 -1476.424)">
    <g id="Group_185525" data-name="Group 185525" transform="translate(12.138 1154.357)">
      <g id="Group_185507" data-name="Group 185507" transform="translate(243.679 322.067)">
        <rect id="Rectangle_21379" data-name="Rectangle 21379" width="179.232" height="252.762" rx="5.31" transform="translate(0 0)" fill="#86a7ff"/>
        <rect id="Rectangle_21380" data-name="Rectangle 21380" width="63.172" height="10.605" transform="translate(58.03 11.122)" fill="#d3dfff"/>
        <rect id="Rectangle_21381" data-name="Rectangle 21381" width="143.475" height="31.82" transform="translate(17.879 37.892)" fill="#dadada"/>
        <rect id="Rectangle_21382" data-name="Rectangle 21382" width="130.918" height="23.115" transform="translate(24.157 42.244)" fill="#fff"/>
        <g id="Group_185501" data-name="Group 185501" transform="translate(108.889 84.471)">
          <rect id="Rectangle_21383" data-name="Rectangle 21383" width="20.343" height="12.849" rx="6.425" fill="#1f3c88"/>
          <rect id="Rectangle_21384" data-name="Rectangle 21384" width="20.343" height="12.849" rx="6.425" transform="translate(32.121)" fill="#1f3c88"/>
        </g>
        <g id="Group_185502" data-name="Group 185502" transform="translate(18.862 112.846)">
          <rect id="Rectangle_21385" data-name="Rectangle 21385" width="24.625" height="16.776" rx="8.388" transform="translate(117.863)" fill="#1f3c88"/>
          <rect id="Rectangle_21386" data-name="Rectangle 21386" width="24.625" height="16.776" rx="8.388" transform="translate(78.575)" fill="#1f3c88"/>
          <rect id="Rectangle_21387" data-name="Rectangle 21387" width="24.625" height="16.776" rx="8.388" transform="translate(39.288)" fill="#1f3c88"/>
          <rect id="Rectangle_21388" data-name="Rectangle 21388" width="24.625" height="16.776" rx="8.388" fill="#1f3c88"/>
        </g>
        <g id="Group_185503" data-name="Group 185503" transform="translate(18.862 143.185)">
          <rect id="Rectangle_21389" data-name="Rectangle 21389" width="24.625" height="16.776" rx="8.388" transform="translate(117.863)" fill="#1f3c88"/>
          <rect id="Rectangle_21390" data-name="Rectangle 21390" width="24.625" height="16.776" rx="8.388" transform="translate(78.575)" fill="#d3dfff"/>
          <rect id="Rectangle_21391" data-name="Rectangle 21391" width="24.625" height="16.776" rx="8.388" transform="translate(39.288)" fill="#d3dfff"/>
          <rect id="Rectangle_21392" data-name="Rectangle 21392" width="24.625" height="16.776" rx="8.388" fill="#d3dfff"/>
        </g>
        <g id="Group_185504" data-name="Group 185504" transform="translate(18.862 173.524)">
          <rect id="Rectangle_21393" data-name="Rectangle 21393" width="24.625" height="16.776" rx="8.388" transform="translate(117.863)" fill="#1f3c88"/>
          <rect id="Rectangle_21394" data-name="Rectangle 21394" width="24.625" height="16.776" rx="8.388" transform="translate(78.575)" fill="#d3dfff"/>
          <rect id="Rectangle_21395" data-name="Rectangle 21395" width="24.625" height="16.776" rx="8.388" transform="translate(39.288)" fill="#d3dfff"/>
          <rect id="Rectangle_21396" data-name="Rectangle 21396" width="24.625" height="16.776" rx="8.388" fill="#d3dfff"/>
        </g>
        <g id="Group_185505" data-name="Group 185505" transform="translate(18.862 204.934)">
          <rect id="Rectangle_21397" data-name="Rectangle 21397" width="24.625" height="16.776" rx="8.388" transform="translate(117.863)" fill="#fbc343"/>
          <rect id="Rectangle_21398" data-name="Rectangle 21398" width="24.625" height="16.776" rx="8.388" transform="translate(78.575)" fill="#d3dfff"/>
          <rect id="Rectangle_21399" data-name="Rectangle 21399" width="24.625" height="16.776" rx="8.388" transform="translate(39.288)" fill="#d3dfff"/>
          <rect id="Rectangle_21400" data-name="Rectangle 21400" width="24.625" height="16.776" rx="8.388" fill="#d3dfff"/>
        </g>
        <g id="Group_185506" data-name="Group 185506" transform="translate(125.475 47.12)">
          <path id="Path_442067" data-name="Path 442067" d="M1423.533,755.787a7.305,7.305,0,0,0,1.413-.06,4.871,4.871,0,0,0,2.706-1.254,5.676,5.676,0,0,0,1.711-3.443h-.058a3.8,3.8,0,0,1-3.045,1.393,3.747,3.747,0,0,1-3.821-3.961,4.435,4.435,0,0,1,4.417-4.6c2.646,0,4.278,2.15,4.278,5.453a8.174,8.174,0,0,1-2.228,6.071,6.473,6.473,0,0,1-3.761,1.732,8.181,8.181,0,0,1-1.612.1Zm.637-7.444a2.489,2.489,0,0,0,2.487,2.746,2.893,2.893,0,0,0,2.547-1.353,1.145,1.145,0,0,0,.159-.637c0-2.209-.815-3.9-2.646-3.9C1425.224,745.2,1424.17,746.512,1424.17,748.343Z" transform="translate(-1422.439 -743.865)" fill="#3a6bea"/>
          <path id="Path_442068" data-name="Path 442068" d="M1474.008,755.787a7.305,7.305,0,0,0,1.413-.06,4.872,4.872,0,0,0,2.707-1.254,5.675,5.675,0,0,0,1.711-3.443h-.058a3.8,3.8,0,0,1-3.045,1.393,3.747,3.747,0,0,1-3.821-3.961,4.435,4.435,0,0,1,4.417-4.6c2.646,0,4.278,2.15,4.278,5.453a8.174,8.174,0,0,1-2.228,6.071,6.475,6.475,0,0,1-3.761,1.732,8.183,8.183,0,0,1-1.612.1Zm.637-7.444a2.489,2.489,0,0,0,2.487,2.746,2.893,2.893,0,0,0,2.547-1.353,1.147,1.147,0,0,0,.159-.637c0-2.209-.815-3.9-2.646-3.9C1475.7,745.2,1474.645,746.512,1474.645,748.343Z" transform="translate(-1462.698 -743.865)" fill="#3a6bea"/>
        </g>
      </g>
      <g id="Group_185512" data-name="Group 185512" transform="translate(328.995 417.602)">
        <g id="Group_185508" data-name="Group 185508" transform="translate(141.012 86.03)">
          <rect id="Rectangle_21401" data-name="Rectangle 21401" width="97.788" height="71.732" fill="#fbc343"/>
          <rect id="Rectangle_21402" data-name="Rectangle 21402" width="26.054" height="1.07" transform="translate(71.737 16.239)" fill="#e49b31"/>
          <rect id="Rectangle_21403" data-name="Rectangle 21403" width="45.326" height="1.07" transform="translate(52.465 55.501)" fill="#e49b31"/>
          <path id="Path_442069" data-name="Path 442069" d="M1969.5,1434.157a82.285,82.285,0,0,1-3.769,24.617,29.358,29.358,0,0,1-28.01,20.581h-16.971v-71.186h44.542A82.414,82.414,0,0,1,1969.5,1434.157Z" transform="translate(-1920.748 -1408.165)" fill="#e49b31"/>
        </g>
        <g id="Group_185509" data-name="Group 185509" transform="translate(0 123.015)">
          <path id="Rectangle_21404" data-name="Rectangle 21404" d="M8.684,0H81.651a8.684,8.684,0,0,1,8.684,8.684v0a8.684,8.684,0,0,1-8.684,8.684H8.684A8.684,8.684,0,0,1,0,8.684v0A8.684,8.684,0,0,1,8.684,0Z" transform="translate(9.99 17.379)" fill="#fbc343"/>
          <path id="Path_442070" data-name="Path 442070" d="M1314.353,1595.752v7.656a4.864,4.864,0,0,1-4.861,4.862h-80.614a4.858,4.858,0,0,1-4.861-4.862v-7.656a4.865,4.865,0,0,1,4.861-4.861h80.614A4.871,4.871,0,0,1,1314.353,1595.752Z" transform="translate(-1224.017 -1590.891)" fill="#fbc343"/>
          <path id="Path_442071" data-name="Path 442071" d="M1432.828,1613.131v7.645a4.858,4.858,0,0,1-4.861,4.861h-57.807c-3.993-4.925-6.435-11.275-7.9-17.368a85.56,85.56,0,0,1-2.227-17.379h57.947a4.871,4.871,0,0,1,4.861,4.861v7.656a4.864,4.864,0,0,1-4.861,4.862h9.99A4.858,4.858,0,0,1,1432.828,1613.131Z" transform="translate(-1332.502 -1590.891)" fill="#e49b31"/>
        </g>
        <g id="Group_185511" data-name="Group 185511" transform="translate(35.558 0)">
          <path id="Path_442072" data-name="Path 442072" d="M1662.924,985.9l-6.51,19.992-.482,1.478-3.02,9.284-.021.064-9.733-.214-37.346-.846-2.73-7.816-.46-1.307L1595.4,985.9C1617.816,993.664,1636.3,976.693,1662.924,985.9Z" transform="translate(-1555.79 -983.082)" fill="#fbc343"/>
          <path id="Path_442073" data-name="Path 442073" d="M1686.229,1103.067l-3.02,9.284-9.754-.15-37.346-.846-2.73-7.817C1646.217,1103.313,1668.305,1103.014,1686.229,1103.067Z" transform="translate(-1586.086 -1078.778)" fill="#e49b31"/>
          <path id="Path_442074" data-name="Path 442074" d="M1541.576,1250.756a29.348,29.348,0,0,1-28.01,20.581h-84.586a27.2,27.2,0,0,1-26.211-19.97,85.322,85.322,0,0,1-3.041-20.623c-.01-.664-.021-1.328-.021-1.991q0-1.177.032-2.352c.69-24.954,12.884-48.2,32.454-63.692l20.235-16.021,46.308,1.071,25.455,24.359a56.132,56.132,0,0,1,9.33,11.5,82.406,82.406,0,0,1,8.054,67.14Z" transform="translate(-1399.708 -1113.575)" fill="#fbc343"/>
          <rect id="Rectangle_21405" data-name="Rectangle 21405" width="75.359" height="11.949" rx="5.975" transform="translate(36.26 29.808)" fill="#ed7545"/>
          <path id="Path_442076" data-name="Path 442076" d="M1541.66,1459.345a29.348,29.348,0,0,1-28.01,20.58h-84.586a27.2,27.2,0,0,1-26.211-19.97,85.314,85.314,0,0,1-3.041-20.624c13.994,13.342,30.483,30.785,69.029,31.321,47.865.665,68.493-21.769,72.2-62.448A82.3,82.3,0,0,1,1541.66,1459.345Z" transform="translate(-1399.792 -1322.163)" fill="#e49b31" opacity="0.4"/>
        </g>
      </g>
      <g id="Group_185518" data-name="Group 185518" transform="translate(149.42 402.167)">
        <g id="Group_185515" data-name="Group 185515" transform="translate(0 82.355)">
          <g id="Group_185513" data-name="Group 185513">
            <path id="Path_442077" data-name="Path 442077" d="M365.214,1676.726l-8.566-3.213-19.9,17.49H360.3Z" transform="translate(-336.751 -1600.697)" fill="#102048"/>
            <path id="Path_442078" data-name="Path 442078" d="M458.01,1689.386h18.916l-2.141,13.563-21.69.714Z" transform="translate(-429.547 -1613.356)" fill="#f9b384"/>
            <path id="Path_442079" data-name="Path 442079" d="M569.484,1313.73l-.7,4.744-.418,2.859-3,20.548-1.146,7.849-1.017,7-2.666,18.246-1.852,12.657a19.375,19.375,0,0,1-19.176,16.576H497.661l.054-.535,1.36-13.92.193-1.959,29.177-5.622,3.919-28.461a59.209,59.209,0,0,1-.621-21.833,52.839,52.839,0,0,1,1.692-7.8l13.02-3.737Z" transform="translate(-465.094 -1313.73)" fill="#1f3c88"/>
            <path id="Path_442080" data-name="Path 442080" d="M717.048,1616.357l-1.852,12.657a19.376,19.376,0,0,1-19.176,16.576h-2.141C713.054,1642.158,709.307,1617.663,717.048,1616.357Z" transform="translate(-621.599 -1555.108)" fill="#102048"/>
            <rect id="Rectangle_21406" data-name="Rectangle 21406" width="7.775" height="1.071" transform="translate(13.553 90.024) rotate(-58.13)" fill="#fff"/>
          </g>
          <path id="Path_442081" data-name="Path 442081" d="M768.615,1452.822l-2.163,14.852c-6.028-1.724-13.976-10.34-13.976-10.34Z" transform="translate(-668.337 -1424.671)" fill="#102048"/>
          <g id="Group_185514" data-name="Group 185514" transform="translate(68.338 0.936)">
            <path id="Path_442082" data-name="Path 442082" d="M939.516,1607.83s-10.172,5.22-28.374,1.874l15.124-10.039Z" transform="translate(-863.228 -1542.73)" fill="#102048"/>
            <path id="Path_442083" data-name="Path 442083" d="M958.186,1625.216l-16.264.364-.1-3.512-.257-9.626,14.454,1.071.685,3.716Z" transform="translate(-887.497 -1552.921)" fill="#f9b384"/>
            <path id="Path_442084" data-name="Path 442084" d="M956.709,1617.228l-14.883,4.84-.257-9.626,14.454,1.071Z" transform="translate(-887.497 -1552.921)" fill="#e28b6d"/>
            <path id="Path_442085" data-name="Path 442085" d="M978.013,1692.786l-17.934-14.456-.509-2.749-16.271.36.451,16.845Z" transform="translate(-888.877 -1603.281)" fill="#102048"/>
            <rect id="Rectangle_21407" data-name="Rectangle 21407" width="7.576" height="1.072" transform="translate(70.48 83.115) rotate(-31.983)" fill="#fff"/>
            <path id="Path_442086" data-name="Path 442086" d="M674.4,1327.772l58.2-9.242a14.26,14.26,0,0,1,8.029,1.053h0a14.263,14.263,0,0,1,8.463,12.594l1.6,51.276s-16.6-3.48-28.374,1.874l-1.071-35.068c-7.116,3.24-19.442,3.926-31.934,2.677Z" transform="translate(-674.402 -1318.353)" fill="#1f3c88"/>
            <path id="Path_442087" data-name="Path 442087" d="M863.259,1384.485h-1.071c0-8.873.214-16.238.4-22.737.46-15.824.713-24.541-3.318-28.229-3.262-2.985-9.781-2.892-19.239-1.774-10.136,1.181-14.178-9.61-14.218-9.72l1.007-.365c.151.414,3.792,10.14,13.085,9.021,10.011-1.182,16.508-1.228,20.088,2.048,4.393,4.02,4.15,12.385,3.665,29.051C863.473,1368.271,863.259,1375.627,863.259,1384.485Z" transform="translate(-795.171 -1320.991)" fill="#3a6bea"/>
            <path id="Path_442088" data-name="Path 442088" d="M909.744,1602.609l-.38-1c.136-.051,13.711-5.1,28.694-1.358l-.26,1.039C923.156,1597.625,909.877,1602.558,909.744,1602.609Z" transform="translate(-861.81 -1542.095)" fill="#3a6bea"/>
          </g>
          <path id="Path_442089" data-name="Path 442089" d="M524.832,1691.644c-1.667-3.336.913-17.153,1.024-17.739l1.052.2c-.735,3.9-2.369,14.558-1.118,17.061Z" transform="translate(-486.319 -1601.008)" fill="#3a6bea"/>
          <path id="Path_442090" data-name="Path 442090" d="M698,1343.729a39.1,39.1,0,0,1-13.384,14.638,17.14,17.14,0,0,1-9.015,2.913,10.517,10.517,0,0,1-9.551-5.472,52.82,52.82,0,0,1,1.692-7.8l13.02-3.737,13.138-.418Z" transform="translate(-599.404 -1337.657)" fill="#102048"/>
        </g>
        <g id="Group_185516" data-name="Group 185516" transform="translate(81.271 9.651)">
          <path id="Path_442091" data-name="Path 442091" d="M772.272,1083.216v12.393h12.135V1084.89Z" transform="translate(-765.397 -1057.166)" fill="#ed7545"/>
          <path id="Path_442092" data-name="Path 442092" d="M784.407,1053.623H772.272v5.989l12.135,1.674Z" transform="translate(-765.397 -1033.562)" fill="#f9b384"/>
          <path id="Path_442093" data-name="Path 442093" d="M789.949,1059.891c.268,0,2.927,4.172,8.557,5.968l-.081-6.5Z" transform="translate(-779.497 -1038.134)" fill="#102048"/>
          <path id="Path_442094" data-name="Path 442094" d="M781.615,975.864s6.692,18.025-1.963,19.185-9.993-2.766-9.993-2.766l-2.677-9.548,5.978-8.031Z" transform="translate(-761.178 -970.615)" fill="#f9b384"/>
          <circle id="Ellipse_3251" data-name="Ellipse 3251" cx="1.874" cy="1.874" r="1.874" transform="translate(20.759 15.743) rotate(-88.939)" fill="#f9b384"/>
          <path id="Path_442095" data-name="Path 442095" d="M749.641,968.318s.446-9.637,9.1-8.566c0,0-5.825-7.481-13.5-4.58a10.994,10.994,0,0,0-6.886,9.344c-.493,5.363,2.639,11.476,7.011,12.547a83.589,83.589,0,0,1,3.828-7.5Z" transform="translate(-738.305 -954.503)" fill="#102048"/>
          <ellipse id="Ellipse_3252" data-name="Ellipse 3252" cx="2.632" cy="3.078" rx="2.632" ry="3.078" transform="translate(7.332 12.818) rotate(-25.174)" fill="#f9b384"/>
          <circle id="Ellipse_3253" data-name="Ellipse 3253" cx="2.454" cy="2.454" r="2.454" transform="matrix(0.014, -1, 1, 0.014, 15.013, 17.393)" fill="#eb5d60" opacity="0.4"/>
          <path id="Path_442096" data-name="Path 442096" d="M786.846,1020.942a.269.269,0,0,1-.268-.266,1.843,1.843,0,0,0-1.687-1.788.268.268,0,0,1-.228-.3.274.274,0,0,1,.3-.228,2.4,2.4,0,0,1,2.148,2.318.267.267,0,0,1-.266.268Z" transform="translate(-775.278 -1005.432)" fill="#102048"/>
        </g>
        <g id="Group_185517" data-name="Group 185517" transform="translate(54.41 0)">
          <path id="Path_442097" data-name="Path 442097" d="M995.787,995.867s9.36.714,14.454,6.693l-11.591,2.855Z" transform="translate(-916.814 -977.844)" fill="#ba5c36"/>
          <path id="Path_442098" data-name="Path 442098" d="M1011.662,919.713c.043.856-2.313,5.129-4.047,8.159-1.017,1.745-1.809,3.073-1.809,3.073l-6.242,1.82-4.454-6.714-.214-.332s.064-.289.182-.8v-.011c.011-.011.011-.032.022-.064.749-3.18,3.4-14.017,4.936-14.381,1.349-.31.557,5.622.557,5.622s3.33-9.648,5.3-9.252c1.574.31-1.51,9.562-1.51,9.562s1.1-1.156,2.216-.792a1.973,1.973,0,0,1,1.338,1.51,1.545,1.545,0,0,1,1.585-.086c.792.482.717,1.981.717,1.981S1011.577,918.374,1011.662,919.713Z" transform="translate(-916.103 -906.819)" fill="#f9b384"/>
          <path id="Path_442099" data-name="Path 442099" d="M636.488,1122.949l-4.24,16.576-6.574,25.7a23.622,23.622,0,0,1-12.913,2.088c-4.336-.717-7.367-3.245-7.163-7.71C606.133,1147.556,636.488,1122.949,636.488,1122.949Z" transform="translate(-605.588 -1079.206)" fill="#ed7545"/>
          <path id="Path_442100" data-name="Path 442100" d="M663.941,1146.21l-3.426,11.868-6.574,25.7a23.622,23.622,0,0,1-12.913,2.088C650.557,1158.524,663.941,1146.21,663.941,1146.21Z" transform="translate(-633.855 -1097.759)" fill="#ba5c36"/>
          <path id="Path_442101" data-name="Path 442101" d="M714.281,1151.726c-8.833.6-36.672,23.622-43.364,8.77,0,0,.931-55.4,29.53-54.375a12.067,12.067,0,0,1,11.039,8.384,56.347,56.347,0,0,1,1.906,8.695,115.6,115.6,0,0,1,1.092,13.834C714.6,1141.318,714.549,1146.19,714.281,1151.726Z" transform="translate(-657.696 -1065.773)" fill="#ed7545"/>
          <path id="Path_442102" data-name="Path 442102" d="M850.567,1204.4c-4.422-2.859-9.037-11.479-9.037-11.479l7.944-2.356A115.594,115.594,0,0,1,850.567,1204.4Z" transform="translate(-793.778 -1133.136)" fill="#ba5c36"/>
          <path id="Path_442103" data-name="Path 442103" d="M1008.332,998.9c-1.017,1.745-1.809,3.073-1.809,3.073l-6.242,1.82-4.454-6.714-.032-1.135v-.075h.021Z" transform="translate(-916.82 -977.844)" fill="#e28b6d"/>
          <path id="Path_442104" data-name="Path 442104" d="M816.834,1018.193s13.734.964,22.031,2.57l14.187-24.9a32.323,32.323,0,0,0,14.454,6.693l-12.416,29.257a16.807,16.807,0,0,1-14.5,9.368l-21.264.727Z" transform="translate(-774.08 -977.844)" fill="#ed7545"/>
          <path id="Path_442105" data-name="Path 442105" d="M802.127,1108.141a.38.38,0,0,1-.074-.007c-.261-.049-26.194-4.8-30.613-.9a.4.4,0,0,1-.532-.6c4.71-4.164,30.209.508,31.292.71a.4.4,0,0,1-.073.8Z" transform="translate(-737.341 -1064.82)" fill="#ba5c36"/>
        </g>
      </g>
      <g id="Group_185524" data-name="Group 185524" transform="translate(513.72 342.886)">
        <g id="Group_185519" data-name="Group 185519" transform="translate(11.162 89.168)">
          <path id="Path_442106" data-name="Path 442106" d="M2219.806,1640.027l1.785,22.843h-29.712l14.99-10.351-.268-14.277Z" transform="translate(-2191.878 -1520.096)" fill="#102048"/>
          <path id="Path_442107" data-name="Path 442107" d="M2493.582,1599l8.03,19.542-20.344,17.133,2.945-19.274-4.015-12.85Z" transform="translate(-2421.845 -1488.798)" fill="#102048"/>
          <path id="Path_442108" data-name="Path 442108" d="M2247.042,1054.487a22.248,22.248,0,0,0-.75,2.848c-.4,1.981-.739,4.508-1.028,7.485-.942,9.723-1.338,24.167-1.446,39.512-.225,34.554,1.082,73.659,1.082,73.659l-5.439-.086-13.384-.2-4.733-.075a621.724,621.724,0,0,1-4.047-117.058c.032-.557.075-1.071.1-1.553.225-2.955.375-4.53.375-4.53Z" transform="translate(-2211.259 -1054.487)" fill="#1f3c88"/>
          <path id="Path_442109" data-name="Path 442109" d="M2357.647,1178.219l-2.72.675-14.262,3.566-8.715,2.184s-10.322-38.3-18.566-71.871c-3.961-16.19-7.452-31.278-9.058-40.433a58.9,58.9,0,0,1-.932-7.271l12.463.707,15.739.9s.386,2.259,1.135,6.318C2335.729,1089.172,2344.52,1133.974,2357.647,1178.219Z" transform="translate(-2280.824 -1062.927)" fill="#1f3c88"/>
          <path id="Path_442110" data-name="Path 442110" d="M2256.442,1064.552a135.12,135.12,0,0,1-17.9.268c-3.758-.193-7.281-.525-10.5-.921a133.844,133.844,0,0,1-17.463-3.33c-1.831-.493-2.826-.814-2.826-.814l2.923-.739,18.031-4.53h11.617a22.248,22.248,0,0,0-.75,2.848l15.739.9S2255.692,1060.494,2256.442,1064.552Z" transform="translate(-2204.534 -1054.487)" fill="#102048"/>
          <path id="Path_442111" data-name="Path 442111" d="M2301.259,1211.7c-.866-3.631-4.957-20.825-5.49-23.736l-8.275-3.1.376-1,8.912,3.342v.371c.062.794,3.334,14.719,5.518,23.879Z" transform="translate(-2268.142 -1157.672)" fill="#3a6bea"/>
          <path id="Path_442112" data-name="Path 442112" d="M2226.055,1390.9a18.808,18.808,0,0,1-6.5-1.022l.4-.994a20.6,20.6,0,0,0,10.584.508l.205,1.051A24.524,24.524,0,0,1,2226.055,1390.9Z" transform="translate(-2213.949 -1321.205)" fill="#3a6bea"/>
          <path id="Path_442113" data-name="Path 442113" d="M2386.14,1385.459a27.912,27.912,0,0,1-4.747-.419l.2-1.052c.074.014,7.314,1.354,10.657-.983l.614.876C2391.081,1385.129,2388.44,1385.459,2386.14,1385.459Z" transform="translate(-2343.036 -1316.516)" fill="#3a6bea"/>
          <rect id="Rectangle_21408" data-name="Rectangle 21408" width="1.071" height="5.283" transform="translate(14.664 132.849) rotate(-52.544)" fill="#fff"/>
          <rect id="Rectangle_21409" data-name="Rectangle 21409" width="1.07" height="6.163" transform="translate(62.167 128.102) rotate(-67.896)" fill="#fff"/>
        </g>
        <g id="Group_185522" data-name="Group 185522" transform="translate(0 30.552)">
          <path id="Path_442114" data-name="Path 442114" d="M2200.35,765.282s-18.38,2.32-23.02,23.022l5.532,24.628-2.5,16.419s24.983,2.5,50.68-1.785l-7.808-41.85Z" transform="translate(-2169.113 -765.199)" fill="#ed7545"/>
          <path id="Path_442115" data-name="Path 442115" d="M2339.524,938.369s-5.532-4.06,1.7-21.862l4.818,17.534Z" transform="translate(-2296.866 -885.817)" fill="#6e3620"/>
          <path id="Rectangle_21410" data-name="Rectangle 21410" d="M1.428,0h0A1.428,1.428,0,0,1,2.855,1.428V24.448a0,0,0,0,1,0,0H0a0,0,0,0,1,0,0V1.428A1.428,1.428,0,0,1,1.428,0Z" transform="translate(41.373 16.213) rotate(62.102)" fill="#102048"/>
          <path id="Path_442116" data-name="Path 442116" d="M2279.479,889.573l-.546-.3-7.1-3.833-11.9-6.435a3.835,3.835,0,0,1,.8-3.491l-.589-.236a3.139,3.139,0,0,1-1.863-2.313l-.021-.129a5.4,5.4,0,0,1-.064-2.538l.278-.364a9.556,9.556,0,0,1,1.906-2.088l-1.52.086s-3.747,1.028-2-1.381c1.2-1.671,3.887-3.084,5.418-3.791a1.682,1.682,0,0,1,1.917.343c5.15,5.343,14.208,11.746,14.208,11.746l.1,1.307.878,12.025Z" transform="translate(-2232.181 -842.821)" fill="#f9b384"/>
          <g id="Group_185520" data-name="Group 185520" transform="translate(25.391 23.991)">
            <path id="Path_442117" data-name="Path 442117" d="M2270.053,885.709l-3.24-1.583a1.76,1.76,0,0,0-1.085-.154l-3.451.6-.092-.527,3.451-.6a2.3,2.3,0,0,1,1.413.2l3.241,1.583Z" transform="translate(-2262.184 -883.41)" fill="#e28b6d"/>
            <path id="Path_442118" data-name="Path 442118" d="M2271.922,901.437l-3.887-1.489a1.511,1.511,0,0,0-.541-.1h-2.213v-.535h2.213a2.048,2.048,0,0,1,.732.135l3.887,1.489Z" transform="translate(-2264.655 -896.095)" fill="#e28b6d"/>
            <path id="Path_442119" data-name="Path 442119" d="M2272.142,916.955l-3.529-1.333a1.873,1.873,0,0,0-.877-.109l-1.446.164-.061-.532,1.447-.164a2.431,2.431,0,0,1,1.127.141l3.529,1.333Z" transform="translate(-2265.41 -908.579)" fill="#e28b6d"/>
          </g>
          <path id="Path_442120" data-name="Path 442120" d="M2340.2,931.177l-.45,1.092-7.1-3.833,4.7-11.929,1.97,2.645Z" transform="translate(-2292.997 -885.817)" fill="#e28b6d"/>
          <path id="Path_442121" data-name="Path 442121" d="M2347.5,1016.437s10.618,10.083,19.273,9.816l-2.5-11.868Z" transform="translate(-2304.843 -963.885)" fill="#ba5c36"/>
          <path id="Path_442122" data-name="Path 442122" d="M2291.071,764.953a28.1,28.1,0,0,1,3.487-.061c21.433.733,37.851,19.176,36.805,40.6-.432,8.855-2.733,17.646-10.134,17.822l-18.737-5.889c1.767-6.628,3.086-13.5,1.7-21.862l8.7,4.149Z" transform="translate(-2259.833 -764.87)" fill="#ed7545"/>
          <path id="Path_442123" data-name="Path 442123" d="M2174.814,887.542l-26.189.642-.718-2.216-2.634-8.1-7.624-23.418,26.19-.642Z" transform="translate(-2137.463 -835.811)" fill="#d3dfff"/>
          <path id="Path_442124" data-name="Path 442124" d="M2180.873,958.832s-.043,7.239-2.923,10.9l-2.634-8.095Z" transform="translate(-2167.506 -919.576)" fill="#1f3c88" opacity="0.3"/>
          <g id="Group_185521" data-name="Group 185521" transform="translate(0 29.146)">
            <path id="Path_442125" data-name="Path 442125" d="M2137.395,918.423a24.892,24.892,0,0,1,3.981-7.34c.526-.706,1.67-2.441,2.769-2.177,2.23.535,0,4.461,0,4.461s2.142-3.212,2.944-1.606a3.788,3.788,0,0,1-.357,3.391s3.39-2.231,2.141,2.231c0,0,2.766-.357,1.071,2.677-1.21,2.165-1.994,4.579-3.51,6.569s-4.4,3.128-6.78,1.986c-2.8-1.343-3.162-4.927-2.815-7.657A14.872,14.872,0,0,1,2137.395,918.423Z" transform="translate(-2136.73 -908.878)" fill="#f9b384"/>
            <path id="Path_442126" data-name="Path 442126" d="M2162.716,927.758a.268.268,0,0,1-.245-.376l2.543-5.755a.267.267,0,1,1,.489.217l-2.543,5.755A.267.267,0,0,1,2162.716,927.758Z" transform="translate(-2157.243 -918.919)" fill="#e28b6d"/>
            <path id="Path_442127" data-name="Path 442127" d="M2175.611,940.716a.268.268,0,0,1-.243-.382l2.409-5.153a.268.268,0,1,1,.485.227l-2.409,5.153A.268.268,0,0,1,2175.611,940.716Z" transform="translate(-2167.528 -929.735)" fill="#e28b6d"/>
            <path id="Path_442128" data-name="Path 442128" d="M2185.53,954.059a.268.268,0,0,1-.237-.393l2.074-3.948a.268.268,0,1,1,.474.249l-2.075,3.949A.268.268,0,0,1,2185.53,954.059Z" transform="translate(-2175.44 -941.339)" fill="#e28b6d"/>
          </g>
          <path id="Path_442129" data-name="Path 442129" d="M2186.1,852.7h-9.368l-1.606-3.212h9.369Z" transform="translate(-2167.352 -832.365)" fill="#102048"/>
          <path id="Path_442130" data-name="Path 442130" d="M2270.948,808.268a8.2,8.2,0,0,1-4.632-1.4.4.4,0,0,1,.49-.636c.153.116,3.787,2.82,8.65-.114a.4.4,0,1,1,.414.687A9.428,9.428,0,0,1,2270.948,808.268Z" transform="translate(-2239.964 -797.727)" fill="#ba5c36"/>
          <path id="Path_442131" data-name="Path 442131" d="M2345.92,936.8a.431.431,0,0,1-.114-.016.4.4,0,0,1-.271-.5c3.85-13.037,1.714-21.562,1.692-21.646l-.156-.6,16.582,2.779a.4.4,0,0,1-.133.792l-15.389-2.579c.411,2.18,1.508,10.2-1.825,21.482A.4.4,0,0,1,2345.92,936.8Z" transform="translate(-2303.261 -883.852)" fill="#ba5c36"/>
          <path id="Path_442132" data-name="Path 442132" d="M2383.721,852.931h-.024a.4.4,0,0,1-.377-.425,31.306,31.306,0,0,0-5.553-17.6.4.4,0,1,1,.665-.449,32.129,32.129,0,0,1,5.689,18.1A.4.4,0,0,1,2383.721,852.931Z" transform="translate(-2328.929 -820.234)" fill="#ba5c36"/>
        </g>
        <g id="Group_185523" data-name="Group 185523" transform="translate(17.378)">
          <path id="Path_442133" data-name="Path 442133" d="M2281.677,716.586V726.92a5.81,5.81,0,1,1-11.612,0V716.586Z" transform="translate(-2260.458 -695.806)" fill="#f9b384"/>
          <path id="Path_442134" data-name="Path 442134" d="M2276.189,720.094s-.6,6.385-6.125,8.232v-9.07Z" transform="translate(-2260.458 -697.936)" fill="#102048"/>
          <path id="Path_442135" data-name="Path 442135" d="M2247.336,642.9s-1.8,14.495,3.848,16.214,10.809-3.276,10.809-3.276l-1.064-11.956-8.352-4.913Z" transform="translate(-2242.11 -633.895)" fill="#f9b384"/>
          <path id="Path_442136" data-name="Path 442136" d="M2259.966,651.086l-11.146.739a13.142,13.142,0,0,1-2.73-6.2,7.748,7.748,0,0,0,1.146,6.307l-3.019.2c-2.677-4-4.925-12.871-2.27-20.452l.31-1.788s-1.906-5.771-4.668-6.018c0,0-9.476,6.393-13.694-.739-3.148-5.311-.493-12.293,7.077-7.142,0,0,18.191-8.534,18.148,8.962a11.1,11.1,0,0,0,3.49,8.32,6.3,6.3,0,0,0,.632.546C2257.321,637.059,2261.722,643.505,2259.966,651.086Z" transform="translate(-2222.595 -613.916)" fill="#102048"/>
          <ellipse id="Ellipse_3254" data-name="Ellipse 3254" cx="3.177" cy="2.718" rx="3.177" ry="2.718" transform="translate(16.349 18.25) rotate(-72.145)" fill="#f9b384"/>
          <path id="Path_442137" data-name="Path 442137" d="M2318.229,688.421a.268.268,0,0,1-.268-.268,2.226,2.226,0,0,1,1.993-2.231h.013a.268.268,0,0,1,.013.535,1.677,1.677,0,0,0-1.485,1.7A.268.268,0,0,1,2318.229,688.421Z" transform="translate(-2298.66 -671.349)" fill="#102048"/>
          <path id="Path_442138" data-name="Path 442138" d="M2252.949,683.064a.669.669,0,1,1-.669-.669A.669.669,0,0,1,2252.949,683.064Z" transform="translate(-2245.738 -668.535)" fill="#102048"/>
          <path id="Path_442139" data-name="Path 442139" d="M2272.9,681.411a.669.669,0,1,1-.669-.669A.669.669,0,0,1,2272.9,681.411Z" transform="translate(-2261.65 -667.217)" fill="#102048"/>
          <path id="Path_442140" data-name="Path 442140" d="M2259.521,691.9a.264.264,0,0,1-.187-.076,1.656,1.656,0,0,1-.662-1.5,1.391,1.391,0,0,1,.774-.87l-.059-1.323a.268.268,0,0,1,.256-.279.274.274,0,0,1,.279.256l.076,1.706-.189.066c-.148.051-.545.253-.615.565-.075.337.238.729.514,1a.267.267,0,0,1-.187.459Z" transform="translate(-2251.35 -672.887)" fill="#102048"/>
          <path id="Path_442141" data-name="Path 442141" d="M2263.244,711.628a2.577,2.577,0,0,1-.383-.024.266.266,0,0,1-.221-.305.277.277,0,0,1,.3-.223,3.434,3.434,0,0,0,2.561-.841.267.267,0,1,1,.351.4A3.977,3.977,0,0,1,2263.244,711.628Z" transform="translate(-2254.532 -690.687)" fill="#102048"/>
          <circle id="Ellipse_3255" data-name="Ellipse 3255" cx="1.757" cy="1.757" r="1.757" transform="translate(12.152 15.499)" fill="#eb5d60" opacity="0.4"/>
        </g>
      </g>
      <rect id="Rectangle_21411" data-name="Rectangle 21411" width="500.774" height="1.07" transform="translate(122.863 574.294)" fill="#102048"/>
    </g>
    <g id="Group_186351" data-name="Group 186351" transform="translate(359.901 1605.16)">
      <path id="Path_442030" data-name="Path 442030" d="M89.557,95.463a33.183,33.183,0,1,1,33.164-33.208A33.222,33.222,0,0,1,89.557,95.463Z" transform="translate(0 0)" fill="#f0da28"/>
      <g id="Group_185479" data-name="Group 185479" transform="translate(67.934 29.223)">
        <path id="Path_442031" data-name="Path 442031" d="M102.139,83.209,73.6,29.12a32.905,32.905,0,0,0-14.325,4.738L90.151,92.375A33.466,33.466,0,0,0,102.139,83.209Z" transform="translate(-54.918 -29.12)" fill="#fae66c"/>
        <path id="Path_442032" data-name="Path 442032" d="M58.476,32.408,88.638,89.57a33.054,33.054,0,0,0,3.494-1.141L61.386,30.153A32.335,32.335,0,0,0,58.476,32.408Z" transform="translate(-58.476 -24.514)" fill="#fae66c"/>
      </g>
      <path id="Path_442033" data-name="Path 442033" d="M83.252,81.439A25.464,25.464,0,1,1,108.7,55.956,25.5,25.5,0,0,1,83.252,81.439Z" transform="translate(6.305 6.305)" fill="#ffaa31"/>
      <path id="Path_442034" data-name="Path 442034" d="M100.561,32.463A25.433,25.433,0,0,1,58.52,61.074a25.435,25.435,0,1,0,42.041-28.611Z" transform="translate(9.654 15.009)" fill="#d28000"/>
      <path id="Path_442035" data-name="Path 442035" d="M59.7,58.249a25.428,25.428,0,0,1,43.766-17.671A25.429,25.429,0,1,0,64.926,73.627,25.305,25.305,0,0,1,59.7,58.249Z" transform="translate(6.305 6.305)" fill="#d28000"/>
      <path id="Path_442036" data-name="Path 442036" d="M85.1,51.188a7.34,7.34,0,0,0-3.914-2.522,6.582,6.582,0,0,0,3.909-6.043,6.258,6.258,0,0,0-.857-3.254A7.08,7.08,0,0,0,82.1,37.043a7.173,7.173,0,0,0-2.91-1.146,19.87,19.87,0,0,0-2.255-.213v-3.9l-4.045.005v3.832h-2.38V31.791l-4.045.005v3.832h-3.33l-2.948.005.005,4.629h2.943l.016,18.577H60.2v4.635H63.15l3.336-.005v3.756l4.045-.005v-3.75h2.1l.284-.005v3.756l4.045-.005V63.4c1.157-.033,1.976-.076,2.457-.126a7.97,7.97,0,0,0,3.767-1.321,7.488,7.488,0,0,0,2.407-2.871,8.191,8.191,0,0,0,.879-3.7A6.682,6.682,0,0,0,85.1,51.188Zm-8.3-10.836a3.226,3.226,0,0,1,2.118.977,3.042,3.042,0,0,1,.715,2.1A2.947,2.947,0,0,1,78.8,45.6a3.712,3.712,0,0,1-2.266,1q-.8.09-4.083.1H68.762l-.005-6.442h3.232C74.631,40.259,76.236,40.286,76.793,40.351Zm3.079,17.142A3.524,3.524,0,0,1,77.83,58.6a25.133,25.133,0,0,1-3.854.175l-5.208.005-.005-7.446L73.3,51.33a19.02,19.02,0,0,1,4.984.4A3.422,3.422,0,0,1,80.052,53a3.621,3.621,0,0,1,.606,2.124A3.448,3.448,0,0,1,79.872,57.493Z" transform="translate(17.083 11.991)" fill="#d28000"/>
      <path id="Path_442037" data-name="Path 442037" d="M84.936,51.329A7.317,7.317,0,0,0,81.022,48.8a6.606,6.606,0,0,0,3.909-6.038,6.263,6.263,0,0,0-.857-3.259,7.025,7.025,0,0,0-5.044-3.472,19.875,19.875,0,0,0-2.255-.213l-.005-3.9-4.045.005.005,3.832h-2.38V31.927l-4.051.005.005,3.832H62.968l-2.942.005v4.635l2.948-.005.011,18.577H60.042v4.635H62.99l3.33-.005.005,3.756,4.045-.005v-3.75h2.1l.278-.005.005,3.756H76.8l-.005-3.821c1.163-.033,1.982-.071,2.457-.126a7.927,7.927,0,0,0,3.767-1.321,7.414,7.414,0,0,0,2.413-2.871,8.263,8.263,0,0,0,.879-3.7A6.656,6.656,0,0,0,84.936,51.329Zm-8.3-10.842a3.225,3.225,0,0,1,2.118.977,3.058,3.058,0,0,1,.71,2.1,2.943,2.943,0,0,1-.824,2.178,3.726,3.726,0,0,1-2.265,1c-.535.066-1.894.1-4.089.1H68.6L68.6,40.4l3.226-.005C74.471,40.395,76.07,40.427,76.633,40.487Zm3.079,17.142a3.511,3.511,0,0,1-2.042,1.108,25.224,25.224,0,0,1-3.86.175l-5.2.005L68.6,51.471l4.542-.005a19.022,19.022,0,0,1,4.984.4,3.408,3.408,0,0,1,1.758,1.272A3.624,3.624,0,0,1,80.5,55.26,3.465,3.465,0,0,1,79.712,57.629Z" transform="translate(16.369 12.597)" fill="#fcd73b"/>
      <g id="Group_185480" data-name="Group 185480" transform="translate(76.394 44.519)">
        <path id="Path_442038" data-name="Path 442038" d="M80.16,62.089a7.414,7.414,0,0,0,2.413-2.871,8.263,8.263,0,0,0,.879-3.7,6.656,6.656,0,0,0-1.37-4.193A7.348,7.348,0,0,0,78.168,48.8a6.334,6.334,0,0,0,3.723-4.7l-3.98-7.539a7.547,7.547,0,0,0-1.736-.53,19.877,19.877,0,0,0-2.255-.213l-.005-3.9-4.045.005.005,3.832H67.5V31.927l-4.051.005.005,3.832H60.666l5.077,9.624V40.4l3.226-.005q3.972,0,4.8.093a3.253,3.253,0,0,1,2.124.977,3.058,3.058,0,0,1,.71,2.1,2.943,2.943,0,0,1-.824,2.178,3.726,3.726,0,0,1-2.266,1c-.535.066-1.894.1-4.089.1H66.507l2.446,4.635,1.338-.005a19.021,19.021,0,0,1,4.984.4,3.408,3.408,0,0,1,1.758,1.272,3.624,3.624,0,0,1,.611,2.124,3.465,3.465,0,0,1-.786,2.369,3.511,3.511,0,0,1-2.042,1.108,12.961,12.961,0,0,1-1.949.147l2.424,4.6c.464-.022.846-.049,1.1-.076A7.927,7.927,0,0,0,80.16,62.089Z" transform="translate(-57.17 -31.922)" fill="#ffe146"/>
        <path id="Path_442039" data-name="Path 442039" d="M68.6,48.329h1.28L61.6,32.627H60.026l0,4.634,2.946,0,0,5.751L68.608,53.68Z" transform="translate(-60.026 -28.78)" fill="#ffe146"/>
        <path id="Path_442040" data-name="Path 442040" d="M61.8,36.871l2.478,4.689h.278l.278-.005v1.07l1.419,2.686h2.631l-.005-2.79L65.9,36.866Z" transform="translate(-52.114 -9.876)" fill="#ffe146"/>
      </g>
    </g>
  </g>
</svg>
