<svg xmlns="http://www.w3.org/2000/svg" width="34.647" height="30.316" viewBox="0 0 34.647 30.316">
  <path id="Icon_awesome-wallet" data-name="Icon awesome-wallet" d="M31.209,8.746H5.414a1.083,1.083,0,1,1,0-2.165H31.4A1.082,1.082,0,0,0,32.481,5.5,3.248,3.248,0,0,0,29.233,2.25H4.331A4.331,4.331,0,0,0,0,6.581V28.235a4.331,4.331,0,0,0,4.331,4.331H31.209a3.35,3.35,0,0,0,3.438-3.248V11.994A3.35,3.35,0,0,0,31.209,8.746ZM28.15,22.822a2.165,2.165,0,1,1,2.165-2.165A2.166,2.166,0,0,1,28.15,22.822Z" transform="translate(0 -2.25)" fill="#fff" opacity="0.9"/>
</svg>
