<svg xmlns="http://www.w3.org/2000/svg" xmlns:xlink="http://www.w3.org/1999/xlink" width="549.871" height="312.916" viewBox="0 0 549.871 312.916">
  <defs>
    <clipPath id="clip-path">
      <path id="Path_442201" data-name="Path 442201" d="M1863.224,468.138H1756.346a17.959,17.959,0,0,0-17.813,18V709.644a17.96,17.96,0,0,0,17.813,18h106.878a17.96,17.96,0,0,0,17.813-18V486.138a17.96,17.96,0,0,0-17.813-18" transform="translate(-1738.533 -468.138)" fill="none" clip-rule="evenodd"/>
    </clipPath>
    <linearGradient id="linear-gradient" x1="0.5" y1="0.066" x2="0.5" y2="0.957" gradientUnits="objectBoundingBox">
      <stop offset="0" stop-color="#0048ff"/>
      <stop offset="0.131" stop-color="#0142e6"/>
      <stop offset="0.412" stop-color="#0437b7"/>
      <stop offset="0.661" stop-color="#072f94"/>
      <stop offset="0.866" stop-color="#082a7f"/>
      <stop offset="1" stop-color="#092978"/>
    </linearGradient>
    <clipPath id="clip-path-2">
      <path id="Path_442206" data-name="Path 442206" d="M1787.656,576.639h101.609a5.446,5.446,0,0,1,5.432,5.431V690.121a5.447,5.447,0,0,1-5.432,5.432H1787.656a5.448,5.448,0,0,1-5.432-5.432V582.07a5.447,5.447,0,0,1,5.432-5.431" transform="translate(-1782.224 -576.639)" fill="none" clip-rule="evenodd"/>
    </clipPath>
    <linearGradient id="linear-gradient-2" x1="0.5" y1="1" x2="0.5" y2="0.059" gradientUnits="objectBoundingBox">
      <stop offset="0" stop-color="#00a5ff"/>
      <stop offset="1" stop-color="#93d9ff"/>
    </linearGradient>
  </defs>
  <g id="Group_186363" data-name="Group 186363" transform="translate(-755.808 -1420.375)">
    <g id="Group_185557" data-name="Group 185557" transform="translate(12969.079 -13565.52)">
      <path id="Path_442142" data-name="Path 442142" d="M708.729,1088.974s27.159-23.028,49.04-14.249,27.527,1.36,38.861-10.443,17.064-14.767,30.718-18.476c18-4.888,26.336,3.73,30.266,6.919s4.16,22.105,11.748,6.913,14.333-27.281,25.889-23.6c6.922,2.206,31.262,14.1,43.247-2.164,5.318-7.217,13.795-16.076,25.586-14.583s15.241,4.042,22.046,7.525,18.493-.409,24.5-3.644c8.318-4.476,19.49-12.349,32.684-3.643,14.1,9.3,13.725,15.655,34.291,6.158,7.7-3.557,18.732-4.309,31.3,4.982,18.205,13.461,20.526,30.876,46.155,22.2,33.839-11.462,38.515,22.993,57.3,22.15,5.548-.249,11.765-3.573,21.979-.126s18.822,12.192,19.3,13.838c-2.095-.332-544.921.247-544.921.247" transform="translate(-12922 14209.837)" fill="#b8e1f8" fill-rule="evenodd"/>
      <path id="Path_442167" data-name="Path 442167" d="M793.791,1223.255h519a.989.989,0,0,1,.986.987h0a.989.989,0,0,1-.986.987h-519a.99.99,0,0,1-.987-.987h0a.99.99,0,0,1,.987-.987" transform="translate(-12977.182 14073.55)" fill="#07319b" fill-rule="evenodd"/>
      <path id="Path_442168" data-name="Path 442168" d="M989.337,796.256h184.109a5.476,5.476,0,0,1,5.46,5.46V923.207a6.389,6.389,0,0,1-6.371,6.37H985.067V800.527a4.283,4.283,0,0,1,4.27-4.271" transform="translate(-13103.371 14353.806)" fill="#6d2d14" fill-rule="evenodd"/>
      <path id="Path_442169" data-name="Path 442169" d="M1004.442,811.869v122.59h180.722a1.069,1.069,0,0,0,1.092-1V811.964a.118.118,0,0,0-.1-.095Z" transform="translate(-13116.088 14343.558)" fill="#471c0b" fill-rule="evenodd"/>
      <path id="Path_442170" data-name="Path 442170" d="M1302.881,974.357a12.423,12.423,0,1,1-12.089,12.418,12.257,12.257,0,0,1,12.089-12.418" transform="translate(-13304.03 14236.91)" fill="#4f3207" fill-rule="evenodd"/>
      <path id="Path_442171" data-name="Path 442171" d="M1553.52,933.469H1549.1v11.719h8.832v-7.3a4.429,4.429,0,0,0-4.417-4.416" transform="translate(-13473.568 14263.747)" fill="#471c0b" fill-rule="evenodd"/>
      <path id="Path_442172" data-name="Path 442172" d="M1101.344,820.951a34.619,34.619,0,1,1,39.893,28.381,34.619,34.619,0,0,1-39.893-28.381" transform="translate(-13179.368 14364.1)" fill="#e58927"/>
      <path id="Path_442173" data-name="Path 442173" d="M1094.269,814.9a34.619,34.619,0,1,1,39.893,28.381,34.619,34.619,0,0,1-39.893-28.381" transform="translate(-13174.725 14368.069)" fill="#ffef95"/>
      <path id="Path_442174" data-name="Path 442174" d="M1097.98,817.7a34.619,34.619,0,1,1,39.893,28.38,34.619,34.619,0,0,1-39.893-28.38" transform="translate(-13177.16 14366.235)" fill="#fbca0d"/>
      <path id="Path_442175" data-name="Path 442175" d="M1098.823,872.267c-.017-.1-.031-.2-.046-.3l68.267-11.511c.018.1.037.2.053.3a34.619,34.619,0,0,1-68.274,11.512" transform="translate(-13178.003 14311.666)" fill="#ffd915"/>
      <path id="Path_442176" data-name="Path 442176" d="M1113.151,826.833a29.381,29.381,0,1,1,33.857,24.086,29.38,29.38,0,0,1-33.857-24.086" transform="translate(-13187.167 14356.229)" fill="#fca700"/>
      <path id="Path_442177" data-name="Path 442177" d="M1167.621,798.68c6.892,5.571,10.672,12.542,11.642,18.288,4.667,27.68-20.617,38.312-44.418,28.683a29.383,29.383,0,1,0,32.776-46.971" transform="translate(-13201.676 14352.214)" fill="#ec830e"/>
      <path id="Path_442178" data-name="Path 442178" d="M1124.762,834.913a25.935,25.935,0,0,1,43.218-23.321,25.937,25.937,0,1,0-37.671,35.495,25.819,25.819,0,0,1-5.547-12.174" transform="translate(-13193.255 14349.943)" fill="#ffd915"/>
      <path id="Path_442179" data-name="Path 442179" d="M1177.251,838l-.507-3.139,3.513-.567.495,3.064q6-.3,8.6,4.37l-5.429,2.711a3.5,3.5,0,0,0-3.943-1.742q-2.262.365-2.027,1.823a1.228,1.228,0,0,0,.532.84,5.316,5.316,0,0,0,2.239.412,40.234,40.234,0,0,1,5.928.616,6.407,6.407,0,0,1,3.234,1.862,6.66,6.66,0,0,1,1.763,3.678,7.031,7.031,0,0,1-1.373,5.59,10.4,10.4,0,0,1-5.705,3.534l.507,3.139-3.514.567-.506-3.139q-6.723.28-9.419-5.619l6.2-2.22q1.275,2.67,4.588,2.136,2.588-.418,2.362-1.838a1.343,1.343,0,0,0-.792-1.067,6.273,6.273,0,0,0-2.255-.39q-6.222-.242-8.145-1.882a6.618,6.618,0,0,1-2.316-4.1,7.405,7.405,0,0,1,.99-5.113,8.533,8.533,0,0,1,4.979-3.526" transform="translate(-13225.524 14328.836)" fill="#ffd915" fill-rule="evenodd"/>
      <path id="Path_442180" data-name="Path 442180" d="M1157.068,867.785a34.619,34.619,0,1,1,24.144,42.591,34.618,34.618,0,0,1-24.144-42.591" transform="translate(-13215.435 14323.531)" fill="#e58927"/>
      <path id="Path_442181" data-name="Path 442181" d="M1153.214,859.312a34.619,34.619,0,1,1,24.145,42.591,34.618,34.618,0,0,1-24.145-42.591" transform="translate(-13212.905 14329.093)" fill="#ffef95"/>
      <path id="Path_442182" data-name="Path 442182" d="M1155.4,863.415a34.619,34.619,0,1,1,24.144,42.591,34.618,34.618,0,0,1-24.144-42.591" transform="translate(-13214.337 14326.4)" fill="#fbca0d"/>
      <path id="Path_442183" data-name="Path 442183" d="M1155.4,911.382c.027-.1.056-.192.084-.289l66.728,18.445c-.026.1-.05.193-.077.29a34.619,34.619,0,1,1-66.735-18.446" transform="translate(-13214.337 14278.433)" fill="#ffd915"/>
      <path id="Path_442184" data-name="Path 442184" d="M1170.451,874.816a29.381,29.381,0,1,1,20.491,36.147,29.38,29.38,0,0,1-20.491-36.147" transform="translate(-13224.343 14316.395)" fill="#fca700"/>
      <path id="Path_442185" data-name="Path 442185" d="M1222.782,880.356c3.89,7.964,4.366,15.879,2.814,21.5-7.479,27.057-34.887,26-52.381,7.2a29.383,29.383,0,1,0,49.567-28.7" transform="translate(-13226.859 14298.607)" fill="#ec830e"/>
      <path id="Path_442186" data-name="Path 442186" d="M1180.955,884.885a25.935,25.935,0,0,1,49.026-2.851,25.937,25.937,0,1,0-49.148,16.228,25.814,25.814,0,0,1,.122-13.377" transform="translate(-13230.604 14310.287)" fill="#ffd915"/>
      <path id="Path_442187" data-name="Path 442187" d="M1236.085,899.063l.869-3.059,3.423.972-.847,2.986q5.564,2.269,5.948,7.6l-6.066.16a3.5,3.5,0,0,0-2.837-3.246q-2.2-.625-2.607.795a1.233,1.233,0,0,0,.127.987,5.354,5.354,0,0,0,1.854,1.321,40.028,40.028,0,0,1,5.111,3.065,6.393,6.393,0,0,1,2.143,3.054,6.662,6.662,0,0,1,.041,4.078,7.029,7.029,0,0,1-3.609,4.485,10.4,10.4,0,0,1-6.665.789l-.868,3.059-3.423-.973.869-3.059q-6.21-2.59-6.158-9.076l6.556.61q.025,2.959,3.254,3.876,2.522.716,2.918-.667a1.343,1.343,0,0,0-.267-1.3,6.226,6.226,0,0,0-1.878-1.307q-5.535-2.853-6.584-5.15a6.616,6.616,0,0,1-.365-4.695,7.411,7.411,0,0,1,3.06-4.215,8.535,8.535,0,0,1,6-1.089" transform="translate(-13259.79 14288.337)" fill="#ffd915" fill-rule="evenodd"/>
      <path id="Path_442188" data-name="Path 442188" d="M985.067,828.75H1156.75a5.476,5.476,0,0,1,5.46,5.46V955.7a6.389,6.389,0,0,1-6.37,6.37H985.067Z" transform="translate(-13103.371 14332.478)" fill="#471c0b" fill-rule="evenodd"/>
      <path id="Path_442189" data-name="Path 442189" d="M985.067,835.315H1157.52a5.476,5.476,0,0,1,5.46,5.461v121.49a6.389,6.389,0,0,1-6.37,6.37H985.067Z" transform="translate(-13103.371 14328.169)" fill="#824317" fill-rule="evenodd"/>
      <rect id="Rectangle_21416" data-name="Rectangle 21416" width="6.658" height="133.321" transform="translate(-12118.305 15163.484)" fill="#6d2d14"/>
      <path id="Path_442190" data-name="Path 442190" d="M996.271,971.488v1.375h-2.139v-1.375Zm3.818,0v1.375h-2.138v-1.375Zm3.819,0v1.375h-2.138v-1.375Zm3.819,0v1.375h-2.139v-1.375Zm3.818,0v1.375h-2.138v-1.375Zm3.818,0v1.375h-2.138v-1.375Zm3.819,0v1.375h-2.139v-1.375Zm3.818,0v1.375h-2.138v-1.375Zm3.818,0v1.375h-2.139v-1.375Zm3.818,0v1.375H1028.5v-1.375Zm3.819,0v1.375h-2.139v-1.375Zm3.818,0v1.375h-2.139v-1.375Zm3.818,0v1.375h-2.138v-1.375Zm3.819,0v1.375h-2.139v-1.375Zm3.818,0v1.375h-2.138v-1.375Zm3.819,0v1.375h-2.139v-1.375Zm3.818,0v1.375h-2.138v-1.375Zm3.818,0v1.375h-2.139v-1.375Zm3.818,0v1.375h-2.138v-1.375Zm3.819,0v1.375h-2.138v-1.375Zm3.818,0v1.375H1070.5v-1.375Zm3.818,0v1.375h-2.138v-1.375Zm3.818,0v1.375h-2.138v-1.375Zm3.818,0v1.375h-2.138v-1.375Zm3.818,0v1.375h-2.138v-1.375Zm3.819,0v1.375h-2.139v-1.375Zm3.818,0v1.375h-2.138v-1.375Zm3.818,0v1.375h-2.138v-1.375Zm3.819,0v1.375h-2.138v-1.375Zm3.818,0v1.375h-2.139v-1.375Zm3.819,0v1.375h-2.139v-1.375Zm3.818,0v1.375h-2.138v-1.375Zm3.818,0v1.375h-2.138v-1.375Zm3.818,0v1.375h-2.138v-1.375Zm3.819,0v1.375h-2.139v-1.375Zm3.818,0v1.375h-2.138v-1.375Zm3.818,0v1.375H1131.6v-1.375Zm3.819,0v1.375h-2.138v-1.375Zm3.818,0v1.375h-2.139v-1.375Zm3.818,0v1.375h-2.138v-1.375Zm3.819,0v1.375h-2.138v-1.375Zm3.818,0v1.375h-2.138v-1.375Zm3.818,0v1.375h-2.139v-1.375Zm3.818,0v1.375h-2.138v-1.375Zm2.128,0,.033-.007.033-.01.025-.011.047-.027.031-.026.026-.024.029-.036.013-.018,0-.012.019-.036v-.006l0-.006.009-.029,0-.025.045-.312,1.354.237-.052.355-.035.138-.04.122-.044.105-.061.122-.092.147-.082.108-.086.1-.086.084-.159.129-.092.061-.119.068-.087.042-.151.059-.177.049-.168.027-.16.011h-.434v-1.375h.418Zm.283-4.287h1.375v2.139h-1.375Zm0-3.818h1.375v2.138h-1.375Zm0-3.819h1.375V961.7h-1.375Zm0-3.818h1.375v2.139h-1.375Zm0-3.818h1.375v2.138h-1.375Zm0-3.819h1.375v2.139h-1.375Zm0-3.818h1.375v2.139h-1.375Zm0-3.819h1.375v2.139h-1.375Zm0-3.818h1.375v2.138h-1.375Zm0-3.819h1.375v2.138h-1.375Zm0-3.819h1.375v2.139h-1.375Zm0-3.818h1.375v2.139h-1.375Zm0-3.818h1.375v2.138h-1.375Zm0-3.818h1.375V919.7h-1.375Zm0-3.819h1.375v2.139h-1.375Zm0-3.819h1.375v2.139h-1.375Zm0-3.817h1.375v2.138h-1.375Zm0-3.819h1.375v2.138h-1.375Zm0-3.818h1.375V900.6h-1.375Zm0-3.819h1.375v2.139h-1.375Zm0-3.818h1.375v2.138h-1.375Zm0-3.818h1.375v2.138h-1.375Zm0-3.818h1.375v2.138h-1.375Zm0-3.819h1.375v2.139h-1.375Zm0-3.818h1.375v2.138h-1.375Zm0-3.818h1.375v2.138h-1.375Zm0-3.819h1.375v2.138h-1.375Zm0-3.818h1.375v2.139h-1.375Zm0-3.818h1.375v2.138h-1.375Zm0-3.819h1.375V858.6h-1.375Zm0-3.819h1.375v2.138h-1.375Zm-3.933-2.371V848.9h2.138v1.375Zm-3.818,0V848.9h2.138v1.375Zm-3.819,0V848.9h2.138v1.375Zm-3.818,0V848.9h2.139v1.375Zm-3.818,0V848.9h2.138v1.375Zm-3.819,0V848.9h2.138v1.375Zm-3.818,0V848.9h2.138v1.375Zm-3.819,0V848.9h2.139v1.375Zm-3.818,0V848.9h2.138v1.375Zm-3.819,0V848.9h2.138v1.375Zm-3.818,0V848.9h2.138v1.375Zm-3.819,0V848.9h2.139v1.375Zm-3.819,0V848.9h2.139v1.375Zm-3.818,0V848.9h2.138v1.375Zm-3.819,0V848.9h2.138v1.375Zm-3.818,0V848.9h2.139v1.375Zm-3.818,0V848.9h2.139v1.375Zm-3.818,0V848.9h2.138v1.375Zm-3.818,0V848.9h2.138v1.375Zm-3.819,0V848.9h2.138v1.375Zm-3.819,0V848.9h2.139v1.375Zm-3.818,0V848.9h2.138v1.375Zm-3.818,0V848.9h2.138v1.375Zm-3.818,0V848.9h2.138v1.375Zm-3.818,0V848.9h2.138v1.375Zm-3.819,0V848.9h2.139v1.375Zm-3.818,0V848.9h2.139v1.375Zm-3.818,0V848.9h2.138v1.375Zm-3.819,0V848.9h2.139v1.375Zm-3.818,0V848.9h2.138v1.375Zm-3.818,0V848.9h2.138v1.375Zm-3.819,0V848.9h2.138v1.375Zm-3.819,0V848.9h2.139v1.375Zm-3.818,0V848.9h2.139v1.375Zm-3.818,0V848.9h2.138v1.375Zm-3.818,0V848.9h2.139v1.375Zm-3.819,0V848.9h2.138v1.375Zm-3.818,0V848.9h2.138v1.375Zm-3.819,0V848.9h2.138v1.375Zm-3.818,0V848.9h2.139v1.375Zm-3.818,0V848.9h2.139v1.375Zm-3.818,0V848.9h2.138v1.375Zm-3.818,0V848.9h2.138v1.375Zm-3.819,0V848.9h2.139v1.375Zm169.5.691h-1.375v-.691h-.115V848.9C1164.1,848.9,1164.251,848.557,1164.251,850.963Z" transform="translate(-13109.32 14319.266)" fill="#d49b45" fill-rule="evenodd"/>
      <path id="Path_442191" data-name="Path 442191" d="M1286.856,948.039h82.5a4.1,4.1,0,0,1,4.034,4.143v30.812a4.1,4.1,0,0,1-4.034,4.142h-82.5c-10.466,0-19.03-8.8-19.03-19.548h0c0-10.751,8.564-19.549,19.03-19.549" transform="translate(-13288.956 14254.185)" fill="#471c0b" fill-rule="evenodd"/>
      <path id="Path_442192" data-name="Path 442192" d="M1285.1,954.648h81.693a4.061,4.061,0,0,1,3.994,4.1v30.509a4.061,4.061,0,0,1-3.994,4.1H1285.1c-10.363,0-18.843-8.71-18.843-19.355h0c0-10.645,8.48-19.356,18.843-19.356" transform="translate(-13287.928 14249.847)" fill="#592109" fill-rule="evenodd"/>
      <path id="Path_442193" data-name="Path 442193" d="M1299.661,974.034a12.422,12.422,0,1,1-12.09,12.418,12.257,12.257,0,0,1,12.09-12.418" transform="translate(-13301.915 14237.123)" fill="#d49b45" fill-rule="evenodd"/>
      <path id="Path_442194" data-name="Path 442194" d="M1302.715,983.291a5.5,5.5,0,1,1-5.357,5.5,5.43,5.43,0,0,1,5.357-5.5" transform="translate(-13308.339 14231.047)" fill="#e1ba5c" fill-rule="evenodd"/>
      <path id="Path_442195" data-name="Path 442195" d="M948.627,768.034a25.641,25.641,0,1,1-25.64,25.64,25.64,25.64,0,0,1,25.64-25.64" transform="translate(-13062.626 14372.328)" fill="#009844" fill-rule="evenodd"/>
      <path id="Path_442196" data-name="Path 442196" d="M947.412,827.232a3.741,3.741,0,1,1,6.1-4.337l5.079,7.111,18.234-14.885a3.739,3.739,0,1,1,4.718,5.8L960.3,838.259c-.087.074-.178.146-.273.214a3.741,3.741,0,0,1-5.216-.88Z" transform="translate(-13078.202 14341.974)" fill="#fff"/>
      <g id="Group_185554" data-name="Group 185554" transform="translate(-11859.365 15037.299)">
        <g id="Group_185553" data-name="Group 185553" transform="translate(0 0)" clip-path="url(#clip-path)">
          <rect id="Rectangle_21417" data-name="Rectangle 21417" width="142.504" height="259.506" transform="translate(0 0)" fill="url(#linear-gradient)"/>
        </g>
      </g>
      <path id="Rectangle_21418" data-name="Rectangle 21418" d="M27.114,0H98.4a27.113,27.113,0,0,1,27.113,27.113V177.974A27.115,27.115,0,0,1,98.4,205.09H27.115A27.115,27.115,0,0,1,0,177.974V27.114A27.114,27.114,0,0,1,27.114,0Z" transform="translate(-11850.871 15054.991)" fill="#e4f5fb"/>
      <path id="Path_442202" data-name="Path 442202" d="M1879.446,519.62a9.367,9.367,0,0,1,9.319,9.317v4.955H1763.25v-4.955a9.366,9.366,0,0,1,9.318-9.317Z" transform="translate(-13614.121 14535.371)" fill="#93d9ff" fill-rule="evenodd"/>
      <path id="Path_442203" data-name="Path 442203" d="M1920.4,491.785a2.108,2.108,0,0,0,0-4.065h-28.709a2.108,2.108,0,0,0,0,4.065Z" transform="translate(-13697.402 14556.308)" fill="#fff" fill-rule="evenodd"/>
      <path id="Path_442204" data-name="Path 442204" d="M1915.31,1148.195h13.966a6.61,6.61,0,0,1,6.59,6.59h0a6.61,6.61,0,0,1-6.59,6.591H1915.31a6.61,6.61,0,0,1-6.591-6.591h0a6.611,6.611,0,0,1,6.591-6.59" transform="translate(-13709.597 14122.815)" fill="#fff" fill-rule="evenodd"/>
      <path id="Path_442205" data-name="Path 442205" d="M2004.463,483.162a3.6,3.6,0,1,1-3.6,3.6,3.6,3.6,0,0,1,3.6-3.6" transform="translate(-13770.075 14559.301)" fill="#fff" fill-rule="evenodd"/>
      <g id="Group_185556" data-name="Group 185556" transform="translate(-11844.351 15074.587)">
        <g id="Group_185555" data-name="Group 185555" transform="translate(0 0)" clip-path="url(#clip-path-2)">
          <rect id="Rectangle_21419" data-name="Rectangle 21419" width="112.473" height="118.915" transform="translate(0 0)" fill="url(#linear-gradient-2)"/>
        </g>
      </g>
      <path id="Path_442207" data-name="Path 442207" d="M1858.631,607.313a46.626,46.626,0,1,1-46.626,46.625,46.625,46.625,0,0,1,46.626-46.625" transform="translate(-13646.121 14477.815)" fill="#fff" fill-rule="evenodd"/>
      <rect id="Rectangle_21420" data-name="Rectangle 21420" width="7.193" height="1.637" transform="translate(-11740.808 15058.88)" fill="#fff"/>
      <rect id="Rectangle_21421" data-name="Rectangle 21421" width="7.193" height="1.637" transform="translate(-11740.808 15061.822)" fill="#fff"/>
      <rect id="Rectangle_21422" data-name="Rectangle 21422" width="7.193" height="1.638" transform="translate(-11740.808 15064.766)" fill="#fff"/>
      <path id="Path_442217" data-name="Path 442217" d="M1804.355,962.519h75.911a16.313,16.313,0,0,1,16.265,16.265h0a16.313,16.313,0,0,1-16.265,16.265h-75.911a16.313,16.313,0,0,1-16.265-16.265h0a16.313,16.313,0,0,1,16.265-16.265" transform="translate(-13630.425 14244.681)" fill="#4eb3fa" fill-rule="evenodd"/>
      <path id="Path_442218" data-name="Path 442218" d="M1896.423,932.017a25.64,25.64,0,1,1-25.641,25.64,25.641,25.641,0,0,1,25.641-25.64" transform="translate(-13684.699 14264.7)" fill="#009844" fill-rule="evenodd"/>
      <path id="Path_442219" data-name="Path 442219" d="M1895.208,991.214a3.741,3.741,0,0,1,6.1-4.337l5.079,7.111,18.234-14.885a3.74,3.74,0,1,1,4.719,5.8l-21.237,17.336c-.087.075-.178.146-.273.214a3.741,3.741,0,0,1-5.216-.879Z" transform="translate(-13700.275 14234.346)" fill="#fff"/>
      <rect id="Rectangle_21423" data-name="Rectangle 21423" width="81.541" height="10.457" transform="translate(-12092.669 15273.898)" fill="#fda600"/>
      <rect id="Rectangle_21424" data-name="Rectangle 21424" width="10.333" height="10.457" transform="translate(-12021.46 15273.898)" fill="#fda600"/>
      <rect id="Rectangle_21425" data-name="Rectangle 21425" width="10.457" height="10.457" transform="translate(-12031.917 15273.898)" fill="#ffd115"/>
      <rect id="Rectangle_21426" data-name="Rectangle 21426" width="37.596" height="10.457" transform="translate(-12069.514 15273.898)" fill="#fca700"/>
      <rect id="Rectangle_21427" data-name="Rectangle 21427" width="15.811" height="10.457" transform="translate(-12085.324 15273.898)" fill="#ec830e"/>
      <rect id="Rectangle_21428" data-name="Rectangle 21428" width="73.699" height="0.997" transform="translate(-12088.809 15284.355)" fill="#df641e"/>
      <rect id="Rectangle_21429" data-name="Rectangle 21429" width="84.668" height="10.457" transform="translate(-12082.631 15285.352)" fill="#fda600"/>
      <rect id="Rectangle_21430" data-name="Rectangle 21430" width="10.729" height="10.457" transform="translate(-12008.691 15285.352)" fill="#fda600"/>
      <rect id="Rectangle_21431" data-name="Rectangle 21431" width="10.858" height="10.457" transform="translate(-12019.549 15285.352)" fill="#ffd115"/>
      <rect id="Rectangle_21432" data-name="Rectangle 21432" width="39.038" height="10.457" transform="translate(-12058.587 15285.352)" fill="#fca700"/>
      <rect id="Rectangle_21433" data-name="Rectangle 21433" width="16.417" height="10.457" transform="translate(-12075.004 15285.352)" fill="#ec830e"/>
      <rect id="Rectangle_21434" data-name="Rectangle 21434" width="76.525" height="0.996" transform="translate(-12078.62 15295.809)" fill="#df641e"/>
      <rect id="Rectangle_21435" data-name="Rectangle 21435" width="81.541" height="10.457" transform="translate(-12082.631 15262.444)" fill="#fda600"/>
      <rect id="Rectangle_21436" data-name="Rectangle 21436" width="10.333" height="10.457" transform="translate(-12011.422 15262.444)" fill="#fda600"/>
      <rect id="Rectangle_21437" data-name="Rectangle 21437" width="10.457" height="10.457" transform="translate(-12021.879 15262.444)" fill="#ffd115"/>
      <rect id="Rectangle_21438" data-name="Rectangle 21438" width="37.596" height="10.457" transform="translate(-12059.476 15262.444)" fill="#fca700"/>
      <rect id="Rectangle_21439" data-name="Rectangle 21439" width="15.81" height="10.457" transform="translate(-12075.285 15262.444)" fill="#ec830e"/>
      <rect id="Rectangle_21440" data-name="Rectangle 21440" width="73.699" height="0.996" transform="translate(-12078.769 15272.902)" fill="#df641e"/>
      <path id="Path_442220" data-name="Path 442220" d="M1396.66,364.412a38.036,38.036,0,1,1,38,38.073,38.035,38.035,0,0,1-38-38.073" transform="translate(-13373.515 14662.179)" fill="#e58927"/>
      <path id="Path_442221" data-name="Path 442221" d="M1390.109,356.559a38.035,38.035,0,1,1,38,38.072,38.035,38.035,0,0,1-38-38.072" transform="translate(-13369.215 14667.334)" fill="#ffef95"/>
      <path id="Path_442222" data-name="Path 442222" d="M1393.614,360.269a38.035,38.035,0,1,1,38,38.072,38.036,38.036,0,0,1-38-38.072" transform="translate(-13371.515 14664.898)" fill="#fbca0d"/>
      <path id="Path_442223" data-name="Path 442223" d="M1393.614,432.208c0-.111,0-.22.005-.33l76.062.076c0,.11,0,.219,0,.33a38.035,38.035,0,0,1-76.071-.075" transform="translate(-13371.515 14592.96)" fill="#ffd915"/>
      <path id="Path_442224" data-name="Path 442224" d="M1410.361,371.267a32.28,32.28,0,1,1,32.248,32.312A32.281,32.281,0,0,1,1410.361,371.267Z" transform="translate(-13382.507 14653.906)" fill="#fca700"/>
      <path id="Path_442225" data-name="Path 442225" d="M1410.361,371.267a32.28,32.28,0,1,1,32.248,32.312A32.281,32.281,0,0,1,1410.361,371.267Z" transform="translate(-13382.507 14653.906)" fill="none" stroke="#fca700" stroke-miterlimit="10" stroke-width="0.216"/>
      <path id="Path_442226" data-name="Path 442226" d="M1469.224,352.829c6.442,7.3,9.255,15.546,9.249,21.948-.031,30.842-29.371,37.712-53.384,22.908a32.283,32.283,0,1,0,44.135-44.856" transform="translate(-13392.174 14644.843)" fill="#ec830e"/>
      <path id="Path_442227" data-name="Path 442227" d="M1422.763,381.045a28.494,28.494,0,0,1,51.1-17.32,28.5,28.5,0,1,0-47.328,31.525,28.362,28.362,0,0,1-3.772-14.205" transform="translate(-13389.258 14647.088)" fill="#ffd915"/>
      <rect id="Rectangle_21441" data-name="Rectangle 21441" width="8.766" height="68.362" transform="matrix(0.721, -0.693, 0.693, 0.721, -12021.565, 15030.221)" fill="#fda600"/>
      <rect id="Rectangle_21442" data-name="Rectangle 21442" width="8.767" height="8.663" transform="translate(-11980.172 15073.24) rotate(-43.904)" fill="#fda600"/>
      <rect id="Rectangle_21443" data-name="Rectangle 21443" width="8.767" height="8.767" transform="matrix(0.721, -0.693, 0.693, 0.721, -11986.251, 15066.922)" fill="#ffd115"/>
      <rect id="Rectangle_21444" data-name="Rectangle 21444" width="8.767" height="31.52" transform="matrix(0.721, -0.693, 0.693, 0.721, -12008.105, 15044.209)" fill="#fca700"/>
      <rect id="Rectangle_21445" data-name="Rectangle 21445" width="8.767" height="13.255" transform="translate(-12017.296 15034.658) rotate(-43.899)" fill="#ec830e"/>
      <rect id="Rectangle_21446" data-name="Rectangle 21446" width="0.835" height="61.787" transform="matrix(0.721, -0.693, 0.693, 0.721, -12019.923, 15033.133)" fill="#df641e"/>
      <path id="Path_442229" data-name="Path 442229" d="M1147.78,581.685c-15.887-13.837-24.088-30.909-16.347-42.708.5-.756,3.418-3.974,4.026-4.661,10.1-11.439,32.088-10.518,48.992,4.205,19.4,16.239,22.742,38.111,12.643,49.548a31.914,31.914,0,0,1-4.418,4.174c-11.086,7.622-29.757,2.626-44.9-10.558" transform="translate(-13197.5 14530.848)" fill="#e58927"/>
      <path id="Path_442230" data-name="Path 442230" d="M1139.105,595.974c-16.625-14.483-21.918-35.5-11.82-46.938s31.761-8.975,48.386,5.507,21.918,35.5,11.82,46.938-31.761,8.975-48.387-5.507" transform="translate(-13193.352 14520.788)" fill="#ffef95"/>
      <path id="Path_442231" data-name="Path 442231" d="M1143.726,596.618c-16.626-14.483-21.917-35.5-11.819-46.939s31.761-8.975,48.387,5.508,21.917,35.5,11.819,46.938-31.761,8.975-48.387-5.507" transform="translate(-13196.385 14520.366)" fill="#fbca0d"/>
      <path id="Path_442232" data-name="Path 442232" d="M1175.587,620.449c-.087-.076-.172-.154-.259-.23l36.563-41.427.264.226c16.625,14.482,21.917,35.5,11.819,46.938s-31.761,8.975-48.387-5.507" transform="translate(-13228.246 14496.533)" fill="#ffd915"/>
      <path id="Path_442233" data-name="Path 442233" d="M1156.672,603.141c-14.11-12.291-18.6-30.127-10.031-39.836s26.955-7.617,41.065,4.674,18.6,30.127,10.032,39.836S1170.782,615.433,1156.672,603.141Z" transform="translate(-13206.564 14510.707)" fill="#fca700"/>
      <path id="Path_442234" data-name="Path 442234" d="M1156.672,603.141c-14.11-12.291-18.6-30.127-10.031-39.836s26.955-7.617,41.065,4.674,18.6,30.127,10.032,39.836S1170.782,615.433,1156.672,603.141Z" transform="translate(-13206.564 14510.707)" fill="none" stroke="#fca700" stroke-miterlimit="10" stroke-width="0.216"/>
      <path id="Path_442235" data-name="Path 442235" d="M1189.458,557.32a46.141,46.141,0,0,1,21.821,10.076c24.409,21.263,15.769,42-7.478,44.893,9.846,3.05,19.37,1.676,24.862-4.547,8.57-9.709,4.079-27.545-10.031-39.836-9.21-8.022-20.24-11.7-29.174-10.585" transform="translate(-13237.521 14510.755)" fill="#ec830e"/>
      <path id="Path_442236" data-name="Path 442236" d="M1167.868,608.429c-12.455-10.85-16.42-26.594-8.855-35.165,4.422-5.01,11.8-6.459,19.663-4.632-9.126-3.209-18.11-2.151-23.19,3.6-7.565,8.571-3.6,24.315,8.855,35.165a39.2,39.2,0,0,0,16.587,8.758,40.584,40.584,0,0,1-13.061-7.729" transform="translate(-13212.704 14504.377)" fill="#ffd915"/>
      <rect id="Rectangle_21447" data-name="Rectangle 21447" width="68.362" height="8.767" transform="matrix(0.443, -0.897, 0.897, 0.443, -11896.363, 15061.021)" fill="#fda600"/>
      <rect id="Rectangle_21448" data-name="Rectangle 21448" width="8.663" height="8.767" transform="translate(-11896.363 15061.021) rotate(-63.719)" fill="#fda600"/>
      <rect id="Rectangle_21449" data-name="Rectangle 21449" width="8.767" height="8.767" transform="matrix(0.443, -0.897, 0.897, 0.443, -11892.528, 15053.253)" fill="#ffd115"/>
      <rect id="Rectangle_21450" data-name="Rectangle 21450" width="31.519" height="8.767" transform="matrix(0.443, -0.897, 0.897, 0.443, -11888.646, 15045.393)" fill="#fca700"/>
      <rect id="Rectangle_21451" data-name="Rectangle 21451" width="13.255" height="8.767" transform="translate(-11874.69 15017.133) rotate(-63.718)" fill="#ec830e"/>
      <rect id="Rectangle_21452" data-name="Rectangle 21452" width="61.787" height="0.836" transform="matrix(0.443, -0.897, 0.897, 0.443, -11887.025, 15061.91)" fill="#df641e"/>
      <path id="Path_442238" data-name="Path 442238" d="M1738.662,445.829c13.39-14.856,29.726-22.364,40.8-14.825.709.483,3.716,3.308,4.359,3.9,10.694,9.772,9.464,30.626-4.783,46.432-15.727,18.154-36.539,20.97-47.233,11.2a30.35,30.35,0,0,1-3.891-4.261c-7.056-10.646-2.012-28.286,10.747-42.441" transform="translate(-13588.827 14595.48)" fill="#e58927"/>
      <path id="Path_442239" data-name="Path 442239" d="M1729.856,437.391c14.014-15.546,34.046-20.229,44.741-10.46s8.005,30.291-6.009,45.836-34.046,20.229-44.742,10.46-8.005-30.291,6.01-45.837" transform="translate(-13583.963 14599.554)" fill="#ffef95"/>
      <path id="Path_442240" data-name="Path 442240" d="M1729.171,441.765c14.015-15.546,34.047-20.229,44.742-10.46s8,30.291-6.01,45.837-34.046,20.229-44.742,10.46-8-30.291,6.009-45.837" transform="translate(-13583.512 14596.683)" fill="#fbca0d"/>
      <path id="Path_442241" data-name="Path 442241" d="M1729.171,471.021c.073-.081.148-.161.222-.242l38.729,35.373c-.073.082-.145.165-.219.246-14.014,15.546-34.046,20.229-44.742,10.46s-8-30.291,6.009-45.837" transform="translate(-13583.512 14567.428)" fill="#ffd915"/>
      <path id="Path_442242" data-name="Path 442242" d="M1741.326,454.05c11.894-13.193,28.9-17.168,37.972-8.877s6.794,25.708-5.1,38.9-28.894,17.167-37.972,8.877S1729.432,467.244,1741.326,454.05Z" transform="translate(-13592.737 14587.075)" fill="#fca700"/>
      <path id="Path_442243" data-name="Path 442243" d="M1741.326,454.05c11.894-13.193,28.9-17.168,37.972-8.877s6.794,25.708-5.1,38.9-28.894,17.167-37.972,8.877S1729.432,467.244,1741.326,454.05Z" transform="translate(-13592.737 14587.075)" fill="none" stroke="#fca700" stroke-miterlimit="10" stroke-width="0.216"/>
      <path id="Path_442244" data-name="Path 442244" d="M1784.791,486.477a43.807,43.807,0,0,1-9.917,20.549c-20.576,22.824-40.115,14.288-42.489-7.823-3.054,9.3-1.9,18.357,3.914,23.671,9.078,8.291,26.078,4.316,37.972-8.877,7.764-8.611,11.431-19.021,10.519-27.519" transform="translate(-13592.785 14557.125)" fill="#ec830e"/>
      <path id="Path_442245" data-name="Path 442245" d="M1749.909,464.659c10.5-11.646,25.507-15.155,33.519-7.837,4.683,4.278,5.94,11.308,4.079,18.738,3.194-8.609,2.335-17.154-3.046-22.068-8.013-7.319-23.02-3.811-33.519,7.836a37.21,37.21,0,0,0-8.581,15.6,38.51,38.51,0,0,1,7.547-12.271" transform="translate(-13600.412 14581.281)" fill="#ffd915"/>
      <path id="Path_442247" data-name="Path 442247" d="M1437.2,617.813l.285,1.542-.234.045-.445.087-.444.089-.446.091-.445.1-.445.1-.445.1-.444.1-.445.106-.443.107-.443.111-.443.113-.444.117-.442.119-.443.122-.442.125-.442.127-.441.13-.107.032-.463-1.5.117-.034.451-.133.451-.13.452-.127.452-.125.453-.121.453-.12.452-.116.454-.114.455-.11.454-.109.454-.1.456-.1.454-.1.454-.1.456-.094.456-.09.455-.088Zm13.181-1.327-.007,1.572-.184,0-.444.009-.446.012-.446.014-.445.018-.447.019-.445.022-.446.026-.446.027-.446.031-.446.032-.446.035-.447.038-.447.041-.446.044-.447.045-.447.049-.447.051-.314.038-.174-1.559.324-.04.456-.053.457-.049.456-.047.456-.045.458-.041.455-.039.457-.036.457-.034.455-.03.457-.03.456-.025.456-.023.456-.02.456-.017.455-.014.455-.012.455-.01Zm13.164.918-.292,1.554-.285-.045-.435-.065-.435-.062-.434-.06-.438-.057-.436-.055-.437-.052-.438-.05-.437-.047-.44-.045-.438-.042-.439-.04-.44-.037-.441-.035-.44-.033-.441-.029-.441-.027-.442-.024-.288-.015.115-1.571.3.015.452.026.451.028.452.03.45.033.45.035.45.038.449.04.449.043.449.046.447.048.448.052.447.054.447.056.445.059.446.061.445.063.444.067Zm12.745,3.121-.573,1.486-.016-.006-.413-.139-.414-.136-.415-.133-.416-.131-.417-.128-.417-.126-.419-.124-.419-.121-.42-.119-.421-.117-.421-.114-.422-.112-.423-.11-.424-.106-.424-.1-.425-.1-.426-.1-.427-.1-.141-.031.4-1.534.15.034.435.1.436.1.434.1.435.107.433.109.433.112.431.114.431.116.43.119.429.122.429.124.428.127.426.129.425.131.425.134.425.136.422.139.423.142Zm11.929,5.222-.83,1.373-.152-.083-.382-.206-.384-.2-.385-.2-.385-.2-.387-.2-.388-.195-.388-.192-.391-.19-.392-.188-.393-.186-.393-.183-.4-.181-.4-.178-.4-.175-.4-.174-.4-.171-.4-.169-.377-.156.672-1.448.386.16.41.173.408.176.409.177.4.18.4.182.4.185.4.186.4.191.4.191.4.194.4.2.4.2.4.2.394.2.393.206.391.208.391.21ZM1377.1,672.863l1.595.319-.081.341-.1.416-.1.415-.093.417-.09.416-.088.417-.086.418-.082.417-.079.419-.077.42-.032.179h-1.656l.075-.415.078-.429.082-.428.085-.428.086-.427.09-.425.092-.426.094-.426.1-.424.1-.425Zm3.926-11.337,1.505.588-.038.084-.172.393-.171.395-.167.395-.165.4-.163.4-.162.4-.158.4-.155.4-.154.4-.151.4-.147.4-.146.4-.144.4-.141.4-.138.405-.136.4-.133.407-.131.407-.02.062-1.567-.419.022-.071.134-.416.136-.415.139-.414.141-.416.144-.411.146-.412.15-.412.151-.41.154-.411.156-.41.159-.407.162-.408.164-.406.167-.405.168-.4.171-.4.175-.4.177-.4Zm6.279-11.312,1.369.832-.131.194-.242.362-.238.362-.237.365-.235.365-.232.368-.23.368-.228.37-.225.37-.222.371-.221.373-.219.374-.215.374-.214.376-.212.379-.208.377-.207.38-.2.379-.155.295-1.459-.683.161-.3.208-.389.211-.389.213-.386.216-.385.218-.384.221-.384.222-.384.226-.379.227-.38.23-.379.233-.377.236-.377.236-.375.241-.374.242-.373.244-.371.246-.369Zm8.226-10.122,1.191,1.054-.183.188-.307.322-.3.323-.3.323-.3.326-.3.327-.3.329-.294.331-.292.332-.289.333-.287.335-.284.336-.284.338-.279.339-.278.34-.276.342-.274.343-.271.345-.142.182-1.306-.919.146-.189.277-.353.28-.351.282-.349.284-.348.286-.347.289-.345.291-.343.294-.343.3-.341.3-.338.3-.339.3-.335.306-.334.306-.333.309-.331.312-.329.314-.329Zm9.927-8.609.97,1.246-.049.036-.369.271-.366.273-.365.272-.362.277-.362.277-.359.28-.356.282-.354.283-.352.285-.35.288-.348.289-.346.29-.344.293-.341.294-.34.3-.336.3-.335.3-.211.19-1.112-1.13.218-.2.342-.306.345-.3.347-.3.35-.3.351-.3.355-.3.355-.295.359-.293.359-.292.363-.29.364-.287.367-.287.368-.284.371-.283.373-.279.376-.278.377-.276Zm11.3-6.828.732,1.391-.381.19-.423.214-.423.216-.419.219-.417.22-.416.223-.413.225-.412.227-.41.229-.408.232-.4.233-.4.236-.4.239-.4.239-.4.242-.4.245-.394.246-.135.086-.885-1.3.144-.091.4-.251.4-.25.406-.247.409-.247.41-.243.414-.241.414-.239.417-.237.419-.233.421-.233.422-.231.426-.227.426-.226.429-.223.431-.222.433-.218Zm82.805,9.633-1.643-.178-.023.027-.041-.034-11.542-1.251,6.424-2.5-.3-.2-.363-.236-.365-.235-.232-.148.922-1.32.239.153.373.241.371.243.37.244.062.042.988-6.373Zm-75.146-12.937.562,1.465-.1.037-.437.164-.437.167-.435.169-.434.172-.434.176-.434.177-.433.182-.433.183-.431.186-.432.19-.431.192-.43.2-.43.2-.429.2-.427.2-.429.206-.427.21-.723-1.4.437-.213.438-.211.437-.209.438-.205.439-.2.44-.2.44-.2.442-.193.441-.19.442-.187.443-.185.443-.182.444-.179.444-.175.445-.173.445-.17.446-.167Z" transform="translate(-13360.043 14471.795)" fill="#183b93"/>
      <path id="Path_442248" data-name="Path 442248" d="M1459.5,667.541l.492,1.312.189-.07.365-.134.365-.133.367-.129.368-.127.368-.126.37-.123.371-.121.373-.119.372-.117.374-.114.376-.111.376-.111.378-.107.378-.105.38-.1.381-.1.381-.1.092-.024-.34-1.359-.1.025-.389.1-.39.1-.388.106-.387.108-.385.11-.385.112-.383.115-.382.117-.383.12-.38.122-.379.124-.378.126-.378.128-.376.13-.375.132-.375.136-.371.136Zm-10.229,4.91.716,1.2.136-.08.33-.193.33-.192.332-.188.333-.189.335-.185.335-.184.337-.181.339-.179.339-.178.341-.176.342-.174.343-.172.344-.169.346-.168.347-.165.348-.164.349-.162.246-.112-.579-1.276-.255.115-.358.165-.356.167-.355.169-.354.171-.352.174-.351.175-.35.178-.348.179-.348.182-.346.184-.345.186-.343.188-.342.19-.341.192-.339.193-.338.2-.337.2Zm-9.2,6.626.916,1.062.188-.162.288-.245.29-.243.291-.242.293-.241.295-.239.3-.237.3-.235.3-.233.3-.232.3-.23.3-.228.3-.227.306-.224.308-.223.308-.222.311-.219.311-.218.2-.14-.8-1.154-.21.145-.319.223-.317.224-.316.226-.314.227-.312.229-.312.232-.31.233-.308.235-.306.237-.305.238-.3.241-.3.242-.3.244-.3.245-.3.247-.3.25-.295.25Zm-7.9,8.13,1.091.883.009-.011.239-.291.241-.291.243-.289.245-.288.246-.286.248-.284.249-.284.251-.282.254-.281.254-.278.256-.277.259-.276.259-.275.261-.272.263-.271.265-.27.265-.268.269-.267.089-.088-.985-1-.095.093-.273.272-.273.273-.269.276-.269.277-.267.279-.265.281-.264.282-.263.284-.26.285-.258.286-.257.288-.255.29-.253.291-.251.292-.251.295-.247.3-.246.3-.245.3Zm-6.35,9.376,1.228.682.074-.133.186-.33.188-.329.189-.327.191-.326.194-.325.2-.324.2-.322.2-.322.2-.32.2-.319.2-.318.207-.316.209-.316.21-.312.212-.313.214-.311.216-.309.2-.29-1.147-.81-.21.3-.221.317-.219.318-.217.319-.215.321-.213.322-.211.323-.21.324-.207.327-.206.326-.2.329-.2.33-.2.331-.2.332-.2.334-.195.335-.191.336-.19.337Zm94.5-20.743-.832,1.128.065.047.3.224.3.226.3.229.3.229.3.231.3.233.3.234.294.237.293.238.292.24.29.242.289.243.287.246.286.246.285.248.283.25.282.252.279.255.042.038.957-1.027-.049-.045-.286-.258-.287-.258-.289-.256-.29-.254-.292-.252-.292-.251-.3-.249-.3-.247-.3-.245-.3-.243-.3-.242-.3-.24-.3-.239-.305-.236-.307-.234-.308-.234-.309-.231-.311-.229Zm-9.708-5.863-.624,1.255.184.09.341.169.339.171.339.174.336.175.336.177.334.179.334.181.332.182.331.186.331.187.328.189.327.19.327.193.325.195.324.2.323.2.322.2.245.155.757-1.18-.254-.161-.328-.2-.33-.2-.331-.2-.331-.2-.333-.2-.336-.195-.336-.193-.337-.191-.337-.189-.341-.188-.341-.184-.342-.183-.342-.18-.345-.18-.346-.177-.346-.175-.349-.174Zm-10.592-4.073-.392,1.345.219.062.37.109.369.111.368.113.366.115.366.118.365.118.364.121.363.125.363.125.361.128.36.13.359.132.359.134.357.137.356.138.355.14.355.142.185.076.538-1.293-.193-.079-.361-.146-.364-.143-.364-.142-.366-.139-.366-.137-.367-.135-.368-.133-.37-.131-.37-.129-.371-.126-.373-.125-.373-.121-.375-.12-.375-.117-.376-.116-.378-.112-.378-.111Zm-11.15-2.146-.144,1.393.052.005.391.042.391.044.391.046.39.047.389.051.388.055.388.055.387.058.386.061.385.063.385.065.384.067.384.07.383.072.382.075.381.077.38.079.241.052.3-1.367-.247-.055-.389-.081-.39-.079-.391-.076-.391-.074-.392-.071-.394-.069-.393-.067-.4-.064-.394-.062-.4-.06-.4-.057-.4-.055-.4-.052-.4-.05-.4-.047-.4-.044-.4-.043Zm-11.347-.158.094,1.4.365-.026.406-.026.406-.023.405-.021.405-.019.4-.015.4-.013.4-.011.4-.007.4-.006.4,0h.8l.4.005.4.007.4.009.4.012.137.005.056-1.4-.147-.005-.408-.012-.408-.01-.41-.007-.409,0-.411,0h-.411l-.411,0-.411.005-.413.009-.412.01-.413.014-.413.017-.414.017-.415.023-.415.023-.415.027Zm-56.13,44.646,1.119-.875.029.01.015-.045,7.865-6.153-5.823.972.127-.284.159-.346.159-.344.1-.218-1.271-.6-.105.225-.164.352-.162.354-.159.355-.026.06-3.608-4.45Zm49.037-43.738.253,1.377.093-.017.393-.071.394-.068.4-.066.4-.063.4-.061.4-.059.4-.056.4-.054.4-.051.4-.049.4-.046.4-.044.4-.041.4-.039.405-.036.405-.034.407-.033-.1-1.4-.415.033-.416.034-.414.037-.414.039-.411.042-.411.045-.411.048-.41.049-.408.053-.408.055-.407.058-.405.059-.406.062-.4.065-.4.067-.4.07-.4.072Z" transform="translate(-13388.608 14440.987)" fill="#183b93"/>
    </g>
    <g id="Group_186352" data-name="Group 186352" transform="translate(1091.901 1504.16)">
      <path id="Path_442030" data-name="Path 442030" d="M89.557,95.463a33.183,33.183,0,1,1,33.164-33.208A33.222,33.222,0,0,1,89.557,95.463Z" transform="translate(0 0)" fill="#f0da28"/>
      <g id="Group_185479" data-name="Group 185479" transform="translate(67.934 29.223)">
        <path id="Path_442031" data-name="Path 442031" d="M102.139,83.209,73.6,29.12a32.905,32.905,0,0,0-14.325,4.738L90.151,92.375A33.466,33.466,0,0,0,102.139,83.209Z" transform="translate(-54.918 -29.12)" fill="#fae66c"/>
        <path id="Path_442032" data-name="Path 442032" d="M58.476,32.408,88.638,89.57a33.054,33.054,0,0,0,3.494-1.141L61.386,30.153A32.335,32.335,0,0,0,58.476,32.408Z" transform="translate(-58.476 -24.514)" fill="#fae66c"/>
      </g>
      <path id="Path_442033" data-name="Path 442033" d="M83.252,81.439A25.464,25.464,0,1,1,108.7,55.956,25.5,25.5,0,0,1,83.252,81.439Z" transform="translate(6.305 6.305)" fill="#ffaa31"/>
      <path id="Path_442034" data-name="Path 442034" d="M100.561,32.463A25.433,25.433,0,0,1,58.52,61.074a25.435,25.435,0,1,0,42.041-28.611Z" transform="translate(9.654 15.009)" fill="#d28000"/>
      <path id="Path_442035" data-name="Path 442035" d="M59.7,58.249a25.428,25.428,0,0,1,43.766-17.671A25.429,25.429,0,1,0,64.926,73.627,25.305,25.305,0,0,1,59.7,58.249Z" transform="translate(6.305 6.305)" fill="#d28000"/>
      <path id="Path_442036" data-name="Path 442036" d="M85.1,51.188a7.34,7.34,0,0,0-3.914-2.522,6.582,6.582,0,0,0,3.909-6.043,6.258,6.258,0,0,0-.857-3.254A7.08,7.08,0,0,0,82.1,37.043a7.173,7.173,0,0,0-2.91-1.146,19.87,19.87,0,0,0-2.255-.213v-3.9l-4.045.005v3.832h-2.38V31.791l-4.045.005v3.832h-3.33l-2.948.005.005,4.629h2.943l.016,18.577H60.2v4.635H63.15l3.336-.005v3.756l4.045-.005v-3.75h2.1l.284-.005v3.756l4.045-.005V63.4c1.157-.033,1.976-.076,2.457-.126a7.97,7.97,0,0,0,3.767-1.321,7.488,7.488,0,0,0,2.407-2.871,8.191,8.191,0,0,0,.879-3.7A6.682,6.682,0,0,0,85.1,51.188Zm-8.3-10.836a3.226,3.226,0,0,1,2.118.977,3.042,3.042,0,0,1,.715,2.1A2.947,2.947,0,0,1,78.8,45.6a3.712,3.712,0,0,1-2.266,1q-.8.09-4.083.1H68.762l-.005-6.442h3.232C74.631,40.259,76.236,40.286,76.793,40.351Zm3.079,17.142A3.524,3.524,0,0,1,77.83,58.6a25.133,25.133,0,0,1-3.854.175l-5.208.005-.005-7.446L73.3,51.33a19.02,19.02,0,0,1,4.984.4A3.422,3.422,0,0,1,80.052,53a3.621,3.621,0,0,1,.606,2.124A3.448,3.448,0,0,1,79.872,57.493Z" transform="translate(17.083 11.991)" fill="#d28000"/>
      <path id="Path_442037" data-name="Path 442037" d="M84.936,51.329A7.317,7.317,0,0,0,81.022,48.8a6.606,6.606,0,0,0,3.909-6.038,6.263,6.263,0,0,0-.857-3.259,7.025,7.025,0,0,0-5.044-3.472,19.875,19.875,0,0,0-2.255-.213l-.005-3.9-4.045.005.005,3.832h-2.38V31.927l-4.051.005.005,3.832H62.968l-2.942.005v4.635l2.948-.005.011,18.577H60.042v4.635H62.99l3.33-.005.005,3.756,4.045-.005v-3.75h2.1l.278-.005.005,3.756H76.8l-.005-3.821c1.163-.033,1.982-.071,2.457-.126a7.927,7.927,0,0,0,3.767-1.321,7.414,7.414,0,0,0,2.413-2.871,8.263,8.263,0,0,0,.879-3.7A6.656,6.656,0,0,0,84.936,51.329Zm-8.3-10.842a3.225,3.225,0,0,1,2.118.977,3.058,3.058,0,0,1,.71,2.1,2.943,2.943,0,0,1-.824,2.178,3.726,3.726,0,0,1-2.265,1c-.535.066-1.894.1-4.089.1H68.6L68.6,40.4l3.226-.005C74.471,40.395,76.07,40.427,76.633,40.487Zm3.079,17.142a3.511,3.511,0,0,1-2.042,1.108,25.224,25.224,0,0,1-3.86.175l-5.2.005L68.6,51.471l4.542-.005a19.022,19.022,0,0,1,4.984.4,3.408,3.408,0,0,1,1.758,1.272A3.624,3.624,0,0,1,80.5,55.26,3.465,3.465,0,0,1,79.712,57.629Z" transform="translate(16.369 12.597)" fill="#fcd73b"/>
      <g id="Group_185480" data-name="Group 185480" transform="translate(76.394 44.519)">
        <path id="Path_442038" data-name="Path 442038" d="M80.16,62.089a7.414,7.414,0,0,0,2.413-2.871,8.263,8.263,0,0,0,.879-3.7,6.656,6.656,0,0,0-1.37-4.193A7.348,7.348,0,0,0,78.168,48.8a6.334,6.334,0,0,0,3.723-4.7l-3.98-7.539a7.547,7.547,0,0,0-1.736-.53,19.877,19.877,0,0,0-2.255-.213l-.005-3.9-4.045.005.005,3.832H67.5V31.927l-4.051.005.005,3.832H60.666l5.077,9.624V40.4l3.226-.005q3.972,0,4.8.093a3.253,3.253,0,0,1,2.124.977,3.058,3.058,0,0,1,.71,2.1,2.943,2.943,0,0,1-.824,2.178,3.726,3.726,0,0,1-2.266,1c-.535.066-1.894.1-4.089.1H66.507l2.446,4.635,1.338-.005a19.021,19.021,0,0,1,4.984.4,3.408,3.408,0,0,1,1.758,1.272,3.624,3.624,0,0,1,.611,2.124,3.465,3.465,0,0,1-.786,2.369,3.511,3.511,0,0,1-2.042,1.108,12.961,12.961,0,0,1-1.949.147l2.424,4.6c.464-.022.846-.049,1.1-.076A7.927,7.927,0,0,0,80.16,62.089Z" transform="translate(-57.17 -31.922)" fill="#ffe146"/>
        <path id="Path_442039" data-name="Path 442039" d="M68.6,48.329h1.28L61.6,32.627H60.026l0,4.634,2.946,0,0,5.751L68.608,53.68Z" transform="translate(-60.026 -28.78)" fill="#ffe146"/>
        <path id="Path_442040" data-name="Path 442040" d="M61.8,36.871l2.478,4.689h.278l.278-.005v1.07l1.419,2.686h2.631l-.005-2.79L65.9,36.866Z" transform="translate(-52.114 -9.876)" fill="#ffe146"/>
      </g>
    </g>
    <path id="Path_442450" data-name="Path 442450" d="M26.352,27.155a5.449,5.449,0,0,0-.092-.971,6.016,6.016,0,0,0-.268-.973,7.157,7.157,0,0,0-.445-.975,8.961,8.961,0,0,0-.623-.976,6.876,6.876,0,0,0,.864.2,6.122,6.122,0,0,0,.85.08,5.79,5.79,0,0,0,.838-.041,5.853,5.853,0,0,0,.827-.163,5.681,5.681,0,0,0,.787-.272,5.226,5.226,0,0,0,.715-.376,5.13,5.13,0,0,0,.643-.478,5.386,5.386,0,0,0,.57-.58,5.558,5.558,0,0,0,.445-.6,4.972,4.972,0,0,0,.344-.636,4.728,4.728,0,0,0,.242-.67,4.812,4.812,0,0,0,.14-.7,6.563,6.563,0,0,0,.052-.712,6.168,6.168,0,0,0-.026-.7,6.019,6.019,0,0,0-.288-1.351,6.31,6.31,0,0,0-.255-.646,6.533,6.533,0,0,0-.328-.622,7.015,7.015,0,0,0-.4-.6q-.219-.294-.476-.576-.138-.152-.3-.319t-.353-.35q-.189-.182-.4-.379t-.451-.407L31.1,9.8,28.176,7.439l-2.1,2.519L24.363,8.567l2.1-2.518L23.533,3.681l-2.09,2.526-2.406-1.95L16.913,2.539,14.4,5.587,16.525,7.3,6.553,19.377l-2.1-1.7L1.994,20.658l2.1,1.7L6.47,24.273l-1.988,2.4L7.361,29l1.994-2.392,1.493,1.207.2.157-2,2.4,2.875,2.325,2.035-2.434q.317.243.589.449t.5.372q.227.167.409.3t.32.218q.432.284.86.509a8.487,8.487,0,0,0,.852.391,7.21,7.21,0,0,0,.843.273,6.358,6.358,0,0,0,.835.156,6.641,6.641,0,0,0,.829.048,6.443,6.443,0,0,0,.82-.057,6.58,6.58,0,0,0,.812-.162,7.065,7.065,0,0,0,.8-.266,7.283,7.283,0,0,0,.763-.353,6.634,6.634,0,0,0,.691-.427,6.267,6.267,0,0,0,1.17-1.071,5.939,5.939,0,0,0,.571-.795,5.191,5.191,0,0,0,.407-.845,4.963,4.963,0,0,0,.242-.895A5.243,5.243,0,0,0,26.352,27.155ZM26.3,15.323a4.8,4.8,0,0,1,.4.465,3.46,3.46,0,0,1,.3.466,2.614,2.614,0,0,1,.2.468,2.166,2.166,0,0,1,.088.47,2.2,2.2,0,0,1-.125.914,2.528,2.528,0,0,1-.207.437,3.177,3.177,0,0,1-.3.423,3.029,3.029,0,0,1-.387.387,2.466,2.466,0,0,1-.425.284,2.267,2.267,0,0,1-.463.182,2.4,2.4,0,0,1-.5.079,2.863,2.863,0,0,1-.527-.022,3.269,3.269,0,0,1-.537-.119,4.005,4.005,0,0,1-.547-.216,5.121,5.121,0,0,1-.556-.312q-.157-.1-.422-.3t-.638-.483q-.373-.289-.854-.672t-1.072-.861l-2.639-2.138,3.485-4.2L22.9,12.46q.714.579,1.284,1.047t1,.826q.426.358.708.605T26.3,15.323Zm-7.09,12.849a3.134,3.134,0,0,1-.519.01,3.191,3.191,0,0,1-.515-.075,3.517,3.517,0,0,1-.511-.16,4.133,4.133,0,0,1-.507-.244q-.169-.091-.432-.268t-.619-.442q-.356-.264-.805-.616t-.991-.79l-3.715-3,3.989-4.8,3.254,2.629q.686.555,1.238,1.029t.972.867q.419.393.7.705a4.456,4.456,0,0,1,.436.542,3.932,3.932,0,0,1,.265.46,3.215,3.215,0,0,1,.182.459,2.818,2.818,0,0,1,.1.458,2.7,2.7,0,0,1,.022.459,2.55,2.55,0,0,1-.058.448,2.62,2.62,0,0,1-.137.436,2.92,2.92,0,0,1-.217.423,3.475,3.475,0,0,1-.3.409,3.668,3.668,0,0,1-.416.422,2.935,2.935,0,0,1-.446.318,2.556,2.556,0,0,1-.475.213A2.487,2.487,0,0,1,19.213,28.172Z" transform="translate(1115.595 1471.152)" fill="#fcd73b"/>
    <path id="Path_442451" data-name="Path 442451" d="M23.061,16.481a5.449,5.449,0,0,0-.682-.7,6.014,6.014,0,0,0-.821-.587,7.154,7.154,0,0,0-.959-.478,8.958,8.958,0,0,0-1.1-.366,6.877,6.877,0,0,0,.8-.388,6.123,6.123,0,0,0,.711-.473,5.79,5.79,0,0,0,.625-.56,5.853,5.853,0,0,0,.54-.648,5.681,5.681,0,0,0,.441-.706,5.226,5.226,0,0,0,.32-.742,5.131,5.131,0,0,0,.2-.777,5.385,5.385,0,0,0,.078-.81,5.557,5.557,0,0,0-.033-.748,4.972,4.972,0,0,0-.133-.711,4.729,4.729,0,0,0-.233-.673,4.812,4.812,0,0,0-.334-.635,6.562,6.562,0,0,0-.407-.586,6.167,6.167,0,0,0-.46-.525,6,6,0,0,0-.511-.465,6.063,6.063,0,0,0-.563-.4,6.31,6.31,0,0,0-.605-.341,6.534,6.534,0,0,0-.647-.277,7.015,7.015,0,0,0-.689-.212q-.355-.09-.732-.148-.2-.032-.435-.059t-.494-.05q-.262-.023-.551-.041t-.607-.033L15.83.009l-3.759,0-.045,3.277H9.818L9.864.01,6.1.012,6.063,3.29l-3.1,0-2.732,0L.2,7.241l2.732,0L2.78,22.9H.077L.043,26.761h2.7L5.8,26.754l-.033,3.119,3.7-.007.044-3.114h1.92l.255,0-.043,3.118,3.7,0,.05-3.172.74-.022q.34-.011.622-.024t.5-.028q.222-.015.386-.032.514-.051.988-.146a8.488,8.488,0,0,0,.908-.232,7.211,7.211,0,0,0,.827-.318,6.359,6.359,0,0,0,.747-.4A6.641,6.641,0,0,0,21.781,25a6.443,6.443,0,0,0,.6-.56,6.581,6.581,0,0,0,.529-.636,7.064,7.064,0,0,0,.457-.713,7.28,7.28,0,0,0,.37-.755,6.632,6.632,0,0,0,.269-.767A6.266,6.266,0,0,0,24.243,20a5.939,5.939,0,0,0-.056-.977,5.192,5.192,0,0,0-.215-.913,4.963,4.963,0,0,0-.375-.848A5.244,5.244,0,0,0,23.061,16.481ZM15.577,7.316a4.8,4.8,0,0,1,.607.106,3.461,3.461,0,0,1,.527.173,2.613,2.613,0,0,1,.446.241,2.166,2.166,0,0,1,.364.31A2.2,2.2,0,0,1,18,8.935a2.528,2.528,0,0,1,.114.47,3.178,3.178,0,0,1,.031.52,3.031,3.031,0,0,1-.058.544,2.466,2.466,0,0,1-.151.489,2.267,2.267,0,0,1-.246.433,2.4,2.4,0,0,1-.341.377,2.864,2.864,0,0,1-.423.315,3.271,3.271,0,0,1-.493.246,4.006,4.006,0,0,1-.561.176,5.12,5.12,0,0,1-.629.107q-.185.021-.514.036t-.8.026q-.472.01-1.087.015t-1.375.005h-3.4l.067-5.455,2.987,0q.919,0,1.656.006t1.293.016q.556.01.931.025T15.577,7.316Zm2.576,14.448a3.133,3.133,0,0,1-.4.335,3.191,3.191,0,0,1-.448.265,3.517,3.517,0,0,1-.5.2,4.133,4.133,0,0,1-.548.129q-.188.036-.5.063T15,22.8q-.443.019-1.013.028t-1.267.01l-4.775.006L8.021,16.6l4.184,0q.882,0,1.61.021t1.3.062q.573.042.991.1a4.457,4.457,0,0,1,.68.147,3.932,3.932,0,0,1,.5.191,3.215,3.215,0,0,1,.43.242,2.817,2.817,0,0,1,.367.293,2.7,2.7,0,0,1,.305.343,2.551,2.551,0,0,1,.237.385,2.62,2.62,0,0,1,.168.425,2.92,2.92,0,0,1,.1.466,3.474,3.474,0,0,1,.026.505,3.669,3.669,0,0,1-.057.59,2.936,2.936,0,0,1-.147.527,2.556,2.556,0,0,1-.235.465A2.487,2.487,0,0,1,18.153,21.764Z" transform="translate(1018.4 1445.336)" fill="#fcd73b"/>
    <path id="Path_442452" data-name="Path 442452" d="M26.306,12.656a4.856,4.856,0,0,0-.93.028,5.328,5.328,0,0,0-.939.207,6.383,6.383,0,0,0-.947.388,8.117,8.117,0,0,0-.955.569,7.251,7.251,0,0,0,.223-.867,6.587,6.587,0,0,0,.107-.862,6.325,6.325,0,0,0-.009-.858,6.441,6.441,0,0,0-.126-.855,6.251,6.251,0,0,0-.231-.821,5.7,5.7,0,0,0-.333-.755,5.494,5.494,0,0,0-.434-.688,5.742,5.742,0,0,0-1.093-1.116,4.9,4.9,0,0,0-.6-.394,4.518,4.518,0,0,0-.631-.293,4.468,4.468,0,0,0-.668-.191,5.975,5.975,0,0,0-.678-.1,5.542,5.542,0,0,0-.668-.021,5.354,5.354,0,0,0-1.3.2,5.625,5.625,0,0,0-.628.216,5.877,5.877,0,0,0-.608.292,6.39,6.39,0,0,0-.588.368,7.189,7.189,0,0,0-.569.445q-.151.13-.317.285t-.348.336q-.182.18-.378.385t-.407.432L9.884,6.624,7.506,9.444l2.335,2.315-1.4,1.658L6.106,11.1,3.718,13.933l2.345,2.31L4.1,18.574,2.361,20.636l2.833,2.782,1.732-2.063L18.143,32.391l-1.71,2.046,2.773,2.723,1.708-2.047L22.837,32.8,25.069,35,27.4,32.2,25.177,30l1.209-1.449.157-.2,2.223,2.2,2.324-2.79-2.255-2.245q.244-.308.45-.572t.373-.485q.168-.221.3-.4t.219-.312q.286-.423.516-.845a8.629,8.629,0,0,0,.4-.844,7.507,7.507,0,0,0,.29-.843,6.772,6.772,0,0,0,.178-.842,7.2,7.2,0,0,0,.074-.843,7.072,7.072,0,0,0-.026-.841,7.271,7.271,0,0,0-.126-.839,7.8,7.8,0,0,0-.226-.839,7.993,7.993,0,0,0-.311-.8,7.2,7.2,0,0,0-.383-.734,6.721,6.721,0,0,0-.455-.667,6.541,6.541,0,0,0-.526-.6,6.016,6.016,0,0,0-.738-.636,5.063,5.063,0,0,0-.792-.473A4.656,4.656,0,0,0,27.2,12.8,4.764,4.764,0,0,0,26.306,12.656ZM14.99,11.9a4.463,4.463,0,0,1,.46-.381,3.146,3.146,0,0,1,.458-.275,2.335,2.335,0,0,1,.455-.167,1.928,1.928,0,0,1,.453-.058,2.009,2.009,0,0,1,.443.046,2.079,2.079,0,0,1,.427.144,2.465,2.465,0,0,1,.41.241,3.218,3.218,0,0,1,.394.338,3.17,3.17,0,0,1,.356.422,2.659,2.659,0,0,1,.256.453,2.491,2.491,0,0,1,.157.485,2.645,2.645,0,0,1,.057.518,3.1,3.1,0,0,1-.04.537,3.457,3.457,0,0,1-.134.541,4.112,4.112,0,0,1-.227.544,5.114,5.114,0,0,1-.319.547q-.1.154-.3.411t-.486.619q-.29.362-.675.828t-.865,1.038l-2.148,2.557L10.23,17.433l1.889-2.249q.582-.691,1.052-1.241t.829-.96q.359-.41.606-.681T14.99,11.9Zm12.035,8.114a3.408,3.408,0,0,1-.1,1.052,3.669,3.669,0,0,1-.171.512,4.188,4.188,0,0,1-.251.5q-.093.167-.272.424t-.445.6q-.266.346-.618.782t-.791.961l-3.008,3.605-4.457-4.408,2.639-3.155q.557-.664,1.031-1.2t.866-.935q.391-.4.7-.672a4.111,4.111,0,0,1,.535-.409,3.546,3.546,0,0,1,.449-.239,2.861,2.861,0,0,1,.445-.155,2.5,2.5,0,0,1,.442-.072,2.415,2.415,0,0,1,.439.009,2.336,2.336,0,0,1,.427.089,2.479,2.479,0,0,1,.412.17,2.865,2.865,0,0,1,.4.251,3.527,3.527,0,0,1,.38.332,3.837,3.837,0,0,1,.389.453,3.158,3.158,0,0,1,.288.477,2.807,2.807,0,0,1,.187.5A2.749,2.749,0,0,1,27.025,20.011Z" transform="translate(918.176 1511.609)" fill="#fcd73b"/>
  </g>
</svg>
