<svg xmlns="http://www.w3.org/2000/svg" width="18.342" height="18.343" viewBox="0 0 18.342 18.343">
  <g id="Icons_Home" data-name="Icons/Home" transform="translate(0)">
    <path id="Combined_Shape" data-name="Combined Shape" d="M6.551,18.343h-3.8a.918.918,0,0,1-.917-.917V10.088H.917A.917.917,0,0,1,.269,8.522L8.523.269a.916.916,0,0,1,1.3,0l8.254,8.253a.917.917,0,0,1-.649,1.566h-.917v7.337a.918.918,0,0,1-.917.917h-3.8v-3.93a2.62,2.62,0,1,0-5.241,0v3.93Z" transform="translate(-0.001 0)" fill="#e0e0e0"/>
  </g>
</svg>
