<svg xmlns="http://www.w3.org/2000/svg" width="308" height="333.087" viewBox="0 0 308 333.087">
  <g id="Group_177817" data-name="Group 177817" transform="translate(-56.233 -45.997)">
    <g id="Background_Complete" data-name="Background Complete" transform="translate(56.233 45.997)">
      <g id="Group_177613" data-name="Group 177613" transform="translate(0 178.919)">
        <g id="Group_177587" data-name="Group 177587">
          <g id="Group_177586" data-name="Group 177586">
            <g id="Group_177585" data-name="Group 177585">
              <g id="Group_177584" data-name="Group 177584">
                <path id="Path_26669" data-name="Path 26669" d="M155.329,408.093c19.005-16.421,20.912-43.461,17.639-67.252-.547-3.971-.542-8.218-2.8-11.519s-6.926-5.233-10.321-3.186c-2.816,1.7-3.751,5.274-5.113,8.292a23.429,23.429,0,0,1-8.425,9.891c-2.4,1.579-5.458,2.708-8.106,1.585-3.633-1.542-4.528-6.249-4.913-10.216q-1.073-11.089-2.148-22.176c-.384-3.966-.79-8.015-2.411-11.649s-4.7-6.848-8.584-7.516-8.318,1.988-8.714,5.95c-.165,1.649.336,3.29.4,4.947s-.519,3.556-2.034,4.176c-1.534.628-3.236-.332-4.54-1.37-4.5-3.58-7.812-8.449-10.936-13.309s-6.183-9.848-10.345-13.831S74.32,274,68.611,274.263s-11.4,4.392-12.256,10.113c-.862,5.737,2.983,11.069,7,15.227a88.94,88.94,0,0,0,20.233,15.659c1.34.758,2.793,1.576,3.423,2.995,1.134,2.554-1.1,5.436-3.619,6.575-2.852,1.289-6.09,1.313-9.143,1.995s-6.26,2.392-7.129,5.433c-1.205,4.219,2.621,8.116,6.242,10.553a76.2,76.2,0,0,0,23.767,10.635c3.026.766,6.191,1.385,8.754,3.191s4.35,5.222,3.217,8.16-4.688,4.211-7.8,3.959-6.017-1.627-9.041-2.425C86.6,364.839,79.6,365.94,76.6,371.007c-1.974,3.331-1.731,7.661-.191,11.229s4.22,6.5,7.02,9.177c9.787,9.341,21.813,16.434,34.9,19.513s24.917,3.055,37-2.833" transform="translate(-56.233 -274.247)" fill="#17c2ec"/>
              </g>
            </g>
          </g>
        </g>
        <g id="Group_177592" data-name="Group 177592" transform="translate(5.287 4.101)">
          <g id="Group_177591" data-name="Group 177591">
            <g id="Group_177590" data-name="Group 177590">
              <g id="Group_177589" data-name="Group 177589">
                <g id="Group_177588" data-name="Group 177588">
                  <path id="Path_26670" data-name="Path 26670" d="M158.643,426.672a175.029,175.029,0,0,0-9.846-32,356.953,356.953,0,0,0-18.044-36.784l-5.224-9.4c-1.722-3.081-3.429-6.137-5.284-9.022A178.358,178.358,0,0,0,108.638,323.5c-3.937-4.9-7.853-9.407-11.545-13.6s-7.227-8.013-10.587-11.369A141.381,141.381,0,0,0,69.483,283.9c-2.137-1.566-3.835-2.726-5-3.5l-1.326-.869a3.006,3.006,0,0,0-.466-.273,2.838,2.838,0,0,0,.423.337c.32.231.745.537,1.285.928,1.133.81,2.8,2.006,4.913,3.6a149.724,149.724,0,0,1,16.825,14.779c3.329,3.37,6.822,7.212,10.5,11.405s7.562,8.717,11.477,13.616a180.348,180.348,0,0,1,11.527,15.931c1.84,2.872,3.53,5.9,5.253,8.992s3.457,6.224,5.22,9.4a365.841,365.841,0,0,1,18.06,36.685,178.055,178.055,0,0,1,9.961,31.842" transform="translate(-62.695 -279.259)" fill="#fff"/>
                </g>
              </g>
            </g>
          </g>
        </g>
        <g id="Group_177597" data-name="Group 177597" transform="translate(62.54 20.1)">
          <g id="Group_177596" data-name="Group 177596">
            <g id="Group_177595" data-name="Group 177595">
              <g id="Group_177594" data-name="Group 177594">
                <g id="Group_177593" data-name="Group 177593">
                  <path id="Path_26671" data-name="Path 26671" d="M132.752,343.017a8.092,8.092,0,0,0,.213-1.731c.095-1.117.179-2.736.254-4.739.153-4,.176-9.542.178-15.646s.1-11.629.317-15.619c.1-2,.2-3.611.281-4.725a8.021,8.021,0,0,0,.044-1.744,7.882,7.882,0,0,0-.327,1.713c-.169,1.108-.347,2.721-.514,4.72-.349,4-.533,9.538-.534,15.652.013,6.024.026,11.474.035,15.638-.007,1.881-.015,3.466-.021,4.738A7.94,7.94,0,0,0,132.752,343.017Z" transform="translate(-132.665 -298.812)" fill="#fff"/>
                </g>
              </g>
            </g>
          </g>
        </g>
        <g id="Group_177602" data-name="Group 177602" transform="translate(10.684 59.49)">
          <g id="Group_177601" data-name="Group 177601">
            <g id="Group_177600" data-name="Group 177600">
              <g id="Group_177599" data-name="Group 177599">
                <g id="Group_177598" data-name="Group 177598">
                  <path id="Path_26672" data-name="Path 26672" d="M69.29,347.5a11,11,0,0,0,2.058.034c1.32-.018,3.229-.056,5.589-.025,4.72.022,11.238.281,18.416.882s13.655,1.445,18.32,2.182c2.336.352,4.219.687,5.522.911a11.009,11.009,0,0,0,2.039.283,10.935,10.935,0,0,0-1.983-.566c-1.288-.311-3.162-.726-5.494-1.146-4.656-.871-11.143-1.788-18.344-2.4a180.63,180.63,0,0,0-18.479-.666c-2.367.037-4.28.153-5.6.262A10.943,10.943,0,0,0,69.29,347.5Z" transform="translate(-69.29 -346.952)" fill="#fff"/>
                </g>
              </g>
            </g>
          </g>
        </g>
        <g id="Group_177607" data-name="Group 177607" transform="translate(90.661 50.91)">
          <g id="Group_177606" data-name="Group 177606">
            <g id="Group_177605" data-name="Group 177605">
              <g id="Group_177604" data-name="Group 177604">
                <g id="Group_177603" data-name="Group 177603">
                  <path id="Path_26673" data-name="Path 26673" d="M167.039,404.2a2.637,2.637,0,0,0,.285-.657l.682-1.933c.584-1.681,1.366-4.137,2.292-7.183,1.857-6.092,4.156-14.587,6.566-23.995s4.63-17.917,6.356-24.038c.848-2.977,1.547-5.425,2.066-7.246.221-.79.4-1.44.551-1.975a2.62,2.62,0,0,0,.144-.7,2.733,2.733,0,0,0-.286.66l-.681,1.932c-.584,1.681-1.366,4.137-2.292,7.183-1.857,6.092-4.156,14.587-6.567,24s-4.63,17.913-6.355,24.036c-.85,2.975-1.547,5.425-2.066,7.243-.221.79-.4,1.442-.551,1.975A2.654,2.654,0,0,0,167.039,404.2Z" transform="translate(-167.033 -336.466)" fill="#fff"/>
                </g>
              </g>
            </g>
          </g>
        </g>
        <g id="Group_177612" data-name="Group 177612" transform="translate(20.698 103.793)">
          <g id="Group_177611" data-name="Group 177611">
            <g id="Group_177610" data-name="Group 177610">
              <g id="Group_177609" data-name="Group 177609">
                <g id="Group_177608" data-name="Group 177608">
                  <path id="Path_26674" data-name="Path 26674" d="M81.528,401.107a2.751,2.751,0,0,0,.7.208l2.035.457,7.493,1.6c6.328,1.354,15.046,3.325,24.676,5.515s18.378,4.084,24.735,5.307c3.178.613,5.755,1.083,7.542,1.371l2.06.32a2.676,2.676,0,0,0,.727.061,2.8,2.8,0,0,0-.7-.209l-2.034-.455-7.493-1.6c-6.328-1.353-15.047-3.325-24.68-5.515s-18.374-4.083-24.731-5.306c-3.179-.613-5.755-1.083-7.543-1.371l-2.06-.32A2.661,2.661,0,0,0,81.528,401.107Z" transform="translate(-81.528 -401.096)" fill="#fff"/>
                </g>
              </g>
            </g>
          </g>
        </g>
      </g>
      <g id="Group_177618" data-name="Group 177618" transform="translate(66.197 108.509)">
        <g id="Group_177615" data-name="Group 177615">
          <g id="Group_177614" data-name="Group 177614">
            <path id="Path_26675" data-name="Path 26675" d="M150.583,211.619a1.648,1.648,0,0,1-1.485-.934L145.55,203.3a1.645,1.645,0,0,1,1.2-2.333,5.111,5.111,0,0,0,3.35-2.292,4.6,4.6,0,0,0,.705-3.581,4.713,4.713,0,0,0-2.3-2.865,5.256,5.256,0,0,0-4.018-.555,6.166,6.166,0,0,0-4,6.549,1.645,1.645,0,1,1-3.259.457,9.48,9.48,0,0,1,6.323-10.16,8.491,8.491,0,0,1,6.591.851A8.009,8.009,0,0,1,154,194.3a7.9,7.9,0,0,1-1.142,6.17,8.605,8.605,0,0,1-3.527,3.1l2.736,5.693a1.647,1.647,0,0,1-1.483,2.358Z" transform="translate(-137.135 -188.196)" fill="#fff"/>
          </g>
        </g>
        <g id="Group_177617" data-name="Group 177617" transform="translate(14.438 24.815)">
          <g id="Group_177616" data-name="Group 177616">
            <path id="Path_26676" data-name="Path 26676" d="M157.324,219.255a1.346,1.346,0,1,1-1.812-.584A1.346,1.346,0,0,1,157.324,219.255Z" transform="translate(-154.779 -218.523)" fill="#fff"/>
          </g>
        </g>
      </g>
      <g id="Group_177623" data-name="Group 177623" transform="translate(25.283 90.829)">
        <g id="Group_177620" data-name="Group 177620">
          <g id="Group_177619" data-name="Group 177619">
            <path id="Path_26677" data-name="Path 26677" d="M96.523,182.945a1.151,1.151,0,0,1-1.037-.651l-2.478-5.158a1.148,1.148,0,0,1,.838-1.63,3.567,3.567,0,0,0,2.339-1.6,3.215,3.215,0,0,0,.493-2.5,3.292,3.292,0,0,0-1.609-2,3.67,3.67,0,0,0-2.807-.387,4.305,4.305,0,0,0-2.8,4.573,1.149,1.149,0,1,1-2.276.32,6.621,6.621,0,0,1,4.415-7.1,5.924,5.924,0,0,1,4.6.595,5.59,5.59,0,0,1,2.7,3.443,5.511,5.511,0,0,1-.8,4.309,6.007,6.007,0,0,1-2.463,2.163l1.911,3.976a1.149,1.149,0,0,1-1.036,1.646Z" transform="translate(-87.132 -166.588)" fill="#f5f5f5"/>
          </g>
        </g>
        <g id="Group_177622" data-name="Group 177622" transform="translate(10.082 17.329)">
          <g id="Group_177621" data-name="Group 177621">
            <path id="Path_26678" data-name="Path 26678" d="M101.231,188.278a.94.94,0,1,1-1.266-.408A.941.941,0,0,1,101.231,188.278Z" transform="translate(-99.454 -187.767)" fill="#f5f5f5"/>
          </g>
        </g>
      </g>
      <g id="Group_177628" data-name="Group 177628" transform="translate(224.915 106.736)">
        <g id="Group_177625" data-name="Group 177625" transform="translate(0 2.576)">
          <g id="Group_177624" data-name="Group 177624">
            <path id="Path_26679" data-name="Path 26679" d="M345.037,189.833a1.151,1.151,0,0,1-.146,1.217l-3.6,4.445a1.148,1.148,0,0,1-1.83-.06,3.568,3.568,0,0,0-2.447-1.43,3.213,3.213,0,0,0-2.472.625,3.293,3.293,0,0,0-1.12,2.311,3.67,3.67,0,0,0,.85,2.7,4.306,4.306,0,0,0,5.331.571,1.149,1.149,0,0,1,1.262,1.92,6.62,6.62,0,0,1-8.3-.956,5.93,5.93,0,0,1-1.432-4.414,5.6,5.6,0,0,1,1.957-3.914,5.514,5.514,0,0,1,4.236-1.123,6.012,6.012,0,0,1,3.009,1.3l2.776-3.428a1.15,1.15,0,0,1,1.931.231Z" transform="translate(-331.109 -189.176)" fill="#f5f5f5"/>
          </g>
        </g>
        <g id="Group_177627" data-name="Group 177627" transform="translate(14.019)">
          <g id="Group_177626" data-name="Group 177626">
            <path id="Path_26680" data-name="Path 26680" d="M348.437,186.4a.94.94,0,1,1,.172,1.318A.94.94,0,0,1,348.437,186.4Z" transform="translate(-348.242 -186.029)" fill="#f5f5f5"/>
          </g>
        </g>
      </g>
      <g id="Group_177633" data-name="Group 177633" transform="translate(212.919 0)">
        <g id="Group_177630" data-name="Group 177630" transform="translate(0 2.576)">
          <g id="Group_177629" data-name="Group 177629">
            <path id="Path_26681" data-name="Path 26681" d="M330.376,59.388a1.151,1.151,0,0,1-.146,1.216l-3.6,4.446a1.148,1.148,0,0,1-1.831-.061,3.571,3.571,0,0,0-2.447-1.429,3.209,3.209,0,0,0-2.471.625,3.286,3.286,0,0,0-1.12,2.31,3.668,3.668,0,0,0,.85,2.7,4.307,4.307,0,0,0,5.33.571,1.149,1.149,0,1,1,1.262,1.92,6.622,6.622,0,0,1-8.3-.956,5.93,5.93,0,0,1-1.431-4.414,5.593,5.593,0,0,1,1.956-3.914,5.514,5.514,0,0,1,4.236-1.122,6.007,6.007,0,0,1,3.009,1.3l2.776-3.428a1.149,1.149,0,0,1,1.616-.169A1.137,1.137,0,0,1,330.376,59.388Z" transform="translate(-316.448 -58.731)" fill="#f5f5f5"/>
          </g>
        </g>
        <g id="Group_177632" data-name="Group 177632" transform="translate(14.018)">
          <g id="Group_177631" data-name="Group 177631">
            <path id="Path_26682" data-name="Path 26682" d="M333.775,55.95a.94.94,0,1,1,.173,1.318A.941.941,0,0,1,333.775,55.95Z" transform="translate(-333.58 -55.583)" fill="#f5f5f5"/>
          </g>
        </g>
      </g>
      <g id="Group_177638" data-name="Group 177638" transform="translate(132.665 15.933)">
        <g id="Group_177635" data-name="Group 177635" transform="translate(0.051 3.707)">
          <g id="Group_177634" data-name="Group 177634">
            <path id="Path_26683" data-name="Path 26683" d="M221.72,79.586a1.5,1.5,0,0,1,1.348.847l3.22,6.7a1.493,1.493,0,0,1-1.089,2.118,4.638,4.638,0,0,0-3.04,2.079,4.177,4.177,0,0,0-.64,3.251,4.272,4.272,0,0,0,2.091,2.6,4.768,4.768,0,0,0,3.646.5,5.6,5.6,0,0,0,3.634-5.944,1.493,1.493,0,1,1,2.958-.415,8.605,8.605,0,0,1-5.738,9.221,7.7,7.7,0,0,1-5.981-.772A7.268,7.268,0,0,1,218.62,95.3a7.164,7.164,0,0,1,1.036-5.6,7.816,7.816,0,0,1,3.2-2.811l-2.483-5.166a1.494,1.494,0,0,1,1.346-2.14Z" transform="translate(-218.429 -79.586)" fill="#fff"/>
          </g>
        </g>
        <g id="Group_177637" data-name="Group 177637">
          <g id="Group_177636" data-name="Group 177636">
            <path id="Path_26684" data-name="Path 26684" d="M218.5,76.835a1.222,1.222,0,1,1,1.645.53A1.222,1.222,0,0,1,218.5,76.835Z" transform="translate(-218.366 -75.056)" fill="#fff"/>
          </g>
        </g>
      </g>
      <g id="Group_177643" data-name="Group 177643" transform="translate(243.667 148.324)">
        <g id="Group_177640" data-name="Group 177640" transform="translate(0.051 3.706)">
          <g id="Group_177639" data-name="Group 177639">
            <path id="Path_26685" data-name="Path 26685" d="M357.38,241.385a1.494,1.494,0,0,1,1.347.848l3.22,6.7a1.492,1.492,0,0,1-1.088,2.118,4.635,4.635,0,0,0-3.04,2.079,4.175,4.175,0,0,0-.64,3.25,4.275,4.275,0,0,0,2.091,2.6,4.767,4.767,0,0,0,3.647.5,5.6,5.6,0,0,0,3.634-5.943,1.493,1.493,0,1,1,2.957-.415,8.6,8.6,0,0,1-5.737,9.22,7.7,7.7,0,0,1-5.981-.772,7.269,7.269,0,0,1-3.509-4.474,7.167,7.167,0,0,1,1.036-5.6,7.815,7.815,0,0,1,3.2-2.81l-2.483-5.166a1.5,1.5,0,0,1,1.346-2.141Z" transform="translate(-354.089 -241.385)" fill="#fff"/>
          </g>
        </g>
        <g id="Group_177642" data-name="Group 177642">
          <g id="Group_177641" data-name="Group 177641">
            <path id="Path_26686" data-name="Path 26686" d="M354.161,238.635a1.222,1.222,0,1,1,1.644.53A1.222,1.222,0,0,1,354.161,238.635Z" transform="translate(-354.026 -236.855)" fill="#fff"/>
          </g>
        </g>
      </g>
      <g id="Group_177667" data-name="Group 177667" transform="translate(182.793 194.615)">
        <g id="Group_177645" data-name="Group 177645">
          <g id="Group_177644" data-name="Group 177644">
            <path id="Path_26687" data-name="Path 26687" d="M366.181,294.16s-6.291-4.837-15.466,10.381-12.874,24.106-12.874,24.106-2.364,3.157-4.482.832-4.793-8.682-8.735-7.853c-4.089.86-5.727,5.238-5.432,11.862s.409,21.164.414,22.478c.006,1.291-.865,3.13-2.562,1.777s-11.145-13.516-16.65-8.687-1.649,23.15-1.266,25.161-.063,2.826-1.036,3.248-3.763-3.967-6.592-7.316-6.7-6.737-9.639-3.685-4.77,16.462,6.489,39.259l5.909,10.222,11.858.187c25.4-1.145,36.261-9.22,37.514-13.27s-3.581-5.8-7.88-6.662-9.489-1.186-9.59-2.241.4-1.839,2.344-2.474,19.852-6.1,21.424-13.255-13.642-9.555-15.646-10.388-.813-2.482.319-3.1c1.154-.63,13.941-7.549,19.886-10.489s8.987-6.488,7.766-10.482c-1.177-3.853-8.036-3.126-11.095-3.86s-1.435-4.326-1.435-4.326,6-7.531,14.9-22.912,1.426-18.6,1.426-18.6" transform="translate(-279.631 -293.429)" fill="#17c2ec"/>
          </g>
        </g>
        <g id="Group_177648" data-name="Group 177648" transform="translate(4.883 14.344)">
          <g id="Group_177647" data-name="Group 177647">
            <g id="Group_177646" data-name="Group 177646">
              <path id="Path_26688" data-name="Path 26688" d="M359.026,310.96s-.052.115-.171.331l-.532.955-2.076,3.653c-1.806,3.172-4.453,7.741-7.744,13.375-6.579,11.27-15.8,26.763-26.032,43.84s-19.493,32.555-26.128,43.791c-3.307,5.612-5.984,10.158-7.844,13.314l-2.136,3.618-.563.936c-.129.21-.2.313-.2.313s.052-.115.17-.331l.532-.954c.482-.849,1.181-2.078,2.076-3.653,1.806-3.171,4.452-7.74,7.744-13.373,6.579-11.271,15.8-26.766,26.036-43.848s19.489-32.548,26.124-43.784l7.844-13.314,2.136-3.619.564-.937C358.952,311.063,359.026,310.96,359.026,310.96Z" transform="translate(-285.598 -310.96)" fill="#fff"/>
            </g>
          </g>
        </g>
        <g id="Group_177651" data-name="Group 177651" transform="translate(48.37 37.24)">
          <g id="Group_177650" data-name="Group 177650">
            <g id="Group_177649" data-name="Group 177649">
              <path id="Path_26689" data-name="Path 26689" d="M338.752,338.942a3.823,3.823,0,0,1,.241.82c.133.533.3,1.308.5,2.268.4,1.921.882,4.589,1.363,7.541.463,2.914.881,5.549,1.2,7.564.15.907.277,1.672.378,2.289a3.867,3.867,0,0,1,.106.847,3.8,3.8,0,0,1-.246-.818c-.132-.533-.3-1.309-.493-2.271-.38-1.925-.829-4.6-1.309-7.551-.484-2.908-.92-5.539-1.255-7.552-.155-.907-.286-1.673-.39-2.288A3.843,3.843,0,0,1,338.752,338.942Z" transform="translate(-338.745 -338.942)" fill="#fff"/>
            </g>
          </g>
        </g>
        <g id="Group_177654" data-name="Group 177654" transform="translate(53.239 53.673)">
          <g id="Group_177653" data-name="Group 177653">
            <g id="Group_177652" data-name="Group 177652">
              <path id="Path_26690" data-name="Path 26690" d="M344.7,364.207c-.021-.1,5.434-1.338,12.182-2.767s12.238-2.507,12.259-2.408-5.432,1.338-12.183,2.767S344.716,364.306,344.7,364.207Z" transform="translate(-344.696 -359.025)" fill="#fff"/>
            </g>
          </g>
        </g>
        <g id="Group_177657" data-name="Group 177657" transform="translate(36.335 84.362)">
          <g id="Group_177656" data-name="Group 177656">
            <g id="Group_177655" data-name="Group 177655">
              <path id="Path_26691" data-name="Path 26691" d="M324.037,396.545a3.938,3.938,0,0,1,.871.022l2.363.177c1.995.147,4.75.337,7.8.436s5.812.1,7.812.088l2.369-.016a3.961,3.961,0,0,1,.871.035,3.976,3.976,0,0,1-.866.107c-.559.044-1.367.094-2.369.133-2,.083-4.772.124-7.83.018s-5.817-.331-7.809-.544c-1-.111-1.8-.209-2.354-.293A4.042,4.042,0,0,1,324.037,396.545Z" transform="translate(-324.037 -396.531)" fill="#fff"/>
            </g>
          </g>
        </g>
        <g id="Group_177660" data-name="Group 177660" transform="translate(27.632 65.793)">
          <g id="Group_177659" data-name="Group 177659">
            <g id="Group_177658" data-name="Group 177658">
              <path id="Path_26692" data-name="Path 26692" d="M313.4,373.837a3.465,3.465,0,0,1,.414.692q.41.794,1.006,1.946c.835,1.65,1.966,3.941,3.2,6.48s2.324,4.85,3.1,6.529l.9,2a3.416,3.416,0,0,1,.286.754,3.369,3.369,0,0,1-.414-.691l-1.006-1.946c-.835-1.65-1.967-3.941-3.2-6.482s-2.323-4.848-3.1-6.527c-.356-.786-.657-1.454-.9-2A3.409,3.409,0,0,1,313.4,373.837Z" transform="translate(-313.4 -373.837)" fill="#fff"/>
            </g>
          </g>
        </g>
        <g id="Group_177663" data-name="Group 177663" transform="translate(9.847 86.427)">
          <g id="Group_177662" data-name="Group 177662">
            <g id="Group_177661" data-name="Group 177661">
              <path id="Path_26693" data-name="Path 26693" d="M291.667,399.055a5.594,5.594,0,0,1,.521.89c.338.649.775,1.485,1.3,2.489,1.083,2.109,2.555,5.033,4.162,8.273s3.043,6.184,4.066,8.322c.482,1.025.883,1.879,1.195,2.541a5.565,5.565,0,0,1,.393.954,5.519,5.519,0,0,1-.521-.89c-.338-.649-.775-1.485-1.3-2.489-1.083-2.109-2.555-5.034-4.162-8.275s-3.042-6.183-4.065-8.321c-.482-1.025-.883-1.879-1.195-2.541A5.6,5.6,0,0,1,291.667,399.055Z" transform="translate(-291.665 -399.055)" fill="#fff"/>
            </g>
          </g>
        </g>
        <g id="Group_177666" data-name="Group 177666" transform="translate(21.364 109.239)">
          <g id="Group_177665" data-name="Group 177665">
            <g id="Group_177664" data-name="Group 177664">
              <path id="Path_26694" data-name="Path 26694" d="M305.74,426.953a6.3,6.3,0,0,1,1.105,0l3,.116c2.536.095,6.039.214,9.91.235s7.377-.041,9.914-.108l3-.077a6.4,6.4,0,0,1,1.1.014,6.394,6.394,0,0,1-1.1.129c-.708.059-1.733.128-3,.193-2.537.133-6.048.242-9.926.215s-7.385-.181-9.92-.343c-1.267-.084-2.293-.163-3-.232A6.5,6.5,0,0,1,305.74,426.953Z" transform="translate(-305.74 -426.934)" fill="#fff"/>
            </g>
          </g>
        </g>
      </g>
    </g>
    <g id="Floor" transform="translate(67.899 376.173)">
      <g id="Group_177669" data-name="Group 177669">
        <g id="Group_177668" data-name="Group 177668">
          <path id="Path_26695" data-name="Path 26695" d="M366.824,459.316c0,.117-66.342.213-148.16.213-81.846,0-148.174-.1-148.174-.213s66.328-.214,148.174-.214C300.482,459.1,366.824,459.2,366.824,459.316Z" transform="translate(-70.49 -459.102)" fill="#263238"/>
        </g>
      </g>
    </g>
    <g id="Character" transform="translate(111.593 128.567)">
      <g id="Group_177779" data-name="Group 177779">
        <g id="Group_177766" data-name="Group 177766" transform="translate(1.795)">
          <g id="Group_177713" data-name="Group 177713" transform="translate(0 88.554)">
            <g id="Group_177673" data-name="Group 177673">
              <g id="Group_177672" data-name="Group 177672">
                <g id="Group_177671" data-name="Group 177671">
                  <g id="Group_177670" data-name="Group 177670">
                    <path id="Path_26696" data-name="Path 26696" d="M305.11,373.406l-12.463-59.439s-7.3-28.647-32.455-38.518l-1.736-.534c-.037-.014-2.386-.732-2.423-.745-1.011-.394-5.14-1.7-6.225-2.042-33.91-11.755-42.907-8.7-78.243,3.362,0,0-15.7,4.223-23.307,24.7S126.085,352.7,126.085,352.7l35.254,12.45,6.757-10.038v68.673h96.962l-2.676-31.611-.467-38.938" transform="translate(-126.085 -264.719)" fill="#4a6aff"/>
                  </g>
                </g>
              </g>
            </g>
            <g id="Group_177675" data-name="Group 177675" transform="translate(54.01 14.419)">
              <g id="Group_177674" data-name="Group 177674">
                <path id="Path_26697" data-name="Path 26697" d="M218.417,282.344a5.4,5.4,0,0,1-.808.751,10.728,10.728,0,0,1-1.017.8c-.412.292-.867.65-1.417.97a26.122,26.122,0,0,1-3.969,2.062,27.389,27.389,0,0,1-10.7,2.092,26.2,26.2,0,0,1-4.454-.415c-.631-.09-1.186-.25-1.678-.366a10.775,10.775,0,0,1-1.245-.36,5.473,5.473,0,0,1-1.032-.391c.026-.086,1.512.436,4,.82a28.655,28.655,0,0,0,4.4.319,28.725,28.725,0,0,0,10.555-2.064,28.592,28.592,0,0,0,3.96-1.955C217.18,283.318,218.361,282.275,218.417,282.344Z" transform="translate(-192.093 -282.341)" fill="#fafafa"/>
              </g>
            </g>
            <g id="Group_177676" data-name="Group 177676" transform="translate(42.011 115.592)" opacity="0.3">
              <path id="Path_26698" data-name="Path 26698" d="M177.428,406.923l7.95,9.179h7.811V426.1l80.8,18.686L273.335,437l-76.02-26.1H184.576l-6.143-4.907Z" transform="translate(-177.428 -405.988)"/>
            </g>
            <g id="Group_177677" data-name="Group 177677" transform="translate(17.681 89.271)">
              <path id="Path_26699" data-name="Path 26699" d="M195.819,392.9l-6.74-1.248s-15.975-17.473-18.971-17.722c-2.465-.206-16.056-.073-20.789-.02a1.645,1.645,0,0,0-1.626,1.647h0a1.647,1.647,0,0,0,1.583,1.645l16.056.623.076,1.293-16.078.214c-1.637.125-2.687,2.718,2.554,3.186l13.449.478v.836L151.7,385.741c-.689.1-2.5.448-2.519,1.144,0,0-.825,1.709,3.06,2.195,1.334.167,13.171-.227,13.171-.227l-.456,1.065L152.7,392.561a1.742,1.742,0,0,0-1.358,1.945h0A1.743,1.743,0,0,0,153.226,396l13.1-1.215,12.85,10.265h17.184Z" transform="translate(-147.693 -373.821)" fill="#ffbe9d"/>
            </g>
            <g id="Group_177678" data-name="Group 177678" transform="translate(135.83 88.513)">
              <path id="Path_26700" data-name="Path 26700" d="M335.282,393.068l-39.216,7.713-3.978-27.887" transform="translate(-292.088 -372.894)" fill="#4a6aff"/>
            </g>
            <g id="Group_177682" data-name="Group 177682" transform="translate(61.897 107.392)">
              <g id="Group_177679" data-name="Group 177679" transform="translate(0 0.011)">
                <path id="Path_26701" data-name="Path 26701" d="M274.42,398.328l-72.688-2.348.012,25.124,48.225,9.578,33.863,5.406c21.046,0,37.88-19.316,34.621-40.108l-.089.024Z" transform="translate(-201.732 -395.98)" fill="#4a6aff"/>
              </g>
              <g id="Group_177681" data-name="Group 177681">
                <g id="Group_177680" data-name="Group 177680">
                  <path id="Path_26702" data-name="Path 26702" d="M294.431,397.864a5.766,5.766,0,0,1-.942.066l-2.7.077-9.938.18c-8.392.122-19.988.264-32.8.142s-24.409-.589-32.786-1.156c-4.189-.28-7.575-.55-9.911-.786l-2.689-.276a5.8,5.8,0,0,1-.934-.134,5.86,5.86,0,0,1,.944.02l2.7.169c2.34.167,5.729.376,9.918.6,8.376.464,19.962.862,32.767.988s24.394.044,32.787.025l9.94,0,2.7.03A5.839,5.839,0,0,1,294.431,397.864Z" transform="translate(-201.732 -395.967)" fill="#263238"/>
                </g>
              </g>
            </g>
            <g id="Group_177684" data-name="Group 177684" transform="translate(61.731 107.629)">
              <g id="Group_177683" data-name="Group 177683">
                <path id="Path_26703" data-name="Path 26703" d="M201.7,396.257a2.765,2.765,0,0,1,.028.447c.007.319.016.751.027,1.3.012,1.169.029,2.838.051,4.952.02,4.3.048,10.4.082,17.756l-.141-.174c8.209,1.761,18.048,3.939,28.64,6.163,14.524,3.072,27.742,5.5,37.353,6.982,4.805.737,8.7,1.279,11.4,1.636l3.1.408.807.117a1.379,1.379,0,0,1,.273.055,1.35,1.35,0,0,1-.278-.011l-.812-.074-3.115-.33c-2.7-.306-6.61-.8-11.424-1.5-9.629-1.409-22.867-3.79-37.4-6.863-10.6-2.224-20.43-4.428-28.628-6.23l-.142-.031v-.144c.029-7.351.052-13.458.069-17.756.02-2.114.036-3.783.047-4.952.011-.551.02-.983.026-1.3A2.736,2.736,0,0,1,201.7,396.257Z" transform="translate(-201.528 -396.257)" fill="#263238"/>
              </g>
            </g>
            <g id="Group_177686" data-name="Group 177686" transform="translate(48.798 9.879)">
              <g id="Group_177685" data-name="Group 177685">
                <path id="Path_26704" data-name="Path 26704" d="M192.618,305.831a6.746,6.746,0,0,1,.052-1.226c.05-.786.128-1.924.16-3.33a57.254,57.254,0,0,0-.762-10.941c-.745-4.211-1.687-8.048-3.149-10.433a8.345,8.345,0,0,0-2.172-2.446c-.635-.452-1.043-.619-1.024-.659.006-.014.11.02.3.1a5.167,5.167,0,0,1,.815.423,7.9,7.9,0,0,1,2.333,2.424,17.671,17.671,0,0,1,1.962,4.585,51.6,51.6,0,0,1,1.352,5.938,50.843,50.843,0,0,1,.642,11.023c-.07,1.413-.195,2.551-.3,3.335A6.767,6.767,0,0,1,192.618,305.831Z" transform="translate(-185.723 -276.792)" fill="#263238"/>
              </g>
            </g>
            <g id="Group_177688" data-name="Group 177688" transform="translate(135.417 16.833)">
              <g id="Group_177687" data-name="Group 177687">
                <path id="Path_26705" data-name="Path 26705" d="M291.8,285.292c.118,0,.213,16.7.213,37.3s-.095,37.3-.213,37.3-.213-16.7-.213-37.3S291.678,285.292,291.8,285.292Z" transform="translate(-291.583 -285.292)" fill="#263238"/>
              </g>
            </g>
            <g id="Group_177690" data-name="Group 177690" transform="translate(141.323 100.631)">
              <g id="Group_177689" data-name="Group 177689">
                <path id="Path_26706" data-name="Path 26706" d="M318.193,387.8c0,.079-1.237.041-3.2.284a26.181,26.181,0,0,0-3.406.664,25.62,25.62,0,0,0-7.708,3.487,26.245,26.245,0,0,0-2.747,2.121c-1.48,1.316-2.267,2.27-2.327,2.218a3.371,3.371,0,0,1,.508-.705,17.133,17.133,0,0,1,1.615-1.735,22.723,22.723,0,0,1,2.73-2.224,23.836,23.836,0,0,1,7.83-3.543,22.725,22.725,0,0,1,3.472-.582,17.069,17.069,0,0,1,2.37-.068A3.38,3.38,0,0,1,318.193,387.8Z" transform="translate(-298.801 -387.704)" fill="#263238"/>
              </g>
            </g>
            <g id="Group_177692" data-name="Group 177692" transform="translate(50.115 23.289)" opacity="0.3">
              <g id="Group_177691" data-name="Group 177691">
                <path id="Path_26707" data-name="Path 26707" d="M193.592,374.105c12.251-7.314,19.9-19.429,27.368-31.583s14.431-24.915,24.791-34.724c4.758-4.5,10.323-8.3,12.081-14.616l-18.622,14.8-51.877,59.66Z" transform="translate(-187.332 -293.182)"/>
              </g>
            </g>
            <g id="Group_177694" data-name="Group 177694" transform="translate(10.619 72.109)">
              <g id="Group_177693" data-name="Group 177693">
                <path id="Path_26708" data-name="Path 26708" d="M151.186,352.935a33.858,33.858,0,0,0-6.277,1.191,31.42,31.42,0,0,0-4.139,1.826,9.529,9.529,0,0,1-1.707.817,7.471,7.471,0,0,1,1.561-1.08,22.21,22.21,0,0,1,4.147-1.966,16.739,16.739,0,0,1,4.514-.858A6.551,6.551,0,0,1,151.186,352.935Z" transform="translate(-139.063 -352.846)" fill="#263238"/>
              </g>
            </g>
            <g id="Group_177696" data-name="Group 177696" transform="translate(10.619 72.109)">
              <g id="Group_177695" data-name="Group 177695">
                <path id="Path_26709" data-name="Path 26709" d="M151.186,352.935a33.858,33.858,0,0,0-6.277,1.191,31.42,31.42,0,0,0-4.139,1.826,9.529,9.529,0,0,1-1.707.817,7.471,7.471,0,0,1,1.561-1.08,22.21,22.21,0,0,1,4.147-1.966,16.739,16.739,0,0,1,4.514-.858A6.551,6.551,0,0,1,151.186,352.935Z" transform="translate(-139.063 -352.846)" fill="#263238"/>
              </g>
            </g>
            <g id="Group_177698" data-name="Group 177698" transform="translate(62.163 96.308)">
              <g id="Group_177697" data-name="Group 177697">
                <path id="Path_26710" data-name="Path 26710" d="M275.212,385.052a11.168,11.168,0,0,0-2.827-1.3,14.552,14.552,0,0,0-8.364.524c-3.47,1.023-7.067,3.48-11.514,5.328a16.836,16.836,0,0,1-7.394,1.413,19.962,19.962,0,0,1-7.727-2.372c-2.483-1.238-4.792-2.633-7.141-3.725a21.606,21.606,0,0,0-7.121-2.011,23.207,23.207,0,0,0-12.255,2.217,22.238,22.238,0,0,0-6.824,5.013l-.889,1-.59.786-.371.479a.753.753,0,0,1-.138.155.741.741,0,0,1,.1-.179l.336-.5.561-.814.865-1.035a21.739,21.739,0,0,1,6.816-5.174,23.392,23.392,0,0,1,12.424-2.335,21.867,21.867,0,0,1,7.259,2.023c2.379,1.1,4.7,2.5,7.155,3.721a19.652,19.652,0,0,0,7.564,2.338,16.5,16.5,0,0,0,7.222-1.362c4.4-1.8,8.039-4.247,11.57-5.251a14.475,14.475,0,0,1,8.5-.4,8.6,8.6,0,0,1,2.125.976l.5.353A.791.791,0,0,1,275.212,385.052Z" transform="translate(-202.056 -382.42)" fill="#fafafa"/>
              </g>
            </g>
            <g id="Group_177700" data-name="Group 177700" transform="translate(135.003 68.213)">
              <g id="Group_177699" data-name="Group 177699">
                <path id="Path_26711" data-name="Path 26711" d="M326.933,348.551a6.676,6.676,0,0,0-1.473-.278,7.124,7.124,0,0,0-3.846,1.177c-1.51.847-2.969,2.383-5.031,3.54a6.551,6.551,0,0,1-3.58.9,9.722,9.722,0,0,1-3.769-1.2c-1.2-.606-2.315-1.282-3.469-1.741a16.116,16.116,0,0,0-9.484-.77,16.145,16.145,0,0,0-3.862,1.38c-.871.436-1.319.745-1.343.707-.009-.012.1-.1.308-.246a9.071,9.071,0,0,1,.956-.608,14.807,14.807,0,0,1,3.873-1.528,16.226,16.226,0,0,1,6.17-.286,15.518,15.518,0,0,1,3.541.964c1.193.47,2.32,1.151,3.5,1.747a9.415,9.415,0,0,0,3.6,1.162,6.2,6.2,0,0,0,3.368-.829c2-1.092,3.495-2.613,5.067-3.455a7.026,7.026,0,0,1,4.007-1.083,3.836,3.836,0,0,1,1.111.259A1.382,1.382,0,0,1,326.933,348.551Z" transform="translate(-291.076 -348.085)" fill="#fafafa"/>
              </g>
            </g>
            <g id="Group_177702" data-name="Group 177702" transform="translate(82.921 56.843)">
              <g id="Group_177701" data-name="Group 177701">
                <path id="Path_26712" data-name="Path 26712" d="M279.378,334.827a2.859,2.859,0,0,1-.557-.1c-.181-.034-.4-.095-.665-.139l-.919-.122a15.731,15.731,0,0,0-5.832.6,35.7,35.7,0,0,0-7.974,3.6,77.083,77.083,0,0,1-9.5,5.161,20.281,20.281,0,0,1-5.427,1.485,13.9,13.9,0,0,1-5.236-.359,24.161,24.161,0,0,1-4.4-1.758c-1.326-.656-2.537-1.3-3.669-1.83a15.647,15.647,0,0,0-5.611-1.7,9.87,9.87,0,0,0-1.6.049,2.978,2.978,0,0,1-.564.036,2.717,2.717,0,0,1,.552-.121,8.2,8.2,0,0,1,1.62-.129,15.1,15.1,0,0,1,5.73,1.59c1.149.516,2.373,1.147,3.7,1.786a24.339,24.339,0,0,0,4.346,1.7,13.612,13.612,0,0,0,5.086.325,20.119,20.119,0,0,0,5.314-1.465,80.435,80.435,0,0,0,9.463-5.107,34.825,34.825,0,0,1,8.09-3.545,15.2,15.2,0,0,1,5.931-.47l.924.162c.265.057.484.132.662.18A2.848,2.848,0,0,1,279.378,334.827Z" transform="translate(-227.426 -334.19)" fill="#fafafa"/>
              </g>
            </g>
            <g id="Group_177704" data-name="Group 177704" transform="translate(135.537 32.304)">
              <g id="Group_177703" data-name="Group 177703">
                <path id="Path_26713" data-name="Path 26713" d="M316.405,304.2a4.478,4.478,0,0,1-.875.508c-.578.3-1.418.724-2.486,1.19a23.5,23.5,0,0,1-3.878,1.343,14.256,14.256,0,0,1-5.025.342c-1.782-.187-3.432-.565-4.942-.77a14.413,14.413,0,0,0-4.015-.073,8.755,8.755,0,0,0-3.455,1.276c-.01-.011.054-.076.184-.19a4.352,4.352,0,0,1,.612-.443,7.382,7.382,0,0,1,2.612-.94,13.777,13.777,0,0,1,4.114-.019c1.535.187,3.188.552,4.933.735a17.942,17.942,0,0,0,8.744-1.538c1.074-.428,1.933-.81,2.531-1.063A4.8,4.8,0,0,1,316.405,304.2Z" transform="translate(-291.729 -304.199)" fill="#fafafa"/>
              </g>
            </g>
            <g id="Group_177706" data-name="Group 177706" transform="translate(18.174 44.808)">
              <g id="Group_177705" data-name="Group 177705">
                <path id="Path_26714" data-name="Path 26714" d="M184.537,320.605a4.318,4.318,0,0,0-1.448-.349,6.11,6.11,0,0,0-3.75,1.39c-.709.5-1.444,1.121-2.32,1.693a8.565,8.565,0,0,1-3.1,1.242,14.6,14.6,0,0,1-7.5-.9c-2.536-.915-4.807-2.081-6.979-2.845a18.746,18.746,0,0,0-3.136-.858,13.212,13.212,0,0,0-2.818-.17,8.971,8.971,0,0,0-3.92,1.049c-.846.474-1.237.86-1.267.825-.01-.011.083-.109.272-.287a5.392,5.392,0,0,1,.911-.681,8.687,8.687,0,0,1,3.985-1.207,13.1,13.1,0,0,1,2.893.123,18.5,18.5,0,0,1,3.211.836c2.209.755,4.493,1.913,6.991,2.813a14.443,14.443,0,0,0,7.288.911,8.3,8.3,0,0,0,2.981-1.155c.858-.541,1.6-1.149,2.338-1.642a6.1,6.1,0,0,1,3.932-1.308,2.931,2.931,0,0,1,1.1.3A1.063,1.063,0,0,1,184.537,320.605Z" transform="translate(-148.296 -319.481)" fill="#fafafa"/>
              </g>
            </g>
            <g id="Group_177708" data-name="Group 177708" transform="translate(96.753 108.602)">
              <g id="Group_177707" data-name="Group 177707">
                <path id="Path_26715" data-name="Path 26715" d="M248.087,397.447c.01-.01.1.067.262.226a5.73,5.73,0,0,1,.645.756,7.91,7.91,0,0,1,.25,8.659c-1.087,1.763-2.942,3.158-3.982,5.182a4.94,4.94,0,0,0-.408,3.185,12.039,12.039,0,0,0,1.063,2.922c.894,1.788,1.721,3.521,1.689,5.125a4.131,4.131,0,0,1-1.531,3.263,2.636,2.636,0,0,1-.9.433.96.96,0,0,1-.346.038,3.887,3.887,0,0,0,1.148-.6,4.038,4.038,0,0,0,1.332-3.131,12.006,12.006,0,0,0-1.74-4.954,12.168,12.168,0,0,1-1.12-3.017,5.334,5.334,0,0,1,.434-3.45,12.836,12.836,0,0,1,2.049-2.779,20.022,20.022,0,0,0,1.986-2.428,7.534,7.534,0,0,0,1.119-5.018,8.138,8.138,0,0,0-1.177-3.336C248.4,397.811,248.055,397.477,248.087,397.447Z" transform="translate(-244.33 -397.446)" fill="#fafafa"/>
              </g>
            </g>
            <g id="Group_177710" data-name="Group 177710" transform="translate(133.547 109.721)">
              <g id="Group_177709" data-name="Group 177709">
                <path id="Path_26716" data-name="Path 26716" d="M290.559,433.618c-.011.011-.114-.08-.308-.267a3.335,3.335,0,0,1-.633-.984,5.559,5.559,0,0,1,.207-4.225,8.608,8.608,0,0,1,1.589-2.51c.7-.808,1.521-1.586,2.349-2.426a13.418,13.418,0,0,0,2.274-2.857,9.652,9.652,0,0,0,1.095-3.723,46.515,46.515,0,0,0-.35-7.659,13.275,13.275,0,0,1,.793-6.268,7.136,7.136,0,0,1,2.69-3.293,4.965,4.965,0,0,1,1.055-.5,1.461,1.461,0,0,1,.4-.092,10.742,10.742,0,0,0-1.359.729,7.24,7.24,0,0,0-2.5,3.272,13.291,13.291,0,0,0-.679,6.125,44.245,44.245,0,0,1,.383,7.729,9.973,9.973,0,0,1-1.154,3.882,13.552,13.552,0,0,1-2.361,2.931c-1.7,1.657-3.285,3.112-3.939,4.776a5.514,5.514,0,0,0-.33,4.047A5.2,5.2,0,0,0,290.559,433.618Z" transform="translate(-289.297 -398.813)" fill="#fafafa"/>
              </g>
            </g>
            <g id="Group_177712" data-name="Group 177712" transform="translate(41.63 144.838)">
              <g id="Group_177711" data-name="Group 177711">
                <path id="Path_26717" data-name="Path 26717" d="M274.346,452.272a5.181,5.181,0,0,1-.912.577,7.875,7.875,0,0,1-2.969.848,12.827,12.827,0,0,1-4.858-.546,26.406,26.406,0,0,1-5.881-2.717,39.2,39.2,0,0,0-6.963-3.483,16.663,16.663,0,0,0-8.781-.3,53.3,53.3,0,0,0-9.34,3.23,55.176,55.176,0,0,1-10.106,3.489,18,18,0,0,1-5.447.305,14.586,14.586,0,0,1-5.083-1.506c-3.131-1.565-5.63-3.832-8.181-5.676a26.013,26.013,0,0,0-3.891-2.433l-1-.475c-.336-.145-.682-.254-1.02-.382a16.443,16.443,0,0,0-2.037-.608,20.433,20.433,0,0,0-7.718-.312,21.487,21.487,0,0,0-6.133,1.83c-.433.19-.823.43-1.214.631a9.13,9.13,0,0,0-1.089.647c-.338.224-.669.428-.971.641l-.83.651a14.529,14.529,0,0,0-1.328,1.173,9.284,9.284,0,0,0-.9.934l-.536.595a1.341,1.341,0,0,1-.195.194,1.287,1.287,0,0,1,.16-.221l.506-.624a8.435,8.435,0,0,1,.878-.968,13.924,13.924,0,0,1,1.312-1.211l.826-.673c.3-.219.632-.431.97-.662a9.25,9.25,0,0,1,1.091-.67c.393-.207.785-.455,1.221-.653a21.48,21.48,0,0,1,6.191-1.912,20.6,20.6,0,0,1,7.843.266,16.959,16.959,0,0,1,2.078.609c.344.128.7.239,1.042.385l1.021.48a26.228,26.228,0,0,1,3.955,2.451c2.575,1.851,5.071,4.1,8.135,5.62a14.193,14.193,0,0,0,4.943,1.458,17.624,17.624,0,0,0,5.319-.3,55.236,55.236,0,0,0,10.028-3.457,53.186,53.186,0,0,1,9.42-3.229,16.972,16.972,0,0,1,8.974.349,38.938,38.938,0,0,1,7,3.558,26.5,26.5,0,0,0,5.8,2.75,12.867,12.867,0,0,0,4.775.609,8.109,8.109,0,0,0,2.946-.759C274.029,452.471,274.33,452.249,274.346,452.272Z" transform="translate(-176.962 -441.731)" fill="#fafafa"/>
              </g>
            </g>
          </g>
          <g id="Group_177765" data-name="Group 177765" transform="translate(70.775)">
            <g id="Group_177716" data-name="Group 177716" transform="translate(6.54 15.921)">
              <g id="Group_177715" data-name="Group 177715">
                <g id="Group_177714" data-name="Group 177714">
                  <path id="Path_26718" data-name="Path 26718" d="M236.749,267.477h0a17.015,17.015,0,0,0,17.786-15.5c.475-5.4.851-10.014.851-10.014s13.942-.352,15.882-13.994,3.643-45.325,3.643-45.325h0a47.886,47.886,0,0,0-48.495-.191l-2.227,1.3L220.6,249.559A17.013,17.013,0,0,0,236.749,267.477Z" transform="translate(-220.575 -175.952)" fill="#ffbe9d"/>
                </g>
              </g>
            </g>
            <g id="Group_177720" data-name="Group 177720" transform="translate(43.28 42.001)">
              <g id="Group_177719" data-name="Group 177719">
                <g id="Group_177718" data-name="Group 177718">
                  <g id="Group_177717" data-name="Group 177717">
                    <path id="Path_26719" data-name="Path 26719" d="M265.475,224.33c.007-.149,1.2-.233,3.127-.25.5.011.9-.051.97-.311a2.691,2.691,0,0,0-.169-1.455c-.323-1.308-.65-2.631-.992-4.018-1.349-5.715-2.208-10.4-1.917-10.47s1.618,4.508,2.968,10.222l.91,4.037a3.169,3.169,0,0,1,0,2.08,1.3,1.3,0,0,1-.951.676,3.15,3.15,0,0,1-.853,0C266.652,224.664,265.469,224.479,265.475,224.33Z" transform="translate(-265.475 -207.825)" fill="#263238"/>
                  </g>
                </g>
              </g>
            </g>
            <g id="Group_177723" data-name="Group 177723" transform="translate(24.243 74.361)">
              <g id="Group_177722" data-name="Group 177722">
                <g id="Group_177721" data-name="Group 177721">
                  <path id="Path_26720" data-name="Path 26720" d="M259.366,254.747a32.037,32.037,0,0,1-17.157-7.373s2.936,10.379,16.73,10.918Z" transform="translate(-242.209 -247.374)" fill="#eb996e"/>
                </g>
              </g>
            </g>
            <g id="Group_177725" data-name="Group 177725" transform="translate(5.916 12.194)">
              <g id="Group_177724" data-name="Group 177724">
                <path id="Path_26721" data-name="Path 26721" d="M274.608,185.287s-8.595,3.59-19.189-2.449c-6.952-3.962-15.189-6.165-17.105-4.829S235.6,186.69,228.4,188.45c0,0-.289,14.081-5.864,13.271s-.873-22.385-.873-22.385l14.078-5.939,15.115-2,13.985,2.765,10.742,3.588Z" transform="translate(-219.811 -171.397)" fill="#263238"/>
              </g>
            </g>
            <g id="Group_177733" data-name="Group 177733" transform="translate(0 37.188)">
              <g id="Group_177728" data-name="Group 177728">
                <g id="Group_177727" data-name="Group 177727">
                  <g id="Group_177726" data-name="Group 177726">
                    <path id="Path_26722" data-name="Path 26722" d="M222.584,202.842c-.22-.131-9.028-3.995-9.942,5.386s8.693,8.362,8.736,8.095S222.584,202.842,222.584,202.842Z" transform="translate(-212.581 -201.944)" fill="#ffbe9d"/>
                  </g>
                </g>
              </g>
              <g id="Group_177732" data-name="Group 177732" transform="translate(2.404 2.945)">
                <g id="Group_177731" data-name="Group 177731">
                  <g id="Group_177730" data-name="Group 177730">
                    <g id="Group_177729" data-name="Group 177729">
                      <path id="Path_26723" data-name="Path 26723" d="M219.392,213.143c-.038-.034-.174.1-.462.2a1.644,1.644,0,0,1-1.224-.094c-.956-.46-1.637-2.114-1.518-3.81a5.425,5.425,0,0,1,.685-2.3,1.9,1.9,0,0,1,1.352-1.135.836.836,0,0,1,.921.542c.1.274.023.456.07.476.025.026.217-.137.179-.532a1.05,1.05,0,0,0-.312-.623,1.242,1.242,0,0,0-.881-.327,2.309,2.309,0,0,0-1.848,1.288,5.578,5.578,0,0,0-.821,2.56c-.124,1.9.672,3.758,1.989,4.283a1.76,1.76,0,0,0,1.519-.1C219.353,213.369,219.423,213.163,219.392,213.143Z" transform="translate(-215.519 -205.543)" fill="#eb996e"/>
                    </g>
                  </g>
                </g>
              </g>
            </g>
            <g id="Group_177734" data-name="Group 177734" transform="translate(1.225)">
              <path id="Path_26724" data-name="Path 26724" d="M233.591,176.807a32.26,32.26,0,0,1-6.243,5.588,10.874,10.874,0,0,1-8.012,1.7c-2.73-.629-5.143-2.992-5.254-5.792s2.624-5.529,5.36-4.93a2.923,2.923,0,1,1,1.722-5.246c-2.376-.445-2.644-4.218-.75-5.721s4.668-1.175,6.909-.267,4.3,2.317,6.663,2.825c3.707.8,7.512-.745,10.791-2.65s6.4-4.235,10.05-5.245c4.487-1.24,9.334-.334,13.626,1.467a21.978,21.978,0,0,1,9.254,6.751,12.9,12.9,0,0,1,2.43,10.924c-1.032,3.723-4.5,6.815-8.36,6.83,0,0-8.686.875-15.753-4.372s-21.968-4.553-21.968-4.553Z" transform="translate(-214.078 -156.495)" fill="#263238"/>
            </g>
            <g id="Group_177736" data-name="Group 177736" transform="translate(7.665 9.379)">
              <g id="Group_177735" data-name="Group 177735">
                <path id="Path_26725" data-name="Path 26725" d="M221.95,167.969c-.018.029.168.178.541.433s.939.609,1.687,1.032a30.656,30.656,0,0,0,6.763,2.69,32.565,32.565,0,0,0,10.762,1.024c4.11-.27,8.421-1.595,12.909-2.693s8.924-1.65,12.763-.705a12.228,12.228,0,0,1,8.194,5.838,9.294,9.294,0,0,1,.708,6.808,15.141,15.141,0,0,1-1.083,2.375c.027.021.194-.146.493-.494a6.875,6.875,0,0,0,.961-1.756,9.414,9.414,0,0,0-.443-7.248c-1.357-2.889-4.57-5.436-8.607-6.42-4.059-1.051-8.691-.487-13.219.628-4.545,1.114-8.774,2.438-12.749,2.747a33.482,33.482,0,0,1-10.515-.79C225.215,170,222.043,167.77,221.95,167.969Z" transform="translate(-221.949 -167.957)" fill="#455a64"/>
              </g>
            </g>
            <g id="Group_177738" data-name="Group 177738" transform="translate(3.436 23.881)">
              <g id="Group_177737" data-name="Group 177737">
                <path id="Path_26726" data-name="Path 26726" d="M216.8,185.686c-.106.054.2.971,1.213,2.135a9.561,9.561,0,0,0,11.043,2.387c1.4-.641,2.06-1.35,1.986-1.443-.088-.13-.873.351-2.239.78a10.347,10.347,0,0,1-10.286-2.223C217.45,186.366,216.934,185.6,216.8,185.686Z" transform="translate(-216.78 -185.68)" fill="#455a64"/>
              </g>
            </g>
            <g id="Group_177740" data-name="Group 177740" transform="translate(6.335 19.239)">
              <g id="Group_177739" data-name="Group 177739">
                <path id="Path_26727" data-name="Path 26727" d="M220.368,180.019c-.239.113.48,1.817,2.3,3.064s3.658,1.332,3.678,1.069c.055-.286-1.508-.769-3.107-1.894C221.621,181.159,220.616,179.867,220.368,180.019Z" transform="translate(-220.324 -180.007)" fill="#455a64"/>
              </g>
            </g>
            <g id="Group_177742" data-name="Group 177742" transform="translate(61.053 25.679)">
              <g id="Group_177741" data-name="Group 177741">
                <path id="Path_26728" data-name="Path 26728" d="M291.464,194.536c.124.03.389-.431.459-1.272a5.188,5.188,0,0,0-3.375-5.187c-.8-.277-1.327-.222-1.349-.1-.081.271,1.848.808,3.054,2.678C291.474,192.519,291.183,194.5,291.464,194.536Z" transform="translate(-287.196 -187.878)" fill="#263238"/>
              </g>
            </g>
            <g id="Group_177744" data-name="Group 177744" transform="translate(61.454 18.884)">
              <g id="Group_177743" data-name="Group 177743">
                <path id="Path_26729" data-name="Path 26729" d="M296.414,179.577c-.277-.115-1.312,2.369-3.764,4.416-2.415,2.092-5.033,2.715-4.963,3.007-.011.26,2.953.044,5.613-2.243C295.984,182.5,296.674,179.607,296.414,179.577Z" transform="translate(-287.686 -179.573)" fill="#455a64"/>
              </g>
            </g>
            <g id="Group_177750" data-name="Group 177750" transform="translate(49.364 40.431)">
              <g id="Group_177746" data-name="Group 177746" transform="translate(2.384 0.791)">
                <g id="Group_177745" data-name="Group 177745">
                  <path id="Path_26730" data-name="Path 26730" d="M280.037,209.05a2.11,2.11,0,0,1-2.293,1.848,2.018,2.018,0,0,1-1.911-2.168,2.112,2.112,0,0,1,2.292-1.85A2.02,2.02,0,0,1,280.037,209.05Z" transform="translate(-275.823 -206.873)" fill="#263238"/>
                </g>
              </g>
              <g id="Group_177749" data-name="Group 177749">
                <g id="Group_177748" data-name="Group 177748">
                  <g id="Group_177747" data-name="Group 177747">
                    <path id="Path_26731" data-name="Path 26731" d="M281.169,208.689c-.295.24-1.728-1.141-3.981-1.429-2.247-.321-4.051.623-4.26.315-.1-.138.225-.6,1.013-1.026a5.791,5.791,0,0,1,3.454-.59,5.559,5.559,0,0,1,3.124,1.479C281.143,208.06,281.313,208.584,281.169,208.689Z" transform="translate(-272.91 -205.907)" fill="#263238"/>
                  </g>
                </g>
              </g>
            </g>
            <g id="Group_177756" data-name="Group 177756" transform="translate(28.672 37.71)">
              <g id="Group_177752" data-name="Group 177752" transform="translate(2.579 0.665)">
                <g id="Group_177751" data-name="Group 177751">
                  <path id="Path_26732" data-name="Path 26732" d="M254.988,205.57a2.111,2.111,0,0,1-2.294,1.848,2.019,2.019,0,0,1-1.911-2.169,2.113,2.113,0,0,1,2.292-1.85A2.021,2.021,0,0,1,254.988,205.57Z" transform="translate(-250.774 -203.393)" fill="#263238"/>
                </g>
              </g>
              <g id="Group_177755" data-name="Group 177755">
                <g id="Group_177754" data-name="Group 177754">
                  <g id="Group_177753" data-name="Group 177753">
                    <path id="Path_26733" data-name="Path 26733" d="M255.881,205.364c-.3.239-1.73-1.141-3.982-1.429-2.246-.32-4.05.623-4.259.315-.1-.137.222-.6,1.013-1.026a5.789,5.789,0,0,1,3.453-.59,5.564,5.564,0,0,1,3.125,1.479C255.853,204.734,256.025,205.258,255.881,205.364Z" transform="translate(-247.622 -202.581)" fill="#263238"/>
                  </g>
                </g>
              </g>
            </g>
            <g id="Group_177758" data-name="Group 177758" transform="translate(27.073 31.095)">
              <g id="Group_177757" data-name="Group 177757">
                <path id="Path_26734" data-name="Path 26734" d="M254.658,197.7c-.444.4-2.132-.835-4.412-1.048-2.275-.271-4.184.578-4.535.1-.164-.23.139-.812.978-1.368a6.043,6.043,0,0,1,7.3.777C254.692,196.876,254.867,197.509,254.658,197.7Z" transform="translate(-245.668 -194.497)" fill="#263238"/>
              </g>
            </g>
            <g id="Group_177760" data-name="Group 177760" transform="translate(49.038 36.573)">
              <g id="Group_177759" data-name="Group 177759">
                <path id="Path_26735" data-name="Path 26735" d="M280.952,202.65c.1.267-.29.714-1.109,1.069a6.668,6.668,0,0,1-6.547-1.029c-.671-.59-.9-1.135-.727-1.358.39-.462,2.066.334,4.2.639C278.883,202.334,280.722,202.09,280.952,202.65Z" transform="translate(-272.512 -201.192)" fill="#263238"/>
              </g>
            </g>
            <g id="Group_177762" data-name="Group 177762" transform="translate(41.069 62.253)">
              <g id="Group_177761" data-name="Group 177761">
                <path id="Path_26736" data-name="Path 26736" d="M263.257,232.576c.236.015.4.439.37.947s-.246.909-.481.9-.4-.439-.37-.947S263.023,232.562,263.257,232.576Z" transform="translate(-262.772 -232.576)" fill="#263238"/>
              </g>
            </g>
            <g id="Group_177764" data-name="Group 177764" transform="translate(2.325 49.972)">
              <g id="Group_177763" data-name="Group 177763">
                <path id="Path_26737" data-name="Path 26737" d="M221.432,222.729c.021.007-.012.218-.2.55a2.86,2.86,0,0,1-1.189,1.083,2.979,2.979,0,0,1-2.388.142,3.449,3.449,0,0,1-2.051-2.089,3.7,3.7,0,0,1,2.061-4.517,3.809,3.809,0,0,1,1.566-.33c.379.007.581.066.578.091a6.249,6.249,0,0,0-2.014.511,3.52,3.52,0,0,0-1.554,1.517,3.379,3.379,0,0,0-.232,2.591,3.124,3.124,0,0,0,1.785,1.858,2.74,2.74,0,0,0,2.122-.047A3.705,3.705,0,0,0,221.432,222.729Z" transform="translate(-215.423 -217.567)" fill="#455a64"/>
              </g>
            </g>
          </g>
        </g>
        <g id="Group_177778" data-name="Group 177778" transform="translate(0 78.45)">
          <g id="Group_177770" data-name="Group 177770" transform="translate(89.784)">
            <g id="Group_177767" data-name="Group 177767" transform="translate(0.176 0.212)">
              <path id="Path_26738" data-name="Path 26738" d="M233.834,285.14s4.566-6.449,7.434-10.072c3.475-4.39,5.547-8.173,5.547-10.224V253.98s4.327-1.025,4.945,3.895,0,6.15,0,6.15,18.169-12.236,19.4-11.348c2.165,1.56-1.94,4.827-1.94,4.827L258.147,267.51l6.305-2a2.957,2.957,0,0,1,3.691,1.856h0a2.93,2.93,0,0,1-1.126,3.365l-3.732,3.234,1.878-.754a2.885,2.885,0,0,1,3.652,1.371h0a2.853,2.853,0,0,1-.469,3.239l-3.4,3.625,1.593-.848a2.072,2.072,0,0,1,2.825.9h0a2.049,2.049,0,0,1-.564,2.527l-20.337,16.081Z" transform="translate(-233.834 -252.631)" fill="#ffbe9d"/>
            </g>
            <g id="Group_177769" data-name="Group 177769">
              <g id="Group_177768" data-name="Group 177768">
                <path id="Path_26739" data-name="Path 26739" d="M248.424,300.059s-.086-.074-.254-.239l-.745-.74-2.889-2.908L233.7,285.188l-.079-.08.066-.093c1.33-1.883,2.777-3.9,4.346-6.037.785-1.067,1.6-2.162,2.457-3.275s1.752-2.234,2.59-3.446a33.31,33.31,0,0,0,2.352-3.847,8.261,8.261,0,0,0,1.161-4.442c0-3.225-.007-6.576-.012-10.035v-.164l.151-.029a4.585,4.585,0,0,1,3.285.542,4.093,4.093,0,0,1,1.191,1.254,5.846,5.846,0,0,1,.6,1.619,25.8,25.8,0,0,1,.369,3.4c.029.573.04,1.15.015,1.733a5.991,5.991,0,0,1-.281,1.786l-.3-.265c2.8-1.881,5.713-3.785,8.718-5.684,1.5-.948,3.03-1.9,4.59-2.82a47.094,47.094,0,0,1,4.85-2.6,6.163,6.163,0,0,1,.7-.253,2.039,2.039,0,0,1,.4-.076.839.839,0,0,1,.248.017.512.512,0,0,1,.223.142,1.543,1.543,0,0,1,.616,1.438,4.988,4.988,0,0,1-1.458,2.547c-.659.71-1.413,1.292-2.089,1.929l-2.074,1.873-8.079,7.3-.2-.35,3.692-1.167,1.818-.574c.305-.094.593-.193.91-.281a2.979,2.979,0,0,1,.993-.111,3.131,3.131,0,0,1,1.629,5.715l.017-.013-3.735,3.229-.194-.318,1.828-.731a3.135,3.135,0,0,1,2.014-.13,3.037,3.037,0,0,1,1.618,4.772c-.411.489-.822.889-1.227,1.33l-2.382,2.529-.2-.259,1.709-.9a2.212,2.212,0,0,1,2.689,3.36,3.607,3.607,0,0,1-.671.61l-.678.534-1.328,1.044-2.536,1.992-8.407,6.585-5.326,4.155L248.9,299.71c-.312.239-.471.349-.471.349s.161-.143.474-.4l1.384-1.119,5.291-4.24,8.314-6.635,2.505-1.994,1.312-1.044.671-.533a3.315,3.315,0,0,0,.615-.561,1.9,1.9,0,0,0-2.316-2.882l-1.69.9-.875.465.676-.724,2.372-2.538c.393-.43.836-.871,1.2-1.306a2.68,2.68,0,0,0-1.438-4.207,2.757,2.757,0,0,0-1.777.122l-1.826.736-1.045.421.851-.739,3.728-3.238.009-.008.009-.006a2.736,2.736,0,0,0-1.429-4.992,4.843,4.843,0,0,0-1.762.376l-1.817.577-3.69,1.171-.906.287.705-.637L266.05,260l2.074-1.875c.686-.646,1.427-1.219,2.054-1.9a4.654,4.654,0,0,0,1.345-2.3,1.109,1.109,0,0,0-.461-1.067c-.049-.122-.263-.053-.483,0a5.939,5.939,0,0,0-.651.236,47.157,47.157,0,0,0-4.8,2.572c-1.555.921-3.08,1.866-4.581,2.811-3,1.894-5.91,3.8-8.713,5.67l-.52.348.219-.612a6.043,6.043,0,0,0,.239-1.618c.025-.565.016-1.132-.013-1.7a25.665,25.665,0,0,0-.355-3.33,5.412,5.412,0,0,0-.547-1.5,3.7,3.7,0,0,0-1.062-1.123,4.2,4.2,0,0,0-2.977-.493l.151-.191c0,3.459-.008,6.81-.011,10.035,0,.407.012.794-.025,1.222a6.52,6.52,0,0,1-.266,1.2,14.475,14.475,0,0,1-.923,2.187,33.63,33.63,0,0,1-2.389,3.88c-.846,1.216-1.749,2.352-2.613,3.451s-1.677,2.2-2.467,3.258c-1.576,2.124-3.033,4.137-4.373,6.011l-.014-.173,10.681,11.032L247.435,299l.739.778C248.34,299.959,248.424,300.059,248.424,300.059Z" transform="translate(-233.619 -252.371)" fill="#eb996e"/>
              </g>
            </g>
          </g>
          <g id="Group_177771" data-name="Group 177771" transform="translate(0 29.707)">
            <path id="Path_26740" data-name="Path 26740" d="M228.48,306.658l-55.752,73.607c-8.462,11.172-23.714,15.26-36.386,9.2-9.263-4.434-16.056-13.744-10.371-32.91l53.407-36.542,32.462-31.33Z" transform="translate(-123.891 -288.677)" fill="#4a6aff"/>
          </g>
          <g id="Group_177773" data-name="Group 177773" transform="translate(7.84 29.421)">
            <g id="Group_177772" data-name="Group 177772">
              <path id="Path_26741" data-name="Path 26741" d="M138.084,389.4s.208.1.6.305l1.744.925a23.816,23.816,0,0,0,7.288,1.953,24.659,24.659,0,0,0,5.461-.1,28.327,28.327,0,0,0,3.08-.543c.529-.12,1.056-.293,1.6-.442a15.061,15.061,0,0,0,1.635-.537,32.061,32.061,0,0,0,6.7-3.291,26.4,26.4,0,0,0,6.285-5.491c3.806-4.5,7.738-9.641,11.988-15.126s8.719-11.407,13.431-17.627c9.407-12.456,19.693-26.194,30.439-40.65l1.713-2.305.015.271-16.636-17.983.286.02c-11.365,9.38-21.884,18.337-31.42,26.313s-18.068,15-25.288,20.712-13.087,10.167-17.174,13.153c-2.032,1.51-3.638,2.626-4.711,3.4l-1.227.867c-.277.193-.424.285-.424.285s.132-.112.4-.316l1.2-.9c1.058-.794,2.651-1.929,4.668-3.457,4.059-3.023,9.9-7.5,17.093-13.247s15.714-12.774,25.222-20.779,20.026-16.965,31.388-26.356l.151-.125.134.144,16.643,17.978.12.129-.106.142-1.713,2.306c-10.748,14.457-21.043,28.188-30.468,40.632-4.722,6.215-9.211,12.121-13.465,17.607s-8.208,10.6-12.04,15.107a26.652,26.652,0,0,1-6.366,5.522,32.249,32.249,0,0,1-6.768,3.288,15.275,15.275,0,0,1-1.65.532c-.548.147-1.08.318-1.614.437a28.234,28.234,0,0,1-3.107.529,24.629,24.629,0,0,1-5.5.063,23.383,23.383,0,0,1-7.309-2.042c-.768-.409-1.34-.746-1.729-.964S138.084,389.4,138.084,389.4Z" transform="translate(-133.472 -288.328)" fill="#263238"/>
            </g>
          </g>
          <g id="Group_177775" data-name="Group 177775" transform="translate(0.764 107.98)">
            <g id="Group_177774" data-name="Group 177774">
              <path id="Path_26742" data-name="Path 26742" d="M178.784,387.672a15.239,15.239,0,0,0-1.949-1.118,11.787,11.787,0,0,0-5.994-.756,21.267,21.267,0,0,0-4.133.862c-1.456.441-2.969,1.062-4.572,1.694a46.817,46.817,0,0,1-5.121,1.79,16.17,16.17,0,0,1-5.819.567,20.2,20.2,0,0,1-5.633-1.561c-1.742-.722-3.357-1.543-4.921-2.253-3.1-1.444-6.117-2.381-8.7-2.235a9.383,9.383,0,0,0-5.626,2.044,9.106,9.106,0,0,0-1.487,1.675,2.977,2.977,0,0,1,.276-.52,6.53,6.53,0,0,1,1.1-1.281,9.349,9.349,0,0,1,5.719-2.219c2.662-.19,5.753.745,8.881,2.178,1.578.7,3.194,1.516,4.919,2.225a19.963,19.963,0,0,0,5.517,1.524,15.857,15.857,0,0,0,5.668-.547,47.991,47.991,0,0,0,5.085-1.752c1.605-.622,3.129-1.234,4.612-1.667a21.077,21.077,0,0,1,4.207-.824,11.612,11.612,0,0,1,6.091.9A6.6,6.6,0,0,1,178.784,387.672Z" transform="translate(-124.825 -384.337)" fill="#fafafa"/>
            </g>
          </g>
          <g id="Group_177777" data-name="Group 177777" transform="translate(44.344 66.635)">
            <g id="Group_177776" data-name="Group 177776">
              <path id="Path_26743" data-name="Path 26743" d="M208.167,353.807a2.983,2.983,0,0,0,.213-1.459,4.115,4.115,0,0,0-2.46-2.994,13.848,13.848,0,0,0-2.708-.826,14.363,14.363,0,0,1-3.166-1.015,20.463,20.463,0,0,1-5.965-4.674,75.049,75.049,0,0,0-5.227-5.412,13.687,13.687,0,0,0-5.242-2.995,9,9,0,0,0-4.055-.277c-.957.173-1.454.408-1.47.366a1.38,1.38,0,0,1,.353-.182,5.534,5.534,0,0,1,1.084-.347,8.732,8.732,0,0,1,4.168.149,13.674,13.674,0,0,1,5.418,2.987,68.981,68.981,0,0,1,5.281,5.418,20.573,20.573,0,0,0,5.823,4.612c2.046,1.015,4.223,1.092,5.836,1.924a4.236,4.236,0,0,1,2.5,3.247,2.306,2.306,0,0,1-.172,1.136A1.06,1.06,0,0,1,208.167,353.807Z" transform="translate(-178.086 -333.809)" fill="#fafafa"/>
            </g>
          </g>
        </g>
      </g>
    </g>
    <g id="Question_Marks" data-name="Question Marks" transform="translate(90.936 60.269)">
      <g id="Group_177810" data-name="Group 177810" transform="translate(134.465)">
        <g id="Group_177808" data-name="Group 177808">
          <path id="Path_26754" data-name="Path 26754" d="M271.128,103.206H271.1a1.229,1.229,0,0,1-1.2-1.258l.278-10.924a1.228,1.228,0,0,1,1.591-1.141,7.788,7.788,0,0,0,6.137-.767,7.106,7.106,0,0,0,3.475-4.44,7.251,7.251,0,0,0-1.128-5.553A7.883,7.883,0,0,0,275.19,75.6a9.1,9.1,0,0,0-9.825,5.972,1.227,1.227,0,0,1-2.319-.8c1.781-5.137,7.43-8.538,12.591-7.581a10.348,10.348,0,0,1,6.67,4.594,9.713,9.713,0,0,1,1.461,7.455,9.564,9.564,0,0,1-4.644,6.011,10.442,10.442,0,0,1-6.531,1.323l-.241,9.442A1.226,1.226,0,0,1,271.128,103.206Z" transform="translate(-262.979 -73.025)" fill="#263238"/>
        </g>
        <g id="Group_177809" data-name="Group 177809" transform="translate(6.461 33.783)">
          <path id="Path_26755" data-name="Path 26755" d="M274.465,116.107a1.795,1.795,0,1,1-1.794-1.8A1.795,1.795,0,0,1,274.465,116.107Z" transform="translate(-270.875 -114.312)" fill="#263238"/>
        </g>
      </g>
      <g id="Group_177813" data-name="Group 177813" transform="translate(0 130.042)">
        <g id="Group_177811" data-name="Group 177811" transform="translate(0 4.739)">
          <path id="Path_26756" data-name="Path 26756" d="M106.957,259.084a8.517,8.517,0,0,1-5.119-1.627,8.227,8.227,0,0,1-3.134-5.625,7.739,7.739,0,0,1,1.6-5.837,7.626,7.626,0,0,1,5.445-2.653,8.286,8.286,0,0,1,4.848,1.191l3.235-6.132A1.228,1.228,0,0,1,116,239.546l-3.912,7.414a1.228,1.228,0,0,1-1.932.316,5.676,5.676,0,0,0-4.265-1.484,5.165,5.165,0,0,0-3.7,1.766,5.281,5.281,0,0,0-1.054,3.984,5.768,5.768,0,0,0,2.169,3.951,6.785,6.785,0,0,0,8.415-.734,1.227,1.227,0,1,1,1.72,1.75A9.3,9.3,0,0,1,106.957,259.084Z" transform="translate(-98.645 -237.746)" fill="#263238"/>
        </g>
        <g id="Group_177812" data-name="Group 177812" transform="translate(17.076)">
          <path id="Path_26757" data-name="Path 26757" d="M119.658,232.72a1.377,1.377,0,1,1,.622,1.845A1.376,1.376,0,0,1,119.658,232.72Z" transform="translate(-119.514 -231.954)" fill="#263238"/>
        </g>
      </g>
      <g id="Group_177816" data-name="Group 177816" transform="translate(240.525 113.502)">
        <g id="Group_177814" data-name="Group 177814">
          <path id="Path_26758" data-name="Path 26758" d="M408.095,233.7a1.226,1.226,0,0,1-1-.508l-4.912-6.793a1.228,1.228,0,0,1,.573-1.872,5.683,5.683,0,0,0,3.221-3.164,5.165,5.165,0,0,0,.057-4.1,5.282,5.282,0,0,0-3.105-2.711,5.769,5.769,0,0,0-4.5.192,6.786,6.786,0,0,0-3.073,7.869,1.227,1.227,0,0,1-2.331.767,9.228,9.228,0,0,1,4.3-10.826,8.227,8.227,0,0,1,6.43-.315,7.735,7.735,0,0,1,4.525,4.021,7.62,7.62,0,0,1-.037,6.056,8.3,8.3,0,0,1-3.216,3.818l4.063,5.618a1.227,1.227,0,0,1-.994,1.947Z" transform="translate(-392.598 -211.74)" fill="#263238"/>
        </g>
        <g id="Group_177815" data-name="Group 177815" transform="translate(17.265 23.35)">
          <path id="Path_26759" data-name="Path 26759" d="M416.17,240.818a1.377,1.377,0,1,1-1.929-.26A1.376,1.376,0,0,1,416.17,240.818Z" transform="translate(-413.698 -240.276)" fill="#263238"/>
        </g>
      </g>
    </g>
  </g>
</svg>
