<svg xmlns="http://www.w3.org/2000/svg" xmlns:xlink="http://www.w3.org/1999/xlink" width="264" height="60.661" viewBox="0 0 264 60.661">
  <defs>
    <linearGradient id="linear-gradient" x1="0.5" x2="0.5" y2="1" gradientUnits="objectBoundingBox">
      <stop offset="0" stop-color="#4a6aff"/>
      <stop offset="1" stop-color="#17c2ec"/>
    </linearGradient>
  </defs>
  <g id="Group_184979" data-name="Group 184979" transform="translate(-696.125 -402.107)">
    <path id="Path_379677" data-name="Path 379677" d="M-788.656,75.089a11.412,11.412,0,0,0-6.961-6.772,10.7,10.7,0,0,0-6.98-.109,11.172,11.172,0,0,0-7.97,11.179A11.152,11.152,0,0,0-802.579,89.8a11.053,11.053,0,0,0,8.27-.66,11.431,11.431,0,0,0,5.639-6.258L-772.2,92.41a30.059,30.059,0,0,1-35.273,15.782c-15.143-4.209-22.593-18.42-21.946-29.191l3.792,2.186a26.144,26.144,0,0,0,8.792,17.567,25.619,25.619,0,0,0,15.546,6.6c11.557.87,20.55-5.941,23.664-11.576l-9.583-5.558a16.946,16.946,0,0,1-6.333,4.917v7.81a22.753,22.753,0,0,1-3.938.731v-7.53h-3.6v7.493l-3.91-.58v-7.9c-5.973-2.884-9.4-7.458-9.417-14.133-.021-6.7,3.441-11.245,9.374-14.162v-7.8l3.864-.691s0,4.924.121,7.415h3.46c.026-.246.159-7.4.159-7.4l3.874.645V64.94a16.287,16.287,0,0,1,6.359,4.826l9.694-5.593a26.385,26.385,0,0,0-27.879-10.9c-11.2,2.646-18.205,12.12-19.487,19.594l6.8,3.96a21.482,21.482,0,0,0,.492,6.876,18.487,18.487,0,0,0,2.964,6.255,3.949,3.949,0,0,1,3.562,1.078,3.838,3.838,0,0,1,1.117,2.782,3.854,3.854,0,0,1-3.82,3.785c-2.446.055-3.851-1.8-3.815-5.035a22.932,22.932,0,0,1-4.506-13.582l-7.167-4.148A30.052,30.052,0,0,1-805.855,49.4a30.12,30.12,0,0,1,33.673,16.172C-777.592,68.74-783.036,71.87-788.656,75.089Z" transform="translate(1525.579 353.428)" fill="url(#linear-gradient)"/>
    <text id="coinwells" transform="translate(868.125 442.107)" fill="#fff" font-size="30" font-family="Montserrat-Bold, Montserrat" font-weight="700"><tspan x="-91.62" y="0">COINWELLS</tspan></text>
  </g>
</svg>
