<svg xmlns="http://www.w3.org/2000/svg" xmlns:xlink="http://www.w3.org/1999/xlink" width="399.484" height="423.125" viewBox="0 0 399.484 423.125">
  <defs>
    <linearGradient id="linear-gradient" x1="0.5" x2="0.5" y2="1" gradientUnits="objectBoundingBox">
      <stop offset="0" stop-color="#4a6aff"/>
      <stop offset="1" stop-color="#17c2ec"/>
    </linearGradient>
  </defs>
  <path id="Path_379677" data-name="Path 379677" d="M-544.876,232.9c-9.654-23.452-25.742-39.119-48.552-47.234a74.62,74.62,0,0,0-48.688-.762c-34.339,10.961-56.665,41.136-55.592,77.978A77.786,77.786,0,0,0-642,335.543c19.716,5.85,39.186,4.525,57.685-4.6,18.452-9.107,31.288-23.748,39.334-43.651l114.908,66.425C-467.913,434.831-567.53,493.975-676.1,463.8-781.726,434.439-833.7,335.312-829.184,260.182l26.45,15.251c4.72,49,25,89.966,61.326,122.531,30.795,27.6,67.195,42.938,108.438,46.042,80.616,6.068,143.339-41.442,165.064-80.745l-66.845-38.767c-11.7,15.642-27.231,25.909-44.175,34.3v54.475c-8.711,3.188-27.47,5.1-27.47,5.1v-52.52h-25.086v52.268l-27.274-4.043V358.933c-41.662-20.117-65.535-52.024-65.682-98.58-.149-46.7,24-78.44,65.387-98.785V107.189l26.954-4.822s-.033,34.345.847,51.723h24.137c.184-1.713,1.107-51.625,1.107-51.625l27.02,4.5V162.1c17.69,7.259,31.972,18.831,44.356,33.661,22.891-13.205,45.233-26.095,67.618-39.01-40.612-61.474-118.947-93.861-194.46-76.015C-739.566,99.2-788.458,165.278-797.4,217.41l47.427,27.625c-.59,16.225-1.126,32.332,3.433,47.963,4.517,15.484,10.471,30.343,20.677,43.633,9.275-1.289,18.024.5,24.844,7.522a26.768,26.768,0,0,1,7.793,19.407,26.884,26.884,0,0,1-26.644,26.4c-17.06.386-26.861-12.534-26.613-35.117-20.49-27.791-30.952-59.646-31.429-94.741L-827.9,231.171c9.078-81.03,72.612-157.844,163.057-177.436,106.324-23.03,198.187,35.732,234.874,112.806C-467.7,188.611-505.675,210.445-544.876,232.9Z" transform="translate(829.454 -48.679)" fill="url(#linear-gradient)"/>
</svg>
