<svg xmlns="http://www.w3.org/2000/svg" width="17.159" height="22.879" viewBox="0 0 17.159 22.879">
  <path id="Icon_awesome-clipboard-list" data-name="Icon awesome-clipboard-list" d="M15.014,2.86H11.439a2.86,2.86,0,0,0-5.72,0H2.145A2.145,2.145,0,0,0,0,5V20.734a2.145,2.145,0,0,0,2.145,2.145H15.014a2.145,2.145,0,0,0,2.145-2.145V5A2.145,2.145,0,0,0,15.014,2.86ZM4.29,18.947a1.072,1.072,0,1,1,1.072-1.072A1.07,1.07,0,0,1,4.29,18.947Zm0-4.29a1.072,1.072,0,1,1,1.072-1.072A1.07,1.07,0,0,1,4.29,14.657Zm0-4.29A1.072,1.072,0,1,1,5.362,9.295,1.07,1.07,0,0,1,4.29,10.367Zm4.29-8.58A1.072,1.072,0,1,1,7.507,2.86,1.07,1.07,0,0,1,8.58,1.787ZM14.3,18.232a.359.359,0,0,1-.357.357H7.507a.359.359,0,0,1-.357-.357v-.715a.359.359,0,0,1,.357-.357h6.435a.359.359,0,0,1,.357.357Zm0-4.29a.359.359,0,0,1-.357.357H7.507a.359.359,0,0,1-.357-.357v-.715a.359.359,0,0,1,.357-.357h6.435a.359.359,0,0,1,.357.357Zm0-4.29a.359.359,0,0,1-.357.357H7.507a.359.359,0,0,1-.357-.357V8.937a.359.359,0,0,1,.357-.357h6.435a.359.359,0,0,1,.357.357Z" fill="#e0e0e0"/>
</svg>
