<svg xmlns="http://www.w3.org/2000/svg" width="27.286" height="32.598" viewBox="0 0 27.286 32.598">
  <g id="_001-fingerprint-scanning-using-index-finger" data-name="001-fingerprint-scanning-using-index-finger" transform="translate(-61.4 0)">
    <g id="Group_173" data-name="Group 173" transform="translate(61.4 0)">
      <path id="Path_131" data-name="Path 131" d="M87.833,7.5a1.619,1.619,0,0,0-.673-.157.937.937,0,0,0-.745.31A22.585,22.585,0,0,0,83.83,13a26.394,26.394,0,0,1-1.074,2.543c-.164-1.578.544-7.27.816-9.461l0-.036a18.7,18.7,0,0,0,.21-1.908,1.991,1.991,0,0,0-.88-1.7,2.123,2.123,0,0,0-2,.175c-.391.2-.549.975-1.118,4.494l0,.016c-.314,1.933-1.034,6.385-1.588,7.1-.493-1.084-.856-7.068-1.014-9.659-.109-1.814-.175-2.856-.245-3.175A2.041,2.041,0,0,0,75.207.012a1.5,1.5,0,0,0-1.556.805c-.533.517-.486,2.362-.244,6.739.116,2.083.354,6.385-.017,6.841-.668-.121-1.638-2.874-2.881-8.184a10.751,10.751,0,0,0-.583-2.136,2.157,2.157,0,0,0-1.954-1.266,1.743,1.743,0,0,0-.21.013c-.442.056-1.464.389-1.381,2.262a60.378,60.378,0,0,0,1.4,6.432l.01.037c.293,1.125.57,2.189.815,3.364a10.872,10.872,0,0,1,.155,4.463q-.056.258-.182.306a.332.332,0,0,1-.109.017,1.771,1.771,0,0,1-.777-.3c-.372-.854-2.232-4.926-4.128-5.606L63.5,13.77l-.07,0a2.009,2.009,0,0,0-1.607.693,2.394,2.394,0,0,0-.375,1.838l.023.069a21.811,21.811,0,0,1,1.515,4.317,8.477,8.477,0,0,0,1.906,3.5l.033.043c.258.342.481.639.654.91a32.167,32.167,0,0,0,6.146,5.291,1.713,1.713,0,0,1,.724,1.079.444.444,0,0,1-.111.316l-.092.084.008.009h-.037V32.6H83.253v-.229l.566-1.909A41.051,41.051,0,0,0,85.652,19.8c.018-.181.526-1.907.935-3.3l.011-.035c.814-2.779,1.828-6.236,2.069-7.562A1.309,1.309,0,0,0,87.833,7.5ZM87.91,8.76c-.234,1.289-1.29,4.888-2.061,7.517-.667,2.275-.942,3.226-.964,3.481a39.288,39.288,0,0,1-1.8,10.477l-.5,1.683H73.149a1.247,1.247,0,0,0,.065-.4,2.4,2.4,0,0,0-1.036-1.7A32.3,32.3,0,0,1,66.2,24.69c-.174-.278-.439-.629-.7-.967A8.225,8.225,0,0,1,63.748,20.6,21.4,21.4,0,0,0,62.189,16.1a1.641,1.641,0,0,1,.234-1.155,1.242,1.242,0,0,1,.948-.4c1.7.708,3.641,5.216,3.66,5.262l.041.1.084.064a2.577,2.577,0,0,0,1.318.51,1.053,1.053,0,0,0,.377-.066,1.07,1.07,0,0,0,.66-.846,11.328,11.328,0,0,0-.15-4.8c-.245-1.188-.529-2.273-.828-3.422l-.006-.017a59.375,59.375,0,0,1-1.381-6.314c-.037-.855.218-1.361.715-1.425a1.4,1.4,0,0,1,1.362.754l.1.284c.106.344.3,1.2.437,1.765,1.127,4.8,2.183,8.782,3.674,8.782a.619.619,0,0,0,.46-.206c.614-.647.516-3.247.283-7.455-.114-2.038-.258-5.747-.029-6.111l.093-.191A.848.848,0,0,1,75.005.77a1,1,0,0,1,.117.007,1.307,1.307,0,0,1,1.068.769c.059.264.136,1.534.226,3l0,.049c.509,8.407.847,10.459,1.714,10.459.985,0,1.466-1.957,2.416-7.834l.005-.025a38.3,38.3,0,0,1,.739-3.923,1.454,1.454,0,0,1,1.24-.171,1.361,1.361,0,0,1,.487,1.081c0,.1-.1.948-.206,1.764-.921,7.4-1.053,9.939-.545,10.448a.54.54,0,0,0,.5.153c.52-.109.863-.89,1.785-3.278a22.118,22.118,0,0,1,2.46-5.133.234.234,0,0,1,.144-.031.885.885,0,0,1,.355.085C87.733,8.3,87.956,8.5,87.91,8.76Z" transform="translate(-61.4 0)" fill="#fff"/>
      <g id="Group_172" data-name="Group 172" transform="translate(3.181 0.71)">
        <path id="Path_132" data-name="Path 132" d="M138.47,16.412a3.521,3.521,0,0,0-.617,6.989,3.81,3.81,0,0,1-.158-.731,2.851,2.851,0,1,1,2.657-.611,1.425,1.425,0,0,1,.074.165,3.251,3.251,0,0,1,.136.538,3.518,3.518,0,0,0-2.092-6.349Z" transform="translate(-134.947 -16.412)" fill="#fff"/>
      </g>
    </g>
  </g>
</svg>
