<svg id="Group_185061" data-name="Group 185061" xmlns="http://www.w3.org/2000/svg" width="53.4" height="53.418" viewBox="0 0 53.4 53.418">
  <path id="Path_441008" data-name="Path 441008" d="M758.7,281.91H757.5q-6.412,0-12.825,0a6.843,6.843,0,0,0-1.039.044,1.521,1.521,0,0,0-.036,3.015,7.114,7.114,0,0,0,1.143.053q6.934,0,13.868,0h1.324a18.011,18.011,0,0,0,5.265,6.185l-.088.187H738.157c-.139,0-.278,0-.417,0a1.592,1.592,0,0,1-1.719-1.676c-.011-.208,0-.417,0-.626q0-18.723,0-37.445v-1.1c.407-.02.742-.05,1.078-.05,3.128,0,6.256,0,9.384,0,1.541,0,2.054-.518,2.056-2.065q.007-4.589,0-9.179v-1.207c.36-.025.66-.063.959-.063q12.565-.005,25.129,0c1.551,0,2.069.513,2.072,2.051q.016,9.6.024,19.192c0,.242,0,.484,0,.735-1.613.164-3.208.208-4.75.516-1.512.3-2.971.872-4.578,1.363,0-.67,0-1.385,0-2.1,0-.9.022-1.809-.009-2.712a1.566,1.566,0,0,0-1.76-1.725c-1.112-.02-2.224,0-3.337,0h-1.151c0-.769,0-1.456,0-2.143,0-.835.028-1.67-.014-2.5a1.523,1.523,0,0,0-1.668-1.6q-2.971-.037-5.943,0a1.542,1.542,0,0,0-1.716,1.662c-.036.964-.008,1.93-.008,2.954-.375.032-.642.073-.909.075-1.147.007-2.294-.012-3.441.006-1.388.022-1.9.516-1.906,1.9-.018,2.364-.005,4.728,0,7.093,0,.069,0,.139,0,.208a1.6,1.6,0,0,0,1.748,1.746c.243.008.486,0,.73,0h15.4l-3.54,4.7h-1.038q-7.091,0-14.181,0a5.955,5.955,0,0,0-1.14.07,1.515,1.515,0,0,0,.01,2.972,6.043,6.043,0,0,0,1.141.068q6.465.007,12.93,0h1.162l-.577,3.09c-.372.018-.741.05-1.11.051q-6.2.006-12.408.005a6.04,6.04,0,0,0-1.141.068,1.515,1.515,0,0,0,0,2.972,5.976,5.976,0,0,0,1.141.07q6.152.007,12.3,0h1.176Z" transform="translate(-736.015 -237.982)"/>
  <path id="Path_441009" data-name="Path 441009" d="M885.223,373.168a14.08,14.08,0,1,1-14.028-14.109A14.1,14.1,0,0,1,885.223,373.168ZM870.281,370.4c.533-.723.539-.765.978-.7a3.288,3.288,0,0,1,.953.349,1.557,1.557,0,1,0,1.711-2.6,13.227,13.227,0,0,0-1.22-.745c-.235-.768-.638-1.482-1.672-1.445s-1.4.752-1.575,1.6c-.242.152-.455.27-.65.412a3.57,3.57,0,0,0,.279,6.085c.736.445,1.573.719,2.346,1.106.435.218.9.484.711,1.1a1.058,1.058,0,0,1-1.217.763,6.326,6.326,0,0,1-1.579-.454,1.622,1.622,0,0,0-2.238.646,1.6,1.6,0,0,0,.867,2.16c.484.26,1,.451,1.483.662.376,1.083.865,1.534,1.63,1.53.808,0,1.261-.466,1.678-1.729.192-.109.408-.219.611-.349a3.942,3.942,0,0,0-.011-6.819,20.636,20.636,0,0,0-1.868-.9C871.109,370.882,870.736,370.657,870.281,370.4Z" transform="translate(-831.822 -333.812)"/>
  <path id="Path_441010" data-name="Path 441010" d="M946.313,273.08V253.851c.1-.062.152-.122.21-.128,2.024-.184,2.943-.018,2.9,2.648-.081,5.525-.024,11.051-.024,16.577v1.26Z" transform="translate(-902.461 -250.399)"/>
  <path id="Path_441011" data-name="Path 441011" d="M741.812,252.112l8.039-8.049a49.358,49.358,0,0,1,.095,8.049Z" transform="translate(-740.603 -242.795)"/>
  <path id="Path_441012" data-name="Path 441012" d="M827,306.2h2.944v9.292H827Z" transform="translate(-808.029 -291.973)"/>
  <path id="Path_441013" data-name="Path 441013" d="M799.9,328.964V333.5h-3.008v-4.534Z" transform="translate(-784.199 -309.992)"/>
  <path id="Path_441014" data-name="Path 441014" d="M859.915,339.39h-3v-3.033h3Z" transform="translate(-831.705 -315.844)"/>
</svg>
