<svg id="noun_deposite_box_3950313" data-name="noun_deposite box_3950313" xmlns="http://www.w3.org/2000/svg" width="42.828" height="47.11" viewBox="0 0 42.828 47.11">
  <g id="deposite_box" data-name="deposite box" transform="translate(0 0)">
    <path id="Path_441003" data-name="Path 441003" d="M46.686,5H8.141A2.141,2.141,0,0,0,6,7.141V49.969A2.141,2.141,0,0,0,8.141,52.11H46.686a2.141,2.141,0,0,0,2.141-2.141V7.141A2.141,2.141,0,0,0,46.686,5ZM44.545,47.827H10.283V9.283H44.545ZM14.565,39.262V17.848a2.141,2.141,0,0,1,2.141-2.141H33.838a2.141,2.141,0,0,1,2.141,2.141V39.262A2.141,2.141,0,0,1,33.838,41.4H16.707A2.141,2.141,0,0,1,14.565,39.262Zm24.176-.621A2.15,2.15,0,1,1,42.4,37.12a2.214,2.214,0,0,1-.621,1.52A2.171,2.171,0,0,1,38.742,38.641ZM38.121,30.7V17.848a2.141,2.141,0,0,1,4.283,0V30.7a2.141,2.141,0,0,1-4.283,0Z" transform="translate(-6 -5)"/>
  </g>
</svg>
