<svg xmlns="http://www.w3.org/2000/svg" width="47.123" height="47.11" viewBox="0 0 47.123 47.11">
  <g id="Group_185064" data-name="Group 185064" transform="translate(-683.189 -270.543)">
    <path id="Path_441037" data-name="Path 441037" d="M724.7,299.661H713.649v4.061h-30.46v-10.98h5.528V281.733h11.324l2.255-2.4.284.283c.827-3.283,2.413-4.562,6.08-4.9,2.92-5.735,10.077-5.4,12.708.033a6.082,6.082,0,0,1,4.019,1.22,5.754,5.754,0,0,1,2.143,3.647c2.056,1.407,3.166,3.306,2.659,5.812-.58,2.866-2.58,4.248-5.493,4.608Zm-33.1-6.912h22.081v4.075h8.248c-.03-2.3.059-4.541-.064-6.85h-1.205q-7.27,0-14.541,0c-.429,0-.86-.006-1.286-.047a5.471,5.471,0,0,1-4.937-4.693c-.035-.236-.093-.468-.143-.72H691.6Zm2.668,4.2h-5.428v2.613h5.428Z"/>
    <path id="Path_441038" data-name="Path 441038" d="M713.741,466.315v11.049h-30.37V466.315Zm-19.329,4.162h-5.427v2.613h5.427Z" transform="translate(-0.148 -159.711)"/>
  </g>
</svg>
