<svg id="Objects" xmlns="http://www.w3.org/2000/svg" width="524.001" height="537.01" viewBox="0 0 524.001 537.01">
  <g id="Group_186350" data-name="Group 186350" transform="translate(0 0)">
    <g id="Group_186311" data-name="Group 186311">
      <path id="Path_442419" data-name="Path 442419" d="M690.282,289.494c-26.919-45.055-82.361-66.409-132.875-52.848-.094.025-.187.03-.281.046-15.531,5.642-28.5,16.6-34.086,33.889-1.226,3.8-7.23,2.174-5.994-1.652,5.984-18.531,19.419-30.587,35.7-37.1-17.793-56.006-71.964-95.675-131.483-91.262-58.573,4.343-106.161,48.8-117.485,105.835a78.467,78.467,0,0,1,14.438,4.919c18.627,8.482,33.085,23.108,43.377,40.624,2.036,3.465-3.339,6.591-5.368,3.138a100.262,100.262,0,0,0-11.79-16.185c-16.578-18.47-40.272-29.472-65.249-28.357-25.236,1.127-52.433,14.6-69.422,33.044-19.469,21.131-29.969,49.709-27.372,78.5a101.15,101.15,0,0,0,40.048,71.592c21.141,15.754,45.73,22.917,71.858,23.911,17.134.652,34.286.9,51.431,1.128,49.005.665,98.017.856,147.026.984q32.3.083,64.594.1c17.686.012,36.3,1.426,53.724-1.932,56.978-10.98,100.105-63.212,94.426-122.088A111.325,111.325,0,0,0,690.282,289.494Z" transform="translate(-181.999 -140.234)" fill="#679bc6"/>
    </g>
    <g id="Group_186312" data-name="Group 186312" transform="translate(135.701 367.165)">
      <path id="Path_442420" data-name="Path 442420" d="M560.82,775.132a4.1,4.1,0,0,0,.066-.7l.38-100.4c.018-4.689-7.252-4.687-7.27,0q-.19,50.2-.38,100.4c0,.136.006.266.018.394-6.735,1.495-11.366,8.191-11.755,14.989-.471,8.226,6.589,14.288,14.126,15.249a6.256,6.256,0,0,0,2.345,0c8.036-.921,13.695-6.918,14.168-15.168C572.937,782.561,567.372,776.946,560.82,775.132ZM557.157,797.9c-10.384-.6-10.293-15.576.081-16.1S567.486,797.382,557.157,797.9Z" transform="translate(-427.408 -669.063)" fill="#2e4661"/>
      <path id="Path_442421" data-name="Path 442421" d="M516.789,808.875l.5-134.841c.017-4.689-7.252-4.687-7.27,0q-.249,67.26-.5,134.521c-6.725,1.5-11.347,8.194-11.737,14.984-.471,8.227,6.589,14.288,14.126,15.249a6.278,6.278,0,0,0,2.346,0c8.035-.922,13.694-6.919,14.167-15.169C528.841,816.31,523.314,810.707,516.789,808.875Zm-3.727,22.754c-10.383-.595-10.293-15.576.081-16.1S523.392,831.108,513.062,831.629Z" transform="translate(-413.965 -669.063)" fill="#2e4661"/>
      <path id="Path_442422" data-name="Path 442422" d="M448.574,671.942q-.139,36.231-.278,72.462l-41.06-.141c-2-6.044-8.277-10.124-14.639-10.489-8.645-.495-14.9,7.327-15.36,15.28-.471,8.226,6.588,14.287,14.125,15.249a3.789,3.789,0,0,0,1.154.111,3.749,3.749,0,0,0,1.192-.111,15.474,15.474,0,0,0,13.857-12.768l44.353.153a3.669,3.669,0,0,0,3.635-3.635l.292-76.111C455.863,667.253,448.592,667.255,448.574,671.942Zm-56.058,85.2c-10.384-.6-10.293-15.576.081-16.1S402.845,756.623,392.516,757.143Z" transform="translate(-377.215 -668.426)" fill="#2e4661"/>
      <path id="Path_442423" data-name="Path 442423" d="M639.768,732.851c-7.656-.439-13.437,5.646-14.977,12.567l-19.275-.066q.139-35.659.278-71.318c.018-4.689-7.252-4.687-7.271,0q-.146,37.47-.292,74.941a3.669,3.669,0,0,0,3.635,3.635l23.078.08c1.775,5.845,7.527,9.916,13.589,10.689a6.241,6.241,0,0,0,2.346,0c8.036-.922,13.694-6.918,14.168-15.168C655.543,739.565,647.721,733.306,639.768,732.851Zm-.081,23.368c-10.384-.6-10.294-15.576.081-16.1S650.017,755.7,639.688,756.219Z" transform="translate(-444.595 -669.063)" fill="#2e4661"/>
    </g>
    <g id="Group_186329" data-name="Group 186329" transform="translate(403.206 333.117)">
      <g id="Group_186316" data-name="Group 186316" transform="translate(55.074)">
        <g id="Group_186313" data-name="Group 186313">
          <path id="Path_442424" data-name="Path 442424" d="M841.314,624.366l-.049-3.5a1.4,1.4,0,1,1,2.8-.039l.049,3.5a1.4,1.4,0,1,1-2.8.04Z" transform="translate(-841.265 -619.446)" fill="#b3d1e2"/>
        </g>
        <g id="Group_186314" data-name="Group 186314" transform="translate(0.155 11.042)">
          <path id="Path_442425" data-name="Path 442425" d="M842.443,704.625l-.106-7.542a1.4,1.4,0,1,1,2.8-.039l.106,7.542a1.4,1.4,0,0,1-2.8.039Zm-.212-15.082L842.125,682a1.4,1.4,0,0,1,2.8-.039l.106,7.542a1.4,1.4,0,0,1-2.8.04Zm-.212-15.084-.106-7.542a1.4,1.4,0,1,1,2.8-.04l.106,7.542a1.4,1.4,0,0,1-2.8.04Zm-.213-15.083-.106-7.542a1.4,1.4,0,1,1,2.8-.04l.106,7.542a1.4,1.4,0,0,1-2.8.04Zm-.212-15.084-.106-7.542a1.4,1.4,0,0,1,2.8-.04l.106,7.542a1.4,1.4,0,1,1-2.8.04Z" transform="translate(-841.488 -635.33)" fill="#b3d1e2"/>
        </g>
        <g id="Group_186315" data-name="Group 186315" transform="translate(1.216 86.459)">
          <path id="Path_442426" data-name="Path 442426" d="M843.064,748.743l-.049-3.5a1.4,1.4,0,1,1,2.8-.039l.049,3.5a1.4,1.4,0,1,1-2.8.04Z" transform="translate(-843.015 -743.823)" fill="#b3d1e2"/>
        </g>
      </g>
      <g id="Group_186320" data-name="Group 186320" transform="translate(36.716 0.258)">
        <g id="Group_186317" data-name="Group 186317">
          <path id="Path_442427" data-name="Path 442427" d="M814.905,624.737l-.049-3.5a1.4,1.4,0,1,1,2.8-.04l.049,3.5a1.4,1.4,0,0,1-2.8.039Z" transform="translate(-814.856 -619.817)" fill="#b3d1e2"/>
        </g>
        <g id="Group_186318" data-name="Group 186318" transform="translate(0.147 10.506)">
          <path id="Path_442428" data-name="Path 442428" d="M815.758,685.384l-.1-7a1.4,1.4,0,1,1,2.8-.04l.1,7a1.4,1.4,0,0,1-2.8.04Zm-.2-14.01-.1-7a1.4,1.4,0,1,1,2.8-.04l.1,7a1.4,1.4,0,1,1-2.8.04Zm-.2-14.01-.1-7a1.4,1.4,0,0,1,2.8-.04l.1,7a1.4,1.4,0,1,1-2.8.04Zm-.2-14.01-.1-7a1.4,1.4,0,0,1,2.8-.039l.1,7a1.4,1.4,0,0,1-2.8.039Z" transform="translate(-815.068 -634.93)" fill="#b3d1e2"/>
        </g>
        <g id="Group_186319" data-name="Group 186319" transform="translate(0.936 66.543)">
          <path id="Path_442429" data-name="Path 442429" d="M816.252,720.464l-.049-3.5a1.4,1.4,0,1,1,2.8-.04l.049,3.5a1.4,1.4,0,0,1-2.8.039Z" transform="translate(-816.203 -715.544)" fill="#b3d1e2"/>
        </g>
      </g>
      <g id="Group_186324" data-name="Group 186324" transform="translate(0 0.774)">
        <g id="Group_186321" data-name="Group 186321">
          <path id="Path_442430" data-name="Path 442430" d="M762.087,625.481l-.049-3.5a1.4,1.4,0,1,1,2.8-.04l.049,3.5a1.4,1.4,0,0,1-2.8.04Z" transform="translate(-762.038 -620.56)" fill="#b3d1e2"/>
        </g>
        <g id="Group_186322" data-name="Group 186322" transform="translate(0.148 10.506)">
          <path id="Path_442431" data-name="Path 442431" d="M762.94,686.127l-.1-7a1.4,1.4,0,0,1,2.8-.04l.1,7a1.4,1.4,0,1,1-2.8.04Zm-.2-14.01-.1-7a1.4,1.4,0,0,1,2.8-.039l.1,7a1.4,1.4,0,1,1-2.8.04Zm-.2-14.01-.1-7a1.4,1.4,0,0,1,2.8-.039l.1,7a1.4,1.4,0,1,1-2.8.039Zm-.2-14.01-.1-7a1.4,1.4,0,1,1,2.8-.04l.1,7a1.4,1.4,0,0,1-2.8.039Z" transform="translate(-762.251 -635.673)" fill="#b3d1e2"/>
        </g>
        <g id="Group_186323" data-name="Group 186323" transform="translate(0.936 66.543)">
          <path id="Path_442432" data-name="Path 442432" d="M763.434,721.207l-.049-3.5a1.4,1.4,0,1,1,2.8-.04l.049,3.5a1.4,1.4,0,0,1-2.8.039Z" transform="translate(-763.385 -716.287)" fill="#b3d1e2"/>
        </g>
      </g>
      <g id="Group_186328" data-name="Group 186328" transform="translate(18.358 0.516)">
        <g id="Group_186325" data-name="Group 186325">
          <path id="Path_442433" data-name="Path 442433" d="M788.5,625.109l-.049-3.5a1.4,1.4,0,0,1,2.8-.039l.049,3.5a1.4,1.4,0,1,1-2.8.04Z" transform="translate(-788.447 -620.189)" fill="#b3d1e2"/>
        </g>
        <g id="Group_186326" data-name="Group 186326" transform="translate(0.145 10.265)">
          <path id="Path_442434" data-name="Path 442434" d="M789.511,697.26l-.1-6.764a1.4,1.4,0,1,1,2.8-.04l.1,6.765a1.4,1.4,0,0,1-2.8.039Zm-.191-13.529-.1-6.765a1.4,1.4,0,0,1,2.8-.04l.1,6.765a1.4,1.4,0,0,1-2.8.04Zm-.19-13.53-.095-6.765a1.4,1.4,0,1,1,2.8-.039l.1,6.765a1.4,1.4,0,0,1-2.8.039Zm-.19-13.529-.1-6.765a1.4,1.4,0,1,1,2.8-.039l.1,6.764a1.4,1.4,0,1,1-2.8.04Zm-.19-13.53-.1-6.764a1.4,1.4,0,1,1,2.8-.04l.1,6.765a1.4,1.4,0,0,1-2.8.039Z" transform="translate(-788.655 -634.956)" fill="#b3d1e2"/>
        </g>
        <g id="Group_186327" data-name="Group 186327" transform="translate(1.096 77.913)">
          <path id="Path_442435" data-name="Path 442435" d="M790.073,737.192l-.049-3.5a1.4,1.4,0,0,1,2.8-.04l.049,3.5a1.4,1.4,0,0,1-2.8.039Z" transform="translate(-790.024 -732.272)" fill="#b3d1e2"/>
        </g>
      </g>
    </g>
    <g id="Group_186346" data-name="Group 186346" transform="translate(53.579 333.117)">
      <g id="Group_186333" data-name="Group 186333">
        <g id="Group_186330" data-name="Group 186330" transform="translate(1.217)">
          <path id="Path_442436" data-name="Path 442436" d="M263.628,624.366l.049-3.5a1.4,1.4,0,0,0-2.8-.039l-.049,3.5a1.4,1.4,0,1,0,2.8.04Z" transform="translate(-260.827 -619.446)" fill="#b3d1e2"/>
        </g>
        <g id="Group_186331" data-name="Group 186331" transform="translate(0.156 11.042)">
          <path id="Path_442437" data-name="Path 442437" d="M260.681,706.005a1.4,1.4,0,0,1-1.381-1.419l.106-7.542a1.4,1.4,0,0,1,2.8.039l-.106,7.542A1.4,1.4,0,0,1,260.681,706.005Zm.212-15.083a1.4,1.4,0,0,1-1.381-1.419l.106-7.542a1.4,1.4,0,0,1,2.8.039l-.106,7.542A1.4,1.4,0,0,1,260.893,690.922Zm.212-15.084a1.4,1.4,0,0,1-1.381-1.419l.106-7.542a1.4,1.4,0,1,1,2.8.04l-.106,7.542A1.4,1.4,0,0,1,261.106,675.838Zm.213-15.083a1.4,1.4,0,0,1-1.381-1.419l.106-7.542a1.4,1.4,0,1,1,2.8.04l-.106,7.542A1.4,1.4,0,0,1,261.318,660.755Zm.212-15.083a1.4,1.4,0,0,1-1.38-1.42l.106-7.542a1.4,1.4,0,1,1,2.8.04l-.106,7.542A1.4,1.4,0,0,1,261.53,645.672Z" transform="translate(-259.301 -635.33)" fill="#b3d1e2"/>
        </g>
        <g id="Group_186332" data-name="Group 186332" transform="translate(0 86.459)">
          <path id="Path_442438" data-name="Path 442438" d="M261.878,748.743l.049-3.5a1.4,1.4,0,1,0-2.8-.039l-.049,3.5a1.4,1.4,0,1,0,2.8.04Z" transform="translate(-259.077 -743.823)" fill="#b3d1e2"/>
        </g>
      </g>
      <g id="Group_186337" data-name="Group 186337" transform="translate(18.638 0.258)">
        <g id="Group_186334" data-name="Group 186334" transform="translate(0.936)">
          <path id="Path_442439" data-name="Path 442439" d="M290.037,624.737l.049-3.5a1.4,1.4,0,0,0-2.8-.04l-.049,3.5a1.4,1.4,0,0,0,2.8.039Z" transform="translate(-287.236 -619.817)" fill="#b3d1e2"/>
        </g>
        <g id="Group_186335" data-name="Group 186335" transform="translate(0.148 10.506)">
          <path id="Path_442440" data-name="Path 442440" d="M287.482,686.764a1.4,1.4,0,0,1-1.381-1.42l.1-7a1.4,1.4,0,1,1,2.8.04l-.1,7A1.4,1.4,0,0,1,287.482,686.764Zm.2-14.01a1.4,1.4,0,0,1-1.381-1.42l.1-7a1.4,1.4,0,1,1,2.8.04l-.1,7A1.4,1.4,0,0,1,287.679,672.754Zm.2-14.01a1.4,1.4,0,0,1-1.381-1.42l.1-7a1.4,1.4,0,0,1,2.8.04l-.1,7A1.4,1.4,0,0,1,287.877,658.745Zm.2-14.01a1.4,1.4,0,0,1-1.381-1.419l.1-7a1.4,1.4,0,1,1,2.8.039l-.1,7A1.4,1.4,0,0,1,288.074,644.735Z" transform="translate(-286.102 -634.93)" fill="#b3d1e2"/>
        </g>
        <g id="Group_186336" data-name="Group 186336" transform="translate(0 66.543)">
          <path id="Path_442441" data-name="Path 442441" d="M288.69,720.464l.049-3.5a1.4,1.4,0,1,0-2.8-.04l-.049,3.5a1.4,1.4,0,0,0,2.8.039Z" transform="translate(-285.889 -715.544)" fill="#b3d1e2"/>
        </g>
      </g>
      <g id="Group_186341" data-name="Group 186341" transform="translate(55.354 0.774)">
        <g id="Group_186338" data-name="Group 186338" transform="translate(0.936)">
          <path id="Path_442442" data-name="Path 442442" d="M342.855,625.481l.049-3.5a1.4,1.4,0,1,0-2.8-.04l-.049,3.5a1.4,1.4,0,0,0,2.8.04Z" transform="translate(-340.054 -620.56)" fill="#b3d1e2"/>
        </g>
        <g id="Group_186339" data-name="Group 186339" transform="translate(0.148 10.506)">
          <path id="Path_442443" data-name="Path 442443" d="M340.3,687.507a1.4,1.4,0,0,1-1.381-1.42l.1-7a1.4,1.4,0,0,1,2.8.04l-.1,7A1.4,1.4,0,0,1,340.3,687.507Zm.2-14.01a1.4,1.4,0,0,1-1.381-1.42l.1-7a1.4,1.4,0,0,1,2.8.039l-.1,7A1.4,1.4,0,0,1,340.5,673.5Zm.2-14.01a1.4,1.4,0,0,1-1.381-1.419l.1-7a1.4,1.4,0,0,1,2.8.039l-.1,7A1.4,1.4,0,0,1,340.695,659.488Zm.2-14.01a1.4,1.4,0,0,1-1.38-1.419l.1-7a1.4,1.4,0,1,1,2.8.04l-.1,7A1.4,1.4,0,0,1,340.891,645.478Z" transform="translate(-338.92 -635.673)" fill="#b3d1e2"/>
        </g>
        <g id="Group_186340" data-name="Group 186340" transform="translate(0 66.543)">
          <path id="Path_442444" data-name="Path 442444" d="M341.507,721.207l.049-3.5a1.4,1.4,0,1,0-2.8-.04l-.049,3.5a1.4,1.4,0,0,0,2.8.039Z" transform="translate(-338.707 -716.287)" fill="#b3d1e2"/>
        </g>
      </g>
      <g id="Group_186345" data-name="Group 186345" transform="translate(36.836 0.516)">
        <g id="Group_186342" data-name="Group 186342" transform="translate(1.096)">
          <path id="Path_442445" data-name="Path 442445" d="M316.445,625.109l.049-3.5a1.4,1.4,0,0,0-2.8-.039l-.049,3.5a1.4,1.4,0,1,0,2.8.04Z" transform="translate(-313.645 -620.189)" fill="#b3d1e2"/>
        </g>
        <g id="Group_186343" data-name="Group 186343" transform="translate(0.145 10.265)">
          <path id="Path_442446" data-name="Path 442446" d="M313.656,698.64a1.4,1.4,0,0,1-1.381-1.419l.1-6.765a1.4,1.4,0,1,1,2.8.04l-.1,6.764A1.4,1.4,0,0,1,313.656,698.64Zm.19-13.529a1.4,1.4,0,0,1-1.38-1.42l.1-6.765a1.4,1.4,0,1,1,2.8.04l-.1,6.765A1.4,1.4,0,0,1,313.846,685.111Zm.19-13.53a1.4,1.4,0,0,1-1.38-1.419l.095-6.765a1.4,1.4,0,0,1,2.8.039l-.1,6.765A1.4,1.4,0,0,1,314.037,671.581Zm.19-13.529a1.4,1.4,0,0,1-1.381-1.42l.1-6.764a1.4,1.4,0,0,1,2.8.039l-.1,6.765A1.4,1.4,0,0,1,314.227,658.051Zm.19-13.53a1.4,1.4,0,0,1-1.381-1.419l.1-6.765a1.4,1.4,0,1,1,2.8.04l-.1,6.764A1.4,1.4,0,0,1,314.418,644.521Z" transform="translate(-312.276 -634.956)" fill="#b3d1e2"/>
        </g>
        <g id="Group_186344" data-name="Group 186344" transform="translate(0 77.913)">
          <path id="Path_442447" data-name="Path 442447" d="M314.868,737.192l.049-3.5a1.4,1.4,0,1,0-2.8-.04l-.049,3.5a1.4,1.4,0,0,0,2.8.039Z" transform="translate(-312.068 -732.272)" fill="#b3d1e2"/>
        </g>
      </g>
    </g>
    <ellipse id="Ellipse_3286" data-name="Ellipse 3286" cx="8.239" cy="8.239" rx="8.239" ry="8.239" transform="translate(226.589 513.128)" fill="#679bc6"/>
    <ellipse id="Ellipse_3287" data-name="Ellipse 3287" cx="8.239" cy="8.239" rx="8.239" ry="8.239" transform="translate(320.029 441.299) rotate(-22.5)" fill="#6db294"/>
    <ellipse id="Ellipse_3288" data-name="Ellipse 3288" cx="8.239" cy="8.239" rx="8.239" ry="8.239" transform="translate(142.741 439.7)" fill="#ac2554"/>
    <ellipse id="Ellipse_3289" data-name="Ellipse 3289" cx="8.239" cy="8.239" rx="8.239" ry="8.239" transform="translate(257.608 479.201)" fill="#f4d242"/>
    <g id="Group_186349" data-name="Group 186349" transform="translate(115.558 167.996)">
      <circle id="Ellipse_3290" data-name="Ellipse 3290" cx="101.834" cy="101.834" r="101.834" transform="translate(0 144.014) rotate(-45)" fill="#272525" opacity="0.1"/>
      <g id="Group_186348" data-name="Group 186348" transform="translate(18.921 11.718)">
        <g id="Group_186347" data-name="Group 186347">
          <circle id="Ellipse_3291" data-name="Ellipse 3291" cx="85.871" cy="85.871" r="85.871" transform="translate(0 121.439) rotate(-45)" fill="#f9a140"/>
          <path id="Path_442448" data-name="Path 442448" d="M500.95,425.068a103.206,103.206,0,1,0,107.073,99.189A103.206,103.206,0,0,0,500.95,425.068Zm7.221,188.939A85.871,85.871,0,1,1,590.7,524.92,85.87,85.87,0,0,1,508.171,614.007Z" transform="translate(-383.453 -406.76)" fill="#f4d242"/>
        </g>
        <path id="Path_442449" data-name="Path 442449" d="M567.535,553.149q-3.974-4.9-11.863-7.412a18.925,18.925,0,0,0,7.01-7.267,19.58,19.58,0,0,0,2.069-10.036q-.432-11.31-8.658-16.949t-23.5-5.056l-3.673.14q-.2-5.124-.391-10.248c-.12-3.14-5.8-2.923-5.683.217q.2,5.125.391,10.248l-3.693.141q-.2-5.123-.391-10.247c-.12-3.141-5.8-2.923-5.683.217q.2,5.124.392,10.248l-14.916.57a5,5,0,0,0-3.7,1.477,5.307,5.307,0,0,0-1.15,3.9q.113,2.956,1.741,4.01t7.175.843l2.378-.091,2.481,64.916-2.377.09q-5.982.229-7.526,1.333t-1.434,3.989a5.382,5.382,0,0,0,1.409,3.841,5.054,5.054,0,0,0,3.832,1.153l15.348-.587q.2,5.124.391,10.248c.12,3.14,5.8,2.923,5.683-.218l-.392-10.247,3.694-.142q.2,5.124.391,10.248c.12,3.141,5.8,2.923,5.683-.217q-.2-5.124-.392-10.248l1.871-.072,6.2-.237a63.664,63.664,0,0,0,12.213-1.369,26.67,26.67,0,0,0,7.741-3.219,25.35,25.35,0,0,0,8.812-9.211,22.812,22.812,0,0,0,2.786-12.084Q571.511,558.048,567.535,553.149Zm-32.959-36.4q8.357-.319,12.956,2.933t4.842,9.664q.26,6.772-4.552,10.2t-15.041,3.822l-2.449.093q-.507-13.256-1.013-26.513Zm-10.939.418,1.013,26.513-3.694.141q-.507-13.257-1.013-26.513Zm-1.212,65.056q-.564-14.77-1.129-29.539l3.693-.141q.564,14.77,1.129,29.539Zm31.722-4.641q-5.418,3.637-18.961,4.153l-3.385.129q-.564-14.769-1.129-29.538l4.1-.157q13.329-.51,18.755,2.674t5.731,11.181Q559.565,573.946,554.146,577.578Z" transform="translate(-411.626 -427.82)" fill="#f4d242"/>
      </g>
    </g>
  </g>
</svg>
