<svg xmlns="http://www.w3.org/2000/svg" width="53.334" height="53.418" viewBox="0 0 53.334 53.418">
  <g id="Group_185062" data-name="Group 185062" transform="translate(-207.996 -261.914)">
    <path id="Path_441016" data-name="Path 441016" d="M212.788,261.915c0,.452-.015.76,0,1.067a2.785,2.785,0,0,0,2.743,2.719c.312.017.625.011.938.011,4.1,0,8.2.012,12.3-.006a2.794,2.794,0,0,0,3.045-2.946c.01-.237.024-.474.041-.805a18.233,18.233,0,0,1,2.4.019,2.686,2.686,0,0,1,2.316,2.579c.041,2.847,0,5.7-.006,8.544,0,.059-.058.117-.127.249h-16.9v15.222h16.984c.029.395.069.693.069.991,0,7.5-.035,15.008.027,22.512a3.109,3.109,0,0,1-3.222,3.26c-7.4-.053-14.8-.019-22.2-.025A2.9,2.9,0,0,1,208,312.06q0-23.45,0-46.9a2.9,2.9,0,0,1,3.2-3.244C211.679,261.912,212.161,261.915,212.788,261.915Zm-2.859,45.667H234.7c0-.461.005-.839,0-1.217,0-.166-.034-.331-.056-.524H209.929Zm15.207,3.96a2.837,2.837,0,1,0-2.885,2.784A2.788,2.788,0,0,0,225.135,311.542Z" transform="translate(0)"/>
    <path id="Path_441017" data-name="Path 441017" d="M312.222,337.621H272.294V326.287h39.928Zm-18.95-4.583.945,1.6,1.786-.978c.05.766.092,1.4.134,2.036h1.77c.047-.69.09-1.32.139-2.039l1.825.966.9-1.585-1.756-1.1,1.765-1.113-.915-1.579-1.854.979c-.035-.784-.062-1.4-.091-2.044h-1.815c-.03.68-.058,1.293-.09,2.008l-1.823-.934-.92,1.576,1.8,1.105Zm17.054-2.2-.927-1.6-1.953,1.052v-2.121H305.66l-.09,2.051-1.84-.983-.908,1.583,1.775,1.114-1.771,1.109.911,1.591,1.94-1.045V335.7h1.779l.119-2.041,1.841.971.9-1.585-1.768-1.115Zm-25.658-1.595-.912,1.586,1.771,1.109-1.78,1.107.921,1.59,1.848-.994c.037.8.065,1.409.094,2.032h1.812c.035-.688.066-1.293.1-2l1.8.946.927-1.572-1.768-1.106,1.765-1.116-.917-1.56-1.886.957v-2.045h-1.822c-.049.693-.093,1.323-.142,2.035Zm-3.867-.01-1.94,1.05v-2.12h-1.788c-.035.682-.068,1.315-.107,2.06l-1.842-.989-.915,1.6,1.807,1.105-1.8,1.087.907,1.607,1.856-.991c.036.786.064,1.424.093,2.056h1.791c.036-.685.069-1.316.107-2.05l1.826.979.912-1.584-1.764-1.11,1.768-1.109Z" transform="translate(-50.891 -50.951)"/>
    <path id="Path_441018" data-name="Path 441018" d="M255.35,262.3c0,.294.011.5,0,.708-.048.787-.305,1.055-1.067,1.107-.207.014-.416,0-.624,0q-5.929,0-11.859,0c-1.571,0-1.734-.175-1.658-1.818Z" transform="translate(-25.43 -0.304)"/>
    <path id="Path_441025" data-name="Path 441025" d="M273.068,495.138a.955.955,0,0,1,.891.962.9.9,0,0,1-1.026.905.923.923,0,0,1-.846-.987A.991.991,0,0,1,273.068,495.138Z" transform="translate(-50.724 -184.595)"/>
  </g>
</svg>
