<svg xmlns="http://www.w3.org/2000/svg" xmlns:xlink="http://www.w3.org/1999/xlink" width="312.018" height="301.429" viewBox="0 0 312.018 301.429">
  <defs>
    <linearGradient id="linear-gradient" x1="1.29" y1="1.192" x2="-0.242" y2="-0.15" gradientUnits="objectBoundingBox">
      <stop offset="0" stop-color="#bddcfd"/>
      <stop offset="0.69" stop-color="#ebf4d8"/>
      <stop offset="1" stop-color="#fff"/>
    </linearGradient>
    <linearGradient id="linear-gradient-2" y1="0.5" x2="1" y2="0.5" gradientUnits="objectBoundingBox">
      <stop offset="0" stop-color="#bddcfd"/>
      <stop offset="1" stop-color="#5f98ed"/>
    </linearGradient>
    <radialGradient id="radial-gradient" cx="0.5" cy="0.5" r="0.693" gradientTransform="translate(-0.142) scale(1.283 1)" gradientUnits="objectBoundingBox">
      <stop offset="0" stop-color="#faad47"/>
      <stop offset="0.331" stop-color="#f8ad4a"/>
      <stop offset="0.656" stop-color="#f3ae56"/>
      <stop offset="0.976" stop-color="#eab06a"/>
      <stop offset="1" stop-color="#eab16c"/>
    </radialGradient>
    <radialGradient id="radial-gradient-2" cx="0.5" cy="0.5" r="0.39" gradientTransform="translate(-0.58) scale(2.161 1)" xlink:href="#radial-gradient"/>
    <linearGradient id="linear-gradient-4" x1="1.354" y1="1.505" x2="-0.178" y2="-0.297" xlink:href="#linear-gradient"/>
    <linearGradient id="linear-gradient-5" x1="1.188" y1="1.525" x2="-0.344" y2="-0.758" xlink:href="#linear-gradient"/>
    <linearGradient id="linear-gradient-6" x1="-2.13" y1="-42.387" x2="5.26" y2="78.119" xlink:href="#linear-gradient-2"/>
    <linearGradient id="linear-gradient-7" x1="-2.761" y1="-52.67" x2="4.63" y2="67.837" xlink:href="#linear-gradient-2"/>
    <linearGradient id="linear-gradient-8" x1="-3.406" y1="-63.181" x2="3.985" y2="57.326" xlink:href="#linear-gradient-2"/>
    <linearGradient id="linear-gradient-9" x1="-4.05" y1="-73.691" x2="3.341" y2="46.816" xlink:href="#linear-gradient-2"/>
    <linearGradient id="linear-gradient-10" x1="-0.32" y1="-12.862" x2="1.271" y2="13.068" xlink:href="#linear-gradient-2"/>
    <linearGradient id="linear-gradient-11" x1="-0.374" y1="-13.756" x2="1.216" y2="12.173" xlink:href="#linear-gradient-2"/>
    <linearGradient id="linear-gradient-12" x1="-19.138" y1="-17.897" x2="17.295" y2="16.234" xlink:href="#linear-gradient-2"/>
    <linearGradient id="linear-gradient-13" x1="-19.99" y1="-18.69" x2="16.451" y2="15.439" xlink:href="#linear-gradient-2"/>
    <linearGradient id="linear-gradient-14" x1="-20.838" y1="-19.485" x2="15.603" y2="14.645" xlink:href="#linear-gradient-2"/>
    <linearGradient id="linear-gradient-15" x1="-1.107" y1="-0.95" x2="1.568" y2="1.343" gradientUnits="objectBoundingBox">
      <stop offset="0" stop-color="#bddcfd"/>
      <stop offset="0.016" stop-color="#b5d6fb"/>
      <stop offset="0.089" stop-color="#9bc3f7"/>
      <stop offset="0.173" stop-color="#84b3f3"/>
      <stop offset="0.271" stop-color="#73a7f0"/>
      <stop offset="0.391" stop-color="#679eee"/>
      <stop offset="0.557" stop-color="#6099ed"/>
      <stop offset="1" stop-color="#5f98ed"/>
    </linearGradient>
    <linearGradient id="linear-gradient-16" x1="29.184" y1="0.5" x2="30.184" y2="0.5" xlink:href="#linear-gradient-2"/>
    <linearGradient id="linear-gradient-17" x1="0.5" y1="-4.777" x2="0.5" y2="10.678" xlink:href="#linear-gradient-15"/>
    <linearGradient id="linear-gradient-18" x1="0.5" y1="-3.3" x2="0.5" y2="7.936" xlink:href="#linear-gradient-15"/>
    <linearGradient id="linear-gradient-19" x1="0.5" y1="-3.217" x2="0.5" y2="7.778" xlink:href="#linear-gradient-15"/>
    <linearGradient id="linear-gradient-20" x1="0.5" y1="-3.204" x2="0.5" y2="7.747" xlink:href="#linear-gradient-15"/>
    <linearGradient id="linear-gradient-21" x1="0.5" y1="-3.307" x2="0.5" y2="7.947" xlink:href="#linear-gradient-15"/>
    <linearGradient id="linear-gradient-24" x1="0.5" y1="-3.204" x2="0.5" y2="7.747" xlink:href="#linear-gradient-15"/>
    <linearGradient id="linear-gradient-27" x1="-2.13" y1="-42.391" x2="5.26" y2="78.124" xlink:href="#linear-gradient-2"/>
    <linearGradient id="linear-gradient-28" x1="-2.761" y1="-52.675" x2="4.63" y2="67.841" xlink:href="#linear-gradient-2"/>
    <linearGradient id="linear-gradient-29" x1="-3.405" y1="-63.185" x2="3.985" y2="57.33" xlink:href="#linear-gradient-2"/>
    <linearGradient id="linear-gradient-30" x1="-4.05" y1="-73.696" x2="3.34" y2="46.819" xlink:href="#linear-gradient-2"/>
    <linearGradient id="linear-gradient-31" x1="-0.32" y1="-12.863" x2="1.271" y2="13.069" xlink:href="#linear-gradient-2"/>
    <linearGradient id="linear-gradient-32" x1="-0.374" y1="-13.755" x2="1.216" y2="12.172" xlink:href="#linear-gradient-2"/>
    <linearGradient id="linear-gradient-33" x1="-19.137" y1="-17.899" x2="17.294" y2="16.235" xlink:href="#linear-gradient-2"/>
    <linearGradient id="linear-gradient-34" x1="-19.988" y1="-18.692" x2="16.449" y2="15.441" xlink:href="#linear-gradient-2"/>
    <linearGradient id="linear-gradient-35" x1="-20.836" y1="-19.487" x2="15.601" y2="14.646" xlink:href="#linear-gradient-2"/>
    <linearGradient id="linear-gradient-36" x1="-0.685" y1="-1.183" x2="3.242" y2="4.394" xlink:href="#linear-gradient-2"/>
    <radialGradient id="radial-gradient-3" cx="0.5" cy="0.5" r="0.948" gradientTransform="translate(0.306 0.013) scale(0.404 0.974)" xlink:href="#radial-gradient"/>
  </defs>
  <g id="Group_186361" data-name="Group 186361" transform="translate(-80.963 -93.493)">
    <g id="Group_185183" data-name="Group 185183" transform="translate(80.963 93.493)">
      <rect id="Rectangle_21168" data-name="Rectangle 21168" width="148.021" height="289.306" rx="21.679" transform="translate(100.696 3.944)" fill="url(#linear-gradient)"/>
      <path id="Path_441402" data-name="Path 441402" d="M357.994,93.493H239.877a18.7,18.7,0,0,0-18.7,18.7V371.582a18.7,18.7,0,0,0,18.7,18.7H357.994a18.7,18.7,0,0,0,18.7-18.7V112.19A18.7,18.7,0,0,0,357.994,93.493Zm14.957,278.089a14.986,14.986,0,0,1-14.957,14.958H239.877a14.986,14.986,0,0,1-14.958-14.958V112.19a14.977,14.977,0,0,1,14.958-14.957H357.994a14.977,14.977,0,0,1,14.957,14.957Z" transform="translate(-124.435 -93.493)" fill="#28165b"/>
      <path id="Path_441403" data-name="Path 441403" d="M372.582,118.556v43.307a5.926,5.926,0,0,1-2.853,1.1c-.865,0-2.924-1.586-4.3-2.628-2.723-2.1-5.825-4.475-9.589-4.475-3.375,0-6.145,2.119-8.821,4.179-1.7,1.3-3.824,2.924-5.067,2.924-1.03,0-3.1-1.6-4.617-2.758-2.664-2.036-5.671-4.345-9.27-4.345-3.481,0-6.441,2.261-9.033,4.262-1.658,1.267-3.718,2.841-4.866,2.841-1.113,0-3.149-1.563-4.795-2.818-2.616-2.013-5.588-4.285-9.1-4.285-3.552,0-6.547,2.3-9.188,4.309-1.621,1.243-3.646,2.794-4.712,2.794-1.2,0-3.279-1.6-4.96-2.889-2.581-1.977-5.505-4.214-8.939-4.214-3.658,0-6.7,2.332-9.388,4.392-1.492,1.148-3.54,2.711-4.5,2.711-1.361,0-3.445-1.6-5.292-3.007-2.616-2.013-5.34-4.1-8.607-4.1-4.014,0-7.376,2.58-10.076,4.652-.734.569-1.764,1.361-2.616,1.894V118.556A14.219,14.219,0,0,1,246.2,104.349H358.376A14.218,14.218,0,0,1,372.582,118.556Z" transform="translate(-127.787 -96.859)" fill="url(#linear-gradient-2)"/>
      <g id="Group_185140" data-name="Group 185140" transform="translate(108.412 166.475)">
        <path id="Path_441404" data-name="Path 441404" d="M372.48,446.651H238.32l-.23-98.12a13.3,13.3,0,0,1,13.222-13.349l27.773-.1,50.559-.2,29.282-.1a13.261,13.261,0,0,1,13.323,13.222Z" transform="translate(-238.09 -334.772)" fill="url(#linear-gradient-2)"/>
        <g id="Group_185134" data-name="Group 185134" transform="translate(96.776 14.138)" opacity="0.6">
          <path id="Path_441405" data-name="Path 441405" d="M381.05,355.348a2.1,2.1,0,1,0,1.425,2.612A2.1,2.1,0,0,0,381.05,355.348Z" transform="translate(-378.351 -355.262)" fill="#fff"/>
          <path id="Path_441406" data-name="Path 441406" d="M389.833,355.4a2.1,2.1,0,1,0,1.425,2.612A2.1,2.1,0,0,0,389.833,355.4Z" transform="translate(-381.074 -355.279)" fill="#fff"/>
          <path id="Path_441407" data-name="Path 441407" d="M398.616,355.458a2.1,2.1,0,1,0,1.425,2.612A2.1,2.1,0,0,0,398.616,355.458Z" transform="translate(-383.798 -355.297)" fill="#fff"/>
        </g>
        <g id="Group_185139" data-name="Group 185139" transform="translate(12.121 17.204)">
          <path id="Path_441408" data-name="Path 441408" d="M309.179,378.321l62.4,0a2.847,2.847,0,0,0,2.845-2.836h0a2.826,2.826,0,0,0-2.826-2.836l-62.417,0a2.836,2.836,0,0,0-2.835,2.826h0A2.835,2.835,0,0,0,309.179,378.321Z" transform="translate(-271.372 -363.718)" fill="#fff" opacity="0.6"/>
          <path id="Path_441409" data-name="Path 441409" d="M341.905,388.843H308.092a2.836,2.836,0,0,0,0,5.672l33.8,0a2.846,2.846,0,0,0,2.845-2.835h0A2.835,2.835,0,0,0,341.905,388.843Z" transform="translate(-271.035 -368.739)" fill="#fff" opacity="0.6"/>
          <path id="Path_441410" data-name="Path 441410" d="M406.535,388.843H372.723a2.836,2.836,0,1,0,0,5.672l33.8,0a2.846,2.846,0,0,0,2.845-2.835h0A2.835,2.835,0,0,0,406.535,388.843Z" transform="translate(-291.073 -368.739)" fill="#fff" opacity="0.6"/>
          <path id="Path_441411" data-name="Path 441411" d="M332.433,405.04l-31.017,0a2.835,2.835,0,1,0,0,5.671h31.017a2.836,2.836,0,0,0,0-5.672Z" transform="translate(-268.965 -373.761)" fill="#fff" opacity="0.6"/>
          <g id="Group_185138" data-name="Group 185138">
            <path id="Path_441412" data-name="Path 441412" d="M287.372,367.331l-.11-.917-.923.023c-.125,0-.25,0-.375,0-6.641,0-11.966-4.483-13.456-5.871-.007-.007-.077-.069-.164-.156l-.717-.709-.713.713c-.082.082-.139.133-.147.14l-.029.026c-1.474,1.374-6.8,5.856-13.439,5.856-.125,0-.25,0-.376,0l-.923-.023-.11.917a51.615,51.615,0,0,0,.633,14.339c1.93,9.991,6.975,16.478,14.589,18.761.054.019.142.047.266.079l.246.063.248-.061a2.738,2.738,0,0,0,.29-.086c7.607-2.287,12.646-8.772,14.574-18.757A51.6,51.6,0,0,0,287.372,367.331Z" transform="translate(-255.658 -359.706)" fill="#fff" opacity="0.8"/>
            <g id="Group_185137" data-name="Group 185137" transform="translate(2.593 3.317)">
              <g id="Group_185136" data-name="Group 185136">
                <g id="Group_185135" data-name="Group 185135">
                  <path id="Path_441413" data-name="Path 441413" d="M272.586,398.694c-.1-.027-.178-.05-.223-.066-6.379-1.913-10.6-7.346-12.221-15.716a43.211,43.211,0,0,1-.53-12.011l.091-.768.773.02q.157,0,.315,0c5.563,0,10.023-3.755,11.258-4.906l.024-.021c.007-.006.055-.048.123-.117l.6-.6.6.594c.074.073.132.125.138.13,1.247,1.163,5.708,4.919,11.271,4.918.1,0,.21,0,.315,0l.773-.02.092.768a43.213,43.213,0,0,1-.53,12.011c-1.615,8.364-5.836,13.8-12.208,15.713a2.326,2.326,0,0,1-.244.072l-.207.05Z" transform="translate(-259.417 -364.514)" fill="#fed978"/>
                  <path id="Path_441414" data-name="Path 441414" d="M274.48,397.975c-.364.14-.744.273-1.132.388a1.026,1.026,0,0,1-.165.05l-.174-.05c-14.836-4.425-12.17-26.825-12.17-26.825,6.052.157,10.89-3.93,12.17-5.127,0,0,.066-.058.174-.157a.024.024,0,0,0,.008.016c.091.075.157.141.157.141,1.288,1.2,6.126,5.284,12.178,5.127C285.527,371.538,288.053,392.782,274.48,397.975Z" transform="translate(-259.8 -365.053)" fill="url(#radial-gradient)"/>
                </g>
                <path id="Path_441415" data-name="Path 441415" d="M281.382,381.784h-.9a5.329,5.329,0,0,0-.993-3.525,2.9,2.9,0,0,0-2.278-.965,3.041,3.041,0,0,0-2.445,1.036,5.076,5.076,0,0,0-.89,3.453h-.909a.842.842,0,0,0-.842.842v8.462a.842.842,0,0,0,.842.842h8.416a.842.842,0,0,0,.842-.842v-8.462A.843.843,0,0,0,281.382,381.784Zm-5.775-2.742a1.966,1.966,0,0,1,1.6-.646,1.82,1.82,0,0,1,1.45.589,4.314,4.314,0,0,1,.721,2.8h-4.405A4.127,4.127,0,0,1,275.607,379.042Z" transform="translate(-263.356 -368.476)" fill="#fed978"/>
              </g>
              <path id="Path_441416" data-name="Path 441416" d="M280.114,397.982c8.752-6.853,8.908-22.145,8.908-22.145s-.355.62-4.6-2.394a15.749,15.749,0,0,1-5.6-7.167c.091.075.157.141.157.141,1.288,1.2,6.126,5.284,12.178,5.127C291.16,371.545,293.687,392.789,280.114,397.982Z" transform="translate(-265.434 -365.061)" fill="#fed978" opacity="0.2"/>
            </g>
            <path id="Path_441417" data-name="Path 441417" d="M279.86,388.844a1.1,1.1,0,1,0-1.591.98c-.224.94-.58,2.674-.58,2.674h2.142s-.356-1.735-.58-2.674A1.1,1.1,0,0,0,279.86,388.844Z" transform="translate(-262.479 -368.399)" fill="url(#radial-gradient-2)"/>
          </g>
        </g>
      </g>
      <g id="Group_185141" data-name="Group 185141" transform="translate(97.641 251.534)">
        <path id="Path_441418" data-name="Path 441418" d="M222.478,492.482V479.6H376.2v12.88a15.546,15.546,0,0,1-15.534,15.534H238.011A15.546,15.546,0,0,1,222.478,492.482Z" transform="translate(-222.478 -464.734)" fill="#28165b"/>
        <circle id="Ellipse_3218" data-name="Ellipse 3218" cx="16.796" cy="16.796" r="16.796" transform="translate(54.971 12.666) rotate(-22.152)" fill="#28165b"/>
        <circle id="Ellipse_3219" data-name="Ellipse 3219" cx="12.941" cy="12.941" r="12.941" transform="translate(58.559 21.889) rotate(-45)" fill="#55358d" opacity="0.3"/>
      </g>
      <path id="Path_441419" data-name="Path 441419" d="M226.6,120.733V188.2l30.3,30.3L374.631,336.234v-67.47Z" transform="translate(-126.115 -101.938)" opacity="0.2" fill="url(#linear-gradient-4)"/>
      <path id="Path_441420" data-name="Path 441420" d="M356.838,361.312,226.6,231.074v22.038l31.011,31.011,117.02,117.02V379.105Z" transform="translate(-126.115 -136.148)" opacity="0.2" fill="url(#linear-gradient-5)"/>
      <g id="Group_185144" data-name="Group 185144" transform="translate(139.017 31.046)" opacity="0.92">
        <g id="Group_185142" data-name="Group 185142" transform="translate(3.236)">
          <path id="Path_441421" data-name="Path 441421" d="M290.409,140.586a2.068,2.068,0,0,1-.551,1.552,2.178,2.178,0,0,1-1.585.537h-1.136v-4.1h1.256a1.84,1.84,0,0,1,2.016,2.01Zm-.505.017a1.651,1.651,0,0,0-.4-1.209,1.613,1.613,0,0,0-1.2-.406h-.692v3.275h.58a1.766,1.766,0,0,0,1.281-.42A1.659,1.659,0,0,0,289.9,140.6Z" transform="translate(-287.137 -138.517)" fill="#fff"/>
          <path id="Path_441422" data-name="Path 441422" d="M294.868,142.674v-4.1h.477v4.1Z" transform="translate(-289.534 -138.517)" fill="#fff"/>
          <path id="Path_441423" data-name="Path 441423" d="M300.558,140.5h1.394v1.993a4.456,4.456,0,0,1-.662.157,5,5,0,0,1-.78.053,1.888,1.888,0,0,1-1.449-.553,2.183,2.183,0,0,1-.519-1.552,2.34,2.34,0,0,1,.257-1.12,1.736,1.736,0,0,1,.738-.735,2.4,2.4,0,0,1,1.13-.254,3.085,3.085,0,0,1,1.222.241l-.185.42a2.735,2.735,0,0,0-1.068-.235,1.531,1.531,0,0,0-1.169.446,1.732,1.732,0,0,0-.421,1.236,1.768,1.768,0,0,0,.405,1.258,1.56,1.56,0,0,0,1.19.429,3.531,3.531,0,0,0,.833-.1v-1.262h-.917Z" transform="translate(-290.673 -138.49)" fill="#fff"/>
          <path id="Path_441424" data-name="Path 441424" d="M306.575,142.674v-4.1h.476v4.1Z" transform="translate(-293.163 -138.517)" fill="#fff"/>
          <path id="Path_441425" data-name="Path 441425" d="M311.59,142.674h-.477V139h-1.3v-.423h3.072V139h-1.3Z" transform="translate(-294.168 -138.517)" fill="#fff"/>
          <path id="Path_441426" data-name="Path 441426" d="M319.15,142.667l-.511-1.3H317l-.5,1.3h-.482l1.62-4.115h.4l1.612,4.115Zm-.659-1.732-.477-1.27q-.092-.241-.19-.592a5.419,5.419,0,0,1-.177.592l-.482,1.27Z" transform="translate(-296.089 -138.509)" fill="#fff"/>
          <path id="Path_441427" data-name="Path 441427" d="M323.757,142.674v-4.1h.477v3.667h1.808v.431Z" transform="translate(-298.49 -138.517)" fill="#fff"/>
          <path id="Path_441428" data-name="Path 441428" d="M336.165,139.77a1.146,1.146,0,0,1-.425.957,1.921,1.921,0,0,1-1.215.335h-.482v1.612h-.477v-4.1h1.063Q336.164,138.576,336.165,139.77Zm-2.122.883h.429a1.59,1.59,0,0,0,.916-.2.754.754,0,0,0,.284-.656.707.707,0,0,0-.266-.605,1.39,1.39,0,0,0-.83-.2h-.533Z" transform="translate(-301.532 -138.517)" fill="#fff"/>
          <path id="Path_441429" data-name="Path 441429" d="M342.563,142.667l-.511-1.3H340.41l-.5,1.3h-.482l1.621-4.115h.4l1.612,4.115Zm-.659-1.732-.477-1.27q-.092-.241-.19-.592a5.405,5.405,0,0,1-.177.592l-.482,1.27Z" transform="translate(-303.347 -138.509)" fill="#fff"/>
          <path id="Path_441430" data-name="Path 441430" d="M347.96,140.625l1.093-2.049h.516l-1.368,2.509v1.59h-.482v-1.567l-1.365-2.531h.521Z" transform="translate(-305.496 -138.517)" fill="#fff"/>
          <path id="Path_441431" data-name="Path 441431" d="M355.309,142.674l-1.39-3.633H353.9c.026.288.039.63.039,1.027v2.607h-.44v-4.1h.718l1.3,3.381h.022l1.31-3.381h.712v4.1h-.477v-2.641q0-.454.039-.987h-.023l-1.4,3.628Z" transform="translate(-307.71 -138.517)" fill="#fff"/>
          <path id="Path_441432" data-name="Path 441432" d="M364.956,142.674h-2.284v-4.1h2.284V139h-1.808v1.321h1.7v.421h-1.7v1.508h1.808Z" transform="translate(-310.555 -138.517)" fill="#fff"/>
          <path id="Path_441433" data-name="Path 441433" d="M372.166,142.674h-.544l-2.24-3.439h-.023q.046.605.045,1.11v2.329h-.44v-4.1h.539L371.737,142h.022q-.005-.076-.025-.486c-.013-.274-.018-.469-.014-.587v-2.352h.446Z" transform="translate(-312.506 -138.517)" fill="#fff"/>
          <path id="Path_441434" data-name="Path 441434" d="M377.933,142.674h-.476V139h-1.3v-.423h3.073V139h-1.3Z" transform="translate(-314.736 -138.517)" fill="#fff"/>
        </g>
        <g id="Group_185143" data-name="Group 185143" transform="translate(0 7.105)">
          <path id="Path_441435" data-name="Path 441435" d="M288.114,156.626l-.557-1.828h-2.8l-.557,1.828h-1.754l2.71-7.71h1.991l2.72,7.71Zm-.945-3.193q-.772-2.484-.869-2.81t-.139-.515q-.174.673-.993,3.324Z" transform="translate(-282.447 -148.827)" fill="#fff"/>
          <path id="Path_441436" data-name="Path 441436" d="M299.907,151.357a2.346,2.346,0,0,1-.775,1.9,3.313,3.313,0,0,1-2.2.656h-.7v2.731H294.6v-7.678h2.452a3.265,3.265,0,0,1,2.125.6A2.193,2.193,0,0,1,299.907,151.357Zm-3.676,1.218h.536a1.781,1.781,0,0,0,1.123-.3,1.038,1.038,0,0,0,.373-.864,1.068,1.068,0,0,0-.312-.846,1.467,1.467,0,0,0-.98-.273h-.74Z" transform="translate(-286.216 -148.841)" fill="#fff"/>
          <path id="Path_441437" data-name="Path 441437" d="M309.695,151.357a2.346,2.346,0,0,1-.774,1.9,3.315,3.315,0,0,1-2.2.656h-.7v2.731h-1.628v-7.678h2.453a3.264,3.264,0,0,1,2.124.6A2.193,2.193,0,0,1,309.695,151.357Zm-3.676,1.218h.536a1.785,1.785,0,0,0,1.124-.3,1.04,1.04,0,0,0,.373-.864,1.068,1.068,0,0,0-.312-.846,1.465,1.465,0,0,0-.98-.273h-.741Z" transform="translate(-289.25 -148.841)" fill="#fff"/>
          <path id="Path_441438" data-name="Path 441438" d="M314.18,156.64v-7.678h1.628V155.3h3.115v1.345Z" transform="translate(-292.285 -148.841)" fill="#fff"/>
          <path id="Path_441439" data-name="Path 441439" d="M322.986,156.64v-7.678h1.628v7.678Z" transform="translate(-295.015 -148.841)" fill="#fff"/>
          <path id="Path_441440" data-name="Path 441440" d="M331.255,150.157a1.66,1.66,0,0,0-1.423.691,3.213,3.213,0,0,0-.5,1.924q0,2.569,1.928,2.569a6.094,6.094,0,0,0,1.959-.405V156.3a5.446,5.446,0,0,1-2.111.393,3.22,3.22,0,0,1-2.563-1.016,4.3,4.3,0,0,1-.887-2.918,4.753,4.753,0,0,1,.435-2.1,3.146,3.146,0,0,1,1.252-1.381,3.7,3.7,0,0,1,1.915-.481,5.173,5.173,0,0,1,2.248.541l-.525,1.323a8.666,8.666,0,0,0-.867-.357A2.588,2.588,0,0,0,331.255,150.157Z" transform="translate(-296.462 -148.792)" fill="#fff"/>
          <path id="Path_441441" data-name="Path 441441" d="M342.347,156.626l-.557-1.828h-2.8l-.557,1.828H336.68l2.71-7.71h1.991l2.72,7.71Zm-.945-3.193q-.773-2.484-.87-2.81c-.064-.217-.111-.388-.139-.515q-.174.673-.993,3.324Z" transform="translate(-299.261 -148.827)" fill="#fff"/>
          <path id="Path_441442" data-name="Path 441442" d="M351.459,156.64h-1.628v-6.323h-2.085v-1.355h5.8v1.355h-2.086Z" transform="translate(-302.692 -148.841)" fill="#fff"/>
          <path id="Path_441443" data-name="Path 441443" d="M357.862,156.64v-7.678h1.628v7.678Z" transform="translate(-305.828 -148.841)" fill="#fff"/>
          <path id="Path_441444" data-name="Path 441444" d="M369.838,152.736a4.166,4.166,0,0,1-.945,2.93,4.1,4.1,0,0,1-5.42,0,4.18,4.18,0,0,1-.945-2.941,4.129,4.129,0,0,1,.947-2.928,3.547,3.547,0,0,1,2.718-1.011,3.492,3.492,0,0,1,2.707,1.019A4.175,4.175,0,0,1,369.838,152.736Zm-5.6,0a3.205,3.205,0,0,0,.489,1.937,1.706,1.706,0,0,0,1.459.651q1.949,0,1.948-2.589t-1.937-2.594a1.72,1.72,0,0,0-1.465.653A3.2,3.2,0,0,0,364.234,152.736Z" transform="translate(-307.275 -148.787)" fill="#fff"/>
          <path id="Path_441445" data-name="Path 441445" d="M382.24,156.64h-2.069l-3.34-5.808h-.048q.1,1.539.1,2.195v3.613h-1.455v-7.678h2.054l3.335,5.751h.037q-.079-1.5-.079-2.117v-3.634h1.465Z" transform="translate(-311.274 -148.841)" fill="#fff"/>
        </g>
      </g>
      <g id="Group_185147" data-name="Group 185147" transform="translate(148.865 234.404)">
        <g id="Group_185145" data-name="Group 185145" transform="translate(0 0)">
          <path id="Path_441446" data-name="Path 441446" d="M341.876,433.225H302.227a5.507,5.507,0,0,0-5.507,5.507h0a5.507,5.507,0,0,0,5.507,5.507h39.649a5.506,5.506,0,0,0,5.507-5.507h0A5.506,5.506,0,0,0,341.876,433.225Z" transform="translate(-296.72 -433.225)" fill="#fff"/>
        </g>
        <g id="Group_185146" data-name="Group 185146" transform="translate(15.382 1.779)" opacity="0.35">
          <path id="Path_441447" data-name="Path 441447" d="M321.169,442.681a2.483,2.483,0,0,1-1.526-.468,1.376,1.376,0,0,1-.629-1.132v-3.659a1.379,1.379,0,0,1,.632-1.136,2.488,2.488,0,0,1,1.523-.468,2.459,2.459,0,0,1,1.522.471,1.385,1.385,0,0,1,.625,1.134v.765h-1.408V437.4a.5.5,0,0,0-.23-.412.9.9,0,0,0-.553-.172.881.881,0,0,0-.549.172.5.5,0,0,0-.226.412v3.669a.5.5,0,0,0,.226.409.892.892,0,0,0,.549.168.908.908,0,0,0,.553-.168.5.5,0,0,0,.23-.409v-.925h1.408v.936a1.373,1.373,0,0,1-.631,1.134A2.486,2.486,0,0,1,321.169,442.681Z" transform="translate(-319.014 -435.808)" fill="#28165b"/>
          <path id="Path_441448" data-name="Path 441448" d="M328.979,435.8a2.477,2.477,0,0,1,1.526.471,1.385,1.385,0,0,1,.629,1.134v3.659a1.382,1.382,0,0,1-.632,1.137,2.489,2.489,0,0,1-1.523.468,2.457,2.457,0,0,1-1.523-.471,1.386,1.386,0,0,1-.624-1.134v-3.659a1.379,1.379,0,0,1,.632-1.137A2.474,2.474,0,0,1,328.979,435.8Zm.74,1.583a.5.5,0,0,0-.226-.409.893.893,0,0,0-.549-.168.91.91,0,0,0-.553.168.5.5,0,0,0-.23.409v3.67a.5.5,0,0,0,.23.409.915.915,0,0,0,.553.168.9.9,0,0,0,.549-.168.5.5,0,0,0,.226-.409Z" transform="translate(-321.438 -435.803)" fill="#28165b"/>
          <path id="Path_441449" data-name="Path 441449" d="M339.061,441.022a1.388,1.388,0,0,1-.625,1.134,2.432,2.432,0,0,1-1.508.471h-2.133v-6.708h2.133a2.43,2.43,0,0,1,1.512.471,1.385,1.385,0,0,1,.622,1.129Zm-2.91.605h.819a.862.862,0,0,0,.546-.174.511.511,0,0,0,.222-.409v-3.51a.5.5,0,0,0-.226-.411.874.874,0,0,0-.542-.171h-.819Z" transform="translate(-323.906 -435.839)" fill="#28165b"/>
          <path id="Path_441450" data-name="Path 441450" d="M342.706,442.627v-6.708h3.864v1.016h-2.507v1.83h1.832v1.016h-1.832v1.829h2.507v1.016Z" transform="translate(-326.359 -435.839)" fill="#28165b"/>
        </g>
      </g>
      <g id="Group_185149" data-name="Group 185149" transform="translate(36.487 40.42)">
        <path id="Path_441451" data-name="Path 441451" d="M233.772,167.373l-.052,43.162a11.678,11.678,0,0,1-11.531,9.88H149.541a11.7,11.7,0,0,1-11.665-11.075v-.115l.045-41.949a9.488,9.488,0,0,1,9.495-9.475l76.875.077A9.49,9.49,0,0,1,233.772,167.373Z" transform="translate(-135.095 -153.851)" fill="#231f20" opacity="0.1"/>
        <path id="Path_441452" data-name="Path 441452" d="M229.742,161.648l-.052,43.163a11.679,11.679,0,0,1-11.531,9.88H145.511a11.7,11.7,0,0,1-11.666-11.075V203.5l.045-41.949a9.489,9.489,0,0,1,9.495-9.475l76.875.077A9.49,9.49,0,0,1,229.742,161.648Z" transform="translate(-133.845 -152.076)" fill="#fff"/>
        <path id="Path_441453" data-name="Path 441453" d="M168.291,207.779H153.938a.437.437,0,0,1-.437-.437h0a.438.438,0,0,1,.437-.437h14.353a.437.437,0,0,1,.437.437h0A.437.437,0,0,1,168.291,207.779Z" transform="translate(-139.939 -169.074)" opacity="0.5" fill="url(#linear-gradient-6)"/>
        <path id="Path_441454" data-name="Path 441454" d="M194.424,207.779H180.071a.437.437,0,0,1-.437-.437h0a.438.438,0,0,1,.437-.437h14.353a.438.438,0,0,1,.437.437h0A.437.437,0,0,1,194.424,207.779Z" transform="translate(-148.041 -169.074)" opacity="0.5" fill="url(#linear-gradient-7)"/>
        <path id="Path_441455" data-name="Path 441455" d="M221.135,207.779H206.782a.437.437,0,0,1-.437-.437h0a.438.438,0,0,1,.437-.437h14.353a.437.437,0,0,1,.437.437h0A.437.437,0,0,1,221.135,207.779Z" transform="translate(-156.322 -169.074)" opacity="0.5" fill="url(#linear-gradient-8)"/>
        <path id="Path_441456" data-name="Path 441456" d="M247.846,207.779H233.493a.437.437,0,0,1-.437-.437h0a.438.438,0,0,1,.437-.437h14.353a.437.437,0,0,1,.437.437h0A.437.437,0,0,1,247.846,207.779Z" transform="translate(-164.604 -169.074)" opacity="0.5" fill="url(#linear-gradient-9)"/>
        <path id="Path_441457" data-name="Path 441457" d="M221.658,218.428h-66.7a2.033,2.033,0,0,1-2.033-2.033h0a2.033,2.033,0,0,1,2.033-2.033h66.7a2.033,2.033,0,0,1,2.033,2.033h0A2.033,2.033,0,0,1,221.658,218.428Z" transform="translate(-139.76 -171.387)" opacity="0.5" fill="url(#linear-gradient-10)"/>
        <path id="Path_441458" data-name="Path 441458" d="M221.658,229.7h-66.7a2.033,2.033,0,0,1-2.033-2.033h0a2.033,2.033,0,0,1,2.033-2.033h66.7a2.033,2.033,0,0,1,2.033,2.033h0A2.033,2.033,0,0,1,221.658,229.7Z" transform="translate(-139.76 -174.883)" opacity="0.5" fill="url(#linear-gradient-11)"/>
        <path id="Path_441459" data-name="Path 441459" d="M236.508,187.6a1.544,1.544,0,1,0,1.544,1.544A1.544,1.544,0,0,0,236.508,187.6Z" transform="translate(-165.195 -163.089)" opacity="0.5" fill="url(#linear-gradient-12)"/>
        <path id="Path_441460" data-name="Path 441460" d="M243.634,187.6a1.544,1.544,0,1,0,1.544,1.544A1.544,1.544,0,0,0,243.634,187.6Z" transform="translate(-167.404 -163.089)" opacity="0.5" fill="url(#linear-gradient-13)"/>
        <path id="Path_441461" data-name="Path 441461" d="M250.761,187.6a1.544,1.544,0,1,0,1.544,1.544A1.544,1.544,0,0,0,250.761,187.6Z" transform="translate(-169.614 -163.089)" opacity="0.5" fill="url(#linear-gradient-14)"/>
        <path id="Path_441462" data-name="Path 441462" d="M171.739,170.286l-10.761-.011a1.328,1.328,0,0,0-1.329,1.327l-.006,5.872v.016a1.638,1.638,0,0,0,1.633,1.55h7.189l2.447,1.335V179.04h.533a1.635,1.635,0,0,0,1.615-1.383l.007-6.043A1.328,1.328,0,0,0,171.739,170.286Z" transform="translate(-141.843 -157.718)" opacity="0.49" fill="url(#linear-gradient-15)"/>
        <path id="Path_441463" data-name="Path 441463" d="M154.331,165.731l10.761-.011a1.329,1.329,0,0,1,1.33,1.327l.006,5.872v.016a1.637,1.637,0,0,1-1.632,1.55h-7.189l-2.447,1.334v-1.334h-.534a1.634,1.634,0,0,1-1.614-1.383L153,167.06A1.328,1.328,0,0,1,154.331,165.731Z" transform="translate(-139.785 -156.306)" opacity="0.49" fill="url(#linear-gradient-16)"/>
        <g id="Group_185148" data-name="Group 185148" transform="translate(35.357 14.123)" opacity="0.49">
          <path id="Path_441464" data-name="Path 441464" d="M187.117,175.036h1.149v.831h-1.149v1.3h-.876v-1.3h-1.152v-.831h1.152v-1.245h.876Z" transform="translate(-185.089 -172.931)" fill="url(#linear-gradient-17)"/>
          <path id="Path_441465" data-name="Path 441465" d="M192.537,177.27h-.92v-3.546l-1.1.34v-.748l1.919-.688h.1Z" transform="translate(-186.772 -172.571)" fill="url(#linear-gradient-18)"/>
          <path id="Path_441466" data-name="Path 441466" d="M199.641,175.391a1.159,1.159,0,0,1-.84.353,1.242,1.242,0,0,1-.984-.422,1.665,1.665,0,0,1-.369-1.138,1.78,1.78,0,0,1,.2-.836,1.466,1.466,0,0,1,.556-.592,1.538,1.538,0,0,1,.8-.212,1.473,1.473,0,0,1,.815.23,1.508,1.508,0,0,1,.554.658,2.354,2.354,0,0,1,.2.984v.341a2.681,2.681,0,0,1-.576,1.822,2.181,2.181,0,0,1-1.633.707l-.226,0v-.767l.2,0A1.176,1.176,0,0,0,199.641,175.391Zm-.614-.35a.648.648,0,0,0,.384-.115.77.77,0,0,0,.244-.277v-.379a1.261,1.261,0,0,0-.179-.726.553.553,0,0,0-.477-.258.539.539,0,0,0-.455.253,1.078,1.078,0,0,0-.178.635,1.045,1.045,0,0,0,.174.622A.564.564,0,0,0,199.027,175.041Z" transform="translate(-188.921 -172.545)" fill="url(#linear-gradient-19)"/>
          <path id="Path_441467" data-name="Path 441467" d="M205.709,173.841a1.074,1.074,0,0,1-.169.6,1.2,1.2,0,0,1-.464.417,1.343,1.343,0,0,1,.535.448,1.145,1.145,0,0,1,.2.67,1.214,1.214,0,0,1-.42.976,2.005,2.005,0,0,1-2.289,0,1.213,1.213,0,0,1-.424-.974,1.16,1.16,0,0,1,.2-.672,1.323,1.323,0,0,1,.532-.446,1.2,1.2,0,0,1-.463-.417,1.084,1.084,0,0,1-.168-.6,1.2,1.2,0,0,1,.4-.944,1.815,1.815,0,0,1,2.144,0A1.2,1.2,0,0,1,205.709,173.841Zm-.824,2.066a.667.667,0,0,0-.175-.484.7.7,0,0,0-.939,0,.755.755,0,0,0,0,.963.719.719,0,0,0,.947.007A.666.666,0,0,0,204.885,175.907Zm-.1-2.022a.637.637,0,0,0-.143-.435.583.583,0,0,0-.806,0,.635.635,0,0,0-.143.44.666.666,0,0,0,.143.446.5.5,0,0,0,.4.169.5.5,0,0,0,.4-.169A.669.669,0,0,0,204.789,173.886Z" transform="translate(-190.541 -172.545)" fill="url(#linear-gradient-20)"/>
          <path id="Path_441468" data-name="Path 441468" d="M210.977,173.151l-1.793,4.122h-.971l1.8-3.893H207.7v-.742h3.273Z" transform="translate(-192.1 -172.574)" fill="url(#linear-gradient-21)"/>
          <path id="Path_441469" data-name="Path 441469" d="M216.163,173.151l-1.793,4.122H213.4l1.8-3.893H212.89v-.742h3.272Z" transform="translate(-193.708 -172.574)" fill="url(#linear-gradient-21)"/>
          <path id="Path_441470" data-name="Path 441470" d="M222.5,175.391a1.161,1.161,0,0,1-.841.353,1.242,1.242,0,0,1-.984-.422,1.665,1.665,0,0,1-.369-1.138,1.773,1.773,0,0,1,.2-.836,1.46,1.46,0,0,1,.555-.592,1.537,1.537,0,0,1,.8-.212,1.471,1.471,0,0,1,.816.23,1.508,1.508,0,0,1,.554.658,2.387,2.387,0,0,1,.2.984v.341a2.682,2.682,0,0,1-.577,1.822,2.18,2.18,0,0,1-1.633.707l-.226,0v-.767l.2,0A1.177,1.177,0,0,0,222.5,175.391Zm-.615-.35a.647.647,0,0,0,.384-.115.77.77,0,0,0,.244-.277v-.379a1.266,1.266,0,0,0-.178-.726.555.555,0,0,0-.478-.258.539.539,0,0,0-.455.253,1.078,1.078,0,0,0-.178.635,1.05,1.05,0,0,0,.173.622A.567.567,0,0,0,221.887,175.041Z" transform="translate(-196.008 -172.545)" fill="url(#linear-gradient-19)"/>
          <path id="Path_441471" data-name="Path 441471" d="M228.57,173.841a1.079,1.079,0,0,1-.169.6,1.21,1.21,0,0,1-.464.417,1.344,1.344,0,0,1,.535.448,1.15,1.15,0,0,1,.2.67,1.214,1.214,0,0,1-.42.976,2.005,2.005,0,0,1-2.289,0,1.212,1.212,0,0,1-.423-.974,1.155,1.155,0,0,1,.2-.672,1.316,1.316,0,0,1,.531-.446,1.2,1.2,0,0,1-.463-.417,1.084,1.084,0,0,1-.167-.6,1.2,1.2,0,0,1,.395-.944,1.815,1.815,0,0,1,2.144,0A1.2,1.2,0,0,1,228.57,173.841Zm-.825,2.066a.67.67,0,0,0-.175-.484.7.7,0,0,0-.94,0,.755.755,0,0,0,0,.963.72.72,0,0,0,.948.007A.668.668,0,0,0,227.745,175.907Zm-.1-2.022a.634.634,0,0,0-.143-.435.583.583,0,0,0-.806,0,.635.635,0,0,0-.143.44.666.666,0,0,0,.143.446.5.5,0,0,0,.405.169.5.5,0,0,0,.4-.169A.669.669,0,0,0,227.649,173.886Z" transform="translate(-197.629 -172.545)" fill="url(#linear-gradient-24)"/>
          <path id="Path_441472" data-name="Path 441472" d="M233.838,173.151l-1.793,4.122h-.971l1.8-3.893h-2.3v-.742h3.272Z" transform="translate(-199.188 -172.574)" fill="url(#linear-gradient-21)"/>
          <path id="Path_441473" data-name="Path 441473" d="M239.023,173.151l-1.793,4.122h-.971l1.8-3.893H235.75v-.742h3.273Z" transform="translate(-200.796 -172.574)" fill="url(#linear-gradient-21)"/>
        </g>
      </g>
      <g id="Group_185150" data-name="Group 185150" transform="translate(204.509 149.268)">
        <path id="Path_441474" data-name="Path 441474" d="M479.7,327.55l-.055,46.059a12.462,12.462,0,0,1-12.3,10.543H389.815a12.484,12.484,0,0,1-12.448-11.818v-.124l.048-44.764a10.125,10.125,0,0,1,10.131-10.111l82.035.082A10.127,10.127,0,0,1,479.7,327.55Z" transform="translate(-377.367 -312.159)" fill="#231f20" opacity="0.1"/>
        <path id="Path_441475" data-name="Path 441475" d="M487.2,320.047l-.055,46.059a12.462,12.462,0,0,1-12.3,10.543H397.317a12.484,12.484,0,0,1-12.448-11.818v-.124l.048-44.764a10.125,10.125,0,0,1,10.131-10.111l82.034.083A10.126,10.126,0,0,1,487.2,320.047Z" transform="translate(-379.693 -309.833)" fill="#fff"/>
        <path id="Path_441476" data-name="Path 441476" d="M421.627,369.275H406.311a.467.467,0,0,1-.467-.467h0a.467.467,0,0,1,.467-.466h15.316a.467.467,0,0,1,.467.466h0A.467.467,0,0,1,421.627,369.275Z" transform="translate(-386.196 -327.972)" opacity="0.5" fill="url(#linear-gradient-27)"/>
        <path id="Path_441477" data-name="Path 441477" d="M449.514,369.275H434.2a.466.466,0,0,1-.466-.467h0a.466.466,0,0,1,.466-.466h15.317a.467.467,0,0,1,.466.466h0A.467.467,0,0,1,449.514,369.275Z" transform="translate(-394.842 -327.972)" opacity="0.5" fill="url(#linear-gradient-28)"/>
        <path id="Path_441478" data-name="Path 441478" d="M478.018,369.275H462.7a.467.467,0,0,1-.467-.467h0a.467.467,0,0,1,.467-.466h15.317a.467.467,0,0,1,.466.466h0A.467.467,0,0,1,478.018,369.275Z" transform="translate(-403.679 -327.972)" opacity="0.5" fill="url(#linear-gradient-29)"/>
        <path id="Path_441479" data-name="Path 441479" d="M506.521,369.275H491.2a.467.467,0,0,1-.466-.467h0a.467.467,0,0,1,.466-.466h15.317a.467.467,0,0,1,.467.466h0A.467.467,0,0,1,506.521,369.275Z" transform="translate(-412.516 -327.972)" opacity="0.5" fill="url(#linear-gradient-30)"/>
        <path id="Path_441480" data-name="Path 441480" d="M478.575,380.638H407.4a2.17,2.17,0,0,1-2.169-2.169h0A2.169,2.169,0,0,1,407.4,376.3h71.178a2.169,2.169,0,0,1,2.17,2.169h0A2.17,2.17,0,0,1,478.575,380.638Z" transform="translate(-386.004 -330.44)" opacity="0.5" fill="url(#linear-gradient-31)"/>
        <path id="Path_441481" data-name="Path 441481" d="M478.575,392.67H407.4a2.17,2.17,0,0,1-2.169-2.17h0a2.17,2.17,0,0,1,2.169-2.169h71.178a2.17,2.17,0,0,1,2.17,2.169h0A2.17,2.17,0,0,1,478.575,392.67Z" transform="translate(-386.004 -334.17)" opacity="0.5" fill="url(#linear-gradient-32)"/>
        <path id="Path_441482" data-name="Path 441482" d="M494.421,347.738a1.648,1.648,0,1,0,1.648,1.648A1.648,1.648,0,0,0,494.421,347.738Z" transform="translate(-413.147 -321.585)" opacity="0.5" fill="url(#linear-gradient-33)"/>
        <path id="Path_441483" data-name="Path 441483" d="M502.026,347.738a1.648,1.648,0,1,0,1.648,1.648A1.648,1.648,0,0,0,502.026,347.738Z" transform="translate(-415.504 -321.585)" opacity="0.5" fill="url(#linear-gradient-34)"/>
        <path id="Path_441484" data-name="Path 441484" d="M509.631,347.738a1.648,1.648,0,1,0,1.648,1.648A1.648,1.648,0,0,0,509.631,347.738Z" transform="translate(-417.862 -321.585)" opacity="0.5" fill="url(#linear-gradient-35)"/>
        <rect id="Rectangle_21169" data-name="Rectangle 21169" width="30.578" height="20.173" rx="0.938" transform="translate(20.464 9.216)" opacity="0.5" fill="url(#linear-gradient-36)"/>
        <path id="Path_441485" data-name="Path 441485" d="M407.027,323.959l13.88,8.675a2.658,2.658,0,0,0,1.409.4h0a2.661,2.661,0,0,0,1.41-.4l13.88-8.675-14.669,8.149a1.275,1.275,0,0,1-1.24,0Z" transform="translate(-386.563 -314.212)" fill="#fff" opacity="0.2"/>
        <path id="Path_441486" data-name="Path 441486" d="M437.606,346.368l-13.88-8.675a2.661,2.661,0,0,0-1.41-.4h0a2.658,2.658,0,0,0-1.409.4l-13.88,8.675,14.669-8.15a1.278,1.278,0,0,1,1.24,0Z" transform="translate(-386.563 -318.345)" fill="#fff" opacity="0.2"/>
        <path id="Path_441487" data-name="Path 441487" d="M427.091,337.1a1.254,1.254,0,0,1-1.249.773c-.9-.026-1.287-.734-1.158-1.983l.141-1.3c.128-1.262.669-1.944,1.57-1.906a1.064,1.064,0,0,1,1.056.8l.077-.747h1.236l-.386,3.72c-.026.219.051.322.257.322.721,0,1.03-1.6,1.03-2.91,0-1.609-.773-2.716-2.562-2.716-2.292,0-3.489,1.828-3.489,4.764,0,2.073.953,3.36,3,3.36a4,4,0,0,0,2.665-.876l-.1,1.236a4.458,4.458,0,0,1-2.639.721c-2.9,0-4.133-1.841-4.133-4.506,0-3.179,1.57-5.793,4.75-5.793,2.716,0,3.579,1.7,3.579,3.785,0,3.167-1.519,4.107-2.51,4.107C427.567,337.953,427.142,337.708,427.091,337.1Zm-1.158-1.274c-.065.592.155.837.553.849s.656-.219.721-.811l.129-1.223c.051-.5-.206-.72-.554-.72-.4-.013-.669.206-.733.811Z" transform="translate(-391.33 -316.104)" fill="#fff"/>
      </g>
      <g id="Group_185157" data-name="Group 185157" transform="translate(130.085 111.497)">
        <g id="Group_185151" data-name="Group 185151" transform="translate(0 19.726)">
          <rect id="Rectangle_21170" data-name="Rectangle 21170" width="19.369" height="1.549" fill="#28165b"/>
          <rect id="Rectangle_21171" data-name="Rectangle 21171" width="19.369" height="1.549" transform="translate(23.501)" fill="#28165b"/>
          <rect id="Rectangle_21172" data-name="Rectangle 21172" width="19.369" height="1.549" transform="translate(47.003)" fill="#28165b"/>
          <rect id="Rectangle_21173" data-name="Rectangle 21173" width="19.369" height="1.549" transform="translate(70.504)" fill="#28165b"/>
        </g>
        <g id="Group_185156" data-name="Group 185156" transform="translate(5.364)" opacity="0.5">
          <g id="Group_185152" data-name="Group 185152">
            <path id="Path_441488" data-name="Path 441488" d="M281.737,258.386l1.907-3.3h2.5l-3.064,4.933,3.166,5.082h-2.48l-2-3.425-1.99,3.425h-2.5l3.166-5.082-3.055-4.933h2.48Z" transform="translate(-277.276 -255.091)" fill="#28165b"/>
          </g>
          <g id="Group_185153" data-name="Group 185153" transform="translate(23.243)">
            <path id="Path_441489" data-name="Path 441489" d="M315.424,258.386l1.907-3.3h2.5l-3.063,4.933,3.165,5.082h-2.48l-2-3.425-1.99,3.425h-2.5l3.166-5.082-3.054-4.933h2.48Z" transform="translate(-310.963 -255.091)" fill="#28165b"/>
          </g>
          <g id="Group_185154" data-name="Group 185154" transform="translate(46.486)">
            <path id="Path_441490" data-name="Path 441490" d="M349.111,258.386l1.907-3.3h2.5l-3.063,4.933,3.166,5.082h-2.48l-2-3.425-1.99,3.425h-2.5l3.166-5.082-3.054-4.933h2.48Z" transform="translate(-344.65 -255.091)" fill="#28165b"/>
          </g>
          <g id="Group_185155" data-name="Group 185155" transform="translate(69.729)">
            <path id="Path_441491" data-name="Path 441491" d="M382.8,258.386l1.907-3.3h2.5l-3.063,4.933,3.166,5.082h-2.48l-2-3.425-1.99,3.425h-2.5l3.166-5.082-3.055-4.933h2.48Z" transform="translate(-378.337 -255.091)" fill="#28165b"/>
          </g>
        </g>
      </g>
      <g id="Group_185182" data-name="Group 185182" transform="translate(0 83.688)">
        <g id="Group_185178" data-name="Group 185178" transform="translate(24.092)">
          <g id="Group_185158" data-name="Group 185158" transform="translate(0 39.717)">
            <path id="Path_441492" data-name="Path 441492" d="M131.912,275.957c-2.819-1.127-5.588-2.339-8.343-3.608-4.7,10.042-2.908,9.69-6.428,26.937-3,14.687.3,30.1.3,30.1l4.023.446a250.069,250.069,0,0,0,7.017-31.791c.7-4.808,4.59-12.468,8.054-20.273C134.987,277.155,133.439,276.568,131.912,275.957Z" transform="translate(-115.881 -272.349)" fill="#ff97a6"/>
          </g>
          <g id="Group_185177" data-name="Group 185177" transform="translate(4.476)">
            <g id="Group_185160" data-name="Group 185160" transform="translate(0 22.406)">
              <g id="Group_185159" data-name="Group 185159">
                <path id="Path_441493" data-name="Path 441493" d="M173.908,270.793c-.978-2.087-5.111-22.779,1.824-16.627,8.471,7.514,15.75,23.767,21.755,30.331,11.183,12.221,25.319,26.342,25.319,26.342l-2.892,2.832s-19.166-7.989-28.637-19.609C179.715,279.877,179.245,282.187,173.908,270.793Z" transform="translate(-137.692 -249.048)" fill="#ff97a6"/>
                <path id="Path_441494" data-name="Path 441494" d="M177.981,277.485a64.649,64.649,0,0,1,5.734-3.612,82.489,82.489,0,0,1,7.543-3.7,85.083,85.083,0,0,0-16.233-19.77c-6.934-6.152-2.247,17.171-1.27,19.258A55.506,55.506,0,0,0,177.981,277.485Z" transform="translate(-137.538 -247.914)" fill="#574a9d"/>
                <path id="Path_441495" data-name="Path 441495" d="M128.266,259.01c-3.658,5.53-4.772,7.924-5.9,11.476a29.737,29.737,0,0,1,13.421,5.888c4.617-8.627,10.61-18.967,11.932-26.345C149.355,240.9,129.537,257.088,128.266,259.01Z" transform="translate(-122.368 -247.259)" fill="#574a9d"/>
                <path id="Path_441496" data-name="Path 441496" d="M186.727,268.162a72.17,72.17,0,0,0-5.259-6.17,16.4,16.4,0,0,1-9.094-2.477c.169,5.729,1.238,12.272,1.714,13.289a55.506,55.506,0,0,0,4.226,7.825,64.652,64.652,0,0,1,5.734-3.612c2.108-1.178,4.276-2.244,6.481-3.228C189.306,271.883,188.086,269.973,186.727,268.162Z" transform="translate(-137.871 -251.059)" fill="#231f20" opacity="0.1"/>
                <path id="Path_441497" data-name="Path 441497" d="M150.189,254.322a37.077,37.077,0,0,0-6.217,2.409,6.225,6.225,0,0,0-3.107,3.609,16.383,16.383,0,0,0-.384,4.312c-.016,2.652.168,5.909-1.809,7.981-1.572,1.647-3.962,2.11-6.3,2.063a26.659,26.659,0,0,1,6.517,3.85c4.2-7.852,9.533-17.115,11.455-24.281Z" transform="translate(-125.47 -249.431)" fill="#231f20" opacity="0.1"/>
              </g>
            </g>
            <g id="Group_185176" data-name="Group 185176" transform="translate(4.674)">
              <g id="Group_185169" data-name="Group 185169" transform="translate(0 89.402)">
                <g id="Group_185163" data-name="Group 185163" transform="translate(28.623 114.323)">
                  <g id="Group_185162" data-name="Group 185162">
                    <g id="Group_185161" data-name="Group 185161" transform="translate(0.906 6.436)">
                      <path id="Path_441498" data-name="Path 441498" d="M172.086,521.152s-.588,3.632.595,4.41c2.661,1.75,15.744,2.244,15.051-.08s-7.88-5.293-10.356-5.534S173.01,519.117,172.086,521.152Z" transform="translate(-171.94 -519.475)" fill="#2b3e6d"/>
                      <path id="Path_441499" data-name="Path 441499" d="M177.04,519.48c2.158.555,4.937,2.738,7.691,4.5s-8.441,1.044-10.839-.093-2.027-3.135-.921-3.77A6.694,6.694,0,0,1,177.04,519.48Z" transform="translate(-171.993 -519.383)" fill="#2b3e6d"/>
                    </g>
                    <path id="Path_441500" data-name="Path 441500" d="M174.925,510.12c-.689-.429-4.3,1.392-4.3,1.392l2.659,7.048c.688,2.017,7.236,2.6,8.49,2.169s-4.485-3.039-4.485-3.039l-.077-.018C176.751,515.694,175.483,510.467,174.925,510.12Z" transform="translate(-170.627 -510.054)" fill="#f5958f"/>
                    <path id="Path_441501" data-name="Path 441501" d="M178.2,520.523c-.08-.341-.184-.78-.3-1.273a7.665,7.665,0,0,1-.9.348,12.085,12.085,0,0,1-2.391.517,6.907,6.907,0,0,1-.809.038l.475,1.259c.688,2.017,7.236,2.6,8.49,2.169s-4.485-3.039-4.485-3.039Z" transform="translate(-171.609 -512.905)" fill="#fafafc"/>
                  </g>
                  <path id="Path_441502" data-name="Path 441502" d="M179.034,523.578a24.313,24.313,0,0,0-1.289-2.774c-.49-.765.184-2.669,1.336-2.285s.7,1.665,1.707,2.012,4.956,1.893,4.158,2.819S180.467,524.281,179.034,523.578Z" transform="translate(-172.784 -512.663)" fill="#2b3e6d"/>
                </g>
                <g id="Group_185166" data-name="Group 185166" transform="translate(1.549 99.534)">
                  <g id="Group_185165" data-name="Group 185165">
                    <g id="Group_185164" data-name="Group 185164" transform="translate(0 4.503)">
                      <path id="Path_441503" data-name="Path 441503" d="M134.741,495.187s-3.355,1.51-3.353,2.925c0,3.186,6.8,14.377,8.356,12.519s.079-9.493-1.085-11.691S136.948,494.837,134.741,495.187Z" transform="translate(-131.388 -495.146)" fill="#2b3e6d"/>
                      <path id="Path_441504" data-name="Path 441504" d="M139.615,498.427c.725,2.108.435,5.629.477,8.9s-5.52-6.471-5.892-9.1,1.5-3.419,2.639-2.846A6.691,6.691,0,0,1,139.615,498.427Z" transform="translate(-132.245 -495.165)" fill="#2b3e6d"/>
                    </g>
                    <path id="Path_441505" data-name="Path 441505" d="M144.863,491.44c-.022-.811-3.53-2.821-3.53-2.821l-4.418,6.1c-1.3,1.684,1.813,7.473,2.865,8.28s.066-5.417.066-5.417l-.028-.074C141.216,496.035,144.88,492.1,144.863,491.44Z" transform="translate(-133.004 -488.619)" fill="#f5958f"/>
                    <path id="Path_441506" data-name="Path 441506" d="M139.819,499.763c.241-.255.55-.584.9-.955a7.529,7.529,0,0,1-.786-.559,12.019,12.019,0,0,1-1.748-1.711,6.9,6.9,0,0,1-.477-.654l-.789,1.09c-1.3,1.684,1.813,7.473,2.865,8.28s.066-5.417.066-5.417Z" transform="translate(-133.004 -490.871)" fill="#fafafc"/>
                  </g>
                  <path id="Path_441507" data-name="Path 441507" d="M137.008,502.182a24.272,24.272,0,0,0,1.606-2.6c.369-.83,2.329-1.317,2.643-.143s-1.005,1.5-.739,2.533,1.149,5.18-.063,5.024S137.209,503.766,137.008,502.182Z" transform="translate(-133.13 -491.756)" fill="#2b3e6d"/>
                </g>
                <g id="Group_185168" data-name="Group 185168">
                  <g id="Group_185167" data-name="Group 185167">
                    <path id="Path_441508" data-name="Path 441508" d="M176.314,352.607s21.692,30.254,17.411,45.381-50.485,55.119-50.485,55.119l-3.9-4.025S166.9,398.559,162.329,386s-14.556-28.828-5.708-32.537S176.314,352.607,176.314,352.607Z" transform="translate(-132.303 -346.592)" fill="#311d68"/>
                    <path id="Path_441509" data-name="Path 441509" d="M182.176,400.543A40.646,40.646,0,0,0,180,393.479c-.715-1.982-1.4-3.951-1.944-5.988-.774-2.928-1.416-6.159-2.808-8.939a11.86,11.86,0,0,1-.042,2.615.64.64,0,0,1-.632.5,33.607,33.607,0,0,1-.762,7.312c-.562,2.438-1.315,4.833-1.986,7.243-.613,2.2-1.255,4.4-1.947,6.581a55.555,55.555,0,0,1-5.351,12.458,28.771,28.771,0,0,1-3.281,4.3c-2.63,6.785-5.819,13.857-8.772,20.029.557.764,1.083,1.546,1.567,2.363,1.392,2.345,2.572,4.806,3.813,7.231.331.649.645,1.305.947,1.967,5.2-4.8,11.522-10.806,17.565-16.986q.048-2.445.246-4.881a80.1,80.1,0,0,1,2.28-14.543C180.178,410,183.005,405.631,182.176,400.543Z" transform="translate(-136.376 -354.961)" fill="#231f20" opacity="0.1"/>
                    <path id="Path_441510" data-name="Path 441510" d="M132.34,344.952s-5.263,15.664-2.283,28.827c2.088,9.225,28.827,90.193,28.827,90.193s4.074,1.922,5.786-1.5c0,0,9.912-78.985.779-108.383C165.448,354.086,140.9,341.527,132.34,344.952Z" transform="translate(-129.143 -344.36)" fill="#3e2575"/>
                  </g>
                </g>
              </g>
              <g id="Group_185175" data-name="Group 185175" transform="translate(3.154)">
                <g id="Group_185174" data-name="Group 185174">
                  <g id="Group_185173" data-name="Group 185173">
                    <g id="Group_185172" data-name="Group 185172">
                      <path id="Path_441511" data-name="Path 441511" d="M178.739,301.252c-.6,13.622-6.815,18.743-20.426,16.464-5.413-1.419-15.758-1.944-18.269-3.4-8.937-9.553-2.381-28.751,4.61-47.892,1.753-3.934.951-16.937,4.112-19.1,13.47-10.887,20.769,8.228,24.238,18.877C176.8,277.5,179.731,289.666,178.739,301.252Z" transform="translate(-134.332 -223.87)" fill="#574a9d"/>
                      <path id="Path_441512" data-name="Path 441512" d="M179.481,306.622c-.648,14.718-7.243,20.191-21.725,17.749-5.759-1.521-16.757-2.1-19.43-3.662-9.5-10.333-2.535-30.97,4.9-51.63,2.412-5.714-.037-20.155,6.726-22.095.563,4.892,14.017,7.939,13.6,1.985C175.417,259.908,180.6,288.059,179.481,306.622Z" transform="translate(-133.713 -224.768)" fill="#6f6eb2"/>
                      <path id="Path_441513" data-name="Path 441513" d="M144.26,329.855s9.652,1.826,11.984,1.5l-.072,1.4s-9.009,3.072-12.372-1.348Z" transform="translate(-136.84 -250.461)" fill="#1a2326" opacity="0.2" style="mix-blend-mode: multiply;isolation: isolate"/>
                      <path id="Path_441514" data-name="Path 441514" d="M197.307,333.42c-.086,1.009-.19,1.983-.328,2.931a22.089,22.089,0,0,1-5.724-1.129l-.043-1.4A31.2,31.2,0,0,0,197.307,333.42Z" transform="translate(-151.54 -251.566)" fill="#1a2326" opacity="0.2" style="mix-blend-mode: multiply;isolation: isolate"/>
                      <g id="Group_185171" data-name="Group 185171" transform="translate(18.948)">
                        <g id="Group_185170" data-name="Group 185170">
                          <path id="Path_441515" data-name="Path 441515" d="M170.057,234.646s-.275,5.495.329,7.1,3.422,4.165-.636,4.78-8.909-2.709-8.557-4.144,2.977-2.162,4.039-4.913.82-3.706.82-3.706Z" transform="translate(-161.175 -220.671)" fill="#ff97a6"/>
                          <path id="Path_441516" data-name="Path 441516" d="M172.691,241.775c-.6-1.61-.329-7.1-.329-7.1l-3.753-.824a.636.636,0,0,1,.221.481c.068,2.207,1.946,3.762,2.723,5.722.6,1.523.982,3.587.039,5.054a3.51,3.51,0,0,1-1.869,1.419,7.627,7.627,0,0,0,2.332.033C176.112,245.941,173.295,243.385,172.691,241.775Z" transform="translate(-163.48 -220.695)" fill="#d66e85" opacity="0.25"/>
                          <path id="Path_441517" data-name="Path 441517" d="M172.352,225.111s3.973-6.586,2.588-9.148-4.241-.4-6.622,1.343-4.775.677-5.777,3.607c-.891,2.6.452,7.82,3.675,7.628S172.352,225.111,172.352,225.111Z" transform="translate(-161.515 -214.786)" fill="#2b3e6d"/>
                          <path id="Path_441518" data-name="Path 441518" d="M175.13,232.82c-1.022,2.242-6.546,1.556-7.629-.865l-.92-2.074a1.849,1.849,0,0,1-1.428-1.615c-.045-1.018.9-.553.9-.553l-.219-1.1,7.522-2.458s.23.535.555,1.365c.163.428.339.95.529,1.5C175.087,229.027,175.7,231.584,175.13,232.82Z" transform="translate(-162.408 -217.691)" fill="#ff97a6"/>
                          <path id="Path_441519" data-name="Path 441519" d="M176.021,233.517c-.008-.121-.017-.241-.035-.362a10.687,10.687,0,0,0-.172-1.1,5.318,5.318,0,0,0-.646.008,1.979,1.979,0,0,0-1.009.328,2.434,2.434,0,0,0-.724.871,5.562,5.562,0,0,1-.621.983,1.822,1.822,0,0,1-.871.552,1.085,1.085,0,0,1-.155.043,3.213,3.213,0,0,1-2.716-.94,1.87,1.87,0,0,1-.172-.19c-.1-.1-.2-.216-.293-.328v-.009l-.026-.026c-.155-.207-.284-.422-.448-.621a.615.615,0,0,0-.5-.215,1.155,1.155,0,0,0-.284.017c.06.138.146.328.241.551.052.1.1.207.147.319.069.155.138.319.207.474l.026.052.009.008v.009c.077.164.146.328.207.466a2.66,2.66,0,0,0,.551.776,5.658,5.658,0,0,0,3.172,1.388c1.681.224,3.379-.155,3.905-1.3A3.726,3.726,0,0,0,176.021,233.517Zm-.112,0a.9.9,0,0,1-.207.267,1.338,1.338,0,0,0-.241.336,2.036,2.036,0,0,1-.353.457,1.892,1.892,0,0,1-.914.482.468.468,0,0,1-.388-.086.425.425,0,0,1-.078-.457,3.594,3.594,0,0,1,.7-1.017,1.219,1.219,0,0,1,1.431-.112c.017.009.026.017.026.035A.075.075,0,0,1,175.909,233.517Z" transform="translate(-163.089 -220.137)" fill="#2b3e6d"/>
                        </g>
                        <path id="Path_441520" data-name="Path 441520" d="M166.06,229.681s-.338-.246-.427.01a1.429,1.429,0,0,0,.658,1.316s-.595-.694-.521-.987S166.226,229.883,166.06,229.681Z" transform="translate(-162.552 -219.371)" fill="#ed889b"/>
                        <path id="Path_441521" data-name="Path 441521" d="M174.826,227.633a15.1,15.1,0,0,1-3.186.992,33.512,33.512,0,0,1-5.229-.514l7.885-1.977C174.46,226.562,174.636,227.084,174.826,227.633Z" transform="translate(-162.798 -218.304)" fill="#d66e85" opacity="0.25"/>
                        <path id="Path_441522" data-name="Path 441522" d="M166.043,226.577s4.688.308,6.417-.595,2.736-2.79,2.224-3.562C173.347,220.4,164.255,220.493,166.043,226.577Z" transform="translate(-162.612 -216.787)" fill="#2b3e6d"/>
                      </g>
                    </g>
                  </g>
                </g>
              </g>
            </g>
          </g>
        </g>
        <g id="Group_185181" data-name="Group 185181" transform="translate(0 46.904)">
          <g id="Group_185179" data-name="Group 185179">
            <path id="Path_441523" data-name="Path 441523" d="M93.969,333.784a11.054,11.054,0,0,1-11.022-9.946L81.023,305.2A11.081,11.081,0,0,1,90.91,293.04l98.96-10.216a11.075,11.075,0,0,1,12.162,9.887l1.924,18.636a11.09,11.09,0,0,1-9.887,12.162L95.108,333.725C94.731,333.763,94.347,333.784,93.969,333.784Z" transform="translate(-80.963 -282.765)" fill="#fff"/>
            <path id="Path_441524" data-name="Path 441524" d="M202.615,311.69l-1.868-17.62a10.63,10.63,0,0,0-10.7-9.4,11.06,11.06,0,0,0-1.109.056l-96.081,9.659a10.777,10.777,0,0,0-7.24,3.805,10.223,10.223,0,0,0-2.36,7.694l1.868,17.62a10.63,10.63,0,0,0,10.7,9.4c.368,0,.74-.019,1.107-.056l96.081-9.659a10.771,10.771,0,0,0,7.243-3.816A10.219,10.219,0,0,0,202.615,311.69Z" transform="translate(-81.657 -283.354)" fill="url(#radial-gradient-3)"/>
            <path id="Path_441525" data-name="Path 441525" d="M200.639,296.122l1.924,18.637a4.912,4.912,0,0,1-4.374,5.38l-11.293-17.1-90.6-1.071,98.961-10.215A4.9,4.9,0,0,1,200.639,296.122Z" transform="translate(-85.718 -285.542)" fill="#eab16c" style="mix-blend-mode: soft-light;isolation: isolate"/>
          </g>
          <g id="Group_185180" data-name="Group 185180" transform="translate(41.456 15.832)">
            <path id="Path_441526" data-name="Path 441526" d="M173.17,324.652a5.569,5.569,0,0,1-3.513-.693,3.085,3.085,0,0,1-1.663-2.38l-.842-8.164a3.093,3.093,0,0,1,1.148-2.682,5.578,5.578,0,0,1,3.29-1.394,5.511,5.511,0,0,1,3.5.7,3.106,3.106,0,0,1,1.656,2.386l.177,1.707-3.141.324L173.6,312.7a1.125,1.125,0,0,0-.608-.865,2.012,2.012,0,0,0-1.274-.255,1.979,1.979,0,0,0-1.186.509,1.129,1.129,0,0,0-.41.971l.845,8.187a1.116,1.116,0,0,0,.6.862,2.008,2.008,0,0,0,1.265.249,2.044,2.044,0,0,0,1.2-.5,1.114,1.114,0,0,0,.419-.967l-.213-2.065,3.141-.324.216,2.089a3.082,3.082,0,0,1-1.148,2.676A5.581,5.581,0,0,1,173.17,324.652Z" transform="translate(-167.135 -305.336)" fill="#f7f8fa"/>
            <path id="Path_441527" data-name="Path 441527" d="M189.012,307.507a5.552,5.552,0,0,1,3.514.7,3.1,3.1,0,0,1,1.663,2.386l.843,8.163a3.1,3.1,0,0,1-1.147,2.683,5.586,5.586,0,0,1-3.29,1.394,5.506,5.506,0,0,1-3.506-.7,3.11,3.11,0,0,1-1.655-2.387l-.842-8.163a3.094,3.094,0,0,1,1.148-2.683A5.552,5.552,0,0,1,189.012,307.507Zm2.015,3.363a1.115,1.115,0,0,0-.6-.862,2.006,2.006,0,0,0-1.265-.248,2.044,2.044,0,0,0-1.2.5,1.115,1.115,0,0,0-.418.967l.845,8.188a1.115,1.115,0,0,0,.607.86,2.047,2.047,0,0,0,1.273.248,2.008,2.008,0,0,0,1.187-.5,1.116,1.116,0,0,0,.411-.965Z" transform="translate(-172.542 -304.768)" fill="#f7f8fa"/>
            <path id="Path_441528" data-name="Path 441528" d="M212.551,316.832a3.115,3.115,0,0,1-1.134,2.675,5.462,5.462,0,0,1-3.257,1.4l-4.76.491-1.545-14.967,4.76-.491a5.455,5.455,0,0,1,3.481.7,3.107,3.107,0,0,1,1.647,2.376Zm-6.353,2.02,1.827-.188a1.926,1.926,0,0,0,1.178-.515,1.142,1.142,0,0,0,.4-.964l-.809-7.83a1.129,1.129,0,0,0-.6-.867,1.952,1.952,0,0,0-1.249-.257l-1.828.188Z" transform="translate(-177.9 -304.281)" fill="#f7f8fa"/>
            <path id="Path_441529" data-name="Path 441529" d="M221.054,319.411l-1.546-14.967,8.621-.89.235,2.268-5.594.577.422,4.082,4.087-.422.234,2.267-4.087.422.422,4.082,5.594-.578.235,2.268Z" transform="translate(-183.373 -303.554)" fill="#f7f8fa"/>
          </g>
        </g>
        <path id="Path_441530" data-name="Path 441530" d="M113.887,353.315s1.946,3.388,4.753,2.287a6.875,6.875,0,0,0,3.742-3.787s.721-6.748-2.8-6.166-3.792,6.109-3.792,6.109-3.544-1.4-4.443-.6S113.887,353.315,113.887,353.315Z" transform="translate(-90.335 -255.346)" fill="#ff97a6"/>
        <path id="Path_441531" data-name="Path 441531" d="M253.079,335.576s.5,3.875-2.4,4.7a6.878,6.878,0,0,1-5.271-.75s-4.657-4.936-1.5-6.606,6.715,2.569,6.715,2.569,1.977-3.257,3.176-3.165S253.079,335.576,253.079,335.576Z" transform="translate(-131.141 -251.224)" fill="#ff97a6"/>
      </g>
    </g>
    <path id="Path_441532" data-name="Path 441532" d="M209.609,257.114h-2.033v-2.033a.4.4,0,1,0-.8,0v2.033H204.74a.4.4,0,0,0,0,.8h2.033v2.033a.4.4,0,1,0,.8,0v-2.033h2.033a.4.4,0,1,0,0-.8Z" transform="translate(-38.25 -49.973)" fill="#55358d" opacity="0.5"/>
  </g>
</svg>
