<svg xmlns="http://www.w3.org/2000/svg" width="24.232" height="36.509" viewBox="0 0 24.232 36.509">
  <g id="man" transform="translate(-78.028 0)">
    <path id="Path_1" data-name="Path 1" d="M102.26,32.791V35.88a.629.629,0,0,1-.629.629H78.657a.629.629,0,0,1-.629-.629V32.791A5.867,5.867,0,0,1,83.9,26.924a3.258,3.258,0,0,0,2.735-1.484,3.7,3.7,0,0,0,.523-2.306l.012-.029a7.79,7.79,0,0,1-4.811-7.2V15.66a1.941,1.941,0,0,1-1.967-1.931V10.46c-.025-1.138.027-5.153,2.927-7.948C86.687-.738,92.03-.472,95.9,1.266a.158.158,0,0,1-.006.29l-1.009.415a.157.157,0,0,0,.043.3l.49.053A7.941,7.941,0,0,1,101.3,5.973a.169.169,0,0,1-.02.194,4.76,4.76,0,0,0-1.3,3.27V13.73a1.931,1.931,0,0,1-1.931,1.931h-.115v.246a7.79,7.79,0,0,1-4.811,7.2l.012.029a3.7,3.7,0,0,0,.523,2.306,3.258,3.258,0,0,0,2.735,1.484A5.867,5.867,0,0,1,102.26,32.791Z" transform="translate(0 0)" fill="#ffdfba"/>
    <path id="Path_2" data-name="Path 2" d="M102.26,330.716v3.089a.629.629,0,0,1-.629.629H78.657a.629.629,0,0,1-.629-.629v-3.089A5.868,5.868,0,0,1,83.9,324.85a3.258,3.258,0,0,0,2.735-1.484,5.4,5.4,0,0,0,7.026,0,3.257,3.257,0,0,0,2.735,1.484A5.868,5.868,0,0,1,102.26,330.716Z" transform="translate(0 -297.926)" fill="#17c2ec"/>
    <path id="Path_3" data-name="Path 3" d="M128.9,5.973a.167.167,0,0,1-.02.194,4.763,4.763,0,0,0-1.3,3.27V13.73a1.934,1.934,0,0,1-2.046,1.931V10.8a3.776,3.776,0,0,0-3.776-3.776h-8.025a3.776,3.776,0,0,0-3.776,3.776v4.86a1.941,1.941,0,0,1-1.967-1.931v-3.27c-.025-1.138.027-5.153,2.927-7.948,3.372-3.25,8.716-2.984,12.586-1.245a.158.158,0,0,1-.005.289l-1.009.416a.157.157,0,0,0,.043.3l.49.053A7.938,7.938,0,0,1,128.9,5.973Z" transform="translate(-27.602 -0.001)" fill="#42434d"/>
    <path id="Path_4" data-name="Path 4" d="M148.606,98.168a7.791,7.791,0,1,1-15.577-.246v-4.86a3.776,3.776,0,0,1,3.776-3.776h8.025a3.776,3.776,0,0,1,3.776,3.776Z" transform="translate(-50.673 -82.262)" fill="#ffebd2"/>
    <path id="Path_5" data-name="Path 5" d="M283.546,432.315h-1.888a.629.629,0,1,1,0-1.259h1.888a.629.629,0,0,1,0,1.259Z" transform="translate(-187.029 -397.143)" fill="#fff"/>
    <path id="Path_6" data-name="Path 6" d="M139.053,117.619a1.244,1.244,0,0,1-1.131,2.2,7.79,7.79,0,0,1-4.894-7.233v-5.106a3.76,3.76,0,0,1,.663-2.137.93.93,0,0,1,1.7.564v5.106A7.732,7.732,0,0,0,139.053,117.619Z" transform="translate(-50.673 -96.683)" fill="#fff3e4"/>
    <path id="Path_7" data-name="Path 7" d="M199.055,295.007a7.81,7.81,0,0,1-6.157,0,4.875,4.875,0,0,0,.089-1.292l.012-.029a7.8,7.8,0,0,0,5.956,0l.012.029A4.874,4.874,0,0,0,199.055,295.007Z" transform="translate(-105.833 -270.581)" fill="#ffd6a6"/>
    <path id="Path_8" data-name="Path 8" d="M87.066,326.75a3.2,3.2,0,0,1-.937.145,5.883,5.883,0,0,0-5.9,5.847v.591a1.1,1.1,0,0,1-1.1,1.1h-.472a.629.629,0,0,1-.629-.629v-3.089A5.868,5.868,0,0,1,83.9,324.85a3.258,3.258,0,0,0,2.735-1.484,5.445,5.445,0,0,0,.748.537A1.572,1.572,0,0,1,87.066,326.75Z" transform="translate(0 -297.926)" fill="#232323" opacity="0.1"/>
    <path id="Path_9" data-name="Path 9" d="M258.445,326.75a3.2,3.2,0,0,0,.937.145,5.883,5.883,0,0,1,5.9,5.847v.591a1.1,1.1,0,0,0,1.1,1.1h.472a.629.629,0,0,0,.629-.629v-3.089a5.868,5.868,0,0,0-5.868-5.867,3.258,3.258,0,0,1-2.735-1.484,5.442,5.442,0,0,1-.748.537A1.572,1.572,0,0,0,258.445,326.75Z" transform="translate(-165.224 -297.926)" fill="#232323" opacity="0.1"/>
    <path id="Path_10" data-name="Path 10" d="M123.5,1.556c-.925.381-1.057.465-1.377.415-5.167-.8-9.7,1.337-11.24,6.356h0a3.758,3.758,0,0,0-.924,2.474v2.952a.984.984,0,1,1-1.967-.023V10.46c-.025-1.138.027-5.153,2.927-7.948,3.372-3.25,8.716-2.984,12.586-1.245a.158.158,0,0,1-.006.29Z" transform="translate(-27.602 0)" fill="#4d4e59"/>
  </g>
</svg>
