<svg xmlns="http://www.w3.org/2000/svg" width="345.875" height="316.571" viewBox="0 0 345.875 316.571">
  <g id="Group_182853" data-name="Group 182853" transform="translate(0 -0.001)">
    <g id="Group_182661" data-name="Group 182661" transform="translate(276.398 81.619)">
      <path id="Path_28333" data-name="Path 28333" d="M363.34,121.2h60.431s-5.34-9.722-20.9-8.307c-14.857,1.354-15.61-4.785-23.164-5.538S365.858,112.387,363.34,121.2Z" transform="translate(-363.34 -107.292)" fill="#f5f5f5"/>
    </g>
    <g id="Group_182662" data-name="Group 182662" transform="translate(16.797 48.71)">
      <path id="Path_28334" data-name="Path 28334" d="M22.08,77.944H82.511s-5.34-9.722-20.9-8.307C46.758,70.991,46,64.852,38.451,64.1S24.6,69.135,22.08,77.944Z" transform="translate(-22.08 -64.032)" fill="#f5f5f5"/>
    </g>
    <g id="Group_182663" data-name="Group 182663" transform="translate(125.853 0.001)">
      <path id="Path_28335" data-name="Path 28335" d="M165.44,17.558h76.269s-6.748-12.27-26.374-10.483c-18.752,1.7-19.7-6.04-29.234-6.991S168.62,6.436,165.44,17.558Z" transform="translate(-165.44 -0.001)" fill="#e0e0e0"/>
    </g>
    <g id="Group_182681" data-name="Group 182681" transform="translate(292.986 230.731)">
      <g id="Group_182665" data-name="Group 182665">
        <g id="Group_182664" data-name="Group 182664">
          <path id="Path_28336" data-name="Path 28336" d="M398.553,374.474c-10.391-6.618-13.236-19.6-13.343-31.38-.015-1.963-.32-4.024.54-5.789s2.99-3.035,4.785-2.282c1.491.624,2.2,2.29,3.073,3.659a11.476,11.476,0,0,0,4.792,4.2,4.372,4.372,0,0,0,4.047.19c1.651-1,1.75-3.355,1.658-5.31q-.274-5.454-.533-10.916a18.011,18.011,0,0,1,.342-5.827,6.061,6.061,0,0,1,3.629-4.26,3.682,3.682,0,0,1,4.656,2.267,18.393,18.393,0,0,1,.16,2.427,2.05,2.05,0,0,0,1.286,1.879,2.352,2.352,0,0,0,2.107-.989,25.947,25.947,0,0,0,4.359-7.234,35.927,35.927,0,0,1,4.039-7.447,10.574,10.574,0,0,1,6.983-4.321c2.792-.281,5.842,1.324,6.664,4.032.829,2.723-.662,5.584-2.313,7.889a43.584,43.584,0,0,1-8.7,9.037,3.624,3.624,0,0,0-1.445,1.7c-.365,1.316.92,2.556,2.221,2.929a22.37,22.37,0,0,0,4.579.32c1.529.114,3.21.715,3.842,2.13.882,1.963-.692,4.123-2.275,5.568a37.458,37.458,0,0,1-10.779,6.854,12.515,12.515,0,0,0-4.017,2.168,3.613,3.613,0,0,0-.981,4.192c.761,1.346,2.571,1.712,4.07,1.369a26,26,0,0,0,4.214-1.818c2.64-1.126,6.116-1.088,7.927,1.156a6.186,6.186,0,0,1,.89,5.439,14.261,14.261,0,0,1-2.754,4.952A37.631,37.631,0,0,1,416.726,373.2c-6.147,2.434-11.89,3.263-18.174,1.27" transform="translate(-385.145 -303.308)" fill="#e0e0e0"/>
        </g>
      </g>
      <g id="Group_182668" data-name="Group 182668" transform="translate(13.628 1.538)">
        <g id="Group_182667" data-name="Group 182667">
          <g id="Group_182666" data-name="Group 182666">
            <path id="Path_28337" data-name="Path 28337" d="M403.06,383.684a85.669,85.669,0,0,1,2.5-16.226,175.062,175.062,0,0,1,6.139-19.132q.947-2.5,1.864-4.929c.616-1.62,1.225-3.218,1.925-4.754a87.764,87.764,0,0,1,4.5-8.573c1.559-2.655,3.142-5.127,4.633-7.417s2.936-4.4,4.328-6.268a69.406,69.406,0,0,1,7.219-8.315c.928-.913,1.666-1.6,2.176-2.054.243-.221.434-.388.578-.517a2.636,2.636,0,0,1,.205-.167c.008.008-.061.068-.183.19-.137.137-.32.312-.555.54-.495.472-1.217,1.172-2.13,2.1a73.733,73.733,0,0,0-7.113,8.368c-1.377,1.871-2.8,3.986-4.283,6.284s-3.05,4.77-4.6,7.425a87.322,87.322,0,0,0-4.458,8.55c-.692,1.521-1.293,3.119-1.909,4.739s-1.232,3.263-1.864,4.929a179.153,179.153,0,0,0-6.154,19.086A87.547,87.547,0,0,0,403.3,383.7" transform="translate(-403.06 -305.33)" fill="#263238"/>
          </g>
        </g>
      </g>
      <g id="Group_182671" data-name="Group 182671" transform="translate(22.379 13.474)">
        <g id="Group_182670" data-name="Group 182670">
          <g id="Group_182669" data-name="Group 182669">
            <path id="Path_28338" data-name="Path 28338" d="M418.342,342.373a3.8,3.8,0,0,1-.228-.822c-.129-.533-.281-1.316-.464-2.282-.358-1.932-.761-4.618-1.2-7.577s-.875-5.637-1.263-7.554c-.19-.959-.35-1.734-.472-2.275a4.11,4.11,0,0,1-.145-.844,4.06,4.06,0,0,1,.281.806c.16.525.365,1.293.586,2.252.456,1.917.936,4.587,1.369,7.554.426,2.921.806,5.568,1.1,7.592.137.913.251,1.681.35,2.3A3.88,3.88,0,0,1,418.342,342.373Z" transform="translate(-414.563 -321.02)" fill="#263238"/>
          </g>
        </g>
      </g>
      <g id="Group_182674" data-name="Group 182674" transform="translate(26.157 29.043)">
        <g id="Group_182673" data-name="Group 182673">
          <g id="Group_182672" data-name="Group 182672">
            <path id="Path_28339" data-name="Path 28339" d="M444.428,341.5a5.259,5.259,0,0,1-1,.16c-.639.084-1.567.205-2.716.388-2.29.35-5.432.936-8.87,1.742s-6.519,1.674-8.733,2.366c-1.111.335-2,.631-2.617.837a5.313,5.313,0,0,1-.966.281,5.958,5.958,0,0,1,.92-.418c.6-.243,1.483-.578,2.586-.943,2.2-.753,5.279-1.658,8.733-2.472a88.152,88.152,0,0,1,8.916-1.635c1.149-.152,2.084-.228,2.739-.274A4.04,4.04,0,0,1,444.428,341.5Z" transform="translate(-419.53 -341.487)" fill="#263238"/>
          </g>
        </g>
      </g>
      <g id="Group_182677" data-name="Group 182677" transform="translate(2.399 31.662)">
        <g id="Group_182676" data-name="Group 182676">
          <g id="Group_182675" data-name="Group 182675">
            <path id="Path_28340" data-name="Path 28340" d="M402.312,376.454a1.321,1.321,0,0,1-.183-.3c-.129-.243-.281-.533-.472-.89-.4-.776-.959-1.909-1.62-3.324-1.331-2.822-3.058-6.786-4.891-11.175s-3.522-8.368-4.793-11.213c-.624-1.385-1.133-2.526-1.521-3.37-.16-.365-.3-.669-.411-.92a1.443,1.443,0,0,1-.122-.335,1.321,1.321,0,0,1,.183.3c.129.243.281.533.472.89.4.776.959,1.909,1.62,3.324,1.331,2.822,3.058,6.786,4.891,11.175s3.522,8.36,4.793,11.213c.624,1.384,1.133,2.526,1.521,3.37.16.365.3.669.411.92C402.282,376.332,402.327,376.446,402.312,376.454Z" transform="translate(-388.299 -344.929)" fill="#263238"/>
          </g>
        </g>
      </g>
      <g id="Group_182680" data-name="Group 182680" transform="translate(16.42 51.004)">
        <g id="Group_182679" data-name="Group 182679">
          <g id="Group_182678" data-name="Group 182678">
            <path id="Path_28341" data-name="Path 28341" d="M439.623,370.359a1.391,1.391,0,0,1-.327.152c-.259.1-.571.221-.958.365-.882.327-2.077.768-3.522,1.308-2.974,1.111-7.067,2.685-11.578,4.435s-8.626,3.286-11.624,4.336c-1.5.525-2.716.936-3.56,1.2-.388.122-.715.221-.974.3a1.46,1.46,0,0,1-.35.084,1.394,1.394,0,0,1,.327-.152c.259-.1.571-.221.958-.365l3.522-1.308c2.974-1.111,7.067-2.685,11.586-4.435s8.627-3.286,11.624-4.336c1.5-.525,2.716-.936,3.56-1.2.388-.122.715-.221.974-.3A1.006,1.006,0,0,1,439.623,370.359Z" transform="translate(-406.73 -370.355)" fill="#263238"/>
          </g>
        </g>
      </g>
    </g>
    <g id="Group_182685" data-name="Group 182685" transform="translate(0 286.836)">
      <path id="Path_28342" data-name="Path 28342" d="M1.1,377.25a6.794,6.794,0,0,1,5.249.936,11.972,11.972,0,0,1,3.735,3.948c1.871,3,2.518,7.014,2.579,10.551-3.925-.183-7.257-3.286-8.847-4.967C1.3,385.063-1.643,378.734,1.1,377.25" transform="translate(0 -377.06)" fill="#e0e0e0"/>
      <path id="Path_28343" data-name="Path 28343" d="M24.285,397.233a5.806,5.806,0,0,1-1.963-5.492,7.719,7.719,0,0,1,3.347-4.929,3.261,3.261,0,0,1,2.655-.677,2.484,2.484,0,0,1,1.6,1.947,4.982,4.982,0,0,1-.32,2.594c-1.012,2.86-2.5,5.439-5.317,6.557" transform="translate(-5.32 -379.211)" fill="#e0e0e0"/>
      <g id="Group_182682" data-name="Group 182682" transform="translate(18.842 11.463)">
        <path id="Path_28344" data-name="Path 28344" d="M28.459,409.877a2.716,2.716,0,0,1-.388-.631c-.228-.418-.548-1.035-.913-1.8a25.086,25.086,0,0,1-2.176-6.314,12.565,12.565,0,0,1,.525-6.641,8.495,8.495,0,0,1,.959-1.8,2.287,2.287,0,0,1,.487-.563,17.9,17.9,0,0,0-1.187,2.457,13.1,13.1,0,0,0-.4,6.474,28.984,28.984,0,0,0,2.039,6.268A23.335,23.335,0,0,1,28.459,409.877Z" transform="translate(-24.768 -392.129)" fill="#263238"/>
      </g>
      <g id="Group_182683" data-name="Group 182683" transform="translate(3.764 4.807)">
        <path id="Path_28345" data-name="Path 28345" d="M4.95,383.38a7.615,7.615,0,0,1,.852.882c.533.586,1.278,1.445,2.2,2.51,1.833,2.138,4.313,5.135,6.976,8.512s4.99,6.5,6.641,8.779c.829,1.141,1.483,2.069,1.925,2.723a8.813,8.813,0,0,1,.662,1.035,7.51,7.51,0,0,1-.784-.943c-.525-.677-1.2-1.575-2.031-2.647-1.7-2.237-4.07-5.325-6.732-8.7s-5.1-6.4-6.877-8.581c-.852-1.05-1.559-1.925-2.1-2.594A5.724,5.724,0,0,1,4.95,383.38Z" transform="translate(-4.948 -383.379)" fill="#263238"/>
      </g>
      <path id="Path_28346" data-name="Path 28346" d="M16.884,405.564A13.575,13.575,0,0,0,4.7,403.2c-1.05.312-2.214.959-2.32,2.046s.92,1.947,1.9,2.434a11.623,11.623,0,0,0,12.75-1.856" transform="translate(-0.567 -383.184)" fill="#e0e0e0"/>
      <g id="Group_182684" data-name="Group 182684" transform="translate(6.732 21.516)">
        <path id="Path_28347" data-name="Path 28347" d="M8.85,405.843a2.261,2.261,0,0,1,.685-.205,5.533,5.533,0,0,1,.822-.152,10.3,10.3,0,0,1,1.1-.114,13.769,13.769,0,0,1,2.883.129,16.446,16.446,0,0,1,3.416.913,16.756,16.756,0,0,1,3.119,1.674,14.591,14.591,0,0,1,2.191,1.879,10.786,10.786,0,0,1,.73.837,6.145,6.145,0,0,1,.494.669,2.453,2.453,0,0,1,.358.616c-.061.046-.624-.8-1.78-1.925a15.407,15.407,0,0,0-2.2-1.772,17.731,17.731,0,0,0-3.058-1.605,17.813,17.813,0,0,0-3.324-.92,16.109,16.109,0,0,0-2.815-.205C9.854,405.683,8.865,405.919,8.85,405.843Z" transform="translate(-8.85 -405.344)" fill="#263238"/>
      </g>
    </g>
    <path id="Path_28348" data-name="Path 28348" d="M60,154.656,266.8,48.087,253.534,29.358l67.552-6.078L290.619,77.968,276.454,60.251,66.907,175.339Z" transform="translate(-14.357 -5.57)" fill="#4a6aff"/>
    <g id="Group_182686" data-name="Group 182686" transform="translate(20.897 224.814)">
      <rect id="Rectangle_21048" data-name="Rectangle 21048" width="47.636" height="91.758" transform="translate(12.985)" fill="#d0f2fb"/>
      <rect id="Rectangle_21049" data-name="Rectangle 21049" width="47.636" height="91.758" fill="#17c2ec"/>
    </g>
    <g id="Group_182687" data-name="Group 182687" transform="translate(93.819 194.211)">
      <rect id="Rectangle_21050" data-name="Rectangle 21050" width="47.636" height="122.361" transform="translate(14.393)" fill="#d0f2fb"/>
      <rect id="Rectangle_21051" data-name="Rectangle 21051" width="47.636" height="122.361" fill="#17c2ec"/>
    </g>
    <g id="Group_182688" data-name="Group 182688" transform="translate(170.362 155.445)">
      <rect id="Rectangle_21052" data-name="Rectangle 21052" width="47.636" height="161.127" transform="translate(14.309)" fill="#d0f2fb"/>
      <rect id="Rectangle_21053" data-name="Rectangle 21053" width="47.636" height="161.127" fill="#17c2ec"/>
    </g>
    <g id="Group_182689" data-name="Group 182689" transform="translate(242.478 121.494)">
      <rect id="Rectangle_21054" data-name="Rectangle 21054" width="47.636" height="195.078" transform="translate(18.972)" fill="#d0f2fb"/>
      <rect id="Rectangle_21055" data-name="Rectangle 21055" width="47.636" height="195.078" fill="#17c2ec"/>
    </g>
    <g id="Group_182852" data-name="Group 182852" transform="translate(24.406 33.188)">
      <g id="Group_182743" data-name="Group 182743" transform="translate(13.607 165.078)">
        <g id="Group_182742" data-name="Group 182742" transform="translate(0 0)">
          <g id="Group_182694" data-name="Group 182694" transform="translate(0.008)">
            <g id="Group_182691" data-name="Group 182691">
              <g id="Group_182690" data-name="Group 182690">
                <path id="Path_28349" data-name="Path 28349" d="M58.873,272.642l4.443-3.651-6.786-8.36L49.98,265.9l.388.548c1.742,2.411,9.037,12.133,10.757,13.3C63.034,281.04,58.873,272.642,58.873,272.642Z" transform="translate(-49.98 -260.63)" fill="#17c2ec"/>
              </g>
            </g>
            <g id="Group_182693" data-name="Group 182693" transform="translate(0.122 3.286)" opacity="0.5">
              <g id="Group_182692" data-name="Group 182692">
                <path id="Path_28350" data-name="Path 28350" d="M52.536,269.91a3.75,3.75,0,0,0,.92-2.51,3.613,3.613,0,0,0-.981-2.449l-2.335,1.894Z" transform="translate(-50.14 -264.95)" fill="#fff"/>
              </g>
            </g>
          </g>
          <g id="Group_182696" data-name="Group 182696" transform="translate(0 5.135)" opacity="0.4">
            <g id="Group_182695" data-name="Group 182695">
              <path id="Path_28351" data-name="Path 28351" d="M60.78,278.456s1.3,3.073.639,3.1-8.4-9.524-11.449-14.035l.2-.137L59.1,278.593S60.361,277.992,60.78,278.456Z" transform="translate(-49.97 -267.38)" fill="#fff"/>
            </g>
          </g>
          <g id="Group_182699" data-name="Group 182699" transform="translate(0.099 4.998)">
            <g id="Group_182698" data-name="Group 182698">
              <g id="Group_182697" data-name="Group 182697">
                <path id="Path_28352" data-name="Path 28352" d="M50.1,267.2s.03.053.1.16c.091.129.2.274.312.434q.479.639,1.164,1.575c1,1.324,2.4,3.127,3.979,5.089s3.066,3.7,4.146,4.952c.51.578.943,1.073,1.293,1.468.137.145.251.274.358.4.084.091.129.137.129.129s-.038-.053-.114-.152q-.148-.183-.342-.411c-.342-.4-.768-.905-1.263-1.5-1.065-1.263-2.533-3.012-4.115-4.975s-3-3.758-4.009-5.066c-.472-.609-.875-1.126-1.2-1.544-.122-.152-.228-.289-.327-.418A.975.975,0,0,0,50.1,267.2Z" transform="translate(-50.1 -267.2)" fill="#263238"/>
              </g>
            </g>
          </g>
          <g id="Group_182702" data-name="Group 182702" transform="translate(8.998 16.003)">
            <g id="Group_182701" data-name="Group 182701">
              <g id="Group_182700" data-name="Group 182700">
                <path id="Path_28353" data-name="Path 28353" d="M61.8,282.118a4.251,4.251,0,0,1,.958-.3,4.583,4.583,0,0,1,1,.046,1.449,1.449,0,0,0-1.019-.175A1.43,1.43,0,0,0,61.8,282.118Z" transform="translate(-61.799 -281.666)" fill="#263238"/>
              </g>
            </g>
          </g>
          <g id="Group_182705" data-name="Group 182705" transform="translate(8.254 12.812)">
            <g id="Group_182704" data-name="Group 182704">
              <g id="Group_182703" data-name="Group 182703">
                <path id="Path_28354" data-name="Path 28354" d="M60.82,277.63c.008.038.243.038.533,0s.525-.091.517-.129-.243-.038-.533,0S60.812,277.592,60.82,277.63Z" transform="translate(-60.82 -277.472)" fill="#263238"/>
              </g>
            </g>
          </g>
          <g id="Group_182708" data-name="Group 182708" transform="translate(8.063 11.976)">
            <g id="Group_182707" data-name="Group 182707">
              <g id="Group_182706" data-name="Group 182706">
                <path id="Path_28355" data-name="Path 28355" d="M60.57,276.4c-.008.038.19.1.434.137s.449.046.456.008-.19-.1-.434-.137S60.57,276.363,60.57,276.4Z" transform="translate(-60.57 -276.374)" fill="#263238"/>
              </g>
            </g>
          </g>
          <g id="Group_182711" data-name="Group 182711" transform="translate(8.501 10.93)">
            <g id="Group_182710" data-name="Group 182710">
              <g id="Group_182709" data-name="Group 182709">
                <path id="Path_28356" data-name="Path 28356" d="M61.149,275c-.03.023.107.236.3.479s.373.426.4.4-.107-.236-.3-.479S61.179,274.977,61.149,275Z" transform="translate(-61.144 -274.997)" fill="#263238"/>
              </g>
            </g>
          </g>
          <g id="Group_182714" data-name="Group 182714" transform="translate(8.932 10.337)">
            <g id="Group_182713" data-name="Group 182713">
              <g id="Group_182712" data-name="Group 182712">
                <path id="Path_28357" data-name="Path 28357" d="M61.718,274.22a1.582,1.582,0,0,0,.723,1.05,3.447,3.447,0,0,0-.365-.525C61.885,274.456,61.756,274.2,61.718,274.22Z" transform="translate(-61.712 -274.219)" fill="#263238"/>
              </g>
            </g>
          </g>
          <g id="Group_182717" data-name="Group 182717" transform="translate(9.136 12.641)">
            <g id="Group_182716" data-name="Group 182716">
              <g id="Group_182715" data-name="Group 182715">
                <path id="Path_28358" data-name="Path 28358" d="M62.056,277.264a1.866,1.866,0,0,0,.441.533,3.754,3.754,0,0,0,.593.472,2,2,0,0,0,.4.221.377.377,0,0,0,.274,0,.288.288,0,0,0,.152-.259,1.262,1.262,0,0,0-1.278-.981,1.287,1.287,0,0,0-.5.114.472.472,0,0,0-.16.107,1.89,1.89,0,0,1,.654-.129,1.27,1.27,0,0,1,.669.221,1.1,1.1,0,0,1,.479.677c.008.137-.122.183-.251.137a2.178,2.178,0,0,1-.373-.2,4.633,4.633,0,0,1-.593-.434C62.239,277.455,62.071,277.257,62.056,277.264Z" transform="translate(-61.98 -277.247)" fill="#263238"/>
              </g>
            </g>
          </g>
          <g id="Group_182720" data-name="Group 182720" transform="translate(9.225 11.377)">
            <g id="Group_182719" data-name="Group 182719">
              <g id="Group_182718" data-name="Group 182718">
                <path id="Path_28359" data-name="Path 28359" d="M62.168,277.027a.682.682,0,0,0,.426-.243,1.139,1.139,0,0,0,.274-.464.684.684,0,0,0-.091-.669.266.266,0,0,0-.38.038.865.865,0,0,0-.167.289,2.18,2.18,0,0,0-.122.517.985.985,0,0,0,.03.487c.023,0,.008-.183.061-.472a2.386,2.386,0,0,1,.137-.487c.053-.167.213-.38.35-.266a.631.631,0,0,1,.061.54,1.117,1.117,0,0,1-.228.434A1.741,1.741,0,0,1,62.168,277.027Z" transform="translate(-62.097 -275.585)" fill="#263238"/>
              </g>
            </g>
          </g>
          <g id="Group_182723" data-name="Group 182723" transform="translate(2.525 3.316)">
            <g id="Group_182722" data-name="Group 182722">
              <g id="Group_182721" data-name="Group 182721">
                <path id="Path_28360" data-name="Path 28360" d="M53.29,264.99a7.911,7.911,0,0,1,.479.631,3.509,3.509,0,0,1,.54,1.8,3.453,3.453,0,0,1-.51,1.811c-.259.418-.487.624-.472.647.008.008.068-.038.167-.137a3.487,3.487,0,0,0,.38-.456,3.377,3.377,0,0,0,.563-1.856,3.327,3.327,0,0,0-.593-1.849,2.519,2.519,0,0,0-.388-.449C53.358,265.028,53.3,264.982,53.29,264.99Z" transform="translate(-53.289 -264.989)" fill="#263238"/>
              </g>
            </g>
          </g>
          <g id="Group_182726" data-name="Group 182726" transform="translate(3.233 1.361)">
            <g id="Group_182725" data-name="Group 182725">
              <g id="Group_182724" data-name="Group 182724">
                <path id="Path_28361" data-name="Path 28361" d="M57.7,262.42a18.382,18.382,0,0,0-1.78,1.316,19.106,19.106,0,0,0-1.7,1.422A18.857,18.857,0,0,0,56,263.835,19.9,19.9,0,0,0,57.7,262.42Z" transform="translate(-54.219 -262.419)" fill="#263238"/>
              </g>
            </g>
          </g>
          <g id="Group_182729" data-name="Group 182729" transform="translate(4.19 8.641)">
            <g id="Group_182728" data-name="Group 182728">
              <g id="Group_182727" data-name="Group 182727">
                <path id="Path_28362" data-name="Path 28362" d="M55.479,271.99a6.009,6.009,0,0,0,.867,1.316,5.787,5.787,0,0,0,1.088,1.141c.03-.023-.449-.548-.989-1.225S55.517,271.967,55.479,271.99Z" transform="translate(-55.478 -271.989)" fill="#263238"/>
              </g>
            </g>
          </g>
          <g id="Group_182732" data-name="Group 182732" transform="translate(2.56 6.998)">
            <g id="Group_182731" data-name="Group 182731">
              <g id="Group_182730" data-name="Group 182730">
                <path id="Path_28363" data-name="Path 28363" d="M53.643,269.83c-.038-.008-.076.137-.16.3s-.167.281-.145.3.167-.061.259-.243S53.681,269.83,53.643,269.83Z" transform="translate(-53.335 -269.83)" fill="#263238"/>
              </g>
            </g>
          </g>
          <g id="Group_182735" data-name="Group 182735" transform="translate(3.029 5.758)">
            <g id="Group_182734" data-name="Group 182734">
              <g id="Group_182733" data-name="Group 182733">
                <path id="Path_28364" data-name="Path 28364" d="M54.057,268.2c-.038-.008-.076.122-.1.281s0,.289.03.289.076-.122.1-.281S54.1,268.2,54.057,268.2Z" transform="translate(-53.952 -268.2)" fill="#263238"/>
              </g>
            </g>
          </g>
          <g id="Group_182738" data-name="Group 182738" transform="translate(2.765 4.581)">
            <g id="Group_182737" data-name="Group 182737">
              <g id="Group_182736" data-name="Group 182736">
                <path id="Path_28365" data-name="Path 28365" d="M53.609,266.658c-.023.03.068.137.122.3s.061.3.1.3.1-.16.023-.35S53.632,266.628,53.609,266.658Z" transform="translate(-53.605 -266.652)" fill="#263238"/>
              </g>
            </g>
          </g>
          <g id="Group_182741" data-name="Group 182741" transform="translate(2.397 3.824)">
            <g id="Group_182740" data-name="Group 182740">
              <g id="Group_182739" data-name="Group 182739">
                <path id="Path_28366" data-name="Path 28366" d="M53.151,265.659c-.038.008-.038.091-.008.183s.084.16.114.145.038-.091.008-.183S53.189,265.644,53.151,265.659Z" transform="translate(-53.121 -265.657)" fill="#263238"/>
              </g>
            </g>
          </g>
        </g>
      </g>
      <g id="Group_182797" data-name="Group 182797" transform="translate(96.007 151.902)">
        <g id="Group_182796" data-name="Group 182796" transform="translate(0 0)">
          <g id="Group_182748" data-name="Group 182748" transform="translate(0.145)">
            <g id="Group_182745" data-name="Group 182745">
              <g id="Group_182744" data-name="Group 182744">
                <path id="Path_28367" data-name="Path 28367" d="M169.411,249.472l.183-5.743-10.757-.418-.358,8.4.662.068c2.959.281,15.077,1.21,17.086.685C178.472,251.883,169.411,249.472,169.411,249.472Z" transform="translate(-158.48 -243.31)" fill="#17c2ec"/>
              </g>
            </g>
            <g id="Group_182747" data-name="Group 182747" transform="translate(0.008 5.238)" opacity="0.5">
              <g id="Group_182746" data-name="Group 182746">
                <path id="Path_28368" data-name="Path 28368" d="M162.385,253.425a3.728,3.728,0,0,0-1.286-2.343,3.647,3.647,0,0,0-2.488-.882l-.122,3Z" transform="translate(-158.49 -250.196)" fill="#fff"/>
              </g>
            </g>
          </g>
          <g id="Group_182750" data-name="Group 182750" transform="translate(0.145 7.493)" opacity="0.4">
            <g id="Group_182749" data-name="Group 182749">
              <path id="Path_28369" data-name="Path 28369" d="M173.831,253.16s3.165,1.05,2.746,1.559-12.7.03-18.1-.654l.03-.243,14.324.685C172.827,254.514,173.207,253.168,173.831,253.16Z" transform="translate(-158.48 -253.16)" fill="#fff"/>
            </g>
          </g>
          <g id="Group_182753" data-name="Group 182753" transform="translate(0 8.14)">
            <g id="Group_182752" data-name="Group 182752">
              <g id="Group_182751" data-name="Group 182751">
                <path id="Path_28370" data-name="Path 28370" d="M158.29,254.018a.7.7,0,0,0,.183.03c.16.015.335.03.533.053.532.046,1.179.1,1.955.16,1.651.122,3.933.266,6.451.365s4.808.145,6.458.152c.768,0,1.423,0,1.955-.008.2-.008.373-.008.533-.008a.092.092,0,1,0,0-.03c-.16-.008-.335-.008-.533-.015-.532-.008-1.187-.023-1.955-.038-1.651-.03-3.933-.084-6.458-.19s-4.8-.228-6.451-.327c-.768-.046-1.423-.084-1.955-.122-.2-.008-.373-.023-.533-.03A.708.708,0,0,0,158.29,254.018Z" transform="translate(-158.29 -254.01)" fill="#263238"/>
              </g>
            </g>
          </g>
          <g id="Group_182756" data-name="Group 182756" transform="translate(14.466 7.368)">
            <g id="Group_182755" data-name="Group 182755">
              <g id="Group_182754" data-name="Group 182754">
                <path id="Path_28371" data-name="Path 28371" d="M177.324,254.642a4.586,4.586,0,0,1,.4-.92,4.813,4.813,0,0,1,.692-.723,1.456,1.456,0,0,0-.806.647A1.4,1.4,0,0,0,177.324,254.642Z" transform="translate(-177.306 -252.996)" fill="#263238"/>
              </g>
            </g>
          </g>
          <g id="Group_182759" data-name="Group 182759" transform="translate(11.368 6.403)">
            <g id="Group_182758" data-name="Group 182758">
              <g id="Group_182757" data-name="Group 182757">
                <path id="Path_28372" data-name="Path 28372" d="M173.238,252.6c.03.023.19-.16.358-.4s.281-.456.251-.472-.19.16-.358.4S173.208,252.581,173.238,252.6Z" transform="translate(-173.233 -251.727)" fill="#263238"/>
              </g>
            </g>
          </g>
          <g id="Group_182762" data-name="Group 182762" transform="translate(10.518 6.21)">
            <g id="Group_182761" data-name="Group 182761">
              <g id="Group_182760" data-name="Group 182760">
                <path id="Path_28373" data-name="Path 28373" d="M172.119,252.049c.023.03.2-.076.388-.236s.327-.312.3-.335-.2.076-.388.236S172.1,252.018,172.119,252.049Z" transform="translate(-172.117 -251.473)" fill="#263238"/>
              </g>
            </g>
          </g>
          <g id="Group_182765" data-name="Group 182765" transform="translate(10.003 5.7)">
            <g id="Group_182764" data-name="Group 182764">
              <g id="Group_182763" data-name="Group 182763">
                <path id="Path_28374" data-name="Path 28374" d="M171.44,250.846a1.258,1.258,0,0,0,.555.091,1.211,1.211,0,0,0,.563-.038,2.451,2.451,0,0,0-1.118-.053Z" transform="translate(-171.44 -250.802)" fill="#263238"/>
              </g>
            </g>
          </g>
          <g id="Group_182768" data-name="Group 182768" transform="translate(9.843 5.01)">
            <g id="Group_182767" data-name="Group 182767">
              <g id="Group_182766" data-name="Group 182766">
                <path id="Path_28375" data-name="Path 28375" d="M171.23,249.907a1.574,1.574,0,0,0,1.263.145,53.405,53.405,0,0,1-1.263-.145Z" transform="translate(-171.229 -249.896)" fill="#263238"/>
              </g>
            </g>
          </g>
          <g id="Group_182771" data-name="Group 182771" transform="translate(11.768 5.434)">
            <g id="Group_182770" data-name="Group 182770">
              <g id="Group_182769" data-name="Group 182769">
                <path id="Path_28376" data-name="Path 28376" d="M173.76,251.371a1.9,1.9,0,0,0,.692.023,4.017,4.017,0,0,0,.746-.137,2.1,2.1,0,0,0,.426-.16.406.406,0,0,0,.183-.205.279.279,0,0,0-.091-.281,1.27,1.27,0,0,0-1.582.312,1.149,1.149,0,0,0-.243.449.375.375,0,0,0-.023.183,1.975,1.975,0,0,1,.335-.578,1.173,1.173,0,0,1,.609-.358,1.072,1.072,0,0,1,.822.091c.106.084.061.213-.068.281a2.242,2.242,0,0,1-.4.152,5.5,5.5,0,0,1-.723.16C174.026,251.364,173.768,251.349,173.76,251.371Z" transform="translate(-173.76 -250.454)" fill="#263238"/>
              </g>
            </g>
          </g>
          <g id="Group_182774" data-name="Group 182774" transform="translate(11.089 5.028)">
            <g id="Group_182773" data-name="Group 182773">
              <g id="Group_182772" data-name="Group 182772">
                <path id="Path_28377" data-name="Path 28377" d="M173.729,251.282a.686.686,0,0,0,.1-.479,1.115,1.115,0,0,0-.167-.51.69.69,0,0,0-.563-.373.282.282,0,0,0-.228.312.757.757,0,0,0,.106.312,2.279,2.279,0,0,0,.312.434.988.988,0,0,0,.388.3c.015-.015-.129-.129-.312-.358a2.425,2.425,0,0,1-.274-.426c-.091-.152-.145-.418.03-.441.175-.008.342.167.441.312a1.008,1.008,0,0,1,.175.456A2.878,2.878,0,0,1,173.729,251.282Z" transform="translate(-172.868 -249.92)" fill="#263238"/>
              </g>
            </g>
          </g>
          <g id="Group_182777" data-name="Group 182777" transform="translate(0.335 5.16)">
            <g id="Group_182776" data-name="Group 182776">
              <g id="Group_182775" data-name="Group 182775">
                <path id="Path_28378" data-name="Path 28378" d="M158.73,250.144c0,.023.312-.015.791.061a3.386,3.386,0,0,1,2.731,2.358c.145.464.152.776.175.776a.619.619,0,0,0,.008-.221,3.175,3.175,0,0,0-.091-.586,3.276,3.276,0,0,0-2.807-2.419,2.61,2.61,0,0,0-.593-.008A.735.735,0,0,0,158.73,250.144Z" transform="translate(-158.73 -250.093)" fill="#263238"/>
              </g>
            </g>
          </g>
          <g id="Group_182780" data-name="Group 182780" transform="translate(1.379 0.776)">
            <g id="Group_182779" data-name="Group 182779">
              <g id="Group_182778" data-name="Group 182778">
                <path id="Path_28379" data-name="Path 28379" d="M160.352,244.33a19.384,19.384,0,0,0-.183,2.206,21.894,21.894,0,0,0-.053,2.214,19.378,19.378,0,0,0,.183-2.206A17.579,17.579,0,0,0,160.352,244.33Z" transform="translate(-160.102 -244.33)" fill="#263238"/>
              </g>
            </g>
          </g>
          <g id="Group_182783" data-name="Group 182783" transform="translate(5.439 7.461)">
            <g id="Group_182782" data-name="Group 182782">
              <g id="Group_182781" data-name="Group 182781">
                <path id="Path_28380" data-name="Path 28380" d="M165.44,253.127a6.429,6.429,0,0,0,1.567.221,6.233,6.233,0,0,0,1.575-.061c0-.038-.707-.023-1.575-.068S165.448,253.089,165.44,253.127Z" transform="translate(-165.44 -253.117)" fill="#263238"/>
              </g>
            </g>
          </g>
          <g id="Group_182786" data-name="Group 182786" transform="translate(3.325 7.381)">
            <g id="Group_182785" data-name="Group 182785">
              <g id="Group_182784" data-name="Group 182784">
                <path id="Path_28381" data-name="Path 28381" d="M162.668,253.018c-.03.023.053.152.114.312s.1.312.137.3.061-.167-.015-.358S162.691,252.988,162.668,253.018Z" transform="translate(-162.662 -253.013)" fill="#263238"/>
              </g>
            </g>
          </g>
          <g id="Group_182789" data-name="Group 182789" transform="translate(2.574 6.36)">
            <g id="Group_182788" data-name="Group 182788">
              <g id="Group_182787" data-name="Group 182787">
                <path id="Path_28382" data-name="Path 28382" d="M161.678,251.678c-.023.023.038.137.145.259s.213.19.243.167-.038-.137-.145-.259S161.7,251.647,161.678,251.678Z" transform="translate(-161.674 -251.671)" fill="#263238"/>
              </g>
            </g>
          </g>
          <g id="Group_182792" data-name="Group 182792" transform="translate(1.46 5.813)">
            <g id="Group_182791" data-name="Group 182791">
              <g id="Group_182790" data-name="Group 182790">
                <path id="Path_28383" data-name="Path 28383" d="M160.21,251c.008.038.152.038.3.107s.266.152.3.129-.053-.175-.251-.251S160.194,250.973,160.21,251Z" transform="translate(-160.209 -250.952)" fill="#263238"/>
              </g>
            </g>
          </g>
          <g id="Group_182795" data-name="Group 182795" transform="translate(0.652 5.6)">
            <g id="Group_182794" data-name="Group 182794">
              <g id="Group_182793" data-name="Group 182793">
                <path id="Path_28384" data-name="Path 28384" d="M159.149,250.693c-.015.03.046.091.137.129s.167.046.183.008-.046-.091-.137-.129S159.164,250.663,159.149,250.693Z" transform="translate(-159.147 -250.671)" fill="#263238"/>
              </g>
            </g>
          </g>
        </g>
      </g>
      <path id="Path_28385" data-name="Path 28385" d="M165.5,60.493c-.959-.274-2.586,4.907-2.883,3.591s2.723-6.109,1.712-6.36c-1.324-.319-2.929,5.142-3.1,5.591s-.829.221-.654-.175c.251-.578,2.746-6.679,1.445-7.006-.723-.183-.928,1.141-.928,1.141s-1.909,5.88-2.518,5.705.388-3.667.814-4.823c.418-1.141.046-1.8-.616-1.567-.449.16-1.826,3.659-2.221,4.808s-1.407,4.321-2.183,2.351-2.107-3.2-2.7-3.279a.664.664,0,0,0-.449,1.172,7.741,7.741,0,0,1,1.141,1.8,4.966,4.966,0,0,1,.494,1.636A17.68,17.68,0,0,1,153,68.534L142.606,90.146,123.535,84.22,121.61,95.03s25.142,9.326,26.625,8.406c3.347-2.084,12.392-33.167,12.392-33.167h0a73.216,73.216,0,0,0,4.108-6.717C166.112,60.722,165.861,60.592,165.5,60.493Z" transform="translate(-53.506 -46.616)" fill="#ffbe9d"/>
      <path id="Path_28386" data-name="Path 28386" d="M46.4,141.556a7.737,7.737,0,0,1-1.377-1.628,4.883,4.883,0,0,1-.715-1.552,21.516,21.516,0,0,1-.525-2.518s6.565-19.588,8.3-22.616S77.747,101.6,77.747,101.6l-3-11.936s-21.9,8.8-30.246,15.4c-5.3,4.2-9.091,30.246-9.1,30.269a61.952,61.952,0,0,0-2.655,6.2c-.958,3-.692,3.1-.319,3.142.989.137,1.887-5.219,2.366-3.956s-1.856,6.428-.822,6.527c1.354.137,2.191-5.492,2.3-5.964.106-.456.791-.335.669.084-.167.6-1.8,6.991-.472,7.136.738.084.761-1.255.761-1.255s1.088-6.086,1.712-6c.639.091.122,3.689-.145,4.891-.259,1.187.205,1.788.822,1.468.426-.221,1.308-3.88,1.537-5.074s.8-4.473,1.833-2.632,2.526,2.875,3.127,2.875A.66.66,0,0,0,46.4,141.556Z" transform="translate(-32.083 -54.642)" fill="#ffbe9d"/>
      <g id="Group_182803" data-name="Group 182803" transform="translate(15.371 87.743)">
        <path id="Path_28387" data-name="Path 28387" d="M52.29,237.544l10.8,12.088L97.21,215.2a24.271,24.271,0,0,0,7-15.777l1.461-26.929L83.517,158.97l1.772,37.716a14.883,14.883,0,0,1-4.169,11.046Z" transform="translate(-52.29 -158.97)" fill="#263238"/>
        <g id="Group_182802" data-name="Group 182802" transform="translate(26.69 0.304)">
          <g id="Group_182799" data-name="Group 182799">
            <path id="Path_28388" data-name="Path 28388" d="M87.455,160.108c-.205.274-.966,17.42,12.757,19.566.822.129,5.774.631,5.774.631,15.564-.122,36.568-.715,36.568-.715l-3.484,47.857,16.53.061,5.028-51.1c1.1-14.157-10.84-16.591-17.42-16.721l-31.653-.32Z" transform="translate(-87.375 -159.37)" fill="#263238"/>
            <g id="Group_182798" data-name="Group 182798" transform="translate(7.808 0.738)">
              <path id="Path_28389" data-name="Path 28389" d="M106.023,160.34a3.259,3.259,0,0,1-.411,1.544,6.059,6.059,0,0,1-6.466,3.4,3.148,3.148,0,0,1-1.506-.533c.023-.061.586.167,1.544.251a6.288,6.288,0,0,0,6.177-3.256C105.833,160.918,105.962,160.325,106.023,160.34Z" transform="translate(-97.639 -160.34)" fill="#455a64"/>
            </g>
          </g>
          <g id="Group_182800" data-name="Group 182800" transform="translate(55.343 17.023)">
            <path id="Path_28390" data-name="Path 28390" d="M164.305,181.757a8.7,8.7,0,0,1-1.97,1.674,8.438,8.438,0,0,1-2.206,1.354,8.7,8.7,0,0,1,1.97-1.674A8.438,8.438,0,0,1,164.305,181.757Z" transform="translate(-160.126 -181.748)" fill="#455a64"/>
          </g>
          <g id="Group_182801" data-name="Group 182801" transform="translate(55.186 19.794)">
            <path id="Path_28391" data-name="Path 28391" d="M164.941,185.451a8.29,8.29,0,0,1-2.488.472,7.993,7.993,0,0,1-2.533.076,8.292,8.292,0,0,1,2.488-.472A8.566,8.566,0,0,1,164.941,185.451Z" transform="translate(-159.92 -185.39)" fill="#455a64"/>
          </g>
        </g>
      </g>
      <g id="Group_182827" data-name="Group 182827" transform="translate(39.782)">
        <g id="Group_182818" data-name="Group 182818" transform="translate(2.313 4.407)">
          <g id="Group_182817" data-name="Group 182817">
            <g id="Group_182804" data-name="Group 182804">
              <path id="Path_28392" data-name="Path 28392" d="M95.21,84.071h0a5.778,5.778,0,0,0,5.8-5.964c-.106-3.142-.221-6.322-.221-6.322s4.724-.784,4.732-5.515-.92-15.579-.92-15.579h0a16.434,16.434,0,0,0-16.492,2.244l-.692.548,2.062,25.286A5.776,5.776,0,0,0,95.21,84.071Z" transform="translate(-87.42 -49.42)" fill="#ffbe9d"/>
            </g>
            <g id="Group_182808" data-name="Group 182808" transform="translate(14.908 8.117)">
              <g id="Group_182805" data-name="Group 182805" transform="translate(0.386 0.392)">
                <path id="Path_28393" data-name="Path 28393" d="M107.757,61.8a.684.684,0,1,1,.966-.061A.678.678,0,0,1,107.757,61.8Z" transform="translate(-107.526 -60.606)" fill="#263238"/>
              </g>
              <g id="Group_182807" data-name="Group 182807">
                <g id="Group_182806" data-name="Group 182806">
                  <path id="Path_28394" data-name="Path 28394" d="M109.416,60.752c-.076.084-.54-.266-1.194-.266s-1.118.342-1.194.259c-.038-.038.038-.183.243-.342a1.605,1.605,0,0,1,1.9,0C109.378,60.569,109.454,60.714,109.416,60.752Z" transform="translate(-107.018 -60.09)" fill="#263238"/>
                </g>
              </g>
            </g>
            <g id="Group_182812" data-name="Group 182812" transform="translate(7.849 8.771)">
              <g id="Group_182809" data-name="Group 182809" transform="translate(0.427 0.387)">
                <path id="Path_28395" data-name="Path 28395" d="M99.342,61.559a.688.688,0,1,1-.943.236A.684.684,0,0,1,99.342,61.559Z" transform="translate(-98.299 -61.459)" fill="#263238"/>
              </g>
              <g id="Group_182811" data-name="Group 182811">
                <g id="Group_182810" data-name="Group 182810">
                  <path id="Path_28396" data-name="Path 28396" d="M100.136,61.612c-.076.084-.54-.266-1.194-.266s-1.118.342-1.194.259c-.038-.038.038-.183.243-.342a1.605,1.605,0,0,1,1.9,0C100.1,61.429,100.166,61.581,100.136,61.612Z" transform="translate(-97.738 -60.95)" fill="#263238"/>
                </g>
              </g>
            </g>
            <g id="Group_182814" data-name="Group 182814" transform="translate(12.456 8.649)">
              <g id="Group_182813" data-name="Group 182813">
                <path id="Path_28397" data-name="Path 28397" d="M104.247,66.45a3.066,3.066,0,0,1,1.05-.236c.167-.023.3-.061.312-.152a.9.9,0,0,0-.129-.487c-.175-.426-.35-.86-.525-1.316a17.781,17.781,0,0,1-1.149-3.469,17.6,17.6,0,0,1,1.5,3.332c.175.456.335.9.5,1.331a1.124,1.124,0,0,1,.1.707.43.43,0,0,1-.289.274.839.839,0,0,1-.289.038A3.414,3.414,0,0,1,104.247,66.45Z" transform="translate(-103.794 -60.789)" fill="#263238"/>
              </g>
            </g>
            <g id="Group_182815" data-name="Group 182815" transform="translate(10.768 15.047)">
              <path id="Path_28398" data-name="Path 28398" d="M101.609,69.2a7.816,7.816,0,0,0,3.2.9,1.794,1.794,0,0,1-2.115.738C101.275,70.333,101.609,69.2,101.609,69.2Z" transform="translate(-101.575 -69.2)" fill="#fff"/>
            </g>
            <g id="Group_182816" data-name="Group 182816" transform="translate(7.189 20.6)">
              <path id="Path_28399" data-name="Path 28399" d="M103.055,78.189A11.009,11.009,0,0,1,96.87,76.5s1.491,3.385,6.207,2.914Z" transform="translate(-96.87 -76.5)" fill="#a36957"/>
            </g>
          </g>
        </g>
        <path id="Path_28400" data-name="Path 28400" d="M86.5,56.364a5,5,0,0,0-.137-2.792,9.21,9.21,0,0,1-.5-2.777A2.427,2.427,0,0,1,87.3,48.559c.639-.213,1.354-.046,2-.236a4.392,4.392,0,0,0,1.666-1.187,13.508,13.508,0,0,1,6.8-3.4,3.777,3.777,0,0,1,2.214.114,1.569,1.569,0,0,1,.936,1.818,8.727,8.727,0,0,1,3-1.248,2.962,2.962,0,0,1,2.9,1.1,1.816,1.816,0,0,1-.844,2.678,2.332,2.332,0,0,1,1.742,2.837,3.415,3.415,0,0,1-2.67,2.351,6.649,6.649,0,0,1-3.674-.456c-1.171-.441-2.275-1.05-3.438-1.506a3.841,3.841,0,0,1-3.431,1.483,11.291,11.291,0,0,1-3.735-1.1,8.257,8.257,0,0,1-.335,4.024,11.857,11.857,0,0,0-.707,1.514,12.229,12.229,0,0,0-.122,2.244c-.068.753-.479,1.582-1.217,1.7a1.527,1.527,0,0,1-1.529-1.1,5.16,5.16,0,0,1-.122-2.024c.03-.669-.578-1.194-.243-1.8" transform="translate(-84.732 -43.627)" fill="#263238"/>
        <g id="Group_182822" data-name="Group 182822" transform="translate(0 13.603)">
          <g id="Group_182819" data-name="Group 182819">
            <path id="Path_28401" data-name="Path 28401" d="M87.362,62.172a.712.712,0,0,0-.73-.662c-.882.038-2.29.494-2.252,2.929a2.268,2.268,0,0,0,3.332,2.275C87.712,66.629,87.468,63.518,87.362,62.172Z" transform="translate(-84.379 -61.509)" fill="#ffbe9d"/>
          </g>
          <g id="Group_182821" data-name="Group 182821" transform="translate(0.91 1.153)">
            <g id="Group_182820" data-name="Group 182820">
              <path id="Path_28402" data-name="Path 28402" d="M87.138,65.76c-.015-.008-.061.046-.16.091a.591.591,0,0,1-.449.015,1.5,1.5,0,0,1-.715-1.331,1.984,1.984,0,0,1,.152-.867.7.7,0,0,1,.449-.472.3.3,0,0,1,.358.16c.046.1.03.167.046.175s.076-.061.046-.205a.4.4,0,0,0-.137-.213.446.446,0,0,0-.335-.084.86.86,0,0,0-.624.548,1.928,1.928,0,0,0-.19.974,1.565,1.565,0,0,0,.905,1.483.657.657,0,0,0,.555-.1C87.131,65.851,87.146,65.767,87.138,65.76Z" transform="translate(-85.575 -63.025)" fill="#a36957"/>
            </g>
          </g>
        </g>
        <g id="Group_182823" data-name="Group 182823" transform="translate(9.23 11.121)">
          <path id="Path_28403" data-name="Path 28403" d="M99.706,58.454c-.015.114-.753.061-1.62.274-.867.2-1.5.571-1.567.479-.068-.076.525-.639,1.476-.867A2.16,2.16,0,0,1,99.706,58.454Z" transform="translate(-96.513 -58.246)" fill="#263238"/>
        </g>
        <g id="Group_182824" data-name="Group 182824" transform="translate(14.171 22.474)">
          <path id="Path_28404" data-name="Path 28404" d="M103.177,75.3c-.106,0-.183-.479-.167-1.073s.122-1.057.228-1.057.183.479.167,1.073S103.283,75.308,103.177,75.3Z" transform="translate(-103.007 -73.17)" fill="#263238"/>
        </g>
        <g id="Group_182825" data-name="Group 182825" transform="translate(15.086 22.474)">
          <path id="Path_28405" data-name="Path 28405" d="M104.408,74.965c-.106,0-.2-.4-.2-.9s.091-.9.2-.9.2.4.2.9S104.514,74.965,104.408,74.965Z" transform="translate(-104.21 -73.17)" fill="#263238"/>
        </g>
        <g id="Group_182826" data-name="Group 182826" transform="translate(16.04 22.405)">
          <path id="Path_28406" data-name="Path 28406" d="M105.743,74.677c-.107.008-.228-.342-.266-.784s.023-.806.129-.814.228.342.266.784S105.857,74.67,105.743,74.677Z" transform="translate(-105.465 -73.08)" fill="#263238"/>
        </g>
      </g>
      <g id="Group_182850" data-name="Group 182850" transform="translate(17.927 31.646)">
        <g id="Group_182829" data-name="Group 182829">
          <g id="Group_182828" data-name="Group 182828">
            <path id="Path_28407" data-name="Path 28407" d="M119.307,94.2c-5.34-2.275-9.1-3.583-12.035-5.188-9.144-4.975-11.357-3.568-13.427-3.682a20.008,20.008,0,0,1-12.042.86h0c-5.3.609-8.4,3.1-14.317,5.477L55.65,98.017l8.543,11.89,10.954-3.659c.905,4.564,1.126,8.208,1.734,13.754l1.164,22.38,33.2-.51-3.37-21.27-2.016-16.774,9.76,4.024L119.307,94.2" transform="translate(-55.65 -85.228)" fill="#4a6aff"/>
          </g>
        </g>
        <g id="Group_182830" data-name="Group 182830" transform="translate(14.605 3.949)">
          <path id="Path_28408" data-name="Path 28408" d="M112.315,90.42c.008-.008.038.023.091.084a1.074,1.074,0,0,1,.205.3,1.548,1.548,0,0,1-.091,1.354A3.074,3.074,0,0,1,110.9,93.6a10.618,10.618,0,0,1-2.837.411,7.437,7.437,0,0,0-1.6.259,5.8,5.8,0,0,0-1.544.784c-.989.707-1.856,1.712-2.914,2.647a6.421,6.421,0,0,1-1.849,1.187,4.2,4.2,0,0,1-2.3.236c-1.575-.274-2.9-1.24-4.336-1.887a8.261,8.261,0,0,0-4.488-.609,36.2,36.2,0,0,0-4.268.844,18.468,18.468,0,0,1-3.948.555,7.363,7.363,0,0,1-3.416-.692,4.906,4.906,0,0,1-2.054-2.016,3.885,3.885,0,0,1-.494-2.115,2.7,2.7,0,0,1,.449-1.293c.2-.243.312-.365.319-.35A3.2,3.2,0,0,0,75,93.219a3.742,3.742,0,0,0,.533,1.993,4.8,4.8,0,0,0,1.985,1.871,7.173,7.173,0,0,0,3.286.609,18.688,18.688,0,0,0,3.872-.586,36.474,36.474,0,0,1,4.306-.875,8.625,8.625,0,0,1,4.694.639c1.483.669,2.784,1.613,4.237,1.864a3.753,3.753,0,0,0,2.092-.205,6.3,6.3,0,0,0,1.742-1.111c1.035-.9,1.925-1.909,2.967-2.64a5.852,5.852,0,0,1,1.651-.814,7.761,7.761,0,0,1,1.666-.251,10.693,10.693,0,0,0,2.784-.335,2.937,2.937,0,0,0,1.559-1.308,1.5,1.5,0,0,0,.16-1.255C112.421,90.549,112.292,90.435,112.315,90.42Z" transform="translate(-74.849 -90.418)" fill="#fff"/>
        </g>
        <g id="Group_182831" data-name="Group 182831" transform="translate(3.484 11.329)">
          <path id="Path_28409" data-name="Path 28409" d="M106.284,108.336a2.449,2.449,0,0,1-.312.449,6.022,6.022,0,0,1-1.149,1.065,6.412,6.412,0,0,1-2.267,1.019,6.191,6.191,0,0,1-3.294-.1c-1.179-.358-2.328-1.088-3.682-1.4a6.229,6.229,0,0,0-4.245.882,18.52,18.52,0,0,1-4.625,2.031,10.474,10.474,0,0,1-5.424-.259,10.044,10.044,0,0,1-2.5-1.217c-.761-.51-1.445-1.08-2.13-1.605a10.356,10.356,0,0,0-2.138-1.324,8.656,8.656,0,0,0-2.32-.616,44.4,44.4,0,0,0-4.519-.2,12.538,12.538,0,0,1-3.941-.654,5.457,5.457,0,0,1-2.647-1.947,4.544,4.544,0,0,1-.852-2.335,3.031,3.031,0,0,1,.281-1.544,2.02,2.02,0,0,1,.289-.464c.023.015-.091.167-.221.494a3.133,3.133,0,0,0-.2,1.5,4.5,4.5,0,0,0,.882,2.221,5.258,5.258,0,0,0,2.564,1.818,12.354,12.354,0,0,0,3.849.586,41.337,41.337,0,0,1,4.557.167,9.021,9.021,0,0,1,2.419.631,10.5,10.5,0,0,1,2.221,1.362c.7.525,1.377,1.1,2.115,1.582a9.888,9.888,0,0,0,7.622,1.415,18.423,18.423,0,0,0,4.541-1.978,9.765,9.765,0,0,1,2.221-.852,5.041,5.041,0,0,1,2.259-.023c1.43.35,2.564,1.1,3.7,1.453a6.034,6.034,0,0,0,3.157.152,6.533,6.533,0,0,0,2.229-.928A8.231,8.231,0,0,0,106.284,108.336Z" transform="translate(-60.23 -100.12)" fill="#fff"/>
        </g>
        <g id="Group_182832" data-name="Group 182832" transform="translate(51.622 14.516)">
          <path id="Path_28410" data-name="Path 28410" d="M133.559,104.325c.015.068-.631.167-1.529.669a20.8,20.8,0,0,0-3.187,2.472,8.118,8.118,0,0,1-3.629,1.94,2.674,2.674,0,0,1-1.7-.137,8.486,8.486,0,0,0,1.643-.137,8.921,8.921,0,0,0,3.438-1.97,15.729,15.729,0,0,1,3.317-2.411A3.167,3.167,0,0,1,133.559,104.325Z" transform="translate(-123.509 -104.31)" fill="#fff"/>
        </g>
        <g id="Group_182833" data-name="Group 182833" transform="translate(21.145 31.746)">
          <path id="Path_28411" data-name="Path 28411" d="M112.95,128.306a.867.867,0,0,1-.114.312,2.065,2.065,0,0,1-.639.707,3.954,3.954,0,0,1-3.4.388c-1.43-.388-2.929-1.346-4.831-1.453a16.522,16.522,0,0,0-6.071.913,39.02,39.02,0,0,1-6.063,1.6,9.464,9.464,0,0,1-5.1-.555A6.139,6.139,0,0,1,84,128.1a3.777,3.777,0,0,1-.456-.829,1,1,0,0,1-.1-.312c.038-.015.19.411.685,1.05a6.308,6.308,0,0,0,2.716,1.947,9.385,9.385,0,0,0,4.937.456,41.142,41.142,0,0,0,6-1.62,16.492,16.492,0,0,1,6.223-.9,8.979,8.979,0,0,1,2.685.677c.8.327,1.514.662,2.2.867a3.824,3.824,0,0,0,3.233-.251A2.741,2.741,0,0,0,112.95,128.306Z" transform="translate(-83.446 -126.959)" fill="#fff"/>
        </g>
        <g id="Group_182835" data-name="Group 182835" transform="translate(25.029 15.522)">
          <path id="Path_28413" data-name="Path 28413" d="M91.358,109.084A9.212,9.212,0,0,1,89.9,107.4a9.606,9.606,0,0,1-1.346-1.765,4.948,4.948,0,0,1,1.651,1.514A4.864,4.864,0,0,1,91.358,109.084Z" transform="translate(-88.552 -105.632)" fill="#fff"/>
        </g>
        <g id="Group_182836" data-name="Group 182836" transform="translate(43.834 14.016)">
          <path id="Path_28414" data-name="Path 28414" d="M116.443,103.658a6.869,6.869,0,0,1-1.438,1.8,6.732,6.732,0,0,1-1.727,1.529,6.869,6.869,0,0,1,1.438-1.8A6.731,6.731,0,0,1,116.443,103.658Z" transform="translate(-113.272 -103.652)" fill="#fff"/>
        </g>
        <g id="Group_182837" data-name="Group 182837" transform="translate(54.698 10.71)">
          <path id="Path_28415" data-name="Path 28415" d="M130.548,101.568a4.546,4.546,0,0,1-1.613-.966c-.829-.624-1.445-1.194-1.377-1.286a4.546,4.546,0,0,1,1.613.966C129.993,100.907,130.609,101.477,130.548,101.568Z" transform="translate(-127.553 -99.306)" fill="#fff"/>
        </g>
        <g id="Group_182838" data-name="Group 182838" transform="translate(8.84 10.606)">
          <path id="Path_28416" data-name="Path 28416" d="M68.442,99.17a2.685,2.685,0,0,1-.205,1.75c-.335.936-.867,1.544-.951,1.483a7.9,7.9,0,0,1,.578-1.613A7.7,7.7,0,0,1,68.442,99.17Z" transform="translate(-67.271 -99.17)" fill="#fff"/>
        </g>
        <g id="Group_182839" data-name="Group 182839" transform="translate(25.817 41.715)">
          <path id="Path_28417" data-name="Path 28417" d="M92.191,143.332c-.084.068-.738-.609-1.453-1.506a5.756,5.756,0,0,1-1.141-1.757c.084-.068.738.609,1.453,1.514A5.585,5.585,0,0,1,92.191,143.332Z" transform="translate(-89.588 -140.064)" fill="#fff"/>
        </g>
        <g id="Group_182840" data-name="Group 182840" transform="translate(34.538 40.64)">
          <path id="Path_28418" data-name="Path 28418" d="M104.436,138.658a7.1,7.1,0,0,1-1.552,1.765,6.784,6.784,0,0,1-1.826,1.476,7.105,7.105,0,0,1,1.552-1.765A6.784,6.784,0,0,1,104.436,138.658Z" transform="translate(-101.052 -138.651)" fill="#fff"/>
        </g>
        <g id="Group_182841" data-name="Group 182841" transform="translate(46.233 41.267)">
          <path id="Path_28419" data-name="Path 28419" d="M119.9,142.012a5.915,5.915,0,0,1-1.849-1.1,6.222,6.222,0,0,1-1.62-1.423,11.562,11.562,0,0,1,3.469,2.526Z" transform="translate(-116.425 -139.476)" fill="#fff"/>
        </g>
        <g id="Group_182842" data-name="Group 182842" transform="translate(26.577 27.369)">
          <path id="Path_28420" data-name="Path 28420" d="M95.024,121.217a8.7,8.7,0,0,1-2.115,1.453,8.085,8.085,0,0,1-2.32,1.1,8.473,8.473,0,0,1,2.122-1.453A8.626,8.626,0,0,1,95.024,121.217Z" transform="translate(-90.587 -121.206)" fill="#fff"/>
        </g>
        <g id="Group_182843" data-name="Group 182843" transform="translate(38.513 25.833)">
          <path id="Path_28421" data-name="Path 28421" d="M109.17,121.616a3.42,3.42,0,0,1-2.876-2.427c.106-.053.54.685,1.331,1.339C108.4,121.2,109.2,121.509,109.17,121.616Z" transform="translate(-106.277 -119.186)" fill="#fff"/>
        </g>
        <g id="Group_182844" data-name="Group 182844" transform="translate(23.869 4.78)">
          <path id="Path_28422" data-name="Path 28422" d="M90.293,91.533c.046.1-.647.51-1.552.92a4.214,4.214,0,0,1-1.712.563c-.046-.1.647-.51,1.552-.92A4.215,4.215,0,0,1,90.293,91.533Z" transform="translate(-87.027 -91.512)" fill="#fff"/>
        </g>
        <g id="Group_182845" data-name="Group 182845" transform="translate(34.26 4.656)">
          <path id="Path_28423" data-name="Path 28423" d="M104.265,93.251a10.45,10.45,0,0,1-3.575-1.887,5.192,5.192,0,0,1,1.879.768A5.471,5.471,0,0,1,104.265,93.251Z" transform="translate(-100.687 -91.348)" fill="#fff"/>
        </g>
        <g id="Group_182846" data-name="Group 182846" transform="translate(43.292 3.44)">
          <path id="Path_28424" data-name="Path 28424" d="M116.143,89.841a4.364,4.364,0,0,1-1.772.373,4.265,4.265,0,0,1-1.811-.023,4.364,4.364,0,0,1,1.772-.373A4.125,4.125,0,0,1,116.143,89.841Z" transform="translate(-112.56 -89.749)" fill="#fff"/>
        </g>
        <g id="Group_182848" data-name="Group 182848" transform="translate(40.05 52.612)">
          <path id="Path_28426" data-name="Path 28426" d="M111.54,154.4c.076.068-.472.8-1.4,1.43a3.481,3.481,0,0,1-1.841.784c-.046-.106.738-.51,1.62-1.111S111.456,154.314,111.54,154.4Z" transform="translate(-108.298 -154.389)" fill="#fff"/>
        </g>
        <g id="Group_182834" data-name="Group 182834" transform="translate(21.802 46.211)">
          <path id="Path_28412" data-name="Path 28412" d="M116.45,146.359a1.157,1.157,0,0,1-.015.358,2.128,2.128,0,0,1-.434.943,3.932,3.932,0,0,1-3.492,1.255,11.3,11.3,0,0,1-2.526-.685,12.121,12.121,0,0,0-2.822-.776c-2.054-.274-4.29.441-6.55,1.248-1.141.4-2.259.8-3.378,1.08a13.22,13.22,0,0,1-3.3.4,13.83,13.83,0,0,1-5.47-1.194,13.028,13.028,0,0,1-3.187-2.016,7.626,7.626,0,0,1-.738-.715,1.5,1.5,0,0,1-.228-.274,16.467,16.467,0,0,0,4.268,2.746,13.889,13.889,0,0,0,5.355,1.088,12.906,12.906,0,0,0,3.21-.411c1.1-.281,2.2-.669,3.34-1.073,2.259-.806,4.564-1.544,6.725-1.24a12.249,12.249,0,0,1,2.891.829,11.8,11.8,0,0,0,2.45.715,3.867,3.867,0,0,0,3.34-1.08A2.637,2.637,0,0,0,116.45,146.359Z" transform="translate(-84.309 -145.975)" fill="#fff"/>
        </g>
        <g id="Group_182847" data-name="Group 182847" transform="translate(26.239 52.77)">
          <path id="Path_28425" data-name="Path 28425" d="M93.054,156.813a4.434,4.434,0,0,1-1.575-.943c-.8-.609-1.4-1.171-1.331-1.263a4.434,4.434,0,0,1,1.575.943C92.522,156.159,93.123,156.729,93.054,156.813Z" transform="translate(-90.143 -154.596)" fill="#fff"/>
        </g>
        <g id="Group_182849" data-name="Group 182849" transform="translate(49.101 53.765)">
          <path id="Path_28427" data-name="Path 28427" d="M123.615,157.613a4.677,4.677,0,0,1-1.8-.669c-.943-.464-1.674-.92-1.62-1.019a4.677,4.677,0,0,1,1.8.669A4.755,4.755,0,0,1,123.615,157.613Z" transform="translate(-120.196 -155.905)" fill="#fff"/>
        </g>
      </g>
      <g id="Group_182851" data-name="Group 182851" transform="translate(49.581 95.236)">
        <path id="Path_28428" data-name="Path 28428" d="M151.385,177.774a3.232,3.232,0,0,1-.586.076c-.388.038-.958.084-1.689.122-1.468.091-3.6.183-6.23.274-5.264.175-12.529.35-20.562.4-4.017.008-7.843.015-11.335-.152a17,17,0,0,1-8.756-2.883,13.114,13.114,0,0,1-4.138-4.648,9.934,9.934,0,0,1-.829-2.138c.053-.015.274.776.966,2.062a13.4,13.4,0,0,0,4.161,4.488,16.917,16.917,0,0,0,8.619,2.746c3.469.145,7.3.129,11.312.122,8.026-.046,15.3-.175,20.562-.274,2.6-.061,4.716-.107,6.23-.145.707-.023,1.27-.038,1.7-.046A3.75,3.75,0,0,1,151.385,177.774Z" transform="translate(-97.26 -168.82)" fill="#455a64"/>
      </g>
    </g>
  </g>
</svg>
