<svg xmlns="http://www.w3.org/2000/svg" width="34.762" height="34.762" viewBox="0 0 34.762 34.762">
  <path id="Icon_awesome-key" data-name="Icon awesome-key" d="M32.762,11.262A11.268,11.268,0,0,1,19.4,22.328l-1.536,1.729a1.536,1.536,0,0,1-1.148.515H14.333v2.56A1.536,1.536,0,0,1,12.8,28.667h-2.56v2.56A1.536,1.536,0,0,1,8.7,32.762H1.536A1.536,1.536,0,0,1,0,31.226V26.232a1.536,1.536,0,0,1,.45-1.086L10.8,14.792a11.263,11.263,0,1,1,21.959-3.53ZM21.5,8.191a3.071,3.071,0,1,0,3.071-3.071A3.071,3.071,0,0,0,21.5,8.191Z" transform="translate(1 1)" fill="none" stroke="#17c2ec" stroke-width="2"/>
</svg>
