<svg xmlns="http://www.w3.org/2000/svg" width="374.709" height="268.677" viewBox="0 0 374.709 268.677">
  <g id="Group_179001" data-name="Group 179001" transform="translate(-88.423 -46.911)">
    <g id="Background_Complete" data-name="Background Complete" transform="translate(120.635 46.911)">
      <g id="Group_178626" data-name="Group 178626" transform="translate(0 124.384)">
        <g id="Group_178619" data-name="Group 178619" transform="translate(0.001 0.001)">
          <rect id="Rectangle_20947" data-name="Rectangle 20947" width="71.823" height="106.557" transform="translate(0 67.849) rotate(-70.852)" fill="#ebebeb"/>
        </g>
        <g id="Group_178621" data-name="Group 178621" transform="translate(23.558)">
          <g id="Group_178620" data-name="Group 178620">
            <path id="Path_27272" data-name="Path 27272" d="M274.393,272.121a7.42,7.42,0,0,1-1.251.577l-3.656,1.483-13.519,5.29-44.839,17.157-.369.141-.212-.336-.511-.811-25.843-41.228-7.737-12.553-2.063-3.439a7.491,7.491,0,0,1-.663-1.234,7.618,7.618,0,0,1,.828,1.13l2.216,3.342,8,12.389c6.723,10.589,15.919,25.073,26.082,41.077.175.278.35.555.511.811l-.581-.194,44.941-16.887,13.628-5,3.719-1.314A7.379,7.379,0,0,1,274.393,272.121Z" transform="translate(-173.729 -237.168)" fill="#e0e0e0"/>
          </g>
        </g>
        <g id="Group_178623" data-name="Group 178623" transform="translate(0 38.873)">
          <g id="Group_178622" data-name="Group 178622">
            <path id="Path_27273" data-name="Path 27273" d="M137.7,325.605c-.137-.229,10.663-6.9,24.117-14.9s24.478-14.3,24.614-14.07-10.66,6.9-24.119,14.9S137.833,325.835,137.7,325.605Z" transform="translate(-137.695 -296.628)" fill="#e0e0e0"/>
          </g>
        </g>
        <g id="Group_178625" data-name="Group 178625" transform="translate(82.476 49.648)">
          <g id="Group_178624" data-name="Group 178624">
            <path id="Path_27274" data-name="Path 27274" d="M263.862,313.11c.253-.086,4.527,11.744,9.545,26.419s8.883,26.648,8.63,26.735-4.525-11.741-9.546-26.422S263.609,313.2,263.862,313.11Z" transform="translate(-263.85 -313.109)" fill="#e0e0e0"/>
          </g>
        </g>
      </g>
      <g id="Group_178635" data-name="Group 178635" transform="translate(221.002 106.765)">
        <g id="Group_178630" data-name="Group 178630">
          <g id="Group_178627" data-name="Group 178627" transform="translate(0 0.001)">
            <rect id="Rectangle_20948" data-name="Rectangle 20948" width="101.024" height="68.094" transform="translate(0 16.877) rotate(-9.617)" fill="#e0e0e0"/>
          </g>
          <g id="Group_178629" data-name="Group 178629">
            <g id="Group_178628" data-name="Group 178628">
              <path id="Path_27275" data-name="Path 27275" d="M575.344,210.219a7.051,7.051,0,0,1-.776,1.051l-2.362,2.9-8.822,10.564-29.437,34.716-.242.286-.329-.182-.8-.441-40.286-22.473-12.157-6.9-3.283-1.917a7.171,7.171,0,0,1-1.115-.723,7.277,7.277,0,0,1,1.2.562l3.366,1.766,12.3,6.648,40.417,22.239.794.441-.571.1,29.645-34.538,9.043-10.377,2.491-2.788A7.029,7.029,0,0,1,575.344,210.219Z" transform="translate(-475.739 -210.218)" fill="#ebebeb"/>
            </g>
          </g>
        </g>
        <g id="Group_178632" data-name="Group 178632" transform="translate(11.37 37.703)">
          <g id="Group_178631" data-name="Group 178631">
            <path id="Path_27276" data-name="Path 27276" d="M493.137,314.2c-.218-.129,5.713-10.6,13.245-23.387s13.819-23.052,14.037-22.924-5.712,10.6-13.247,23.389S493.355,314.328,493.137,314.2Z" transform="translate(-493.131 -267.888)" fill="#ebebeb"/>
          </g>
        </g>
        <g id="Group_178634" data-name="Group 178634" transform="translate(71.622 31.252)">
          <g id="Group_178633" data-name="Group 178633">
            <path id="Path_27277" data-name="Path 27277" d="M585.295,258.023c.171-.188,9.12,7.694,19.986,17.6s19.54,18.094,19.37,18.281-9.118-7.693-19.988-17.6S585.124,258.21,585.295,258.023Z" transform="translate(-585.292 -258.02)" fill="#ebebeb"/>
          </g>
        </g>
      </g>
      <g id="Group_178644" data-name="Group 178644" transform="translate(203.086 0)">
        <g id="Group_178636" data-name="Group 178636">
          <rect id="Rectangle_20949" data-name="Rectangle 20949" width="49.028" height="72.738" transform="matrix(0.366, -0.931, 0.931, 0.366, 0, 45.627)" fill="#ebebeb"/>
        </g>
        <g id="Group_178639" data-name="Group 178639" transform="translate(17.94 0.633)">
          <g id="Group_178638" data-name="Group 178638">
            <g id="Group_178637" data-name="Group 178637">
              <path id="Path_27278" data-name="Path 27278" d="M543.471,74.5a5,5,0,0,1-.869.36l-2.534.911L530.7,79,499.644,89.467l-.256.086-.135-.235-.326-.567L482.439,59.918l-4.931-8.776-1.311-2.4a5.147,5.147,0,0,1-.418-.86,5.233,5.233,0,0,1,.533.794l1.419,2.34,5.112,8.671L499.5,88.422l.326.567-.39-.148,31.119-10.278,9.433-3.037,2.573-.794A5.136,5.136,0,0,1,543.471,74.5Z" transform="translate(-475.776 -47.88)" fill="#e0e0e0"/>
            </g>
          </g>
        </g>
        <g id="Group_178641" data-name="Group 178641" transform="translate(0 27.841)">
          <g id="Group_178640" data-name="Group 178640">
            <path id="Path_27279" data-name="Path 27279" d="M448.336,107.916c-.087-.161,7.463-4.414,16.861-9.5s17.09-9.078,17.177-8.918-7.461,4.412-16.863,9.5S448.422,108.077,448.336,107.916Z" transform="translate(-448.335 -89.496)" fill="#e0e0e0"/>
          </g>
        </g>
        <g id="Group_178643" data-name="Group 178643" transform="translate(56.755 36.123)">
          <g id="Group_178642" data-name="Group 178642">
            <path id="Path_27280" data-name="Path 27280" d="M535.156,102.164c.174-.052,2.763,8.135,5.781,18.283s5.324,18.421,5.148,18.473-2.763-8.133-5.781-18.285S534.982,102.216,535.156,102.164Z" transform="translate(-535.147 -102.164)" fill="#e0e0e0"/>
          </g>
        </g>
      </g>
    </g>
    <g id="Floor" transform="translate(88.423 314.893)">
      <g id="Group_178646" data-name="Group 178646">
        <g id="Group_178645" data-name="Group 178645">
          <path id="Path_27281" data-name="Path 27281" d="M463.132,456.987c0,.094-83.888.17-187.345.17-103.494,0-187.364-.076-187.364-.17s83.87-.171,187.364-.171C379.244,456.816,463.132,456.893,463.132,456.987Z" transform="translate(-88.423 -456.816)" fill="#263238"/>
        </g>
      </g>
    </g>
    <g id="Character" transform="translate(97.601 88.587)">
      <g id="Group_178918" data-name="Group 178918">
        <g id="Group_178668" data-name="Group 178668" transform="translate(0 23.469)">
          <g id="Group_178665" data-name="Group 178665">
            <g id="Group_178647" data-name="Group 178647" transform="translate(0 4.138)">
              <path id="Path_27282" data-name="Path 27282" d="M111.771,173.526l9.36-3.315-4.017-5.365a19.986,19.986,0,0,1-.288-3.59,5.441,5.441,0,0,1,.31-1.816,8.323,8.323,0,0,1,.975-2.08.713.713,0,0,0-.633-1.19c-.621.165-1.882,1.653-2.44,3.862s-2.07-1.041-2.643-2.216-2.515-4.726-3.016-4.837c-.734-.161-1.042.6-.443,1.755s2.151,4.765,1.516,5.037-3.459-5.751-3.459-5.751-.4-1.385-1.141-1.094c-1.342.524,2.141,6.7,2.487,7.281.241.4-.439.723-.674.277s-2.686-6.07-4.058-5.55c-1.053.4,2.818,5.108,2.678,6.553s-2.573-3.869-3.562-3.447c-.369.158-.622.326,1.216,3.177a47.481,47.481,0,0,0,2.949,3.851h0l4.883,8.456" transform="translate(-102.461 -152.887)" fill="#ffbe9d"/>
            </g>
            <g id="Group_178650" data-name="Group 178650" transform="translate(9.309 13.614)">
              <g id="Group_178649" data-name="Group 178649">
                <g id="Group_178648" data-name="Group 178648">
                  <path id="Path_27283" data-name="Path 27283" d="M200.845,189.978s-4.612-10.779-7.8-16.015c-3-4.927-6.973-5.728-9.091-5.878a14.559,14.559,0,0,0-2.7-.551l-17.32-.148a16.4,16.4,0,0,0-10.337,3.79c-.8.656-6.785,7.6-14.723,17.483l-13.894-15.013-8.283,4.9s9,31.062,20.285,28.929a28.113,28.113,0,0,0,11.92-5.921l8.79-7.085.2,1.174c.178,1.432.624,3.747.96,5.15,1.063,4.436,1.654,10.282-.629,14.154,0,0-3.133,2.4-.641,5.031h32.586s4.617-3.13.4-6.611l-2.641-6.612,1.707-8.066.639-3.23,2.866,4.916s5.678,7.143,11.58,6.264c7.1-1.057,11.209-13.981,4.8-31.07l-7.714,2.346Z" transform="translate(-116.701 -167.383)" fill="#4a6aff"/>
                </g>
              </g>
            </g>
            <g id="Group_178651" data-name="Group 178651" transform="translate(9.309 19.879)" opacity="0.4">
              <path id="Path_27284" data-name="Path 27284" d="M116.7,181.862l.818,2.592,9.2-5.614-1.736-1.876Z" transform="translate(-116.701 -176.964)"/>
            </g>
            <g id="Group_178653" data-name="Group 178653" transform="translate(50.487 41.631)" opacity="0.2">
              <g id="Group_178652" data-name="Group 178652">
                <path id="Path_27285" data-name="Path 27285" d="M180.038,229.783a10.3,10.3,0,0,0,6.862-4.226,10.728,10.728,0,0,0,1.947-8,3.56,3.56,0,0,0-1.359-2.55c-1.028-.643-2.43-.313-3.5-.883a7.065,7.065,0,0,1-1.944-2.2c-.6-.783-1.451-2-2.357-1.606,0,0,1.094,5.753,1.572,8.315a19.611,19.611,0,0,1-.266,8.931A11.58,11.58,0,0,1,180.038,229.783Z" transform="translate(-179.687 -210.236)"/>
              </g>
            </g>
            <g id="Group_178655" data-name="Group 178655" transform="translate(30.15 34.891)">
              <g id="Group_178654" data-name="Group 178654">
                <path id="Path_27286" data-name="Path 27286" d="M148.608,205.233a8,8,0,0,1,.483-2.7,16.1,16.1,0,0,1,.824-2.605,8.044,8.044,0,0,1-.483,2.7A16.2,16.2,0,0,1,148.608,205.233Z" transform="translate(-148.579 -199.928)" fill="#263238"/>
              </g>
            </g>
            <g id="Group_178657" data-name="Group 178657" transform="translate(31.422 34.885)">
              <g id="Group_178656" data-name="Group 178656">
                <path id="Path_27287" data-name="Path 27287" d="M151.343,203.794a11.119,11.119,0,0,1-.781-3.876,11.134,11.134,0,0,1,.781,3.876Z" transform="translate(-150.525 -199.918)" fill="#263238"/>
              </g>
            </g>
            <g id="Group_178658" data-name="Group 178658" transform="translate(82.556 0.706)">
              <path id="Path_27288" data-name="Path 27288" d="M240.57,147.638l-11.831,19.172,9.311,2.59,10.328-15.928Z" transform="translate(-228.739 -147.638)" fill="#455a64"/>
            </g>
            <g id="Group_178659" data-name="Group 178659" transform="translate(89.004 5.75)">
              <path id="Path_27289" data-name="Path 27289" d="M243.246,166.643l.4,2.8,1.649,2.124.166,1.741L251.4,171.5l-2.4-8.469a17.466,17.466,0,0,0,.231-3.467l-1.63,2.167-.45-3.531-3.347-2.69a.811.811,0,0,0-1.142.175h0a.812.812,0,0,0,.088,1.053l2.686,2.367.174,2.924-1.942-1.808a1.408,1.408,0,0,0-.685-.351l-2.7-.54a.7.7,0,0,0-.838.62h0a.705.705,0,0,0,.493.743l2.454.755,2.485,2.507-2.427-.925-3.3.462a.64.64,0,0,0-.551.633h0a.64.64,0,0,0,.675.639l2.1-.117,1.232.386-2.839.752a.573.573,0,0,0-.426.583h0a.574.574,0,0,0,.62.543Z" transform="translate(-238.602 -155.354)" fill="#ffbe9d"/>
            </g>
            <g id="Group_178660" data-name="Group 178660" transform="translate(94.173 21.799)" opacity="0.4">
              <path id="Path_27290" data-name="Path 27290" d="M246.762,182.248l-.253,3.14,9-2.483-1.033-3Z" transform="translate(-246.509 -179.902)"/>
            </g>
            <g id="Group_178661" data-name="Group 178661" transform="translate(81.82)">
              <path id="Path_27291" data-name="Path 27291" d="M228.349,166.436s-.794-1.08-.733-1.264,11.26-18.615,11.26-18.615l1.3.706Z" transform="translate(-227.613 -146.558)" fill="#263238"/>
            </g>
            <g id="Group_178662" data-name="Group 178662" transform="translate(97.243 5.42)">
              <path id="Path_27292" data-name="Path 27292" d="M251.312,154.953a.41.41,0,1,1-.023.025" transform="translate(-251.205 -154.849)" fill="#263238"/>
            </g>
            <g id="Group_178664" data-name="Group 178664" transform="translate(39.26 25.868)">
              <g id="Group_178663" data-name="Group 178663">
                <path id="Path_27293" data-name="Path 27293" d="M213.193,189.439a1.611,1.611,0,0,1-.341.461,3,3,0,0,1-1.455.756,6.47,6.47,0,0,1-2.6,0,8.939,8.939,0,0,0-3.353-.15,9.158,9.158,0,0,0-3.54,1.971,13.267,13.267,0,0,1-4.066,2.531,6.655,6.655,0,0,1-2.617.205,11.333,11.333,0,0,1-2.622-.728c-1.715-.674-3.36-1.621-5.161-2.276a10.341,10.341,0,0,0-2.739-.608,10.185,10.185,0,0,0-2.72.229c-1.77.365-3.429.983-5.086,1.334a12.85,12.85,0,0,1-8.742-1.209,13.1,13.1,0,0,1-4.55-3.908,9.224,9.224,0,0,1-1.089-1.919c.042-.023.356.706,1.2,1.837a13.38,13.38,0,0,0,4.554,3.768,12.681,12.681,0,0,0,8.558,1.113c1.625-.352,3.279-.975,5.086-1.355a10.486,10.486,0,0,1,2.811-.241,10.63,10.63,0,0,1,2.837.627c1.84.67,3.488,1.621,5.169,2.286a11.085,11.085,0,0,0,2.538.715,6.35,6.35,0,0,0,2.48-.182,13.141,13.141,0,0,0,3.979-2.45,9.34,9.34,0,0,1,3.668-1.984,8.977,8.977,0,0,1,3.437.2,6.477,6.477,0,0,0,2.536.063,3.054,3.054,0,0,0,1.436-.674C213.077,189.6,213.178,189.427,213.193,189.439Z" transform="translate(-162.514 -186.125)" fill="#fafafa"/>
              </g>
            </g>
          </g>
          <g id="Group_178667" data-name="Group 178667" transform="translate(93.354 35.824)">
            <g id="Group_178666" data-name="Group 178666">
              <path id="Path_27294" data-name="Path 27294" d="M245.545,207.166a23.963,23.963,0,0,1-.181-5.811,23.966,23.966,0,0,1,.181,5.811Z" transform="translate(-245.255 -201.355)" fill="#263238"/>
            </g>
          </g>
        </g>
        <g id="Group_178755" data-name="Group 178755" transform="translate(73.251 184.893)">
          <g id="Group_178669" data-name="Group 178669">
            <path id="Path_27295" data-name="Path 27295" d="M214.506,393.89c.287,1.134,6.954,38.524,6.954,38.524l10.214-.764-1.867-38.179Z" transform="translate(-214.506 -393.471)" fill="#ffbe9d"/>
          </g>
          <g id="Group_178754" data-name="Group 178754" transform="translate(6.467 37.696)">
            <g id="Group_178753" data-name="Group 178753">
              <g id="Group_178678" data-name="Group 178678" transform="translate(0.093)">
                <g id="Group_178673" data-name="Group 178673">
                  <g id="Group_178672" data-name="Group 178672">
                    <g id="Group_178671" data-name="Group 178671">
                      <g id="Group_178670" data-name="Group 178670">
                        <path id="Path_27296" data-name="Path 27296" d="M235.458,452.206l-.032-1.075-10.886.227.065,3.544.673.027c2.994.1,15.231.3,17.217-.3C244.711,453.961,235.458,452.206,235.458,452.206Z" transform="translate(-224.54 -451.131)" fill="#4a6aff"/>
                      </g>
                    </g>
                  </g>
                </g>
                <g id="Group_178677" data-name="Group 178677" transform="translate(0.01 0.795)" opacity="0.3">
                  <g id="Group_178676" data-name="Group 178676">
                    <g id="Group_178675" data-name="Group 178675">
                      <g id="Group_178674" data-name="Group 178674">
                        <path id="Path_27297" data-name="Path 27297" d="M228.539,455.17a3.482,3.482,0,0,0-1.432-2.122,3.856,3.856,0,0,0-2.55-.685l.063,2.816Z" transform="translate(-224.556 -452.346)"/>
                      </g>
                    </g>
                  </g>
                </g>
              </g>
              <g id="Group_178682" data-name="Group 178682" transform="translate(0.158 2.082)">
                <g id="Group_178681" data-name="Group 178681">
                  <g id="Group_178680" data-name="Group 178680" opacity="0.3">
                    <g id="Group_178679" data-name="Group 178679">
                      <path id="Path_27298" data-name="Path 27298" d="M240.017,454.315s3.247.8,2.856,1.307-12.765.727-18.233.382l.012-.226,14.435-.148S239.386,454.352,240.017,454.315Z" transform="translate(-224.64 -454.315)"/>
                    </g>
                  </g>
                </g>
              </g>
              <g id="Group_178687" data-name="Group 178687" transform="translate(0 3.216)">
                <g id="Group_178686" data-name="Group 178686">
                  <g id="Group_178685" data-name="Group 178685">
                    <g id="Group_178684" data-name="Group 178684">
                      <g id="Group_178683" data-name="Group 178683">
                        <path id="Path_27299" data-name="Path 27299" d="M224.4,456.376a1.007,1.007,0,0,0,.187.016l.536.02,1.971.043c1.665.025,3.966.032,6.506-.012s4.84-.132,6.5-.216l1.968-.112.534-.039a1.036,1.036,0,0,0,.186-.022,1.179,1.179,0,0,0-.188,0l-.535.016-1.97.073c-1.663.061-3.961.135-6.5.18s-4.838.051-6.5.048l-1.971,0-.536,0A1.133,1.133,0,0,0,224.4,456.376Z" transform="translate(-224.398 -456.05)" fill="#263238"/>
                      </g>
                    </g>
                  </g>
                </g>
              </g>
              <g id="Group_178692" data-name="Group 178692" transform="translate(14.585 1.956)">
                <g id="Group_178691" data-name="Group 178691">
                  <g id="Group_178690" data-name="Group 178690">
                    <g id="Group_178689" data-name="Group 178689">
                      <g id="Group_178688" data-name="Group 178688">
                        <path id="Path_27300" data-name="Path 27300" d="M246.729,455.72a3.917,3.917,0,0,1,.348-.881,4.255,4.255,0,0,1,.656-.713,1.437,1.437,0,0,0-.769.651A1.272,1.272,0,0,0,246.729,455.72Z" transform="translate(-246.708 -454.123)" fill="#263238"/>
                      </g>
                    </g>
                  </g>
                </g>
              </g>
              <g id="Group_178697" data-name="Group 178697" transform="translate(11.37 1.253)">
                <g id="Group_178696" data-name="Group 178696">
                  <g id="Group_178695" data-name="Group 178695">
                    <g id="Group_178694" data-name="Group 178694">
                      <g id="Group_178693" data-name="Group 178693">
                        <path id="Path_27301" data-name="Path 27301" d="M241.795,453.9c.031.018.18-.158.333-.393s.252-.439.221-.456-.18.158-.333.392S241.764,453.88,241.795,453.9Z" transform="translate(-241.789 -453.048)" fill="#263238"/>
                      </g>
                    </g>
                  </g>
                </g>
              </g>
              <g id="Group_178702" data-name="Group 178702" transform="translate(10.485 1.107)">
                <g id="Group_178701" data-name="Group 178701">
                  <g id="Group_178700" data-name="Group 178700">
                    <g id="Group_178699" data-name="Group 178699">
                      <g id="Group_178698" data-name="Group 178698">
                        <path id="Path_27302" data-name="Path 27302" d="M240.439,453.405c.025.024.194-.085.377-.244s.311-.309.287-.333-.193.084-.377.244S240.415,453.381,240.439,453.405Z" transform="translate(-240.436 -452.825)" fill="#263238"/>
                      </g>
                    </g>
                  </g>
                </g>
              </g>
              <g id="Group_178707" data-name="Group 178707" transform="translate(9.912 0.682)">
                <g id="Group_178706" data-name="Group 178706">
                  <g id="Group_178705" data-name="Group 178705">
                    <g id="Group_178704" data-name="Group 178704">
                      <g id="Group_178703" data-name="Group 178703">
                        <path id="Path_27303" data-name="Path 27303" d="M239.56,452.239a1.371,1.371,0,0,0,.567.056,1.35,1.35,0,0,0,.566-.065,1.375,1.375,0,0,0-.567-.056A1.35,1.35,0,0,0,239.56,452.239Z" transform="translate(-239.56 -452.174)" fill="#263238"/>
                      </g>
                    </g>
                  </g>
                </g>
              </g>
              <g id="Group_178712" data-name="Group 178712" transform="translate(9.706 0.069)">
                <g id="Group_178711" data-name="Group 178711">
                  <g id="Group_178710" data-name="Group 178710">
                    <g id="Group_178709" data-name="Group 178709">
                      <g id="Group_178708" data-name="Group 178708">
                        <path id="Path_27304" data-name="Path 27304" d="M239.245,451.247a1.159,1.159,0,0,0,.635.159,1.171,1.171,0,0,0,.65-.093,3.8,3.8,0,0,0-.643-.029A3.717,3.717,0,0,0,239.245,451.247Z" transform="translate(-239.245 -451.236)" fill="#263238"/>
                      </g>
                    </g>
                  </g>
                </g>
              </g>
              <g id="Group_178717" data-name="Group 178717" transform="translate(11.723 0.286)">
                <g id="Group_178716" data-name="Group 178716">
                  <g id="Group_178715" data-name="Group 178715">
                    <g id="Group_178714" data-name="Group 178714">
                      <g id="Group_178713" data-name="Group 178713">
                        <path id="Path_27305" data-name="Path 27305" d="M242.33,452.5a2.173,2.173,0,0,0,.7-.017,4.366,4.366,0,0,0,.738-.165,2.125,2.125,0,0,0,.421-.171.355.355,0,0,0,.167-.2.247.247,0,0,0-.111-.257,1.334,1.334,0,0,0-1.572.376,1.13,1.13,0,0,0-.218.436c-.025.111-.022.175-.014.175a1.769,1.769,0,0,1,.3-.558,1.261,1.261,0,0,1,.587-.371,1.155,1.155,0,0,1,.831.038c.112.074.072.2-.05.266a2.145,2.145,0,0,1-.388.162,5.088,5.088,0,0,1-.713.187C242.595,452.475,242.329,452.48,242.33,452.5Z" transform="translate(-242.33 -451.569)" fill="#263238"/>
                      </g>
                    </g>
                  </g>
                </g>
              </g>
              <g id="Group_178722" data-name="Group 178722" transform="translate(10.973 0.005)">
                <g id="Group_178721" data-name="Group 178721">
                  <g id="Group_178720" data-name="Group 178720">
                    <g id="Group_178719" data-name="Group 178719">
                      <g id="Group_178718" data-name="Group 178718">
                        <path id="Path_27306" data-name="Path 27306" d="M242.114,452.381a.6.6,0,0,0,.07-.451,1.013,1.013,0,0,0-.2-.47.708.708,0,0,0-.587-.319.257.257,0,0,0-.208.3.689.689,0,0,0,.125.287,1.982,1.982,0,0,0,.338.386,1.01,1.01,0,0,0,.4.255c.012-.016-.141-.114-.338-.315a2.312,2.312,0,0,1-.3-.383c-.1-.135-.169-.38,0-.413a.633.633,0,0,1,.465.267,1.029,1.029,0,0,1,.206.417A2.212,2.212,0,0,1,242.114,452.381Z" transform="translate(-241.182 -451.139)" fill="#263238"/>
                      </g>
                    </g>
                  </g>
                </g>
              </g>
              <g id="Group_178727" data-name="Group 178727" transform="translate(0.16 0.703)">
                <g id="Group_178726" data-name="Group 178726">
                  <g id="Group_178725" data-name="Group 178725">
                    <g id="Group_178724" data-name="Group 178724">
                      <g id="Group_178723" data-name="Group 178723">
                        <path id="Path_27307" data-name="Path 27307" d="M224.643,452.284c0,.023.309-.033.8.012a3.661,3.661,0,0,1,1.761.637,3.276,3.276,0,0,1,1.124,1.414c.175.43.2.719.222.716a.556.556,0,0,0,0-.2,2.47,2.47,0,0,0-.13-.541,3.129,3.129,0,0,0-1.132-1.482,3.516,3.516,0,0,0-1.834-.627,3.108,3.108,0,0,0-.6.025A.669.669,0,0,0,224.643,452.284Z" transform="translate(-224.643 -452.206)" fill="#263238"/>
                      </g>
                    </g>
                  </g>
                </g>
              </g>
              <g id="Group_178732" data-name="Group 178732" transform="translate(5.428 2.569)">
                <g id="Group_178731" data-name="Group 178731">
                  <g id="Group_178730" data-name="Group 178730">
                    <g id="Group_178729" data-name="Group 178729">
                      <g id="Group_178728" data-name="Group 178728">
                        <path id="Path_27308" data-name="Path 27308" d="M232.7,455.1a9.54,9.54,0,0,0,3.167-.029c0-.035-.711.018-1.583.025S232.7,455.067,232.7,455.1Z" transform="translate(-232.7 -455.061)" fill="#263238"/>
                      </g>
                    </g>
                  </g>
                </g>
              </g>
              <g id="Group_178737" data-name="Group 178737" transform="translate(3.299 2.642)">
                <g id="Group_178736" data-name="Group 178736">
                  <g id="Group_178735" data-name="Group 178735">
                    <g id="Group_178734" data-name="Group 178734">
                      <g id="Group_178733" data-name="Group 178733">
                        <path id="Path_27309" data-name="Path 27309" d="M229.449,455.177c-.025.025.061.139.137.288s.118.282.156.28.052-.161-.037-.333S229.471,455.152,229.449,455.177Z" transform="translate(-229.444 -455.173)" fill="#263238"/>
                      </g>
                    </g>
                  </g>
                </g>
              </g>
              <g id="Group_178742" data-name="Group 178742" transform="translate(2.477 1.73)">
                <g id="Group_178741" data-name="Group 178741">
                  <g id="Group_178740" data-name="Group 178740">
                    <g id="Group_178739" data-name="Group 178739">
                      <g id="Group_178738" data-name="Group 178738">
                        <path id="Path_27310" data-name="Path 27310" d="M228.192,453.782c-.025.024.047.128.161.231s.228.168.253.144-.047-.128-.161-.231S228.218,453.758,228.192,453.782Z" transform="translate(-228.187 -453.777)" fill="#263238"/>
                      </g>
                    </g>
                  </g>
                </g>
              </g>
              <g id="Group_178747" data-name="Group 178747" transform="translate(1.327 1.272)">
                <g id="Group_178746" data-name="Group 178746">
                  <g id="Group_178745" data-name="Group 178745">
                    <g id="Group_178744" data-name="Group 178744">
                      <g id="Group_178743" data-name="Group 178743">
                        <path id="Path_27311" data-name="Path 27311" d="M226.429,453.137c.008.034.152.03.313.08s.277.126.3.1-.065-.161-.265-.219S226.417,453.106,226.429,453.137Z" transform="translate(-226.428 -453.076)" fill="#263238"/>
                      </g>
                    </g>
                  </g>
                </g>
              </g>
              <g id="Group_178752" data-name="Group 178752" transform="translate(0.506 1.123)">
                <g id="Group_178751" data-name="Group 178751">
                  <g id="Group_178750" data-name="Group 178750">
                    <g id="Group_178749" data-name="Group 178749">
                      <g id="Group_178748" data-name="Group 178748">
                        <path id="Path_27312" data-name="Path 27312" d="M225.174,452.874c-.012.031.051.082.141.112s.175.03.187,0-.051-.082-.142-.113S225.187,452.842,225.174,452.874Z" transform="translate(-225.173 -452.849)" fill="#263238"/>
                      </g>
                    </g>
                  </g>
                </g>
              </g>
            </g>
          </g>
        </g>
        <g id="Group_178842" data-name="Group 178842" transform="translate(42.133 182.191)">
          <g id="Group_178756" data-name="Group 178756" transform="translate(0.83)">
            <path id="Path_27313" data-name="Path 27313" d="M172.477,389.338c-.052,1.168-4.3,37.582-4.3,37.582l10,2.214,9.222-37.095Z" transform="translate(-168.177 -389.338)" fill="#ffbe9d"/>
          </g>
          <g id="Group_178841" data-name="Group 178841" transform="translate(0 37.344)">
            <g id="Group_178840" data-name="Group 178840">
              <g id="Group_178765" data-name="Group 178765" transform="translate(0.099)">
                <g id="Group_178760" data-name="Group 178760">
                  <g id="Group_178759" data-name="Group 178759">
                    <g id="Group_178758" data-name="Group 178758">
                      <g id="Group_178757" data-name="Group 178757">
                        <path id="Path_27314" data-name="Path 27314" d="M178.242,449.882l.225-1.052-10.627-2.371-.78,3.458.647.187c2.885.808,14.721,3.92,16.793,3.809C186.811,453.789,178.242,449.882,178.242,449.882Z" transform="translate(-167.06 -446.459)" fill="#4a6aff"/>
                      </g>
                    </g>
                  </g>
                </g>
                <g id="Group_178764" data-name="Group 178764" transform="translate(0.042 0.57)" opacity="0.3">
                  <g id="Group_178763" data-name="Group 178763">
                    <g id="Group_178762" data-name="Group 178762">
                      <g id="Group_178761" data-name="Group 178761">
                        <path id="Path_27315" data-name="Path 27315" d="M170.933,451.005a3.477,3.477,0,0,0-.886-2.4,3.855,3.855,0,0,0-2.314-1.272l-.609,2.75Z" transform="translate(-167.124 -447.331)"/>
                      </g>
                    </g>
                  </g>
                </g>
              </g>
              <g id="Group_178769" data-name="Group 178769" transform="translate(0.099 3.242)">
                <g id="Group_178768" data-name="Group 178768">
                  <g id="Group_178767" data-name="Group 178767" opacity="0.3">
                    <g id="Group_178766" data-name="Group 178766">
                      <path id="Path_27316" data-name="Path 27316" d="M182.4,453.654s2.962,1.555,2.463,1.949-12.571-2.333-17.8-3.969l.065-.216,14.056,3.292S181.776,453.539,182.4,453.654Z" transform="translate(-167.06 -451.418)"/>
                    </g>
                  </g>
                </g>
              </g>
              <g id="Group_178774" data-name="Group 178774" transform="translate(0 3.198)">
                <g id="Group_178773" data-name="Group 178773">
                  <g id="Group_178772" data-name="Group 178772">
                    <g id="Group_178771" data-name="Group 178771">
                      <g id="Group_178770" data-name="Group 178770">
                        <path id="Path_27317" data-name="Path 27317" d="M166.908,451.351a1.114,1.114,0,0,0,.178.06l.515.147,1.905.511c1.611.421,3.843.975,6.321,1.537s4.733,1.024,6.367,1.338l1.938.36.528.09a1.1,1.1,0,0,0,.186.023,1.016,1.016,0,0,0-.181-.047l-.524-.112-1.931-.4c-1.63-.336-3.879-.812-6.357-1.373s-4.711-1.1-6.327-1.5l-1.914-.473-.522-.125A1.1,1.1,0,0,0,166.908,451.351Z" transform="translate(-166.908 -451.35)" fill="#263238"/>
                      </g>
                    </g>
                  </g>
                </g>
              </g>
              <g id="Group_178779" data-name="Group 178779" transform="translate(14.177 5.371)">
                <g id="Group_178778" data-name="Group 178778">
                  <g id="Group_178777" data-name="Group 178777">
                    <g id="Group_178776" data-name="Group 178776">
                      <g id="Group_178775" data-name="Group 178775">
                        <path id="Path_27318" data-name="Path 27318" d="M188.6,455.989a3.956,3.956,0,0,1,.548-.773,4.267,4.267,0,0,1,.807-.537,1.436,1.436,0,0,0-.9.45A1.275,1.275,0,0,0,188.6,455.989Z" transform="translate(-188.593 -454.674)" fill="#263238"/>
                      </g>
                    </g>
                  </g>
                </g>
              </g>
              <g id="Group_178784" data-name="Group 178784" transform="translate(11.388 3.813)">
                <g id="Group_178783" data-name="Group 178783">
                  <g id="Group_178782" data-name="Group 178782">
                    <g id="Group_178781" data-name="Group 178781">
                      <g id="Group_178780" data-name="Group 178780">
                        <path id="Path_27319" data-name="Path 27319" d="M184.329,452.987c.026.024.212-.111.417-.3s.349-.366.323-.39-.212.11-.417.3S184.3,452.963,184.329,452.987Z" transform="translate(-184.326 -452.291)" fill="#263238"/>
                      </g>
                    </g>
                  </g>
                </g>
              </g>
              <g id="Group_178789" data-name="Group 178789" transform="translate(10.626 3.484)">
                <g id="Group_178788" data-name="Group 178788">
                  <g id="Group_178787" data-name="Group 178787">
                    <g id="Group_178786" data-name="Group 178786">
                      <g id="Group_178785" data-name="Group 178785">
                        <path id="Path_27320" data-name="Path 27320" d="M183.163,452.2c.018.03.209-.036.424-.147s.376-.226.358-.256-.208.036-.424.147S183.146,452.168,183.163,452.2Z" transform="translate(-183.162 -451.788)" fill="#263238"/>
                      </g>
                    </g>
                  </g>
                </g>
              </g>
              <g id="Group_178794" data-name="Group 178794" transform="translate(10.292 2.83)">
                <g id="Group_178793" data-name="Group 178793">
                  <g id="Group_178792" data-name="Group 178792">
                    <g id="Group_178791" data-name="Group 178791">
                      <g id="Group_178790" data-name="Group 178790">
                        <path id="Path_27321" data-name="Path 27321" d="M182.651,450.8a1.352,1.352,0,0,0,.537.19.287.287,0,1,0-.537-.19Z" transform="translate(-182.651 -450.787)" fill="#263238"/>
                      </g>
                    </g>
                  </g>
                </g>
              </g>
              <g id="Group_178799" data-name="Group 178799" transform="translate(10.251 2.141)">
                <g id="Group_178798" data-name="Group 178798">
                  <g id="Group_178797" data-name="Group 178797">
                    <g id="Group_178796" data-name="Group 178796">
                      <g id="Group_178795" data-name="Group 178795">
                        <path id="Path_27322" data-name="Path 27322" d="M182.588,449.739a1.7,1.7,0,0,0,1.232.37,3.723,3.723,0,0,0-.617-.181A3.658,3.658,0,0,0,182.588,449.739Z" transform="translate(-182.588 -449.734)" fill="#263238"/>
                      </g>
                    </g>
                  </g>
                </g>
              </g>
              <g id="Group_178804" data-name="Group 178804" transform="translate(11.94 3.118)">
                <g id="Group_178803" data-name="Group 178803">
                  <g id="Group_178802" data-name="Group 178802">
                    <g id="Group_178801" data-name="Group 178801">
                      <g id="Group_178800" data-name="Group 178800">
                        <path id="Path_27323" data-name="Path 27323" d="M185.171,451.841a2.153,2.153,0,0,0,.68.15,4.4,4.4,0,0,0,.756.015,2.143,2.143,0,0,0,.449-.065.357.357,0,0,0,.212-.158.249.249,0,0,0-.047-.277,1.334,1.334,0,0,0-1.616-.008,1.117,1.117,0,0,0-.315.372c-.051.1-.063.164-.056.167a1.781,1.781,0,0,1,.429-.469,1.266,1.266,0,0,1,.658-.22,1.156,1.156,0,0,1,.8.234c.092.1.024.208-.111.247a2.18,2.18,0,0,1-.416.065,5.164,5.164,0,0,1-.737.012C185.434,451.88,185.175,451.822,185.171,451.841Z" transform="translate(-185.171 -451.228)" fill="#263238"/>
                      </g>
                    </g>
                  </g>
                </g>
              </g>
              <g id="Group_178809" data-name="Group 178809" transform="translate(11.43 2.426)">
                <g id="Group_178808" data-name="Group 178808">
                  <g id="Group_178807" data-name="Group 178807">
                    <g id="Group_178806" data-name="Group 178806">
                      <g id="Group_178805" data-name="Group 178805">
                        <path id="Path_27324" data-name="Path 27324" d="M185.07,451.546a.6.6,0,0,0,.176-.422,1.014,1.014,0,0,0-.084-.5.709.709,0,0,0-.494-.45.258.258,0,0,0-.275.245.684.684,0,0,0,.053.308,2.024,2.024,0,0,0,.236.456,1.026,1.026,0,0,0,.332.343c.016-.012-.11-.144-.253-.386a2.292,2.292,0,0,1-.2-.443c-.063-.155-.074-.409.1-.4s.313.22.388.369a1.032,1.032,0,0,1,.1.454A2.158,2.158,0,0,1,185.07,451.546Z" transform="translate(-184.391 -450.169)" fill="#263238"/>
                      </g>
                    </g>
                  </g>
                </g>
              </g>
              <g id="Group_178814" data-name="Group 178814" transform="translate(0.812 0.548)">
                <g id="Group_178813" data-name="Group 178813">
                  <g id="Group_178812" data-name="Group 178812">
                    <g id="Group_178811" data-name="Group 178811">
                      <g id="Group_178810" data-name="Group 178810">
                        <path id="Path_27325" data-name="Path 27325" d="M168.15,447.3c0,.022.309.041.775.2a3.672,3.672,0,0,1,1.559,1.039,3.282,3.282,0,0,1,.755,1.641c.068.458.02.745.045.748a.543.543,0,0,0,.044-.2,2.525,2.525,0,0,0,0-.557,3.128,3.128,0,0,0-.746-1.709,3.513,3.513,0,0,0-1.632-1.045,3.055,3.055,0,0,0-.585-.118A.645.645,0,0,0,168.15,447.3Z" transform="translate(-168.15 -447.298)" fill="#263238"/>
                      </g>
                    </g>
                  </g>
                </g>
              </g>
              <g id="Group_178819" data-name="Group 178819" transform="translate(5.493 3.582)">
                <g id="Group_178818" data-name="Group 178818">
                  <g id="Group_178817" data-name="Group 178817">
                    <g id="Group_178816" data-name="Group 178816">
                      <g id="Group_178815" data-name="Group 178815">
                        <path id="Path_27326" data-name="Path 27326" d="M175.31,451.941a9.534,9.534,0,0,0,3.084.725c0-.035-.695-.152-1.544-.352S175.322,451.908,175.31,451.941Z" transform="translate(-175.31 -451.938)" fill="#263238"/>
                      </g>
                    </g>
                  </g>
                </g>
              </g>
              <g id="Group_178824" data-name="Group 178824" transform="translate(3.413 3.113)">
                <g id="Group_178823" data-name="Group 178823">
                  <g id="Group_178822" data-name="Group 178822">
                    <g id="Group_178821" data-name="Group 178821">
                      <g id="Group_178820" data-name="Group 178820">
                        <path id="Path_27327" data-name="Path 27327" d="M172.137,451.222c-.031.018.026.149.064.312s.048.3.084.309.089-.143.043-.331S172.165,451.2,172.137,451.222Z" transform="translate(-172.128 -451.22)" fill="#263238"/>
                      </g>
                    </g>
                  </g>
                </g>
              </g>
              <g id="Group_178829" data-name="Group 178829" transform="translate(2.832 2.032)">
                <g id="Group_178828" data-name="Group 178828">
                  <g id="Group_178827" data-name="Group 178827">
                    <g id="Group_178826" data-name="Group 178826">
                      <g id="Group_178825" data-name="Group 178825">
                        <path id="Path_27328" data-name="Path 27328" d="M171.249,449.569c-.031.017.015.135.1.263s.182.218.212.2-.015-.135-.1-.263S171.279,449.551,171.249,449.569Z" transform="translate(-171.239 -449.567)" fill="#263238"/>
                      </g>
                    </g>
                  </g>
                </g>
              </g>
              <g id="Group_178834" data-name="Group 178834" transform="translate(1.815 1.34)">
                <g id="Group_178833" data-name="Group 178833">
                  <g id="Group_178832" data-name="Group 178832">
                    <g id="Group_178831" data-name="Group 178831">
                      <g id="Group_178830" data-name="Group 178830">
                        <path id="Path_27329" data-name="Path 27329" d="M169.684,448.536c0,.035.141.066.285.152s.239.188.271.173-.025-.172-.205-.276S169.681,448.5,169.684,448.536Z" transform="translate(-169.684 -448.508)" fill="#263238"/>
                      </g>
                    </g>
                  </g>
                </g>
              </g>
              <g id="Group_178839" data-name="Group 178839" transform="translate(1.059 0.98)">
                <g id="Group_178838" data-name="Group 178838">
                  <g id="Group_178837" data-name="Group 178837">
                    <g id="Group_178836" data-name="Group 178836">
                      <g id="Group_178835" data-name="Group 178835">
                        <path id="Path_27330" data-name="Path 27330" d="M168.532,447.971c-.02.028.03.092.111.144s.162.071.182.043-.03-.092-.111-.144S168.551,447.944,168.532,447.971Z" transform="translate(-168.527 -447.959)" fill="#263238"/>
                      </g>
                    </g>
                  </g>
                </g>
              </g>
            </g>
          </g>
        </g>
        <g id="Group_178905" data-name="Group 178905" transform="translate(39.657)">
          <g id="Group_178843" data-name="Group 178843" transform="translate(0 0.06)">
            <path id="Path_27331" data-name="Path 27331" d="M208.25,130.736c-.271-.777-.929-1.362-1.248-2.121-.478-1.135-.128-2.423,0-3.647s-.126-2.711-1.248-3.217a11.554,11.554,0,0,1-1.438-.479c-.873-.543-.827-1.791-.907-2.816a5.655,5.655,0,0,0-.513-1.95l.184-.058a2.907,2.907,0,0,1,3.342,1.655,1.71,1.71,0,0,1-.113,1.641,1.076,1.076,0,0,1-1.27.409.887.887,0,0,1-.464-.993.628.628,0,0,1,.714-.4.708.708,0,0,1,.507.282c.075.117.082.2.1.2s.03-.085-.032-.234a.756.756,0,0,0-.55-.393.926.926,0,0,0-.508.035.732.732,0,0,0-.437.443,1.12,1.12,0,0,0,.541,1.309,1.362,1.362,0,0,0,1.652-.454,2.031,2.031,0,0,0,.194-1.967,3.24,3.24,0,0,0-3.438-1.954,2.15,2.15,0,0,0,.2-1.737,2.444,2.444,0,0,0-1.508-1.514,3.227,3.227,0,0,0-1.916-.1,4.789,4.789,0,0,0-1.51.668c-.424.277-.75.58-1.069.783a1.913,1.913,0,0,1-.882.339,1.481,1.481,0,0,1-.792-.164c-.024,0,.2.314.8.313a1.978,1.978,0,0,0,.987-.305c.35-.2.692-.49,1.1-.736a3.585,3.585,0,0,1,3.152-.463,2.094,2.094,0,0,1,1.274,1.292,1.69,1.69,0,0,1-.451,1.745,3.838,3.838,0,0,0-1.415-1.45,2.882,2.882,0,0,0-3.9.967l-10.727-3.682a5.229,5.229,0,0,0-4.927-.991c-.074-.013-.145-.027-.225-.035a3.48,3.48,0,0,0-1.812.3,5.934,5.934,0,0,0-1.824,1.594,3.977,3.977,0,0,1-1.029.853,1.885,1.885,0,0,1-.205.085,9.916,9.916,0,0,1-1.433.05,21.337,21.337,0,0,0-2.948-.839,4.653,4.653,0,0,0-1.86.134,3.56,3.56,0,0,0-1.658,1.047,2.865,2.865,0,0,0-.717,1.908,5.243,5.243,0,0,0,.235,1.483,5.143,5.143,0,0,0-.316,2.025c.048.908.309,1.859.319,2.754a2.566,2.566,0,0,1-.878.447c-.566.178-1.172.264-1.746.485a4.05,4.05,0,0,0-2.318,2.454,2.866,2.866,0,0,0,.29,2.7,4.124,4.124,0,0,0,.756,3.461,21.131,21.131,0,0,1,1.681,1.8c.7,1.1.6,2.5.782,3.788s.926,2.747,2.225,2.832c1.047.069,1.988-.811,3.034-.725,1.468.121,2.068,1.879,2.916,3.082a5.227,5.227,0,0,0,4.868,2.12c1.334-.182,2.656-.887,3.961-.556,1.641.416,2.626,2.34,4.3,2.58a4.335,4.335,0,0,0,3.328-1.5,6.723,6.723,0,0,1,3.108-2.053c1.493-.268,2.93.634,4.433.841a5.01,5.01,0,0,0,4.939-2.478c.826-1.5.824-3.333,1.6-4.858a27.243,27.243,0,0,1,1.992-2.792A3.758,3.758,0,0,0,208.25,130.736Zm-43.017-4.825a.887.887,0,0,0-.369-.018,2.458,2.458,0,0,0,.294.073c-.067.048-.137.095-.2.146a3.958,3.958,0,0,0-1.266,1.947,2.771,2.771,0,0,1-.065-2.224,3.734,3.734,0,0,1,2.14-2.224c.526-.2,1.121-.28,1.73-.465a3.044,3.044,0,0,0,.746-.331,2.618,2.618,0,0,1-.309,1.012C167.372,124.832,166.182,125.245,165.233,125.912Zm7.322-12.027a5.649,5.649,0,0,0-4.042,3.094,4.142,4.142,0,0,1-.1-.893,2.478,2.478,0,0,1,.618-1.662,3.594,3.594,0,0,1,3.189-1.075,7.248,7.248,0,0,1,1.759.452A8.372,8.372,0,0,0,172.555,113.884Zm5.38-.454a3.652,3.652,0,0,1-.4.144,6.133,6.133,0,0,0,.546-.545,5.86,5.86,0,0,1,1.715-1.583,3.368,3.368,0,0,1,1.584-.345,4.7,4.7,0,0,0-.807.4A23.76,23.76,0,0,1,177.936,113.43Z" transform="translate(-163.121 -110.752)" fill="#263238"/>
          </g>
          <g id="Group_178904" data-name="Group 178904" transform="translate(1.832)">
            <g id="Group_178896" data-name="Group 178896" transform="translate(14.056 5.964)">
              <g id="Group_178895" data-name="Group 178895">
                <g id="Group_178894" data-name="Group 178894">
                  <g id="Group_178885" data-name="Group 178885">
                    <g id="Group_178884" data-name="Group 178884">
                      <g id="Group_178883" data-name="Group 178883">
                        <g id="Group_178844" data-name="Group 178844">
                          <path id="Path_27332" data-name="Path 27332" d="M209.6,139.017c.512-3.221.35-8.5.078-12.82a6.839,6.839,0,0,0-7.544-6.377L190.9,121.009a2.278,2.278,0,0,0-2.038,2.311l1.158,27.6-2.6.007v5a10.355,10.355,0,1,0,20.711,0V151.6a15.754,15.754,0,0,0-4.326-.79c-.093.005-.232.01-.4.014.011-2.531.207-4.511.207-4.511S208.576,145.494,209.6,139.017Z" transform="translate(-187.422 -119.782)" fill="#ffbe9d"/>
                        </g>
                        <g id="Group_178854" data-name="Group 178854" transform="translate(17.831 8.29)">
                          <g id="Group_178848" data-name="Group 178848" transform="translate(1.088 1.568)">
                            <g id="Group_178847" data-name="Group 178847">
                              <g id="Group_178846" data-name="Group 178846">
                                <g id="Group_178845" data-name="Group 178845">
                                  <path id="Path_27333" data-name="Path 27333" d="M218.019,135.611a.831.831,0,0,1-.8.838.8.8,0,0,1-.856-.749.831.831,0,0,1,.8-.838A.8.8,0,0,1,218.019,135.611Z" transform="translate(-216.361 -134.86)" fill="#263238"/>
                                </g>
                              </g>
                            </g>
                          </g>
                          <g id="Group_178853" data-name="Group 178853">
                            <g id="Group_178852" data-name="Group 178852">
                              <g id="Group_178851" data-name="Group 178851">
                                <g id="Group_178850" data-name="Group 178850">
                                  <g id="Group_178849" data-name="Group 178849">
                                    <path id="Path_27334" data-name="Path 27334" d="M217.98,133.335c-.1.109-.733-.357-1.627-.355s-1.549.45-1.646.34c-.048-.048.057-.244.343-.452a2.276,2.276,0,0,1,1.317-.406,2.184,2.184,0,0,1,1.294.418C217.938,133.09,218.031,133.286,217.98,133.335Z" transform="translate(-214.697 -132.462)" fill="#263238"/>
                                  </g>
                                </g>
                              </g>
                            </g>
                          </g>
                        </g>
                        <g id="Group_178864" data-name="Group 178864" transform="translate(9.044 8.456)">
                          <g id="Group_178858" data-name="Group 178858" transform="translate(1.137 1.401)">
                            <g id="Group_178857" data-name="Group 178857">
                              <g id="Group_178856" data-name="Group 178856">
                                <g id="Group_178855" data-name="Group 178855">
                                  <path id="Path_27335" data-name="Path 27335" d="M204.653,135.611a.831.831,0,0,1-.8.838A.8.8,0,0,1,203,135.7a.831.831,0,0,1,.8-.838A.8.8,0,0,1,204.653,135.611Z" transform="translate(-202.995 -134.86)" fill="#263238"/>
                                </g>
                              </g>
                            </g>
                          </g>
                          <g id="Group_178863" data-name="Group 178863">
                            <g id="Group_178862" data-name="Group 178862">
                              <g id="Group_178861" data-name="Group 178861">
                                <g id="Group_178860" data-name="Group 178860">
                                  <g id="Group_178859" data-name="Group 178859">
                                    <path id="Path_27336" data-name="Path 27336" d="M204.54,133.59c-.1.109-.734-.357-1.627-.354s-1.549.449-1.646.339c-.047-.048.057-.244.343-.452a2.276,2.276,0,0,1,1.317-.406,2.19,2.19,0,0,1,1.294.418C204.5,133.346,204.59,133.541,204.54,133.59Z" transform="translate(-201.256 -132.717)" fill="#263238"/>
                                  </g>
                                </g>
                              </g>
                            </g>
                          </g>
                        </g>
                        <g id="Group_178869" data-name="Group 178869" transform="translate(15.154 8.511)">
                          <g id="Group_178868" data-name="Group 178868">
                            <g id="Group_178867" data-name="Group 178867">
                              <g id="Group_178866" data-name="Group 178866">
                                <g id="Group_178865" data-name="Group 178865">
                                  <path id="Path_27337" data-name="Path 27337" d="M211.019,140.248a5.956,5.956,0,0,1,1.452-.262c.228-.024.444-.069.482-.225a1.165,1.165,0,0,0-.152-.677l-.675-1.738a29.921,29.921,0,0,1-1.515-4.546,29.9,29.9,0,0,1,1.878,4.414q.338.915.647,1.748a1.322,1.322,0,0,1,.118.9.572.572,0,0,1-.375.334,1.545,1.545,0,0,1-.388.054A5.786,5.786,0,0,1,211.019,140.248Z" transform="translate(-210.601 -132.8)" fill="#263238"/>
                                </g>
                              </g>
                            </g>
                          </g>
                        </g>
                        <g id="Group_178873" data-name="Group 178873" transform="translate(7.515 24.223)">
                          <g id="Group_178872" data-name="Group 178872">
                            <g id="Group_178871" data-name="Group 178871">
                              <g id="Group_178870" data-name="Group 178870">
                                <path id="Path_27338" data-name="Path 27338" d="M207.591,159.147a16.476,16.476,0,0,1-8.674-2.314s2.1,4.449,8.587,3.843Z" transform="translate(-198.917 -156.833)" fill="#eb996e"/>
                              </g>
                            </g>
                          </g>
                        </g>
                        <g id="Group_178877" data-name="Group 178877" transform="translate(12.527 17.505)">
                          <g id="Group_178876" data-name="Group 178876">
                            <g id="Group_178875" data-name="Group 178875">
                              <g id="Group_178874" data-name="Group 178874">
                                <path id="Path_27339" data-name="Path 27339" d="M209.251,147.165a1.61,1.61,0,0,0-1.444-.6,1.466,1.466,0,0,0-1.015.545.931.931,0,0,0-.071,1.065,1.082,1.082,0,0,0,1.172.3,3.383,3.383,0,0,0,1.142-.682.983.983,0,0,0,.256-.265.3.3,0,0,0,0-.333" transform="translate(-206.584 -146.558)" fill="#eb996e"/>
                              </g>
                            </g>
                          </g>
                        </g>
                        <g id="Group_178882" data-name="Group 178882" transform="translate(12.796 16.577)">
                          <g id="Group_178881" data-name="Group 178881">
                            <g id="Group_178880" data-name="Group 178880">
                              <g id="Group_178879" data-name="Group 178879">
                                <g id="Group_178878" data-name="Group 178878">
                                  <path id="Path_27340" data-name="Path 27340" d="M207.14,145.138c.146-.009.147.962.978,1.651s1.863.582,1.87.717c.014.061-.23.189-.667.2a2.417,2.417,0,0,1-1.562-.545,2.1,2.1,0,0,1-.757-1.383C206.966,145.373,207.074,145.133,207.14,145.138Z" transform="translate(-206.995 -145.138)" fill="#263238"/>
                                </g>
                              </g>
                            </g>
                          </g>
                        </g>
                      </g>
                    </g>
                  </g>
                  <g id="Group_178889" data-name="Group 178889" transform="translate(8.651 7.094)">
                    <g id="Group_178888" data-name="Group 178888">
                      <g id="Group_178887" data-name="Group 178887">
                        <g id="Group_178886" data-name="Group 178886">
                          <path id="Path_27341" data-name="Path 27341" d="M204.733,131.3c-.088.243-.981.127-2.029.254-1.051.105-1.9.412-2.036.194-.062-.1.086-.333.428-.568a3.55,3.55,0,0,1,3.1-.342C204.577,131,204.771,131.188,204.733,131.3Z" transform="translate(-200.654 -130.633)" fill="#263238"/>
                        </g>
                      </g>
                    </g>
                  </g>
                  <g id="Group_178893" data-name="Group 178893" transform="translate(17.742 6.41)">
                    <g id="Group_178892" data-name="Group 178892">
                      <g id="Group_178891" data-name="Group 178891">
                        <g id="Group_178890" data-name="Group 178890">
                          <path id="Path_27342" data-name="Path 27342" d="M217.6,130.514c-.158.2-.773-.008-1.513-.018-.74-.036-1.368.137-1.512-.076-.063-.1.036-.307.31-.5a2.191,2.191,0,0,1,2.437.075C217.588,130.206,217.673,130.414,217.6,130.514Z" transform="translate(-214.56 -129.587)" fill="#263238"/>
                        </g>
                      </g>
                    </g>
                  </g>
                </g>
              </g>
            </g>
            <g id="Group_178897" data-name="Group 178897" transform="translate(13.226)">
              <path id="Path_27343" data-name="Path 27343" d="M211.654,117.258a4.814,4.814,0,0,0-3.5-3.649,29.557,29.557,0,0,0-3.475.052c-.956-.062-1.3-.823-2.214-1.122-1.518-.5-2.683-2.184-5.958-1.832a5.05,5.05,0,0,0-2.8,2.261c-1.255-.541-2.909.041-3.813.437-1.874.82-3.047,2.93-3.416,5.073a21.183,21.183,0,0,0,.235,6.5q.208,1.477.414,2.954a5.2,5.2,0,0,0,.522,1.883l-1.491,13.866a5.767,5.767,0,0,0,7.331-4.028c.579-2.726-.938-5.5-.7-8.279.143-1.653,1.077-3.193,1.071-4.851a6.4,6.4,0,0,0-.231-1.614h0c2.635-2.138,3.306-3.859,3.2-5.861a5.035,5.035,0,0,0,2.743.908c1.388.017,2.829-.521,4.128-.031A7.228,7.228,0,0,1,206,121.8a3.329,3.329,0,0,0,2.624,1.213,6.879,6.879,0,0,0,1.361-.479,1.646,1.646,0,0,1,1.4,0A10.827,10.827,0,0,0,211.654,117.258Z" transform="translate(-186.153 -110.66)" fill="#263238"/>
            </g>
            <g id="Group_178899" data-name="Group 178899" transform="translate(0 7.895)">
              <g id="Group_178898" data-name="Group 178898">
                <path id="Path_27344" data-name="Path 27344" d="M165.923,135.63a11.308,11.308,0,0,0,2.149,1.23,7.692,7.692,0,0,0,2.814.595,5.92,5.92,0,0,0,3.578-1.079,5.461,5.461,0,0,0,2.316-3.793,3.993,3.993,0,0,0-.487-2.429,2.592,2.592,0,0,0-2.125-1.321,1.919,1.919,0,0,0-1.234.406,2.423,2.423,0,0,0-.756,1.128,2.833,2.833,0,0,0,.5,2.7,4.717,4.717,0,0,0,2.565,1.525,7.257,7.257,0,0,0,3.139.052,6.806,6.806,0,0,0,2.856-1.287,5.474,5.474,0,0,0,2-5.339,4.427,4.427,0,0,0-.484-1.332,3.03,3.03,0,0,0-.879-1.035,2.11,2.11,0,0,0-1.2-.45,1.114,1.114,0,0,0-1,.562,1.579,1.579,0,0,0-.128,1.172,2.271,2.271,0,0,0,.633,1.011,5.634,5.634,0,0,0,7.605-.293,5.97,5.97,0,0,0,1.434-2.468,6.733,6.733,0,0,0,.2-2.451,2.931,2.931,0,0,1,.1.639,5.615,5.615,0,0,1-.174,1.85,6.016,6.016,0,0,1-1.425,2.568,5.626,5.626,0,0,1-3.474,1.708,5.729,5.729,0,0,1-4.478-1.342,2.556,2.556,0,0,1-.722-1.143,1.881,1.881,0,0,1,.15-1.406,1.433,1.433,0,0,1,1.268-.726,2.418,2.418,0,0,1,1.394.506,3.363,3.363,0,0,1,.977,1.136,4.742,4.742,0,0,1,.525,1.427,5.809,5.809,0,0,1-2.118,5.683,7.139,7.139,0,0,1-3,1.358,7.578,7.578,0,0,1-3.3-.058,5.057,5.057,0,0,1-2.75-1.649,3.138,3.138,0,0,1-.669-1.458,3.389,3.389,0,0,1,.124-1.568,2.75,2.75,0,0,1,.87-1.282,2.248,2.248,0,0,1,1.449-.471A2.905,2.905,0,0,1,176.56,130a4.281,4.281,0,0,1,.511,2.618,5.7,5.7,0,0,1-2.463,3.967,6.1,6.1,0,0,1-3.726,1.072,7.672,7.672,0,0,1-2.864-.666,7.8,7.8,0,0,1-1.6-.936,4.79,4.79,0,0,1-.375-.3C165.959,135.674,165.919,135.635,165.923,135.63Z" transform="translate(-165.923 -122.736)" fill="#455a64"/>
              </g>
            </g>
            <g id="Group_178901" data-name="Group 178901" transform="translate(21.273 1.248)">
              <g id="Group_178900" data-name="Group 178900">
                <path id="Path_27345" data-name="Path 27345" d="M216.293,120.845a1.128,1.128,0,0,1-.312.219,3.515,3.515,0,0,1-1.03.375,4.266,4.266,0,0,1-1.737-.029,4.717,4.717,0,0,1-2.043-1.063,6.061,6.061,0,0,1-1.61-2.282,2.059,2.059,0,0,1-.052-1.609,1.353,1.353,0,0,1,.609-.652,1.022,1.022,0,0,1,.938.011,1.439,1.439,0,0,1,.674,1.661,2.361,2.361,0,0,1-1.279,1.364,4.941,4.941,0,0,1-3.785.054,9.049,9.049,0,0,1-1.745-.841,6.39,6.39,0,0,1-1.485-1.181,1.493,1.493,0,0,1-.146-1.859.964.964,0,0,1,.936-.331,1.386,1.386,0,0,1,.8.5,1.19,1.19,0,0,1,.255.889,1.555,1.555,0,0,1-.362.8,2.117,2.117,0,0,1-1.438.723,3.843,3.843,0,0,1-1.464-.193,10.78,10.78,0,0,1-1.249-.481,4.454,4.454,0,0,1-1.827-1.4,2.559,2.559,0,0,1-.47-1.673,1.87,1.87,0,0,1,.381-1.03,1.024,1.024,0,0,1,.286-.255,1.979,1.979,0,0,0-.529,1.293,2.452,2.452,0,0,0,.492,1.548,4.3,4.3,0,0,0,1.771,1.289,5.712,5.712,0,0,0,2.582.609,1.82,1.82,0,0,0,1.227-.63,1,1,0,0,0,.09-1.291c-.289-.387-.919-.558-1.216-.158a.948.948,0,0,0-.174.706,1.377,1.377,0,0,0,.328.72,6.172,6.172,0,0,0,1.4,1.1,8.78,8.78,0,0,0,1.676.806,4.615,4.615,0,0,0,3.517-.031,2.034,2.034,0,0,0,1.107-1.149,1.112,1.112,0,0,0-.5-1.275.822.822,0,0,0-1.113.483,1.775,1.775,0,0,0,.045,1.373,5.861,5.861,0,0,0,1.5,2.2,4.561,4.561,0,0,0,1.922,1.058,4.277,4.277,0,0,0,1.668.087A5.232,5.232,0,0,0,216.293,120.845Z" transform="translate(-198.461 -112.568)" fill="#455a64"/>
              </g>
            </g>
            <g id="Group_178903" data-name="Group 178903" transform="translate(8.399 22.302)">
              <g id="Group_178902" data-name="Group 178902">
                <path id="Path_27346" data-name="Path 27346" d="M190.6,147.2a1.008,1.008,0,0,1-.277.224,2.666,2.666,0,0,1-.949.381,3.11,3.11,0,0,1-1.619-.1,2.62,2.62,0,0,1-1.621-1.411,1.1,1.1,0,0,1,.248-1.277,1.154,1.154,0,0,1,1.41,0,2.9,2.9,0,0,1,1,2.79,3.427,3.427,0,0,1-1.892,2.678,3.873,3.873,0,0,1-3.514-.26,3.919,3.919,0,0,1-1.346-1.255,2.225,2.225,0,0,1-.318-1.782,1.706,1.706,0,0,1,.46-.8,1.205,1.205,0,0,1,.868-.335,1.707,1.707,0,0,1,1.4.94,3.471,3.471,0,0,1,.384,1.527,5.089,5.089,0,0,1-.142,1.46,4.6,4.6,0,0,1-1.289,2.266,3.288,3.288,0,0,1-1.959.883,3.235,3.235,0,0,1-1.6-.255,2.812,2.812,0,0,1-.847-.573,1.066,1.066,0,0,1-.224-.277,4.119,4.119,0,0,0,1.124.722,3.165,3.165,0,0,0,1.529.185,3.1,3.1,0,0,0,1.808-.868,4.377,4.377,0,0,0,1.175-2.152,4.852,4.852,0,0,0,.117-1.376,3.192,3.192,0,0,0-.358-1.384,1.384,1.384,0,0,0-1.123-.762,1.057,1.057,0,0,0-.985.886,1.882,1.882,0,0,0,.28,1.5,3.593,3.593,0,0,0,1.226,1.136,3.54,3.54,0,0,0,3.192.25,3.1,3.1,0,0,0,1.714-2.409,2.613,2.613,0,0,0-.848-2.5.869.869,0,0,0-1.068-.028.843.843,0,0,0-.188.978,2.426,2.426,0,0,0,1.452,1.312,3.028,3.028,0,0,0,1.529.156A3.994,3.994,0,0,0,190.6,147.2Z" transform="translate(-178.77 -144.773)" fill="#455a64"/>
              </g>
            </g>
          </g>
        </g>
        <g id="Group_178917" data-name="Group 178917" transform="translate(34.71 89.243)">
          <g id="Group_178906" data-name="Group 178906">
            <path id="Path_27347" data-name="Path 27347" d="M155.554,341.578s4.368,8.5,15.775,4.369c0,0,11.164,6.068,21.844-.728,0,0,13.83,1.854,21.354-1.786l-9.677-83.45-1.225-12.816H173.114s-9.065,4.126-10.521,24.27-4.612,47.813-4.612,47.813Z" transform="translate(-155.554 -247.166)" fill="#263238"/>
          </g>
          <g id="Group_178908" data-name="Group 178908" transform="translate(34.351 0.308)">
            <g id="Group_178907" data-name="Group 178907">
              <path id="Path_27348" data-name="Path 27348" d="M210.718,345.637a1.354,1.354,0,0,1-.034-.251c-.016-.184-.039-.429-.066-.741-.052-.67-.126-1.627-.221-2.848-.189-2.474-.426-6.057-.688-10.486-.527-8.858-1.092-21.105-1.389-34.642s-.258-25.8-.116-34.676c.07-4.436.152-8.026.233-10.505.041-1.225.074-2.183.1-2.855.014-.313.025-.558.034-.743a1.4,1.4,0,0,1,.024-.252,1.4,1.4,0,0,1,.012.254c0,.184,0,.43,0,.743-.008.673-.019,1.631-.033,2.857-.029,2.5-.072,6.084-.124,10.505-.081,8.871-.076,21.128.215,34.665s.823,25.777,1.288,34.637c.245,4.415.443,7.994.581,10.49.067,1.224.12,2.182.157,2.853.014.313.025.559.033.743A1.405,1.405,0,0,1,210.718,345.637Z" transform="translate(-208.098 -247.637)" fill="#455a64"/>
            </g>
          </g>
          <g id="Group_178910" data-name="Group 178910" transform="translate(38.912 74.276)">
            <g id="Group_178909" data-name="Group 178909">
              <path id="Path_27349" data-name="Path 27349" d="M215.808,360.94c-.008-.015.065-.088.238-.134a1.113,1.113,0,0,1,.743.094,1.263,1.263,0,0,1,.7.883,1.267,1.267,0,0,1-2.013,1.144,1.267,1.267,0,0,1-.4-1.055,1.112,1.112,0,0,1,.3-.686c.128-.126.228-.151.237-.137a1.57,1.57,0,0,0-.3.832,1.065,1.065,0,0,0,.36.8.975.975,0,0,0,1.5-.854,1.061,1.061,0,0,0-.507-.72A1.562,1.562,0,0,0,215.808,360.94Z" transform="translate(-215.074 -360.778)" fill="#455a64"/>
            </g>
          </g>
          <g id="Group_178912" data-name="Group 178912" transform="translate(38.235 49.481)">
            <g id="Group_178911" data-name="Group 178911">
              <path id="Path_27350" data-name="Path 27350" d="M214.772,323.014c-.008-.015.064-.088.238-.134a1.113,1.113,0,0,1,.743.094,1.269,1.269,0,0,1,.7.883A1.266,1.266,0,0,1,214.442,325a1.267,1.267,0,0,1-.4-1.055,1.112,1.112,0,0,1,.3-.686c.128-.126.228-.151.237-.136a1.55,1.55,0,0,0-.3.832,1.065,1.065,0,0,0,.36.8.976.976,0,0,0,1.5-.854,1.063,1.063,0,0,0-.507-.72A1.563,1.563,0,0,0,214.772,323.014Z" transform="translate(-214.038 -322.853)" fill="#455a64"/>
            </g>
          </g>
          <g id="Group_178914" data-name="Group 178914" transform="translate(37.837 27.568)">
            <g id="Group_178913" data-name="Group 178913">
              <path id="Path_27351" data-name="Path 27351" d="M214.163,289.5c-.008-.016.065-.088.238-.134a1.116,1.116,0,0,1,.743.094,1.265,1.265,0,0,1,.7.883,1.267,1.267,0,0,1-2.013,1.145,1.267,1.267,0,0,1-.4-1.055,1.116,1.116,0,0,1,.3-.686c.129-.125.228-.15.237-.136a1.564,1.564,0,0,0-.3.832,1.066,1.066,0,0,0,.36.8.976.976,0,0,0,1.5-.854,1.064,1.064,0,0,0-.507-.721A1.559,1.559,0,0,0,214.163,289.5Z" transform="translate(-213.429 -289.333)" fill="#455a64"/>
            </g>
          </g>
          <g id="Group_178916" data-name="Group 178916" transform="translate(37.056 4.121)">
            <g id="Group_178915" data-name="Group 178915">
              <path id="Path_27352" data-name="Path 27352" d="M212.969,253.631c-.008-.016.064-.088.238-.135a1.117,1.117,0,0,1,.743.094,1.269,1.269,0,0,1,.7.883,1.267,1.267,0,0,1-2.013,1.145,1.269,1.269,0,0,1-.4-1.055,1.116,1.116,0,0,1,.3-.686c.128-.126.228-.151.237-.136a1.561,1.561,0,0,0-.3.832,1.064,1.064,0,0,0,.36.8.976.976,0,0,0,1.5-.854,1.066,1.066,0,0,0-.507-.721A1.559,1.559,0,0,0,212.969,253.631Z" transform="translate(-212.235 -253.469)" fill="#455a64"/>
            </g>
          </g>
        </g>
      </g>
    </g>
    <g id="Message" transform="translate(208.728 95.819)">
      <g id="Group_178964" data-name="Group 178964" transform="translate(0 0)">
        <g id="Group_178948" data-name="Group 178948">
          <g id="Group_178947" data-name="Group 178947">
            <g id="Group_178946" data-name="Group 178946">
              <g id="Group_178939" data-name="Group 178939">
                <g id="Group_178921" data-name="Group 178921" transform="translate(0.002 59.799)">
                  <g id="Group_178920" data-name="Group 178920">
                    <g id="Group_178919" data-name="Group 178919">
                      <path id="Path_27353" data-name="Path 27353" d="M273.615,214.309l154.2-1.12,4.3,104.84-159.673-1.48Z" transform="translate(-272.445 -213.189)" fill="#17c2ec"/>
                    </g>
                  </g>
                </g>
                <g id="Group_178924" data-name="Group 178924" transform="translate(1.172)">
                  <g id="Group_178923" data-name="Group 178923">
                    <g id="Group_178922" data-name="Group 178922">
                      <path id="Path_27354" data-name="Path 27354" d="M274.235,182.639l72.981-59.053a8.381,8.381,0,0,1,10.586.033l70.637,57.9" transform="translate(-274.235 -121.72)" fill="#17c2ec"/>
                    </g>
                  </g>
                </g>
                <g id="Group_178927" data-name="Group 178927" transform="translate(1.172)" opacity="0.3">
                  <g id="Group_178926" data-name="Group 178926">
                    <g id="Group_178925" data-name="Group 178925">
                      <path id="Path_27355" data-name="Path 27355" d="M274.235,182.639l72.981-59.053a8.381,8.381,0,0,1,10.586.033l70.637,57.9" transform="translate(-274.235 -121.72)"/>
                    </g>
                  </g>
                </g>
                <g id="Group_178931" data-name="Group 178931" transform="translate(0 103.603)">
                  <g id="Group_178930" data-name="Group 178930" transform="translate(0 0)">
                    <g id="Group_178929" data-name="Group 178929">
                      <g id="Group_178928" data-name="Group 178928">
                        <path id="Path_27356" data-name="Path 27356" d="M272.444,339.747c-.192-.18,12.153-13.659,27.57-30.1s28.077-29.632,28.27-29.452-12.15,13.656-27.573,30.1S272.636,339.927,272.444,339.747Z" transform="translate(-272.442 -280.191)" fill="#263238"/>
                      </g>
                    </g>
                  </g>
                </g>
                <g id="Group_178935" data-name="Group 178935" transform="translate(106.685 105.012)">
                  <g id="Group_178934" data-name="Group 178934" transform="translate(0 0)">
                    <g id="Group_178933" data-name="Group 178933">
                      <g id="Group_178932" data-name="Group 178932">
                        <path id="Path_27357" data-name="Path 27357" d="M488.616,341.973c-.2.175-12.22-13.031-26.85-29.493s-26.335-29.956-26.138-30.131,12.217,13.029,26.852,29.5S488.813,341.8,488.616,341.973Z" transform="translate(-435.626 -282.346)" fill="#263238"/>
                      </g>
                    </g>
                  </g>
                </g>
                <g id="Group_178938" data-name="Group 178938" transform="translate(1.172 59.799)" opacity="0.5">
                  <g id="Group_178937" data-name="Group 178937">
                    <g id="Group_178936" data-name="Group 178936">
                      <path id="Path_27358" data-name="Path 27358" d="M428.439,213.189l-77.433,61.858-76.771-60.738" transform="translate(-274.235 -213.189)"/>
                    </g>
                  </g>
                </g>
              </g>
              <g id="Group_178945" data-name="Group 178945" transform="translate(8.587 16.718)">
                <g id="Group_178944" data-name="Group 178944">
                  <g id="Group_178943" data-name="Group 178943">
                    <g id="Group_178940" data-name="Group 178940" transform="translate(0.11 0.172)">
                      <path id="Path_27359" data-name="Path 27359" d="M285.986,197.312l-.24-48.162,135.026-1.6,1.522,50.674-67.309,53.284Z" transform="translate(-285.745 -147.554)" fill="#fafafa"/>
                    </g>
                    <g id="Group_178942" data-name="Group 178942">
                      <g id="Group_178941" data-name="Group 178941">
                        <path id="Path_27360" data-name="Path 27360" d="M285.927,197.221s.437.327,1.266.97l3.663,2.854,13.934,10.9,50.221,39.369h-.173l67.292-53.307-.063.137c-.291-9.668-.6-19.809-.907-30.13-.209-6.947-.414-13.813-.616-20.544l.171.165-135.027,1.536.108-.11c.053,15.154.095,27.186.124,35.435.008,4.125.015,7.3.02,9.454,0,1.072,0,1.887,0,2.441s-.01.832-.01.832-.01-.274-.018-.818-.015-1.362-.026-2.429c-.017-2.15-.042-5.322-.075-9.44-.054-8.258-.132-20.3-.231-35.473v-.109h.109l135.024-1.657.167,0,.005.167c.2,6.731.409,13.6.618,20.544.309,10.32.613,20.462.9,30.129l0,.085-.067.052-67.327,53.262-.087.069-.086-.068-50.182-39.5-13.874-10.945-3.627-2.874C286.339,197.561,285.927,197.221,285.927,197.221Z" transform="translate(-285.577 -147.292)" fill="#263238"/>
                      </g>
                    </g>
                  </g>
                </g>
              </g>
            </g>
          </g>
        </g>
        <g id="Group_178950" data-name="Group 178950" transform="translate(30.144 41.091)">
          <g id="Group_178949" data-name="Group 178949">
            <path id="Path_27361" data-name="Path 27361" d="M410.79,184.62c0,.094-20.649.3-46.117.45s-46.123.2-46.123.11,20.645-.3,46.121-.45S410.789,184.526,410.79,184.62Z" transform="translate(-318.55 -184.572)" fill="#263238"/>
          </g>
        </g>
        <g id="Group_178952" data-name="Group 178952" transform="translate(30.144 54.694)">
          <g id="Group_178951" data-name="Group 178951">
            <path id="Path_27362" data-name="Path 27362" d="M410.79,205.429c0,.094-20.649.3-46.117.45s-46.123.2-46.123.11,20.645-.3,46.121-.45S410.789,205.335,410.79,205.429Z" transform="translate(-318.55 -205.381)" fill="#263238"/>
          </g>
        </g>
        <g id="Group_178954" data-name="Group 178954" transform="translate(30.144 70.374)">
          <g id="Group_178953" data-name="Group 178953">
            <path id="Path_27363" data-name="Path 27363" d="M410.79,229.413c0,.094-20.649.3-46.117.45s-46.123.2-46.123.11,20.645-.3,46.121-.45S410.789,229.319,410.79,229.413Z" transform="translate(-318.55 -229.365)" fill="#263238"/>
          </g>
        </g>
        <g id="Group_178956" data-name="Group 178956" transform="translate(34.384 86.052)">
          <g id="Group_178955" data-name="Group 178955">
            <path id="Path_27364" data-name="Path 27364" d="M413.035,253.395c0,.094-19.7.29-44,.437s-44,.191-44,.1,19.7-.29,44-.437S413.035,253.3,413.035,253.395Z" transform="translate(-325.035 -253.345)" fill="#263238"/>
          </g>
        </g>
        <g id="Group_178958" data-name="Group 178958" transform="translate(51.873 99.798)">
          <g id="Group_178957" data-name="Group 178957">
            <path id="Path_27365" data-name="Path 27365" d="M405.027,274.438a3.178,3.178,0,0,1-.541.038l-1.551.042-5.7.095-18.82.269c-7.352.123-14.009.165-18.827.17l-5.705-.014-1.551-.022a3.277,3.277,0,0,1-.541-.031,3.167,3.167,0,0,1,.541-.038l1.551-.043,5.7-.094,18.823-.27c7.35-.122,14.006-.164,18.823-.17l5.705.014,1.551.022A3.192,3.192,0,0,1,405.027,274.438Z" transform="translate(-351.787 -274.371)" fill="#263238"/>
          </g>
        </g>
        <g id="Group_178960" data-name="Group 178960" transform="translate(68.065 112.923)">
          <g id="Group_178959" data-name="Group 178959" transform="translate(0 0)">
            <path id="Path_27366" data-name="Path 27366" d="M396.22,294.618c0,.094-4.4.17-9.833.17s-9.834-.076-9.834-.17,4.4-.171,9.834-.171S396.22,294.523,396.22,294.618Z" transform="translate(-376.553 -294.447)" fill="#263238"/>
          </g>
        </g>
        <g id="Group_178961" data-name="Group 178961" transform="translate(116.87 69.791)">
          <circle id="Ellipse_78" data-name="Ellipse 78" cx="16.31" cy="16.31" r="16.31" fill="#263238"/>
        </g>
        <g id="Group_178962" data-name="Group 178962" transform="translate(112.624 69.791)">
          <circle id="Ellipse_79" data-name="Ellipse 79" cx="16.31" cy="16.31" r="16.31" fill="#4a6aff"/>
        </g>
        <g id="Group_178963" data-name="Group 178963" transform="translate(125.623 78.508)">
          <path id="Path_27367" data-name="Path 27367" d="M469.98,241.806v13.56h-2.518V243.917h-2.867v-2.111Z" transform="translate(-464.594 -241.806)" fill="#fff"/>
        </g>
      </g>
    </g>
    <g id="Speech_Bubble" data-name="Speech Bubble" transform="translate(203.195 63.212)">
      <g id="Group_178973" data-name="Group 178973" transform="translate(0 0)">
        <g id="Group_178968" data-name="Group 178968" transform="translate(15.529 13.532)">
          <g id="Group_178965" data-name="Group 178965" transform="translate(0 2.259)">
            <path id="Path_27368" data-name="Path 27368" d="M287.731,109.3l14.916,0-2.016-2.318,0-5.55A5.435,5.435,0,0,0,295.192,96h0a5.435,5.435,0,0,0-5.433,5.437l0,5.282Z" transform="translate(-287.731 -95.999)" fill="#17c2ec"/>
          </g>
          <g id="Group_178966" data-name="Group 178966" transform="translate(5.373 14.058)">
            <path id="Path_27369" data-name="Path 27369" d="M295.95,114.82a2.3,2.3,0,1,0,4.5-.774" transform="translate(-295.95 -114.046)" fill="#17c2ec"/>
          </g>
          <g id="Group_178967" data-name="Group 178967" transform="translate(6.825)">
            <rect id="Rectangle_20950" data-name="Rectangle 20950" width="1.463" height="3.11" fill="#17c2ec"/>
          </g>
        </g>
        <g id="Group_178972" data-name="Group 178972">
          <g id="Group_178971" data-name="Group 178971">
            <g id="Group_178970" data-name="Group 178970">
              <g id="Group_178969" data-name="Group 178969">
                <path id="Path_27370" data-name="Path 27370" d="M308.715,90.733a2.68,2.68,0,0,1-.1-.391l-.261-1.151a13.86,13.86,0,0,0-.53-1.839c-.128-.356-.218-.756-.4-1.152l-.555-1.271a22.582,22.582,0,0,0-3.954-5.843,22.013,22.013,0,0,0-21.192-6.2c-.495.105-.972.295-1.465.44a10.255,10.255,0,0,0-1.459.533,20.881,20.881,0,0,0-5.532,3.311,21.966,21.966,0,0,0-7.384,11.813,21.433,21.433,0,0,0-.428,7.588,21.036,21.036,0,0,0,2.24,7.5l.379.711.05.094-.029.1-3.532,11.593-.31-.28,9.339-4.87.116-.06.105.081a21.979,21.979,0,0,0,9.833,4.271,21.839,21.839,0,0,0,17.3-4.746,22.5,22.5,0,0,0,4.915-5.751,21.778,21.778,0,0,0,3.03-10.479q.007-.968.011-1.719-.065-.735-.11-1.251c-.026-.322-.046-.575-.062-.767a1.364,1.364,0,0,1-.009-.262,1.428,1.428,0,0,1,.045.257c.024.191.057.443.1.764q.061.518.146,1.253.01.755.023,1.731a23.914,23.914,0,0,1-.588,4.734,24.168,24.168,0,0,1-2.357,5.886,22.664,22.664,0,0,1-4.941,5.864,22.109,22.109,0,0,1-17.552,4.9,22.337,22.337,0,0,1-10.027-4.326l.221.021-9.332,4.884-.471.246.161-.526c1.143-3.76,2.323-7.639,3.526-11.6l.021.19-.388-.726a21.493,21.493,0,0,1-2.288-7.671,21.875,21.875,0,0,1,.445-7.754,22.355,22.355,0,0,1,7.552-12.036,21.209,21.209,0,0,1,5.641-3.354,10.473,10.473,0,0,1,1.486-.537c.5-.146.988-.337,1.491-.442a22.019,22.019,0,0,1,25.4,12.358l.541,1.29c.175.4.262.807.383,1.168a12.936,12.936,0,0,1,.491,1.861c.093.495.165.882.219,1.164A2.817,2.817,0,0,1,308.715,90.733Z" transform="translate(-263.978 -71.845)" fill="#263238"/>
              </g>
            </g>
          </g>
        </g>
      </g>
    </g>
    <g id="Plant" transform="translate(383.401 203.06)">
      <g id="Group_178976" data-name="Group 178976" transform="translate(25.043 34.292)">
        <g id="Group_178975" data-name="Group 178975">
          <g id="Group_178974" data-name="Group 178974">
            <path id="Path_27371" data-name="Path 27371" d="M597.79,338.209c2.135,7.227.515,16.512-2.073,23.59a35.745,35.745,0,0,1-13.791,17.433c-.709.468-1.618.919-2.365.516a2.415,2.415,0,0,1-.959-1.776,36.817,36.817,0,0,1,19.189-39.763" transform="translate(-577.926 -338.209)" fill="#4a6aff"/>
          </g>
        </g>
      </g>
      <g id="Group_178979" data-name="Group 178979" transform="translate(25.043 34.292)" opacity="0.2">
        <g id="Group_178978" data-name="Group 178978">
          <g id="Group_178977" data-name="Group 178977">
            <path id="Path_27372" data-name="Path 27372" d="M597.79,338.209c2.135,7.227.515,16.512-2.073,23.59a35.745,35.745,0,0,1-13.791,17.433c-.709.468-1.618.919-2.365.516a2.415,2.415,0,0,1-.959-1.776,36.817,36.817,0,0,1,19.189-39.763" transform="translate(-577.926 -338.209)"/>
          </g>
        </g>
      </g>
      <g id="Group_179000" data-name="Group 179000">
        <g id="Group_178992" data-name="Group 178992">
          <g id="Group_178991" data-name="Group 178991">
            <g id="Group_178982" data-name="Group 178982">
              <g id="Group_178981" data-name="Group 178981">
                <g id="Group_178980" data-name="Group 178980">
                  <path id="Path_27373" data-name="Path 27373" d="M552.413,285.759c4.5-.122,7.469,4.878,7.92,9.359s-.547,9.134.768,13.441c1.671,5.471,6.784,9.395,8.333,14.9,1.827,6.493-1.735,13.231-1.906,19.975-.083,3.281.642,6.6.035,9.822a12.074,12.074,0,0,1-23.686.235c-1.054-5.052,1.172-10.418-.163-15.4-.987-3.685-3.846-6.812-4.079-10.619-.278-4.53,3.229-8.446,3.879-12.938s-1.618-8.879-1.956-13.407c-.606-8.121,2.756-14.5,10.854-15.366" transform="translate(-539.621 -285.757)" fill="#4a6aff"/>
                </g>
              </g>
            </g>
            <g id="Group_178986" data-name="Group 178986" transform="translate(22.649 49.353)">
              <g id="Group_178985" data-name="Group 178985">
                <g id="Group_178984" data-name="Group 178984">
                  <g id="Group_178983" data-name="Group 178983">
                    <path id="Path_27374" data-name="Path 27374" d="M574.27,404.371a1.955,1.955,0,0,0,.132-.45c.079-.344.178-.776.3-1.306.244-1.136.62-2.776,1.111-4.795A155.7,155.7,0,0,1,586.686,367.3c.9-1.875,1.64-3.383,2.17-4.417.241-.486.437-.883.595-1.2a1.98,1.98,0,0,0,.182-.432,1.911,1.911,0,0,0-.258.391l-.666,1.163c-.575,1.013-1.363,2.5-2.295,4.363a136.071,136.071,0,0,0-10.9,30.587c-.456,2.032-.787,3.684-.981,4.832l-.22,1.322A1.951,1.951,0,0,0,574.27,404.371Z" transform="translate(-574.265 -361.247)" fill="#263238"/>
                  </g>
                </g>
              </g>
            </g>
            <g id="Group_178990" data-name="Group 178990" transform="translate(12.975 22.149)">
              <g id="Group_178989" data-name="Group 178989">
                <g id="Group_178988" data-name="Group 178988">
                  <g id="Group_178987" data-name="Group 178987">
                    <path id="Path_27375" data-name="Path 27375" d="M559.472,319.636a4.465,4.465,0,0,0,.06.721q.094.76.254,2.055c.241,1.822.579,4.391.995,7.549.847,6.372,2.008,15.177,3.232,24.909s2.275,18.554,3.031,24.939c.378,3.162.685,5.735.9,7.56l.263,2.053a4.545,4.545,0,0,0,.12.713,4.673,4.673,0,0,0-.035-.722q-.068-.763-.183-2.062c-.186-1.829-.447-4.408-.769-7.576-.679-6.395-1.685-15.221-2.907-24.958s-2.432-18.534-3.356-24.9c-.472-3.15-.856-5.713-1.129-7.531q-.209-1.288-.332-2.044A4.619,4.619,0,0,0,559.472,319.636Z" transform="translate(-559.468 -319.636)" fill="#263238"/>
                  </g>
                </g>
              </g>
            </g>
          </g>
        </g>
        <g id="Group_178999" data-name="Group 178999" transform="translate(4.191 83.646)">
          <g id="Group_178993" data-name="Group 178993">
            <rect id="Rectangle_20951" data-name="Rectangle 20951" width="34.164" height="3.99" fill="#263238"/>
          </g>
          <g id="Group_178994" data-name="Group 178994" transform="translate(3.167 3.99)">
            <path id="Path_27376" data-name="Path 27376" d="M550.877,419.8l4.012,24.2H576.08l2.777-24.2Z" transform="translate(-550.877 -419.804)" fill="#263238"/>
          </g>
          <g id="Group_178996" data-name="Group 178996" transform="translate(3.062 3.757)">
            <g id="Group_178995" data-name="Group 178995">
              <path id="Path_27377" data-name="Path 27377" d="M578.91,419.517c0,.093-6.31.248-14.094.345s-14.1.1-14.1.005,6.308-.248,14.1-.345S578.909,419.423,578.91,419.517Z" transform="translate(-550.716 -419.448)" fill="#455a64"/>
            </g>
          </g>
          <g id="Group_178998" data-name="Group 178998" transform="translate(5.448 8.662)">
            <g id="Group_178997" data-name="Group 178997">
              <path id="Path_27378" data-name="Path 27378" d="M579.009,434.227a.771.771,0,0,1-.193.023l-.566.026a13.949,13.949,0,0,1-2.182-.084,6.678,6.678,0,0,1-3.23-1.211,4.544,4.544,0,0,1-1.407-1.664,3.271,3.271,0,0,1-.2-2.432,2.206,2.206,0,0,1,2.13-1.539,1.916,1.916,0,0,1,1.319.667,3.044,3.044,0,0,1,.66,1.37,4.68,4.68,0,0,1-3.245,5.087,5.215,5.215,0,0,1-6.064-2.778,4.62,4.62,0,0,1-.492-1.831,3,3,0,0,1,.5-1.881,2.371,2.371,0,0,1,1.7-1.021,2.023,2.023,0,0,1,1.794.89,3.157,3.157,0,0,1,.586,1.911,4.321,4.321,0,0,1-.49,1.9,5.918,5.918,0,0,1-2.724,2.582,11.021,11.021,0,0,1-3.486.984,7.645,7.645,0,0,1-3.464-.3,5,5,0,0,1-2.6-2.042,3.584,3.584,0,0,1-.336-3.085,2.8,2.8,0,0,1,2.147-1.916,2.744,2.744,0,0,1,2.5.932,2.35,2.35,0,0,1,.222,2.4,3.745,3.745,0,0,1-1.435,1.64,8.475,8.475,0,0,1-1.7.824c-.541.2-1.043.366-1.5.5a18.727,18.727,0,0,1-2.127.487c-.247.041-.435.067-.562.081a.814.814,0,0,1-.193.013.872.872,0,0,1,.188-.047l.554-.114c.486-.1,1.2-.265,2.1-.547.45-.14.945-.312,1.479-.522a8.423,8.423,0,0,0,1.651-.831,3.551,3.551,0,0,0,1.341-1.565,2.126,2.126,0,0,0-.21-2.169,2.5,2.5,0,0,0-2.271-.822,2.535,2.535,0,0,0-1.921,1.751,3.291,3.291,0,0,0,.326,2.835,4.7,4.7,0,0,0,2.451,1.9,7.345,7.345,0,0,0,3.32.275,10.721,10.721,0,0,0,3.376-.96,5.592,5.592,0,0,0,2.571-2.437,3.314,3.314,0,0,0-.069-3.453,1.683,1.683,0,0,0-1.493-.751,2.034,2.034,0,0,0-1.45.877,2.666,2.666,0,0,0-.437,1.67,4.3,4.3,0,0,0,.455,1.7A4.9,4.9,0,0,0,572,434.171a4.394,4.394,0,0,0,3.065-4.731,2.779,2.779,0,0,0-.588-1.247,1.651,1.651,0,0,0-1.129-.584,1.958,1.958,0,0,0-1.887,1.356,3.049,3.049,0,0,0,.17,2.261,4.362,4.362,0,0,0,1.326,1.6,6.611,6.611,0,0,0,3.133,1.231,16.108,16.108,0,0,0,2.163.147l.566.008A.869.869,0,0,1,579.009,434.227Z" transform="translate(-554.365 -426.951)" fill="#455a64"/>
            </g>
          </g>
        </g>
      </g>
    </g>
  </g>
</svg>
