<svg xmlns="http://www.w3.org/2000/svg" width="498.56" height="461.681" viewBox="0 0 498.56 461.681">
  <g id="Group_179600" data-name="Group 179600" transform="translate(-47.235 -66.33)">
    <g id="Objects" transform="translate(47.235 66.33)">
      <g id="Group_179599" data-name="Group 179599" transform="translate(0 0)">
        <ellipse id="Ellipse_85" data-name="Ellipse 85" cx="249.28" cy="14.558" rx="249.28" ry="14.558" transform="translate(0 432.564)" fill="#f2f2f2"/>
        <g id="Group_179598" data-name="Group 179598" transform="translate(107.453)">
          <g id="Group_179595" data-name="Group 179595" transform="translate(34.682 61.116)">
            <path id="Path_27591" data-name="Path 27591" d="M229.87,200.736c-.348.528-.566.837-.841,1.218s-.525.715-.788,1.058c-.53.694-1.08,1.338-1.632,1.99-1.116,1.281-2.251,2.529-3.452,3.7a71.971,71.971,0,0,1-7.679,6.481,68.329,68.329,0,0,1-8.551,5.248c-1.5.734-3,1.482-4.555,2.1l-2.33.926-.647.251a10.594,10.594,0,0,1-1.093.33,9.321,9.321,0,0,1-2.379.276,9.677,9.677,0,0,1-4.389-1.1,12.9,12.9,0,0,1-2.967-2.147,21.955,21.955,0,0,1-3.591-4.628,49.441,49.441,0,0,1-4.1-9.25,102.221,102.221,0,0,1-4.31-18.664l5.373-1.18c.971,2.816,1.971,5.728,3.086,8.523,1.065,2.821,2.214,5.6,3.492,8.243a47.85,47.85,0,0,0,4.169,7.321,12.614,12.614,0,0,0,2.278,2.52,2.774,2.774,0,0,0,.831.485c.181.055.163,0,.076-.03a.222.222,0,0,1-.086-.027c-.01.009.005-.026.01-.022l.419-.2,1.921-.93c1.281-.617,2.5-1.35,3.748-2.026a77.275,77.275,0,0,0,7.042-4.774,66.146,66.146,0,0,0,6.332-5.652c1.013-.984,1.959-2.025,2.877-3.072.45-.526.9-1.061,1.317-1.589l.621-.783.5-.671Z" transform="translate(-163.835 -95.622)" fill="#ce7a63"/>
            <path id="Path_27592" data-name="Path 27592" d="M207.116,197.333l6.519,15.626-4.713,2.953-7.328-14.19Z" transform="translate(-156.685 -92.769)" fill="#17c2ec"/>
            <path id="Path_27593" data-name="Path 27593" d="M225.061,187.09c-10.633-.147-21.428,13.321-21.7,13.653l8.416,19.771s18.7-15.186,19.641-21.121C232.392,193.213,231.8,187.183,225.061,187.09Z" transform="translate(-156.18 -95.696)" fill="#4a6aff"/>
            <path id="Path_27594" data-name="Path 27594" d="M182,187.042l-7.361-5.72-1.482,11.255s7.146,2.805,10.954.377L184,190.9A5.22,5.22,0,0,0,182,187.042Z" transform="translate(-164.81 -97.343)" fill="#ce7a63"/>
            <path id="Path_27595" data-name="Path 27595" d="M166.663,180.875l.458,8.562,7.885,3.268,1.482-11.256Z" transform="translate(-166.663 -97.471)" fill="#ce7a63"/>
            <path id="Path_27596" data-name="Path 27596" d="M292.494,187.5l11.364-2.844-7.943-8.111s-7.373,3-5.577,9.432Z" transform="translate(-131.412 -98.709)" fill="#ce7a63"/>
            <path id="Path_27597" data-name="Path 27597" d="M308.264,183.26l-.94-8.922-12.711,2.834,7.943,8.111Z" transform="translate(-130.11 -99.338)" fill="#ce7a63"/>
            <path id="Path_27598" data-name="Path 27598" d="M267.477,413.017l-10.58,1.026-8.822-24.977,10.58-1.026Z" transform="translate(-143.406 -38.287)" fill="#ce7a63"/>
            <path id="Path_27599" data-name="Path 27599" d="M357.455,370.114l-7.8,7.562-20.02-15.631,7.8-7.562Z" transform="translate(-120.105 -47.874)" fill="#ce7a63"/>
            <path id="Path_27600" data-name="Path 27600" d="M343.862,373.847l5.991-10.634a.859.859,0,0,1,1.071-.392l9.1,3.528a1.746,1.746,0,0,1,.828,2.466c-2.152,3.672-3.376,5.336-6.011,10.012-1.62,2.877-4.783,9.479-7.02,13.452-2.189,3.887-6.286,1.972-5.71.117,2.583-8.316,2.136-12.958,1.445-16.639A2.835,2.835,0,0,1,343.862,373.847Z" transform="translate(-116.557 -45.509)" fill="#404040"/>
            <path id="Path_27601" data-name="Path 27601" d="M258.1,405.743h12.888a1.069,1.069,0,0,1,1.018.783l2.8,10.2a1.594,1.594,0,0,1-1.572,2.04c-4.5-.077-6.7-.342-12.371-.342-3.487,0-14.843.362-19.658.362-4.709,0-5.7-4.761-3.746-5.192,8.738-1.934,16.119-4.6,18.815-7.145A2.644,2.644,0,0,1,258.1,405.743Z" transform="translate(-146.708 -33.23)" fill="#404040"/>
            <path id="Path_27602" data-name="Path 27602" d="M248.078,389.07l4.545,12.875H263.57l-4.908-13.9Z" transform="translate(-143.405 -38.286)" fill="#bc6753"/>
            <path id="Path_27603" data-name="Path 27603" d="M337.441,354.484l-7.8,7.565,10.323,8.053,7.8-7.565Z" transform="translate(-120.104 -47.874)" fill="#bc6753"/>
            <path id="Path_27604" data-name="Path 27604" d="M212.239,193.73s-4.366,3.323,25.081,60.8l41.989-13.552c-6.22-16.863-9.641-27.394-12.8-65.1a130.215,130.215,0,0,0-18.588,3.406c-12.417,3.357-18.349,5.849-19.065,6.155C220.912,188.832,212.239,193.73,212.239,193.73Z" transform="translate(-153.709 -98.898)" fill="#4a6aff"/>
            <path id="Path_27605" data-name="Path 27605" d="M235.541,162.3c.778,6.522,3.205,18.15,8.819,20.859,0,0,.332,6.764-11.067,10.444-12.534,4.046-8-4.289-8-4.289,6.313-3.842,4.5-8.86,1.768-13.243Z" transform="translate(-150.142 -102.776)" fill="#ce7a63"/>
            <g id="Group_179594" data-name="Group 179594" transform="translate(64.192 78.116)">
              <path id="Path_27606" data-name="Path 27606" d="M216.732,190.358c3.1-1.607,7.046-3.557,10.819-5.172a140.094,140.094,0,0,1,19.069-6.156c3.669-1,7.372-1.749,10.5-2.268.292.872-.6,3.133-2.771,6.255-6.875,5.719-21.542,13.132-32.358,12.859C217.319,194.12,216.142,192.258,216.732,190.358Z" transform="translate(-216.592 -176.762)" fill="#ce7a63"/>
              <path id="Path_27607" data-name="Path 27607" d="M253.147,181.627c-2.976,4.276-8.372,10.175-16.56,16.4-7.458-1.112-12.5-2.3-15.8-3.543C231.605,194.759,246.273,187.346,253.147,181.627Z" transform="translate(-215.392 -175.372)" fill="#17c2ec"/>
            </g>
            <path id="Path_27608" data-name="Path 27608" d="M231.513,166.674l-5.019,8.147a20.5,20.5,0,0,1,1.68,3.195c2.492-1.221,5.674-4.834,5.068-7.66A11.55,11.55,0,0,0,231.513,166.674Z" transform="translate(-149.571 -101.528)" fill="#bc6753"/>
            <path id="Path_27609" data-name="Path 27609" d="M241.767,156.034c.648,10.762,1.153,15.3-3.573,21.445-7.109,9.239-20.469,7.681-24.32-2.67-3.466-9.319-3.944-25.354,5.993-30.881A14.706,14.706,0,0,1,241.767,156.034Z" transform="translate(-153.819 -108.575)" fill="#ce7a63"/>
            <circle id="Ellipse_86" data-name="Ellipse 86" cx="19.857" cy="19.857" r="19.857" transform="translate(66.06 38.725) rotate(-77.193)" fill="#0f264c"/>
            <path id="Path_27610" data-name="Path 27610" d="M235.091,141.688c4.094,2.7,6.128,6.833,4.544,9.239s-6.188,2.169-10.283-.527-6.128-6.833-4.542-9.239S231,138.991,235.091,141.688Z" transform="translate(-150.206 -109.291)" fill="#9fc6ff"/>
            <path id="Path_27611" data-name="Path 27611" d="M236.349,163.519c1.071-2.465-2.655-9.8-1.849-12.538-2.142-1.983-23.771,5.064-22.029-.089,1.668-4.929,6.943-11.482,18.975-8.743,12.906,2.939,13.982,14.056,12.535,17.6S240.5,167,240.5,167Z" transform="translate(-153.606 -108.719)" fill="#0f264c"/>
            <path id="Path_27612" data-name="Path 27612" d="M238.9,161.089a7.876,7.876,0,0,1-2.224,5.591c-1.94,1.968-4.277.563-4.883-1.984-.545-2.292-.192-6.079,2.307-7.091C236.563,156.609,238.844,158.535,238.9,161.089Z" transform="translate(-148.119 -104.195)" fill="#ce7a63"/>
            <path id="Path_27613" data-name="Path 27613" d="M234.34,239.655s-19.464,94.937-8.609,126.246c11.29,32.566,29.666,78.032,29.666,78.032l17.159-.985s-14.179-57.447-17.628-83.388c-4.756-35.764,15.657-131.6,15.657-131.6Z" transform="translate(-150.729 -84.021)" fill="#404040"/>
            <path id="Path_27614" data-name="Path 27614" d="M267.6,397.487l-19.869,1.14-3.186-7.809,21.91-2.277Z" transform="translate(-144.415 -38.144)" fill="#4a6aff"/>
            <path id="Path_27615" data-name="Path 27615" d="M247.992,242.744c-2.983,11.031-.489,27.564,5.143,39.161,1.376-9.013,2.841-17.717,4.23-25.521C254.472,250.843,251.284,245.828,247.992,242.744Z" transform="translate(-143.792 -79.796)" fill="#262626"/>
            <path id="Path_27616" data-name="Path 27616" d="M240.321,236.488s28.9,69.023,48.038,107c15.455,30.678,72.689,62.78,72.689,62.78l10.251-10.9s-42.784-38-53.452-58.8c-34.148-66.584-27.125-95.663-46.625-110.06Z" transform="translate(-145.621 -84.432)" fill="#404040"/>
            <path id="Path_27617" data-name="Path 27617" d="M348.835,358.038,334.7,373.068l-8.951-4.712,16.285-16.607Z" transform="translate(-121.215 -48.655)" fill="#4a6aff"/>
            <path id="Path_27618" data-name="Path 27618" d="M273.979,224.473l3.106,3.147c.24.244-.009.653-.494.81l-44.035,14.213c-.379.122-.752.039-.852-.192l-1.593-3.637c-.109-.252.148-.577.562-.711l42.519-13.725A.8.8,0,0,1,273.979,224.473Z" transform="translate(-148.545 -85.059)" fill="#14365b"/>
            <path id="Path_27619" data-name="Path 27619" d="M261.567,230.819l1.138-.368c.228-.073.363-.246.3-.384l-2.111-4.711c-.062-.138-.3-.19-.525-.117l-1.138.368c-.228.073-.363.246-.3.383l2.11,4.711C261.1,230.839,261.339,230.893,261.567,230.819Z" transform="translate(-140.308 -84.806)" fill="#9fc6ff"/>
            <path id="Path_27620" data-name="Path 27620" d="M235.188,239.333l1.139-.368c.226-.072.361-.246.3-.383l-2.11-4.711c-.062-.138-.3-.19-.525-.117l-1.139.366c-.226.073-.361.247-.3.384l2.11,4.711C234.725,239.354,234.961,239.406,235.188,239.333Z" transform="translate(-147.844 -82.374)" fill="#9fc6ff"/>
            <path id="Path_27621" data-name="Path 27621" d="M248.377,235.076l1.139-.368c.228-.073.363-.246.3-.383l-2.111-4.711c-.062-.139-.3-.192-.525-.118l-1.139.368c-.226.073-.361.246-.3.384l2.11,4.711C247.914,235.1,248.15,235.15,248.377,235.076Z" transform="translate(-144.076 -83.59)" fill="#9fc6ff"/>
            <path id="Path_27622" data-name="Path 27622" d="M223.211,157.1c.107.869-.269,1.63-.837,1.7s-1.116-.579-1.221-1.449.269-1.632.837-1.7S223.106,156.231,223.211,157.1Z" transform="translate(-151.102 -104.679)" fill="#0f264c"/>
            <path id="Path_27623" data-name="Path 27623" d="M215.564,158.034c.107.87-.269,1.632-.837,1.7s-1.116-.58-1.221-1.449.269-1.632.837-1.7S215.459,157.165,215.564,158.034Z" transform="translate(-153.287 -104.412)" fill="#0f264c"/>
            <path id="Path_27624" data-name="Path 27624" d="M214.834,156.675l-2.163-.347S213.941,157.828,214.834,156.675Z" transform="translate(-153.52 -104.484)" fill="#0f264c"/>
            <path id="Path_27625" data-name="Path 27625" d="M217.8,158.627a23.392,23.392,0,0,1-2.422,5.93,3.769,3.769,0,0,0,3.172.2Z" transform="translate(-152.745 -103.827)" fill="#ba4d3c"/>
            <path id="Path_27626" data-name="Path 27626" d="M220.587,166.67a.258.258,0,0,1-.031-.514,6.961,6.961,0,0,0,5.291-3.379.257.257,0,0,1,.462.228,7.348,7.348,0,0,1-5.689,3.663Z" transform="translate(-151.332 -102.683)" fill="#0f264c"/>
            <path id="Path_27627" data-name="Path 27627" d="M224.715,154.872a.518.518,0,0,1-.337-.126,4.073,4.073,0,0,0-3.586-.989.514.514,0,0,1-.284-.989,5.106,5.106,0,0,1,4.542,1.2.515.515,0,0,1-.336.905Z" transform="translate(-151.387 -105.537)" fill="#0f264c"/>
            <path id="Path_27628" data-name="Path 27628" d="M211.266,155.414a.515.515,0,0,1-.459-.746,5.108,5.108,0,0,1,3.737-2.848.515.515,0,0,1,.117,1.023h0a4.074,4.074,0,0,0-2.935,2.286A.514.514,0,0,1,211.266,155.414Z" transform="translate(-154.068 -105.772)" fill="#0f264c"/>
            <path id="Path_27629" data-name="Path 27629" d="M263.016,184.14l.482.615.6.73c.41.494.842,1,1.284,1.489.891.984,1.817,1.958,2.8,2.885a70.161,70.161,0,0,0,6.135,5.354c2.186,1.628,4.427,3.195,6.77,4.616,1.178.7,2.375,1.369,3.577,2.031l1.837.935.9.455c.217.1.436.207.64.279a5.252,5.252,0,0,0,2.071.422,3.248,3.248,0,0,0,1.8-.665,14.157,14.157,0,0,0,3.971-5.3,43.69,43.69,0,0,0,2.861-7.639c.813-2.669,1.443-5.526,1.974-8.227l5.491.347a56.313,56.313,0,0,1-2.674,18.666,26.889,26.889,0,0,1-2.125,4.726,17.6,17.6,0,0,1-3.656,4.571,12.85,12.85,0,0,1-6.151,3.016,14.01,14.01,0,0,1-6.664-.463c-.5-.144-.966-.321-1.436-.5l-1.12-.464-2.191-.919c-1.444-.649-2.873-1.338-4.277-2.079a71.047,71.047,0,0,1-8.111-5.008,73.461,73.461,0,0,1-7.393-6.094c-1.164-1.106-2.274-2.276-3.363-3.486-.543-.609-1.08-1.223-1.6-1.877l-.778-1c-.273-.363-.486-.651-.838-1.165Z" transform="translate(-141.761 -97.117)" fill="#ce7a63"/>
            <path id="Path_27630" data-name="Path 27630" d="M270.745,189.787,262.708,203.3l-3.932-3.71,7.431-13.525Z" transform="translate(-140.348 -95.988)" fill="#17c2ec"/>
            <path id="Path_27631" data-name="Path 27631" d="M255.811,175.88c4.619-.08,15.856,13.192,15.856,13.192L261.9,206.083s-12.444-10.971-12.431-16.98C249.486,182.847,250.54,175.969,255.811,175.88Z" transform="translate(-143.006 -98.898)" fill="#4a6aff"/>
            <path id="Path_27632" data-name="Path 27632" d="M342.122,376.894a1.608,1.608,0,0,1-.976-.369.874.874,0,0,1-.377-.8c.122-1.382,3.6-3.213,3.992-3.416a.261.261,0,0,1,.282.03.257.257,0,0,1,.084.27c-.4,1.388-1.268,3.784-2.579,4.217A1.323,1.323,0,0,1,342.122,376.894Zm2.327-3.831c-1.369.771-3.1,1.979-3.168,2.706a.368.368,0,0,0,.18.347.966.966,0,0,0,.926.22C343.094,376.1,343.849,374.9,344.45,373.063Z" transform="translate(-116.925 -42.79)" fill="#17c2ec"/>
            <path id="Path_27633" data-name="Path 27633" d="M341.87,373.786a2.563,2.563,0,0,1-1.607-.4.9.9,0,0,1-.2-1.107,1.339,1.339,0,0,1,.832-.78c1.493-.51,4.226,1.005,4.339,1.071a.257.257,0,0,1,.008.445A7.8,7.8,0,0,1,341.87,373.786Zm-.26-1.885a1.69,1.69,0,0,0-.546.081.835.835,0,0,0-.526.489c-.126.307-.033.44.06.521.576.5,2.714.285,3.941-.208A7.814,7.814,0,0,0,341.61,371.9Z" transform="translate(-117.155 -43.044)" fill="#17c2ec"/>
            <path id="Path_27634" data-name="Path 27634" d="M249.563,408a4.292,4.292,0,0,1-2.517-.6,1.6,1.6,0,0,1-.653-1.238.74.74,0,0,1,.323-.7c1.171-.793,5.558,1.2,6.426,1.61a.257.257,0,0,1-.054.483A17.225,17.225,0,0,1,249.563,408Zm-2.053-2.223a.924.924,0,0,0-.507.109.239.239,0,0,0-.1.244,1.093,1.093,0,0,0,.451.858c1.012.765,3.431.474,4.839.22A15.967,15.967,0,0,0,247.51,405.779Z" transform="translate(-143.887 -33.363)" fill="#17c2ec"/>
            <path id="Path_27635" data-name="Path 27635" d="M252.518,408.139a.266.266,0,0,1-.1-.019c-1.454-.6-4.387-2.948-4.222-4.163.036-.266.219-.6.881-.68,2.557-.333,3.646,4.349,3.691,4.547a.256.256,0,0,1-.085.253A.26.26,0,0,1,252.518,408.139Zm-3.205-4.362a1.6,1.6,0,0,0-.174.01c-.27.032-.415.113-.432.238-.1.706,1.931,2.565,3.412,3.378C251.781,406.279,250.855,403.777,249.312,403.777Z" transform="translate(-143.373 -33.939)" fill="#17c2ec"/>
            <path id="Path_27636" data-name="Path 27636" d="M222.481,155.741l-2.163-.347S221.588,156.9,222.481,155.741Z" transform="translate(-151.335 -104.751)" fill="#0f264c"/>
          </g>
          <g id="Group_179597" data-name="Group 179597">
            <path id="Path_27637" data-name="Path 27637" d="M165.088,85.778c-2.285,2.857-14.82,6.212-24.784,5.284-3.429,22.521,8.57,48.464,8.57,48.464s26.035-3.106,26.678-13.821S165.088,85.778,165.088,85.778Z" transform="translate(-139.688 -63.523)" fill="#55d0ee"/>
            <path id="Path_27638" data-name="Path 27638" d="M314.228,72.453c2.33,3.273,14.159,6.53,23.285,4.828,4.9,26.669-4.175,58.34-4.175,58.34s-24.27-2.154-25.689-14.9S314.228,72.453,314.228,72.453Z" transform="translate(-91.752 -67.329)" fill="#55d0ee"/>
            <path id="Path_27639" data-name="Path 27639" d="M187.173,300.83h0a1.429,1.429,0,0,1-1.615-1.215l-30.6-216.593a1.429,1.429,0,0,1,1.215-1.615h0a1.428,1.428,0,0,1,1.614,1.215l30.6,216.593A1.429,1.429,0,0,1,187.173,300.83Z" transform="translate(-135.33 -64.775)" fill="#404040"/>
            <path id="Path_27640" data-name="Path 27640" d="M293.446,288.306h0a1.429,1.429,0,0,0,1.615-1.215L325.665,70.5a1.427,1.427,0,0,0-1.214-1.614h0a1.429,1.429,0,0,0-1.615,1.214l-30.6,216.594A1.428,1.428,0,0,0,293.446,288.306Z" transform="translate(-96.112 -68.353)" fill="#404040"/>
            <path id="Path_27641" data-name="Path 27641" d="M154.059,91.294l5.774,42.523a1.9,1.9,0,0,0,2.4,1.565c12.931-3.7,84.813-22.169,195.326-10.414a1.89,1.89,0,0,0,2.062-1.513c2.083-10.773,5.674-41.459,6.579-49.311a1.894,1.894,0,0,0-1.644-2.094c-14.841-1.878-116.114-13.106-209.2,17.179A1.905,1.905,0,0,0,154.059,91.294Z" transform="translate(-135.587 -68.468)" fill="#17c2ec"/>
            <g id="Group_179596" data-name="Group 179596" transform="translate(37.014 16.483)">
              <path id="Path_27642" data-name="Path 27642" d="M168.477,93.264l6.1-1.237,4.315,11.2,1.092-12.3,6.076-1.232,5.337,10.977.081-12.075,6.065-1.229-.793,21.731-6.295,1.275L184.423,98.02l-1.245,13.833-6.295,1.275Z" transform="translate(-168.477 -79.55)" fill="#fff"/>
              <path id="Path_27643" data-name="Path 27643" d="M193.4,87.683l17.345-2.546.567,4.484-10.86,1.594.422,3.338,10.075-1.479.54,4.283-10.073,1.479.523,4.14,11.174-1.641.6,4.756-17.66,2.593Z" transform="translate(-161.356 -80.188)" fill="#fff"/>
              <path id="Path_27644" data-name="Path 27644" d="M210.325,84.882l6.5-.7,1.392,15.906,10.144-1.094.455,5.2-16.643,1.795Z" transform="translate(-156.522 -80.462)" fill="#fff"/>
              <path id="Path_27645" data-name="Path 27645" d="M240.379,94.866l5.8,1.326a10.856,10.856,0,0,1-1.6,4.159,8.117,8.117,0,0,1-2.946,2.659A11.6,11.6,0,0,1,237,104.166a13.423,13.423,0,0,1-5.667-.6,8.675,8.675,0,0,1-3.943-3.259,11.847,11.847,0,0,1-1.916-6.353q-.268-5.253,2.368-8.273t7.731-3.384a10.546,10.546,0,0,1,6.347,1.169,9.276,9.276,0,0,1,3.642,4.726l-5.687,1.7a4.891,4.891,0,0,0-.706-1.369,3.682,3.682,0,0,0-1.4-1.061,3.807,3.807,0,0,0-1.791-.276,3.919,3.919,0,0,0-3.3,2.031,7.719,7.719,0,0,0-.678,4.232q.181,3.518,1.313,4.748a3.575,3.575,0,0,0,3.06,1.09,3.7,3.7,0,0,0,2.772-1.256A6.689,6.689,0,0,0,240.379,94.866Z" transform="translate(-152.2 -81.014)" fill="#fff"/>
              <path id="Path_27646" data-name="Path 27646" d="M243.421,92.677q-.069-5.2,2.774-8.183a11.028,11.028,0,0,1,7.985-3.156q5.271-.17,8.159,2.579t2.955,7.872a13.256,13.256,0,0,1-1.167,6.139,9.15,9.15,0,0,1-3.552,3.822,12,12,0,0,1-5.851,1.516,13.308,13.308,0,0,1-5.927-.95,8.662,8.662,0,0,1-3.842-3.494A11.89,11.89,0,0,1,243.421,92.677Zm6.523-.185q.041,3.213,1.248,4.578a3.941,3.941,0,0,0,3.251,1.3,4.1,4.1,0,0,0,3.236-1.48q1.134-1.414,1.089-4.973a6.477,6.477,0,0,0-1.26-4.338,4.411,4.411,0,0,0-6.428.231Q249.9,89.251,249.945,92.492Z" transform="translate(-147.067 -81.277)" fill="#fff"/>
              <path id="Path_27647" data-name="Path 27647" d="M263.64,81.288l8.578.069,2.954,12.94,3.636-12.888,8.573.069L286.8,102.7l-5.341-.044.441-16.184-4.558,16.152-4.834-.039L268.843,86.37l-.441,16.184-5.341-.041Z" transform="translate(-141.456 -81.288)" fill="#fff"/>
              <path id="Path_27648" data-name="Path 27648" d="M285.938,81.583l17.449.777-.287,4.527L292.176,86.4l-.213,3.37,10.134.451-.274,4.324-10.134-.45-.265,4.178,11.239.5-.3,4.8-17.766-.791Z" transform="translate(-135.304 -81.204)" fill="#fff"/>
            </g>
          </g>
        </g>
      </g>
    </g>
  </g>
</svg>
